<?xml version="1.0" encoding="UTF-8"?>
<svg id="Layer_2" data-name="Layer 2" xmlns="http://www.w3.org/2000/svg" viewBox="0 0 118.62 56.58">
  <g id="Icons">
    <g>
      <g>
        <path d="M0,56.46v-7.1h2.34c1.02,0,1.88.34,2.59,1.03.71.69,1.06,1.53,1.06,2.52s-.35,1.83-1.06,2.52c-.71.69-1.57,1.03-2.59,1.03H0ZM1.45,55.13h.89c.65,0,1.17-.21,1.58-.64.41-.43.61-.95.61-1.58s-.2-1.15-.61-1.58-.93-.64-1.58-.64h-.89v4.44Z"/>
        <path d="M13.21,55.5c-.72.72-1.58,1.08-2.59,1.08s-1.88-.36-2.59-1.08c-.72-.72-1.08-1.58-1.08-2.59s.36-1.88,1.08-2.6c.72-.72,1.58-1.08,2.59-1.08s1.88.36,2.59,1.08c.72.72,1.08,1.58,1.08,2.6s-.36,1.88-1.08,2.59ZM9.04,54.51c.43.44.95.67,1.57.67s1.13-.22,1.57-.67c.43-.44.64-.98.64-1.6s-.21-1.16-.64-1.6c-.43-.44-.95-.67-1.57-.67s-1.13.22-1.57.67c-.43.44-.64.98-.64,1.6s.21,1.16.64,1.6Z"/>
        <path d="M21.98,56.46h-1.25l-3.64-4.63v4.63h-1.45v-7.1h1.25l3.64,4.63v-4.63h1.45v7.1Z"/>
        <path d="M30.1,56.46h-1.25l-3.64-4.63v4.63h-1.45v-7.1h1.25l3.64,4.63v-4.63h1.45v7.1Z"/>
        <path d="M31.88,56.46v-7.1h4.42v1.38h-2.97v1.46h2.37v1.38h-2.37v1.5h2.97v1.38h-4.42Z"/>
        <path d="M37.76,56.46v-7.1h2.72c.65,0,1.17.2,1.58.6s.61.9.61,1.5c0,.93-.49,1.55-1.46,1.85l2.55,3.15h-1.75l-2.44-2.99h-.35v2.99h-1.45ZM39.21,52.23h1.1c.28,0,.5-.07.67-.21s.25-.32.25-.56-.08-.43-.25-.56-.38-.21-.67-.21h-1.1v1.54Z"/>
        <path d="M46.8,56.46v-7.1h2.34c1.02,0,1.88.34,2.59,1.03.71.69,1.06,1.53,1.06,2.52s-.35,1.83-1.06,2.52c-.71.69-1.57,1.03-2.59,1.03h-2.34ZM48.25,55.13h.89c.65,0,1.17-.21,1.58-.64.41-.43.61-.95.61-1.58s-.2-1.15-.61-1.58-.93-.64-1.58-.64h-.89v4.44Z"/>
        <path d="M54.16,56.46v-7.1h4.42v1.38h-2.97v1.46h2.37v1.38h-2.37v1.5h2.97v1.38h-4.42Z"/>
        <path d="M62.32,56.58c-.81,0-1.46-.23-1.95-.7-.49-.46-.75-1-.78-1.62h1.45c.05.31.2.56.43.73s.52.25.85.25c.3,0,.54-.06.73-.19s.28-.31.28-.52c0-.39-.32-.68-.95-.86l-.75-.22c-.58-.17-1.03-.43-1.36-.78-.33-.35-.49-.79-.5-1.32,0-.65.22-1.16.65-1.53.43-.38,1.01-.57,1.73-.57s1.32.22,1.77.66.69.94.72,1.5h-1.44c-.07-.28-.21-.49-.4-.62-.19-.13-.41-.2-.65-.2-.27,0-.49.06-.66.17s-.26.28-.26.48c0,.21.06.39.21.52.15.13.37.24.68.33l.83.23c1.23.34,1.84,1.06,1.84,2.15,0,.61-.23,1.12-.68,1.52-.46.4-1.05.6-1.79.6Z"/>
        <path d="M71.96,56.58c-1.07,0-1.95-.35-2.66-1.06-.71-.71-1.06-1.58-1.06-2.61s.35-1.9,1.06-2.61c.71-.71,1.59-1.06,2.66-1.06.81,0,1.53.24,2.18.71.64.47,1.06,1.08,1.26,1.83h-1.57c-.14-.35-.38-.62-.73-.83-.35-.21-.73-.31-1.14-.31-.67,0-1.21.22-1.63.65s-.63.97-.63,1.62.21,1.19.63,1.62c.42.43.96.65,1.63.65.41,0,.79-.1,1.14-.31.35-.21.59-.48.73-.83h1.57c-.2.75-.62,1.36-1.26,1.83-.64.47-1.37.71-2.18.71Z"/>
        <path d="M82.49,55.5c-.72.72-1.58,1.08-2.59,1.08s-1.88-.36-2.59-1.08c-.72-.72-1.08-1.58-1.08-2.59s.36-1.88,1.08-2.6c.72-.72,1.58-1.08,2.59-1.08s1.88.36,2.59,1.08c.72.72,1.08,1.58,1.08,2.6s-.36,1.88-1.08,2.59ZM78.33,54.51c.43.44.95.67,1.57.67s1.13-.22,1.57-.67c.43-.44.64-.98.64-1.6s-.21-1.16-.64-1.6c-.43-.44-.95-.67-1.57-.67s-1.13.22-1.57.67c-.43.44-.64.98-.64,1.6s.21,1.16.64,1.6Z"/>
        <path d="M91.27,56.46h-1.25l-3.64-4.63v4.63h-1.45v-7.1h1.25l3.64,4.63v-4.63h1.45v7.1Z"/>
        <path d="M95.33,56.58c-.81,0-1.46-.23-1.95-.7-.49-.46-.75-1-.78-1.62h1.45c.05.31.2.56.43.73s.52.25.85.25c.3,0,.54-.06.73-.19s.28-.31.28-.52c0-.39-.32-.68-.95-.86l-.75-.22c-.58-.17-1.03-.43-1.36-.78-.33-.35-.49-.79-.5-1.32,0-.65.22-1.16.65-1.53.43-.38,1.01-.57,1.73-.57s1.32.22,1.77.66.69.94.72,1.5h-1.44c-.07-.28-.21-.49-.4-.62-.19-.13-.41-.2-.65-.2-.27,0-.49.06-.66.17s-.26.28-.26.48c0,.21.06.39.21.52.15.13.37.24.68.33l.83.23c1.23.34,1.84,1.06,1.84,2.15,0,.61-.23,1.12-.68,1.52-.46.4-1.05.6-1.79.6Z"/>
        <path d="M99.18,56.46v-7.1h4.42v1.38h-2.97v1.46h2.37v1.38h-2.37v1.5h2.97v1.38h-4.42Z"/>
        <path d="M105.06,56.46v-7.1h1.45v7.1h-1.45Z"/>
        <path d="M108.29,56.46v-7.1h1.45v5.72h3.04v1.38h-4.49Z"/>
        <path d="M116.15,56.58c-.81,0-1.46-.23-1.95-.7-.49-.46-.75-1-.78-1.62h1.45c.05.31.2.56.43.73s.52.25.85.25c.3,0,.54-.06.73-.19s.28-.31.28-.52c0-.39-.32-.68-.95-.86l-.75-.22c-.58-.17-1.03-.43-1.36-.78-.33-.35-.49-.79-.5-1.32,0-.65.22-1.16.65-1.53.43-.38,1.01-.57,1.73-.57s1.32.22,1.77.66.69.94.72,1.5h-1.44c-.07-.28-.21-.49-.4-.62-.19-.13-.41-.2-.65-.2-.27,0-.49.06-.66.17s-.26.28-.26.48c0,.21.06.39.21.52.15.13.37.24.68.33l.83.23c1.23.34,1.84,1.06,1.84,2.15,0,.61-.23,1.12-.68,1.52-.46.4-1.05.6-1.79.6Z"/>
      </g>
      <g id="_0fdiQx" data-name="0fdiQx">
        <g>
          <path d="M85.33,15.5c.6-.7,1.2-1.4,1.9-2,1.2-1.2,2.5-1.2,3.7,0,.6.6,1.3,1.3,1.9,1.9,1.1,1.1,1,2.5,0,3.5-2.4,2.4-4.7,4.7-7.1,7.1-.4.4-.6.8-.6,1.4v8.7c0,2.6-1.7,4.3-4.3,4.3h-23.7c-2.6,0-4.3-1.7-4.3-4.3V4.2c0-2.5,1.7-4.2,4.2-4.2h18.8c.4,0,.9.2,1.2.5,2.6,2.5,5.1,5,7.6,7.6.3.3.5.7.5,1.1v6c0,.2.1.3.2.3ZM83.43,28.4c-.2.2-.4.4-.6.5-1.1,1.1-2.3,2.3-3.4,3.4-.3.2-.6.5-.9.6-1.8.5-3.7,1-5.5,1.5-1,.3-1.4-.2-1.2-1.2.5-1.8.9-3.5,1.4-5.3.1-.4.3-.8.6-1,3-3.1,6.1-6.1,9.2-9.2.3-.3.4-.7.5-1.1v-6c0-.6-.2-.8-.7-.7h-6.1c-1.1,0-1.3-.2-1.3-1.3V2.7c0-.7-.1-.9-.9-.9h-17.4c-1.8,0-2.8,1-2.8,2.8v31.7c0,1.7,1,2.7,2.7,2.7h23.7c1.5,0,2.6-1,2.6-2.4v-7.8c.2-.1.1-.2.1-.4ZM88.93,20.3c-.8-.8-1.7-1.6-2.6-2.5-.5-.5-.7-.5-1.2,0-2.6,2.7-5.3,5.3-7.9,7.9-.6.6-1.3,1.3-1.9,1.9,1.1,1.1,2.2,2.1,3.2,3.2,3.4-3.5,6.9-6.9,10.4-10.5ZM77.03,3.1v4.6c0,.4.2.5.6.5h4.5c-1.8-1.7-3.4-3.4-5.1-5.1ZM90.23,19.3c.5-.5,1-1,1.5-1.6.3-.4.4-.8,0-1.2-.7-.7-1.4-1.5-2.1-2.1-.2-.2-.8-.3-1-.1-.6.5-1.1,1.1-1.7,1.6,1.1,1.2,2.2,2.2,3.3,3.4ZM74.53,29.4c-.3,1-.5,2-.8,3.2,1.2-.3,2.1-.6,3.1-.9-.8-.8-1.6-1.5-2.3-2.3Z"/>
          <path d="M68.93,17.9h8.4c.2,0,.5-.1.6,0,.2.2.6.5.6.7s-.3.6-.5.7c-.2.1-.4.1-.7.1h-17.3c-.4-.1-.7-.3-.7-.8,0-.4.3-.7.7-.8h.6c2.7.1,5.5.1,8.3.1Z"/>
          <path d="M68.83,14.6h-8.6c-.3,0-.8-.2-1-.5-.3-.4,0-1,.6-1.1h17.7c.5,0,.9.2.9.8s-.4.8-1,.8h-8.6Z"/>
          <path d="M66.13,24.3h-5.7c-.2,0-.5,0-.7-.1-.2-.2-.5-.5-.5-.7s.3-.5.6-.7c.1-.1.4-.1.6-.1h11.4c.5,0,1,.1,1,.8,0,.6-.4.8-1,.8h-5.7Z"/>
          <path d="M64.43,29.2h-4.2c-.5,0-1-.2-1-.8s.4-.8,1-.8h8.4c.5,0,1,.1,1,.8,0,.5-.3.8-1,.8h-4.2Z"/>
        </g>
      </g>
    </g>
  </g>
</svg>