<?xml version="1.0" encoding="UTF-8"?>
<svg id="Layer_2" data-name="Layer 2" xmlns="http://www.w3.org/2000/svg" viewBox="0 0 72.08 71.9">
  <g id="Icons">
    <g>
      <g>
        <path d="M15.3,61.78v-7.1h1.45v5.72h3.04v1.38h-4.49Z"/>
        <path d="M20.23,61.78l3.06-7.1h1.29l3.07,7.1h-1.52l-.69-1.62h-3.03l-.68,1.62h-1.5ZM23.93,56.59l-.98,2.3h1.95l-.97-2.3Z"/>
        <path d="M28.64,61.78v-7.1h2.72c.65,0,1.17.2,1.58.6s.61.9.61,1.5c0,.93-.49,1.55-1.46,1.85l2.55,3.15h-1.75l-2.44-2.99h-.35v2.99h-1.45ZM30.09,57.55h1.1c.28,0,.5-.07.67-.21s.25-.32.25-.56-.08-.43-.25-.56-.38-.21-.67-.21h-1.1v1.54Z"/>
        <path d="M35.4,54.68h1.32l2.31,3.17,2.31-3.17h1.32v7.1h-1.45v-4.62l-2.18,2.99-2.18-2.99v4.62h-1.45v-7.1Z"/>
        <path d="M44.44,61.78v-7.1h4.42v1.38h-2.97v1.46h2.37v1.38h-2.37v1.5h2.97v1.38h-4.42Z"/>
        <path d="M52.6,61.9c-.81,0-1.46-.23-1.95-.7-.49-.46-.75-1-.78-1.62h1.45c.05.31.2.56.43.73s.52.25.85.25c.3,0,.54-.06.73-.19s.28-.31.28-.52c0-.39-.32-.68-.95-.86l-.75-.22c-.58-.17-1.03-.43-1.36-.78-.33-.35-.49-.79-.5-1.32,0-.65.22-1.16.65-1.53.43-.38,1.01-.57,1.73-.57s1.32.22,1.77.66.69.94.72,1.5h-1.44c-.07-.28-.21-.49-.4-.62-.19-.13-.41-.2-.65-.2-.27,0-.49.06-.66.17s-.26.28-.26.48c0,.21.06.39.21.52.15.13.37.24.68.33l.83.23c1.23.34,1.84,1.06,1.84,2.15,0,.61-.23,1.12-.68,1.52-.46.4-1.05.6-1.79.6Z"/>
        <path d="M0,71.78l3.06-7.1h1.29l3.07,7.1h-1.52l-.69-1.62h-3.03l-.68,1.62H0ZM3.7,66.59l-.98,2.3h1.95l-.97-2.3Z"/>
        <path d="M8.41,71.78v-7.1h2.72c.65,0,1.17.2,1.58.6s.61.9.61,1.5c0,.93-.49,1.55-1.46,1.85l2.55,3.15h-1.75l-2.44-2.99h-.35v2.99h-1.45ZM9.86,67.55h1.1c.28,0,.5-.07.67-.21s.25-.32.25-.56-.08-.43-.25-.56-.38-.21-.67-.21h-1.1v1.54Z"/>
        <path d="M16.27,71.78v-5.72h-1.89v-1.38h5.26v1.38h-1.91v5.72h-1.46Z"/>
        <path d="M20.84,71.78v-7.1h1.45v7.1h-1.45Z"/>
        <path d="M24.07,71.78v-7.1h4.32v1.38h-2.87v1.47h2.25v1.38h-2.25v2.87h-1.45Z"/>
        <path d="M29.69,71.78v-7.1h1.45v7.1h-1.45Z"/>
        <path d="M36.23,71.9c-1.07,0-1.95-.35-2.66-1.06-.71-.71-1.06-1.58-1.06-2.61s.35-1.9,1.06-2.61c.71-.71,1.59-1.06,2.66-1.06.81,0,1.53.24,2.18.71.64.47,1.06,1.08,1.26,1.83h-1.57c-.14-.35-.38-.62-.73-.83-.35-.21-.73-.31-1.14-.31-.67,0-1.21.22-1.63.65s-.63.97-.63,1.62.21,1.19.63,1.62c.42.43.96.65,1.63.65.41,0,.79-.1,1.14-.31.35-.21.59-.48.73-.83h1.57c-.2.75-.62,1.36-1.26,1.83-.64.47-1.37.71-2.18.71Z"/>
        <path d="M40.92,71.78v-7.1h1.45v7.1h-1.45Z"/>
        <path d="M44.15,71.78v-7.1h4.42v1.38h-2.97v1.46h2.37v1.38h-2.37v1.5h2.97v1.38h-4.42Z"/>
        <path d="M50.03,71.78v-7.1h1.45v5.72h3.04v1.38h-4.49Z"/>
        <path d="M55.74,71.78v-7.1h1.45v5.72h3.04v1.38h-4.49Z"/>
        <path d="M61.45,71.78v-7.1h4.42v1.38h-2.97v1.46h2.37v1.38h-2.37v1.5h2.97v1.38h-4.42Z"/>
        <path d="M69.61,71.9c-.81,0-1.46-.23-1.95-.7-.49-.46-.75-1-.78-1.62h1.45c.05.31.2.56.43.73s.52.25.85.25c.3,0,.54-.06.73-.19s.28-.31.28-.52c0-.39-.32-.68-.95-.86l-.75-.22c-.58-.17-1.03-.43-1.36-.78-.33-.35-.49-.79-.5-1.32,0-.65.22-1.16.65-1.53.43-.38,1.01-.57,1.73-.57s1.32.22,1.77.66.69.94.72,1.5h-1.44c-.07-.28-.21-.49-.4-.62-.19-.13-.41-.2-.65-.2-.27,0-.49.06-.66.17s-.26.28-.26.48c0,.21.06.39.21.52.15.13.37.24.68.33l.83.23c1.23.34,1.84,1.06,1.84,2.15,0,.61-.23,1.12-.68,1.52-.46.4-1.05.6-1.79.6Z"/>
      </g>
      <g id="_8wYxki" data-name="8wYxki">
        <g>
          <path d="M17.48,16.88c.1-1.6.7-3,1.8-4.1,3.6-3.6,7.3-7.3,10.9-10.9,2.5-2.5,5.9-2.5,8.4,0,3.8,3.7,7.5,7.5,11.2,11.2,1,1,2.1,2.1,3.1,3.1,2,2,2,4.8.1,6.8-1.5,1.6-1.5,3,0,4.6.1.1.2.2.2.3q.8.8,1.8.3c1.4-.7,3.1-.3,4.2.9,1,1.2,1.2,3,.3,4.3-.3.5-.3.8,0,1.2,1.6,2.6,3.1,5.2,4.7,7.8.5.8.4,1-.2,1.7-.7.7-1.4,1.4-2.1,2.1-.9.9-1.1.9-2.2.3l-7.5-4.5c-.4-.3-.8-.3-1.3,0-1.4,1-3.2.8-4.4-.4-1.2-1.1-1.5-2.9-.6-4.4.3-.4.2-.7-.1-1-.2-.2-.4-.4-.6-.6-1.6-1.6-3.1-1.6-4.7,0-.7.7-1.5,1.1-2.5,1.3-1.7.3-3.2-.3-4.4-1.5-4.8-4.8-9.6-9.6-14.4-14.4-.8-.8-1.4-1.7-1.6-2.8.1-.3,0-.8-.1-1.3ZM53.08,29.98c-.6-.5-1.1-.8-1.5-1.3-1.9-1.9-1.9-4.7,0-6.6,1.5-1.6,1.5-3.1,0-4.6-4.8-4.8-9.5-9.6-14.3-14.3-.4-.4-.9-.7-1.4-1-1.7-.7-3.1-.2-4.4,1.1-3.5,3.6-7.1,7.1-10.6,10.6-2,2-2,4.1,0,6,4.7,4.7,9.4,9.3,14,14,1.5,1.5,3.4,1.5,4.8.1,1.8-1.9,4.7-1.8,6.6,0,.3.3.6.6.9.9.3.4.6.4,1,0,.6-.7,1.3-1.3,2-2,.8-.8,1.8-1.7,2.9-2.9ZM58.38,31.68c-.1-.8-.5-1.4-1.2-1.7-.8-.3-1.5-.1-2.1.5-2.4,2.4-4.9,4.9-7.3,7.3-.8.8-.8,1.8-.1,2.5s1.8.7,2.6-.1c2.4-2.4,4.9-4.9,7.3-7.3.4-.3.6-.8.8-1.2ZM57.88,35.58c-1.6,1.6-3.2,3.2-4.8,4.8.1.1.3.2.5.3,1.8,1.1,3.6,2.2,5.4,3.2q1.7,1,3.1-.4c.3-.3.3-.5.1-.9-1-1.6-1.9-3.1-2.8-4.7-.5-.7-1-1.6-1.5-2.3Z"/>
          <path d="M36.38,26.38c-3.9,0-6.8-4.1-5.1-7.6,1.1-2.5,2.7-4.7,4.4-6.9.4-.6,1.1-.6,1.5-.1,1.8,2.2,3.5,4.5,4.5,7.2,1.2,3.6-1.5,7.4-5.3,7.4ZM36.38,13.78c-1.4,2-2.7,3.7-3.5,5.8-.6,1.5-.2,2.9,1,4,1.2,1.1,3,1.3,4.4.5,1.3-.7,2.3-2.4,1.9-3.7-.8-2.5-2.3-4.4-3.8-6.6Z"/>
        </g>
      </g>
    </g>
  </g>
</svg>