<?xml version="1.0" encoding="UTF-8"?>
<svg id="Layer_2" data-name="Layer 2" xmlns="http://www.w3.org/2000/svg" viewBox="0 0 75.08 52.52">
  <g id="Icons">
    <g>
      <g>
        <path d="M2.09,42.4v-7.1h4.42v1.38h-2.97v1.46h2.37v1.38h-2.37v1.5h2.97v1.38H2.09Z"/>
        <path d="M8.82,42.4h-1.7l2.67-3.59-2.52-3.51h1.68l1.71,2.39,1.72-2.39h1.68l-2.53,3.51,2.68,3.59h-1.7l-1.85-2.46-1.84,2.46Z"/>
        <path d="M15.14,42.4v-7.1h4.42v1.38h-2.97v1.46h2.37v1.38h-2.37v1.5h2.97v1.38h-4.42Z"/>
        <path d="M21.02,42.4v-7.1h2.72c.65,0,1.17.2,1.58.6s.61.9.61,1.5c0,.93-.49,1.55-1.46,1.85l2.55,3.15h-1.75l-2.44-2.99h-.35v2.99h-1.45ZM22.47,38.17h1.1c.28,0,.5-.07.67-.21s.25-.32.25-.56-.08-.43-.25-.56-.38-.21-.67-.21h-1.1v1.54Z"/>
        <path d="M30.86,42.52c-1.07,0-1.95-.35-2.66-1.06-.71-.71-1.06-1.58-1.06-2.61s.35-1.9,1.06-2.61c.71-.71,1.59-1.06,2.66-1.06.81,0,1.53.24,2.18.71.64.47,1.06,1.08,1.26,1.83h-1.57c-.14-.35-.38-.62-.73-.83-.35-.21-.73-.31-1.14-.31-.67,0-1.21.22-1.63.65s-.63.97-.63,1.62.21,1.19.63,1.62c.42.43.96.65,1.63.65.41,0,.79-.1,1.14-.31.35-.21.59-.48.73-.83h1.57c-.2.75-.62,1.36-1.26,1.83-.64.47-1.37.71-2.18.71Z"/>
        <path d="M35.55,42.4v-7.1h1.45v7.1h-1.45Z"/>
        <path d="M42.09,42.52c-1.07,0-1.95-.35-2.66-1.06-.71-.71-1.06-1.58-1.06-2.61s.35-1.9,1.06-2.61c.71-.71,1.59-1.06,2.66-1.06.81,0,1.53.24,2.18.71.64.47,1.06,1.08,1.26,1.83h-1.57c-.14-.35-.38-.62-.73-.83-.35-.21-.73-.31-1.14-.31-.67,0-1.21.22-1.63.65s-.63.97-.63,1.62.21,1.19.63,1.62c.42.43.96.65,1.63.65.41,0,.79-.1,1.14-.31.35-.21.59-.48.73-.83h1.57c-.2.75-.62,1.36-1.26,1.83-.64.47-1.37.71-2.18.71Z"/>
        <path d="M46.78,42.4v-7.1h4.42v1.38h-2.97v1.46h2.37v1.38h-2.37v1.5h2.97v1.38h-4.42Z"/>
        <path d="M54.94,42.52c-.81,0-1.46-.23-1.95-.7-.49-.46-.75-1-.78-1.62h1.45c.05.31.2.56.43.73s.52.25.85.25c.3,0,.54-.06.73-.19s.28-.31.28-.52c0-.39-.32-.68-.95-.86l-.75-.22c-.58-.17-1.03-.43-1.36-.78-.33-.35-.49-.79-.5-1.32,0-.65.22-1.16.65-1.53.43-.38,1.01-.57,1.73-.57s1.32.22,1.77.66.69.94.72,1.5h-1.44c-.07-.28-.21-.49-.4-.62-.19-.13-.41-.2-.65-.2-.27,0-.49.06-.66.17s-.26.28-.26.48c0,.21.06.39.21.52.15.13.37.24.68.33l.83.23c1.23.34,1.84,1.06,1.84,2.15,0,.61-.23,1.12-.68,1.52-.46.4-1.05.6-1.79.6Z"/>
        <path d="M61.27,42.4v-7.1h2.34c1.02,0,1.88.34,2.59,1.03.71.69,1.06,1.53,1.06,2.52s-.35,1.83-1.06,2.52c-.71.69-1.57,1.03-2.59,1.03h-2.34ZM62.72,41.07h.89c.65,0,1.17-.21,1.58-.64.41-.43.61-.95.61-1.58s-.2-1.15-.61-1.58-.93-.64-1.58-.64h-.89v4.44Z"/>
        <path d="M68.63,42.4v-7.1h4.42v1.38h-2.97v1.46h2.37v1.38h-2.37v1.5h2.97v1.38h-4.42Z"/>
        <path d="M8.79,52.52c-1.07,0-1.95-.35-2.66-1.06-.71-.71-1.06-1.58-1.06-2.61s.35-1.9,1.06-2.61c.71-.71,1.59-1.06,2.66-1.06.81,0,1.53.24,2.18.71.64.47,1.06,1.08,1.26,1.83h-1.57c-.14-.35-.38-.62-.73-.83-.35-.21-.73-.31-1.14-.31-.67,0-1.21.22-1.63.65s-.63.97-.63,1.62.21,1.19.63,1.62c.42.43.96.65,1.63.65.41,0,.79-.1,1.14-.31.35-.21.59-.48.73-.83h1.57c-.2.75-.62,1.36-1.26,1.83-.64.47-1.37.71-2.18.71Z"/>
        <path d="M13.48,52.4v-7.1h1.45v5.72h3.04v1.38h-4.49Z"/>
        <path d="M19.19,52.4v-7.1h1.45v7.1h-1.45Z"/>
        <path d="M25.75,52.52c-1.07,0-1.96-.35-2.67-1.06s-1.07-1.58-1.07-2.61.35-1.9,1.06-2.61c.71-.71,1.59-1.06,2.66-1.06.75,0,1.43.21,2.06.62.62.41,1.05.94,1.29,1.6h-1.66c-.17-.25-.41-.45-.71-.6-.3-.15-.63-.22-.98-.22-.67,0-1.21.22-1.63.65s-.63.97-.63,1.62.21,1.19.63,1.62c.42.43.97.65,1.65.65.57,0,1.02-.14,1.37-.43.34-.28.55-.68.63-1.19h-2.17v-1.36h3.67c.08.71.04,1.34-.11,1.91-.15.57-.4,1.02-.73,1.38-.33.35-.73.62-1.18.8-.45.19-.95.28-1.48.28Z"/>
        <path d="M37.01,52.4h-1.25l-3.64-4.63v4.63h-1.45v-7.1h1.25l3.64,4.63v-4.63h1.45v7.1Z"/>
        <path d="M38.79,52.4v-7.1h4.42v1.38h-2.97v1.46h2.37v1.38h-2.37v1.5h2.97v1.38h-4.42Z"/>
        <path d="M44.67,45.3h1.32l2.31,3.17,2.31-3.17h1.32v7.1h-1.45v-4.62l-2.18,2.99-2.18-2.99v4.62h-1.45v-7.1Z"/>
        <path d="M53.71,52.4v-7.1h4.42v1.38h-2.97v1.46h2.37v1.38h-2.37v1.5h2.97v1.38h-4.42Z"/>
        <path d="M65.93,52.4h-1.25l-3.64-4.63v4.63h-1.45v-7.1h1.25l3.64,4.63v-4.63h1.45v7.1Z"/>
        <path d="M69.02,52.4v-5.72h-1.89v-1.38h5.26v1.38h-1.91v5.72h-1.46Z"/>
      </g>
      <g>
        <g id="E5tU7s">
          <g>
            <path d="M16.05,23.9c-3.9-.1-7.2-1.3-10.3-3.2-1.5-.9-3-2-4.2-3.3-.6-.6-.6-.9,0-1.4,3.5-3.3,7.4-5.7,12.2-6.4,2.7-.4,5.3,0,7.8,1,3.1,1.2,5.9,3,8.3,5.4.6.5.6.8,0,1.4-3.4,3.2-7.2,5.6-11.9,6.4-.7.1-1.5.1-1.9.1ZM15.75,22.6c3.3,0,5.9-2.6,5.9-5.9s-2.6-5.8-5.9-5.8-5.8,2.6-5.8,5.8c-.1,3.3,2.5,5.9,5.8,5.9ZM10.25,12c-2.9,1.2-5.2,2.8-7.5,4.8,2.2,2,4.6,3.6,7.4,4.6-2.2-3.1-2.2-6.2.1-9.4ZM28.65,16.7c-2.2-2-4.6-3.6-7.3-4.7,2.2,3.1,2.2,6.2.1,9.3,2.7-1,5-2.6,7.2-4.6Z"/>
            <path d="M63.05,21.3c.7,1.1,1.5,1.9,2.6,2.5.2.1.3.2.5.2.4.2.5.5.4.9-.2.4-.6.5-.9.3-.5-.2-.9-.4-1.3-.7-.9-.6-1.7-1.4-2.3-2.4-.2-.3-.3-.4-.7-.3-.7.2-1.5.4-2.2.5-.4.1-.5.2-.5.7.1.9.2,1.7.3,2.6,0,.1,0,.3.1.4,0,.5-.2.9-.6.9-.5,0-.7-.3-.7-.7-.1-.9-.2-1.9-.4-2.8-.1-.9,0-.8-.9-.8-.5,0-1.2-.2-1.5,0s-.3.9-.5,1.4c-.4.8-.8,1.7-1.2,2.5-.2.4-.7.5-1,.3s-.4-.6-.1-1.1c.6-.9,1-1.9,1.3-3,.1-.4,0-.5-.4-.6-.5-.1-1.1-.3-1.6-.4-.3-.1-.5,0-.7.3-.8,1.5-2,2.6-3.5,3.3-.4.2-.7.2-1-.2-.2-.4-.1-.7.3-1,.2-.1.4-.2.5-.3.9-.6,1.7-1.3,2.3-2.3.1-.1.1-.3.2-.4-.8-.4-1.6-.8-2.4-1.2-.1,0-.3.1-.3.2-1.3,1.4-2.9,2.2-4.8,2.4h-.3c-.5,0-.9-.2-.9-.6,0-.5.3-.6.7-.7.8-.2,1.7-.4,2.4-.7.6-.3,1.2-.8,1.9-1.3-.6-.5-1.1-.8-1.7-1.2-.1-.1-.3,0-.4.1-1.6,1.2-3.5,1.5-5.4,1.6-.6,0-.9-.3-.9-.7,0-.5.4-.7.8-.7,1.3,0,2.6-.2,3.8-.8.3-.1.5-.3.8-.5-.3-.3-.6-.6-.8-.9-.3-.3-.3-.6,0-.9.3-.3.7-.2,1,.1,3.1,3,6.7,4.9,11,5.7,3.3.6,6.4-.1,9.4-1.5,2.3-1,4.3-2.4,6.2-4.1.1-.1.2-.2.3-.2.3,0,.6-.1.8.1.3.2.3.6.1.9-.2.2-.4.4-.6.6-.3.2-.3.4-.1.7,1,1.4,2.3,2.2,4,2.5.1,0,.3,0,.4.1.4.1.6.4.5.8-.1.4-.4.6-.8.5-2-.3-3.8-1.2-5.1-2.9-.1-.1-.2-.3-.3-.4,0,0-.1,0-.1-.1-.6.4-1.3.9-1.9,1.3.9,1.2,1.9,2,3.2,2.5.2.1.4.1.6.2.4.2.5.5.3.8-.1.2-.5.4-.7.4-.3,0-.7-.2-1-.3-1.3-.6-2.4-1.5-3.3-2.6-.2-.3-.4-.3-.7-.2-.7.4-1.4.8-2.2,1.2Z"/>
            <path d="M16.65,0c5.8.1,10.5,1.9,14.7,5.1,1.2.9,1.4,2.4.6,3.4-.9,1.1-2.5,1.2-3.5.2-2-2-4.4-3.4-7.1-4.4-4.8-1.8-9.5-1.4-14.1.6-2.1.9-4,2.1-5.8,3.5-.1.1-.3.2-.4.3-.3.2-.6.2-.9-.1-.2-.3-.2-.6,0-.9.5-.5,1-1,1.5-1.4C5.05,3.3,8.95,1.1,13.55.3c1.2-.1,2.4-.2,3.1-.3ZM13.35,1.7h0l.1.1h.4c3.3-.2,6.4.4,9.4,1.8,2.2,1,4.2,2.3,6,4,.5.5,1.1.5,1.5.1.5-.5.4-1.1-.3-1.6-4.2-3.1-8.8-4.9-14.1-4.7-1,.1-2,.2-3,.3Z"/>
            <path d="M56.45,6.4c-4.3,0-7.8,1.5-10.9,4-.8.7-1.6,1.4-2.3,2.1-.3.3-.7.4-1,0-.3-.3-.2-.7.1-1,2.7-2.8,5.9-5,9.7-5.9,3.9-1,7.6-.5,11.3,1,2.3.9,4.4,2.2,6.2,3.7.2.1.3.3.4.4.3.3.3.6.1.9-.3.3-.6.3-.9.1-.4-.3-.8-.7-1.2-1-2.8-2.2-6-3.7-9.6-4.2-.2,0-.4-.1-.6-.1h-1.3Z"/>
            <path d="M15.75,20.3c0,.4-.4.7-.8.7-1.3-.1-3-1.6-3.2-2.9,0-.2.2-.6.4-.8.3-.2.6,0,.8.3.2.3.3.6.5.9.4.6,1,1,1.7,1.1.3.1.6.3.6.7Z"/>
          </g>
        </g>
        <circle cx="15.95" cy="16.7" r="2.3"/>
      </g>
    </g>
  </g>
</svg>