<?xml version="1.0" encoding="UTF-8"?>
<svg id="Layer_2" data-name="Layer 2" xmlns="http://www.w3.org/2000/svg" viewBox="0 0 69.42 54.82">
  <defs>
    <style>
      .cls-1 {
        fill: none;
        stroke: #000;
        stroke-linecap: round;
        stroke-linejoin: round;
        stroke-width: 1.25px;
      }
    </style>
  </defs>
  <g id="Icons">
    <g>
      <g>
        <path d="M1.89,44.7v-5.72H0v-1.38h5.26v1.38h-1.91v5.72h-1.46Z"/>
        <path d="M6.46,44.7v-7.1h2.72c.65,0,1.17.2,1.58.6.4.4.61.9.61,1.5,0,.93-.49,1.55-1.46,1.85l2.55,3.15h-1.75l-2.44-2.99h-.35v2.99h-1.45ZM7.91,40.47h1.1c.28,0,.5-.07.67-.21.16-.14.24-.32.24-.56s-.08-.43-.24-.56c-.16-.14-.38-.21-.67-.21h-1.1v1.54Z"/>
        <path d="M12.44,44.7l3.06-7.1h1.29l3.07,7.1h-1.52l-.69-1.62h-3.03l-.68,1.62h-1.5ZM16.14,39.51l-.98,2.3h1.95l-.97-2.3Z"/>
        <path d="M20.85,44.7v-7.1h1.45v7.1h-1.45Z"/>
        <path d="M25.39,44.7v-5.72h-1.89v-1.38h5.26v1.38h-1.91v5.72h-1.46Z"/>
        <path d="M29.96,44.7v-7.1h4.42v1.38h-2.97v1.46h2.37v1.38h-2.37v1.5h2.97v1.38h-4.42Z"/>
        <path d="M35.84,37.6h1.32l2.31,3.17,2.31-3.17h1.32v7.1h-1.45v-4.62l-2.18,2.99-2.18-2.99v4.62h-1.45v-7.1Z"/>
        <path d="M44.88,44.7v-7.1h4.42v1.38h-2.97v1.46h2.37v1.38h-2.37v1.5h2.97v1.38h-4.42Z"/>
        <path d="M57.1,44.7h-1.25l-3.64-4.63v4.63h-1.45v-7.1h1.25l3.64,4.63v-4.63h1.45v7.1Z"/>
        <path d="M60.19,44.7v-5.72h-1.89v-1.38h5.26v1.38h-1.91v5.72h-1.46Z"/>
        <path d="M66.95,44.82c-.81,0-1.46-.23-1.95-.7-.49-.46-.75-1-.78-1.62h1.45c.05.31.2.56.43.73.23.17.52.25.85.25.3,0,.54-.06.73-.19.19-.13.28-.31.28-.52,0-.39-.32-.68-.95-.86l-.75-.22c-.58-.17-1.03-.43-1.36-.78-.33-.35-.49-.79-.5-1.32,0-.65.22-1.16.65-1.53.43-.38,1.01-.57,1.73-.57s1.32.22,1.77.66.69.94.72,1.5h-1.44c-.07-.28-.21-.49-.4-.62-.19-.13-.41-.2-.65-.2-.27,0-.49.06-.66.17s-.26.28-.26.48c0,.21.06.39.21.52.15.13.37.24.68.33l.83.23c1.23.34,1.84,1.06,1.84,2.15,0,.61-.23,1.12-.68,1.52-.46.4-1.05.6-1.79.6Z"/>
        <path d="M7.9,54.82c-1.07,0-1.95-.35-2.66-1.06s-1.06-1.58-1.06-2.61.35-1.9,1.06-2.61c.71-.71,1.59-1.06,2.66-1.06.81,0,1.53.24,2.18.71.64.47,1.06,1.08,1.26,1.83h-1.57c-.14-.35-.38-.62-.73-.83-.35-.21-.73-.31-1.13-.31-.67,0-1.21.22-1.63.65s-.63.97-.63,1.62.21,1.19.63,1.62c.42.43.96.65,1.63.65.41,0,.79-.1,1.13-.31s.6-.48.73-.83h1.57c-.2.75-.62,1.36-1.26,1.83-.64.47-1.37.71-2.18.71Z"/>
        <path d="M18.44,53.74c-.72.72-1.58,1.08-2.6,1.08s-1.88-.36-2.59-1.08c-.72-.72-1.08-1.58-1.08-2.59s.36-1.88,1.08-2.6c.71-.72,1.58-1.08,2.59-1.08s1.88.36,2.6,1.08c.72.72,1.07,1.58,1.07,2.6s-.36,1.88-1.07,2.59ZM14.28,52.75c.43.44.95.67,1.56.67s1.13-.22,1.57-.67c.43-.44.64-.98.64-1.6s-.21-1.16-.64-1.6c-.43-.44-.95-.67-1.57-.67s-1.13.22-1.56.67-.64.98-.64,1.6.21,1.16.64,1.6Z"/>
        <path d="M20.87,47.6h1.32l2.31,3.17,2.31-3.17h1.32v7.1h-1.45v-4.62l-2.18,2.99-2.18-2.99v4.62h-1.45v-7.1Z"/>
        <path d="M34.05,48.28c.47.46.71,1.02.71,1.71s-.24,1.25-.71,1.71-1.07.69-1.78.69h-.91v2.32h-1.45v-7.1h2.36c.71,0,1.31.23,1.78.69ZM33.05,50.73c.2-.19.3-.44.3-.74s-.1-.55-.3-.74c-.2-.19-.47-.29-.8-.29h-.89v2.06h.89c.33,0,.6-.1.8-.29Z"/>
        <path d="M36.02,54.7v-7.1h1.45v5.72h3.04v1.38h-4.49Z"/>
        <path d="M41.73,54.7v-7.1h4.42v1.38h-2.97v1.46h2.37v1.38h-2.37v1.5h2.97v1.38h-4.42Z"/>
        <path d="M48.46,54.7h-1.7l2.67-3.59-2.52-3.51h1.68l1.71,2.39,1.72-2.39h1.68l-2.53,3.51,2.68,3.59h-1.7l-1.85-2.46-1.84,2.46Z"/>
        <path d="M54.78,54.7v-7.1h4.42v1.38h-2.97v1.46h2.37v1.38h-2.37v1.5h2.97v1.38h-4.42Z"/>
        <path d="M62.94,54.82c-.81,0-1.46-.23-1.95-.7-.49-.46-.75-1-.78-1.62h1.45c.05.31.2.56.43.73.23.17.52.25.85.25.3,0,.54-.06.73-.19.19-.13.28-.31.28-.52,0-.39-.32-.68-.95-.86l-.75-.22c-.58-.17-1.03-.43-1.36-.78-.33-.35-.49-.79-.5-1.32,0-.65.22-1.16.65-1.53.43-.38,1.01-.57,1.73-.57s1.32.22,1.77.66.69.94.72,1.5h-1.44c-.07-.28-.21-.49-.4-.62-.19-.13-.41-.2-.65-.2-.27,0-.48.06-.65.17s-.26.28-.27.48c0,.21.06.39.21.52.15.13.37.24.68.33l.83.23c1.23.34,1.84,1.06,1.84,2.15,0,.61-.23,1.12-.69,1.52-.46.4-1.05.6-1.79.6Z"/>
      </g>
      <g>
        <path class="cls-1" d="M43.84,16.52c0-.7.4-1.3.9-1.6l-6.3-11c-.3.2-.6.2-.9.2-1,0-1.8-.8-1.8-1.8h-12.5c0,1-.8,1.8-1.8,1.8-.3,0-.6-.1-.9-.2l-6.3,10.9c.5.3.9.9.9,1.6s-.4,1.3-.9,1.6l6.4,11c.3-.2.6-.2.9-.2,1,0,1.8.8,1.8,1.8h12.5c0-1,.8-1.8,1.8-1.8.3,0,.6.1.9.2l6.3-10.9c-.7-.3-1-.9-1-1.6Z"/>
        <circle class="cls-1" cx="37.44" cy="30.52" r="1.8"/>
        <circle class="cls-1" cx="21.34" cy="30.52" r="1.8"/>
        <circle class="cls-1" cx="37.44" cy="2.42" r="1.8"/>
        <circle class="cls-1" cx="21.34" cy="2.42" r="1.8"/>
        <circle class="cls-1" cx="13.24" cy="16.42" r="1.8"/>
        <circle class="cls-1" cx="45.64" cy="16.52" r="1.8"/>
        <circle class="cls-1" cx="37.44" cy="30.52" r="1.8"/>
        <circle class="cls-1" cx="21.34" cy="30.52" r="1.8"/>
        <circle class="cls-1" cx="37.44" cy="2.42" r="1.8"/>
        <circle class="cls-1" cx="21.34" cy="2.42" r="1.8"/>
        <circle class="cls-1" cx="13.24" cy="16.42" r="1.8"/>
        <circle class="cls-1" cx="45.64" cy="16.52" r="1.8"/>
        <line class="cls-1" x1="22.94" y1="29.62" x2="44.04" y2="17.52"/>
        <line class="cls-1" x1="22.24" y1="29.02" x2="36.54" y2="4.02"/>
        <line class="cls-1" x1="37.44" y1="4.22" x2="37.44" y2="28.72"/>
        <line class="cls-1" x1="21.34" y1="28.72" x2="21.34" y2="4.22"/>
        <line class="cls-1" x1="35.94" y1="29.62" x2="14.74" y2="17.32"/>
        <line class="cls-1" x1="36.54" y1="29.02" x2="22.24" y2="4.02"/>
        <line class="cls-1" x1="22.94" y1="3.32" x2="44.04" y2="15.62"/>
        <line class="cls-1" x1="43.84" y1="16.52" x2="15.04" y2="16.42"/>
        <line class="cls-1" x1="35.94" y1="3.32" x2="14.74" y2="15.52"/>
      </g>
    </g>
  </g>
</svg>