<?xml version="1.0" encoding="UTF-8"?>
<svg id="Layer_2" data-name="Layer 2" xmlns="http://www.w3.org/2000/svg" viewBox="0 0 65.21 53.81">
  <g id="Icons">
    <g>
      <g>
        <path d="M46.35,16.23c-4.4,0-9.82-.41-15.52-1.8C17.4,11.13,7.84,3.67,7.44,3.36c-.44-.35-.64-.93-.51-1.48.13-.55.58-.97,1.13-1.07.5-.1,12.43-2.29,25.86,1,13.43,3.29,22.99,10.75,23.39,11.07.44.35.64.93.51,1.48-.13.55-.58.97-1.13,1.07-.29.05-4.37.81-10.34.81ZM12.24,3.18c3.77,2.43,10.77,6.36,19.28,8.44,8.5,2.08,16.53,1.83,20.99,1.42-3.77-2.43-10.77-6.36-19.28-8.44-8.5-2.08-16.53-1.83-20.99-1.42Z"/>
        <path d="M34.56,30.3c-2.69,0-5.67-.38-8.96-1.27-11.15-3.03-15.65-10.23-17.46-15.73-1.95-5.91-1.27-11.06-1.24-11.27.11-.79.84-1.34,1.63-1.23.79.11,1.34.84,1.23,1.63-.1.77-2.28,18.69,16.6,23.83,9.11,2.48,16.7,1.09,22.57-4.14,4.39-3.91,6.12-8.55,6.14-8.6.27-.75,1.1-1.13,1.85-.86.75.27,1.13,1.1.86,1.85-.08.22-2,5.38-6.93,9.77-3.37,3-8.67,6.04-16.28,6.04Z"/>
        <path d="M15.14,16.61c-.18,0-.36-.08-.48-.23-.88-1.07-1.36-2.14-1.38-2.18-.14-.31,0-.68.31-.82.31-.14.68,0,.82.31,0,0,.44.96,1.21,1.9.22.26.18.65-.09.87-.12.09-.25.14-.39.14Z"/>
        <path d="M24.62,23.28s-.1,0-.14-.02c-4.66-1.11-8.17-4.93-8.32-5.09-.23-.25-.21-.64.04-.87.25-.23.64-.21.87.04.03.04,3.41,3.71,7.69,4.72.33.08.54.41.46.74-.07.28-.32.48-.6.48Z"/>
      </g>
      <g>
        <path d="M5.84,43.69v-7.1h1.45v5.72h3.04v1.38h-4.49Z"/>
        <path d="M11.55,43.69v-7.1h4.42v1.38h-2.97v1.46h2.37v1.38h-2.37v1.5h2.97v1.38h-4.42Z"/>
        <path d="M23.77,43.69h-1.25l-3.64-4.63v4.63h-1.45v-7.1h1.25l3.64,4.63v-4.63h1.45v7.1Z"/>
        <path d="M26.86,43.69v-5.72h-1.89v-1.38h5.26v1.38h-1.91v5.72h-1.46Z"/>
        <path d="M31.43,43.69v-7.1h1.45v7.1h-1.45Z"/>
        <path d="M34.66,43.69v-7.1h1.45v5.72h3.04v1.38h-4.49Z"/>
        <path d="M40.37,43.69v-7.1h1.45v5.72h3.04v1.38h-4.49Z"/>
        <path d="M46.08,43.69v-7.1h4.42v1.38h-2.97v1.46h2.37v1.38h-2.37v1.5h2.97v1.38h-4.42Z"/>
        <path d="M54.24,43.81c-.81,0-1.46-.23-1.95-.7-.49-.46-.75-1-.78-1.62h1.45c.05.31.2.56.43.73s.52.25.85.25c.3,0,.54-.06.73-.19s.28-.31.28-.52c0-.39-.32-.68-.95-.86l-.75-.22c-.58-.17-1.03-.43-1.36-.78-.33-.35-.49-.79-.5-1.32,0-.65.22-1.16.65-1.53.43-.38,1.01-.57,1.73-.57s1.32.22,1.77.66.69.94.72,1.5h-1.44c-.07-.28-.21-.49-.4-.62-.19-.13-.41-.2-.65-.2-.27,0-.49.06-.66.17s-.26.28-.26.48c0,.21.06.39.21.52.15.13.37.24.68.33l.83.23c1.23.34,1.84,1.06,1.84,2.15,0,.61-.23,1.12-.68,1.52-.46.4-1.05.6-1.79.6Z"/>
        <path d="M0,53.69v-7.1h2.34c1.02,0,1.88.34,2.59,1.03.71.69,1.06,1.53,1.06,2.52s-.35,1.83-1.06,2.52c-.71.69-1.57,1.03-2.59,1.03H0ZM1.45,52.36h.89c.65,0,1.17-.21,1.58-.64.41-.43.61-.95.61-1.58s-.2-1.15-.61-1.58-.93-.64-1.58-.64h-.89v4.44Z"/>
        <path d="M7.36,53.69v-7.1h4.42v1.38h-2.97v1.46h2.37v1.38h-2.37v1.5h2.97v1.38h-4.42Z"/>
        <path d="M19.03,53.81c-1.07,0-1.95-.35-2.66-1.06-.71-.71-1.06-1.58-1.06-2.61s.35-1.9,1.06-2.61c.71-.71,1.59-1.06,2.66-1.06.81,0,1.53.24,2.18.71.64.47,1.06,1.08,1.26,1.83h-1.57c-.14-.35-.38-.62-.73-.83-.35-.21-.73-.31-1.14-.31-.67,0-1.21.22-1.63.65s-.63.97-.63,1.62.21,1.19.63,1.62c.42.43.96.65,1.63.65.41,0,.79-.1,1.14-.31.35-.21.59-.48.73-.83h1.57c-.2.75-.62,1.36-1.26,1.83-.64.47-1.37.71-2.18.71Z"/>
        <path d="M29.56,52.74c-.72.72-1.58,1.08-2.59,1.08s-1.88-.36-2.59-1.08c-.72-.72-1.08-1.58-1.08-2.59s.36-1.88,1.08-2.6c.72-.72,1.58-1.08,2.59-1.08s1.88.36,2.59,1.08c.72.72,1.08,1.58,1.08,2.6s-.36,1.88-1.08,2.59ZM25.4,51.75c.43.44.95.67,1.57.67s1.13-.22,1.57-.67c.43-.44.64-.98.64-1.6s-.21-1.16-.64-1.6c-.43-.44-.95-.67-1.57-.67s-1.13.22-1.57.67c-.43.44-.64.98-.64,1.6s.21,1.16.64,1.6Z"/>
        <path d="M38.34,53.69h-1.25l-3.64-4.63v4.63h-1.45v-7.1h1.25l3.64,4.63v-4.63h1.45v7.1Z"/>
        <path d="M41.43,53.69v-5.72h-1.89v-1.38h5.26v1.38h-1.91v5.72h-1.46Z"/>
        <path d="M44.52,53.69l3.06-7.1h1.29l3.07,7.1h-1.52l-.69-1.62h-3.03l-.68,1.62h-1.5ZM48.22,48.5l-.98,2.3h1.95l-.97-2.3Z"/>
        <path d="M55.94,53.81c-1.07,0-1.95-.35-2.66-1.06-.71-.71-1.06-1.58-1.06-2.61s.35-1.9,1.06-2.61c.71-.71,1.59-1.06,2.66-1.06.81,0,1.53.24,2.18.71.64.47,1.06,1.08,1.26,1.83h-1.57c-.14-.35-.38-.62-.73-.83-.35-.21-.73-.31-1.14-.31-.67,0-1.21.22-1.63.65s-.63.97-.63,1.62.21,1.19.63,1.62c.42.43.96.65,1.63.65.41,0,.79-.1,1.14-.31.35-.21.59-.48.73-.83h1.57c-.2.75-.62,1.36-1.26,1.83-.64.47-1.37.71-2.18.71Z"/>
        <path d="M61.84,53.69v-5.72h-1.89v-1.38h5.26v1.38h-1.91v5.72h-1.46Z"/>
      </g>
    </g>
  </g>
</svg>