<?xml version="1.0" encoding="UTF-8"?>
<svg id="Layer_2" data-name="Layer 2" xmlns="http://www.w3.org/2000/svg" viewBox="0 0 84.14 56.11">
  <defs>
    <style>
      .cls-1 {
        fill: #fff;
      }
    </style>
  </defs>
  <g id="Inner_White_Words" data-name="Inner White Words">
    <g>
      <path class="cls-1" d="M5.53,56.11L0,47.01l3-1.82c1.31-.79,2.68-1.02,4.12-.69,1.44.33,2.55,1.13,3.32,2.41s.97,2.63.6,4.06c-.37,1.43-1.21,2.54-2.52,3.34l-3,1.82ZM6.35,53.28l1.14-.69c.83-.5,1.34-1.19,1.53-2.05.19-.86.04-1.7-.45-2.5-.49-.8-1.16-1.32-2.01-1.55-.85-.23-1.7-.09-2.52.41l-1.14.69,3.46,5.69Z"/>
      <path class="cls-1" d="M14.71,50.54l-5.53-9.1,1.86-1.13,5.53,9.1-1.86,1.13Z"/>
      <path class="cls-1" d="M17.59,48.79l-1.6-11.49,1.65-1,9.46,6.72-1.95,1.18-2.15-1.54-3.89,2.36.39,2.61-1.92,1.17ZM18.3,39.25l.53,3.71,2.5-1.52-3.03-2.19Z"/>
      <path class="cls-1" d="M32.1,40.2c-1.38.83-2.79,1.08-4.25.72-1.46-.35-2.59-1.19-3.4-2.52s-1.03-2.71-.67-4.17c.36-1.46,1.22-2.6,2.59-3.43.96-.58,1.99-.85,3.11-.81,1.12.04,2.09.39,2.91,1.05l-2.13,1.29c-.42-.19-.88-.26-1.38-.21-.5.05-.98.21-1.42.48-.86.52-1.38,1.22-1.58,2.1-.2.88-.05,1.74.45,2.57s1.19,1.36,2.07,1.59c.88.23,1.75.08,2.62-.45.73-.44,1.2-.98,1.42-1.61.22-.63.18-1.3-.11-2.01l-2.78,1.69-1.06-1.74,4.71-2.86c.65.84,1.1,1.69,1.34,2.53.25.85.29,1.62.13,2.33-.16.71-.45,1.36-.89,1.95-.44.59-1,1.1-1.68,1.51Z"/>
      <path class="cls-1" d="M46.19,31.44l-1.6.97-8.27-3.1,3.6,5.94-1.86,1.13-5.53-9.1,1.6-.97,8.27,3.1-3.6-5.94,1.86-1.13,5.53,9.1Z"/>
      <path class="cls-1" d="M54.97,24.43c-.36,1.48-1.19,2.61-2.49,3.4s-2.69,1-4.16.64c-1.48-.36-2.61-1.19-3.4-2.49-.79-1.3-1-2.69-.64-4.16.36-1.48,1.19-2.61,2.49-3.4,1.3-.79,2.69-1,4.17-.64,1.48.36,2.61,1.19,3.4,2.49.79,1.3,1,2.69.64,4.16ZM48.86,26.4c.9.23,1.74.11,2.52-.36.79-.48,1.28-1.17,1.49-2.07s.07-1.76-.42-2.56c-.49-.8-1.18-1.32-2.08-1.56-.9-.23-1.74-.11-2.53.36-.79.48-1.28,1.17-1.49,2.07-.21.9-.07,1.76.42,2.56.49.8,1.18,1.32,2.08,1.56Z"/>
      <path class="cls-1" d="M61.59,22.3c-1.04.63-2.05.84-3.04.63-.99-.21-1.75-.7-2.26-1.48l1.86-1.13c.31.36.68.56,1.12.59.43.04.86-.08,1.29-.33.38-.23.65-.51.78-.82.14-.31.12-.61-.05-.89-.31-.5-.94-.63-1.89-.36l-1.13.3c-.87.24-1.66.26-2.35.06-.7-.2-1.25-.63-1.67-1.3-.5-.83-.62-1.65-.36-2.47.26-.82.86-1.51,1.78-2.07.93-.57,1.86-.74,2.78-.54.92.21,1.62.66,2.1,1.37l-1.85,1.12c-.31-.3-.64-.46-1-.48s-.68.06-.99.25c-.34.21-.58.45-.7.73-.13.28-.12.56.04.83.16.28.38.45.67.5.29.06.67.02,1.13-.11l1.24-.35c1.84-.52,3.18-.08,4.03,1.33.48.79.58,1.61.3,2.48-.28.86-.88,1.58-1.82,2.15Z"/>
      <path class="cls-1" d="M67.67,18.4l-4.45-7.33-2.42,1.47-1.07-1.77,6.75-4.09,1.07,1.77-2.45,1.49,4.45,7.33-1.87,1.14Z"/>
      <path class="cls-1" d="M73.27,15l-5.53-9.1,1.86-1.13,5.53,9.1-1.86,1.13Z"/>
      <path class="cls-1" d="M81.5,10.22c-1.37.83-2.78,1.07-4.24.71-1.46-.36-2.59-1.2-3.39-2.52s-1.03-2.71-.67-4.17c.36-1.46,1.22-2.6,2.59-3.43,1.03-.63,2.15-.89,3.34-.79,1.19.1,2.21.56,3.05,1.37l-2.01,1.22c-.45-.34-.98-.5-1.59-.49-.61,0-1.18.17-1.7.49-.85.52-1.38,1.22-1.58,2.1-.2.88-.05,1.74.45,2.57s1.19,1.36,2.07,1.59c.88.23,1.74.08,2.6-.44.52-.32.93-.74,1.21-1.28s.39-1.08.3-1.64l2.01-1.22c.33,1.12.27,2.23-.19,3.34-.46,1.1-1.21,1.97-2.24,2.6Z"/>
    </g>
  </g>
</svg>