<?xml version="1.0" encoding="UTF-8"?>
<svg id="Layer_2" data-name="Layer 2" xmlns="http://www.w3.org/2000/svg" viewBox="0 0 91.06 98.94">
  <defs>
    <style>
      .cls-1 {
        stroke-width: 1.09px;
      }

      .cls-1, .cls-2, .cls-3 {
        fill: none;
        stroke: #000;
        stroke-linecap: round;
        stroke-linejoin: round;
      }

      .cls-2 {
        stroke-width: .91px;
      }

      .cls-3 {
        stroke-width: 1.09px;
      }
    </style>
  </defs>
  <g id="Icons">
    <g>
      <g>
        <path d="M0,78.82l3.06-7.1h1.29l3.07,7.1h-1.52l-.69-1.62h-3.03l-.68,1.62H0ZM3.7,73.63l-.98,2.3h1.95l-.97-2.3Z"/>
        <path d="M8.41,78.82v-7.1h1.45v5.72h3.04v1.38h-4.49Z"/>
        <path d="M14.12,78.82v-7.1h1.45v7.1h-1.45Z"/>
        <path d="M17.35,71.72h1.32l2.31,3.17,2.31-3.17h1.32v7.1h-1.45v-4.62l-2.18,2.99-2.18-2.99v4.62h-1.45v-7.1Z"/>
        <path d="M26.39,78.82v-7.1h4.42v1.38h-2.97v1.46h2.37v1.38h-2.37v1.5h2.97v1.38h-4.42Z"/>
        <path d="M38.61,78.82h-1.25l-3.64-4.63v4.63h-1.45v-7.1h1.25l3.64,4.63v-4.63h1.45v7.1Z"/>
        <path d="M41.7,78.82v-5.72h-1.89v-1.38h5.26v1.38h-1.91v5.72h-1.46Z"/>
        <path d="M44.79,78.82l3.06-7.1h1.29l3.07,7.1h-1.52l-.69-1.62h-3.03l-.68,1.62h-1.5ZM48.49,73.63l-.98,2.3h1.95l-.97-2.3Z"/>
        <path d="M53.82,78.82v-5.72h-1.89v-1.38h5.26v1.38h-1.91v5.72h-1.46Z"/>
        <path d="M58.39,78.82v-7.1h1.45v7.1h-1.45Z"/>
        <path d="M67.46,77.87c-.72.72-1.58,1.08-2.59,1.08s-1.88-.36-2.59-1.08c-.72-.72-1.08-1.58-1.08-2.59s.36-1.88,1.08-2.6c.72-.72,1.58-1.08,2.59-1.08s1.88.36,2.59,1.08c.72.72,1.08,1.58,1.08,2.6s-.36,1.88-1.08,2.59ZM63.3,76.88c.43.44.95.67,1.57.67s1.13-.22,1.57-.67c.43-.44.64-.98.64-1.6s-.21-1.16-.64-1.6c-.43-.44-.95-.67-1.57-.67s-1.13.22-1.57.67c-.43.44-.64.98-.64,1.6s.21,1.16.64,1.6Z"/>
        <path d="M76.24,78.82h-1.25l-3.64-4.63v4.63h-1.45v-7.1h1.25l3.64,4.63v-4.63h1.45v7.1Z"/>
        <path d="M80.5,78.82v-7.1h4.42v1.38h-2.97v1.46h2.37v1.38h-2.37v1.5h2.97v1.38h-4.42Z"/>
        <path d="M87.69,78.82v-5.72h-1.89v-1.38h5.26v1.38h-1.91v5.72h-1.46Z"/>
        <path d="M9.6,88.94c-1.07,0-1.95-.35-2.66-1.06-.71-.71-1.06-1.58-1.06-2.61s.35-1.9,1.06-2.61c.71-.71,1.59-1.06,2.66-1.06.81,0,1.53.24,2.18.71.64.47,1.06,1.08,1.26,1.83h-1.57c-.14-.35-.38-.62-.73-.83-.35-.21-.73-.31-1.14-.31-.67,0-1.21.22-1.63.65s-.63.97-.63,1.62.21,1.19.63,1.62c.42.43.96.65,1.63.65.41,0,.79-.1,1.14-.31.35-.21.59-.48.73-.83h1.57c-.2.75-.62,1.36-1.26,1.83-.64.47-1.37.71-2.18.71Z"/>
        <path d="M20.13,87.87c-.72.72-1.58,1.08-2.59,1.08s-1.88-.36-2.59-1.08c-.72-.72-1.08-1.58-1.08-2.59s.36-1.88,1.08-2.6c.72-.72,1.58-1.08,2.59-1.08s1.88.36,2.59,1.08c.72.72,1.08,1.58,1.08,2.6s-.36,1.88-1.08,2.59ZM15.97,86.88c.43.44.95.67,1.57.67s1.13-.22,1.57-.67c.43-.44.64-.98.64-1.6s-.21-1.16-.64-1.6c-.43-.44-.95-.67-1.57-.67s-1.13.22-1.57.67c-.43.44-.64.98-.64,1.6s.21,1.16.64,1.6Z"/>
        <path d="M22.57,81.72h1.32l2.31,3.17,2.31-3.17h1.32v7.1h-1.45v-4.62l-2.18,2.99-2.18-2.99v4.62h-1.45v-7.1Z"/>
        <path d="M35.75,82.41c.47.46.71,1.02.71,1.71s-.24,1.25-.71,1.71c-.47.46-1.07.69-1.78.69h-.91v2.32h-1.45v-7.1h2.36c.71,0,1.31.23,1.78.69ZM34.75,84.85c.2-.19.3-.44.3-.74s-.1-.55-.3-.74c-.2-.19-.47-.29-.8-.29h-.89v2.06h.89c.33,0,.6-.1.8-.29Z"/>
        <path d="M37.72,88.82v-7.1h1.45v5.72h3.04v1.38h-4.49Z"/>
        <path d="M43.43,88.82v-7.1h4.42v1.38h-2.97v1.46h2.37v1.38h-2.37v1.5h2.97v1.38h-4.42ZM45.19,81.12l.72-1.57h1.54l-1.23,1.57h-1.03Z"/>
        <path d="M49.31,81.72h1.32l2.31,3.17,2.31-3.17h1.32v7.1h-1.45v-4.62l-2.18,2.99-2.18-2.99v4.62h-1.45v-7.1Z"/>
        <path d="M58.35,88.82v-7.1h4.42v1.38h-2.97v1.46h2.37v1.38h-2.37v1.5h2.97v1.38h-4.42Z"/>
        <path d="M70.57,88.82h-1.25l-3.64-4.63v4.63h-1.45v-7.1h1.25l3.64,4.63v-4.63h1.45v7.1Z"/>
        <path d="M73.66,88.82v-5.72h-1.89v-1.38h5.26v1.38h-1.91v5.72h-1.46Z"/>
        <path d="M80.42,88.94c-.81,0-1.46-.23-1.95-.7-.49-.46-.75-1-.78-1.62h1.45c.05.31.2.56.43.73s.52.25.85.25c.3,0,.54-.06.73-.19s.28-.31.28-.52c0-.39-.32-.68-.95-.86l-.75-.22c-.58-.17-1.03-.43-1.36-.78-.33-.35-.49-.79-.5-1.32,0-.65.22-1.16.65-1.53.43-.38,1.01-.57,1.73-.57s1.32.22,1.77.66.69.94.72,1.5h-1.44c-.07-.28-.21-.49-.4-.62-.19-.13-.41-.2-.65-.2-.27,0-.49.06-.66.17s-.26.28-.26.48c0,.21.06.39.21.52.15.13.37.24.68.33l.83.23c1.23.34,1.84,1.06,1.84,2.15,0,.61-.23,1.12-.68,1.52-.46.4-1.05.6-1.79.6Z"/>
        <path d="M8.53,98.82l3.06-7.1h1.29l3.07,7.1h-1.52l-.69-1.62h-3.03l-.68,1.62h-1.5ZM12.23,93.63l-.98,2.3h1.95l-.97-2.3Z"/>
        <path d="M16.94,98.82v-7.1h1.45v5.72h3.04v1.38h-4.49Z"/>
        <path d="M22.65,98.82v-7.1h1.45v7.1h-1.45Z"/>
        <path d="M25.88,91.72h1.32l2.31,3.17,2.31-3.17h1.32v7.1h-1.45v-4.62l-2.18,2.99-2.18-2.99v4.62h-1.45v-7.1Z"/>
        <path d="M34.92,98.82v-7.1h4.42v1.38h-2.97v1.46h2.37v1.38h-2.37v1.5h2.97v1.38h-4.42Z"/>
        <path d="M47.14,98.82h-1.25l-3.64-4.63v4.63h-1.45v-7.1h1.25l3.64,4.63v-4.63h1.45v7.1Z"/>
        <path d="M50.23,98.82v-5.72h-1.89v-1.38h5.26v1.38h-1.91v5.72h-1.46Z"/>
        <path d="M53.32,98.82l3.06-7.1h1.29l3.07,7.1h-1.52l-.69-1.62h-3.03l-.68,1.62h-1.5ZM57.02,93.63l-.98,2.3h1.95l-.97-2.3Z"/>
        <path d="M61.73,98.82v-7.1h1.45v7.1h-1.45Z"/>
        <path d="M64.96,98.82v-7.1h2.72c.65,0,1.17.2,1.58.6s.61.9.61,1.5c0,.93-.49,1.55-1.46,1.85l2.55,3.15h-1.75l-2.44-2.99h-.35v2.99h-1.45ZM66.41,94.59h1.1c.28,0,.5-.07.67-.21s.25-.32.25-.56-.08-.43-.25-.56-.38-.21-.67-.21h-1.1v1.54Z"/>
        <path d="M71.72,98.82v-7.1h4.42v1.38h-2.97v1.46h2.37v1.38h-2.37v1.5h2.97v1.38h-4.42Z"/>
        <path d="M79.88,98.94c-.81,0-1.46-.23-1.95-.7-.49-.46-.75-1-.78-1.62h1.45c.05.31.2.56.43.73s.52.25.85.25c.3,0,.54-.06.73-.19s.28-.31.28-.52c0-.39-.32-.68-.95-.86l-.75-.22c-.58-.17-1.03-.43-1.36-.78-.33-.35-.49-.79-.5-1.32,0-.65.22-1.16.65-1.53.43-.38,1.01-.57,1.73-.57s1.32.22,1.77.66.69.94.72,1.5h-1.44c-.07-.28-.21-.49-.4-.62-.19-.13-.41-.2-.65-.2-.27,0-.49.06-.66.17s-.26.28-.26.48c0,.21.06.39.21.52.15.13.37.24.68.33l.83.23c1.23.34,1.84,1.06,1.84,2.15,0,.61-.23,1.12-.68,1.52-.46.4-1.05.6-1.79.6Z"/>
      </g>
      <g>
        <g>
          <path class="cls-1" d="M16.61,31.04h0l-11.6,11.6c-4.5,4.5-4.5,11.8,0,16.3s11.8,4.5,16.3,0l11.6-11.6h0c1.4-1.4-1.1-6.2-5.6-10.7-4.5-4.5-9.3-7-10.7-5.6Z"/>
          <ellipse class="cls-3" cx="24.79" cy="39.23" rx="3.6" ry="11.5" transform="translate(-20.48 29.02) rotate(-45)"/>
          <path class="cls-2" d="M15.01,38.14l-8.5,8.5c-.3.3-.7.3-1,0h0c-.3-.3-.3-.7,0-1l8.5-8.5c.3-.3.7-.3,1,0h0c.3.3.3.7,0,1Z"/>
        </g>
        <g>
          <path class="cls-1" d="M78.71,42.64l-11.6-11.6h0c-1.4-1.4-6.2,1.1-10.7,5.6s-7,9.3-5.6,10.7h0l11.6,11.6c4.5,4.5,11.8,4.5,16.3,0s4.5-11.8,0-16.3Z"/>
          <path class="cls-2" d="M70.71,40.04l-4-4c-.3-.3-.3-.7,0-1h0c.3-.3.7-.3,1,0l4,4c.3.3.3.7,0,1h0c-.3.3-.8.3-1,0Z"/>
        </g>
        <polygon class="cls-1" points="60.71 22.24 54.21 22.24 54.21 15.84 48.81 15.84 48.81 22.24 42.31 22.24 42.31 27.74 48.81 27.74 48.81 34.14 54.21 34.14 54.21 27.74 60.71 27.74 60.71 22.24"/>
        <path class="cls-1" d="M38.01,39.04s-7.6.3-8.6-7c-.1,0,5.4,0,8.6,7Z"/>
        <path class="cls-1" d="M35.61,32.04s-7.7-.4-8.3-7.7c0,0,5.9,1,8.3,7.7Z"/>
        <path class="cls-1" d="M32.41,23.64s-7.5.4-8.9-6.8c0,0,5.9.8,8.9,6.8Z"/>
        <path class="cls-1" d="M29.01,15.84s-7.2.8-8.5-6.4c0,0,5.6.2,8.5,6.4Z"/>
        <path class="cls-1" d="M38.01,39.04s5.7-4.9,1.7-11.5c0-.1-3.3,5.5-1.7,11.5Z"/>
        <path class="cls-1" d="M35.61,32.04s4.6-6.3.3-11.3c0,0-2.9,3-.3,11.3Z"/>
        <path class="cls-1" d="M32.41,23.64s5-5.6-.2-10.7c0,0-2.3,4.7.2,10.7Z"/>
        <path class="cls-1" d="M29.01,15.84s5-6.2-.3-11.2c0,0-2.8,5.2.3,11.2Z"/>
        <path d="M39.81,44.04c-.1-.2-5.4-19.7-13.9-34.9,0,.2,0,.5-.1.7,0,0-.2-.1-.6-.2,8.4,15.1,13.7,34.4,13.8,34.6,0,.2.2.3.4.3h.1c.3-.1.4-.3.3-.5Z"/>
        <path class="cls-1" d="M25.91,9.84s-6.3-1.7-5.8-9.3c0,0,6.6,2.4,5.8,9.3Z"/>
      </g>
    </g>
  </g>
</svg>