<?xml version="1.0" encoding="UTF-8"?>
<svg id="Layer_2" data-name="Layer 2" xmlns="http://www.w3.org/2000/svg" viewBox="0 0 124.75 47.1">
  <g id="Icons">
    <g>
      <g id="_9unT3F" data-name="9unT3F">
        <g>
          <path d="M16.44,28.56q1.93-1.39.9-2.86c-4.84-6.87-3.66-16.22,2.74-21.8,6.08-5.3,15.5-5.19,21.49.25,6.25,5.68,7.26,15,2.36,21.74-5.22,7.18-15.28,8.88-22.58,3.8-.41-.29-.82-.58-1.21-.85-1.76,1.14-1.79,1.26-.37,2.65.42.41.93.72,1.56,1.2-2.13,2.14-4.01,4.03-5.89,5.93-1.86,1.88-3.71,3.78-5.61,5.71-.43-.24-.78-.43-1.34-.74-1,1.15-2.01,2.33-3.03,3.5-1.89-1.91-3.57-3.63-5.46-5.54,1.1-.91,2.3-1.89,3.49-2.88-.07-.11-.13-.21-.2-.32-.18-.35-.36-.71-.61-1.19,1.56-1.53,3.12-3.06,4.67-4.59,2-1.99,4-3.97,5.97-5.99.56-.58.99-.7,1.52-.01.51.67,1.06,1.3,1.6,1.97ZM44.55,16.4c.01-7.77-6.15-13.99-13.87-14-7.64,0-13.87,6.23-13.87,13.89,0,7.71,6.13,13.87,13.83,13.89,7.73.02,13.9-6.09,13.91-13.79ZM17.72,32.65c-1.01-.93-2.03-1.92-3.12-2.81-.21-.17-.89-.1-1.11.11-2.32,2.24-4.6,4.53-6.85,6.84-.2.2-.27.84-.11,1.03.94,1.11,1.97,2.14,2.87,3.1,2.84-2.82,5.47-5.44,8.33-8.27ZM6.86,41.83c-1.57-2.1-2.04-2.08-3.31.05,1.46,2.01,1.78,2.01,3.31-.05Z"/>
          <path d="M30.62,21.26c-1.05.21-1.11-.41-1.15-1.24-.05-1.05.5-1.1,1.31-1.13,1.02-.05,1.13.45,1.17,1.29.04,1.05-.49,1.2-1.33,1.08Z"/>
          <path d="M31.91,12.48c.12.88-.19,1.31-1.15,1.3-.86,0-1.31-.21-1.29-1.19.02-.85.17-1.33,1.17-1.28.83.03,1.43.15,1.27,1.17Z"/>
          <path d="M27.05,17.5c-.92.13-1.39-.11-1.38-1.11.01-.85.16-1.31,1.16-1.29.83.02,1.35.13,1.29,1.14-.05.79-.04,1.49-1.07,1.25Z"/>
          <path d="M35.65,16.32c.17.94-.26,1.22-1.18,1.23-.93,0-1.21-.33-1.21-1.24,0-.93.3-1.23,1.22-1.22.91,0,1.35.28,1.17,1.23Z"/>
        </g>
      </g>
      <g>
        <path d="M56.8,12.94v-7.1h2.34c1.02,0,1.88.34,2.59,1.03.71.69,1.06,1.53,1.06,2.52s-.35,1.83-1.06,2.52c-.71.69-1.57,1.03-2.59,1.03h-2.34ZM58.25,11.61h.89c.65,0,1.17-.21,1.58-.64.41-.43.61-.95.61-1.58s-.2-1.15-.61-1.58-.93-.64-1.58-.64h-.89v4.44Z"/>
        <path d="M64.16,12.94v-7.1h1.45v7.1h-1.45Z"/>
        <path d="M66.61,12.94l3.06-7.1h1.29l3.07,7.1h-1.52l-.69-1.62h-3.03l-.68,1.62h-1.5ZM70.31,7.75l-.98,2.3h1.95l-.97-2.3Z"/>
        <path d="M78.05,13.06c-1.07,0-1.96-.35-2.67-1.06s-1.07-1.58-1.07-2.61.35-1.9,1.06-2.61c.71-.71,1.59-1.06,2.66-1.06.75,0,1.43.21,2.06.62.62.41,1.05.94,1.29,1.6h-1.66c-.17-.25-.41-.45-.71-.6-.3-.15-.63-.22-.98-.22-.67,0-1.21.22-1.63.65s-.63.97-.63,1.62.21,1.19.63,1.62c.42.43.97.65,1.65.65.57,0,1.02-.14,1.37-.43.34-.28.55-.68.63-1.19h-2.17v-1.36h3.67c.08.71.04,1.34-.11,1.91-.15.57-.4,1.02-.73,1.38-.33.35-.73.62-1.18.8-.45.19-.95.28-1.48.28Z"/>
        <path d="M89.31,12.94h-1.25l-3.64-4.63v4.63h-1.45v-7.1h1.25l3.64,4.63v-4.63h1.45v7.1Z"/>
        <path d="M96.93,11.98c-.72.72-1.58,1.08-2.59,1.08s-1.88-.36-2.59-1.08c-.72-.72-1.08-1.58-1.08-2.59s.36-1.88,1.08-2.6c.72-.72,1.58-1.08,2.59-1.08s1.88.36,2.59,1.08c.72.72,1.08,1.58,1.08,2.6s-.36,1.88-1.08,2.59ZM92.77,10.99c.43.44.95.67,1.57.67s1.13-.22,1.57-.67c.43-.44.64-.98.64-1.6s-.21-1.16-.64-1.6c-.43-.44-.95-.67-1.57-.67s-1.13.22-1.57.67c-.43.44-.64.98-.64,1.6s.21,1.16.64,1.6Z"/>
        <path d="M101.65,13.06c-.81,0-1.46-.23-1.95-.7-.49-.46-.75-1-.78-1.62h1.45c.05.31.2.56.43.73s.52.25.85.25c.3,0,.54-.06.73-.19s.28-.31.28-.52c0-.39-.32-.68-.95-.86l-.75-.22c-.58-.17-1.03-.43-1.36-.78-.33-.35-.49-.79-.5-1.32,0-.65.22-1.16.65-1.53.43-.38,1.01-.57,1.73-.57s1.32.22,1.77.66.69.94.72,1.5h-1.44c-.07-.28-.21-.49-.4-.62-.19-.13-.41-.2-.65-.2-.27,0-.49.06-.66.17s-.26.28-.26.48c0,.21.06.39.21.52.15.13.37.24.68.33l.83.23c1.23.34,1.84,1.06,1.84,2.15,0,.61-.23,1.12-.68,1.52-.46.4-1.05.6-1.79.6Z"/>
        <path d="M106.66,12.94v-5.72h-1.89v-1.38h5.26v1.38h-1.91v5.72h-1.46Z"/>
        <path d="M111.23,12.94v-7.1h1.45v7.1h-1.45Z"/>
        <path d="M117.77,13.06c-1.07,0-1.95-.35-2.66-1.06-.71-.71-1.06-1.58-1.06-2.61s.35-1.9,1.06-2.61c.71-.71,1.59-1.06,2.66-1.06.81,0,1.53.24,2.18.71.64.47,1.06,1.08,1.26,1.83h-1.57c-.14-.35-.38-.62-.73-.83-.35-.21-.73-.31-1.14-.31-.67,0-1.21.22-1.63.65s-.63.97-.63,1.62.21,1.19.63,1.62c.42.43.96.65,1.63.65.41,0,.79-.1,1.14-.31.35-.21.59-.48.73-.83h1.57c-.2.75-.62,1.36-1.26,1.83-.64.47-1.37.71-2.18.71Z"/>
        <path d="M56.8,22.94v-7.1h2.34c1.02,0,1.88.34,2.59,1.03.71.69,1.06,1.53,1.06,2.52s-.35,1.83-1.06,2.52c-.71.69-1.57,1.03-2.59,1.03h-2.34ZM58.25,21.61h.89c.65,0,1.17-.21,1.58-.64.41-.43.61-.95.61-1.58s-.2-1.15-.61-1.58-.93-.64-1.58-.64h-.89v4.44Z"/>
        <path d="M64.16,22.94v-7.1h1.45v7.1h-1.45Z"/>
        <path d="M67.39,22.94v-7.1h4.32v1.38h-2.87v1.47h2.25v1.38h-2.25v2.87h-1.45Z"/>
        <path d="M73.01,22.94v-7.1h4.32v1.38h-2.87v1.47h2.25v1.38h-2.25v2.87h-1.45Z"/>
        <path d="M78.63,22.94v-7.1h4.42v1.38h-2.97v1.46h2.37v1.38h-2.37v1.5h2.97v1.38h-4.42ZM80.39,15.24l.72-1.57h1.54l-1.23,1.57h-1.03Z"/>
        <path d="M84.51,22.94v-7.1h2.72c.65,0,1.17.2,1.58.6s.61.9.61,1.5c0,.93-.49,1.55-1.46,1.85l2.55,3.15h-1.75l-2.44-2.99h-.35v2.99h-1.45ZM85.96,18.71h1.1c.28,0,.5-.07.67-.21s.25-.32.25-.56-.08-.43-.25-.56-.38-.21-.67-.21h-1.1v1.54Z"/>
        <path d="M91.27,22.94v-7.1h4.42v1.38h-2.97v1.46h2.37v1.38h-2.37v1.5h2.97v1.38h-4.42Z"/>
        <path d="M103.49,22.94h-1.25l-3.64-4.63v4.63h-1.45v-7.1h1.25l3.64,4.63v-4.63h1.45v7.1Z"/>
        <path d="M106.58,22.94v-5.72h-1.89v-1.38h5.26v1.38h-1.91v5.72h-1.46Z"/>
        <path d="M111.15,22.94v-7.1h1.45v7.1h-1.45Z"/>
        <path d="M114.38,22.94v-7.1h4.42v1.38h-2.97v1.46h2.37v1.38h-2.37v1.5h2.97v1.38h-4.42Z"/>
        <path d="M120.26,22.94v-7.1h1.45v5.72h3.04v1.38h-4.49Z"/>
      </g>
    </g>
  </g>
</svg>