<?xml version="1.0" encoding="UTF-8"?>
<svg id="Layer_2" data-name="Layer 2" xmlns="http://www.w3.org/2000/svg" viewBox="0 0 89.29 60.92">
  <g id="Icons">
    <g>
      <g id="KWIHUb">
        <g>
          <path d="M31.57,25.87c.02-6.89,5.62-12.45,12.51-12.42,6.84.02,12.43,5.62,12.43,12.44,0,6.95-5.61,12.52-12.62,12.49-6.82-.03-12.35-5.64-12.33-12.51ZM44,35.7c5.43.01,9.85-4.38,9.85-9.79,0-5.36-4.42-9.78-9.79-9.8-5.4-.02-9.83,4.4-9.83,9.82,0,5.4,4.36,9.76,9.77,9.77Z"/>
          <path d="M45.32,5c0,1.13.01,2.27,0,3.4-.01.88-.53,1.45-1.29,1.47-.78.02-1.37-.6-1.38-1.48-.01-2.3-.01-4.59,0-6.89C42.66.58,43.2,0,44,0c.8,0,1.3.56,1.31,1.51.01,1.16,0,2.32,0,3.49h0Z"/>
          <path d="M65,27.19c-1.17,0-2.33.02-3.5,0-.92-.02-1.45-.5-1.46-1.28-.02-.78.51-1.34,1.41-1.34,2.36-.03,4.72-.02,7.08,0,.84,0,1.38.55,1.38,1.28,0,.79-.52,1.33-1.41,1.34-1.17.02-2.33,0-3.5,0Z"/>
          <path d="M23.06,24.58c1.14,0,2.28-.01,3.41,0,.96.01,1.51.52,1.5,1.33,0,.82-.54,1.29-1.52,1.3-2.28.01-4.55.01-6.83,0-.95,0-1.51-.51-1.51-1.32,0-.79.58-1.3,1.53-1.31,1.14-.01,2.28,0,3.41,0Z"/>
          <path d="M58.82,33.09c.5.18.79.24,1.04.38,1.37.77,2.73,1.55,4.07,2.36.87.52,1.13,1.25.75,1.95-.39.71-1.22.84-2.13.33-1.37-.77-2.72-1.56-4.08-2.35-.61-.35-.95-.92-.69-1.56.19-.45.7-.77,1.03-1.11Z"/>
          <path d="M36.81,40.71c-.17.47-.23.74-.36.96-.8,1.41-1.61,2.82-2.44,4.21-.47.8-1.26,1.05-1.91.65-.68-.41-.85-1.17-.39-1.98.81-1.44,1.64-2.86,2.48-4.28.34-.59.92-.87,1.52-.6.45.21.77.7,1.11,1.03Z"/>
          <path d="M56.71,6.2c-.19.49-.27.78-.41,1.03-.77,1.36-1.55,2.73-2.35,4.08-.51.86-1.19,1.11-1.88.73-.76-.42-.92-1.2-.41-2.1.8-1.41,1.61-2.81,2.44-4.21.37-.62.97-.87,1.6-.56.42.21.7.7,1.01,1.02Z"/>
          <path d="M64.83,14.92c-.16.19-.39.65-.76.88-1.4.87-2.84,1.68-4.28,2.48-.77.43-1.54.22-1.91-.44-.37-.66-.2-1.37.53-1.81,1.48-.9,2.97-1.78,4.49-2.6.92-.49,1.97.21,1.93,1.48Z"/>
          <path d="M24.29,38.55c-.28-.24-.76-.5-.97-.9-.28-.53-.18-1.18.38-1.52,1.57-.96,3.16-1.89,4.77-2.76.63-.34,1.38-.05,1.68.54.31.62.29,1.29-.32,1.67-1.56.97-3.17,1.86-4.77,2.77-.16.09-.36.1-.77.2Z"/>
          <path d="M52.95,39.57c.19.14.67.35.9.71.89,1.42,1.71,2.88,2.53,4.34.42.76.22,1.53-.44,1.9-.66.38-1.4.17-1.86-.6-.86-1.44-1.71-2.88-2.51-4.35-.51-.93.1-1.98,1.38-2Z"/>
          <path d="M36.8,10.99c-.31.37-.56.92-.96,1.06-.39.14-1.19.05-1.37-.23-1.08-1.65-2.07-3.36-3-5.09-.29-.54.01-1.13.57-1.45.54-.31,1.22-.36,1.55.17,1.06,1.69,2.02,3.45,3.01,5.18.04.07.03.16.04.24.05.04.09.08.14.12Z"/>
          <path d="M24.56,13.29c.25.09.52.15.75.28,1.41.8,2.81,1.61,4.2,2.44.78.47,1.02,1.27.61,1.92-.39.63-1.18.8-1.93.37-1.43-.81-2.85-1.65-4.28-2.47-.64-.37-.89-.97-.62-1.58.2-.44.71-.74,1.09-1.1.06.05.12.09.18.14Z"/>
        </g>
      </g>
      <g>
        <path d="M0,60.8v-7.1h4.42v1.38H1.45v1.46h2.37v1.38H1.45v1.5h2.97v1.38H0Z"/>
        <path d="M12.22,60.8h-1.25l-3.64-4.63v4.63h-1.45v-7.1h1.25l3.64,4.63v-4.63h1.45v7.1Z"/>
        <path d="M16.17,60.8l-2.93-7.1h1.57l2.01,4.93,1.98-4.93h1.6l-2.94,7.1h-1.29Z"/>
        <path d="M21.41,60.8v-7.1h1.45v7.1h-1.45Z"/>
        <path d="M24.64,60.8v-7.1h2.72c.65,0,1.17.2,1.58.6s.61.9.61,1.5c0,.93-.49,1.55-1.46,1.85l2.55,3.15h-1.75l-2.44-2.99h-.35v2.99h-1.45ZM26.09,56.57h1.1c.28,0,.5-.07.67-.21s.25-.32.25-.56-.08-.43-.25-.56-.38-.21-.67-.21h-1.1v1.54Z"/>
        <path d="M37.01,59.84c-.72.72-1.58,1.08-2.59,1.08s-1.88-.36-2.59-1.08c-.72-.72-1.08-1.58-1.08-2.59s.36-1.88,1.08-2.6c.72-.72,1.58-1.08,2.59-1.08s1.88.36,2.59,1.08c.72.72,1.08,1.58,1.08,2.6s-.36,1.88-1.08,2.59ZM32.85,58.85c.43.44.95.67,1.57.67s1.13-.22,1.57-.67c.43-.44.64-.98.64-1.6s-.21-1.16-.64-1.6c-.43-.44-.95-.67-1.57-.67s-1.13.22-1.57.67c-.43.44-.64.98-.64,1.6s.21,1.16.64,1.6Z"/>
        <path d="M45.79,60.8h-1.25l-3.64-4.63v4.63h-1.45v-7.1h1.25l3.64,4.63v-4.63h1.45v7.1Z"/>
        <path d="M53.91,60.8h-1.25l-3.64-4.63v4.63h-1.45v-7.1h1.25l3.64,4.63v-4.63h1.45v7.1Z"/>
        <path d="M55.69,60.8v-7.1h4.42v1.38h-2.97v1.46h2.37v1.38h-2.37v1.5h2.97v1.38h-4.42Z"/>
        <path d="M61.57,53.7h1.32l2.31,3.17,2.31-3.17h1.32v7.1h-1.45v-4.62l-2.18,2.99-2.18-2.99v4.62h-1.45v-7.1Z"/>
        <path d="M70.61,60.8v-7.1h4.42v1.38h-2.97v1.46h2.37v1.38h-2.37v1.5h2.97v1.38h-4.42Z"/>
        <path d="M82.83,60.8h-1.25l-3.64-4.63v4.63h-1.45v-7.1h1.25l3.64,4.63v-4.63h1.45v7.1Z"/>
        <path d="M85.92,60.8v-5.72h-1.89v-1.38h5.26v1.38h-1.91v5.72h-1.46Z"/>
      </g>
    </g>
  </g>
</svg>