<?xml version="1.0" encoding="UTF-8"?>
<svg id="Layer_2" data-name="Layer 2" xmlns="http://www.w3.org/2000/svg" viewBox="0 0 90.71 50.01">
  <g id="Icons">
    <g>
      <g id="Dry">
        <path d="M46.29,31.49c-8.66,0-15.71-7.05-15.71-15.71S37.63.08,46.29.08s15.71,7.05,15.71,15.71-7.05,15.71-15.71,15.71ZM46.29,2.46c-7.35,0-13.33,5.98-13.33,13.33s5.98,13.33,13.33,13.33,13.33-5.98,13.33-13.33-5.98-13.33-13.33-13.33Z"/>
        <path d="M46.45,35.2c-8.9,0-16.47-4.38-21.25-8.05-2.88-2.21-4.98-4.33-6.23-5.71-2.51-2.78-2.51-3.46-2.51-3.75,0-.65.74-1.9,2.19-3.72,1.13-1.42,3.05-3.58,5.76-5.81C28.94,4.44,36.39,0,46.12,0s17.29,4.37,21.88,8.04c2.8,2.24,4.75,4.39,5.9,5.8,1.03,1.27,2.25,2.97,2.25,3.87,0,.3,0,1.08-2.45,3.87-1.21,1.38-3.26,3.48-6.14,5.71-4.69,3.62-12.16,7.93-21.11,7.93ZM18.95,17.66c.78,1.19,3.79,4.71,8.24,8.01,4.38,3.26,11.28,7.15,19.27,7.15s14.85-3.83,19.16-7.05c4.57-3.42,7.47-7,8.09-8.1-.55-1.06-3.08-4.62-7.64-8.14-4.22-3.26-11.1-7.15-19.94-7.15s-15.57,3.94-19.73,7.24c-4.24,3.37-6.79,6.87-7.45,8.04ZM18.78,17.36s0,0,0,0t0,0Z"/>
        <path d="M46.29,9.92c-3.51,0-6.35,2.84-6.35,6.35s2.84,6.35,6.35,6.35,6.35-2.84,6.35-6.35-2.84-6.35-6.35-6.35ZM48.51,15.79c-1.14,0-2.06-.92-2.06-2.06s.92-2.06,2.06-2.06,2.06.92,2.06,2.06-.92,2.06-2.06,2.06Z"/>
        <polygon points="44.99 29.87 46.22 28.34 46.22 27 45.28 27 45.28 28.01 44.26 29.28 44.99 29.87"/>
        <polygon points="57.71 25.57 50.81 22.54 50.43 23.4 53.35 24.68 53.03 25.14 51.46 25.59 51.72 26.49 53.61 25.96 54.23 25.07 57.33 26.43 57.71 25.57"/>
        <polygon points="36 5.7 42.89 8.72 43.27 7.86 40.35 6.58 40.67 6.13 42.25 5.68 41.99 4.77 40.1 5.31 39.47 6.2 36.37 4.84 36 5.7"/>
        <polygon points="35.57 16.23 38.62 15.3 38.35 14.4 31.14 16.58 31.41 17.48 34.65 16.51 35.17 17.46 36.98 18.22 37.34 17.35 35.84 16.72 35.57 16.23"/>
        <polygon points="58.42 14.32 61.47 13.4 61.2 12.5 53.99 14.68 54.26 15.58 57.5 14.6 58.01 15.56 59.83 16.31 60.19 15.45 58.68 14.82 58.42 14.32"/>
        <polygon points="40.6 25.34 40.15 25 42.55 22.9 41.93 22.19 40.95 23.05 40.28 22.24 40.26 21.23 39.32 21.25 39.34 22.59 40.24 23.67 36.26 27.15 36.88 27.86 39.43 25.63 40.29 26.29 42.26 26.23 42.23 25.29 40.6 25.34"/>
        <polygon points="52.81 5.82 53.26 6.16 50.86 8.26 51.48 8.97 52.46 8.11 53.13 8.91 53.15 9.93 54.09 9.91 54.07 8.57 53.17 7.49 57.15 4.01 56.53 3.3 53.98 5.53 53.12 4.87 51.16 4.93 51.18 5.87 52.81 5.82"/>
        <polygon points="46.39 1.29 45.56 3.68 46.15 5.32 47.29 4.91 46.85 3.68 47.54 1.69 46.39 1.29"/>
        <polygon points="59.48 21.72 57.66 19.96 55.93 19.81 55.82 21.01 57.12 21.13 58.64 22.59 59.48 21.72"/>
      </g>
      <g>
        <path d="M0,49.89v-7.1h4.32v1.38H1.45v1.47h2.25v1.38H1.45v2.87H0Z"/>
        <path d="M4.28,49.89l3.06-7.1h1.29l3.07,7.1h-1.52l-.69-1.62h-3.03l-.68,1.62h-1.5ZM7.98,44.7l-.98,2.3h1.95l-.97-2.3Z"/>
        <path d="M13.31,49.89v-5.72h-1.89v-1.38h5.26v1.38h-1.91v5.72h-1.46Z"/>
        <path d="M17.88,49.89v-7.1h1.45v7.1h-1.45Z"/>
        <path d="M24.44,50.01c-1.07,0-1.96-.35-2.67-1.06s-1.07-1.58-1.07-2.61.35-1.9,1.06-2.61c.71-.71,1.59-1.06,2.66-1.06.75,0,1.43.21,2.06.62.62.41,1.05.94,1.29,1.6h-1.66c-.17-.25-.41-.45-.71-.6-.3-.15-.63-.22-.98-.22-.67,0-1.21.22-1.63.65s-.63.97-.63,1.62.21,1.19.63,1.62c.42.43.97.65,1.65.65.57,0,1.02-.14,1.37-.43.34-.28.55-.68.63-1.19h-2.17v-1.36h3.67c.08.71.04,1.34-.11,1.91-.15.57-.4,1.02-.73,1.38-.33.35-.73.62-1.18.8-.45.19-.95.28-1.48.28Z"/>
        <path d="M32.17,50.01c-.86,0-1.56-.27-2.09-.8-.53-.53-.8-1.24-.8-2.12v-4.3h1.45v4.32c0,.47.13.83.39,1.1.26.27.61.4,1.05.4s.79-.13,1.05-.4c.26-.27.39-.63.39-1.1v-4.32h1.45v4.3c0,.87-.27,1.58-.81,2.11s-1.23.81-2.08.81Z"/>
        <path d="M36.76,49.89v-7.1h4.42v1.38h-2.97v1.46h2.37v1.38h-2.37v1.5h2.97v1.38h-4.42Z"/>
        <path d="M46.99,49.89l-2.93-7.1h1.57l2.01,4.93,1.98-4.93h1.6l-2.94,7.1h-1.29Z"/>
        <path d="M52.23,49.89v-7.1h1.45v7.1h-1.45Z"/>
        <path d="M57.74,50.01c-.81,0-1.46-.23-1.95-.7-.49-.46-.75-1-.78-1.62h1.45c.05.31.2.56.43.73s.52.25.85.25c.3,0,.54-.06.73-.19s.28-.31.28-.52c0-.39-.32-.68-.95-.86l-.75-.22c-.58-.17-1.03-.43-1.36-.78-.33-.35-.49-.79-.5-1.32,0-.65.22-1.16.65-1.53.43-.38,1.01-.57,1.73-.57s1.32.22,1.77.66.69.94.72,1.5h-1.44c-.07-.28-.21-.49-.4-.62-.19-.13-.41-.2-.65-.2-.27,0-.49.06-.66.17s-.26.28-.26.48c0,.21.06.39.21.52.15.13.37.24.68.33l.83.23c1.23.34,1.84,1.06,1.84,2.15,0,.61-.23,1.12-.68,1.52-.46.4-1.05.6-1.79.6Z"/>
        <path d="M64.4,50.01c-.86,0-1.56-.27-2.09-.8-.53-.53-.8-1.24-.8-2.12v-4.3h1.45v4.32c0,.47.13.83.39,1.1.26.27.61.4,1.05.4s.79-.13,1.05-.4c.26-.27.39-.63.39-1.1v-4.32h1.45v4.3c0,.87-.27,1.58-.81,2.11s-1.23.81-2.08.81Z"/>
        <path d="M68.99,49.89v-7.1h4.42v1.38h-2.97v1.46h2.37v1.38h-2.37v1.5h2.97v1.38h-4.42Z"/>
        <path d="M74.87,49.89v-7.1h1.45v5.72h3.04v1.38h-4.49Z"/>
        <path d="M80.58,49.89v-7.1h1.45v5.72h3.04v1.38h-4.49Z"/>
        <path d="M86.29,49.89v-7.1h4.42v1.38h-2.97v1.46h2.37v1.38h-2.37v1.5h2.97v1.38h-4.42Z"/>
      </g>
    </g>
  </g>
</svg>