<?xml version="1.0" encoding="UTF-8"?>
<svg id="Layer_2" data-name="Layer 2" xmlns="http://www.w3.org/2000/svg" viewBox="0 0 79.79 43.21">
  <defs>
    <style>
      .cls-1 {
        fill: none;
      }
    </style>
  </defs>
  <g id="Icons">
    <g>
      <g>
        <g>
          <circle class="cls-1" cx="35.15" cy="11.68" r="9.99"/>
          <circle cx="35.15" cy="11.68" r="3.81"/>
        </g>
        <path d="M35.06,23.35c-5.21-.21-9.93-1.85-14.4-4.34-2.95-1.64-5.71-3.56-8.06-6.01-1.16-1.21-1.16-1.62.04-2.76,3.52-3.35,7.47-6.04,11.94-7.97,7.6-3.28,15.1-2.96,22.52.62,3.94,1.9,7.47,4.39,10.64,7.4,1.1,1.05,1.13,1.54.05,2.55-4.92,4.61-10.47,8.16-17.12,9.7-1.83.42-3.73.55-5.59.81ZM35.05,21.03c5.04.09,9.43-4.13,9.53-9.14.1-5.26-4.06-9.64-9.21-9.72-5.25-.08-9.57,4.06-9.67,9.27-.09,5.17,4.13,9.5,9.35,9.59ZM26.13,19.12c-3.51-4.98-3.47-9.95-.09-14.98-4.43,1.74-8.23,4.31-11.76,7.53,3.56,3.28,7.43,5.78,11.85,7.45ZM44.19,19.08c4.38-1.72,8.18-4.26,11.72-7.49-3.5-3.19-7.28-5.75-11.68-7.45,3.43,5,3.4,9.95-.03,14.93Z"/>
        <path d="M41.41,16.37c1.29,0,1.29-2,0-2s-1.29,2,0,2h0Z"/>
        <path d="M38.96,18.83c1.29,0,1.29-2,0-2s-1.29,2,0,2h0Z"/>
        <path d="M34.85,19.1c1.29,0,1.29-2,0-2s-1.29,2,0,2h0Z"/>
        <path d="M31.33,17.64c1.29,0,1.29-2,0-2s-1.29,2,0,2h0Z"/>
        <path d="M28.28,15.55c1.29,0,1.29-2,0-2s-1.29,2,0,2h0Z"/>
        <path d="M37.4,21.84c1.29,0,1.29-2,0-2s-1.29,2,0,2h0Z"/>
        <path d="M42.05,19.56c1.29,0,1.29-2,0-2s-1.29,2,0,2h0Z"/>
        <path d="M32.2,21.66c1.29,0,1.29-2,0-2s-1.29,2,0,2h0Z"/>
        <path d="M28.78,20.08c1.29,0,1.29-2,0-2s-1.29,2,0,2h0Z"/>
      </g>
      <g>
        <path d="M3.16,34.21c-.91,0-1.66-.3-2.26-.9s-.9-1.34-.9-2.22.3-1.62.9-2.22,1.35-.9,2.26-.9c.69,0,1.3.2,1.85.6s.91.92,1.08,1.56h-1.33c-.12-.29-.33-.53-.62-.71-.3-.18-.62-.26-.96-.26-.57,0-1.03.18-1.39.55-.36.37-.54.83-.54,1.38s.18,1.01.54,1.38c.36.37.82.55,1.39.55.35,0,.67-.09.96-.26.3-.18.5-.41.62-.71h1.33c-.17.64-.53,1.16-1.08,1.56-.55.4-1.16.6-1.85.6Z"/>
        <path d="M12.12,33.3c-.61.61-1.34.91-2.21.91s-1.6-.3-2.21-.91c-.61-.61-.91-1.34-.91-2.21s.3-1.6.91-2.21c.61-.61,1.34-.91,2.21-.91s1.6.3,2.21.91c.61.61.91,1.34.91,2.21s-.3,1.6-.91,2.21ZM8.58,32.45c.37.38.81.57,1.33.57s.96-.19,1.33-.57c.37-.38.55-.83.55-1.36s-.18-.99-.55-1.36c-.37-.38-.81-.56-1.33-.56s-.96.19-1.33.56c-.37.38-.55.83-.55,1.36s.18.99.55,1.36Z"/>
        <path d="M14.19,34.11v-6.04h1.23v4.86h2.58v1.17h-3.82Z"/>
        <path d="M23.72,33.3c-.61.61-1.34.91-2.21.91s-1.6-.3-2.21-.91c-.61-.61-.91-1.34-.91-2.21s.3-1.6.91-2.21c.61-.61,1.34-.91,2.21-.91s1.6.3,2.21.91c.61.61.91,1.34.91,2.21s-.3,1.6-.91,2.21ZM20.18,32.45c.37.38.81.57,1.33.57s.96-.19,1.33-.57c.37-.38.55-.83.55-1.36s-.18-.99-.55-1.36c-.37-.38-.81-.56-1.33-.56s-.96.19-1.33.56c-.37.38-.55.83-.55,1.36s.18.99.55,1.36Z"/>
        <path d="M25.79,34.11v-6.04h2.31c.55,0,1,.17,1.34.51.34.34.51.77.51,1.27,0,.79-.41,1.32-1.24,1.57l2.17,2.68h-1.49l-2.07-2.54h-.3v2.54h-1.23ZM27.02,30.51h.93c.24,0,.43-.06.57-.17s.21-.28.21-.48-.07-.36-.21-.48c-.14-.12-.33-.17-.57-.17h-.93v1.31Z"/>
        <path d="M30.87,34.11l2.6-6.04h1.1l2.61,6.04h-1.29l-.59-1.38h-2.58l-.58,1.38h-1.27ZM34.02,29.7l-.83,1.96h1.66l-.82-1.96Z"/>
        <path d="M38.55,34.11v-4.86h-1.61v-1.17h4.47v1.17h-1.62v4.86h-1.24Z"/>
        <path d="M42.43,34.11v-6.04h1.23v6.04h-1.23Z"/>
        <path d="M50.15,33.3c-.61.61-1.34.91-2.21.91s-1.6-.3-2.21-.91c-.61-.61-.91-1.34-.91-2.21s.3-1.6.91-2.21c.61-.61,1.34-.91,2.21-.91s1.6.3,2.21.91c.61.61.91,1.34.91,2.21s-.3,1.6-.91,2.21ZM46.61,32.45c.37.38.81.57,1.33.57s.96-.19,1.33-.57c.37-.38.55-.83.55-1.36s-.18-.99-.55-1.36c-.37-.38-.81-.56-1.33-.56s-.96.19-1.33.56c-.37.38-.55.83-.55,1.36s.18.99.55,1.36Z"/>
        <path d="M57.6,34.11h-1.06l-3.09-3.94v3.94h-1.23v-6.04h1.06l3.09,3.94v-3.94h1.23v6.04Z"/>
        <path d="M60.3,34.11l2.6-6.04h1.1l2.61,6.04h-1.29l-.59-1.38h-2.58l-.58,1.38h-1.27ZM63.83,27.56h-.88l-1.05-1.33h1.31l.61,1.33ZM63.44,29.7l-.83,1.96h1.66l-.82-1.96Z"/>
        <path d="M69.29,34.11v-6.04h1.23v4.86h2.58v1.17h-3.82Z"/>
        <path d="M73.48,34.11l2.6-6.04h1.1l2.61,6.04h-1.29l-.59-1.38h-2.58l-.58,1.38h-1.27ZM76.63,29.7l-.83,1.96h1.66l-.82-1.96Z"/>
        <path d="M8.84,43.11v-6.04h3.67v1.17h-2.44v1.25h1.91v1.17h-1.91v2.44h-1.23Z"/>
        <path d="M13.61,43.11v-6.04h1.23v4.86h2.58v1.17h-3.82Z"/>
        <path d="M20.65,43.21c-.73,0-1.32-.23-1.78-.68-.45-.45-.68-1.05-.68-1.8v-3.66h1.23v3.67c0,.4.11.71.33.93.22.23.52.34.89.34s.67-.11.89-.34c.22-.23.33-.54.33-.93v-3.67h1.23v3.66c0,.74-.23,1.34-.69,1.8s-1.05.68-1.77.68Z"/>
        <path d="M29.52,42.3c-.61.61-1.34.91-2.21.91s-1.6-.3-2.21-.91c-.61-.61-.91-1.34-.91-2.21s.3-1.6.91-2.21c.61-.61,1.34-.91,2.21-.91s1.6.3,2.21.91c.61.61.91,1.34.91,2.21s-.3,1.6-.91,2.21ZM25.98,41.45c.37.38.81.57,1.33.57s.96-.19,1.33-.57c.37-.38.55-.83.55-1.36s-.18-.99-.55-1.36c-.37-.38-.81-.56-1.33-.56s-.96.19-1.33.56c-.37.38-.55.83-.55,1.36s.18.99.55,1.36Z"/>
        <path d="M31.59,43.11v-6.04h2.31c.55,0,1,.17,1.34.51.34.34.51.77.51,1.27,0,.79-.41,1.32-1.24,1.57l2.17,2.68h-1.49l-2.07-2.54h-.3v2.54h-1.23ZM32.82,39.51h.93c.24,0,.43-.06.57-.17s.21-.28.21-.48-.07-.36-.21-.48c-.14-.12-.33-.17-.57-.17h-.93v1.31Z"/>
        <path d="M37.34,43.11v-6.04h3.76v1.17h-2.52v1.24h2.01v1.17h-2.01v1.28h2.52v1.17h-3.76Z"/>
        <path d="M44.27,43.21c-.69,0-1.24-.2-1.66-.59-.42-.39-.64-.85-.66-1.38h1.23c.04.27.17.47.37.62s.44.22.72.22c.25,0,.46-.06.62-.17.16-.11.24-.26.24-.45,0-.33-.27-.58-.81-.73l-.64-.19c-.49-.14-.88-.36-1.16-.66-.28-.3-.42-.67-.42-1.12,0-.55.18-.98.55-1.3s.86-.48,1.47-.48,1.12.19,1.5.56c.38.37.59.8.61,1.28h-1.22c-.06-.24-.18-.41-.34-.53-.16-.11-.35-.17-.55-.17-.23,0-.41.05-.56.15s-.22.24-.23.41c0,.18.05.33.18.44.12.11.32.21.58.28l.71.2c1.04.29,1.56.9,1.56,1.83,0,.52-.19.95-.58,1.29-.39.34-.89.51-1.52.51Z"/>
        <path d="M50.36,43.21c-.91,0-1.66-.3-2.26-.9s-.9-1.34-.9-2.22.3-1.62.9-2.22,1.35-.9,2.26-.9c.69,0,1.3.2,1.85.6s.91.92,1.08,1.56h-1.33c-.12-.29-.33-.53-.62-.71-.3-.18-.62-.26-.96-.26-.57,0-1.03.18-1.39.55-.36.37-.54.83-.54,1.38s.18,1.01.54,1.38c.36.37.82.55,1.39.55.35,0,.67-.09.96-.26.3-.18.5-.41.62-.71h1.33c-.17.64-.53,1.16-1.08,1.56-.55.4-1.16.6-1.85.6Z"/>
        <path d="M54.34,43.11v-6.04h3.76v1.17h-2.52v1.24h2.01v1.17h-2.01v1.28h2.52v1.17h-3.76ZM55.84,36.56l.61-1.33h1.31l-1.05,1.33h-.88Z"/>
        <path d="M59.34,43.11v-6.04h1.23v6.04h-1.23Z"/>
        <path d="M67.48,43.11h-1.06l-3.09-3.94v3.94h-1.23v-6.04h1.06l3.09,3.94v-3.94h1.23v6.04Z"/>
        <path d="M68.99,43.11v-6.04h3.76v1.17h-2.52v1.24h2.01v1.17h-2.01v1.28h2.52v1.17h-3.76Z"/>
      </g>
    </g>
  </g>
</svg>