<?xml version="1.0" encoding="UTF-8"?>
<svg id="Layer_2" data-name="Layer 2" xmlns="http://www.w3.org/2000/svg" viewBox="0 0 84.87 73.65">
  <g id="Icons">
    <g>
      <g id="_0fdiQx" data-name="0fdiQx">
        <g>
          <path d="M61.09,17c.68-.74,1.34-1.5,2.05-2.21,1.32-1.33,2.79-1.32,4.12,0,.7.69,1.41,1.38,2.09,2.09,1.17,1.22,1.15,2.71-.05,3.91-2.61,2.61-5.22,5.23-7.85,7.82-.47.46-.68.93-.67,1.59.03,3.21.02,6.43,0,9.64,0,2.9-1.84,4.73-4.75,4.73-8.73,0-17.46,0-26.19,0-2.86,0-4.7-1.82-4.7-4.7-.01-11.74-.01-23.48,0-35.22C25.15,1.9,27.05,0,29.79,0c6.93,0,13.87-.01,20.8.02.44,0,.99.24,1.31.55,2.82,2.76,5.61,5.55,8.37,8.37.3.3.5.82.51,1.25.05,1.95.01,3.9.01,5.84,0,.27.03.53.04.8.08.05.17.1.25.16ZM58.97,31.19c-.27.24-.48.41-.66.6-1.25,1.25-2.49,2.52-3.76,3.75-.28.27-.63.54-.99.64-2.02.58-4.05,1.1-6.08,1.64-1.09.29-1.6-.24-1.3-1.34.52-1.95,1.02-3.91,1.58-5.86.12-.41.37-.84.67-1.15,3.36-3.4,6.76-6.76,10.12-10.16.28-.28.49-.77.5-1.17.05-2.22,0-4.45.04-6.68,0-.63-.17-.83-.81-.82-2.25.03-4.5.01-6.75.01-1.21,0-1.39-.19-1.39-1.42,0-2.18-.03-4.35.01-6.53.01-.73-.14-1-.95-1-6.4.04-12.8.02-19.2.02-2.02,0-3.09,1.07-3.09,3.09,0,11.66,0,23.32,0,34.98,0,1.92,1.1,3.02,3.01,3.02,3.36,0,6.73,0,10.09,0,5.39,0,10.78,0,16.17,0,1.68,0,2.88-1.07,2.9-2.66.03-2.86.01-5.72,0-8.57,0-.09-.04-.18-.08-.4ZM65.08,22.29c-.91-.88-1.91-1.79-2.84-2.78-.51-.54-.81-.6-1.37-.03-2.88,2.95-5.81,5.84-8.72,8.76-.71.71-1.41,1.43-2.07,2.1,1.23,1.21,2.39,2.36,3.53,3.48,3.76-3.78,7.56-7.6,11.48-11.53ZM51.9,3.29c0,1.75,0,3.43,0,5.12,0,.49.27.51.64.51,1.34,0,2.68,0,4.02,0,.33,0,.66,0,.95,0-1.88-1.89-3.7-3.72-5.59-5.63ZM66.54,21.18c.55-.59,1.09-1.15,1.62-1.73.38-.41.43-.86.02-1.28-.77-.79-1.53-1.61-2.37-2.33-.23-.2-.85-.29-1.06-.12-.69.53-1.27,1.19-1.87,1.78,1.23,1.23,2.38,2.39,3.66,3.68ZM49.13,32.31c-.29,1.12-.58,2.22-.91,3.49,1.29-.36,2.36-.65,3.42-.95-.86-.87-1.64-1.66-2.51-2.55Z"/>
          <path d="M42.97,19.65c3.11,0,6.22,0,9.33,0,.23,0,.52-.07.67.04.27.21.63.52.63.8,0,.28-.33.61-.6.82-.17.13-.49.07-.74.07-6.19,0-12.38,0-18.58,0-.2,0-.41,0-.6-.03-.49-.08-.8-.37-.78-.87.02-.49.31-.79.82-.83.23-.02.45-.01.68-.01,3.06,0,6.12,0,9.17,0Z"/>
          <path d="M42.93,16.01c-3.16,0-6.32.02-9.47-.02-.37,0-.84-.23-1.06-.51-.34-.44.05-1.07.64-1.17.27-.04.55-.03.83-.03,6.09,0,12.18,0,18.26,0,.15,0,.3,0,.45,0,.59-.02,1.03.22,1.04.84.01.67-.46.89-1.07.89-3.21,0-6.42,0-9.62,0Z"/>
          <path d="M39.86,26.74c-2.1,0-4.2,0-6.3,0-.25,0-.57.03-.73-.11-.24-.21-.52-.55-.5-.82.02-.27.35-.56.61-.75.16-.11.44-.06.67-.06,4.17,0,8.34,0,12.51,0,.05,0,.1,0,.15,0,.6-.01,1.09.16,1.09.86,0,.69-.47.89-1.07.89-1.06,0-2.12,0-3.19,0-1.09,0-2.17,0-3.26,0h0Z"/>
          <path d="M38.04,32.08c-1.54,0-3.08,0-4.62,0-.6,0-1.1-.18-1.11-.85-.01-.68.47-.88,1.08-.88,3.11,0,6.22,0,9.32,0,.59,0,1.08.12,1.1.84.02.59-.35.88-1.14.88-1.54,0-3.08,0-4.62,0,0,0,0,0,0,0Z"/>
        </g>
      </g>
      <g>
        <path d="M5.7,61.65c-.81,0-1.46-.23-1.95-.7-.49-.46-.75-1-.78-1.62h1.45c.05.31.2.56.43.73s.52.25.85.25c.3,0,.54-.06.73-.19s.28-.31.28-.52c0-.39-.32-.68-.95-.86l-.75-.22c-.58-.17-1.03-.43-1.36-.78-.33-.35-.49-.79-.5-1.32,0-.65.22-1.16.65-1.53.43-.38,1.01-.57,1.73-.57s1.32.22,1.77.66.69.94.72,1.5h-1.44c-.07-.28-.21-.49-.4-.62-.19-.13-.41-.2-.65-.2-.27,0-.49.06-.66.17s-.26.28-.26.48c0,.21.06.39.21.52.15.13.37.24.68.33l.83.23c1.23.34,1.84,1.06,1.84,2.15,0,.61-.23,1.12-.68,1.52-.46.4-1.05.6-1.79.6Z"/>
        <path d="M11.17,61.53v-2.99l-2.62-4.11h1.68l1.66,2.69,1.67-2.69h1.69l-2.63,4.12v2.98h-1.45Z"/>
        <path d="M16.34,54.43h1.32l2.31,3.17,2.31-3.17h1.32v7.1h-1.45v-4.62l-2.18,2.99-2.18-2.99v4.62h-1.45v-7.1Z"/>
        <path d="M29.52,55.12c.47.46.71,1.02.71,1.71s-.24,1.25-.71,1.71c-.47.46-1.07.69-1.78.69h-.91v2.32h-1.45v-7.1h2.36c.71,0,1.31.23,1.78.69ZM28.52,57.56c.2-.19.3-.44.3-.74s-.1-.55-.3-.74c-.2-.19-.47-.29-.8-.29h-.89v2.06h.89c.33,0,.6-.1.8-.29Z"/>
        <path d="M32.8,61.53v-5.72h-1.89v-1.38h5.26v1.38h-1.91v5.72h-1.46Z"/>
        <path d="M42.92,60.58c-.72.72-1.58,1.08-2.59,1.08s-1.88-.36-2.59-1.08c-.72-.72-1.08-1.58-1.08-2.59s.36-1.88,1.08-2.6c.72-.72,1.58-1.08,2.59-1.08s1.88.36,2.59,1.08c.72.72,1.08,1.58,1.08,2.6s-.36,1.88-1.08,2.59ZM38.76,59.59c.43.44.95.67,1.57.67s1.13-.22,1.57-.67c.43-.44.64-.98.64-1.6s-.21-1.16-.64-1.6c-.43-.44-.95-.67-1.57-.67s-1.13.22-1.57.67c-.43.44-.64.98-.64,1.6s.21,1.16.64,1.6ZM38.59,53.9v-1.09l1.74-.73,1.74.73v1.09l-1.74-.72-1.74.72Z"/>
        <path d="M45.36,54.43h1.32l2.31,3.17,2.31-3.17h1.32v7.1h-1.45v-4.62l-2.18,2.99-2.18-2.99v4.62h-1.45v-7.1Z"/>
        <path d="M54.4,61.53v-7.1h4.42v1.38h-2.97v1.46h2.37v1.38h-2.37v1.5h2.97v1.38h-4.42Z"/>
        <path d="M62.56,61.65c-.81,0-1.46-.23-1.95-.7-.49-.46-.75-1-.78-1.62h1.45c.05.31.2.56.43.73s.52.25.85.25c.3,0,.54-.06.73-.19s.28-.31.28-.52c0-.39-.32-.68-.95-.86l-.75-.22c-.58-.17-1.03-.43-1.36-.78-.33-.35-.49-.79-.5-1.32,0-.65.22-1.16.65-1.53.43-.38,1.01-.57,1.73-.57s1.32.22,1.77.66.69.94.72,1.5h-1.44c-.07-.28-.21-.49-.4-.62-.19-.13-.41-.2-.65-.2-.27,0-.49.06-.66.17s-.26.28-.26.48c0,.21.06.39.21.52.15.13.37.24.68.33l.83.23c1.23.34,1.84,1.06,1.84,2.15,0,.61-.23,1.12-.68,1.52-.46.4-1.05.6-1.79.6Z"/>
        <path d="M68.89,61.53v-7.1h4.42v1.38h-2.97v1.46h2.37v1.38h-2.37v1.5h2.97v1.38h-4.42Z"/>
        <path d="M76.08,61.53v-5.72h-1.89v-1.38h5.26v1.38h-1.91v5.72h-1.46Z"/>
        <path d="M0,73.53v-7.1h1.45v2.83h3.08v-2.83h1.45v7.1h-1.45v-2.89H1.45v2.89H0Z"/>
        <path d="M7.76,73.53v-7.1h1.45v7.1h-1.45Z"/>
        <path d="M13.27,73.65c-.81,0-1.46-.23-1.95-.7-.49-.46-.75-1-.78-1.62h1.45c.05.31.2.56.43.73s.52.25.85.25c.3,0,.54-.06.73-.19s.28-.31.28-.52c0-.39-.32-.68-.95-.86l-.75-.22c-.58-.17-1.03-.43-1.36-.78-.33-.35-.49-.79-.5-1.32,0-.65.22-1.16.65-1.53.43-.38,1.01-.57,1.73-.57s1.32.22,1.77.66.69.94.72,1.5h-1.44c-.07-.28-.21-.49-.4-.62-.19-.13-.41-.2-.65-.2-.27,0-.49.06-.66.17s-.26.28-.26.48c0,.21.06.39.21.52.15.13.37.24.68.33l.83.23c1.23.34,1.84,1.06,1.84,2.15,0,.61-.23,1.12-.68,1.52-.46.4-1.05.6-1.79.6Z"/>
        <path d="M18.28,73.53v-5.72h-1.89v-1.38h5.26v1.38h-1.91v5.72h-1.46Z"/>
        <path d="M28.4,72.58c-.72.72-1.58,1.08-2.59,1.08s-1.88-.36-2.59-1.08c-.72-.72-1.08-1.58-1.08-2.59s.36-1.88,1.08-2.6c.72-.72,1.58-1.08,2.59-1.08s1.88.36,2.59,1.08c.72.72,1.08,1.58,1.08,2.6s-.36,1.88-1.08,2.59ZM24.24,71.59c.43.44.95.67,1.57.67s1.13-.22,1.57-.67c.43-.44.64-.98.64-1.6s-.21-1.16-.64-1.6c-.43-.44-.95-.67-1.57-.67s-1.13.22-1.57.67c-.43.44-.64.98-.64,1.6s.21,1.16.64,1.6Z"/>
        <path d="M30.84,73.53v-7.1h1.45v7.1h-1.45Z"/>
        <path d="M34.07,73.53v-7.1h2.72c.65,0,1.17.2,1.58.6s.61.9.61,1.5c0,.93-.49,1.55-1.46,1.85l2.55,3.15h-1.75l-2.44-2.99h-.35v2.99h-1.45ZM35.52,69.3h1.1c.28,0,.5-.07.67-.21s.25-.32.25-.56-.08-.43-.25-.56-.38-.21-.67-.21h-1.1v1.54Z"/>
        <path d="M40.83,73.53v-7.1h4.42v1.38h-2.97v1.46h2.37v1.38h-2.37v1.5h2.97v1.38h-4.42Z"/>
        <path d="M49.19,73.53v-7.1h2.34c1.02,0,1.88.34,2.59,1.03.71.69,1.06,1.53,1.06,2.52s-.35,1.83-1.06,2.52c-.71.69-1.57,1.03-2.59,1.03h-2.34ZM50.64,72.2h.89c.65,0,1.17-.21,1.58-.64.41-.43.61-.95.61-1.58s-.2-1.15-.61-1.58-.93-.64-1.58-.64h-.89v4.44Z"/>
        <path d="M56.55,73.53v-7.1h4.42v1.38h-2.97v1.46h2.37v1.38h-2.37v1.5h2.97v1.38h-4.42Z"/>
        <path d="M68.22,73.65c-1.07,0-1.95-.35-2.66-1.06-.71-.71-1.06-1.58-1.06-2.61s.35-1.9,1.06-2.61c.71-.71,1.59-1.06,2.66-1.06.81,0,1.53.24,2.18.71.64.47,1.06,1.08,1.26,1.83h-1.57c-.14-.35-.38-.62-.73-.83-.35-.21-.73-.31-1.14-.31-.67,0-1.21.22-1.63.65s-.63.97-.63,1.62.21,1.19.63,1.62c.42.43.96.65,1.63.65.41,0,.79-.1,1.14-.31.35-.21.59-.48.73-.83h1.57c-.2.75-.62,1.36-1.26,1.83-.64.47-1.37.71-2.18.71Z"/>
        <path d="M71.94,73.53l3.06-7.1h1.29l3.07,7.1h-1.52l-.69-1.62h-3.03l-.68,1.62h-1.5ZM75.64,68.34l-.98,2.3h1.95l-.97-2.3Z"/>
        <path d="M82.4,73.65c-.81,0-1.46-.23-1.95-.7-.49-.46-.75-1-.78-1.62h1.45c.05.31.2.56.43.73s.52.25.85.25c.3,0,.54-.06.73-.19s.28-.31.28-.52c0-.39-.32-.68-.95-.86l-.75-.22c-.58-.17-1.03-.43-1.36-.78-.33-.35-.49-.79-.5-1.32,0-.65.22-1.16.65-1.53.43-.38,1.01-.57,1.73-.57s1.32.22,1.77.66.69.94.72,1.5h-1.44c-.07-.28-.21-.49-.4-.62-.19-.13-.41-.2-.65-.2-.27,0-.49.06-.66.17s-.26.28-.26.48c0,.21.06.39.21.52.15.13.37.24.68.33l.83.23c1.23.34,1.84,1.06,1.84,2.15,0,.61-.23,1.12-.68,1.52-.46.4-1.05.6-1.79.6Z"/>
      </g>
    </g>
  </g>
</svg>