<?xml version="1.0" encoding="UTF-8"?>
<svg id="Layer_2" data-name="Layer 2" xmlns="http://www.w3.org/2000/svg" viewBox="0 0 69.42 52.55">
  <g id="Icons">
    <g>
      <g>
        <path d="M1.89,42.43v-5.72H0v-1.38h5.26v1.38h-1.91v5.72h-1.46Z"/>
        <path d="M6.46,42.43v-7.1h2.72c.65,0,1.17.2,1.58.6s.61.9.61,1.5c0,.93-.49,1.55-1.46,1.85l2.55,3.15h-1.75l-2.44-2.99h-.35v2.99h-1.45ZM7.91,38.2h1.1c.28,0,.5-.07.67-.21s.25-.32.25-.56-.08-.43-.25-.56-.38-.21-.67-.21h-1.1v1.54Z"/>
        <path d="M12.44,42.43l3.06-7.1h1.29l3.07,7.1h-1.52l-.69-1.62h-3.03l-.68,1.62h-1.5ZM16.14,37.24l-.98,2.3h1.95l-.97-2.3Z"/>
        <path d="M20.85,42.43v-7.1h1.45v7.1h-1.45Z"/>
        <path d="M25.39,42.43v-5.72h-1.89v-1.38h5.26v1.38h-1.91v5.72h-1.46Z"/>
        <path d="M29.96,42.43v-7.1h4.42v1.38h-2.97v1.46h2.37v1.38h-2.37v1.5h2.97v1.38h-4.42Z"/>
        <path d="M35.84,35.33h1.32l2.31,3.17,2.31-3.17h1.32v7.1h-1.45v-4.62l-2.18,2.99-2.18-2.99v4.62h-1.45v-7.1Z"/>
        <path d="M44.88,42.43v-7.1h4.42v1.38h-2.97v1.46h2.37v1.38h-2.37v1.5h2.97v1.38h-4.42Z"/>
        <path d="M57.1,42.43h-1.25l-3.64-4.63v4.63h-1.45v-7.1h1.25l3.64,4.63v-4.63h1.45v7.1Z"/>
        <path d="M60.19,42.43v-5.72h-1.89v-1.38h5.26v1.38h-1.91v5.72h-1.46Z"/>
        <path d="M66.95,42.55c-.81,0-1.46-.23-1.95-.7-.49-.46-.75-1-.78-1.62h1.45c.05.31.2.56.43.73s.52.25.85.25c.3,0,.54-.06.73-.19s.28-.31.28-.52c0-.39-.32-.68-.95-.86l-.75-.22c-.58-.17-1.03-.43-1.36-.78-.33-.35-.49-.79-.5-1.32,0-.65.22-1.16.65-1.53.43-.38,1.01-.57,1.73-.57s1.32.22,1.77.66.69.94.72,1.5h-1.44c-.07-.28-.21-.49-.4-.62-.19-.13-.41-.2-.65-.2-.27,0-.49.06-.66.17s-.26.28-.26.48c0,.21.06.39.21.52.15.13.37.24.68.33l.83.23c1.23.34,1.84,1.06,1.84,2.15,0,.61-.23,1.12-.68,1.52-.46.4-1.05.6-1.79.6Z"/>
        <path d="M4.91,52.43v-7.1h4.42v1.38h-2.97v1.46h2.37v1.38h-2.37v1.5h2.97v1.38h-4.42Z"/>
        <path d="M17.12,52.43h-1.25l-3.64-4.63v4.63h-1.45v-7.1h1.25l3.64,4.63v-4.63h1.45v7.1Z"/>
        <path d="M24.69,52.55c-1.07,0-1.95-.35-2.66-1.06-.71-.71-1.06-1.58-1.06-2.61s.35-1.9,1.06-2.61c.71-.71,1.59-1.06,2.66-1.06.81,0,1.53.24,2.18.71.64.47,1.06,1.08,1.26,1.83h-1.57c-.14-.35-.38-.62-.73-.83-.35-.21-.73-.31-1.14-.31-.67,0-1.21.22-1.63.65s-.63.97-.63,1.62.21,1.19.63,1.62c.42.43.96.65,1.63.65.41,0,.79-.1,1.14-.31.35-.21.59-.48.73-.83h1.57c-.2.75-.62,1.36-1.26,1.83-.64.47-1.37.71-2.18.71Z"/>
        <path d="M28.42,52.43l3.06-7.1h1.29l3.07,7.1h-1.52l-.69-1.62h-3.03l-.68,1.62h-1.5ZM32.12,47.24l-.98,2.3h1.95l-.97-2.3Z"/>
        <path d="M36.83,52.43v-7.1h2.6c.59,0,1.09.2,1.5.6.41.4.61.89.61,1.46,0,.51-.19.94-.56,1.27.7.35,1.05.91,1.05,1.68,0,.59-.21,1.09-.63,1.49s-.94.6-1.57.6h-3ZM38.28,48.24h1.01c.25,0,.46-.08.61-.23s.23-.34.23-.56-.08-.41-.23-.56c-.16-.16-.36-.23-.61-.23h-1.01v1.59ZM38.28,51.1h1.45c.27,0,.49-.07.65-.23.16-.15.24-.34.24-.58s-.08-.44-.24-.59-.38-.23-.65-.23h-1.45v1.63Z"/>
        <path d="M43.37,52.43v-7.1h1.45v7.1h-1.45Z"/>
        <path d="M52.93,52.43h-1.25l-3.64-4.63v4.63h-1.45v-7.1h1.25l3.64,4.63v-4.63h1.45v7.1Z"/>
        <path d="M54.71,52.43v-7.1h4.42v1.38h-2.97v1.46h2.37v1.38h-2.37v1.5h2.97v1.38h-4.42Z"/>
        <path d="M61.9,52.43v-5.72h-1.89v-1.38h5.26v1.38h-1.91v5.72h-1.46Z"/>
      </g>
      <g>
        <g id="a0Abqb">
          <path d="M29.71,26.97c.8-2,1.6-3.9,2.5-5.8.8-1.9,1.6-3.9,2.5-5.8h-4.6c.1-.3.2-.5.3-.8,1.4-3.5,2.8-6.9,4.1-10.4.1-.2.2-.2.4-.2h4.6c-1.1,2.7-2.2,5.3-3.3,8h4.8c-.1.1-.1.2-.2.2-1.8,2.5-3.7,5-5.5,7.5-1.8,2.4-3.6,4.8-5.3,7.2-.1,0-.1.2-.3.1h0Z"/>
        </g>
        <path d="M34.71,28.47c-6.3-.2-12.1-2.2-17.5-5.3-3.6-2-6.9-4.3-9.8-7.3-1.4-1.5-1.4-2,0-3.4,4.3-4.1,9.1-7.3,14.5-9.7,9.2-4,18.4-3.6,27.4.8,4.8,2.3,9.1,5.3,12.9,9,1.3,1.3,1.4,1.9.1,3.1-6,5.6-12.7,9.9-20.8,11.8-2.2.6-4.6.7-6.8,1h0ZM34.71,25.67c6.1.1,11.5-5,11.6-11.1.1-6.4-4.9-11.7-11.2-11.8-6.4-.1-11.6,4.9-11.8,11.3-.1,6.2,5,11.5,11.4,11.6h0ZM23.91,23.37c-4.3-6-4.2-12.1-.1-18.2-5.4,2.1-10,5.2-14.3,9.2,4.3,3.9,9,7,14.4,9h0ZM45.81,23.37c5.3-2.1,10-5.2,14.2-9.1-4.2-3.9-8.9-7-14.2-9,4.2,6,4.2,12,0,18.1h0Z"/>
      </g>
    </g>
  </g>
</svg>