<?xml version="1.0" encoding="UTF-8"?>
<svg id="Layer_2" data-name="Layer 2" xmlns="http://www.w3.org/2000/svg" viewBox="0 0 62.05 69">
  <defs>
    <style>
      .cls-1, .cls-2 {
        fill: none;
        stroke: #000;
        stroke-miterlimit: 10;
        stroke-width: 1.81px;
      }

      .cls-2 {
        stroke-linecap: round;
      }
    </style>
  </defs>
  <g id="Icons">
    <g>
      <g>
        <path d="M8.93,59v-7.1h1.45v2.83h3.08v-2.83h1.45v7.1h-1.45v-2.89h-3.08v2.89h-1.45Z"/>
        <path d="M18.62,59v-2.99l-2.62-4.11h1.68l1.66,2.69,1.67-2.69h1.69l-2.63,4.12v2.98h-1.45Z"/>
        <path d="M26.54,59.12c-1.07,0-1.96-.35-2.67-1.06s-1.07-1.58-1.07-2.61.35-1.9,1.06-2.61c.71-.71,1.59-1.06,2.66-1.06.75,0,1.43.21,2.06.62.62.41,1.05.94,1.29,1.6h-1.66c-.17-.25-.41-.45-.71-.6-.3-.15-.63-.22-.98-.22-.67,0-1.21.22-1.63.65s-.63.97-.63,1.62.21,1.19.63,1.62c.42.43.97.65,1.65.65.57,0,1.02-.14,1.37-.43.34-.28.55-.68.63-1.19h-2.17v-1.36h3.67c.08.71.04,1.34-.11,1.91-.15.57-.4,1.02-.73,1.38-.33.35-.73.62-1.18.8-.45.19-.95.28-1.48.28Z"/>
        <path d="M31.46,59v-7.1h1.45v7.1h-1.45Z"/>
        <path d="M34.69,59v-7.1h4.42v1.38h-2.97v1.46h2.37v1.38h-2.37v1.5h2.97v1.38h-4.42ZM37.35,51.3h-1.03l-1.23-1.57h1.54l.72,1.57Z"/>
        <path d="M46.91,59h-1.25l-3.64-4.63v4.63h-1.45v-7.1h1.25l3.64,4.63v-4.63h1.45v7.1Z"/>
        <path d="M48.69,59v-7.1h4.42v1.38h-2.97v1.46h2.37v1.38h-2.37v1.5h2.97v1.38h-4.42Z"/>
        <path d="M4.14,62.59c.47.46.71,1.02.71,1.71s-.24,1.25-.71,1.71c-.47.46-1.07.69-1.78.69h-.91v2.32H0v-7.1h2.36c.71,0,1.31.23,1.78.69ZM3.14,65.03c.2-.19.3-.44.3-.74s-.1-.55-.3-.74c-.2-.19-.47-.29-.8-.29h-.89v2.06h.89c.33,0,.6-.1.8-.29Z"/>
        <path d="M4.88,69l3.06-7.1h1.29l3.07,7.1h-1.52l-.69-1.62h-3.03l-.68,1.62h-1.5ZM8.58,63.81l-.98,2.3h1.95l-.97-2.3Z"/>
        <path d="M13.29,69v-7.1h1.45v5.72h3.04v1.38h-4.49Z"/>
        <path d="M23.14,62.59c.47.46.71,1.02.71,1.71s-.24,1.25-.71,1.71c-.47.46-1.07.69-1.78.69h-.91v2.32h-1.45v-7.1h2.36c.71,0,1.31.23,1.78.69ZM22.14,65.03c.2-.19.3-.44.3-.74s-.1-.55-.3-.74c-.2-.19-.47-.29-.8-.29h-.89v2.06h.89c.33,0,.6-.1.8-.29Z"/>
        <path d="M25.11,69v-7.1h4.42v1.38h-2.97v1.46h2.37v1.38h-2.37v1.5h2.97v1.38h-4.42ZM26.87,61.3l.72-1.57h1.54l-1.23,1.57h-1.03Z"/>
        <path d="M30.99,69v-7.1h2.6c.59,0,1.09.2,1.5.6.41.4.61.89.61,1.46,0,.51-.19.94-.56,1.27.7.35,1.05.91,1.05,1.68,0,.59-.21,1.09-.63,1.49s-.94.6-1.57.6h-3ZM32.44,64.81h1.01c.25,0,.46-.08.61-.23s.23-.34.23-.56-.08-.41-.23-.56c-.16-.16-.36-.23-.61-.23h-1.01v1.59ZM32.44,67.67h1.45c.27,0,.49-.07.65-.23.16-.15.24-.34.24-.58s-.08-.44-.24-.59-.38-.23-.65-.23h-1.45v1.63Z"/>
        <path d="M37.53,69v-7.1h2.72c.65,0,1.17.2,1.58.6s.61.9.61,1.5c0,.93-.49,1.55-1.46,1.85l2.55,3.15h-1.75l-2.44-2.99h-.35v2.99h-1.45ZM38.98,64.77h1.1c.28,0,.5-.07.67-.21s.25-.32.25-.56-.08-.43-.25-.56-.38-.21-.67-.21h-1.1v1.54Z"/>
        <path d="M43.51,69l3.06-7.1h1.29l3.07,7.1h-1.52l-.69-1.62h-3.03l-.68,1.62h-1.5ZM47.21,63.81l-.98,2.3h1.95l-.97-2.3Z"/>
        <path d="M51.92,69v-7.1h1.45v5.72h3.04v1.38h-4.49Z"/>
        <path d="M57.63,69v-7.1h4.42v1.38h-2.97v1.46h2.37v1.38h-2.37v1.5h2.97v1.38h-4.42Z"/>
      </g>
      <g>
        <g id="vQDaor">
          <g>
            <path d="M32.76,3.8c.5,4.7,3.2,8,6.6,10.9-4-1.5-6.6-4.5-8.1-8.5-.4.4-.6.8-.9,1.1-3.4,4-7.8,6.7-12.7,8.7-2.6,1-5.3,1.7-8.1,1.9-.7.1-.8.3-.8,1,.5,6.7,2.7,12.8,6.7,18.1,1.4,1.9,3.1,3.5,5.3,4.6,4.3,2,8.2,1.4,11.9-1.3,1.9-1.4,3.4-3.2,4.8-5.1.2-.2.3-.5.6-.8,0,.2.1.3,0,.3-2,4.2-4.9,7.5-9.4,8.9-4.7,1.5-8.8.2-12.5-3-3-2.6-5-6-6.5-9.6-1.7-3.9-2.8-8.1-3-12.4-.4-7.8,4.1-14.4,11.6-17.3,8-3.1,17.1-.5,22.2,6.2,1.6,2.1,2.7,4.5,3.1,7.2.1.8-.1,1.6-.2,2.3,0,.2-.3.4-.4.6-.2-.2-.4-.3-.5-.5-.3-.7-.6-1.5-.8-2.2-1.1-5-4-8.6-8.4-11-.1-.1-.3-.1-.5-.1q.2,0,0,0ZM8.86,16.1c.6-.1.9-.1,1.3-.1,5.2-.7,9.9-2.6,14.1-5.7,2.4-1.7,4.6-3.7,6.1-6.3.2-.3.3-.7.5-1.2-5.7-1.6-10.9-1-15.6,2.4-3.6,2.7-5.8,6.3-6.4,10.9Z"/>
            <circle cx="19.06" cy="23.7" r="1.8"/>
            <g id="ToAuOY">
              <path d="M36.36,31.2c-.4-.2-.7-.3-1.1-.4-1.8-.7-3.5-1.4-5.3-2.1-1.9-.7-2.2-2.6-.8-4,0,0,.1-.1.1-.2-.7-.8-1-1.8-.5-2.8s1.5-1.4,2.7-1.2c0-1,.3-1.9,1.2-2.4s1.8-.3,2.7.2c0-.2.1-.3.1-.5.2-1.3,1.5-2,2.7-1.5,3.1,1.2,6.2,2.5,9.2,3.7,1.5.6,3,1.4,4.1,2.6,1.3,1.3,2.7,2.2,4.4,2.7.3.1.6.2.8.3.4.2.5.4.3.8,0,.1-.1.2-.1.3-1.2,3-2.4,6.1-3.6,9.1-.3.8-.5.8-1.2.5-.9-.4-1.8-.7-2.7-1.1-.2-.1-.4-.4-.5-.6-.1-.3-.6-.5-.8-.3-2,1.9-4.4,1.9-6.9,1.4-1.4-.3-2.7-.1-4,.2-.5.1-1.1.3-1.6.4-.6.1-1-.1-1.3-.6-.6-1-.3-2.4.6-3.3.4-.5,1-.8,1.5-1.2ZM42.86,19.3h0c-1.7-.7-3.4-1.4-5.1-2-.5-.2-.9,0-1.1.5-.2.5,0,1,.4,1.2,1.1.4,2.1.9,3.2,1.3.1,0,.2.1.4.2.3.2.4.4.3.7-.1.3-.4.4-.7.3-.1,0-.3-.1-.4-.2-1.8-.7-3.7-1.5-5.5-2.2-.7-.3-1.3,0-1.6.6s0,1.2.7,1.6c.2.1.3.1.5.2,1.5.6,3.1,1.2,4.6,1.9.6.2.7.5.6.9-.2.4-.5.4-1,.2-.1,0-.2-.1-.3-.1-2-.8-4.1-1.6-6.1-2.5-.1,0-.2-.1-.4-.1-.6-.2-1.2.1-1.4.6-.3.6-.1,1.2.5,1.5.2.1.4.2.5.2,2.1.8,4.2,1.7,6.3,2.5.1,0,.2.1.4.2.3.1.5.4.3.7-.1.3-.4.4-.7.3-.2,0-.3-.1-.5-.2-1.8-.7-3.6-1.5-5.4-2.2-.6-.2-1.2-.1-1.5.4s-.2,1.1.2,1.5c.2.2.4.3.6.4,3.1,1.2,6.2,2.5,9.3,3.7.6.2,1,.6,1.3,1.2.2.4.2.7-.2.9s-.6,0-.8-.3c-.2-.2-.4-.5-.6-.7-1.2-.6-3.1-.2-3.9.8-.3.4-.5.9-.5,1.4,0,.3.2.5.6.4.3-.1.7-.2,1.1-.3,1.6-.5,3.3-.7,5-.2.4.1.9.1,1.3.1,1.7,0,3.4-.3,4.6-1.7.1-.1.5-.2.7-.2s.4.1.6.2c.4.2.5.1.7-.3.8-2.1,1.7-4.3,2.6-6.4.2-.4.5-.9.4-1.3-.1-.4-.6-.6-.9-.9-1.6-1.6-3.4-2.7-5.4-3.5-1.5-.4-2.6-.9-3.7-1.3ZM52.26,35q.1-.1,0,0c1.2-2.8,2.3-5.6,3.4-8.3.1-.2,0-.4-.2-.5-.4-.2-.9-.3-1.3-.5-.4-.2-.6-.1-.7.3-.9,2.3-1.8,4.6-2.7,6.8-.1.3-.3.7-.4,1,0,.1,0,.4.1.4.6.4,1.2.6,1.8.8Z"/>
            </g>
            <polyline class="cls-1" points="37.06 16.5 26.26 16.5 26.26 29.6 33.56 29.6"/>
          </g>
        </g>
        <path class="cls-2" d="M29.56,35.6s-6.2,2.9-7.7-2.2"/>
      </g>
    </g>
  </g>
</svg>