<?xml version="1.0" encoding="UTF-8"?>
<svg data-name="Layer 2" xmlns="http://www.w3.org/2000/svg" viewBox="0 0 57.6 50.83">
  <defs>
    <style>
      .cls-1 {
        fill: none;
      }
    </style>
  </defs>
  <g id="Icons">
    <g>
      <g>
        <g>
          <circle class="cls-1" cx="22.88" cy="11.06" r="9.46"/>
          <circle cx="22.88" cy="11.06" r="3.61"/>
        </g>
        <path d="M22.8,22.12c-4.93-.2-9.41-1.75-13.64-4.11-2.79-1.56-5.4-3.37-7.64-5.69-1.1-1.15-1.1-1.53.04-2.62,3.33-3.17,7.08-5.72,11.31-7.54,7.2-3.11,14.31-2.8,21.33.59,3.73,1.8,7.08,4.16,10.08,7.01,1.04.99,1.07,1.46.04,2.42-4.66,4.37-9.92,7.73-16.22,9.18-1.73.4-3.53.52-5.3.77ZM22.79,19.92c4.77.08,8.93-3.91,9.02-8.66.1-4.98-3.84-9.13-8.72-9.2-4.97-.07-9.07,3.85-9.16,8.78-.09,4.9,3.91,9,8.86,9.09ZM14.34,18.11c-3.32-4.72-3.29-9.42-.09-14.19-4.2,1.65-7.79,4.08-11.14,7.14,3.37,3.11,7.04,5.47,11.23,7.05ZM31.45,18.07c4.14-1.63,7.75-4.03,11.1-7.09-3.31-3.02-6.9-5.44-11.06-7.05,3.24,4.74,3.22,9.43-.03,14.14Z"/>
        <path d="M36.2,10.63c1.29,0,1.29-2,0-2s-1.29,2,0,2h0Z"/>
        <path d="M38.95,12.67c1.29,0,1.29-2,0-2s-1.29,2,0,2h0Z"/>
        <path d="M6.76,11.99c1.29,0,1.29-2,0-2s-1.29,2,0,2h0Z"/>
        <path d="M9.64,10.31c1.29,0,1.29-2,0-2s-1.29,2,0,2h0Z"/>
        <path d="M35.97,14.03c1.29,0,1.29-2,0-2s-1.29,2,0,2h0Z"/>
        <path d="M9.64,13.77c1.29,0,1.29-2,0-2s-1.29,2,0,2h0Z"/>
      </g>
      <g>
        <path d="M3.16,33.83c-.91,0-1.66-.3-2.26-.9s-.9-1.34-.9-2.22.3-1.62.9-2.22,1.35-.9,2.26-.9c.69,0,1.3.2,1.85.6s.91.92,1.08,1.56h-1.33c-.12-.29-.33-.53-.62-.71-.3-.18-.62-.26-.96-.26-.57,0-1.03.18-1.39.55-.36.37-.54.83-.54,1.38s.18,1.01.54,1.38c.36.37.82.55,1.39.55.35,0,.67-.09.96-.26.3-.18.5-.41.62-.71h1.33c-.17.64-.53,1.16-1.08,1.56-.55.4-1.16.6-1.85.6Z"/>
        <path d="M12.12,32.91c-.61.61-1.34.91-2.21.91s-1.6-.3-2.21-.91c-.61-.61-.91-1.34-.91-2.21s.3-1.6.91-2.21c.61-.61,1.34-.91,2.21-.91s1.6.3,2.21.91c.61.61.91,1.34.91,2.21s-.3,1.6-.91,2.21ZM8.58,32.07c.37.38.81.57,1.33.57s.96-.19,1.33-.57c.37-.38.55-.83.55-1.36s-.18-.99-.55-1.36c-.37-.38-.81-.56-1.33-.56s-.96.19-1.33.56c-.37.38-.55.83-.55,1.36s.18.99.55,1.36Z"/>
        <path d="M14.19,33.72v-6.04h1.23v4.86h2.58v1.17h-3.82Z"/>
        <path d="M23.72,32.91c-.61.61-1.34.91-2.21.91s-1.6-.3-2.21-.91c-.61-.61-.91-1.34-.91-2.21s.3-1.6.91-2.21c.61-.61,1.34-.91,2.21-.91s1.6.3,2.21.91c.61.61.91,1.34.91,2.21s-.3,1.6-.91,2.21ZM20.18,32.07c.37.38.81.57,1.33.57s.96-.19,1.33-.57c.37-.38.55-.83.55-1.36s-.18-.99-.55-1.36c-.37-.38-.81-.56-1.33-.56s-.96.19-1.33.56c-.37.38-.55.83-.55,1.36s.18.99.55,1.36Z"/>
        <path d="M25.79,33.72v-6.04h2.31c.55,0,1,.17,1.34.51.34.34.51.77.51,1.27,0,.79-.41,1.32-1.24,1.57l2.17,2.68h-1.49l-2.07-2.54h-.3v2.54h-1.23ZM27.02,30.13h.93c.24,0,.43-.06.57-.17s.21-.28.21-.48-.07-.36-.21-.48c-.14-.12-.33-.17-.57-.17h-.93v1.31Z"/>
        <path d="M30.87,33.72l2.6-6.04h1.1l2.61,6.04h-1.29l-.59-1.38h-2.58l-.58,1.38h-1.27ZM34.02,29.31l-.83,1.96h1.66l-.82-1.96Z"/>
        <path d="M38.55,33.72v-4.86h-1.61v-1.17h4.47v1.17h-1.62v4.86h-1.24Z"/>
        <path d="M42.43,33.72v-6.04h1.23v6.04h-1.23Z"/>
        <path d="M50.15,32.91c-.61.61-1.34.91-2.21.91s-1.6-.3-2.21-.91c-.61-.61-.91-1.34-.91-2.21s.3-1.6.91-2.21c.61-.61,1.34-.91,2.21-.91s1.6.3,2.21.91c.61.61.91,1.34.91,2.21s-.3,1.6-.91,2.21ZM46.61,32.07c.37.38.81.57,1.33.57s.96-.19,1.33-.57c.37-.38.55-.83.55-1.36s-.18-.99-.55-1.36c-.37-.38-.81-.56-1.33-.56s-.96.19-1.33.56c-.37.38-.55.83-.55,1.36s.18.99.55,1.36Z"/>
        <path d="M57.6,33.72h-1.06l-3.09-3.94v3.94h-1.23v-6.04h1.06l3.09,3.94v-3.94h1.23v6.04Z"/>
        <path d="M3.33,42.22l2.6-6.04h1.1l2.61,6.04h-1.29l-.59-1.38h-2.58l-.58,1.38h-1.27ZM6.48,37.81l-.83,1.96h1.66l-.82-1.96Z"/>
        <path d="M12.64,42.33c-.73,0-1.32-.23-1.78-.68-.45-.45-.68-1.05-.68-1.8v-3.66h1.23v3.67c0,.4.11.71.33.93.22.23.52.34.89.34s.67-.11.89-.34c.22-.23.33-.54.33-.93v-3.67h1.23v3.66c0,.74-.23,1.34-.69,1.8s-1.05.68-1.77.68Z"/>
        <path d="M20.24,42.22l-2.49-6.04h1.33l1.71,4.19,1.68-4.19h1.36l-2.5,6.04h-1.1Z"/>
        <path d="M24.69,42.22v-6.04h3.76v1.17h-2.52v1.24h2.01v1.17h-2.01v1.28h2.52v1.17h-3.76Z"/>
        <path d="M29.69,42.22v-6.04h2.31c.55,0,1,.17,1.34.51.34.34.51.77.51,1.27,0,.79-.41,1.32-1.24,1.57l2.17,2.68h-1.49l-2.07-2.54h-.3v2.54h-1.23ZM30.92,38.63h.93c.24,0,.43-.06.57-.17s.21-.28.21-.48-.07-.36-.21-.48c-.14-.12-.33-.17-.57-.17h-.93v1.31Z"/>
        <path d="M36.37,42.22v-4.86h-1.61v-1.17h4.47v1.17h-1.62v4.86h-1.24Z"/>
        <path d="M42.11,42.22v-6.04h1.99c.87,0,1.6.29,2.2.88.6.58.9,1.3.9,2.14s-.3,1.56-.9,2.14-1.33.88-2.2.88h-1.99ZM43.34,41.09h.76c.55,0,1-.18,1.34-.54.34-.36.52-.81.52-1.34s-.17-.98-.52-1.34c-.35-.36-.79-.54-1.34-.54h-.76v3.77Z"/>
        <path d="M48.37,42.22v-6.04h3.76v1.17h-2.52v1.24h2.01v1.17h-2.01v1.28h2.52v1.17h-3.76Z"/>
        <path d="M6.4,50.72v-6.04h1.23v4.86h2.58v1.17h-3.82Z"/>
        <path d="M11.25,50.72v-6.04h1.23v6.04h-1.23Z"/>
        <path d="M15.94,50.83c-.69,0-1.24-.2-1.66-.59-.42-.39-.64-.85-.66-1.38h1.23c.04.27.17.47.37.62s.44.22.72.22c.25,0,.46-.06.62-.17.16-.11.24-.26.24-.45,0-.33-.27-.58-.81-.73l-.64-.19c-.49-.14-.88-.36-1.16-.66-.28-.3-.42-.67-.42-1.12,0-.55.18-.98.55-1.3s.86-.48,1.47-.48,1.12.19,1.5.56c.38.37.59.8.61,1.28h-1.22c-.06-.24-.18-.41-.34-.53-.16-.11-.35-.17-.55-.17-.23,0-.41.05-.56.15s-.22.24-.23.41c0,.18.05.33.18.44.12.11.32.21.58.28l.71.2c1.04.29,1.56.9,1.56,1.83,0,.52-.19.95-.58,1.29-.39.34-.89.51-1.52.51Z"/>
        <path d="M21.15,50.83c-.69,0-1.24-.2-1.66-.59-.42-.39-.64-.85-.66-1.38h1.23c.04.27.17.47.37.62s.44.22.72.22c.25,0,.46-.06.62-.17.16-.11.24-.26.24-.45,0-.33-.27-.58-.81-.73l-.64-.19c-.49-.14-.88-.36-1.16-.66-.28-.3-.42-.67-.42-1.12,0-.55.18-.98.55-1.3s.86-.48,1.47-.48,1.12.19,1.5.56c.38.37.59.8.61,1.28h-1.22c-.06-.24-.18-.41-.34-.53-.16-.11-.35-.17-.55-.17-.23,0-.41.05-.56.15s-.22.24-.23.41c0,.18.05.33.18.44.12.11.32.21.58.28l.71.2c1.04.29,1.56.9,1.56,1.83,0,.52-.19.95-.58,1.29-.39.34-.89.51-1.52.51Z"/>
        <path d="M23.59,50.72l2.6-6.04h1.1l2.61,6.04h-1.29l-.59-1.38h-2.58l-.58,1.38h-1.27ZM26.73,46.31l-.83,1.96h1.66l-.82-1.96Z"/>
        <path d="M30.74,44.69h1.12l1.96,2.69,1.96-2.69h1.12v6.04h-1.23v-3.93l-1.85,2.54-1.85-2.54v3.93h-1.23v-6.04Z"/>
        <path d="M38.42,50.72v-6.04h1.23v6.04h-1.23Z"/>
        <path d="M46.55,50.72h-1.06l-3.09-3.94v3.94h-1.23v-6.04h1.06l3.09,3.94v-3.94h1.23v6.04Z"/>
        <path d="M48.07,50.72v-6.04h3.76v1.17h-2.52v1.24h2.01v1.17h-2.01v1.28h2.52v1.17h-3.76Z"/>
      </g>
    </g>
  </g>
</svg>
