<?xml version="1.0" encoding="UTF-8"?>
<svg id="Layer_2" data-name="Layer 2" xmlns="http://www.w3.org/2000/svg" viewBox="0 0 478.55 99.51">
  <defs>
    <style>
      .cls-1 {
        fill: #a5a7ab;
      }
    </style>
  </defs>
  <g id="Outer_Words" data-name="Outer Words">
    <g>
      <path class="cls-1" d="M33.35,15.68c.89,3.1.5,6.1-1.16,8.99s-4.07,4.73-7.2,5.51c-3.13.78-6.22.29-9.25-1.46l-3.87-2.23-5.69,9.87-6.17-3.56L17.42,2.61l10.04,5.79c3.03,1.75,5,4.18,5.89,7.28ZM23.09,23.63c1.32-.33,2.36-1.13,3.09-2.41.74-1.28.92-2.57.54-3.88-.38-1.31-1.27-2.38-2.69-3.2l-3.79-2.18-5.06,8.76,3.79,2.18c1.42.82,2.79,1.06,4.11.73Z"/>
      <path class="cls-1" d="M30.25,49.71l14.96-31.49,12.06,5.73c2.87,1.36,4.78,3.36,5.72,5.98s.79,5.27-.48,7.93c-1.97,4.14-5.43,5.85-10.37,5.13l4.67,19.34-7.76-3.69-4.52-18.4-1.55-.74-6.3,13.26-6.43-3.06ZM45.6,34.01l4.88,2.32c1.24.59,2.37.75,3.38.49,1.01-.26,1.77-.92,2.28-1.99s.54-2.07.1-3.02c-.44-.95-1.27-1.72-2.52-2.31l-4.88-2.32-3.25,6.83Z"/>
      <path class="cls-1" d="M64.37,65.17l12.96-32.36,6.61,2.65-12.96,32.36-6.61-2.65Z"/>
      <path class="cls-1" d="M93.37,76.53c-3.76-1.25-6.42-3.34-8-6.27-1.58-2.93-1.94-5.85-1.1-8.78l6.75,2.26c-.24,1.54.05,2.89.87,4.05.82,1.15,2.01,1.99,3.56,2.51,1.4.47,2.63.54,3.7.23,1.07-.31,1.78-.98,2.12-2.01.61-1.83-.42-3.66-3.08-5.48l-3.15-2.19c-2.44-1.68-4.15-3.59-5.12-5.75-.97-2.15-1.06-4.46-.28-6.93,1.01-3.01,2.81-5.06,5.42-6.14,2.6-1.08,5.58-1.06,8.94.06,3.38,1.13,5.79,3.07,7.22,5.81,1.43,2.74,1.77,5.45,1.01,8.13l-6.71-2.24c.09-1.42-.21-2.59-.9-3.51-.69-.92-1.6-1.57-2.72-1.94-1.24-.42-2.35-.48-3.32-.2-.97.28-1.64.89-1.99,1.85-.36.98-.31,1.9.17,2.75.48.85,1.36,1.71,2.65,2.6l3.51,2.36c5.18,3.49,6.92,7.79,5.22,12.88-.96,2.86-2.8,4.85-5.55,5.99-2.74,1.14-5.82,1.13-9.24,0Z"/>
      <path class="cls-1" d="M115.91,82.91l8.58-33.79,21.04,5.34-1.67,6.57-14.13-3.59-1.76,6.95,11.28,2.86-1.67,6.57-11.28-2.86-1.81,7.14,14.13,3.59-1.67,6.57-21.04-5.34Z"/>
      <path class="cls-1" d="M164.01,93.49l4.87-34.52,21.49,3.03-.95,6.71-14.44-2.04-1,7.1,11.52,1.62-.95,6.71-11.52-1.63-1.03,7.29,14.44,2.04-.95,6.71-21.49-3.03Z"/>
      <path class="cls-1" d="M228.45,99.51l-6.13-.33-16.63-23.66-1.22,22.7-7.11-.38,1.87-34.81,6.13.33,16.63,23.66,1.22-22.7,7.11.38-1.87,34.81Z"/>
      <path class="cls-1" d="M274.38,98.38c-5.22.42-9.7-.96-13.44-4.14-3.74-3.18-5.81-7.3-6.22-12.36-.41-5.06.98-9.46,4.16-13.19,3.18-3.74,7.38-5.82,12.6-6.24,3.95-.32,7.59.54,10.92,2.59s5.64,4.87,6.91,8.48l-7.68.62c-.82-1.64-2.13-2.9-3.92-3.77-1.79-.87-3.69-1.23-5.68-1.07-3.26.26-5.84,1.54-7.72,3.82-1.88,2.29-2.7,5.01-2.44,8.18.25,3.17,1.5,5.72,3.72,7.68,2.23,1.96,4.97,2.8,8.23,2.54,1.99-.16,3.8-.82,5.43-1.96s2.72-2.6,3.27-4.35l7.68-.62c-.68,3.77-2.51,6.92-5.47,9.48-2.96,2.55-6.42,3.99-10.37,4.31Z"/>
      <path class="cls-1" d="M302.19,94.85l-6.13-34.32,7.01-1.25,2.44,13.68,14.89-2.66-2.44-13.68,7.01-1.25,6.13,34.32-7.01,1.25-2.49-13.97-14.89,2.66,2.49,13.97-7.01,1.25Z"/>
      <path class="cls-1" d="M340.74,87.66l5.16-37.61,6.1-1.69,23.84,29.56-7.19,1.99-5.39-6.76-14.33,3.98-1.09,8.56-7.1,1.97ZM351.43,58.25l-1.62,12.17,9.23-2.56-7.61-9.61Z"/>
      <path class="cls-1" d="M384.98,74.68l-12.23-32.65,12.51-4.68c2.97-1.11,5.73-1.1,8.27.05,2.54,1.15,4.33,3.1,5.37,5.85,1.61,4.29.43,7.96-3.53,11.02l17.15,10.09-8.05,3.01-16.37-9.54-1.61.6,5.15,13.75-6.67,2.5ZM384.36,52.73l5.06-1.89c1.29-.48,2.19-1.18,2.71-2.09.52-.91.57-1.92.15-3.02s-1.11-1.83-2.1-2.18c-.99-.35-2.12-.28-3.41.2l-5.06,1.89,2.65,7.08Z"/>
      <path class="cls-1" d="M434.41,54.83c-4.75,2.28-9.45,2.61-14.09.98-4.64-1.62-8.06-4.72-10.25-9.29-2.19-4.58-2.48-9.18-.85-13.81,1.63-4.63,4.8-8.07,9.53-10.34,3.31-1.58,6.77-2.13,10.4-1.64,3.63.49,6.68,1.95,9.14,4.36l-7.35,3.52c-1.31-.75-2.79-1.13-4.44-1.14-1.66,0-3.25.36-4.79,1.09-2.95,1.42-4.9,3.53-5.84,6.34-.94,2.81-.72,5.65.65,8.51,1.37,2.86,3.45,4.81,6.23,5.84,2.78,1.03,5.67.82,8.68-.62,2.51-1.2,4.22-2.79,5.14-4.78.92-1.98,1.02-4.18.3-6.59l-9.61,4.6-2.89-6.02,16.25-7.79c1.85,2.96,3.04,5.86,3.57,8.69.52,2.83.42,5.38-.31,7.64-.73,2.26-1.91,4.28-3.52,6.07-1.61,1.79-3.6,3.25-5.96,4.38Z"/>
      <path class="cls-1" d="M459.86,41.05l-17.72-30.02,18.69-11.03,3.44,5.84-12.56,7.41,3.64,6.17,10.02-5.92,3.44,5.83-10.02,5.91,3.74,6.34,12.56-7.41,3.44,5.83-18.69,11.03Z"/>
    </g>
  </g>
</svg>