<?xml version="1.0" encoding="UTF-8"?>
<svg id="Layer_2" data-name="Layer 2" xmlns="http://www.w3.org/2000/svg" viewBox="0 0 209.8 308.42">
  <defs>
    <style>
      .cls-1 {
        fill: #a5a7ab;
      }
    </style>
  </defs>
  <g id="Outer_Words" data-name="Outer Words">
    <g>
      <path class="cls-1" d="M0,30.12L20.94,1.45l17.85,13.03-4.07,5.57-11.99-8.76-4.31,5.9,9.57,6.99-4.07,5.57-9.57-6.99-4.42,6.06,11.99,8.76-4.07,5.57L0,30.12ZM29.81,4.22l7.54-4.22,6.22,4.54-9.6,2.71-4.16-3.04Z"/>
      <path class="cls-1" d="M33.59,56.19l12.26-36.39,5.92,5.15-8.61,25.19,23.65-12.09,6.03,5.25-34.4,17.12-4.86-4.24Z"/>
      <path class="cls-1" d="M49.19,69.7l36.16-13.67,4.48,4.64-14.86,35.71-5.28-5.47,3.43-8.11-10.53-10.9-8.19,3.18-5.21-5.39ZM80.7,64.97l-11.67,4.47,6.78,7.01,4.9-11.48Z"/>
      <path class="cls-1" d="M79.48,102.04l27.54-22.41,4.58,5.62-22.18,18.05,9.59,11.79-5.35,4.35-14.17-17.41Z"/>
      <path class="cls-1" d="M105.49,137.12c-2.44-3.54-3.31-7.17-2.62-10.88.69-3.71,2.84-6.81,6.47-9.3l17.72-12.18,4.11,5.98-17.8,12.24c-1.92,1.32-3.07,2.9-3.43,4.72-.36,1.83.08,3.65,1.33,5.46,1.25,1.81,2.79,2.88,4.62,3.19,1.83.32,3.71-.19,5.64-1.51l17.8-12.24,4.11,5.98-17.72,12.18c-3.6,2.47-7.27,3.36-11.01,2.65-3.74-.7-6.81-2.8-9.21-6.29Z"/>
      <path class="cls-1" d="M117.22,153.25l38.45-4.01,3.15,5.63-23.46,30.75-3.71-6.63,5.38-6.97-7.41-13.22-8.73.99-3.67-6.54ZM148.91,156.7l-12.43,1.35,4.77,8.5,7.66-9.85Z"/>
      <path class="cls-1" d="M139.57,195.13l25.96-12.01-3.97-8.58,6.26-2.9,11.04,23.87-6.26,2.9-4.01-8.67-25.96,12.01-3.07-6.62Z"/>
      <path class="cls-1" d="M149.71,218.32l33.05-12.95,2.64,6.75-33.05,12.95-2.64-6.75Z"/>
      <path class="cls-1" d="M169.7,262.08c-4.48-2.37-7.47-5.97-8.96-10.81-1.5-4.84-1.06-9.5,1.31-13.98,2.37-4.48,5.97-7.47,10.81-8.96,4.84-1.49,9.5-1.06,13.98,1.31,4.48,2.37,7.47,5.97,8.96,10.81,1.49,4.84,1.06,9.5-1.31,13.98-2.37,4.48-5.97,7.47-10.81,8.96-4.84,1.49-9.5,1.06-13.98-1.31ZM168.29,240.75c-1.48,2.71-1.77,5.53-.87,8.46.9,2.93,2.73,5.1,5.49,6.5,2.75,1.4,5.62,1.64,8.62.71,2.99-.92,5.23-2.74,6.72-5.45,1.48-2.71,1.77-5.53.87-8.46-.9-2.93-2.73-5.1-5.48-6.5-2.75-1.4-5.63-1.64-8.62-.72-3,.92-5.23,2.74-6.72,5.45Z"/>
      <path class="cls-1" d="M174.98,308.42l-1.22-6.13,19.15-22.37-22.7,4.52-1.42-7.11,34.82-6.93,1.22,6.13-19.15,22.37,22.7-4.52,1.42,7.11-34.82,6.93Z"/>
    </g>
  </g>
</svg>