<?xml version="1.0" encoding="UTF-8"?>
<svg id="Layer_2" data-name="Layer 2" xmlns="http://www.w3.org/2000/svg" viewBox="0 0 63.2 45.82">
  <g id="Icons">
    <g>
      <g>
        <g id="xm3nRX">
          <g>
            <path d="M37.8,17.37c.14-.11.29-.22.42-.34,2.77-2.57,7.05-1.34,7.94,2.33.37,1.5.06,2.96-1.01,4.11-1.47,1.57-3.02,3.07-4.54,4.6-1.67,1.68-3.33,3.37-5.03,5.02-2.67,2.59-7.06,1.32-7.89-2.31-.17-.73-.08-1.55.03-2.3.12-.81.19-.8-.66-.8-3.36,0-6.71,0-10.07,0-.98,0-1.15-.16-1.15-1.13,0-8.43,0-16.86,0-25.29,0-1.1.16-1.25,1.26-1.25,4.35,0,8.69,0,13.04,0,.5,0,.87.15,1.22.5,1.95,1.97,3.91,3.93,5.89,5.88.34.34.38.73.38,1.16,0,3.02,0,6.04,0,9.07,0,.22,0,.45,0,.67l.17.08ZM17.26,13.83c0,3.94,0,7.88,0,11.82,0,.49.14.65.63.64,3.52-.01,7.03,0,10.55-.02.31,0,.7-.17.92-.39,2.17-2.13,4.3-4.29,6.46-6.43.32-.31.44-.64.44-1.08-.01-3.3,0-6.61,0-9.91,0-.7-.03-.72-.71-.73-1.55,0-3.11,0-4.66,0-.76,0-.96-.21-.97-.99,0-1.54,0-3.07,0-4.61,0-.71-.02-.73-.7-.73-3.74,0-7.49,0-11.23,0-.7,0-.7,0-.7.71,0,3.9,0,7.81,0,11.71ZM41.82,17.05c-1.13,0-1.91.28-2.52.88-1.33,1.29-2.63,2.61-3.94,3.92-.23.23-.27.41-.02.66,1.37,1.35,2.73,2.71,4.08,4.08.26.26.45.25.71,0,1.29-1.31,2.61-2.58,3.88-3.91,1-1.05,1.18-2.33.61-3.64-.57-1.3-1.64-1.94-2.79-2ZM28.92,29.65c0,1.39.76,2.58,2.06,3.12,1.3.54,2.53.34,3.55-.61,1.34-1.25,2.6-2.59,3.91-3.88.27-.27.3-.46.01-.74-1.33-1.31-2.66-2.64-3.97-3.97-.3-.31-.53-.32-.83,0-1.24,1.26-2.5,2.5-3.74,3.75-.63.64-.98,1.42-.98,2.33ZM34.99,6.36c-1.26-1.27-2.44-2.45-3.62-3.63,0,0-.06.06-.06.12,0,1.06-.02,2.12,0,3.17,0,.12.27.31.42.32.54.04,1.09.02,1.64.02.52,0,1.04,0,1.62,0Z"/>
            <path d="M19.94,21.12c0-1.34,0-4.26,0-5.62,0-.4.13-.54.52-.52.56.02,1.13,0,1.7,0,1.25.03,2.16.92,2.19,2.13.02,1.12-.87,2.08-2.07,2.12-.22,0-.38,0-.56,0-.27,0-.38.13-.38.43,0,.45,0,.91,0,1.42,0,.83-1.39.82-1.39.03ZM21.35,17.02c0,.73.04.87.6.87.64,0,.99-.26.99-.76,0-.49-.34-.78-.98-.78s-.61.21-.61.67Z"/>
            <path d="M22.91,8.26c-.99,0-1.98-.03-2.96.01-.62.02-.5-.37-.52-.73-.02-.39,0-.67.54-.66,2.01.03,4.02.03,6.03,0,.55,0,.53.3.53.67,0,.39.04.74-.55.71-1.02-.04-2.05-.01-3.07-.01Z"/>
            <path d="M22.16,5.27c-.74,0-1.48-.02-2.23,0-.4.01-.55-.14-.51-.53.02-.16-.05-.34.02-.47.07-.15.24-.36.37-.36,1.55-.02,3.11-.01,4.66-.02.3,0,.41.15.39.43-.01.16-.02.32-.01.48.02.34-.13.47-.47.46-.74-.01-1.48,0-2.23,0Z"/>
          </g>
        </g>
        <path d="M26.25,22.6c.11.13,0,.24,0,.25-.79,1.01-.83.95-1.74.06-.72-.72-.61-.81-1.41,0-1.01,1.03-.66.84-1.62,0-.1-.14-.13-.2.03-.36.37-.37.58-.61.97-.97.27-.25.25-.44,0-.7-.07-.07-.47-.55-1.32-1.39-.32-.31.73-1.2.95-1.01.56.5,1.02.98,1.58,1.58.05.05.31-.02.4-.11.32-.28.62-.58.9-.9.25-.28.46-.27.69.02.09.11.19.21.3.3.29.24.26.45,0,.69-.29.26-.54.56-.83.82-.25.23-.26.43-.01.66.39.36.77.72,1.13,1.06Z"/>
      </g>
      <g>
        <path d="M0,39.7h1.12l1.96,2.69,1.96-2.69h1.12v6.02h-1.23v-3.92l-1.85,2.54-1.85-2.54v3.92H0v-6.02Z"/>
        <path d="M7.67,45.72v-6.02h3.75v1.17h-2.52v1.24h2.01v1.17h-2.01v1.27h2.52v1.17h-3.75ZM9.16,39.19l.61-1.33h1.31l-1.04,1.33h-.87Z"/>
        <path d="M12.65,45.72v-6.02h1.98c.87,0,1.6.29,2.2.87.6.58.9,1.29.9,2.14s-.3,1.55-.9,2.14c-.6.58-1.33.87-2.2.87h-1.98ZM13.88,44.59h.75c.55,0,1-.18,1.34-.54s.52-.81.52-1.34-.17-.98-.52-1.34-.79-.54-1.34-.54h-.75v3.77Z"/>
        <path d="M18.89,45.72v-6.02h1.23v6.02h-1.23Z"/>
        <path d="M24.44,45.82c-.9,0-1.66-.3-2.26-.9-.6-.6-.9-1.34-.9-2.21s.3-1.61.9-2.21c.6-.6,1.35-.9,2.26-.9.68,0,1.3.2,1.84.6.54.4.9.92,1.07,1.56h-1.33c-.12-.29-.33-.53-.62-.7s-.62-.26-.96-.26c-.57,0-1.03.18-1.38.55-.36.37-.53.83-.53,1.37s.18,1.01.53,1.37c.36.37.82.55,1.38.55.34,0,.67-.09.96-.26s.5-.41.62-.7h1.33c-.17.64-.53,1.16-1.07,1.56-.55.4-1.16.6-1.84.6Z"/>
        <path d="M27.59,45.72l2.59-6.02h1.09l2.6,6.02h-1.29l-.58-1.37h-2.57l-.58,1.37h-1.27ZM30.73,41.32l-.83,1.95h1.65l-.82-1.95Z"/>
        <path d="M34.72,39.7h1.12l1.96,2.69,1.96-2.69h1.12v6.02h-1.23v-3.92l-1.85,2.54-1.85-2.54v3.92h-1.23v-6.02Z"/>
        <path d="M42.39,45.72v-6.02h3.75v1.17h-2.52v1.24h2.01v1.17h-2.01v1.27h2.52v1.17h-3.75Z"/>
        <path d="M52.75,45.72h-1.06l-3.09-3.93v3.93h-1.23v-6.02h1.06l3.09,3.93v-3.93h1.23v6.02Z"/>
        <path d="M55.37,45.72v-4.85h-1.6v-1.17h4.46v1.17h-1.62v4.85h-1.24Z"/>
        <path d="M61.11,45.82c-.68,0-1.24-.2-1.65-.59-.42-.39-.64-.85-.66-1.38h1.23c.05.27.17.47.37.61.2.14.44.22.72.22.25,0,.46-.06.62-.17.16-.11.24-.26.24-.45,0-.33-.27-.58-.81-.73l-.64-.19c-.49-.14-.88-.36-1.15-.66-.28-.3-.42-.67-.42-1.12,0-.55.18-.98.55-1.3.37-.32.86-.48,1.47-.48s1.12.19,1.5.56c.38.37.59.8.61,1.28h-1.22c-.06-.24-.18-.41-.34-.53-.16-.11-.35-.17-.55-.17-.23,0-.41.05-.56.15-.14.1-.22.24-.22.41,0,.18.05.33.18.44.12.11.32.21.58.28l.7.19c1.04.29,1.56.9,1.56,1.82,0,.52-.19.95-.58,1.28-.39.34-.89.5-1.51.5Z"/>
      </g>
    </g>
  </g>
</svg>