<?xml version="1.0" encoding="UTF-8"?>
<svg id="Layer_2" data-name="Layer 2" xmlns="http://www.w3.org/2000/svg" viewBox="0 0 97.39 81.62">
  <defs>
    <style>
      .cls-1, .cls-2, .cls-3 {
        fill: none;
      }

      .cls-2 {
        stroke-width: .25px;
      }

      .cls-2, .cls-3 {
        stroke: #000;
        stroke-linecap: round;
        stroke-linejoin: round;
      }

      .cls-3 {
        stroke-width: 3px;
      }
    </style>
  </defs>
  <g id="Icons">
    <g>
      <g>
        <g>
          <g>
            <path class="cls-1" d="M59.06,4.59c-.78-.33-1.49-.78-2.25-1.15-.76-.37-1.54-.69-2.3-1.04-.05-.02-.1-.04-.15-.06-.19-.08-.39-.16-.58-.24-.4-.16-.8-.33-1.19-.49-.63-.26-1.1-.56-1.47-1.13-.07-.1-.11-.22-.16-.33-.1.01-.2.02-.3.03-.33.03-.21-.02-.06-.03-.25.01-.67.15-.82.18-1.91.34-3.86.83-5.82,1-.1.29-.26.54-.49.76-.22.24-.49.41-.79.51-.29.15-.61.22-.95.21-.52.06-1.04.09-1.55.14-.27.05-.53.11-.79.19-.26.92-.41,1.88-.41,2.89,0,5.94,4.81,10.75,10.75,10.75s10.75-4.81,10.75-10.75c0-.35-.03-.7-.06-1.04-.45-.08-.89-.2-1.33-.39Z"/>
            <circle cx="49.7" cy="5.35" r="4.94"/>
            <path class="cls-3" d="M25.91,15.17s20.87-30.76,47.59,0c0,0-22.9,31.26-47.59,0Z"/>
            <path class="cls-2" d="M29.6,12.2s15.99,26.15,40.82,1.32"/>
          </g>
          <path d="M69.06,17.25c.64,0,.64-1,0-1s-.64,1,0,1h0Z"/>
          <path d="M66.51,19.24c.64,0,.64-1,0-1s-.64,1,0,1h0Z"/>
          <path d="M63.52,21.46c.64,0,.64-1,0-1s-.64,1,0,1h0Z"/>
          <path d="M59.86,23.9c.64,0,.64-1,0-1s-.64,1,0,1h0Z"/>
          <path d="M55.98,25.45c.64,0,.64-1,0-1s-.64,1,0,1h0Z"/>
          <path d="M51.65,26.45c.64,0,.64-1,0-1s-.64,1,0,1h0Z"/>
          <path d="M47.44,26.45c.64,0,.64-1,0-1s-.64,1,0,1h0Z"/>
          <path d="M43.12,25.56c.64,0,.64-1,0-1s-.64,1,0,1h0Z"/>
          <path d="M39.24,24.01c.64,0,.64-1,0-1s-.64,1,0,1h0Z"/>
          <path d="M35.69,21.46c.64,0,.64-1,0-1s-.64,1,0,1h0Z"/>
          <path d="M32.48,18.69c.64,0,.64-1,0-1s-.64,1,0,1h0Z"/>
          <path d="M29.6,16.14c.64,0,.64-1,0-1s-.64,1,0,1h0Z"/>
        </g>
        <path class="cls-3" d="M38.95,6.02c0,5.94,4.81,10.75,10.75,10.75s10.75-4.81,10.75-10.75"/>
      </g>
      <g id="Fktjwz">
        <g>
          <path d="M78.94,31.79c5.85,1.6,11.7,3.21,17.56,4.81.14.04.28.07.41.12.38.12.55.41.46.8-.1.4-.35.58-.76.52-.16-.02-.31-.07-.47-.11-11.38-3.12-22.76-6.24-34.14-9.34-.71-.19-1.45-.32-2.19-.36-.58-.03-1.16.11-1.74.2-.71.11-1.36.41-1.98.77-.72.42-1.36.95-1.89,1.59-.37.45-.66.94-.93,1.45-.3.56-.52,1.14-.61,1.75-.11.8-.17,1.61-.02,2.43.18,1.02.53,1.96,1.09,2.82.4.6.88,1.13,1.44,1.6.94.79,2.03,1.23,3.2,1.54,11.34,3.1,22.68,6.21,34.01,9.32.19.05.37.11.55.19.31.14.41.46.29.82-.12.34-.39.51-.72.44-.14-.03-.28-.07-.42-.11-11.45-3.14-22.9-6.27-34.36-9.41-.53-.14-1.07-.28-1.56-.5-.68-.3-1.34-.66-1.88-1.19-.4-.38-.83-.74-1.17-1.17-.42-.54-.82-1.11-1.12-1.73-.31-.63-.53-1.31-.69-1.98-.13-.52-.14-1.08-.17-1.62-.06-1.22.25-2.38.7-3.49.21-.52.52-1.02.84-1.49.29-.43.63-.84,1-1.22.5-.51,1.07-.93,1.7-1.29.82-.47,1.68-.82,2.6-.98.61-.11,1.22-.16,1.85-.17,1.04-.01,1.99.31,2.96.57,5.39,1.47,10.78,2.95,16.17,4.42Z"/>
          <path d="M59.71,40.96c-.76-.14-1.47-.44-2.14-.82-.71-.41-1.28-.97-1.74-1.64-.38-.55-.63-1.16-.77-1.79-.12-.52-.15-1.09-.11-1.62.08-1,.4-1.95,1.01-2.76.67-.89,1.54-1.55,2.62-1.9,1.19-.4,2.38-.36,3.57-.02.34.1.68.19,1.02.28.95.25,1.78.73,2.43,1.46.45.5.76,1.09.95,1.76.28.99.18,1.96-.09,2.93-.09.31-.14.63-.26.92-.21.53-.38,1.09-.69,1.56-.49.75-1.18,1.32-2.03,1.67-1.12.46-2.24.42-3.38.09-.13-.04-.26-.07-.39-.11ZM62.13,31.93c-.28-.08-.57-.15-.85-.23-.87-.25-1.72-.15-2.53.19-1.1.46-1.79,1.32-2.23,2.4-.07.18-.09.39-.11.59-.03.2-.05.4-.04.6.02.32.03.64.1.94.15.62.43,1.18.86,1.66.4.45.84.85,1.42,1.04.75.24,1.52.45,2.28.66.78.22,1.52.1,2.21-.28.63-.35,1.14-.84,1.36-1.55.23-.75.43-1.5.63-2.26.13-.48.07-.96-.08-1.43-.32-1.05-1-1.74-2.05-2.07-.32-.1-.65-.18-.97-.27Z"/>
          <path d="M76.2,39.88c-.16.58-.35,1.15-.46,1.73-.13.66-.14,1.34-.02,2,.03.17.12.33.18.49.24.57-.1,1.07-.71,1.07-.3,0-.48-.24-.58-.46-.27-.55-.37-1.14-.38-1.77-.02-1.62.37-3.15.88-4.66.28-.84.63-1.66,1.14-2.38.29-.4.68-.74,1.08-1.04.4-.29.78-.16,1.07.28.16.25,0,.7-.31.94-.37.27-.67.6-.88,1.01-.14.28-.34.55-.44.85-.23.63-.42,1.28-.63,1.92l.07.02Z"/>
          <path d="M83.88,42.22c-.22.59-.49,1.42-.85,2.2-.25.54-.59,1.06-.96,1.53-.26.33-.59.61-1.03.73-.41.11-.85-.2-.82-.63.02-.31.15-.54.42-.76.33-.27.62-.62.84-.98.67-1.09.93-2.33,1.27-3.55.2-.7.23-1.43.26-2.14.02-.44-.03-.9-.28-1.31-.14-.23,0-.78.22-.93.32-.22.67-.17.94.14.33.38.42.84.49,1.32.19,1.32-.2,3.07-.5,4.37Z"/>
          <path d="M78.62,40.51c.4-1.45.8-2.91,1.19-4.36.1-.36.41-.63.76-.66.24-.03.55.18.62.47.04.17.07.37.03.54-.8,2.94-1.6,5.88-2.41,8.82-.1.37-.36.56-.72.62-.12.02-.3-.03-.39-.12-.26-.25-.41-.54-.29-.95.42-1.45.8-2.9,1.2-4.36Z"/>
        </g>
      </g>
      <g>
        <path d="M0,61.5v-7.1h4.42v1.38H1.45v1.46h2.37v1.38H1.45v1.5h2.97v1.38H0Z"/>
        <path d="M6.73,61.5h-1.7l2.67-3.59-2.52-3.51h1.68l1.71,2.39,1.72-2.39h1.68l-2.53,3.51,2.68,3.59h-1.7l-1.85-2.46-1.84,2.46Z"/>
        <path d="M17.19,55.08c.47.46.71,1.02.71,1.71s-.24,1.25-.71,1.71c-.47.46-1.07.69-1.78.69h-.91v2.32h-1.45v-7.1h2.36c.71,0,1.31.23,1.78.69ZM16.19,57.53c.2-.19.3-.44.3-.74s-.1-.55-.3-.74c-.2-.19-.47-.29-.8-.29h-.89v2.06h.89c.33,0,.6-.1.8-.29Z"/>
        <path d="M19.16,61.5v-7.1h2.72c.65,0,1.17.2,1.58.6s.61.9.61,1.5c0,.93-.49,1.55-1.46,1.85l2.55,3.15h-1.75l-2.44-2.99h-.35v2.99h-1.45ZM20.61,57.27h1.1c.28,0,.5-.07.67-.21s.25-.32.25-.56-.08-.43-.25-.56-.38-.21-.67-.21h-1.1v1.54Z"/>
        <path d="M25.92,61.5v-7.1h4.42v1.38h-2.97v1.46h2.37v1.38h-2.37v1.5h2.97v1.38h-4.42Z"/>
        <path d="M34.08,61.62c-.81,0-1.46-.23-1.95-.7-.49-.46-.75-1-.78-1.62h1.45c.05.31.2.56.43.73s.52.25.85.25c.3,0,.54-.06.73-.19s.28-.31.28-.52c0-.39-.32-.68-.95-.86l-.75-.22c-.58-.17-1.03-.43-1.36-.78-.33-.35-.49-.79-.5-1.32,0-.65.22-1.16.65-1.53.43-.38,1.01-.57,1.73-.57s1.32.22,1.77.66.69.94.72,1.5h-1.44c-.07-.28-.21-.49-.4-.62-.19-.13-.41-.2-.65-.2-.27,0-.49.06-.66.17s-.26.28-.26.48c0,.21.06.39.21.52.15.13.37.24.68.33l.83.23c1.23.34,1.84,1.06,1.84,2.15,0,.61-.23,1.12-.68,1.52-.46.4-1.05.6-1.79.6Z"/>
        <path d="M40.21,61.62c-.81,0-1.46-.23-1.95-.7-.49-.46-.75-1-.78-1.62h1.45c.05.31.2.56.43.73s.52.25.85.25c.3,0,.54-.06.73-.19s.28-.31.28-.52c0-.39-.32-.68-.95-.86l-.75-.22c-.58-.17-1.03-.43-1.36-.78-.33-.35-.49-.79-.5-1.32,0-.65.22-1.16.65-1.53.43-.38,1.01-.57,1.73-.57s1.32.22,1.77.66.69.94.72,1.5h-1.44c-.07-.28-.21-.49-.4-.62-.19-.13-.41-.2-.65-.2-.27,0-.49.06-.66.17s-.26.28-.26.48c0,.21.06.39.21.52.15.13.37.24.68.33l.83.23c1.23.34,1.84,1.06,1.84,2.15,0,.61-.23,1.12-.68,1.52-.46.4-1.05.6-1.79.6Z"/>
        <path d="M44.06,61.5v-7.1h1.45v7.1h-1.45Z"/>
        <path d="M53.13,60.54c-.72.72-1.58,1.08-2.59,1.08s-1.88-.36-2.59-1.08c-.72-.72-1.08-1.58-1.08-2.59s.36-1.88,1.08-2.6c.72-.72,1.58-1.08,2.59-1.08s1.88.36,2.59,1.08c.72.72,1.08,1.58,1.08,2.6s-.36,1.88-1.08,2.59ZM48.97,59.55c.43.44.95.67,1.57.67s1.13-.22,1.57-.67c.43-.44.64-.98.64-1.6s-.21-1.16-.64-1.6c-.43-.44-.95-.67-1.57-.67s-1.13.22-1.57.67c-.43.44-.64.98-.64,1.6s.21,1.16.64,1.6Z"/>
        <path d="M61.91,61.5h-1.25l-3.64-4.63v4.63h-1.45v-7.1h1.25l3.64,4.63v-4.63h1.45v7.1Z"/>
        <path d="M66.17,61.5v-7.1h2.34c1.02,0,1.88.34,2.59,1.03.71.69,1.06,1.53,1.06,2.52s-.35,1.83-1.06,2.52c-.71.69-1.57,1.03-2.59,1.03h-2.34ZM67.62,60.17h.89c.65,0,1.17-.21,1.58-.64.41-.43.61-.95.61-1.58s-.2-1.15-.61-1.58-.93-.64-1.58-.64h-.89v4.44Z"/>
        <path d="M73.53,61.5v-7.1h4.42v1.38h-2.97v1.46h2.37v1.38h-2.37v1.5h2.97v1.38h-4.42Z"/>
        <path d="M81.69,61.62c-.81,0-1.46-.23-1.95-.7-.49-.46-.75-1-.78-1.62h1.45c.05.31.2.56.43.73s.52.25.85.25c.3,0,.54-.06.73-.19s.28-.31.28-.52c0-.39-.32-.68-.95-.86l-.75-.22c-.58-.17-1.03-.43-1.36-.78-.33-.35-.49-.79-.5-1.32,0-.65.22-1.16.65-1.53.43-.38,1.01-.57,1.73-.57s1.32.22,1.77.66.69.94.72,1.5h-1.44c-.07-.28-.21-.49-.4-.62-.19-.13-.41-.2-.65-.2-.27,0-.49.06-.66.17s-.26.28-.26.48c0,.21.06.39.21.52.15.13.37.24.68.33l.83.23c1.23.34,1.84,1.06,1.84,2.15,0,.61-.23,1.12-.68,1.52-.46.4-1.05.6-1.79.6Z"/>
        <path d="M13.7,71.62c-1.07,0-1.96-.35-2.67-1.06s-1.07-1.58-1.07-2.61.35-1.9,1.06-2.61c.71-.71,1.59-1.06,2.66-1.06.75,0,1.43.21,2.06.62.62.41,1.05.94,1.29,1.6h-1.66c-.17-.25-.41-.45-.71-.6-.3-.15-.63-.22-.98-.22-.67,0-1.21.22-1.63.65s-.63.97-.63,1.62.21,1.19.63,1.62c.42.43.97.65,1.65.65.57,0,1.02-.14,1.37-.43.34-.28.55-.68.63-1.19h-2.17v-1.36h3.67c.08.71.04,1.34-.11,1.91-.15.57-.4,1.02-.73,1.38-.33.35-.73.62-1.18.8-.45.19-.95.28-1.48.28Z"/>
        <path d="M18.62,71.5v-7.1h1.45v5.72h3.04v1.38h-4.49Z"/>
        <path d="M23.55,71.5l3.06-7.1h1.29l3.07,7.1h-1.52l-.69-1.62h-3.03l-.68,1.62h-1.5ZM27.25,66.31l-.98,2.3h1.95l-.97-2.3Z"/>
        <path d="M38.3,71.5h-1.25l-3.64-4.63v4.63h-1.45v-7.1h1.25l3.64,4.63v-4.63h1.45v7.1Z"/>
        <path d="M40.08,71.5v-7.1h2.34c1.02,0,1.88.34,2.59,1.03.71.69,1.06,1.53,1.06,2.52s-.35,1.83-1.06,2.52c-.71.69-1.57,1.03-2.59,1.03h-2.34ZM41.53,70.17h.89c.65,0,1.17-.21,1.58-.64.41-.43.61-.95.61-1.58s-.2-1.15-.61-1.58-.93-.64-1.58-.64h-.89v4.44Z"/>
        <path d="M47.44,71.5v-7.1h4.42v1.38h-2.97v1.46h2.37v1.38h-2.37v1.5h2.97v1.38h-4.42Z"/>
        <path d="M55.6,71.62c-.81,0-1.46-.23-1.95-.7-.49-.46-.75-1-.78-1.62h1.45c.05.31.2.56.43.73s.52.25.85.25c.3,0,.54-.06.73-.19s.28-.31.28-.52c0-.39-.32-.68-.95-.86l-.75-.22c-.58-.17-1.03-.43-1.36-.78-.33-.35-.49-.79-.5-1.32,0-.65.22-1.16.65-1.53.43-.38,1.01-.57,1.73-.57s1.32.22,1.77.66.69.94.72,1.5h-1.44c-.07-.28-.21-.49-.4-.62-.19-.13-.41-.2-.65-.2-.27,0-.49.06-.66.17s-.26.28-.26.48c0,.21.06.39.21.52.15.13.37.24.68.33l.83.23c1.23.34,1.84,1.06,1.84,2.15,0,.61-.23,1.12-.68,1.52-.46.4-1.05.6-1.79.6Z"/>
        <path d="M61.93,71.5v-7.1h2.34c1.02,0,1.88.34,2.59,1.03.71.69,1.06,1.53,1.06,2.52s-.35,1.83-1.06,2.52c-.71.69-1.57,1.03-2.59,1.03h-2.34ZM63.38,70.17h.89c.65,0,1.17-.21,1.58-.64.41-.43.61-.95.61-1.58s-.2-1.15-.61-1.58-.93-.64-1.58-.64h-.89v4.44Z"/>
        <path d="M69.29,71.5v-7.1h4.42v1.38h-2.97v1.46h2.37v1.38h-2.37v1.5h2.97v1.38h-4.42Z"/>
        <path d="M14.62,74.4h1.32l2.31,3.17,2.31-3.17h1.32v7.1h-1.45v-4.62l-2.18,2.99-2.18-2.99v4.62h-1.45v-7.1Z"/>
        <path d="M23.67,81.5v-7.1h4.42v1.38h-2.97v1.46h2.37v1.38h-2.37v1.5h2.97v1.38h-4.42Z"/>
        <path d="M29.54,81.5v-7.1h1.45v7.1h-1.45Z"/>
        <path d="M32.77,81.5v-7.1h2.6c.59,0,1.09.2,1.5.6.41.4.61.89.61,1.46,0,.51-.19.94-.56,1.27.7.35,1.05.91,1.05,1.68,0,.59-.21,1.09-.63,1.49s-.94.6-1.57.6h-3ZM34.22,77.31h1.01c.25,0,.46-.08.61-.23s.23-.34.23-.56-.08-.41-.23-.56c-.16-.16-.36-.23-.61-.23h-1.01v1.59ZM34.22,80.17h1.45c.27,0,.49-.07.65-.23.16-.15.24-.34.24-.58s-.08-.44-.24-.59-.38-.23-.65-.23h-1.45v1.63Z"/>
        <path d="M45.16,80.54c-.72.72-1.58,1.08-2.59,1.08s-1.88-.36-2.59-1.08c-.72-.72-1.08-1.58-1.08-2.59s.36-1.88,1.08-2.6c.72-.72,1.58-1.08,2.59-1.08s1.88.36,2.59,1.08c.72.72,1.08,1.58,1.08,2.6s-.36,1.88-1.08,2.59ZM41,79.55c.43.44.95.67,1.57.67s1.13-.22,1.57-.67c.43-.44.64-.98.64-1.6s-.21-1.16-.64-1.6c-.43-.44-.95-.67-1.57-.67s-1.13.22-1.57.67c-.43.44-.64.98-.64,1.6s.21,1.16.64,1.6Z"/>
        <path d="M47.59,74.4h1.32l2.31,3.17,2.31-3.17h1.32v7.1h-1.45v-4.62l-2.18,2.99-2.18-2.99v4.62h-1.45v-7.1Z"/>
        <path d="M56.63,81.5v-7.1h1.45v7.1h-1.45Z"/>
        <path d="M62.67,81.62c-.86,0-1.56-.27-2.09-.8-.53-.53-.8-1.24-.8-2.12v-4.3h1.45v4.32c0,.47.13.83.39,1.1.26.27.61.4,1.05.4s.79-.13,1.05-.4c.26-.27.39-.63.39-1.1v-4.32h1.45v4.3c0,.87-.27,1.58-.81,2.11s-1.23.81-2.08.81Z"/>
        <path d="M69.54,81.62c-.81,0-1.46-.23-1.95-.7-.49-.46-.75-1-.78-1.62h1.45c.05.31.2.56.43.73s.52.25.85.25c.3,0,.54-.06.73-.19s.28-.31.28-.52c0-.39-.32-.68-.95-.86l-.75-.22c-.58-.17-1.03-.43-1.36-.78-.33-.35-.49-.79-.5-1.32,0-.65.22-1.16.65-1.53.43-.38,1.01-.57,1.73-.57s1.32.22,1.77.66.69.94.72,1.5h-1.44c-.07-.28-.21-.49-.4-.62-.19-.13-.41-.2-.65-.2-.27,0-.49.06-.66.17s-.26.28-.26.48c0,.21.06.39.21.52.15.13.37.24.68.33l.83.23c1.23.34,1.84,1.06,1.84,2.15,0,.61-.23,1.12-.68,1.52-.46.4-1.05.6-1.79.6Z"/>
      </g>
    </g>
  </g>
</svg>