<?xml version="1.0" encoding="UTF-8"?>
<svg id="Layer_2" data-name="Layer 2" xmlns="http://www.w3.org/2000/svg" viewBox="0 0 77.13 40.31">
  <defs>
    <style>
      .cls-1 {
        stroke-width: .75px;
      }

      .cls-1, .cls-2 {
        fill: none;
        stroke: #000;
        stroke-linecap: round;
        stroke-linejoin: round;
      }

      .cls-2 {
        stroke-width: 3px;
      }
    </style>
  </defs>
  <g id="Icons">
    <g>
      <g>
        <g>
          <path d="M50.13,18.17c1.1-.4,2.22-1.14,2.78-2.38,1.03-2.26-1.24-6.03.61-6.25,1.33-.16,1.58.99,1.26,1.03-.26-.58-.54-1.67-.97-2.32-.2-.31-.49,0-.69-.27-.21-.07-.4-1.96-.81-1.39-.27.38-.87-.64-1-.85l.25,9.12c0,.42-.49.77-1.09.77s-1.09-.35-1.09-.77V4.89c-.47-.33-.97-.64-1.5-.92v10.89c0,.42-.49.77-1.09.77s-1.09-.35-1.09-.77V2.98c-.48-.18-.98-.35-1.5-.51v12.39c0,.42-.49.77-1.09.77s-1.09-.35-1.09-.77V1.94c-.49-.09-1.01-.19-1.54-.28,0,.04.03.08.03.12v13.08c0,.42-.49.77-1.09.77s-1.09-.35-1.09-.77V1.79c0-.1.03-.2.08-.29-.61,0-1.13,0-1.46.01-.05,0-.13,0-.2,0,.05.08.08.17.08.27v5.69c0,.42-.49.77-1.09.77s-1.09-.35-1.09-.77V1.79s.01-.03.02-.05c-.51.06-1.01.14-1.52.23v5.51c0,.42-.49.77-1.09.77s-1.09-.35-1.09-.77V2.42c-.52.15-1.01.33-1.5.52v11.92c0,.42-.49.77-1.09.77s-1.09-.35-1.09-.77V3.95s-.08.04-.12.06c-.03.01-.07.02-.1.04-.47.23-.9.51-1.28.78v10.03c0,.42-.49.77-1.09.77s-1.09-.35-1.09-.77l-.32-8.75c-2.35,2.38-2.74,3.59-2.65,3.72.11.15.47-1.11,1.71-.39.82.48-.93,3.55,0,5.89.61,1.54,2.17,2.28,3.46,2.67,8.08.06,16.17.11,24.25.17Z"/>
          <path d="M43.52,26.02c1.28-1.08.94-2.49-.99-3.36-1.5-.68-3.18-.93-4.97-.94-1.78.02-3.48.25-4.96.95-1.6.76-2.1,1.79-1.52,2.73,4.02.94,8.27,1.3,12.45.62Z"/>
          <path class="cls-1" d="M37.56,18.17c2.58.01,5,.38,7.17,1.33,3.27,1.45,3.38,3.94.25,5.51-3.85,1.92-10.79,1.94-14.66.04-3.27-1.6-3.25-3.98.09-5.53,2.14-.99,4.59-1.32,7.16-1.35Z"/>
        </g>
        <path class="cls-2" d="M14.78,14.68s20.11-29.65,45.88,0c0,0-22.07,30.13-45.88,0Z"/>
      </g>
      <g>
        <path d="M0,33.09h1.32l2.31,3.17,2.31-3.17h1.32v7.1h-1.45v-4.62l-2.18,2.99-2.18-2.99v4.62H0v-7.1Z"/>
        <path d="M9.04,40.19v-7.1h4.42v1.38h-2.97v1.46h2.37v1.38h-2.37v1.5h2.97v1.38h-4.42Z"/>
        <path d="M14.92,40.19v-7.1h1.45v7.1h-1.45Z"/>
        <path d="M18.15,40.19v-7.1h2.6c.59,0,1.09.2,1.5.6.41.4.61.89.61,1.46,0,.51-.19.94-.56,1.27.7.35,1.05.91,1.05,1.68,0,.59-.21,1.09-.63,1.49s-.94.6-1.57.6h-3ZM19.6,36h1.01c.25,0,.46-.08.61-.23s.23-.34.23-.56-.08-.41-.23-.56c-.16-.16-.36-.23-.61-.23h-1.01v1.59ZM19.6,38.86h1.45c.27,0,.49-.07.65-.23.16-.15.24-.34.24-.58s-.08-.44-.24-.59-.38-.23-.65-.23h-1.45v1.63Z"/>
        <path d="M30.53,39.24c-.72.72-1.58,1.08-2.59,1.08s-1.88-.36-2.59-1.08c-.72-.72-1.08-1.58-1.08-2.59s.36-1.88,1.08-2.6c.72-.72,1.58-1.08,2.59-1.08s1.88.36,2.59,1.08c.72.72,1.08,1.58,1.08,2.6s-.36,1.88-1.08,2.59ZM26.37,38.25c.43.44.95.67,1.57.67s1.13-.22,1.57-.67c.43-.44.64-.98.64-1.6s-.21-1.16-.64-1.6c-.43-.44-.95-.67-1.57-.67s-1.13.22-1.57.67c-.43.44-.64.98-.64,1.6s.21,1.16.64,1.6Z"/>
        <path d="M36.3,40.31c-1.07,0-1.96-.35-2.67-1.06s-1.07-1.58-1.07-2.61.35-1.9,1.06-2.61c.71-.71,1.59-1.06,2.66-1.06.75,0,1.43.21,2.06.62.62.41,1.05.94,1.29,1.6h-1.66c-.17-.25-.41-.45-.71-.6-.3-.15-.63-.22-.98-.22-.67,0-1.21.22-1.63.65s-.63.97-.63,1.62.21,1.19.63,1.62c.42.43.97.65,1.65.65.57,0,1.02-.14,1.37-.43.34-.28.55-.68.63-1.19h-2.17v-1.36h3.67c.08.71.04,1.34-.11,1.91-.15.57-.4,1.02-.73,1.38-.33.35-.73.62-1.18.8-.45.19-.95.28-1.48.28Z"/>
        <path d="M41.22,40.19v-7.1h2.72c.65,0,1.17.2,1.58.6s.61.9.61,1.5c0,.93-.49,1.55-1.46,1.85l2.55,3.15h-1.75l-2.44-2.99h-.35v2.99h-1.45ZM42.67,35.96h1.1c.28,0,.5-.07.67-.21s.25-.32.25-.56-.08-.43-.25-.56-.38-.21-.67-.21h-1.1v1.54Z"/>
        <path d="M47.2,40.19l3.06-7.1h1.29l3.07,7.1h-1.52l-.69-1.62h-3.03l-.68,1.62h-1.5ZM50.9,35l-.98,2.3h1.95l-.97-2.3Z"/>
        <path d="M59.75,33.78c.47.46.71,1.02.71,1.71s-.24,1.25-.71,1.71c-.47.46-1.07.69-1.78.69h-.91v2.32h-1.45v-7.1h2.36c.71,0,1.31.23,1.78.69ZM58.75,36.22c.2-.19.3-.44.3-.74s-.1-.55-.3-.74c-.2-.19-.47-.29-.8-.29h-.89v2.06h.89c.33,0,.6-.1.8-.29Z"/>
        <path d="M61.72,40.19v-7.1h1.45v2.83h3.08v-2.83h1.45v7.1h-1.45v-2.89h-3.08v2.89h-1.45Z"/>
        <path d="M69.48,40.19v-7.1h1.45v7.1h-1.45Z"/>
        <path d="M72.71,40.19v-7.1h4.42v1.38h-2.97v1.46h2.37v1.38h-2.37v1.5h2.97v1.38h-4.42Z"/>
      </g>
    </g>
  </g>
</svg>