<?xml version="1.0" encoding="UTF-8"?>
<svg id="Layer_2" data-name="Layer 2" xmlns="http://www.w3.org/2000/svg" viewBox="0 0 43.3 33.91">
  <defs>
    <style>
      .cls-1 {
        fill: #fff;
      }
    </style>
  </defs>
  <g id="Inner_White_Words" data-name="Inner White Words">
    <g>
      <path class="cls-1" d="M6.37,33.91L0,25.37l1.74-1.3,5.13,6.87,3.65-2.73,1.24,1.66-5.4,4.03Z"/>
      <path class="cls-1" d="M13,28.96l-6.37-8.53,5.31-3.97,1.24,1.66-3.57,2.67,1.31,1.75,2.85-2.13,1.24,1.66-2.85,2.13,1.35,1.8,3.57-2.67,1.24,1.66-5.31,3.97ZM8.2,18.13l-.54-2.53,1.85-1.38-.07,2.99-1.24.92Z"/>
      <path class="cls-1" d="M23.71,21.18c-1.29.96-2.68,1.34-4.17,1.13-1.49-.21-2.7-.94-3.62-2.18-.93-1.24-1.28-2.6-1.07-4.09.21-1.48.96-2.7,2.24-3.66.9-.67,1.9-1.04,3.02-1.11s2.12.19,3,.77l-2,1.49c-.44-.15-.9-.18-1.4-.08-.5.1-.95.3-1.37.61-.8.6-1.26,1.35-1.38,2.24-.12.9.12,1.74.7,2.51.58.78,1.32,1.24,2.21,1.38.89.14,1.75-.09,2.57-.7.68-.51,1.1-1.09,1.26-1.74.16-.65.06-1.31-.3-1.99l-2.61,1.95-1.22-1.63,4.41-3.29c.73.78,1.26,1.58,1.58,2.39.32.82.44,1.59.36,2.31-.09.72-.32,1.4-.7,2.03-.38.63-.89,1.19-1.53,1.67Z"/>
      <path class="cls-1" d="M29.28,16.8l-6.37-8.53,5.31-3.97,1.24,1.66-3.57,2.67,1.31,1.75,2.85-2.13,1.24,1.66-2.85,2.13,1.35,1.8,3.57-2.67,1.24,1.66-5.31,3.97Z"/>
      <path class="cls-1" d="M36.1,11.7l-6.37-8.53,3.27-2.44c.78-.58,1.59-.81,2.43-.69.84.12,1.54.54,2.07,1.26.84,1.12.81,2.3-.09,3.53l5.89,1.5-2.1,1.57-5.62-1.4-.42.31,2.68,3.59-1.74,1.3ZM34.05,5.31l1.32-.99c.34-.25.54-.53.62-.84.07-.31,0-.61-.21-.9-.22-.29-.48-.44-.8-.46s-.65.1-.98.35l-1.32.99,1.38,1.85Z"/>
    </g>
  </g>
</svg>