<?xml version="1.0" encoding="UTF-8"?>
<svg id="Layer_2" data-name="Layer 2" xmlns="http://www.w3.org/2000/svg" viewBox="0 0 223.74 342.44">
  <defs>
    <style>
      .cls-1 {
        fill: #a5a7ab;
      }
    </style>
  </defs>
  <g id="Outer_Words" data-name="Outer Words">
    <g>
      <path class="cls-1" d="M33.07,342.44L0,322.42l.88-6.39,37.27-10.34-1.04,7.53-8.5,2.31-2.08,15.01,7.56,4.48-1.03,7.43ZM9.9,320.56l10.72,6.43,1.34-9.66-12.06,3.23Z"/>
      <path class="cls-1" d="M40.55,295.58l-27.94-6.13-2.02,9.23-6.74-1.48,5.63-25.69,6.74,1.48-2.04,9.33,27.94,6.13-1.57,7.13Z"/>
      <path class="cls-1" d="M48.25,264.8l-27.39-8.24-2.72,9.05-6.61-1.99,7.58-25.19,6.61,1.99-2.75,9.15,27.39,8.24-2.1,6.99Z"/>
      <path class="cls-1" d="M23.17,218.72l-6.03-6.18,2.77-7.18,5.11,8.56-1.86,4.8ZM55.92,240.79l-33.12-12.78,7.96-20.62,6.44,2.48-5.34,13.85,6.81,2.63,4.27-11.06,6.44,2.48-4.27,11.06,7,2.7,5.35-13.86,6.44,2.48-7.95,20.62Z"/>
      <path class="cls-1" d="M81.52,182.92l-2.76,5.61-28.8,6.12,20.77,10.22-3.2,6.51-31.86-15.67,2.76-5.61,28.81-6.12-20.78-10.21,3.2-6.51,31.86,15.66Z"/>
      <path class="cls-1" d="M94.89,161.61c-2.26,3.66-5.23,5.92-8.9,6.78s-7.38.14-11.12-2.18l-18.28-11.32,3.82-6.16,18.36,11.37c1.98,1.23,3.89,1.64,5.7,1.24,1.82-.4,3.31-1.54,4.46-3.41,1.16-1.87,1.51-3.71,1.06-5.52s-1.67-3.33-3.65-4.55l-18.36-11.37,3.82-6.16,18.28,11.32c3.71,2.3,6,5.3,6.86,9.01.86,3.71.18,7.36-2.05,10.96Z"/>
      <path class="cls-1" d="M104.93,144.39l-19.15-33.58,3.88-5.15,37.59,9.1-4.58,6.07-8.54-2.12-9.12,12.1,4.42,7.59-4.51,5.99ZM95.33,114l6.24,10.83,5.87-7.79-12.1-3.05Z"/>
      <path class="cls-1" d="M134.27,107.07l-21.44-18.93-6.25,7.08-5.17-4.57,17.41-19.72,5.17,4.57-6.32,7.16,21.44,18.93-4.83,5.47Z"/>
      <path class="cls-1" d="M151.43,88.45l-25.16-25.05,5.12-5.14,25.15,25.05-5.12,5.14Z"/>
      <path class="cls-1" d="M183.44,52.55c-.37,5.05-2.46,9.24-6.3,12.55-3.83,3.32-8.27,4.79-13.33,4.43-5.05-.37-9.24-2.46-12.55-6.29-3.32-3.83-4.79-8.27-4.43-13.33.36-5.05,2.46-9.24,6.29-12.55,3.83-3.31,8.28-4.79,13.33-4.43,5.06.37,9.24,2.46,12.56,6.29,3.31,3.83,4.79,8.28,4.43,13.33ZM164.47,62.42c3.08.27,5.77-.6,8.09-2.61,2.32-2.01,3.57-4.55,3.74-7.63.18-3.08-.76-5.81-2.81-8.18-2.05-2.37-4.61-3.69-7.69-3.96-3.08-.27-5.77.6-8.09,2.61-2.32,2.01-3.57,4.55-3.74,7.63-.17,3.08.76,5.81,2.81,8.18,2.05,2.37,4.61,3.69,7.69,3.96Z"/>
      <path class="cls-1" d="M223.74,29.09l-5.12,3.58-28.18-8.54,13.27,18.97-5.94,4.16-20.34-29.09,5.12-3.58,28.18,8.54-13.26-18.97,5.94-4.15,20.34,29.09Z"/>
    </g>
  </g>
</svg>