<?xml version="1.0" encoding="UTF-8"?>
<svg id="Layer_2" data-name="Layer 2" xmlns="http://www.w3.org/2000/svg" viewBox="0 0 55.33 47.35">
  <defs>
    <style>
      .cls-1 {
        fill: #fff;
      }
    </style>
  </defs>
  <g id="Inner_White_Words" data-name="Inner White Words">
    <g>
      <path class="cls-1" d="M0,38.82l1.59-1.19,5.62,1.74-.07-5.88,1.59-1.19,6.37,8.53-1.74,1.3-4.15-5.55.06,5.55-5.3-1.64,4.15,5.55-1.74,1.3L0,38.82Z"/>
      <path class="cls-1" d="M23.16,33.02c-.22,1.5-.94,2.71-2.15,3.62s-2.58,1.26-4.08,1.04c-1.5-.22-2.71-.94-3.62-2.15-.91-1.22-1.26-2.58-1.04-4.08.22-1.5.93-2.71,2.15-3.62s2.58-1.26,4.08-1.04c1.5.22,2.71.94,3.62,2.15.91,1.22,1.26,2.58,1.04,4.08ZM17.28,35.57c.91.15,1.74-.05,2.48-.61.74-.55,1.17-1.29,1.28-2.2.12-.92-.1-1.75-.67-2.51-.56-.75-1.3-1.2-2.22-1.35-.91-.15-1.74.06-2.48.61-.74.55-1.17,1.29-1.28,2.2-.12.92.1,1.75.66,2.51.56.75,1.3,1.2,2.22,1.35Z"/>
      <path class="cls-1" d="M26.71,32.16l-6.37-8.53,2.81-2.1c1.23-.92,2.57-1.28,4.04-1.09,1.46.19,2.64.88,3.54,2.08.89,1.19,1.22,2.52.99,3.98-.23,1.46-.96,2.65-2.19,3.56l-2.81,2.1ZM27.26,29.26l1.07-.8c.78-.58,1.22-1.31,1.32-2.19.11-.88-.12-1.69-.69-2.45-.56-.75-1.28-1.2-2.15-1.35-.87-.15-1.7.07-2.47.65l-1.07.8,3.99,5.34Z"/>
      <path class="cls-1" d="M35.31,25.74l-6.37-8.53,5.31-3.97,1.24,1.66-3.57,2.67,1.31,1.75,2.85-2.13,1.24,1.66-2.85,2.13,1.35,1.8,3.57-2.67,1.24,1.66-5.31,3.97ZM30.52,14.9l-.54-2.53,1.85-1.38-.07,2.99-1.24.92Z"/>
      <path class="cls-1" d="M42.14,20.64l-6.37-8.53,3.27-2.44c.78-.58,1.59-.81,2.43-.69.84.12,1.54.54,2.07,1.26.84,1.12.8,2.3-.09,3.53l5.89,1.5-2.1,1.57-5.62-1.4-.42.31,2.68,3.59-1.74,1.3ZM40.08,14.25l1.32-.99c.34-.25.54-.53.61-.84.07-.31,0-.61-.21-.9-.22-.29-.48-.44-.8-.46-.32-.02-.65.1-.98.35l-1.32.99,1.38,1.85Z"/>
      <path class="cls-1" d="M50.02,14.75l-6.37-8.53,5.31-3.97,1.24,1.66-3.57,2.67,1.31,1.75,2.85-2.13,1.24,1.66-2.85,2.13,1.35,1.8,3.57-2.67,1.24,1.66-5.31,3.97ZM45.22,3.92l-.54-2.53,1.85-1.38-.07,2.99-1.24.92Z"/>
    </g>
  </g>
</svg>