<?xml version="1.0" encoding="UTF-8"?>
<svg id="Layer_2" data-name="Layer 2" xmlns="http://www.w3.org/2000/svg" viewBox="0 0 81.96 57.61">
  <defs>
    <style>
      .cls-1 {
        fill-rule: evenodd;
      }
    </style>
  </defs>
  <g id="Icons">
    <g>
      <path class="cls-1" d="M53.52,12.14c-.09-.43-.02-.86-.12-1.27-.24-.97-.42-1.89-.78-2.71-.72-1.66-1.62-3.27-2.9-4.36-.39-.33-.72-.73-1.13-1.04-.43-.32-.88-.64-1.34-.92-.2-.12-.41-.18-.61-.31C45.01.54,42.58-.05,39.92,0c-.1.06-.29,0-.42.02-.36.04-.72.08-1.08.12-.98.24-1.93.38-2.78.73-3.58,1.48-5.97,3.93-7.45,7.52-.32.79-.44,1.67-.66,2.57-.09.35-.01.69-.09,1.06-.07.33-.1,1.07-.02,1.41.07.34-.03.65.05.97.17.72.22,1.46.42,2.1.22.68.39,1.29.66,1.91,1.27,2.89,3.66,5.25,6.55,6.53.75.33,1.56.6,2.43.85.38.07.77.14,1.15.21.13,0,.25.02.38.02.16.04.41.05.59.07h.45c.18.04.57.07.78.02.33-.07.7,0,1.04-.07.81-.19,1.6-.23,2.33-.47,3.84-1.28,6.66-3.73,8.22-7.28.38-.87.61-1.8.87-2.8.05-.37.11-.74.17-1.11v-.26c.06-.26-.02-.6.05-.9.06-.26.03-.82-.02-1.08ZM52.41,13.72c-.09.42-.02.87-.12,1.27-.26,1.03-.46,1.97-.85,2.85-1.35,3.07-3.7,5.14-6.83,6.43-.7.29-1.49.39-2.29.59-.35.04-.71.08-1.06.12h-.54c-.26.06-.82.03-1.08-.02-.45-.1-.92-.03-1.34-.14-.51-.13-1.02-.21-1.51-.38-.41-.14-.83-.33-1.2-.49-2.61-1.15-4.86-3.33-6.01-5.94-.26-.59-.42-1.18-.64-1.84-.18-.55-.23-1.19-.38-1.81-.02-.31-.03-.63-.05-.94-.08-.37-.05-1.01.02-1.37.08-.36.01-.67.09-1.01.19-.76.29-1.52.57-2.19,1.38-3.36,3.58-5.7,6.93-7.09.79-.33,1.66-.46,2.57-.68.41-.04.82-.08,1.23-.12.84,0,1.8-.03,2.5.14.92.22,1.8.39,2.59.73,3.07,1.33,5.21,3.51,6.53,6.6.28.66.48,1.4.68,2.17.11.43.06.86.16,1.32.08.36.11,1.43.02,1.81ZM51.47,11.9c-.05-.32-.11-.64-.16-.97-.19-.66-.39-1.31-.64-1.89-.47-1.08-1.02-2.01-1.67-2.9-.24-.33-.57-.58-.82-.9-.2-.25-.46-.52-.71-.71-.59-.45-1.21-.85-1.86-1.25-.42-.25-.89-.37-1.37-.57-1.09-.45-2.61-.76-4.15-.73-.09.06-.33.02-.47.02l-.78.07c-.82.19-1.6.3-2.31.59-3.13,1.3-5.28,3.36-6.57,6.5-.32.78-.42,1.67-.64,2.57-.08.32,0,.66-.07.99-.09.4-.06,1.11.02,1.48v.26c.06.38.13.75.19,1.13.24.86.5,1.67.87,2.38.09.18.15.38.26.54.37.53.96.9,1.53,1.23.21.12.42.35.61.49.16.12.31.22.42.38.37.51.59,1.18.97,1.67.06.07.16.11.24.16l.31.31c.13.09.28.13.42.21.82.5,1.8.83,2.85,1.13.31.09.59.06.92.14.18.04.44.05.64.09h.4c.19.04.6.07.82.02.35-.03.71-.06,1.06-.09.84-.2,1.67-.29,2.4-.59,3.25-1.34,5.09-3.14,6.48-6.34.32-.74.49-1.56.71-2.4.1-.37.03-.73.12-1.13.08-.37.08-1.07,0-1.44,0-.16-.02-.33-.02-.49ZM50.39,13.81v.4c-.04.3-.08.6-.12.9-.17.66-.31,1.3-.57,1.89-1.16,2.67-3.31,4.65-6.03,5.77-.52.21-1.11.28-1.7.42-.21.05-.44.03-.64.07h-.42c-.41.09-1.21.01-1.58-.07-.42-.05-.83-.09-1.25-.14-1.09-.28-2.17-.57-2.95-1.15-.38-.29-.47-.75-.71-1.2-.14-.27-.38-.56-.57-.8-.08-.06-.16-.13-.24-.19-.13-.12-.27-.35-.4-.45-.24-.18-.52-.34-.75-.49-.26-.17-.6-.27-.78-.52-.24-.32-.37-.7-.54-1.08-.69-1.57-1.14-4.13-.57-6.2.11-.39.14-.73.28-1.08,1.14-2.77,2.87-4.78,5.58-5.96.7-.3,1.47-.45,2.26-.66.36-.04.72-.08,1.08-.12,4.66.01,7.49,2.14,9.26,5.04.25.41.39.86.59,1.32.26.62.4,1.34.59,2.05.09.36.03.7.12,1.08.07.31.09.85.02,1.18ZM48.62,8.91c-.22-.36-.42-.74-.66-1.08-.7-.99-1.63-1.77-2.66-2.43-1.4-.89-2.96-1.46-5.33-1.41-.07.05-.2,0-.31.02-.27.04-.55.08-.82.12-.7.18-1.37.32-1.98.59-2.45,1.07-4.02,2.94-5.04,5.44-.14.33-.16.65-.26,1.01-.51,1.79-.17,4.02.42,5.44.16.38.26.79.49,1.11.48.66,1.49.77,1.98,1.41.55.74.98,1.77,1.72,2.31.39.28.89.33,1.41.49.54.17,1.19.26,1.79.4.3.07.58-.02.9.05.17.04.51.04.68,0h.42c.75-.17,1.48-.18,2.12-.45,2.6-1.07,4.51-2.88,5.58-5.47.78-1.87.68-4.75-.07-6.57-.14-.34-.22-.69-.4-.99ZM48.22,15.41c-.85,2.61-2.33,4.27-4.76,5.3-.51.22-1.1.34-1.7.49-.27.07-.52,0-.8.07-.24.05-.89.11-1.18.05-.7-.16-1.48-.16-2.12-.35-.14-.04-.25-.02-.38-.07-.1-.04-.17-.15-.26-.21-.51-.34-.86-.7-1.18-1.23-.2-.34-.29-.75-.52-1.06-.19-.26-.51-.55-.82-.68-.4-.18-.88-.32-1.11-.66-.19-.27-.27-.6-.4-.92-.43-1.02-.82-2.97-.45-4.41.36-1.38.7-2.32,1.41-3.32.91-1.28,2.34-2.37,3.98-2.92.48-.16.99-.21,1.51-.33.3-.02.6-.05.9-.07,2.21,0,3.6.69,4.88,1.6,1.47,1.05,2.39,2.42,3.02,4.34.4,1.23.36,3.19-.02,4.38ZM46.76,9.71c-1.21-1.98-3.26-3.74-6.5-3.68-.29.04-.58.08-.87.12-.53.14-1.04.27-1.51.47-1.95.85-3.12,2.15-3.94,4.15-.62,1.53-.57,4.4.31,5.58.2.27.52.57.8.75.35.23.74.36.99.68.1.14.11.3.19.47.09.21.27.54.4.73.66.98,1.72,1.12,3.04,1.44.24.06,1.02.14,1.32.07.2-.05.44-.02.66-.07.45-.11.91-.16,1.32-.33,2.03-.83,3.4-2.17,4.24-4.19.61-1.47.6-3.7,0-5.16-.15-.37-.25-.71-.45-1.04ZM46.1,15.7c-.67,1.57-1.85,2.69-3.44,3.35-.51.21-1.07.22-1.67.35-.21.05-.58.01-.75-.02-.35-.02-.69-.05-1.04-.07-.27-.07-.54-.2-.78-.28-.28-.1-.53-.14-.68-.35-.19-.27-.43-.56-.57-.87-.11-.24-.14-.48-.28-.68-.16-.23-.78-.6-1.04-.75-.16-.1-.36-.14-.47-.28-.79-1.03-1.01-3.45-.42-4.9.67-1.64,1.83-2.93,3.46-3.61.38-.16.8-.23,1.23-.33.19-.04.61.01.75-.07,3.07.02,4.85,1.73,5.75,3.94.54,1.32.51,3.3-.05,4.59ZM40.35,8.16c-.12.08-.37.01-.52.05-.39.09-.79.16-1.13.31-1.37.59-2.26,1.6-2.83,2.99-.12.29-.16.64-.24.97-.17.72-.01,1.66.17,2.21.51,1.58,1.26,2.47,2.64,3.18.31.16.68.3,1.06.4.2.05.35.02.57.07.16.04.45.09.64.05.53-.11,1.02-.11,1.46-.28,1.37-.55,2.38-1.52,2.95-2.87.49-1.17.45-2.78-.02-3.91-.76-1.81-2.15-3.19-4.74-3.16ZM44.31,14.05c-.07.3-.14.6-.26.87-.41.96-1.19,1.7-2.17,2.1-.32.13-.69.15-1.06.24-.57.13-1.45-.16-1.79-.31-1.46-.62-2.89-2.67-2.17-4.9.37-1.14,1.14-2.04,2.19-2.5.22-.07.44-.14.66-.21.14-.04.33,0,.45-.07.51,0,.98,0,1.37.12,1.37.44,2.22,1.34,2.66,2.71.17.51.27,1.33.12,1.96Z"/>
      <g>
        <path d="M1.61,39.25v-4.86H0v-1.17h4.47v1.17h-1.62v4.86h-1.24Z"/>
        <path d="M5.49,39.25v-6.04h3.76v1.17h-2.52v1.24h2.01v1.17h-2.01v1.28h2.52v1.17h-3.76Z"/>
        <path d="M10.49,33.22h1.12l1.96,2.69,1.96-2.69h1.12v6.04h-1.23v-3.93l-1.85,2.54-1.85-2.54v3.93h-1.23v-6.04Z"/>
        <path d="M21.69,33.8c.4.39.6.87.6,1.45s-.2,1.06-.6,1.45-.91.58-1.51.58h-.77v1.97h-1.23v-6.04h2.01c.61,0,1.11.19,1.51.58ZM20.84,35.88c.17-.16.25-.37.25-.63s-.08-.46-.25-.63c-.17-.16-.4-.25-.68-.25h-.76v1.75h.76c.28,0,.51-.08.68-.25Z"/>
        <path d="M25.3,39.36c-.69,0-1.24-.2-1.66-.59-.42-.39-.64-.85-.66-1.38h1.23c.04.27.17.47.37.62s.44.22.72.22c.25,0,.46-.06.62-.17.16-.11.24-.26.24-.45,0-.33-.27-.58-.81-.73l-.64-.19c-.49-.14-.88-.36-1.16-.66-.28-.3-.42-.67-.42-1.12,0-.55.18-.98.55-1.3s.86-.48,1.47-.48,1.12.19,1.5.56c.38.37.59.8.61,1.28h-1.22c-.06-.24-.18-.41-.34-.53-.16-.11-.35-.17-.55-.17-.23,0-.41.05-.56.15s-.22.24-.23.41c0,.18.05.33.18.44.12.11.32.21.58.28l.71.2c1.04.29,1.56.9,1.56,1.83,0,.52-.19.95-.58,1.29-.39.34-.89.51-1.52.51Z"/>
        <path d="M30.68,39.25v-6.04h1.99c.87,0,1.6.29,2.2.88.6.58.9,1.3.9,2.14s-.3,1.56-.9,2.14-1.33.88-2.2.88h-1.99ZM31.92,38.12h.76c.55,0,1-.18,1.34-.54.34-.36.52-.81.52-1.34s-.17-.98-.52-1.34c-.35-.36-.79-.54-1.34-.54h-.76v3.77Z"/>
        <path d="M36.94,39.25v-6.04h3.76v1.17h-2.52v1.24h2.01v1.17h-2.01v1.28h2.52v1.17h-3.76Z"/>
        <path d="M44.05,39.25v-6.04h2.31c.55,0,1,.17,1.34.51.34.34.51.77.51,1.27,0,.79-.41,1.32-1.24,1.57l2.17,2.68h-1.49l-2.07-2.54h-.3v2.54h-1.23ZM45.28,35.66h.93c.24,0,.43-.06.57-.17s.21-.28.21-.48-.07-.36-.21-.48c-.14-.12-.33-.17-.57-.17h-.93v1.31Z"/>
        <path d="M52.08,39.36c-.73,0-1.32-.23-1.78-.68-.45-.45-.68-1.05-.68-1.8v-3.66h1.23v3.67c0,.4.11.71.33.93.22.23.52.34.89.34s.67-.11.89-.34c.22-.23.33-.54.33-.93v-3.67h1.23v3.66c0,.74-.23,1.34-.69,1.8s-1.05.68-1.77.68Z"/>
        <path d="M59.5,33.8c.4.39.6.87.6,1.45s-.2,1.06-.6,1.45-.91.58-1.51.58h-.77v1.97h-1.23v-6.04h2.01c.61,0,1.11.19,1.51.58ZM58.65,35.88c.17-.16.25-.37.25-.63s-.08-.46-.25-.63c-.17-.16-.4-.25-.68-.25h-.76v1.75h.76c.28,0,.51-.08.68-.25Z"/>
        <path d="M62.29,39.25v-4.86h-1.61v-1.17h4.47v1.17h-1.62v4.86h-1.24Z"/>
        <path d="M68.56,39.36c-.73,0-1.32-.23-1.78-.68-.45-.45-.68-1.05-.68-1.8v-3.66h1.23v3.67c0,.4.11.71.33.93.22.23.52.34.89.34s.67-.11.89-.34c.22-.23.33-.54.33-.93v-3.67h1.23v3.66c0,.74-.23,1.34-.69,1.8s-1.05.68-1.77.68Z"/>
        <path d="M72.46,39.25v-6.04h2.31c.55,0,1,.17,1.34.51.34.34.51.77.51,1.27,0,.79-.41,1.32-1.24,1.57l2.17,2.68h-1.49l-2.07-2.54h-.3v2.54h-1.23ZM73.69,35.66h.93c.24,0,.43-.06.57-.17s.21-.28.21-.48-.07-.36-.21-.48c-.14-.12-.33-.17-.57-.17h-.93v1.31Z"/>
        <path d="M78.21,39.25v-6.04h3.76v1.17h-2.52v1.24h2.01v1.17h-2.01v1.28h2.52v1.17h-3.76Z"/>
        <path d="M18.72,47.75h-1.06l-3.09-3.94v3.94h-1.23v-6.04h1.06l3.09,3.94v-3.94h1.23v6.04Z"/>
        <path d="M25.2,46.94c-.61.61-1.34.91-2.21.91s-1.6-.3-2.21-.91c-.61-.61-.91-1.34-.91-2.21s.3-1.6.91-2.21c.61-.61,1.34-.91,2.21-.91s1.6.3,2.21.91c.61.61.91,1.34.91,2.21s-.3,1.6-.91,2.21ZM21.67,46.1c.37.38.81.57,1.33.57s.96-.19,1.33-.57c.37-.38.55-.83.55-1.36s-.18-.99-.55-1.36c-.37-.38-.81-.56-1.33-.56s-.96.19-1.33.56c-.37.38-.55.83-.55,1.36s.18.99.55,1.36Z"/>
        <path d="M32.66,47.75h-1.06l-3.09-3.94v3.94h-1.23v-6.04h1.06l3.09,3.94v-3.94h1.23v6.04Z"/>
        <path d="M36.28,47.75v-6.04h1.23v6.04h-1.23Z"/>
        <path d="M44.42,47.75h-1.06l-3.09-3.94v3.94h-1.23v-6.04h1.06l3.09,3.94v-3.94h1.23v6.04Z"/>
        <path d="M47.77,47.75l-2.49-6.04h1.33l1.71,4.19,1.68-4.19h1.36l-2.5,6.04h-1.1Z"/>
        <path d="M50.89,47.75l2.6-6.04h1.1l2.61,6.04h-1.29l-.59-1.38h-2.58l-.58,1.38h-1.27ZM54.04,43.34l-.83,1.96h1.66l-.82-1.96Z"/>
        <path d="M59.78,47.86c-.69,0-1.24-.2-1.66-.59-.42-.39-.64-.85-.66-1.38h1.23c.04.27.17.47.37.62s.44.22.72.22c.25,0,.46-.06.62-.17.16-.11.24-.26.24-.45,0-.33-.27-.58-.81-.73l-.64-.19c-.49-.14-.88-.36-1.16-.66-.28-.3-.42-.67-.42-1.12,0-.55.18-.98.55-1.3s.86-.48,1.47-.48,1.12.19,1.5.56c.38.37.59.8.61,1.28h-1.22c-.06-.24-.18-.41-.34-.53-.16-.11-.35-.17-.55-.17-.23,0-.41.05-.56.15s-.22.24-.23.41c0,.18.05.33.18.44.12.11.32.21.58.28l.71.2c1.04.29,1.56.9,1.56,1.83,0,.52-.19.95-.58,1.29-.39.34-.89.51-1.52.51Z"/>
        <path d="M63.06,47.75v-6.04h1.23v6.04h-1.23Z"/>
        <path d="M65.8,47.75v-6.04h3.67v1.17h-2.44v1.25h1.91v1.17h-1.91v2.44h-1.23Z"/>
        <path d="M28.62,57.61h-.93c-.73-1.32-1.09-2.68-1.09-4.08s.36-2.76,1.09-4.08h.93c-.69,1.33-1.03,2.69-1.03,4.08s.34,2.75,1.03,4.08Z"/>
        <path d="M35.05,56.25h-1.06l-3.09-3.94v3.94h-1.23v-6.04h1.06l3.09,3.94v-3.94h1.23v6.04Z"/>
        <path d="M36.56,56.25v-6.04h1.23v6.04h-1.23Z"/>
        <path d="M39.31,56.25v-6.04h2.21c.5,0,.93.17,1.27.51.35.34.52.75.52,1.24,0,.44-.16.8-.48,1.08.59.29.89.77.89,1.43,0,.5-.18.93-.54,1.27-.36.34-.8.51-1.33.51h-2.55ZM40.54,52.69h.86c.21,0,.39-.06.52-.19.13-.13.2-.29.2-.48s-.07-.35-.2-.48c-.13-.13-.3-.2-.51-.2h-.86v1.35ZM40.54,55.12h1.23c.23,0,.42-.06.55-.19.14-.13.2-.29.2-.5s-.07-.37-.2-.5c-.14-.13-.32-.2-.55-.2h-1.23v1.39Z"/>
        <path d="M47.25,56.36c-.73,0-1.32-.23-1.78-.68-.45-.45-.68-1.05-.68-1.8v-3.66h1.23v3.67c0,.4.11.71.33.93.22.23.52.34.89.34s.67-.11.89-.34c.22-.23.33-.54.33-.93v-3.67h1.23v3.66c0,.74-.23,1.34-.69,1.8s-1.05.68-1.77.68Z"/>
        <path d="M52.27,56.25v-4.86h-1.61v-1.17h4.47v1.17h-1.62v4.86h-1.24Z"/>
        <path d="M56.6,57.61h-.93c.69-1.33,1.03-2.69,1.03-4.08s-.34-2.75-1.03-4.08h.93c.73,1.32,1.09,2.68,1.09,4.08s-.36,2.76-1.09,4.08Z"/>
      </g>
    </g>
  </g>
</svg>