<?xml version="1.0" encoding="UTF-8"?>
<svg id="Layer_2" data-name="Layer 2" xmlns="http://www.w3.org/2000/svg" viewBox="0 0 65.78 42.1">
  <g id="Icons">
    <g>
      <g>
        <circle class="cls-2" cx="32.42" cy="9.98" r="8.96"/>
        <circle cx="32.42" cy="9.98" r="3.42"/>
      </g>
      <path d="M32.34,19.96c-4.45-.18-8.49-1.58-12.32-3.71-2.52-1.4-4.88-3.05-6.89-5.14-1-1.03-.99-1.38.03-2.36,3.01-2.86,6.39-5.16,10.21-6.81,6.5-2.81,12.91-2.53,19.25.53,3.37,1.63,6.39,3.75,9.1,6.33.94.9.96,1.32.04,2.18-4.21,3.94-8.95,6.98-14.64,8.29-1.56.36-3.19.47-4.78.69ZM32.33,17.98c4.31.07,8.06-3.53,8.15-7.82.09-4.49-3.47-8.24-7.88-8.31-4.49-.07-8.19,3.47-8.27,7.92-.08,4.42,3.53,8.13,8,8.2ZM24.71,16.35c-3-4.26-2.97-8.5-.08-12.81-3.79,1.49-7.03,3.68-10.06,6.44,3.04,2.81,6.35,4.94,10.14,6.37ZM40.15,16.31c3.74-1.47,7-3.64,10.02-6.4-2.99-2.73-6.23-4.91-9.99-6.37,2.93,4.28,2.91,8.51-.03,12.77Z"/>
      <g>
        <g>
          <path d="M53.1,14.14c-.57-.88-1.41-1.17-2.4-.8-.54.21-1.04.55-1.54.86-.82.51-.8.51-1.49-.18-.12-.12-.19-.22-.22-.33-.12-.04-.24-.09-.35-.14-.02,0-.04,0-.06,0-.2,0-.4,0-.6.03-.1,0-.19.03-.29.04,0,0,0,0,0,0-.04,0-.09.02-.13.03-.31.07-.6.17-.9.29-.12.1-.24.2-.36.3-.09.14-.17.29-.24.44-.02.04-.04.08-.05.13-.02.08-.05.16-.07.24-.02.09-.04.18-.05.27,0,.04-.01.08-.02.12,0,.2,0,.39.02.59,0,.03.01.07.02.1,0,0,0,.01,0,.02.02.11.05.21.09.32.03.08.03.16.04.25.01.01.02.03.03.04.25.35-.11.51-.35.68-.29.2-.6.39-.89.58-1.31.86-1.55,1.97-.7,3.27,2.43,3.76,4.87,7.52,7.3,11.28.09.13.15.32.27.38.17.07.42.11.57.03.12-.06.21-.33.18-.48-.04-.2-.2-.38-.32-.56-2.4-3.71-4.81-7.42-7.21-11.13-.53-.82-.4-1.45.42-2,.39-.26.79-.52,1.19-.77,1.02-.66,1.05-.8.35-1.78-.05-.06-.08-.14-.14-.19-.44-.36-.25-.58.12-.85,1.28-.91,1.28-.93,2.26.31.32.4.65.46,1.07.18.56-.37,1.13-.73,1.69-1.09,1.05-.66,1.53-.56,2.19.46,2.42,3.74,4.85,7.49,7.27,11.23.2.3.41.59.8.33.36-.24.21-.53.02-.82-2.51-3.87-5.02-7.75-7.54-11.62Z"/>
          <path d="M47.84,17.72c.96-.62,1.91-1.25,2.88-1.86.71-.45,1.36-.31,1.83.39.79,1.16,1.53,2.35,2.33,3.5.31.44.22.71-.22.94-.17.09-.33.27-.51.29-.19.03-.49-.01-.58-.14-.55-.77-1.05-1.57-1.55-2.38-.07-.11-.06-.37.02-.47.43-.54-.06-.85-.3-1.18-.28-.39-.6-.1-.87.07-1.69,1.09-3.38,2.18-5.07,3.28-.27.18-.67.35-.43.77.21.36.31.97,1.01.72.12-.04.37.09.46.22.51.75.99,1.52,1.49,2.28.19.29.17.51-.11.7-.2.13-.4.26-.6.39-.29.19-.51.14-.7-.15-.82-1.26-1.66-2.5-2.44-3.78-.4-.65-.21-1.25.43-1.68.97-.65,1.95-1.27,2.93-1.9Z"/>
          <path d="M54.59,28.22c-.94.61-1.88,1.23-2.83,1.83-.68.43-1.35.33-1.82-.32-.56-.78-1.07-1.61-1.6-2.42-.4-.62.16-.77.51-1.02.34-.25.66-.37.93.1.21.36.44.7.68,1.04.18.27.26.51.02.8-.3.35-.06.67.19.87.16.12.54.15.71.04,1.82-1.14,3.62-2.31,5.41-3.5.16-.1.28-.44.24-.62-.08-.3-.23-.7-.68-.58-.41.11-.58-.1-.75-.39-.17-.29-.36-.56-.54-.85-.39-.61-.38-.68.21-1.08.76-.5.83-.51,1.23.11.47.73.93,1.46,1.38,2.21.45.75.28,1.45-.46,1.93-.94.62-1.89,1.22-2.83,1.83Z"/>
          <rect class="cls-1" x="49.93" y="19.15" width="2.67" height="7.68" transform="translate(-4.26 31.56) rotate(-32.93)"/>
        </g>
        <rect x="49.8" y="21.92" width="3.11" height="1.59" transform="translate(-4.1 31.56) rotate(-32.93)"/>
      </g>
      <g>
        <path d="M6.26,41.02c-.72.72-1.58,1.08-2.59,1.08s-1.88-.36-2.59-1.08c-.72-.72-1.08-1.58-1.08-2.59s.36-1.88,1.08-2.6c.72-.72,1.58-1.08,2.59-1.08s1.88.36,2.59,1.08c.72.72,1.08,1.58,1.08,2.6s-.36,1.88-1.08,2.59ZM2.1,40.03c.43.44.95.67,1.57.67s1.13-.22,1.57-.67c.43-.44.64-.98.64-1.6s-.21-1.16-.64-1.6c-.43-.44-.95-.67-1.57-.67s-1.13.22-1.57.67c-.43.44-.64.98-.64,1.6s.21,1.16.64,1.6Z"/>
        <path d="M10.98,42.1c-.81,0-1.46-.23-1.95-.7-.49-.46-.75-1-.78-1.62h1.45c.05.31.2.56.43.73s.52.25.85.25c.3,0,.54-.06.73-.19s.28-.31.28-.52c0-.39-.32-.68-.95-.86l-.75-.22c-.58-.17-1.03-.43-1.36-.78-.33-.35-.49-.79-.5-1.32,0-.65.22-1.16.65-1.53.43-.38,1.01-.57,1.73-.57s1.32.22,1.77.66.69.94.72,1.5h-1.44c-.07-.28-.21-.49-.4-.62-.19-.13-.41-.2-.65-.2-.27,0-.49.06-.66.17s-.26.28-.26.48c0,.21.06.39.21.52.15.13.37.24.68.33l.83.23c1.23.34,1.84,1.06,1.84,2.15,0,.61-.23,1.12-.68,1.52-.46.4-1.05.6-1.79.6Z"/>
        <path d="M14.83,34.88h1.32l2.31,3.17,2.31-3.17h1.32v7.1h-1.45v-4.62l-2.18,2.99-2.18-2.99v4.62h-1.45v-7.1Z"/>
        <path d="M29.71,41.02c-.72.72-1.58,1.08-2.59,1.08s-1.88-.36-2.59-1.08c-.72-.72-1.08-1.58-1.08-2.59s.36-1.88,1.08-2.6c.72-.72,1.58-1.08,2.59-1.08s1.88.36,2.59,1.08c.72.72,1.08,1.58,1.08,2.6s-.36,1.88-1.08,2.59ZM25.55,40.03c.43.44.95.67,1.57.67s1.13-.22,1.57-.67c.43-.44.64-.98.64-1.6s-.21-1.16-.64-1.6c-.43-.44-.95-.67-1.57-.67s-1.13.22-1.57.67c-.43.44-.64.98-.64,1.6s.21,1.16.64,1.6Z"/>
        <path d="M32.15,41.98v-7.1h1.45v5.72h3.04v1.38h-4.49Z"/>
        <path d="M37.08,41.98l3.06-7.1h1.29l3.07,7.1h-1.52l-.69-1.62h-3.03l-.68,1.62h-1.5ZM40.78,36.79l-.98,2.3h1.95l-.97-2.3Z"/>
        <path d="M45.49,41.98v-7.1h2.72c.65,0,1.17.2,1.58.6s.61.9.61,1.5c0,.93-.49,1.55-1.46,1.85l2.55,3.15h-1.75l-2.44-2.99h-.35v2.99h-1.45ZM46.94,37.75h1.1c.28,0,.5-.07.67-.21s.25-.32.25-.56-.08-.43-.25-.56-.38-.21-.67-.21h-1.1v1.54Z"/>
        <path d="M52.25,41.98v-7.1h1.45v7.1h-1.45Z"/>
        <path d="M56.79,41.98v-5.72h-1.89v-1.38h5.26v1.38h-1.91v5.72h-1.46Z"/>
        <path d="M61.36,41.98v-7.1h4.42v1.38h-2.97v1.46h2.37v1.38h-2.37v1.5h2.97v1.38h-4.42ZM63.12,34.28l.72-1.57h1.54l-1.23,1.57h-1.03Z"/>
      </g>
    </g>
  </g>
</svg>
