<?xml version="1.0" encoding="UTF-8"?>
<svg id="Layer_2" data-name="Layer 2" xmlns="http://www.w3.org/2000/svg" viewBox="0 0 63.89 47.13">
  <g id="Icons">
    <g>
      <g id="CcNbeA">
        <g>
          <path d="M26.35,34.19c-5.29-.07-9.63-2.15-13.47-5.37-1.36-1.14-2.57-2.5-3.7-3.88-1.13-1.38-1.12-2.14-.04-3.55,3.42-4.47,7.84-7.46,13.31-8.87.57-.15.74.06.87.56.13.54-.2.56-.55.63-2.14.46-4.11,1.33-5.99,2.43-.54.31-.77.72-.87,1.31-1.1,7.03,5.66,13.21,12.54,11.4,4.43-1.17,7-4.11,7.77-8.61.09-.51.28-.77.73-1,.72-.37,1.41-.82,2.07-1.3.37-.27.63-.34.95.01,1.11,1.27,2.24,2.52,3.3,3.82.78.95.59,1.94-.06,2.92-1.32,1.99-3.01,3.6-4.9,5.02-2.96,2.22-6.22,3.77-9.92,4.31-.73.11-1.47.13-2.05.17Z"/>
          <path d="M32.91,18.71c-3.37-.09-6.46-2.13-7.76-5.25-1.3-3.13-.53-6.76,1.96-9.18,2.34-2.28,6.01-2.94,9.04-1.51.76.36,1.21.32,1.74-.32.56-.66,1.21-1.26,1.84-1.85.82-.77,1.97-.78,2.71-.05.73.72.75,1.9,0,2.71-.68.74-1.37,1.47-2.11,2.15-.4.37-.43.66-.18,1.15,2.13,4.26.36,9.35-3.98,11.26-1.02.45-2.17.61-3.25.9ZM32.88,3.87c-3.48-.06-6.42,2.76-6.49,6.23-.08,3.59,2.73,6.54,6.27,6.61,3.56.06,6.5-2.8,6.54-6.35.03-3.54-2.78-6.42-6.32-6.48Z"/>
          <path d="M20.51,21.55c2.97-.3,3.97-3.01,1.99-5.13.18-.15.35-.31.54-.43,1.08-.71,1.15-.69,1.93.32,1.55,2.01,3.57,3.24,6.06,3.7.43.08.71.16.75.7.17,2.75-2.1,5.36-5.05,5.74-2.76.36-5.68-1.67-6.17-4.31-.03-.18-.02-.36-.03-.59Z"/>
          <path d="M28.48,12.31c2.36.35,4.42,1.08,6.5,2.18-.8.45-1.46.64-2.25.3-.8-.35-1.62-.67-2.46-.85-.89-.18-1.34-.73-1.79-1.63Z"/>
        </g>
      </g>
      <g>
        <path d="M4.14,40.6c.47.46.71,1.02.71,1.71s-.24,1.25-.71,1.71c-.47.46-1.07.69-1.78.69h-.91v2.32H0v-7.1h2.36c.71,0,1.31.23,1.78.69ZM3.14,43.04c.2-.19.3-.44.3-.74s-.1-.55-.3-.74c-.2-.19-.47-.29-.8-.29h-.89v2.06h.89c.33,0,.6-.1.8-.29Z"/>
        <path d="M6.11,47.01v-7.1h2.72c.65,0,1.17.2,1.58.6s.61.9.61,1.5c0,.93-.49,1.55-1.46,1.85l2.55,3.15h-1.75l-2.44-2.99h-.35v2.99h-1.45ZM7.56,42.78h1.1c.28,0,.5-.07.67-.21s.25-.32.25-.56-.08-.43-.25-.56-.38-.21-.67-.21h-1.1v1.54Z"/>
        <path d="M12.87,47.01v-7.1h4.42v1.38h-2.97v1.46h2.37v1.38h-2.37v1.5h2.97v1.38h-4.42ZM14.63,39.31l.72-1.57h1.54l-1.23,1.57h-1.03Z"/>
        <path d="M20.92,47.01l-2.93-7.1h1.57l2.01,4.93,1.98-4.93h1.6l-2.94,7.1h-1.29Z"/>
        <path d="M26.16,47.01v-7.1h4.42v1.38h-2.97v1.46h2.37v1.38h-2.37v1.5h2.97v1.38h-4.42Z"/>
        <path d="M38.38,47.01h-1.25l-3.64-4.63v4.63h-1.45v-7.1h1.25l3.64,4.63v-4.63h1.45v7.1Z"/>
        <path d="M41.47,47.01v-5.72h-1.89v-1.38h5.26v1.38h-1.91v5.72h-1.46Z"/>
        <path d="M46.04,47.01v-7.1h1.45v7.1h-1.45Z"/>
        <path d="M55.11,46.06c-.72.72-1.58,1.08-2.59,1.08s-1.88-.36-2.59-1.08c-.72-.72-1.08-1.58-1.08-2.59s.36-1.88,1.08-2.6c.72-.72,1.58-1.08,2.59-1.08s1.88.36,2.59,1.08c.72.72,1.08,1.58,1.08,2.6s-.36,1.88-1.08,2.59ZM50.95,45.07c.43.44.95.67,1.57.67s1.13-.22,1.57-.67c.43-.44.64-.98.64-1.6s-.21-1.16-.64-1.6c-.43-.44-.95-.67-1.57-.67s-1.13.22-1.57.67c-.43.44-.64.98-.64,1.6s.21,1.16.64,1.6Z"/>
        <path d="M63.89,47.01h-1.25l-3.64-4.63v4.63h-1.45v-7.1h1.25l3.64,4.63v-4.63h1.45v7.1Z"/>
      </g>
    </g>
  </g>
</svg>