<?xml version="1.0" encoding="UTF-8"?>
<svg id="Layer_2" data-name="Layer 2" xmlns="http://www.w3.org/2000/svg" viewBox="0 0 64.43 49.62">
  <defs>
  </defs>
  <g id="Icons">
    <g>
      <g>
        <path d="M2.43,39.5v-7.1h2.6c.59,0,1.09.2,1.5.6.41.4.61.89.61,1.46,0,.51-.19.94-.56,1.27.7.35,1.05.91,1.05,1.68,0,.59-.21,1.09-.63,1.49s-.94.6-1.57.6h-3ZM3.88,35.31h1.01c.25,0,.46-.08.61-.23s.23-.34.23-.56-.08-.41-.23-.56c-.16-.16-.36-.23-.61-.23h-1.01v1.59ZM3.88,38.17h1.45c.27,0,.49-.07.65-.23.16-.15.24-.34.24-.58s-.08-.44-.24-.59-.38-.23-.65-.23h-1.45v1.63Z"/>
        <path d="M14.81,38.55c-.72.72-1.58,1.08-2.59,1.08s-1.88-.36-2.59-1.08c-.72-.72-1.08-1.58-1.08-2.59s.36-1.88,1.08-2.6c.72-.72,1.58-1.08,2.59-1.08s1.88.36,2.59,1.08c.72.72,1.08,1.58,1.08,2.6s-.36,1.88-1.08,2.59ZM10.65,37.56c.43.44.95.67,1.57.67s1.13-.22,1.57-.67c.43-.44.64-.98.64-1.6s-.21-1.16-.64-1.6c-.43-.44-.95-.67-1.57-.67s-1.13.22-1.57.67c-.43.44-.64.98-.64,1.6s.21,1.16.64,1.6Z"/>
        <path d="M20.06,39.62c-.86,0-1.56-.27-2.09-.8-.53-.53-.8-1.24-.8-2.12v-4.3h1.45v4.32c0,.47.13.83.39,1.1.26.27.61.4,1.05.4s.79-.13,1.05-.4c.26-.27.39-.63.39-1.1v-4.32h1.45v4.3c0,.87-.27,1.58-.81,2.11s-1.23.81-2.08.81Z"/>
        <path d="M27.96,39.62c-1.07,0-1.95-.35-2.66-1.06-.71-.71-1.06-1.58-1.06-2.61s.35-1.9,1.06-2.61c.71-.71,1.59-1.06,2.66-1.06.81,0,1.53.24,2.18.71.64.47,1.06,1.08,1.26,1.83h-1.57c-.14-.35-.38-.62-.73-.83-.35-.21-.73-.31-1.14-.31-.67,0-1.21.22-1.63.65s-.63.97-.63,1.62.21,1.19.63,1.62c.42.43.96.65,1.63.65.41,0,.79-.1,1.14-.31.35-.21.59-.48.73-.83h1.57c-.2.75-.62,1.36-1.26,1.83-.64.47-1.37.71-2.18.71Z"/>
        <path d="M32.65,39.5v-7.1h1.45v2.83h3.08v-2.83h1.45v7.1h-1.45v-2.89h-3.08v2.89h-1.45Z"/>
        <path d="M46.25,38.55c-.72.72-1.58,1.08-2.59,1.08s-1.88-.36-2.59-1.08c-.72-.72-1.08-1.58-1.08-2.59s.36-1.88,1.08-2.6c.72-.72,1.58-1.08,2.59-1.08s1.88.36,2.59,1.08c.72.72,1.08,1.58,1.08,2.6s-.36,1.88-1.08,2.59ZM42.09,37.56c.43.44.95.67,1.57.67s1.13-.22,1.57-.67c.43-.44.64-.98.64-1.6s-.21-1.16-.64-1.6c-.43-.44-.95-.67-1.57-.67s-1.13.22-1.57.67c-.43.44-.64.98-.64,1.6s.21,1.16.64,1.6Z"/>
        <path d="M55.03,39.5h-1.25l-3.64-4.63v4.63h-1.45v-7.1h1.25l3.64,4.63v-4.63h1.45v7.1Z"/>
        <path d="M59.09,39.62c-.81,0-1.46-.23-1.95-.7-.49-.46-.75-1-.78-1.62h1.45c.05.31.2.56.43.73s.52.25.85.25c.3,0,.54-.06.73-.19s.28-.31.28-.52c0-.39-.32-.68-.95-.86l-.75-.22c-.58-.17-1.03-.43-1.36-.78-.33-.35-.49-.79-.5-1.32,0-.65.22-1.16.65-1.53.43-.38,1.01-.57,1.73-.57s1.32.22,1.77.66.69.94.72,1.5h-1.44c-.07-.28-.21-.49-.4-.62-.19-.13-.41-.2-.65-.2-.27,0-.49.06-.66.17s-.26.28-.26.48c0,.21.06.39.21.52.15.13.37.24.68.33l.83.23c1.23.34,1.84,1.06,1.84,2.15,0,.61-.23,1.12-.68,1.52-.46.4-1.05.6-1.79.6Z"/>
        <path d="M0,49.5v-7.1h1.45v5.72h3.04v1.38H0Z"/>
        <path d="M4.93,49.5l3.06-7.1h1.29l3.07,7.1h-1.52l-.69-1.62h-3.03l-.68,1.62h-1.5ZM8.63,44.31l-.98,2.3h1.95l-.97-2.3Z"/>
        <path d="M16.35,49.62c-1.07,0-1.95-.35-2.66-1.06-.71-.71-1.06-1.58-1.06-2.61s.35-1.9,1.06-2.61c.71-.71,1.59-1.06,2.66-1.06.81,0,1.53.24,2.18.71.64.47,1.06,1.08,1.26,1.83h-1.57c-.14-.35-.38-.62-.73-.83-.35-.21-.73-.31-1.14-.31-.67,0-1.21.22-1.63.65s-.63.97-.63,1.62.21,1.19.63,1.62c.42.43.96.65,1.63.65.41,0,.79-.1,1.14-.31.35-.21.59-.48.73-.83h1.57c-.2.75-.62,1.36-1.26,1.83-.64.47-1.37.71-2.18.71Z"/>
        <path d="M21.04,49.5v-7.1h2.72c.65,0,1.17.2,1.58.6s.61.9.61,1.5c0,.93-.49,1.55-1.46,1.85l2.55,3.15h-1.75l-2.44-2.99h-.35v2.99h-1.45ZM22.49,45.27h1.1c.28,0,.5-.07.67-.21s.25-.32.25-.56-.08-.43-.25-.56-.38-.21-.67-.21h-1.1v1.54Z"/>
        <path d="M29.22,49.5v-2.99l-2.62-4.11h1.68l1.66,2.69,1.67-2.69h1.69l-2.63,4.12v2.98h-1.45Z"/>
        <path d="M34.39,42.4h1.32l2.31,3.17,2.31-3.17h1.32v7.1h-1.45v-4.62l-2.18,2.99-2.18-2.99v4.62h-1.45v-7.1Z"/>
        <path d="M42.65,49.5l3.06-7.1h1.29l3.07,7.1h-1.52l-.69-1.62h-3.03l-.68,1.62h-1.5ZM46.35,44.31l-.98,2.3h1.95l-.97-2.3Z"/>
        <path d="M53.6,49.62c-.86,0-1.56-.27-2.09-.8-.53-.53-.8-1.24-.8-2.12v-4.3h1.45v4.32c0,.47.13.83.39,1.1.26.27.61.4,1.05.4s.79-.13,1.05-.4c.26-.27.39-.63.39-1.1v-4.32h1.45v4.3c0,.87-.27,1.58-.81,2.11s-1.23.81-2.08.81Z"/>
        <path d="M59.04,49.5h-1.7l2.67-3.59-2.52-3.51h1.68l1.71,2.39,1.72-2.39h1.68l-2.53,3.51,2.68,3.59h-1.7l-1.85-2.46-1.84,2.46Z"/>
      </g>
      <path class="cls-1" d="M40.43,5.83l-5.1-3.3s2.9-3.8,10.5-.3c7.6,3.5,6.3,8,6.3,8l-5.2-1.2-5.7,10.4s-.3.8.7,1.3c.4.3,1.9.9,2.1,1,.9.4,1.8,1.8.3,2.5-2.3,1.1-9.5,3.8-9.5,3.8,0,0-2.1.9-3-1.3-.9-2.2-2.9-9.2-2.9-9.2,0,0-.3-2.5,2.2-1.6l2.5,1.3s.9.6,1.6-.6c.9-1.5,5.3-10.8,5.2-10.8h0Z"/>
    </g>
  </g>
</svg>
