<?xml version="1.0" encoding="UTF-8"?>
<svg id="Layer_2" data-name="Layer 2" xmlns="http://www.w3.org/2000/svg" viewBox="0 0 138.37 89.3">
  <defs>
    <style>
      .cls-1 {
        fill: #fff;
      }
    </style>
  </defs>
  <g id="Inner_White_Words" data-name="Inner White Words">
    <g>
      <path class="cls-1" d="M0,9.12L5.5,0l5.55,3.35-1.07,1.77-3.69-2.22-1.14,1.89,2.89,1.74-1.07,1.77-2.89-1.74-2.22,3.69-1.86-1.12Z"/>
      <path class="cls-1" d="M5.24,12.28l9.43-6.75,1.66,1-1.56,11.5-1.95-1.18.37-2.62-3.89-2.35-2.13,1.55-1.93-1.16ZM14.02,8.48l-3.04,2.2,2.5,1.51.54-3.71Z"/>
      <path class="cls-1" d="M19.56,21.13c-1.37-.83-2.24-1.97-2.6-3.42-.36-1.46-.14-2.85.66-4.17.8-1.33,1.93-2.17,3.38-2.53,1.45-.36,2.87-.13,4.24.7,1.03.62,1.78,1.49,2.25,2.59.46,1.1.53,2.21.2,3.34l-2.02-1.22c.09-.55-.01-1.1-.3-1.64-.29-.54-.7-.96-1.22-1.28-.86-.52-1.72-.66-2.6-.43-.88.23-1.56.76-2.06,1.59-.5.83-.65,1.69-.45,2.57.2.88.73,1.58,1.59,2.1.52.31,1.09.48,1.7.48.61,0,1.14-.16,1.59-.5l2.02,1.22c-.84.81-1.86,1.27-3.05,1.38-1.19.11-2.3-.15-3.34-.78Z"/>
      <path class="cls-1" d="M26.97,25.39l4.43-7.35-2.43-1.46,1.07-1.77,6.76,4.08-1.07,1.77-2.45-1.48-4.43,7.35-1.88-1.13Z"/>
      <path class="cls-1" d="M32.58,28.78l5.5-9.12,5.68,3.43-1.07,1.77-3.81-2.3-1.13,1.88,3.04,1.84-1.07,1.77-3.04-1.84-1.16,1.93,3.81,2.3-1.07,1.77-5.68-3.43Z"/>
      <path class="cls-1" d="M43.39,35.51c-1.1-.67-1.79-1.55-2.06-2.65-.27-1.1-.07-2.21.62-3.34l3.33-5.52,1.86,1.12-3.35,5.55c-.36.6-.48,1.17-.35,1.71.13.54.47.99,1.04,1.33.56.34,1.12.44,1.66.3.54-.14.99-.51,1.35-1.11l3.35-5.55,1.86,1.12-3.33,5.52c-.68,1.12-1.57,1.82-2.68,2.09-1.11.27-2.21.08-3.29-.58Z"/>
      <path class="cls-1" d="M49.12,38.76l5.5-9.12,3.49,2.11c.83.5,1.35,1.17,1.56,1.99.21.83.08,1.62-.38,2.39-.72,1.2-1.83,1.61-3.31,1.24l.83,6.02-2.25-1.36-.82-5.73-.45-.27-2.32,3.84-1.86-1.12ZM54.26,34.45l1.41.85c.36.22.7.3,1.01.25.31-.05.57-.23.75-.54s.23-.61.12-.92c-.1-.3-.34-.56-.7-.78l-1.41-.85-1.19,1.98Z"/>
      <path class="cls-1" d="M60.24,45.68c-1.04-.63-1.69-1.43-1.97-2.4-.27-.98-.19-1.88.26-2.69l1.86,1.12c-.17.44-.18.87,0,1.26s.46.73.89.99c.38.23.75.34,1.09.32.34-.02.6-.17.77-.46.3-.51.12-1.12-.55-1.84l-.79-.86c-.62-.66-1-1.35-1.14-2.06-.15-.71-.02-1.4.38-2.08.5-.83,1.17-1.32,2.02-1.47.85-.15,1.73.06,2.66.61.93.56,1.52,1.3,1.77,2.21s.16,1.74-.24,2.49l-1.85-1.12c.12-.42.11-.79-.03-1.11-.15-.32-.37-.57-.68-.76-.34-.21-.67-.3-.98-.28-.31.02-.55.16-.72.42-.17.27-.22.54-.13.83s.29.6.62.95l.89.94c1.31,1.39,1.54,2.78.7,4.19-.47.79-1.16,1.26-2.05,1.42-.89.16-1.81-.05-2.75-.62Z"/>
      <path class="cls-1" d="M67.95,50.12l5.5-9.12,3.01,1.81c1.31.79,2.15,1.9,2.53,3.33.38,1.43.18,2.78-.59,4.06-.77,1.28-1.88,2.08-3.31,2.42s-2.81.11-4.12-.68l-3.01-1.81ZM70.84,49.54l1.14.69c.83.5,1.67.64,2.52.4.85-.23,1.52-.75,2.01-1.56.49-.8.63-1.64.44-2.5s-.7-1.54-1.53-2.05l-1.14-.69-3.44,5.7Z"/>
      <path class="cls-1" d="M77.15,55.67l5.5-9.12,5.68,3.43-1.07,1.77-3.81-2.3-1.13,1.88,3.04,1.84-1.07,1.77-3.04-1.84-1.16,1.93,3.81,2.3-1.07,1.77-5.68-3.43Z"/>
      <path class="cls-1" d="M87.37,61.84l5.5-9.12,3.49,2.11c.83.5,1.35,1.16,1.56,1.99.21.83.08,1.62-.38,2.4-.72,1.2-1.83,1.61-3.31,1.24l.83,6.02-2.25-1.36-.82-5.73-.45-.27-2.32,3.84-1.86-1.12ZM92.51,57.53l1.41.85c.36.22.7.3,1.01.25.31-.05.57-.23.75-.54.19-.31.23-.61.12-.92s-.34-.56-.7-.78l-1.41-.85-1.19,1.98Z"/>
      <path class="cls-1" d="M95.79,66.93l5.5-9.12,1.86,1.12-5.5,9.12-1.86-1.12Z"/>
      <path class="cls-1" d="M102.52,71.2c-1.04-.62-1.69-1.43-1.97-2.4-.27-.98-.19-1.87.26-2.69l1.86,1.12c-.17.44-.18.87,0,1.26.17.4.47.73.89.99.38.23.75.34,1.09.32.34-.02.6-.17.77-.46.3-.5.12-1.12-.55-1.84l-.79-.86c-.62-.66-1-1.35-1.14-2.06-.15-.71-.02-1.4.38-2.08.5-.83,1.18-1.32,2.02-1.47.85-.15,1.74.06,2.66.62.93.56,1.52,1.3,1.77,2.21s.16,1.74-.24,2.49l-1.85-1.12c.12-.42.11-.79-.03-1.11-.15-.32-.37-.58-.68-.76-.34-.21-.67-.3-.98-.28-.31.02-.55.16-.72.42-.17.27-.22.55-.13.83.08.28.29.6.62.95l.89.94c1.31,1.39,1.54,2.78.7,4.19-.47.79-1.16,1.26-2.05,1.41-.89.16-1.81-.05-2.75-.62Z"/>
      <path class="cls-1" d="M111.38,76.54c-1.3-.79-2.13-1.92-2.5-3.39-.37-1.47-.16-2.86.63-4.17.79-1.3,1.92-2.13,3.39-2.5,1.47-.37,2.86-.16,4.17.63,1.3.79,2.13,1.92,2.5,3.39.36,1.48.16,2.87-.63,4.17-.55.92-1.32,1.62-2.29,2.11l1.22,3.47-2.62-1.58-.48-1.36c-1.19.13-2.32-.12-3.39-.77ZM112.47,74.74c.51.31,1.03.46,1.58.46l-.66-1.92,1.84-.64.71,2.05c.47-.29.85-.68,1.14-1.16.48-.8.62-1.66.41-2.56-.21-.9-.71-1.59-1.49-2.07s-1.63-.59-2.52-.36c-.9.24-1.59.76-2.07,1.56-.49.8-.62,1.66-.41,2.56.21.9.71,1.59,1.49,2.07Z"/>
      <path class="cls-1" d="M121.46,82.63c-1.1-.67-1.79-1.55-2.06-2.65-.27-1.1-.07-2.21.62-3.34l3.33-5.52,1.86,1.12-3.35,5.55c-.36.6-.48,1.17-.35,1.71.13.54.47.99,1.04,1.33.56.34,1.12.44,1.66.3.54-.14.99-.51,1.35-1.11l3.35-5.55,1.86,1.12-3.33,5.52c-.68,1.12-1.57,1.82-2.68,2.09-1.11.27-2.21.08-3.29-.58Z"/>
      <path class="cls-1" d="M127.19,85.88l5.5-9.12,5.68,3.43-1.07,1.77-3.81-2.3-1.13,1.88,3.04,1.84-1.07,1.77-3.04-1.84-1.16,1.93,3.81,2.3-1.07,1.77-5.68-3.43Z"/>
    </g>
  </g>
</svg>