<?xml version="1.0" encoding="UTF-8"?>
<svg id="Layer_2" data-name="Layer 2" xmlns="http://www.w3.org/2000/svg" viewBox="0 0 56.9 44.08">
  <g id="Icons">
    <g>
      <g>
        <path d="M3.24,33.96v-7.1h1.45v5.72h3.04v1.38H3.24Z"/>
        <path d="M8.95,33.96v-7.1h4.42v1.38h-2.97v1.46h2.37v1.38h-2.37v1.5h2.97v1.38h-4.42Z"/>
        <path d="M21.17,33.96h-1.25l-3.64-4.63v4.63h-1.45v-7.1h1.25l3.64,4.63v-4.63h1.45v7.1Z"/>
        <path d="M24.26,33.96v-5.72h-1.89v-1.38h5.26v1.38h-1.91v5.72h-1.46Z"/>
        <path d="M28.83,33.96v-7.1h1.45v7.1h-1.45Z"/>
        <path d="M32.06,33.96v-7.1h1.45v5.72h3.04v1.38h-4.49Z"/>
        <path d="M37.77,33.96v-7.1h1.45v5.72h3.04v1.38h-4.49Z"/>
        <path d="M43.48,33.96v-7.1h4.42v1.38h-2.97v1.46h2.37v1.38h-2.37v1.5h2.97v1.38h-4.42Z"/>
        <path d="M51.64,34.08c-.81,0-1.46-.23-1.95-.7-.49-.46-.75-1-.78-1.62h1.45c.05.31.2.56.43.73s.52.25.85.25c.3,0,.54-.06.73-.19s.28-.31.28-.52c0-.39-.32-.68-.95-.86l-.75-.22c-.58-.17-1.03-.43-1.36-.78-.33-.35-.49-.79-.5-1.32,0-.65.22-1.16.65-1.53.43-.38,1.01-.57,1.73-.57s1.32.22,1.77.66.69.94.72,1.5h-1.44c-.07-.28-.21-.49-.4-.62-.19-.13-.41-.2-.65-.2-.27,0-.49.06-.66.17s-.26.28-.26.48c0,.21.06.39.21.52.15.13.37.24.68.33l.83.23c1.23.34,1.84,1.06,1.84,2.15,0,.61-.23,1.12-.68,1.52-.46.4-1.05.6-1.79.6Z"/>
        <path d="M2.73,44.08c-.81,0-1.46-.23-1.95-.7-.49-.46-.75-1-.78-1.62h1.45c.05.31.2.56.43.73s.52.25.85.25c.3,0,.54-.06.73-.19s.28-.31.28-.52c0-.39-.32-.68-.95-.86l-.75-.22c-.58-.17-1.03-.43-1.36-.78-.33-.35-.49-.79-.5-1.32,0-.65.22-1.16.65-1.53.43-.38,1.01-.57,1.73-.57s1.32.22,1.77.66.69.94.72,1.5h-1.44c-.07-.28-.21-.49-.4-.62-.19-.13-.41-.2-.65-.2-.27,0-.49.06-.66.17s-.26.28-.26.48c0,.21.06.39.21.52.15.13.37.24.68.33l.83.23c1.23.34,1.84,1.06,1.84,2.15,0,.61-.23,1.12-.68,1.52-.46.4-1.05.6-1.79.6Z"/>
        <path d="M9.89,44.08c-1.07,0-1.95-.35-2.66-1.06-.71-.71-1.06-1.58-1.06-2.61s.35-1.9,1.06-2.61c.71-.71,1.59-1.06,2.66-1.06.81,0,1.53.24,2.18.71.64.47,1.06,1.08,1.26,1.83h-1.57c-.14-.35-.38-.62-.73-.83-.35-.21-.73-.31-1.14-.31-.67,0-1.21.22-1.63.65s-.63.97-.63,1.62.21,1.19.63,1.62c.42.43.96.65,1.63.65.41,0,.79-.1,1.14-.31.35-.21.59-.48.73-.83h1.57c-.2.75-.62,1.36-1.26,1.83-.64.47-1.37.71-2.18.71Z"/>
        <path d="M14.58,43.96v-7.1h1.45v5.72h3.04v1.38h-4.49Z"/>
        <path d="M20.29,43.96v-7.1h4.42v1.38h-2.97v1.46h2.37v1.38h-2.37v1.5h2.97v1.38h-4.42ZM22.05,36.25l.72-1.57h1.54l-1.23,1.57h-1.03Z"/>
        <path d="M26.17,43.96v-7.1h2.72c.65,0,1.17.2,1.58.6s.61.9.61,1.5c0,.93-.49,1.55-1.46,1.85l2.55,3.15h-1.75l-2.44-2.99h-.35v2.99h-1.45ZM27.62,39.73h1.1c.28,0,.5-.07.67-.21s.25-.32.25-.56-.08-.43-.25-.56-.38-.21-.67-.21h-1.1v1.54Z"/>
        <path d="M32.15,43.96l3.06-7.1h1.29l3.07,7.1h-1.52l-.69-1.62h-3.03l-.68,1.62h-1.5ZM35.85,38.77l-.98,2.3h1.95l-.97-2.3Z"/>
        <path d="M40.56,43.96v-7.1h1.45v5.72h3.04v1.38h-4.49Z"/>
        <path d="M46.27,43.96v-7.1h4.42v1.38h-2.97v1.46h2.37v1.38h-2.37v1.5h2.97v1.38h-4.42Z"/>
        <path d="M54.43,44.08c-.81,0-1.46-.23-1.95-.7-.49-.46-.75-1-.78-1.62h1.45c.05.31.2.56.43.73s.52.25.85.25c.3,0,.54-.06.73-.19s.28-.31.28-.52c0-.39-.32-.68-.95-.86l-.75-.22c-.58-.17-1.03-.43-1.36-.78-.33-.35-.49-.79-.5-1.32,0-.65.22-1.16.65-1.53.43-.38,1.01-.57,1.73-.57s1.32.22,1.77.66.69.94.72,1.5h-1.44c-.07-.28-.21-.49-.4-.62-.19-.13-.41-.2-.65-.2-.27,0-.49.06-.66.17s-.26.28-.26.48c0,.21.06.39.21.52.15.13.37.24.68.33l.83.23c1.23.34,1.84,1.06,1.84,2.15,0,.61-.23,1.12-.68,1.52-.46.4-1.05.6-1.79.6Z"/>
      </g>
      <g id="f30c7K">
        <path d="M16.74,6.51c-1,1.1-2,2.1-2.9,3.2-2.3,3.1-3.5,6.6-3.7,10.5v.3c-.1,1-.5,1.5-1.2,1.5s-1.1-.6-1-1.5c.4-8.2,4.1-14.4,11.4-18.1,12.8-6.6,27.8,1,30.3,15.2.2,1,.2,2.1.3,3.1,0,.8-.2,1.3-1.1,1.4-.7,0-1.1-.4-1.1-1.3-.1-3.7-1.1-7.2-3.3-10.2-1-1.3-2.1-2.5-3.3-4-1.1,2.7-3.2,3.6-5.4,4.2-4.7,1.3-9.5,1.3-14.2-.2-2.4-.9-3.4-1.8-4.8-4.1h0ZM34.54,4.01c0-.7-.7-1-1.3-1.2-2.2-.7-4.4-.7-6.6-.4-.8.1-1.6.3-2.4.6-.6.2-1.1.7-.8,1.4.2.7.8.9,1.5.7,2.8-.7,5.5-.8,8.2,0,.8.3,1.4-.3,1.4-1.1h0Z"/>
      </g>
    </g>
  </g>
</svg>