<?xml version="1.0" encoding="UTF-8"?>
<svg id="Layer_2" data-name="Layer 2" xmlns="http://www.w3.org/2000/svg" viewBox="0 0 49.17 37.91">
  <defs>
    <style>
      .cls-1 {
        fill: #fff;
      }
    </style>
  </defs>
  <g id="Inner_White_Words" data-name="Inner White Words">
    <g>
      <path class="cls-1" d="M8.19,37.07c-1,.68-2,.95-3,.79-1-.16-1.78-.61-2.34-1.35l1.79-1.23c.33.34.71.52,1.15.53.43.01.85-.12,1.27-.41.37-.25.62-.54.74-.86.12-.32.09-.61-.1-.89-.33-.49-.97-.57-1.9-.26l-1.12.36c-.86.29-1.64.35-2.34.19-.71-.16-1.28-.56-1.74-1.21-.55-.8-.71-1.62-.5-2.45.22-.83.77-1.56,1.66-2.17.9-.62,1.82-.85,2.75-.69.93.16,1.65.57,2.17,1.25l-1.78,1.22c-.33-.28-.67-.43-1.02-.43-.35,0-.68.1-.97.3-.33.23-.55.48-.66.77-.11.29-.08.56.08.83.17.27.41.43.7.47.29.04.67-.02,1.12-.17l1.22-.42c1.81-.62,3.17-.25,4.1,1.1.52.76.67,1.58.44,2.46-.23.88-.8,1.63-1.7,2.25Z"/>
      <path class="cls-1" d="M12.6,33.83l-6.02-8.79,5.47-3.75,1.17,1.71-3.68,2.52,1.24,1.81,2.93-2.01,1.17,1.71-2.93,2.01,1.27,1.86,3.68-2.52,1.17,1.71-5.47,3.75ZM8.25,22.81l-.44-2.55,1.91-1.3-.19,2.98-1.27.87Z"/>
      <path class="cls-1" d="M22.32,27.18l-9.64-6.3,1.94-1.33,6.67,4.4-1.73-7.78,1.98-1.36,2.38,11.28-1.6,1.09Z"/>
      <path class="cls-1" d="M25.32,11.12l-1.27.87-2.85-.9,1.9-1.31,2.22,1.33ZM28.55,22.91l-6.02-8.79,5.47-3.75,1.17,1.71-3.68,2.52,1.24,1.81,2.93-2.01,1.17,1.71-2.93,2.01,1.27,1.86,3.68-2.52,1.17,1.71-5.47,3.75Z"/>
      <path class="cls-1" d="M35.58,18.09l-6.02-8.79,3.37-2.31c.8-.55,1.62-.75,2.46-.59.84.15,1.51.6,2.02,1.34.79,1.16.71,2.33-.24,3.53l5.83,1.74-2.17,1.48-5.55-1.63-.43.3,2.53,3.7-1.79,1.23ZM33.79,11.63l1.36-.93c.35-.24.56-.51.65-.82.08-.31.03-.61-.18-.91s-.46-.46-.78-.49c-.32-.03-.65.07-1,.31l-1.36.93,1.31,1.91Z"/>
      <path class="cls-1" d="M43.7,12.53l-6.02-8.79,5.47-3.75,1.17,1.71-3.68,2.52,1.24,1.81,2.93-2.01,1.17,1.71-2.93,2.01,1.27,1.86,3.68-2.52,1.17,1.71-5.47,3.75Z"/>
    </g>
  </g>
</svg>