<?xml version="1.0" encoding="UTF-8"?>
<svg id="Layer_2" data-name="Layer 2" xmlns="http://www.w3.org/2000/svg" viewBox="0 0 53.72 53.65">
  <defs>
    <style>
      .cls-1 {
        stroke: #000;
        stroke-miterlimit: 10;
        stroke-width: .25px;
      }
    </style>
  </defs>
  <g id="Icons">
    <g>
      <g id="WiJ8ZH">
        <g>
          <path class="cls-1" d="M44.79,3.63c-1.73,0-3.46,0-5.19,0-1.19,0-2.41-.19-2.47-1.61-.07-1.51,1.16-1.87,2.43-1.88,2.91-.02,5.83-.08,8.74.06.79.04,1.79.57,2.22,1.2.27.39-.18,1.53-.62,2.09-1.94,2.48-4,4.86-6.01,7.28-.35.42-.68.87-1.4,1.78,2.25,0,3.97.02,5.68,0,1.27-.02,2.53.21,2.52,1.72,0,1.51-1.25,1.73-2.53,1.72-2.91-.03-5.83.06-8.74-.06-.75-.03-1.76-.51-2.11-1.1-.26-.45.14-1.56.58-2.11,2.3-2.91,4.71-5.74,7.09-8.6-.07-.17-.13-.33-.2-.5Z"/>
          <path class="cls-1" d="M26.77,16c-2.22,0-3.89-.01-5.57,0-1.26.01-2.55-.17-2.6-1.67-.05-1.51,1.21-1.78,2.49-1.77,2.92,0,5.83-.07,8.74.04.75.03,1.84.49,2.11,1.06.26.55-.16,1.65-.62,2.25-1.74,2.26-3.63,4.41-5.45,6.61-.51.61-.99,1.25-1.72,2.16.84.11,1.32.21,1.8.22,1.46.03,2.95-.16,4.36.1.72.13,1.3,1.03,1.95,1.58-.62.57-1.22,1.61-1.87,1.64-3.31.17-6.64.15-9.96.05-1.78-.05-2.39-1.52-1.27-2.93,2.03-2.55,4.15-5.04,6.23-7.56.36-.44.69-.89,1.4-1.8Z"/>
          <path class="cls-1" d="M5.51,37.3c1.29,0,2.07,0,2.84,0,1.11,0,2.22-.03,3.32.01,1.1.04,1.98.44,1.93,1.74-.04,1.18-.83,1.6-1.89,1.61-3.21.02-6.42.06-9.62-.03-.63-.02-1.55-.5-1.78-1.01-.23-.53.01-1.53.41-2.04,1.98-2.52,4.07-4.95,6.12-7.42.36-.44.7-.9,1.26-1.63-.78-.09-1.25-.18-1.73-.19-1.28-.02-2.57-.02-3.85-.01-1.2.01-2.37-.18-2.41-1.64-.04-1.62,1.22-1.75,2.46-1.75.64,0,1.28,0,1.92,0,2.27,0,4.55-.07,6.82.05.72.04,1.82.42,2.01.93.24.64-.05,1.73-.51,2.32-1.89,2.44-3.93,4.77-5.91,7.14-.39.47-.73.98-1.43,1.93Z"/>
        </g>
      </g>
      <g>
        <path d="M9.91,53.65c-.81,0-1.46-.23-1.95-.7-.49-.46-.75-1-.78-1.62h1.45c.05.31.2.56.43.73s.52.25.85.25c.3,0,.54-.06.73-.19s.28-.31.28-.52c0-.39-.32-.68-.95-.86l-.75-.22c-.58-.17-1.03-.43-1.36-.78-.33-.35-.49-.79-.5-1.32,0-.65.22-1.16.65-1.53.43-.38,1.01-.57,1.73-.57s1.32.22,1.77.66.69.94.72,1.5h-1.44c-.07-.28-.21-.49-.4-.62-.19-.13-.41-.2-.65-.2-.27,0-.49.06-.66.17s-.26.28-.26.48c0,.21.06.39.21.52.15.13.37.24.68.33l.83.23c1.23.34,1.84,1.06,1.84,2.15,0,.61-.23,1.12-.68,1.52-.46.4-1.05.6-1.79.6Z"/>
        <path d="M19.6,52.57c-.72.72-1.58,1.08-2.59,1.08s-1.88-.36-2.59-1.08c-.72-.72-1.08-1.58-1.08-2.59s.36-1.88,1.08-2.6c.72-.72,1.58-1.08,2.59-1.08s1.88.36,2.59,1.08c.72.72,1.08,1.58,1.08,2.6s-.36,1.88-1.08,2.59ZM15.44,51.58c.43.44.95.67,1.57.67s1.13-.22,1.57-.67c.43-.44.64-.98.64-1.6s-.21-1.16-.64-1.6c-.43-.44-.95-.67-1.57-.67s-1.13.22-1.57.67c-.43.44-.64.98-.64,1.6s.21,1.16.64,1.6Z"/>
        <path d="M22.04,46.43h1.32l2.31,3.17,2.31-3.17h1.32v7.1h-1.45v-4.62l-2.18,2.99-2.18-2.99v4.62h-1.45v-7.1Z"/>
        <path d="M31.08,46.43h1.32l2.31,3.17,2.31-3.17h1.32v7.1h-1.45v-4.62l-2.18,2.99-2.18-2.99v4.62h-1.45v-7.1Z"/>
        <path d="M40.12,53.53v-7.1h4.42v1.38h-2.97v1.46h2.37v1.38h-2.37v1.5h2.97v1.38h-4.42Z"/>
        <path d="M46,53.53v-7.1h1.45v7.1h-1.45Z"/>
        <path d="M49.23,53.53v-7.1h1.45v5.72h3.04v1.38h-4.49Z"/>
      </g>
    </g>
  </g>
</svg>