<?xml version="1.0" encoding="UTF-8"?>
<svg id="Layer_2" data-name="Layer 2" xmlns="http://www.w3.org/2000/svg" viewBox="0 0 149.05 95.71">
  <defs>
    <style>
      .cls-1 {
        fill: #fff;
      }
    </style>
  </defs>
  <g id="Inner_White_Words" data-name="Inner White Words">
    <g>
      <path class="cls-1" d="M7.84,95c-1.04.63-2.05.84-3.04.63-.99-.21-1.75-.7-2.26-1.48l1.86-1.13c.31.36.68.56,1.12.59.43.04.86-.08,1.29-.33.38-.23.65-.51.78-.82.14-.31.12-.61-.05-.89-.31-.5-.94-.62-1.89-.36l-1.13.3c-.87.24-1.66.26-2.35.06-.69-.2-1.25-.63-1.67-1.3-.5-.83-.62-1.65-.36-2.47.26-.82.86-1.51,1.78-2.07.93-.57,1.86-.74,2.78-.54.92.21,1.62.66,2.09,1.37l-1.85,1.12c-.31-.3-.64-.46-1-.48-.35-.02-.68.06-.99.25-.34.21-.58.45-.7.73-.13.28-.11.56.04.83.16.28.38.45.67.5.29.06.67.02,1.13-.11l1.24-.35c1.84-.52,3.18-.08,4.03,1.33.48.79.58,1.61.3,2.48-.28.86-.88,1.58-1.83,2.15Z"/>
      <path class="cls-1" d="M19.18,86.24c-.36,1.48-1.19,2.61-2.49,3.4-1.3.79-2.69,1-4.16.64-1.48-.36-2.61-1.19-3.4-2.49-.79-1.3-1-2.69-.64-4.16.36-1.48,1.19-2.61,2.49-3.4,1.3-.79,2.69-1,4.16-.64,1.48.36,2.61,1.19,3.4,2.49.79,1.3,1,2.69.64,4.16ZM13.08,88.2c.9.23,1.74.11,2.52-.36.79-.48,1.28-1.17,1.49-2.07.21-.9.07-1.76-.42-2.56-.49-.8-1.18-1.32-2.08-1.56-.9-.23-1.74-.11-2.52.36-.79.48-1.28,1.17-1.49,2.07-.21.9-.07,1.76.42,2.56.49.8,1.18,1.32,2.08,1.56Z"/>
      <path class="cls-1" d="M26.49,83.69c-1.1.67-2.21.87-3.3.6-1.1-.27-1.99-.97-2.67-2.1l-3.35-5.51,1.86-1.13,3.36,5.54c.36.6.81.97,1.36,1.11.54.14,1.09.04,1.66-.3.56-.34.91-.79,1.03-1.33.13-.54,0-1.12-.36-1.71l-3.36-5.54,1.86-1.13,3.35,5.51c.68,1.12.88,2.23.61,3.34-.27,1.11-.96,1.99-2.04,2.65Z"/>
      <path class="cls-1" d="M35.04,78.5c-1.04.63-2.05.84-3.04.63-.99-.21-1.75-.7-2.26-1.48l1.86-1.13c.31.36.68.56,1.12.59.43.04.86-.08,1.29-.33.38-.23.65-.51.78-.82s.12-.61-.05-.89c-.31-.5-.94-.62-1.89-.36l-1.13.3c-.87.24-1.66.26-2.35.06-.69-.2-1.25-.63-1.67-1.3-.5-.83-.62-1.65-.36-2.47.26-.82.86-1.51,1.78-2.07.93-.57,1.86-.74,2.78-.54.92.21,1.62.66,2.09,1.37l-1.85,1.12c-.31-.3-.64-.46-.99-.48-.35-.02-.68.06-.99.25-.34.21-.58.45-.71.73-.13.28-.11.56.04.83.16.28.38.45.67.5.29.06.67.02,1.13-.11l1.24-.35c1.84-.52,3.18-.08,4.03,1.33.48.79.58,1.61.3,2.48-.28.86-.89,1.58-1.83,2.15Z"/>
      <path class="cls-1" d="M37.68,72.93l-1.03-1.69,3.67-2.23,1.03,1.69-3.67,2.23Z"/>
      <path class="cls-1" d="M49.1,69.97c-1.37.83-2.78,1.07-4.24.71-1.46-.36-2.59-1.2-3.39-2.52-.8-1.33-1.03-2.71-.67-4.17.36-1.46,1.22-2.6,2.59-3.43,1.03-.63,2.15-.89,3.34-.79,1.19.1,2.21.56,3.05,1.37l-2.01,1.22c-.45-.34-.98-.5-1.59-.49-.61,0-1.17.17-1.7.49-.85.52-1.38,1.22-1.58,2.1-.2.88-.05,1.74.45,2.57s1.19,1.36,2.07,1.59c.88.23,1.74.08,2.6-.44.52-.32.93-.74,1.21-1.28.29-.54.39-1.08.3-1.64l2.01-1.22c.33,1.12.26,2.23-.19,3.34-.46,1.1-1.21,1.97-2.24,2.6Z"/>
      <path class="cls-1" d="M54.76,66.32l-5.53-9.1,1.86-1.13,4.45,7.33,3.9-2.37,1.07,1.77-5.76,3.49Z"/>
      <path class="cls-1" d="M60.83,62.64l-1.6-11.49,1.65-1,9.46,6.72-1.95,1.18-2.15-1.54-3.88,2.36.39,2.61-1.92,1.17ZM61.53,53.11l.53,3.71,2.5-1.52-3.03-2.19Z"/>
      <path class="cls-1" d="M74.08,54.81c-1.04.63-2.05.84-3.04.63-.99-.21-1.75-.7-2.26-1.48l1.86-1.13c.31.36.68.56,1.12.59.43.04.86-.07,1.29-.33.38-.23.65-.51.78-.82.14-.31.12-.61-.05-.89-.31-.5-.94-.62-1.89-.36l-1.13.3c-.87.24-1.66.26-2.35.06-.7-.2-1.25-.63-1.67-1.3-.5-.83-.62-1.65-.36-2.47.26-.82.86-1.51,1.78-2.07.93-.57,1.86-.74,2.78-.54.92.21,1.62.66,2.09,1.37l-1.85,1.12c-.31-.3-.64-.46-1-.48-.35-.02-.68.06-.99.25-.34.21-.58.45-.7.73-.13.28-.12.56.04.83.16.28.38.45.67.5.29.06.67.02,1.13-.11l1.24-.35c1.84-.52,3.18-.08,4.03,1.33.48.79.58,1.61.3,2.48-.28.86-.89,1.58-1.83,2.15Z"/>
      <path class="cls-1" d="M81.68,50.2c-1.04.63-2.05.84-3.04.63-.99-.21-1.75-.7-2.26-1.48l1.86-1.13c.31.36.68.56,1.12.6.43.04.86-.08,1.29-.33.38-.23.65-.51.78-.82.14-.31.12-.61-.05-.89-.31-.5-.94-.62-1.89-.36l-1.13.3c-.87.24-1.66.26-2.35.06-.69-.2-1.25-.63-1.67-1.3-.5-.83-.62-1.65-.36-2.47.26-.82.86-1.51,1.78-2.07.93-.57,1.86-.74,2.78-.54.92.21,1.62.66,2.09,1.37l-1.85,1.12c-.31-.3-.64-.46-1-.48-.35-.02-.68.06-.99.25-.34.21-.58.45-.7.73-.13.28-.11.56.04.83.16.28.38.45.67.5.29.06.67.02,1.13-.11l1.24-.35c1.84-.52,3.18-.08,4.03,1.33.48.79.58,1.61.3,2.48-.28.86-.88,1.58-1.83,2.15Z"/>
      <path class="cls-1" d="M86.27,47.2l-5.53-9.1,1.86-1.13,5.53,9.1-1.86,1.13Z"/>
      <path class="cls-1" d="M90.15,44.85l-5.53-9.1,5.54-3.36,1.07,1.77-3.68,2.23,1.14,1.89,2.89-1.75,1.07,1.77-2.89,1.75,2.23,3.68-1.86,1.13Z"/>
      <path class="cls-1" d="M97.1,40.63l-5.53-9.1,1.86-1.13,5.53,9.1-1.86,1.13Z"/>
      <path class="cls-1" d="M105.33,35.85c-1.37.83-2.78,1.07-4.24.71-1.46-.36-2.59-1.2-3.39-2.52s-1.03-2.72-.67-4.17c.36-1.46,1.22-2.6,2.59-3.43,1.03-.63,2.15-.89,3.34-.79,1.19.1,2.21.56,3.05,1.37l-2.01,1.22c-.45-.33-.98-.5-1.59-.49-.61,0-1.18.17-1.7.49-.86.52-1.38,1.22-1.58,2.1-.2.88-.05,1.74.45,2.57s1.19,1.36,2.07,1.59c.88.23,1.74.08,2.6-.44.52-.32.93-.74,1.21-1.28s.39-1.08.3-1.64l2.01-1.22c.33,1.12.27,2.23-.19,3.34-.46,1.1-1.21,1.97-2.24,2.6Z"/>
      <path class="cls-1" d="M109.75,32.96l-1.6-11.49,1.65-1,9.46,6.72-1.95,1.18-2.15-1.54-3.88,2.36.39,2.61-1.92,1.17ZM110.45,23.42l.53,3.71,2.5-1.52-3.03-2.19Z"/>
      <path class="cls-1" d="M121.07,26.08l-4.45-7.33-2.42,1.47-1.07-1.77,6.74-4.09,1.07,1.77-2.45,1.49,4.45,7.33-1.87,1.14Z"/>
      <path class="cls-1" d="M126.68,22.68l-5.53-9.1,1.86-1.13,5.53,9.1-1.86,1.13Z"/>
      <path class="cls-1" d="M137.31,14.55c-.36,1.48-1.19,2.61-2.49,3.4s-2.69,1-4.16.64c-1.48-.36-2.61-1.19-3.4-2.49-.79-1.3-1-2.69-.64-4.16s1.19-2.61,2.49-3.4c1.3-.79,2.69-1,4.17-.64,1.48.36,2.61,1.19,3.4,2.49.79,1.3,1,2.69.64,4.17ZM131.21,16.52c.9.23,1.74.11,2.52-.36.79-.48,1.28-1.17,1.49-2.07.21-.9.07-1.76-.42-2.56-.49-.8-1.18-1.32-2.08-1.56-.9-.23-1.74-.11-2.52.36-.79.48-1.28,1.17-1.49,2.07-.21.9-.07,1.76.42,2.56.49.8,1.18,1.32,2.08,1.56Z"/>
      <path class="cls-1" d="M149.05,9.1l-1.6.97-8.27-3.1,3.6,5.94-1.86,1.13-5.53-9.1,1.6-.97,8.27,3.1-3.6-5.94,1.86-1.13,5.53,9.1Z"/>
    </g>
  </g>
</svg>