<?xml version="1.0" encoding="UTF-8"?>
<svg id="Layer_2" data-name="Layer 2" xmlns="http://www.w3.org/2000/svg" viewBox="0 0 112.2 56.45">
  <defs>
    <style>
      .cls-1 {
        stroke-width: .75px;
      }

      .cls-1, .cls-2, .cls-3, .cls-4 {
        fill: none;
        stroke: #000;
        stroke-linecap: round;
        stroke-linejoin: round;
      }

      .cls-2, .cls-4 {
        stroke-width: .25px;
      }

      .cls-3 {
        stroke-width: 3px;
      }

      .cls-4 {
        stroke-dasharray: 2.02 2.02;
      }
    </style>
  </defs>
  <g id="Icons">
    <g>
      <circle cx="55.86" cy="5.35" r="4.94"/>
      <path class="cls-3" d="M32.06,15.17s20.87-30.76,47.59,0c0,0-22.9,31.26-47.59,0Z"/>
      <g>
        <path class="cls-2" d="M35.23,13.08s.2.3.58.81"/>
        <path class="cls-4" d="M37.09,15.45c4.85,5.51,18.84,17.42,38.04-.53"/>
        <path class="cls-2" d="M75.86,14.23c.24-.23.47-.46.71-.7"/>
      </g>
      <line class="cls-1" x1="55.86" y1="17.02" x2="55.86" y2="23.95"/>
      <line class="cls-1" x1="54.63" y1="24.36" x2="57.09" y2="24.36"/>
      <g>
        <line class="cls-1" x1="55.9" y1="30.96" x2="55.9" y2="34.7"/>
        <line class="cls-1" x1="54.68" y1="30.96" x2="57.13" y2="30.96"/>
      </g>
      <path class="cls-3" d="M45.11,4.91c0,5.94,4.81,10.75,10.75,10.75s10.75-4.81,10.75-10.75"/>
      <g>
        <path d="M22.73,46.33v-7.1h1.45v2.83h3.08v-2.83h1.45v7.1h-1.45v-2.89h-3.08v2.89h-1.45Z"/>
        <path d="M29.71,46.33l3.06-7.1h1.29l3.07,7.1h-1.52l-.69-1.62h-3.03l-.68,1.62h-1.5ZM33.41,41.14l-.98,2.3h1.95l-.97-2.3Z"/>
        <path d="M40.66,46.45c-.86,0-1.56-.27-2.09-.8-.53-.53-.8-1.24-.8-2.12v-4.3h1.45v4.32c0,.47.13.83.39,1.1.26.27.61.4,1.05.4s.79-.13,1.05-.4c.26-.27.39-.63.39-1.1v-4.32h1.45v4.3c0,.87-.27,1.58-.81,2.11s-1.23.81-2.08.81Z"/>
        <path d="M46.56,46.33v-5.72h-1.89v-1.38h5.26v1.38h-1.91v5.72h-1.46Z"/>
        <path d="M51.13,46.33v-7.1h4.42v1.38h-2.97v1.46h2.37v1.38h-2.37v1.5h2.97v1.38h-4.42Z"/>
        <path d="M59.82,46.45c-.86,0-1.56-.27-2.09-.8-.53-.53-.8-1.24-.8-2.12v-4.3h1.45v4.32c0,.47.13.83.39,1.1.26.27.61.4,1.05.4s.79-.13,1.05-.4c.26-.27.39-.63.39-1.1v-4.32h1.45v4.3c0,.87-.27,1.58-.81,2.11s-1.23.81-2.08.81Z"/>
        <path d="M64.41,46.33v-7.1h2.72c.65,0,1.17.2,1.58.6s.61.9.61,1.5c0,.93-.49,1.55-1.46,1.85l2.55,3.15h-1.75l-2.44-2.99h-.35v2.99h-1.45ZM65.86,42.1h1.1c.28,0,.5-.07.67-.21s.25-.32.25-.56-.08-.43-.25-.56-.38-.21-.67-.21h-1.1v1.54Z"/>
        <path d="M73.45,46.33v-7.1h2.34c1.02,0,1.88.34,2.59,1.03.71.69,1.06,1.53,1.06,2.52s-.35,1.83-1.06,2.52c-.71.69-1.57,1.03-2.59,1.03h-2.34ZM74.9,45h.89c.65,0,1.17-.21,1.58-.64.41-.43.61-.95.61-1.58s-.2-1.15-.61-1.58-.93-.64-1.58-.64h-.89v4.44Z"/>
        <path d="M83.62,46.45c-.86,0-1.56-.27-2.09-.8-.53-.53-.8-1.24-.8-2.12v-4.3h1.45v4.32c0,.47.13.83.39,1.1.26.27.61.4,1.05.4s.79-.13,1.05-.4c.26-.27.39-.63.39-1.1v-4.32h1.45v4.3c0,.87-.27,1.58-.81,2.11s-1.23.81-2.08.81Z"/>
        <path d="M0,49.23h1.32l2.31,3.17,2.31-3.17h1.32v7.1h-1.45v-4.62l-2.18,2.99-2.18-2.99v4.62H0v-7.1Z"/>
        <path d="M9.04,56.33v-7.1h4.42v1.38h-2.97v1.46h2.37v1.38h-2.37v1.5h2.97v1.38h-4.42ZM10.8,48.63l.72-1.57h1.54l-1.23,1.57h-1.03Z"/>
        <path d="M21.26,56.33h-1.25l-3.64-4.63v4.63h-1.45v-7.1h1.25l3.64,4.63v-4.63h1.45v7.1Z"/>
        <path d="M23.04,56.33v-7.1h1.45v7.1h-1.45Z"/>
        <path d="M28.55,56.45c-.81,0-1.46-.23-1.95-.7-.49-.46-.75-1-.78-1.62h1.45c.05.31.2.56.43.73s.52.25.85.25c.3,0,.54-.06.73-.19s.28-.31.28-.52c0-.39-.32-.68-.95-.86l-.75-.22c-.58-.17-1.03-.43-1.36-.78-.33-.35-.49-.79-.5-1.32,0-.65.22-1.16.65-1.53.43-.38,1.01-.57,1.73-.57s1.32.22,1.77.66.69.94.72,1.5h-1.44c-.07-.28-.21-.49-.4-.62-.19-.13-.41-.2-.65-.2-.27,0-.49.06-.66.17s-.26.28-.26.48c0,.21.06.39.21.52.15.13.37.24.68.33l.83.23c1.23.34,1.84,1.06,1.84,2.15,0,.61-.23,1.12-.68,1.52-.46.4-1.05.6-1.79.6Z"/>
        <path d="M35.65,56.45c-1.01,0-1.88-.36-2.59-1.08-.72-.72-1.08-1.58-1.08-2.59s.36-1.88,1.08-2.6c.72-.72,1.58-1.08,2.59-1.08s1.88.36,2.59,1.08c.72.72,1.08,1.58,1.08,2.6,0,.71-.19,1.38-.58,1.99l1.89,1.56h-2.04l-.74-.61c-.63.49-1.37.73-2.2.73ZM35.65,55.05c.39,0,.75-.09,1.06-.28l-1.04-.87.83-1,1.11.93c.17-.33.25-.68.25-1.05,0-.63-.21-1.16-.64-1.6-.43-.44-.95-.67-1.57-.67s-1.13.22-1.57.67c-.43.44-.64.98-.64,1.6s.21,1.16.64,1.6c.43.44.95.67,1.57.67Z"/>
        <path d="M43.7,56.45c-.86,0-1.56-.27-2.09-.8-.53-.53-.8-1.24-.8-2.12v-4.3h1.45v4.32c0,.47.13.83.39,1.1.26.27.61.4,1.05.4s.79-.13,1.05-.4c.26-.27.39-.63.39-1.1v-4.32h1.45v4.3c0,.87-.27,1.58-.81,2.11s-1.23.81-2.08.81Z"/>
        <path d="M48.29,56.33v-7.1h4.42v1.38h-2.97v1.46h2.37v1.38h-2.37v1.5h2.97v1.38h-4.42Z"/>
        <path d="M56.65,56.33v-7.1h1.45v5.72h3.04v1.38h-4.49Z"/>
        <path d="M61.58,56.33l3.06-7.1h1.29l3.07,7.1h-1.52l-.69-1.62h-3.03l-.68,1.62h-1.5ZM65.28,51.14l-.98,2.3h1.95l-.97-2.3Z"/>
        <path d="M73,56.45c-1.07,0-1.95-.35-2.66-1.06-.71-.71-1.06-1.58-1.06-2.61s.35-1.9,1.06-2.61c.71-.71,1.59-1.06,2.66-1.06.81,0,1.53.24,2.18.71.64.47,1.06,1.08,1.26,1.83h-1.57c-.14-.35-.38-.62-.73-.83-.35-.21-.73-.31-1.14-.31-.67,0-1.21.22-1.63.65s-.63.97-.63,1.62.21,1.19.63,1.62c.42.43.96.65,1.63.65.41,0,.79-.1,1.14-.31.35-.21.59-.48.73-.83h1.57c-.2.75-.62,1.36-1.26,1.83-.64.47-1.37.71-2.18.71Z"/>
        <path d="M77.69,56.33v-7.1h2.72c.65,0,1.17.2,1.58.6s.61.9.61,1.5c0,.93-.49,1.55-1.46,1.85l2.55,3.15h-1.75l-2.44-2.99h-.35v2.99h-1.45ZM79.14,52.1h1.1c.28,0,.5-.07.67-.21s.25-.32.25-.56-.08-.43-.25-.56-.38-.21-.67-.21h-1.1v1.54Z"/>
        <path d="M85.87,56.33v-2.99l-2.62-4.11h1.68l1.66,2.69,1.67-2.69h1.69l-2.63,4.12v2.98h-1.45Z"/>
        <path d="M91.04,49.23h1.32l2.31,3.17,2.31-3.17h1.32v7.1h-1.45v-4.62l-2.18,2.99-2.18-2.99v4.62h-1.45v-7.1Z"/>
        <path d="M99.3,56.33l3.06-7.1h1.29l3.07,7.1h-1.52l-.69-1.62h-3.03l-.68,1.62h-1.5ZM103,51.14l-.98,2.3h1.95l-.97-2.3Z"/>
        <path d="M107.71,56.33v-7.1h1.45v5.72h3.04v1.38h-4.49Z"/>
      </g>
    </g>
  </g>
</svg>