<?xml version="1.0" encoding="UTF-8"?>
<svg id="Layer_2" data-name="Layer 2" xmlns="http://www.w3.org/2000/svg" viewBox="0 0 48.6 36.59">
  <defs>
    <style>
      .cls-1 {
        fill: #fff;
      }
    </style>
  </defs>
  <g id="Inner_White_Words" data-name="Inner White Words">
    <g>
      <path class="cls-1" d="M0,10.58L4.43,3.24l-2.43-1.46,1.07-1.77,6.75,4.08-1.07,1.77-2.45-1.48L1.87,11.71l-1.87-1.13Z"/>
      <path class="cls-1" d="M5.61,13.97l5.5-9.12,3.49,2.11c.83.5,1.35,1.17,1.56,1.99s.08,1.62-.39,2.39c-.72,1.2-1.83,1.61-3.31,1.24l.83,6.02-2.25-1.36-.82-5.73-.45-.27-2.32,3.84-1.86-1.12ZM10.75,9.66l1.41.85c.36.22.7.3,1.01.25.31-.05.57-.23.75-.54.19-.31.23-.61.12-.92-.1-.3-.34-.56-.7-.78l-1.41-.85-1.19,1.98Z"/>
      <path class="cls-1" d="M14.04,19.05l5.5-9.12,1.86,1.12-5.5,9.12-1.86-1.12Z"/>
      <path class="cls-1" d="M16.93,20.8l9.43-6.75,1.66,1-1.56,11.5-1.95-1.18.37-2.62-3.89-2.35-2.13,1.55-1.93-1.16ZM25.7,17l-3.04,2.19,2.5,1.51.54-3.71Z"/>
      <path class="cls-1" d="M31.27,29.66c-1.38-.83-2.25-1.98-2.61-3.43-.36-1.46-.15-2.85.66-4.18.8-1.33,1.93-2.17,3.38-2.53,1.46-.36,2.87-.13,4.24.7.96.58,1.68,1.37,2.16,2.38.48,1.01.62,2.03.42,3.06l-2.13-1.29c-.03-.46-.18-.9-.45-1.32-.28-.42-.64-.77-1.08-1.04-.86-.52-1.72-.66-2.6-.43-.88.23-1.56.76-2.06,1.59-.5.83-.65,1.69-.45,2.57.2.88.74,1.59,1.62,2.11.73.44,1.42.61,2.08.51.66-.1,1.24-.44,1.73-1.03l-2.79-1.68,1.05-1.75,4.71,2.84c-.45.97-.99,1.76-1.62,2.37-.63.61-1.3,1.01-2,1.2-.7.19-1.41.23-2.14.12-.73-.11-1.43-.37-2.12-.79Z"/>
      <path class="cls-1" d="M37.42,33.17l5.5-9.12,5.68,3.43-1.07,1.77-3.81-2.3-1.13,1.88,3.04,1.84-1.07,1.77-3.04-1.84-1.16,1.93,3.81,2.3-1.07,1.77-5.68-3.43Z"/>
    </g>
  </g>
</svg>