<?xml version="1.0" encoding="UTF-8"?>
<svg id="Layer_2" data-name="Layer 2" xmlns="http://www.w3.org/2000/svg" viewBox="0 0 83.84 63.56">
  <defs>
    <style>
      .cls-1 {
        stroke: #000;
        stroke-miterlimit: 10;
        stroke-width: .5px;
      }
    </style>
  </defs>
  <g id="Icons">
    <g>
      <g id="_27aoYL" data-name="27aoYL">
        <g>
          <path class="cls-1" d="M50.72,2.77c0,.91.02,1.73,0,2.54-.02.53.19.69.7.69,1.52-.02,3.03.01,4.55-.02.59-.01.78.19.78.78-.01,10.8-.01,21.6,0,32.4,0,.6-.21.78-.79.78-8.35-.01-16.71-.02-25.06,0-.69,0-.84-.26-.84-.89.02-7.48.01-14.95.01-22.43,0-3.22.02-6.44-.02-9.66,0-.74.17-1.03.97-1,1.59.06,3.19,0,4.79.03.55.01.77-.16.74-.72-.04-.64.01-1.28,0-1.91-.01-.45.18-.61.62-.6.9.02,1.81-.01,2.71.01.45.01.7-.12.89-.58.51-1.25,1.49-1.94,2.84-1.95,1.35,0,2.36.63,2.89,1.88.22.52.5.66,1.02.65,1.03-.03,2.07,0,3.22,0ZM36.54,9c0-.39-.03-.68,0-.96.08-.66-.17-.9-.84-.87-1.12.05-2.23.01-3.35.02-1.08,0-1.09,0-1.09,1.09,0,9.76,0,19.53,0,29.29q0,1.18,1.16,1.18c7.34,0,14.69,0,22.03,0q1.09,0,1.09-1.08c0-8.57,0-17.13,0-25.7,0-1.33-.03-2.66.01-3.99.02-.66-.23-.83-.84-.8-1.04.04-2.08.05-3.11,0-.71-.04-.99.22-.88.91.12.74-.2.93-.93.93-4.1-.03-8.2-.02-12.29-.02-.29,0-.57,0-.97,0ZM49.5,4.05c-.16-.05-.23-.08-.31-.08-.88,0-1.76-.04-2.63,0-.65.03-1-.07-1.04-.87-.05-.97-.91-1.65-1.84-1.66-.97-.01-1.78.67-1.96,1.65-.05.26-.06.52-.1.86-.93,0-1.83,0-2.73,0-1.29,0-1.18-.15-1.18,1.22,0,.59.04,1.18-.01,1.75-.07.7.17.92.88.91,3.38-.03,6.76-.01,10.14-.02.25,0,.51-.03.78-.05v-3.71Z"/>
          <path class="cls-1" d="M59.71,39.59c-.19-1.13-1-1.88-.53-2.94.09-.2.02-.47.02-.71,0-4.04,0-8.09,0-12.13,0-.31,0-.62,0-.97h1.17c0,.32,0,.63,0,.94,0,4.1-.06,8.2.04,12.29.03,1.02-.02,1.96-.38,2.9-.05.14-.14.27-.32.64Z"/>
          <path class="cls-1" d="M59.27,20.07c1.18-.23,1.34.04.99,1.69h-.99v-1.69Z"/>
          <path class="cls-1" d="M35.41,27.64c-.21-1.07-.18-1.12.8-1.12,2.39,0,4.78,0,7.17,0,.4,0,.87-.15.89.57.01.69-.42.61-.85.61-2.44,0-4.89,0-7.33,0-.23,0-.47-.03-.68-.05Z"/>
          <path class="cls-1" d="M39.83,15.47c1.25,0,2.5.01,3.75,0,.44,0,.69.09.69.61,0,.55-.31.58-.72.58-2.53,0-5.05-.01-7.58,0-.44,0-.69-.08-.69-.61,0-.56.31-.58.72-.58,1.28,0,2.55,0,3.83,0h0Z"/>
          <path class="cls-1" d="M39.72,22.18c-1.17,0-2.34,0-3.51,0-.43,0-.94.15-.92-.61.02-.76.55-.58.96-.58,2.37-.01,4.73,0,7.1,0,.44,0,.93-.12.92.62,0,.71-.48.57-.88.57-1.22,0-2.45,0-3.67,0Z"/>
          <path class="cls-1" d="M39.81,32.05c1.25,0,2.5,0,3.75,0,.41,0,.71.04.71.59,0,.52-.26.61-.69.61-2.52,0-5.05,0-7.57,0-.42,0-.71-.05-.71-.59,0-.53.26-.61.69-.61,1.28.01,2.55,0,3.83,0Z"/>
          <path class="cls-1" d="M48.55,26.92c.68-.79,1.3-1.52,1.96-2.3.36.34.61.56.83.76-1.01,1-1.99,1.96-2.92,2.88-.59-.58-1.27-1.25-2.06-2.03.19-.15.43-.35.77-.63.42.39.83.77,1.42,1.32Z"/>
          <path class="cls-1" d="M50.6,13.64c.29.28.53.51.74.71-1.02.99-2,1.95-2.92,2.84-.59-.55-1.29-1.21-2.05-1.92.24-.23.48-.46.76-.73.42.4.81.76,1.3,1.23.71-.7,1.42-1.39,2.17-2.13Z"/>
          <path class="cls-1" d="M47.07,31.04c.55.53.92.87,1.44,1.37.62-.79,1.22-1.56,1.96-2.51.46.54.69.82.9,1.07-1.02,1.02-1.99,1.99-2.94,2.94-.66-.67-1.33-1.34-2.07-2.07.21-.24.45-.51.7-.8Z"/>
          <path class="cls-1" d="M50.52,19.08c.38.36.62.58.86.82-1.03.99-2.01,1.94-2.98,2.88-.59-.59-1.28-1.27-2.01-1.99.22-.21.46-.44.74-.7.45.41.85.78,1.37,1.26.68-.76,1.32-1.48,2.01-2.26Z"/>
        </g>
      </g>
      <g>
        <path d="M3.67,53.68c-1.01,0-1.88-.36-2.59-1.08-.72-.72-1.08-1.58-1.08-2.59s.36-1.88,1.08-2.6c.72-.72,1.58-1.08,2.59-1.08s1.88.36,2.59,1.08c.72.72,1.08,1.58,1.08,2.6,0,.71-.19,1.38-.58,1.99l1.89,1.56h-2.04l-.74-.61c-.63.49-1.37.73-2.2.73ZM3.67,52.28c.39,0,.75-.09,1.06-.28l-1.04-.87.83-1,1.11.93c.17-.33.25-.68.25-1.05,0-.63-.21-1.16-.64-1.6-.43-.44-.95-.67-1.57-.67s-1.13.22-1.57.67c-.43.44-.64.98-.64,1.6s.21,1.16.64,1.6c.43.44.95.67,1.57.67Z"/>
        <path d="M11.72,53.68c-.86,0-1.56-.27-2.09-.8-.53-.53-.8-1.24-.8-2.12v-4.3h1.45v4.32c0,.47.13.83.39,1.1.26.27.61.4,1.05.4s.79-.13,1.05-.4c.26-.27.39-.63.39-1.1v-4.32h1.45v4.3c0,.87-.27,1.58-.81,2.11s-1.23.81-2.08.81Z"/>
        <path d="M16.31,53.56v-7.1h4.42v1.38h-2.97v1.46h2.37v1.38h-2.37v1.5h2.97v1.38h-4.42Z"/>
        <path d="M24.47,53.68c-.81,0-1.46-.23-1.95-.7-.49-.46-.75-1-.78-1.62h1.45c.05.31.2.56.43.73s.52.25.85.25c.3,0,.54-.06.73-.19s.28-.31.28-.52c0-.39-.32-.68-.95-.86l-.75-.22c-.58-.17-1.03-.43-1.36-.78-.33-.35-.49-.79-.5-1.32,0-.65.22-1.16.65-1.53.43-.38,1.01-.57,1.73-.57s1.32.22,1.77.66.69.94.72,1.5h-1.44c-.07-.28-.21-.49-.4-.62-.19-.13-.41-.2-.65-.2-.27,0-.49.06-.66.17s-.26.28-.26.48c0,.21.06.39.21.52.15.13.37.24.68.33l.83.23c1.23.34,1.84,1.06,1.84,2.15,0,.61-.23,1.12-.68,1.52-.46.4-1.05.6-1.79.6Z"/>
        <path d="M29.48,53.56v-5.72h-1.89v-1.38h5.26v1.38h-1.91v5.72h-1.46Z"/>
        <path d="M34.05,53.56v-7.1h1.45v7.1h-1.45Z"/>
        <path d="M43.12,52.61c-.72.72-1.58,1.08-2.59,1.08s-1.88-.36-2.59-1.08c-.72-.72-1.08-1.58-1.08-2.59s.36-1.88,1.08-2.6c.72-.72,1.58-1.08,2.59-1.08s1.88.36,2.59,1.08c.72.72,1.08,1.58,1.08,2.6s-.36,1.88-1.08,2.59ZM38.96,51.62c.43.44.95.67,1.57.67s1.13-.22,1.57-.67c.43-.44.64-.98.64-1.6s-.21-1.16-.64-1.6c-.43-.44-.95-.67-1.57-.67s-1.13.22-1.57.67c-.43.44-.64.98-.64,1.6s.21,1.16.64,1.6Z"/>
        <path d="M51.9,53.56h-1.25l-3.64-4.63v4.63h-1.45v-7.1h1.25l3.64,4.63v-4.63h1.45v7.1Z"/>
        <path d="M60.02,53.56h-1.25l-3.64-4.63v4.63h-1.45v-7.1h1.25l3.64,4.63v-4.63h1.45v7.1Z"/>
        <path d="M61.02,53.56l3.06-7.1h1.29l3.07,7.1h-1.52l-.69-1.62h-3.03l-.68,1.62h-1.5ZM64.72,48.37l-.98,2.3h1.95l-.97-2.3Z"/>
        <path d="M69.43,53.56v-7.1h1.45v7.1h-1.45Z"/>
        <path d="M72.66,53.56v-7.1h2.72c.65,0,1.17.2,1.58.6s.61.9.61,1.5c0,.93-.49,1.55-1.46,1.85l2.55,3.15h-1.75l-2.44-2.99h-.35v2.99h-1.45ZM74.11,49.33h1.1c.28,0,.5-.07.67-.21s.25-.32.25-.56-.08-.43-.25-.56-.38-.21-.67-.21h-1.1v1.54Z"/>
        <path d="M79.42,53.56v-7.1h4.42v1.38h-2.97v1.46h2.37v1.38h-2.37v1.5h2.97v1.38h-4.42Z"/>
        <path d="M28.05,63.56l-2.93-7.1h1.57l2.01,4.93,1.98-4.93h1.6l-2.94,7.1h-1.29Z"/>
        <path d="M31.72,63.56l3.06-7.1h1.29l3.07,7.1h-1.52l-.69-1.62h-3.03l-.68,1.62h-1.5ZM35.42,58.37l-.98,2.3h1.95l-.97-2.3Z"/>
        <path d="M40.13,63.56v-7.1h1.45v5.72h3.04v1.38h-4.49Z"/>
        <path d="M45.84,63.56v-7.1h1.45v7.1h-1.45Z"/>
        <path d="M49.07,63.56v-7.1h2.34c1.02,0,1.88.34,2.59,1.03.71.69,1.06,1.53,1.06,2.52s-.35,1.83-1.06,2.52c-.71.69-1.57,1.03-2.59,1.03h-2.34ZM50.52,62.23h.89c.65,0,1.17-.21,1.58-.64.41-.43.61-.95.61-1.58s-.2-1.15-.61-1.58-.93-.64-1.58-.64h-.89v4.44Z"/>
        <path d="M56.43,63.56v-7.1h4.42v1.38h-2.97v1.46h2.37v1.38h-2.37v1.5h2.97v1.38h-4.42ZM58.19,55.86l.72-1.57h1.54l-1.23,1.57h-1.03Z"/>
      </g>
    </g>
  </g>
</svg>