<?xml version="1.0" encoding="UTF-8"?>
<svg id="Layer_2" data-name="Layer 2" xmlns="http://www.w3.org/2000/svg" viewBox="0 0 68.15 63.96">
  <defs>
    <style>
      .cls-1 {
        fill: none;
        stroke: #000;
        stroke-linecap: round;
        stroke-linejoin: round;
        stroke-width: .91px;
      }
    </style>
  </defs>
  <g id="Icons">
    <g>
      <g>
        <path d="M3.72,53.96c-1.07,0-1.95-.35-2.66-1.06-.71-.71-1.06-1.58-1.06-2.61s.35-1.9,1.06-2.61c.71-.71,1.59-1.06,2.66-1.06.81,0,1.53.24,2.18.71.64.47,1.06,1.08,1.26,1.83h-1.57c-.14-.35-.38-.62-.73-.83-.35-.21-.73-.31-1.14-.31-.67,0-1.21.22-1.63.65s-.63.97-.63,1.62.21,1.19.63,1.62c.42.43.96.65,1.63.65.41,0,.79-.1,1.14-.31.35-.21.59-.48.73-.83h1.57c-.2.75-.62,1.36-1.26,1.83-.64.47-1.37.71-2.18.71Z"/>
        <path d="M14.25,52.89c-.72.72-1.58,1.08-2.59,1.08s-1.88-.36-2.59-1.08c-.72-.72-1.08-1.58-1.08-2.59s.36-1.88,1.08-2.6c.72-.72,1.58-1.08,2.59-1.08s1.88.36,2.59,1.08c.72.72,1.08,1.58,1.08,2.6s-.36,1.88-1.08,2.59ZM10.09,51.9c.43.44.95.67,1.57.67s1.13-.22,1.57-.67c.43-.44.64-.98.64-1.6s-.21-1.16-.64-1.6c-.43-.44-.95-.67-1.57-.67s-1.13.22-1.57.67c-.43.44-.64.98-.64,1.6s.21,1.16.64,1.6Z"/>
        <path d="M16.69,46.74h1.32l2.31,3.17,2.31-3.17h1.32v7.1h-1.45v-4.62l-2.18,2.99-2.18-2.99v4.62h-1.45v-7.1Z"/>
        <path d="M29.87,47.43c.47.46.71,1.02.71,1.71s-.24,1.25-.71,1.71c-.47.46-1.07.69-1.78.69h-.91v2.32h-1.45v-7.1h2.36c.71,0,1.31.23,1.78.69ZM28.87,49.87c.2-.19.3-.44.3-.74s-.1-.55-.3-.74c-.2-.19-.47-.29-.8-.29h-.89v2.06h.89c.33,0,.6-.1.8-.29Z"/>
        <path d="M31.84,53.84v-7.1h2.72c.65,0,1.17.2,1.58.6s.61.9.61,1.5c0,.93-.49,1.55-1.46,1.85l2.55,3.15h-1.75l-2.44-2.99h-.35v2.99h-1.45ZM33.29,49.61h1.1c.28,0,.5-.07.67-.21s.25-.32.25-.56-.08-.43-.25-.56-.38-.21-.67-.21h-1.1v1.54Z"/>
        <path d="M38.6,53.84v-7.1h4.42v1.38h-2.97v1.46h2.37v1.38h-2.37v1.5h2.97v1.38h-4.42Z"/>
        <path d="M46.76,53.96c-.81,0-1.46-.23-1.95-.7-.49-.46-.75-1-.78-1.62h1.45c.05.31.2.56.43.73s.52.25.85.25c.3,0,.54-.06.73-.19s.28-.31.28-.52c0-.39-.32-.68-.95-.86l-.75-.22c-.58-.17-1.03-.43-1.36-.78-.33-.35-.49-.79-.5-1.32,0-.65.22-1.16.65-1.53.43-.38,1.01-.57,1.73-.57s1.32.22,1.77.66.69.94.72,1.5h-1.44c-.07-.28-.21-.49-.4-.62-.19-.13-.41-.2-.65-.2-.27,0-.49.06-.66.17s-.26.28-.26.48c0,.21.06.39.21.52.15.13.37.24.68.33l.83.23c1.23.34,1.84,1.06,1.84,2.15,0,.61-.23,1.12-.68,1.52-.46.4-1.05.6-1.79.6Z"/>
        <path d="M52.89,53.96c-.81,0-1.46-.23-1.95-.7-.49-.46-.75-1-.78-1.62h1.45c.05.31.2.56.43.73s.52.25.85.25c.3,0,.54-.06.73-.19s.28-.31.28-.52c0-.39-.32-.68-.95-.86l-.75-.22c-.58-.17-1.03-.43-1.36-.78-.33-.35-.49-.79-.5-1.32,0-.65.22-1.16.65-1.53.43-.38,1.01-.57,1.73-.57s1.32.22,1.77.66.69.94.72,1.5h-1.44c-.07-.28-.21-.49-.4-.62-.19-.13-.41-.2-.65-.2-.27,0-.49.06-.66.17s-.26.28-.26.48c0,.21.06.39.21.52.15.13.37.24.68.33l.83.23c1.23.34,1.84,1.06,1.84,2.15,0,.61-.23,1.12-.68,1.52-.46.4-1.05.6-1.79.6Z"/>
        <path d="M56.74,53.84v-7.1h4.42v1.38h-2.97v1.46h2.37v1.38h-2.37v1.5h2.97v1.38h-4.42Z"/>
        <path d="M64.9,53.96c-.81,0-1.46-.23-1.95-.7-.49-.46-.75-1-.78-1.62h1.45c.05.31.2.56.43.73s.52.25.85.25c.3,0,.54-.06.73-.19s.28-.31.28-.52c0-.39-.32-.68-.95-.86l-.75-.22c-.58-.17-1.03-.43-1.36-.78-.33-.35-.49-.79-.5-1.32,0-.65.22-1.16.65-1.53.43-.38,1.01-.57,1.73-.57s1.32.22,1.77.66.69.94.72,1.5h-1.44c-.07-.28-.21-.49-.4-.62-.19-.13-.41-.2-.65-.2-.27,0-.49.06-.66.17s-.26.28-.26.48c0,.21.06.39.21.52.15.13.37.24.68.33l.83.23c1.23.34,1.84,1.06,1.84,2.15,0,.61-.23,1.12-.68,1.52-.46.4-1.05.6-1.79.6Z"/>
        <path d="M12.94,63.96c-1.07,0-1.95-.35-2.66-1.06-.71-.71-1.06-1.58-1.06-2.61s.35-1.9,1.06-2.61c.71-.71,1.59-1.06,2.66-1.06.81,0,1.53.24,2.18.71.64.47,1.06,1.08,1.26,1.83h-1.57c-.14-.35-.38-.62-.73-.83-.35-.21-.73-.31-1.14-.31-.67,0-1.21.22-1.63.65s-.63.97-.63,1.62.21,1.19.63,1.62c.42.43.96.65,1.63.65.41,0,.79-.1,1.14-.31.35-.21.59-.48.73-.83h1.57c-.2.75-.62,1.36-1.26,1.83-.64.47-1.37.71-2.18.71Z"/>
        <path d="M17.63,63.84v-7.1h1.45v2.83h3.08v-2.83h1.45v7.1h-1.45v-2.89h-3.08v2.89h-1.45Z"/>
        <path d="M24.61,63.84l3.06-7.1h1.29l3.07,7.1h-1.52l-.69-1.62h-3.03l-.68,1.62h-1.5ZM28.31,58.65l-.98,2.3h1.95l-.97-2.3Z"/>
        <path d="M35.56,63.96c-.86,0-1.56-.27-2.09-.8-.53-.53-.8-1.24-.8-2.12v-4.3h1.45v4.32c0,.47.13.83.39,1.1.26.27.61.4,1.05.4s.79-.13,1.05-.4c.26-.27.39-.63.39-1.1v-4.32h1.45v4.3c0,.87-.27,1.58-.81,2.11s-1.23.81-2.08.81Z"/>
        <path d="M40.15,63.84v-7.1h2.34c1.02,0,1.88.34,2.59,1.03.71.69,1.06,1.53,1.06,2.52s-.35,1.83-1.06,2.52c-.71.69-1.57,1.03-2.59,1.03h-2.34ZM41.6,62.51h.89c.65,0,1.17-.21,1.58-.64.41-.43.61-.95.61-1.58s-.2-1.15-.61-1.58-.93-.64-1.58-.64h-.89v4.44Z"/>
        <path d="M47.51,63.84v-7.1h4.42v1.38h-2.97v1.46h2.37v1.38h-2.37v1.5h2.97v1.38h-4.42Z"/>
        <path d="M55.67,63.96c-.81,0-1.46-.23-1.95-.7-.49-.46-.75-1-.78-1.62h1.45c.05.31.2.56.43.73s.52.25.85.25c.3,0,.54-.06.73-.19s.28-.31.28-.52c0-.39-.32-.68-.95-.86l-.75-.22c-.58-.17-1.03-.43-1.36-.78-.33-.35-.49-.79-.5-1.32,0-.65.22-1.16.65-1.53.43-.38,1.01-.57,1.73-.57s1.32.22,1.77.66.69.94.72,1.5h-1.44c-.07-.28-.21-.49-.4-.62-.19-.13-.41-.2-.65-.2-.27,0-.49.06-.66.17s-.26.28-.26.48c0,.21.06.39.21.52.15.13.37.24.68.33l.83.23c1.23.34,1.84,1.06,1.84,2.15,0,.61-.23,1.12-.68,1.52-.46.4-1.05.6-1.79.6Z"/>
      </g>
      <g>
        <g id="_7CRXi9" data-name="7CRXi9">
          <path d="M44.05,32.95c-1-.2-2.1-.6-2.9-1.4-.4-.4-.6-1-.7-1.6,0-.5.2-1,.5-1.4l-.2-.2c-.9-.9-.8-2.3,0-3.2.6-.6,1.5-.8,2.2-.5v-.5c0-.4.1-.8.3-1.1.1-.2.2-.3.3-.5.3-.3.6-.5,1-.6.2,0,.4-.1.6-.1.3,0,.6.1.9.2.2.1.4.2.6.3,0-.3.1-.5.3-.8.1-.2.2-.3.3-.5.3-.3.6-.5,1-.6.2,0,.4-.1.6-.1h.3c-1.3-4-5.3-7.6-11-7.9-7.8-.4-15.6-.8-23.4-1-2.9-.1-5.3,1-7.3,2.8-4,3.6-4.8,9.2-2,13.7,1.8,2.8,4.4,4.8,8.2,4.6,2.1-.1,4.3-.4,6.1-1.2,3.7-1.7,6.9-1.5,10.3.7,2.7,1.8,5.8,3,9.3,2.6,1.9-.2,3.7-.8,5.2-1.8-.1.2-.3.2-.5.1Z"/>
        </g>
        <g id="ToAuOY">
          <path d="M47.45,34.85c-.4-.2-.7-.3-1.1-.4-1.8-.7-3.5-1.4-5.3-2.1-1.9-.7-2.2-2.6-.8-4,0,0,.1-.1.1-.2-.7-.8-1-1.8-.5-2.8s1.5-1.4,2.7-1.2c0-1,.3-1.9,1.2-2.4s1.8-.3,2.7.2c0-.2.1-.3.1-.5.2-1.3,1.5-2,2.7-1.5,3.1,1.2,6.2,2.5,9.2,3.7,1.5.6,3,1.4,4.1,2.6,1.3,1.3,2.7,2.2,4.4,2.7.3.1.6.2.8.3.4.2.5.4.3.8,0,.1-.1.2-.1.3-1.2,3-2.4,6.1-3.6,9.1-.3.8-.5.8-1.2.5-.9-.4-1.8-.7-2.7-1.1-.2-.1-.4-.4-.5-.6-.1-.3-.6-.5-.8-.3-2,1.9-4.4,1.9-6.9,1.4-1.4-.3-2.7-.1-4,.2-.5.1-1.1.3-1.6.4-.6.1-1-.1-1.3-.6-.6-1-.3-2.4.6-3.3.4-.5.9-.8,1.5-1.2ZM53.85,22.95h0c-1.7-.7-3.4-1.4-5.1-2-.5-.2-.9,0-1.1.5-.2.5,0,1,.4,1.2,1.1.4,2.1.9,3.2,1.3.1,0,.2.1.4.2.3.2.4.4.3.7-.1.3-.4.4-.7.3-.1,0-.3-.1-.4-.2-1.8-.7-3.7-1.5-5.5-2.2-.7-.3-1.3,0-1.6.6s0,1.2.7,1.6c.2.1.3.1.5.2,1.5.6,3.1,1.2,4.6,1.9.6.2.7.5.6.9-.2.4-.5.4-1,.2-.1,0-.2-.1-.3-.1-2-.8-4.1-1.6-6.1-2.5-.1,0-.2-.1-.4-.1-.6-.2-1.2.1-1.4.6-.3.6-.1,1.2.5,1.5.2.1.4.2.5.2,2.1.8,4.2,1.7,6.3,2.5.1,0,.2.1.4.2.3.1.5.4.3.7-.1.3-.4.4-.7.3-.2,0-.3-.1-.5-.2-1.8-.7-3.6-1.5-5.4-2.2-.6-.2-1.2-.1-1.5.4s-.2,1.1.2,1.5c.2.2.4.3.6.4,3.1,1.2,6.2,2.5,9.3,3.7.6.2,1,.6,1.3,1.2.2.4.2.7-.2.9s-.6,0-.8-.3c-.2-.2-.4-.5-.6-.7-1.2-.6-3.1-.2-3.9.8-.3.4-.5.9-.5,1.4,0,.3.2.5.6.4.3-.1.7-.2,1.1-.3,1.6-.5,3.3-.7,5-.2.4.1.9.1,1.3.1,1.7,0,3.4-.3,4.6-1.7.1-.1.5-.2.7-.2s.4.1.6.2c.4.2.5.1.7-.3.8-2.1,1.7-4.3,2.6-6.4.2-.4.5-.9.4-1.3-.1-.4-.6-.6-.9-.9-1.6-1.6-3.4-2.7-5.4-3.5-1.5-.4-2.6-.8-3.7-1.3ZM63.35,38.75q.1-.1,0,0c1.2-2.8,2.3-5.6,3.4-8.3.1-.2,0-.4-.2-.5-.4-.2-.9-.3-1.3-.5-.4-.2-.6-.1-.7.3-.9,2.3-1.8,4.6-2.7,6.8-.1.3-.3.7-.4,1,0,.1,0,.4.1.4.6.3,1.2.5,1.8.8Z"/>
        </g>
        <g>
          <path class="cls-1" d="M41.25,1.65s-5.3,1.4-1.6,4.2c3.7,2.9-1.2,4.8-1.2,4.8"/>
          <path class="cls-1" d="M44.35,4.45s-2.8.8-.8,2.6-.6,3-.6,3"/>
          <path class="cls-1" d="M37.15,5.75s-1.9.6-.6,1.8c1.3,1.2-.4,2-.4,2"/>
        </g>
        <g>
          <path class="cls-1" d="M19.15.45s-5.3,1.4-1.6,4.2c3.7,2.9-1.2,4.8-1.2,4.8"/>
          <path class="cls-1" d="M22.25,3.25s-2.8.8-.8,2.6-.6,3-.6,3"/>
          <path class="cls-1" d="M15.05,4.55s-1.9.6-.6,1.8c1.3,1.2-.4,2-.4,2"/>
        </g>
      </g>
    </g>
  </g>
</svg>