<?xml version="1.0" encoding="UTF-8"?>
<svg id="Layer_2" data-name="Layer 2" xmlns="http://www.w3.org/2000/svg" viewBox="0 0 40.79 60.14">
  <g id="Layer_5" data-name="Layer 5">
    <g>
      <g>
        <path d="M14.39,58.31l-.21,1.13c-1.83.06-3.66.06-5.48,0-1.83-.06-3.31-.39-4.47-1.55-.45.66-.99,1.34-1.64,2.06l-.94-1.04c.71-.63,1.3-1.32,1.77-2.04-.45-.73-.83-1.65-1.15-2.79l.97-.36c.25.8.52,1.48.8,2.03.38-.8.62-1.67.78-2.62h-2.45v-1.16l2.2-2.66h-2.24v-1.18h3.73v1.19l-2.2,2.63h2.21v1.13c-.27,1.53-.63,2.72-1.25,3.85.97,1.08,2.2,1.33,3.91,1.37,1.89.06,3.77.06,5.66,0ZM9.11,51.18h-2.96v-1.08h2.96v-.83h-2.49v-1.06h2.49v-1.01l1.16.06v.95h2.94v1.89h1.01v1.08h-1.01v1.89h-2.94v.84h3.14v1.06h-3.14v.81h3.64v1.08h-3.64v1.11h-1.16v-1.11h-3.19v-1.08h3.19v-.81h-2.56v-1.06h2.56v-.84h-2.51v-1.06h2.51v-.83ZM10.28,50.1h1.81v-.83h-1.81v.83ZM12.08,51.18h-1.81v.83h1.81v-.83Z"/>
        <path d="M20.9,56.9c-.29.22-1.72,1.47-2.58,2.33l-.85-1.01c.27-.32.27-.62.27-1.01v-4.4h-1.42v-1.39h2.76v5.29l1.39-1.26.43,1.44ZM18.69,50.74c-.38-.71-1.23-2-1.75-2.61l.95-.76c.53.56,1.36,1.67,1.81,2.42l-1.01.94ZM28.69,58.75l-.74,1.39c-1.51-.97-2.8-1.96-3.87-3.1-1.01,1.05-2.31,1.98-4.01,2.98l-.81-1.3c1.67-.99,2.9-1.86,3.87-2.82-1.42-1.85-2.38-4.06-2.96-6.93l1.29-.46c.49,2.52,1.27,4.57,2.61,6.32,1.19-1.61,1.79-3.6,2.24-6.61l1.37.32c-.63,3.4-1.36,5.62-2.66,7.4,1,1.05,2.2,1.96,3.67,2.82ZM23.81,50.99c-.29-.85-.97-2.4-1.47-3.17l1.22-.66c.48.7,1.19,2.17,1.5,2.97l-1.25.85Z"/>
      </g>
      <g id="_0fdiQx" data-name="0fdiQx">
        <g>
          <path d="M32.5,15.5c.6-.7,1.2-1.4,1.9-2,1.2-1.2,2.5-1.2,3.7,0,.6.6,1.3,1.3,1.9,1.9,1.1,1.1,1,2.5,0,3.5-2.4,2.4-4.7,4.7-7.1,7.1-.4.4-.6.8-.6,1.4v8.7c0,2.6-1.7,4.3-4.3,4.3H4.3c-2.6,0-4.3-1.7-4.3-4.3V4.2C0,1.7,1.7,0,4.2,0h18.8c.4,0,.9.2,1.2.5,2.6,2.5,5.1,5,7.6,7.6.3.3.5.7.5,1.1v6c0,.2.1.3.2.3ZM30.6,28.4c-.2.2-.4.4-.6.5-1.1,1.1-2.3,2.3-3.4,3.4-.3.2-.6.5-.9.6-1.8.5-3.7,1-5.5,1.5-1,.3-1.4-.2-1.2-1.2.5-1.8.9-3.5,1.4-5.3.1-.4.3-.8.6-1,3-3.1,6.1-6.1,9.2-9.2.3-.3.4-.7.5-1.1v-6c0-.6-.2-.8-.7-.7h-6.1c-1.1,0-1.3-.2-1.3-1.3V2.7c0-.7-.1-.9-.9-.9H4.3c-1.8,0-2.8,1-2.8,2.8v31.7c0,1.7,1,2.7,2.7,2.7h23.7c1.5,0,2.6-1,2.6-2.4v-7.8c.2-.1.1-.2.1-.4ZM36.1,20.3c-.8-.8-1.7-1.6-2.6-2.5-.5-.5-.7-.5-1.2,0-2.6,2.7-5.3,5.3-7.9,7.9-.6.6-1.3,1.3-1.9,1.9,1.1,1.1,2.2,2.1,3.2,3.2,3.4-3.5,6.9-6.9,10.4-10.5ZM24.2,3.1v4.6c0,.4.2.5.6.5h4.5c-1.8-1.7-3.4-3.4-5.1-5.1ZM37.4,19.3c.5-.5,1-1,1.5-1.6.3-.4.4-.8,0-1.2-.7-.7-1.4-1.5-2.1-2.1-.2-.2-.8-.3-1-.1-.6.5-1.1,1.1-1.7,1.6,1.1,1.2,2.2,2.2,3.3,3.4ZM21.7,29.4c-.3,1-.5,2-.8,3.2,1.2-.3,2.1-.6,3.1-.9-.8-.8-1.6-1.5-2.3-2.3Z"/>
          <path d="M16.1,17.9h8.4c.2,0,.5-.1.6,0,.2.2.6.5.6.7s-.3.6-.5.7c-.2.1-.4.1-.7.1H7.2c-.4-.1-.7-.3-.7-.8,0-.4.3-.7.7-.8h.6c2.7.1,5.5.1,8.3.1Z"/>
          <path d="M16,14.6H7.4c-.3,0-.8-.2-1-.5-.3-.4,0-1,.6-1.1h17.7c.5,0,.9.2.9.8s-.4.8-1,.8h-8.6Z"/>
          <path d="M13.3,24.3h-5.7c-.2,0-.5,0-.7-.1-.2-.2-.5-.5-.5-.7s.3-.5.6-.7c.1-.1.4-.1.6-.1h11.4c.5,0,1,.1,1,.8,0,.6-.4.8-1,.8h-5.7Z"/>
          <path d="M11.6,29.2h-4.2c-.5,0-1-.2-1-.8s.4-.8,1-.8h8.4c.5,0,1,.1,1,.8,0,.5-.3.8-1,.8h-4.2Z"/>
        </g>
      </g>
    </g>
  </g>
</svg>