<?xml version="1.0" encoding="UTF-8"?>
<svg id="Layer_2" data-name="Layer 2" xmlns="http://www.w3.org/2000/svg" viewBox="0 0 54.73 64.37">
  <g id="Layer_5" data-name="Layer 5">
    <g>
      <g>
        <path d="M12.26,63l-1.02,1.33c-2.56-2.14-4.2-4.3-5.08-6.82-.84,2.51-2.45,4.65-5.08,6.68l-1.06-1.26c3.89-2.8,5.38-5.55,5.42-10,.01-.32.01-.9.01-1.27l1.42.06c0,.48-.01,1.4-.01,1.78-.01.41-.04.81-.08,1.22.59,3.53,2.54,6.15,5.5,8.29Z"/>
        <path d="M26.31,61.93v1.39h-12.19v-1.39h5.35v-7.91h-4.38v-1.47h10.28v1.47h-4.41v7.91h5.35Z"/>
        <path d="M28.88,54.87c.71.49,1.92,1.43,2.48,1.99l-.77,1.34c-.63-.67-1.88-1.74-2.55-2.19l.84-1.15ZM28.29,63.62c.28-.67,1.51-3.95,1.74-4.73l1.33.55c-.28.83-1.43,4.09-1.71,4.72l-1.36-.53ZM29.54,51.75c.66.41,1.83,1.26,2.4,1.82l-.77,1.26c-.59-.59-1.74-1.54-2.41-1.99l.78-1.09ZM39.6,52.24v11.88h-1.43v-.69h-4.62v.73h-1.43v-11.92h7.48ZM33.55,53.63v1.89h4.62v-1.89h-4.62ZM33.55,56.85v1.88h4.62v-1.88h-4.62ZM38.17,62.06v-1.98h-4.62v1.98h4.62Z"/>
        <path d="M44.42,57.93c-.63-.63-1.81-1.68-2.34-2.1l.78-.99c.67.45,1.76,1.4,2.34,1.98l-.78,1.12ZM54.03,64.27c-1.23-.66-2.23-1.29-3.03-2.06-.78.74-1.72,1.44-2.97,2.16l-.52-.76v.59h-1.32v-5.17c-.22.32-.48.64-.76.99l-.34-.67c-.28.85-1.4,4.24-1.62,4.79l-1.2-.45c.27-.6,1.54-4.29,1.71-4.94l1.02.41-.18-.38c1.06-1.34,1.89-2.98,2.38-4.55l1.18.32c-.28.84-.55,1.57-.87,2.24v1.95c.94-1.4,1.61-2.84,2.1-4.51h-3.8v-1.25h3.35c-.13-.49-.28-.99-.38-1.32l1.46-.17c.13.32.31.92.46,1.48h3.68v1.25h-4.58l.99.24c-.1.35-.2.7-.31,1.04h3.38v1.2c-.49,1.79-1.02,3.22-1.96,4.47.78.67,1.7,1.22,2.82,1.72l-.7,1.37ZM45.01,54.85c-.53-.6-1.72-1.64-2.33-2.09l.76-.97c.63.45,1.72,1.37,2.33,1.93l-.76,1.12ZM47.52,63.03c1.06-.57,1.89-1.18,2.56-1.81-.49-.66-.91-1.39-1.26-2.21-.24.36-.49.73-.76,1.09l-.55-.73v3.66ZM50.04,56.71c-.13.31-.27.6-.42.88.32,1.02.78,1.9,1.37,2.63.79-1.05,1.25-2.17,1.58-3.52h-2.54ZM51.3,59.11c-.36-.48-.95-1.18-1.32-1.47l.66-.76c.38.31,1.01.97,1.34,1.41l-.69.81Z"/>
      </g>
      <g id="_8wYxki" data-name="8wYxki">
        <g>
          <path d="M6.49,16.88c.1-1.6.7-3,1.8-4.1,3.6-3.6,7.3-7.3,10.9-10.9,2.5-2.5,5.9-2.5,8.4,0,3.8,3.7,7.5,7.5,11.2,11.2,1,1,2.1,2.1,3.1,3.1,2,2,2,4.8.1,6.8-1.5,1.6-1.5,3,0,4.6.1.1.2.2.2.3q.8.8,1.8.3c1.4-.7,3.1-.3,4.2.9,1,1.2,1.2,3,.3,4.3-.3.5-.3.8,0,1.2,1.6,2.6,3.1,5.2,4.7,7.8.5.8.4,1-.2,1.7-.7.7-1.4,1.4-2.1,2.1-.9.9-1.1.9-2.2.3l-7.5-4.5c-.4-.3-.8-.3-1.3,0-1.4,1-3.2.8-4.4-.4-1.2-1.1-1.5-2.9-.6-4.4.3-.4.2-.7-.1-1-.2-.2-.4-.4-.6-.6-1.6-1.6-3.1-1.6-4.7,0-.7.7-1.5,1.1-2.5,1.3-1.7.3-3.2-.3-4.4-1.5-4.8-4.8-9.6-9.6-14.4-14.4-.8-.8-1.4-1.7-1.6-2.8.1-.3,0-.8-.1-1.3ZM42.09,29.98c-.6-.5-1.1-.8-1.5-1.3-1.9-1.9-1.9-4.7,0-6.6,1.5-1.6,1.5-3.1,0-4.6-4.8-4.8-9.5-9.6-14.3-14.3-.4-.4-.9-.7-1.4-1-1.7-.7-3.1-.2-4.4,1.1-3.5,3.6-7.1,7.1-10.6,10.6-2,2-2,4.1,0,6,4.7,4.7,9.4,9.3,14,14,1.5,1.5,3.4,1.5,4.8.1,1.8-1.9,4.7-1.8,6.6,0,.3.3.6.6.9.9.3.4.6.4,1,0,.6-.7,1.3-1.3,2-2,.8-.8,1.8-1.7,2.9-2.9ZM47.39,31.68c-.1-.8-.5-1.4-1.2-1.7-.8-.3-1.5-.1-2.1.5-2.4,2.4-4.9,4.9-7.3,7.3-.8.8-.8,1.8-.1,2.5s1.8.7,2.6-.1c2.4-2.4,4.9-4.9,7.3-7.3.4-.3.6-.8.8-1.2ZM46.89,35.58c-1.6,1.6-3.2,3.2-4.8,4.8.1.1.3.2.5.3,1.8,1.1,3.6,2.2,5.4,3.2q1.7,1,3.1-.4c.3-.3.3-.5.1-.9-1-1.6-1.9-3.1-2.8-4.7-.5-.7-1-1.6-1.5-2.3Z"/>
          <path d="M25.39,26.38c-3.9,0-6.8-4.1-5.1-7.6,1.1-2.5,2.7-4.7,4.4-6.9.4-.6,1.1-.6,1.5-.1,1.8,2.2,3.5,4.5,4.5,7.2,1.2,3.6-1.5,7.4-5.3,7.4ZM25.39,13.78c-1.4,2-2.7,3.7-3.5,5.8-.6,1.5-.2,2.9,1,4,1.2,1.1,3,1.3,4.4.5,1.3-.7,2.3-2.4,1.9-3.7-.8-2.5-2.3-4.4-3.8-6.6Z"/>
        </g>
      </g>
    </g>
  </g>
</svg>