<?xml version="1.0" encoding="UTF-8"?>
<svg id="Layer_2" data-name="Layer 2" xmlns="http://www.w3.org/2000/svg" viewBox="0 0 110.13 73.6">
  <defs>
    <style>
      .cls-1 {
        fill: none;
        stroke: #000;
        stroke-linecap: round;
        stroke-miterlimit: 10;
        stroke-width: 1.5px;
      }
    </style>
  </defs>
  <g id="Layer_5" data-name="Layer 5">
    <g>
      <g id="Pc4Sao">
        <g>
          <path d="M70.86,22.98c.01-5.94,3.79-11.35,9.35-13.31.8-.28,1.63-.44,2.46-.64.18-.04.27-.11.26-.29,0-.04,0-.08,0-.12.08-.56-.1-.93-.58-1.32-1.31-1.07-1.74-2.51-1.34-4.15.4-1.61,1.45-2.64,3.07-3.03,2.76-.67,5.36,1.58,5.1,4.41-.12,1.26-.69,2.28-1.74,3-.21.15-.32.3-.29.56.03.28-.06.65.09.83.14.17.51.14.79.2,3.19.71,5.84,2.32,7.93,4.83,1.61,1.93,2.62,4.15,3.03,6.62.64,3.88-.21,7.44-2.49,10.65-1.81,2.54-4.25,4.24-7.2,5.2-5.77,1.88-12.34-.35-15.81-5.34-1.25-1.8-2.06-3.78-2.41-5.94-.12-.72-.14-1.45-.2-2.17ZM96.16,22.96c0-6.17-4.99-11.16-11.14-11.16-6.11,0-11.14,5.02-11.14,11.11,0,6.19,4.98,11.19,11.15,11.19,6.14,0,11.13-5,11.13-11.14ZM85.03,6.06c.6,0,1.2.02,1.8-.01.15,0,.35-.11.44-.23.58-.77.72-1.64.41-2.55-.37-1.09-1.16-1.74-2.29-1.88-1.21-.15-2.19.33-2.79,1.4-.58,1.03-.48,2.07.19,3.05.11.16.25.23.45.23.6-.01,1.2,0,1.8,0Z"/>
          <path d="M94.25,10.47c.7-.69,1.4-1.38,2.11-2.07.04-.04.22.01.28.08.71.69,1.4,1.39,2.1,2.08.34.34.67.68,1.02,1.01.12.12.13.21,0,.32-.64.64-1.29,1.28-1.93,1.92-.1.11-.19.12-.3,0-1.06-1.07-2.13-2.13-3.2-3.19-.03-.03-.05-.08-.09-.17Z"/>
          <path d="M75.86,10.56c-.35.33-.69.62-1.01.93-.76.75-1.52,1.5-2.26,2.27-.18.18-.28.17-.45,0-.59-.61-1.19-1.2-1.8-1.8-.16-.15-.16-.26,0-.42,1.03-1.03,2.07-2.06,3.09-3.09.12-.12.2-.12.32,0,.67.68,1.35,1.35,2.11,2.11Z"/>
          <path d="M85.03,26.39c-1.67,0-3.13-1.22-3.4-2.78-.29-1.69.59-3.38,2.33-3.94,1.17-.38,2.27-.16,3.25.61.19.15.33.17.57.1,1.82-.59,3.65-1.17,5.48-1.74.12-.04.25-.06.38-.06.34,0,.6.19.69.47.08.29-.03.63-.32.8-.65.38-1.3.73-1.96,1.1-1.1.61-2.2,1.21-3.31,1.81-.16.09-.25.19-.26.39-.1,1.83-1.61,3.24-3.44,3.24Z"/>
        </g>
      </g>
      <g>
        <path d="M47.4,26.29c-7.09.05-12.88,2.33-18.02,6.13-1.35.99-2.58,2.12-3.85,3.19-.56.47-1.14.57-1.68.04-.5-.49-.4-1.02.09-1.48,4.55-4.25,9.73-7.56,16.12-9.04,6.4-1.48,12.62-.79,18.67,1.46,3.77,1.4,7.23,3.31,10.37,5.68.26.2.52.39.75.61.45.44.55.94.09,1.42-.46.48-1.03.46-1.55.1-.7-.49-1.34-1.05-2.04-1.54-4.72-3.3-9.94-5.57-15.87-6.35-.33-.04-.66-.08-1-.1-.82-.05-1.64-.1-2.08-.12Z"/>
        <path d="M57.53,40.47c1.03,1.14,2.27,1.99,3.87,2.59.24.09.5.17.74.26.58.21.83.53.56.95-.28.44-.85.5-1.4.33-.68-.21-1.34-.47-1.96-.75-1.41-.64-2.55-1.48-3.42-2.49-.27-.31-.52-.42-1.07-.32-1.09.21-2.2.38-3.32.5-.65.07-.82.26-.73.69.2.92.35,1.84.52,2.75.03.13.07.27.08.4.05.56-.27.91-.9.93-.73.03-1.04-.28-1.13-.74-.18-.99-.34-1.99-.54-2.99-.2-.98-.05-.8-1.34-.82-.77-.01-1.75-.24-2.25,0-.48.24-.4.99-.7,1.47-.57.9-1.2,1.78-1.88,2.63-.37.47-1.03.56-1.54.33-.5-.23-.55-.66-.11-1.12.92-.96,1.56-1.99,1.91-3.12.12-.38,0-.57-.58-.65-.81-.12-1.61-.27-2.4-.45-.48-.11-.73-.04-.98.28-1.21,1.56-3,2.71-5.25,3.51-.55.2-1.13.19-1.46-.21-.33-.41-.17-.78.47-1.02.27-.1.53-.21.79-.32,1.43-.6,2.57-1.39,3.45-2.38.11-.13.21-.27.36-.47-1.23-.43-2.43-.85-3.64-1.24-.11-.04-.39.09-.52.19-1.92,1.49-4.35,2.28-7.17,2.53-.14.01-.27.03-.41.03-.77.03-1.3-.22-1.31-.65,0-.5.46-.66,1.1-.77,1.23-.2,2.5-.37,3.64-.73.98-.3,1.8-.85,2.83-1.35-.97-.48-1.72-.87-2.51-1.21-.14-.06-.49,0-.65.07-2.43,1.25-5.24,1.59-8.16,1.64-.84.01-1.37-.28-1.31-.72.06-.53.57-.7,1.27-.7,1.99,0,3.92-.22,5.72-.83.41-.14.78-.33,1.22-.52-.47-.37-.86-.66-1.23-.97-.39-.33-.42-.69.06-.98.5-.3,1-.23,1.47.08,4.68,3.12,10.16,5.18,16.55,6,4.98.64,9.69-.1,14.2-1.56,2.14-.7,4.16-1.52,6.06-2.48,1.12-.57,2.2-1.18,3.24-1.83.14-.09.29-.25.44-.25.43-.01.96-.07,1.28.08.47.21.43.61.08.92-.28.24-.61.46-.96.64-.47.24-.45.47-.15.78,1.45,1.5,3.52,2.3,6.01,2.65.19.03.39.04.57.08.58.12.9.39.78.82-.12.43-.56.63-1.16.57-3.09-.35-5.74-1.25-7.63-3.06-.15-.14-.29-.28-.43-.42-.03-.03-.09-.05-.21-.11-.94.45-1.9.91-2.93,1.4,1.32,1.25,2.94,2.11,4.9,2.66.28.08.58.14.86.22.55.17.77.53.51.85-.18.23-.71.44-1.08.44-.53,0-1.06-.19-1.57-.35-2-.6-3.64-1.53-5-2.71-.35-.3-.6-.35-1.09-.17-1.09.4-2.22.76-3.44,1.16Z"/>
        <path d="M38.4,48.97c-.93,1.27-2.06,2.23-3.52,2.9-.22.1-.45.19-.67.29-.53.23-.75.59-.51,1.07.25.49.77.56,1.28.37.62-.24,1.22-.52,1.78-.84,1.28-.72,2.31-1.66,3.1-2.79.24-.34.47-.47.97-.35.99.23,2,.42,3.02.56.59.08.75.29.66.78-.18,1.02-.32,2.06-.48,3.08-.02.15-.06.3-.07.45-.05.63.24,1.02.82,1.04.66.03.95-.31,1.03-.83.17-1.11.31-2.23.49-3.34.18-1.09.05-.89,1.22-.92.7-.01,1.59-.27,2.05,0,.44.27.36,1.1.64,1.64.52,1,1.09,1.99,1.71,2.95.34.53.93.63,1.4.37.45-.25.5-.74.1-1.26-.84-1.07-1.42-2.23-1.73-3.49-.11-.43,0-.63.52-.73.74-.13,1.47-.31,2.18-.51.44-.12.67-.05.89.31,1.09,1.75,2.72,3.03,4.77,3.93.5.22,1.03.22,1.32-.24.3-.46.15-.88-.43-1.14-.24-.11-.48-.24-.72-.36-1.29-.67-2.34-1.56-3.13-2.66-.1-.15-.19-.3-.32-.52,1.12-.48,2.2-.95,3.31-1.39.1-.04.36.1.47.21,1.75,1.67,3.95,2.56,6.51,2.84.12.01.25.03.37.04.7.04,1.18-.25,1.19-.73,0-.56-.41-.74-1-.86-1.12-.22-2.27-.42-3.31-.82-.89-.34-1.64-.95-2.57-1.51.88-.54,1.57-.97,2.28-1.36.13-.07.44-.01.59.08,2.21,1.4,4.76,1.78,7.41,1.83.77.02,1.24-.31,1.19-.81-.06-.59-.52-.78-1.15-.78-1.8,0-3.56-.24-5.2-.93-.37-.16-.71-.37-1.11-.58.42-.41.78-.74,1.11-1.08.36-.37.38-.77-.06-1.09-.46-.34-.91-.26-1.34.09-4.25,3.5-9.23,5.8-15.03,6.72-4.52.72-8.8-.11-12.9-1.75-3.1-1.24-5.91-2.86-8.44-4.83-.13-.1-.26-.27-.4-.28-.39-.02-.87-.07-1.16.09-.43.24-.4.69-.07,1.03.25.27.55.51.87.71.42.27.41.53.14.87-1.32,1.68-3.2,2.58-5.46,2.97-.17.03-.35.04-.52.09-.53.14-.81.44-.71.92.1.48.51.71,1.05.63,2.81-.39,5.21-1.4,6.93-3.43.13-.16.26-.32.39-.47.03-.03.08-.05.19-.12.85.5,1.73,1.02,2.66,1.57-1.19,1.4-2.67,2.36-4.45,2.98-.26.09-.53.15-.78.25-.5.19-.7.59-.46.95.17.25.65.5.98.49.48,0,.96-.22,1.42-.39,1.81-.68,3.31-1.72,4.54-3.03.32-.34.55-.39.99-.19.99.45,2.02.85,3.12,1.3Z"/>
        <path class="cls-1" d="M24.19,36.01c.03,1.55,1.32,5.35,3.81,6.47"/>
        <path class="cls-1" d="M68.62,36.01s.33,2.37-2.13,5.74c-.82,1.12-.33,1.08-1.88,2.37"/>
      </g>
      <g>
        <path d="M11.89,71.57l-.22,1.32c-1.04.04-2.07.04-3.11,0-1.29-.04-2-.14-2.56-1.12-.18-.28-.24-.38-.34-.38s-.2.14-.35.35l-.83,1.22-.95-.9.13-.2H0v-10.6h3.92v10.18c.29-.45.66-.97.84-1.2.46-.57.6-.57.81-.57.1,0,.2.03.29.07,1.32-1.01,2.72-2.48,3.46-3.38h-4.47v-1.33h2.72c-.15-.5-.35-1.15-.48-1.47l1.21-.17c.15.35.39,1.08.56,1.64h2.09v1.37c-.97,1.23-2.56,2.93-4.29,4.36.48.66.9.77,1.89.81,1.11.04,2.23.04,3.33,0ZM1.19,62.59v1.79h1.55v-1.79h-1.55ZM1.19,65.67v1.79h1.55v-1.79h-1.55ZM2.75,70.59v-1.83h-1.55v1.83h1.55ZM11.25,62.27c-1.71.41-4.65.83-6.58.94l-.11-1.41c1.86-.11,4.8-.53,6.49-.94l.21,1.41Z"/>
        <path d="M14.01,61.16h3.91v10.97h-3.91v-10.97ZM15.15,62.41v1.98h1.62v-1.98h-1.62ZM16.77,67.55v-1.95h-1.62v1.95h1.62ZM16.77,70.88v-2.14h-1.62v2.14h1.62ZM26.06,71.8l-.85,1.15c-2.34-1.3-3.63-2.77-4.37-5.5h-.63v4.06c.46-.2,1.43-.67,1.88-.9l.25,1.29-2.51,1.12c-.28.13-.5.25-.79.41l-.56-1.27c.35-.18.41-.28.41-.67v-10.32h6.01v6.29h-2.83c.21.63.43,1.15.71,1.64.66-.49,1.25-.97,1.88-1.51l.73.95c-.6.5-1.27,1.05-1.89,1.51.66.71,1.46,1.26,2.56,1.77ZM20.21,62.38v1.29h3.39v-1.29h-3.39ZM20.21,66.22h3.39v-1.32h-3.39v1.32Z"/>
        <path d="M29.93,67.64c-.27.78-.91,2.09-1.51,3.11l-1.05-.67c.56-.81,1.11-2.04,1.44-3.01l1.12.57ZM33.63,67.86c-1.01,2.82-2.69,4.34-5.42,5.65l-.83-1.2c1.75-.8,2.9-1.51,3.74-2.48h-.8v-3.35h-2.76v-1.29h.9v-3.47l1.18.06v3.42h.95v-4.58l1.16.06v1.61h1.46v1.26h-1.46v1.65h1.65v1.29h-1.85v2.79c.39-.56.7-1.21.99-1.99l1.08.59ZM36.98,68.29c0,2.28-.91,3.84-3.87,5.22l-.67-1.23c2.86-1.27,3.36-2.47,3.36-4.03v-2.69l1.18.06v2.68ZM35.45,63.73l.29-1.23h-2.31v-1.29h6.13v1.29h-2.55l-.31,1.23h2.35v6.57h-1.21v-5.28h-2.93v5.28h-1.19v-6.57h1.71ZM37.37,70.06c.81.55,1.86,1.4,2.61,2.1l-.67,1.23c-.73-.83-1.72-1.65-2.61-2.34l.67-.99Z"/>
        <path d="M53.88,70.9h-5.42v2.37h-1.33v-2.37h-5.46v-1.3h5.46v-.95l1.33.06v.9h5.42v1.3ZM45.5,67.05c-.07.06-.28.18-.55.35.38-.1.59-.24.91-.5.35-.24.87-.73,1.47-1.3-.87.07-1.92.17-2.37.24l-.1-.49-.67.81c-.49-.49-1.55-1.5-2.09-1.92l.8-.94c.48.36,1.33,1.09,1.86,1.58l-.04-.2c.39-.07.56-.22.71-.32.21-.15.67-.66,1.22-1.32h-4.59v-1.26h5.08c-.1-.35-.18-.67-.31-1.02l1.43-.24c.15.38.27.83.39,1.26h4.79v1.26h-5.71l.27.2c-.5.63-1.01,1.13-1.29,1.3l1.74-.1c.43-.43.79-.87,1.11-1.25l.87.77c-.87,1.01-2.86,2.98-3.5,3.47l2.14-.17c-.21-.34-.41-.63-.59-.87l.94-.64c.27.32.6.78.92,1.27l.71-.98c.84.46,2,1.27,2.62,1.75l-.71,1.08c-.52-.41-1.83-1.34-2.58-1.79.32.46.59.94.76,1.26l-1.02.66-.36-.66c-1.32.11-3.54.22-4.82.38l-.21-1.19c-.85.52-2.06,1.27-2.28,1.43l-.64-1.22c.32-.11,2.8-1.65,3.05-1.85l.64,1.15ZM50.14,65.11c.83-.56,1.92-1.34,2.48-1.91l.77.98c-.63.52-1.72,1.39-2.51,1.95l-.74-1.02Z"/>
        <path d="M67.39,73.38c-1.64-.8-3-1.62-4.17-2.58-1.23.99-2.73,1.83-4.73,2.68l-.71-1.36c1.85-.71,3.25-1.44,4.37-2.28-1.06-1.06-1.88-2.2-2.48-3.54-.36,2.66-1.32,4.65-3.11,6.92l-1.19-.88c1.97-2.42,2.91-4.31,3.1-7.55.04-.45.07-1.44.11-2.16h-2.09v-1.34h9.25v1.37l-1.54,2.09h2.59v1.33c-.66,1.46-1.42,2.69-2.48,3.77,1.09.8,2.4,1.51,3.89,2.13l-.8,1.42ZM63.2,68.92c.84-.84,1.49-1.74,2.04-2.86h-2.83v-1.25l1.57-2.2h-4.06c0,.21-.01.43-.03.67.71,2.4,1.78,4.17,3.31,5.63Z"/>
        <path d="M81.96,70.42c-.04.43-.07.74-.14,1.09-.22,1.16-.52,1.5-1.93,1.57-.49.03-.97.03-1.44,0-1.29-.07-1.89-.48-1.89-1.83v-2.59h-1.83c0,.07-.01.14-.01.2-.11,2.4-1.29,3.7-4.2,4.75l-.67-1.33c2.65-.85,3.24-1.69,3.39-3.53v-.08h-3.1v-1.27h11.5v1.27h-3.67v2.31c0,.63.2.78.81.83.31.03.6.03.9,0,.69-.07.81-.17.88-.69.07-.43.1-.73.11-1.11l1.3.42ZM71.61,64.97h-1.37v-3.05h4.94c-.11-.43-.22-.84-.32-1.12l1.53-.22c.11.35.27.84.39,1.34h4.68v3.04h-1.36v-1.75h-8.49v1.77ZM71.9,65.93v-1.27h7.9v1.27h-7.9Z"/>
        <path d="M83.57,67.07c.99-.46,1.86-1.01,2.47-1.55h-1.61v-2.44h2.17v-.69h-2.48v-.97h2.48v-.94l1.23.06v.88h2.45v.97h-2.45v.69h2.17v.56c.74-.9,1.44-2.19,1.78-3.28l1.25.25c-.15.41-.29.8-.48,1.19h3.45v1.05h-.83c-.27,1.05-.64,1.86-1.25,2.58.63.45,1.43.87,2.4,1.27l-.57,1.19c-1.06-.49-1.96-.98-2.69-1.58-.66.55-1.5,1.06-2.52,1.58l-.55-.9-.35.63c-.41-.36-1.29-.91-1.81-1.2v1.3h-1.23v-1.37c-.67.6-1.53,1.2-2.41,1.67l-.62-.95ZM90.71,71.85h5.04v1.12h-11.68v-1.12h1.77v-2.21l1.36.06v2.16h2.09v-2.76h-4.41v-1.08h10.09v1.08h-4.25v.83h3.71v1.11h-3.71v.83ZM85.51,64.65h1.08v-.73h-1.08v.73ZM87.82,63.92v.73h1.08v-.73h-1.08ZM87.82,66l.31-.48h-.31v.48ZM90,63.83v1.69h-1.6c.53.27,1.34.76,1.76,1.06.8-.35,1.44-.7,1.99-1.13-.38-.43-.67-.9-.91-1.4-.18.25-.38.49-.6.73l-.64-.95ZM92.01,62.86l-.06.11c.22.66.57,1.18,1.04,1.67.41-.5.71-1.09.92-1.78h-1.91Z"/>
        <path d="M97.48,67.8c.27-1.27.66-3.4.84-4.97l1.19.17c-.18,1.39-.62,3.95-.84,5.07l-1.19-.27ZM110.13,71.28v1.39h-8.15v-1.39h3.53v-2.8h-2.83v-1.37h2.83v-2.44h-1.61c-.21.73-.42,1.46-.69,2.19l-1.27-.43c.24-.6.43-1.23.62-1.86l-.5.59c-.27-.38-.71-.95-1.09-1.4v9.41h-1.33v-12.55l1.33.06v2.47l.6-.53c.29.35.77.92,1.15,1.42.22-.88.41-1.75.52-2.63l1.29.17c-.1.6-.17,1.15-.28,1.69h1.28v-2.59l1.39.06v2.54h2.87v1.43h-2.87v2.44h2.56v1.37h-2.56v2.8h3.24Z"/>
      </g>
    </g>
  </g>
</svg>