<?xml version="1.0" encoding="UTF-8"?>
<svg id="Layer_2" data-name="Layer 2" xmlns="http://www.w3.org/2000/svg" viewBox="0 0 75.08 46.98">
  <g id="Layer_5" data-name="Layer 5">
    <g>
      <g>
        <path d="M20.87,45.13l-.22,1.32c-1.04.04-2.07.04-3.11,0-1.29-.04-2-.14-2.56-1.12-.18-.28-.24-.38-.34-.38s-.2.14-.35.35l-.83,1.22-.95-.9.13-.2h-3.66v-10.6h3.92v10.18c.29-.45.66-.97.84-1.2.46-.57.6-.57.81-.57.1,0,.2.03.29.07,1.32-1.01,2.72-2.48,3.46-3.38h-4.47v-1.33h2.72c-.15-.5-.35-1.15-.48-1.47l1.21-.17c.15.35.39,1.08.56,1.64h2.09v1.37c-.97,1.23-2.56,2.93-4.29,4.36.48.66.9.77,1.89.81,1.11.04,2.23.04,3.33,0ZM10.17,36.15v1.79h1.55v-1.79h-1.55ZM10.17,39.24v1.79h1.55v-1.79h-1.55ZM11.73,44.15v-1.83h-1.55v1.83h1.55ZM20.23,35.83c-1.71.41-4.65.83-6.58.94l-.11-1.41c1.86-.11,4.8-.53,6.49-.94l.21,1.41Z"/>
        <path d="M22.99,34.73h3.91v10.97h-3.91v-10.97ZM24.13,35.97v1.98h1.62v-1.98h-1.62ZM25.75,41.11v-1.95h-1.62v1.95h1.62ZM25.75,44.45v-2.14h-1.62v2.14h1.62ZM35.04,45.36l-.85,1.15c-2.34-1.3-3.63-2.77-4.37-5.5h-.63v4.06c.46-.2,1.43-.67,1.88-.9l.25,1.29-2.51,1.12c-.28.13-.5.25-.79.41l-.56-1.27c.35-.18.41-.28.41-.67v-10.32h6.01v6.29h-2.83c.21.63.43,1.15.71,1.64.66-.49,1.25-.97,1.88-1.51l.73.95c-.6.5-1.27,1.05-1.89,1.51.66.71,1.46,1.26,2.56,1.77ZM29.19,35.94v1.29h3.39v-1.29h-3.39ZM29.19,39.78h3.39v-1.32h-3.39v1.32Z"/>
        <path d="M40.99,45.19c-.67.11-3.81.74-4.55.91l-.07-1.41c.71-.11,3.82-.77,4.52-.94l.04.73.06.71ZM37.3,39.52c-.15.01-.25.01-.46.06l-.28-1.36c.27-.11.34-.22.46-.38.34-.45,1.3-2.27,1.83-3.66l1.25.45c-.52,1.15-1.42,3.03-1.86,3.52.27-.01.87-.03,1.26-.07.28-.5.55-.99.77-1.44l1.09.59c-.67,1.44-2.13,3.85-2.56,4.33.49-.07,1.67-.22,1.99-.29l.03,1.39c-.27.04-2.46.31-3.1.42-.2.01-.39.06-.57.1l-.31-1.4c.45-.15.48-.2.7-.49.32-.41.73-1.06,1.19-1.83l-1.43.08ZM43.77,42.92c-.55,1.3-1.42,2.73-2.25,3.85l-1.07-.78c.8-1.05,1.65-2.44,2.2-3.67l1.12.6ZM45.86,41.94v3.32c0,1.18-.38,1.4-1.57,1.55l-.69.08-.42-1.37.7-.08c.55-.07.67-.11.67-.76v-2.75h-3.14v-1.36c.13-.22.34-.66.57-1.21h-.74v-1.34h1.27c.15-.38.28-.77.43-1.15h-1.76v-1.33h2.24c.21-.63.35-1.12.43-1.5l1.28.2c-.07.32-.18.76-.35,1.3h3.66v1.33h-4.09c-.15.38-.25.77-.41,1.15h1.91v2.55h2.7v1.36h-2.7ZM44.56,40.58v-1.21h-1.13c-.22.55-.41.98-.56,1.21h1.69ZM47.25,42.36c.56.91,1.4,2.48,1.85,3.42l-1.13.71c-.41-.98-1.22-2.61-1.78-3.47l1.06-.66Z"/>
        <path d="M59.79,41.21c-2.73,1.27-5.43,2.44-8.4,3.67l-.57-1.48c2.97-1.13,5.83-2.34,8.61-3.68l.36,1.5ZM58.4,45.05c1.26-.07,1.54-.31,1.61-1.43.06-.8.31-6.72.31-7.28h-9.05v-1.46h10.6c-.06.7-.28,8.4-.34,9.31-.11,1.81-.77,2.21-2.63,2.33l-1.55.1-.45-1.48,1.5-.08ZM56.36,40.85c-1.01-.83-3.01-2.34-3.98-2.97l.91-1.13c.95.63,2.77,1.93,3.8,2.72l-.73,1.39Z"/>
      </g>
      <g>
        <g id="E5tU7s">
          <g>
            <path d="M16.05,23.9c-3.9-.1-7.2-1.3-10.3-3.2-1.5-.9-3-2-4.2-3.3-.6-.6-.6-.9,0-1.4,3.5-3.3,7.4-5.7,12.2-6.4,2.7-.4,5.3,0,7.8,1,3.1,1.2,5.9,3,8.3,5.4.6.5.6.8,0,1.4-3.4,3.2-7.2,5.6-11.9,6.4-.7.1-1.5.1-1.9.1ZM15.75,22.6c3.3,0,5.9-2.6,5.9-5.9s-2.6-5.8-5.9-5.8-5.8,2.6-5.8,5.8c-.1,3.3,2.5,5.9,5.8,5.9ZM10.25,12c-2.9,1.2-5.2,2.8-7.5,4.8,2.2,2,4.6,3.6,7.4,4.6-2.2-3.1-2.2-6.2.1-9.4ZM28.65,16.7c-2.2-2-4.6-3.6-7.3-4.7,2.2,3.1,2.2,6.2.1,9.3,2.7-1,5-2.6,7.2-4.6Z"/>
            <path d="M63.05,21.3c.7,1.1,1.5,1.9,2.6,2.5.2.1.3.2.5.2.4.2.5.5.4.9-.2.4-.6.5-.9.3-.5-.2-.9-.4-1.3-.7-.9-.6-1.7-1.4-2.3-2.4-.2-.3-.3-.4-.7-.3-.7.2-1.5.4-2.2.5-.4.1-.5.2-.5.7.1.9.2,1.7.3,2.6,0,.1,0,.3.1.4,0,.5-.2.9-.6.9-.5,0-.7-.3-.7-.7-.1-.9-.2-1.9-.4-2.8-.1-.9,0-.8-.9-.8-.5,0-1.2-.2-1.5,0s-.3.9-.5,1.4c-.4.8-.8,1.7-1.2,2.5-.2.4-.7.5-1,.3s-.4-.6-.1-1.1c.6-.9,1-1.9,1.3-3,.1-.4,0-.5-.4-.6-.5-.1-1.1-.3-1.6-.4-.3-.1-.5,0-.7.3-.8,1.5-2,2.6-3.5,3.3-.4.2-.7.2-1-.2-.2-.4-.1-.7.3-1,.2-.1.4-.2.5-.3.9-.6,1.7-1.3,2.3-2.3.1-.1.1-.3.2-.4-.8-.4-1.6-.8-2.4-1.2-.1,0-.3.1-.3.2-1.3,1.4-2.9,2.2-4.8,2.4h-.3c-.5,0-.9-.2-.9-.6,0-.5.3-.6.7-.7.8-.2,1.7-.4,2.4-.7.6-.3,1.2-.8,1.9-1.3-.6-.5-1.1-.8-1.7-1.2-.1-.1-.3,0-.4.1-1.6,1.2-3.5,1.5-5.4,1.6-.6,0-.9-.3-.9-.7,0-.5.4-.7.8-.7,1.3,0,2.6-.2,3.8-.8.3-.1.5-.3.8-.5-.3-.3-.6-.6-.8-.9-.3-.3-.3-.6,0-.9.3-.3.7-.2,1,.1,3.1,3,6.7,4.9,11,5.7,3.3.6,6.4-.1,9.4-1.5,2.3-1,4.3-2.4,6.2-4.1.1-.1.2-.2.3-.2.3,0,.6-.1.8.1.3.2.3.6.1.9-.2.2-.4.4-.6.6-.3.2-.3.4-.1.7,1,1.4,2.3,2.2,4,2.5.1,0,.3,0,.4.1.4.1.6.4.5.8-.1.4-.4.6-.8.5-2-.3-3.8-1.2-5.1-2.9-.1-.1-.2-.3-.3-.4,0,0-.1,0-.1-.1-.6.4-1.3.9-1.9,1.3.9,1.2,1.9,2,3.2,2.5.2.1.4.1.6.2.4.2.5.5.3.8-.1.2-.5.4-.7.4-.3,0-.7-.2-1-.3-1.3-.6-2.4-1.5-3.3-2.6-.2-.3-.4-.3-.7-.2-.7.4-1.4.8-2.2,1.2Z"/>
            <path d="M16.65,0c5.8.1,10.5,1.9,14.7,5.1,1.2.9,1.4,2.4.6,3.4-.9,1.1-2.5,1.2-3.5.2-2-2-4.4-3.4-7.1-4.4-4.8-1.8-9.5-1.4-14.1.6-2.1.9-4,2.1-5.8,3.5-.1.1-.3.2-.4.3-.3.2-.6.2-.9-.1-.2-.3-.2-.6,0-.9.5-.5,1-1,1.5-1.4C5.05,3.3,8.95,1.1,13.55.3c1.2-.1,2.4-.2,3.1-.3ZM13.35,1.7h0l.1.1h.4c3.3-.2,6.4.4,9.4,1.8,2.2,1,4.2,2.3,6,4,.5.5,1.1.5,1.5.1.5-.5.4-1.1-.3-1.6-4.2-3.1-8.8-4.9-14.1-4.7-1,.1-2,.2-3,.3Z"/>
            <path d="M56.45,6.4c-4.3,0-7.8,1.5-10.9,4-.8.7-1.6,1.4-2.3,2.1-.3.3-.7.4-1,0-.3-.3-.2-.7.1-1,2.7-2.8,5.9-5,9.7-5.9,3.9-1,7.6-.5,11.3,1,2.3.9,4.4,2.2,6.2,3.7.2.1.3.3.4.4.3.3.3.6.1.9-.3.3-.6.3-.9.1-.4-.3-.8-.7-1.2-1-2.8-2.2-6-3.7-9.6-4.2-.2,0-.4-.1-.6-.1h-1.3Z"/>
            <path d="M15.75,20.3c0,.4-.4.7-.8.7-1.3-.1-3-1.6-3.2-2.9,0-.2.2-.6.4-.8.3-.2.6,0,.8.3.2.3.3.6.5.9.4.6,1,1,1.7,1.1.3.1.6.3.6.7Z"/>
          </g>
        </g>
        <circle cx="15.95" cy="16.7" r="2.3"/>
      </g>
    </g>
  </g>
</svg>