<?xml version="1.0" encoding="UTF-8"?>
<svg id="Layer_2" data-name="Layer 2" xmlns="http://www.w3.org/2000/svg" viewBox="0 0 40.94 45.87">
  <defs>
    <style>
      .cls-1 {
        fill: none;
        stroke: #000;
        stroke-linecap: round;
        stroke-linejoin: round;
        stroke-width: 1.25px;
      }
    </style>
  </defs>
  <g id="Layer_5" data-name="Layer 5">
    <g>
      <g>
        <path d="M5.39,42.97c-.34.73-.94,1.81-1.47,2.59l-.81-.56.28-.39c-.65.13-2.99.59-3.29.63l-.11-1.05c.41-.04,3.07-.58,3.44-.66l.04.42.04.46c.41-.63.79-1.32,1.03-1.87l.83.42ZM.35,40.32l-.24-1.06c.2-.07.27-.15.39-.31.42-.59.91-1.55,1.32-2.63l.94.29c-.36.91-1.06,2.19-1.34,2.56.24-.01.65-.03.97-.06.22-.41.42-.78.56-1.08l.68.35v-.99h2.26c-.08-.3-.16-.58-.25-.88l1.01-.18c.12.3.23.69.33,1.06h2.13v2.14h-.66v.79h-4.13v-.79h-.67v-.83c-.56,1.12-1.43,2.6-1.76,3.05.34-.05,1.26-.22,1.43-.27v1.05s-2.06.36-2.06.36c-.22.04-.45.08-.66.14l-.22-1.09c.29-.12.42-.16.54-.36.21-.3.54-.82.89-1.41-.35.03-.72.03-.89.06s-.36.04-.54.09ZM6.9,42.29v2.33c0,.87-.27,1.05-1.23,1.13l-.57.05-.32-1.01.53-.05c.55-.05.63-.07.63-.58v-1.88h-2.17v-.97h5.57v.97h-2.45ZM4.58,38.36v1.01h3.59v-1.01h-3.59ZM8.02,42.54c.5.62,1.18,1.8,1.45,2.37l-.82.58c-.31-.7-1-1.88-1.41-2.4l.78-.55Z"/>
        <path d="M15.76,36.14c.92,1.48,2.54,2.71,4.4,3.56l-.51,1.06c-.64-.33-1.25-.68-1.81-1.07v.63h-5.06v-.6c-.56.39-1.18.76-1.82,1.08l-.45-1.08c1.79-.87,3.57-2.23,4.39-3.58h.86ZM11.97,41.37h6.67v4.29h-1.05v-.44h-4.51v.43h-1.1v-4.28ZM13.07,42.33v1.94h4.51v-1.94h-4.51ZM17.35,39.33c-.81-.63-1.5-1.29-2.02-2.08-.47.71-1.18,1.41-2.03,2.08h4.04Z"/>
        <path d="M23.15,41.24c-.54-.51-1.46-1.22-1.96-1.55l.6-.88c.53.34,1.42,1.01,1.95,1.46l-.59.98ZM21.42,45.34c.29-.58,1.21-2.94,1.42-3.6l.99.41c-.21.64-1.11,3.04-1.38,3.61l-1.03-.42ZM23.74,38.8c-.47-.44-1.47-1.2-1.97-1.51l.57-.87c.5.3,1.52,1.07,1.97,1.46l-.57.92ZM29.4,40.8c-.08-.17-.18-.36-.29-.56-.94.04-4.07.19-4.92.27l-.27-1.02c.33-.12.39-.21.59-.41.42-.47,1.38-1.97,1.79-2.97l.99.46c-.5.95-1.24,2.21-1.75,2.82l3.02-.14c-.33-.55-.67-1.08-.93-1.45l.85-.58c.56.76,1.32,2.03,1.83,2.92l-.89.64ZM24.43,41.37h5.21v4.37h-1.06v-.48h-3.09v.47h-1.06v-4.36ZM25.49,42.36v1.9h3.09v-1.9h-3.09Z"/>
        <path d="M40.94,37.34v.97h-6.59v2.16c0,2.16-.18,3.44-1.44,5.41l-.99-.52c.91-1.26,1.27-2.36,1.4-3.44l-1.33.68-.33-1.01c.19-.08,1.17-.55,1.72-.8v-.51l-.77.34c-.14-.56-.58-1.87-.89-2.47l.83-.31c.25.51.66,1.45.83,2.09v-2.57h3.35c-.08-.33-.18-.61-.29-.93l1.08-.19c.12.29.24.73.36,1.12h3.06ZM34.71,39.22h5.91v.99l-2.3,1.54v2.59c0,1.01-.27,1.24-1.32,1.32l-.88.06-.31-1.02.88-.06c.46-.03.59-.09.59-.56v-2.76l1.7-1.11h-4.26v-1Z"/>
      </g>
      <g>
        <path class="cls-1" d="M33.64,16.52c0-.7.4-1.3.9-1.6l-6.3-11c-.3.2-.6.2-.9.2-1,0-1.8-.8-1.8-1.8h-12.5c0,1-.8,1.8-1.8,1.8-.3,0-.6-.1-.9-.2l-6.3,10.9c.5.3.9.9.9,1.6s-.4,1.3-.9,1.6l6.4,11c.3-.2.6-.2.9-.2,1,0,1.8.8,1.8,1.8h12.5c0-1,.8-1.8,1.8-1.8.3,0,.6.1.9.2l6.3-10.9c-.7-.3-1-.9-1-1.6Z"/>
        <circle class="cls-1" cx="27.24" cy="30.52" r="1.8"/>
        <circle class="cls-1" cx="11.14" cy="30.52" r="1.8"/>
        <circle class="cls-1" cx="27.24" cy="2.42" r="1.8"/>
        <circle class="cls-1" cx="11.14" cy="2.42" r="1.8"/>
        <circle class="cls-1" cx="3.04" cy="16.42" r="1.8"/>
        <circle class="cls-1" cx="35.44" cy="16.52" r="1.8"/>
        <circle class="cls-1" cx="27.24" cy="30.52" r="1.8"/>
        <circle class="cls-1" cx="11.14" cy="30.52" r="1.8"/>
        <circle class="cls-1" cx="27.24" cy="2.42" r="1.8"/>
        <circle class="cls-1" cx="11.14" cy="2.42" r="1.8"/>
        <circle class="cls-1" cx="3.04" cy="16.42" r="1.8"/>
        <circle class="cls-1" cx="35.44" cy="16.52" r="1.8"/>
        <line class="cls-1" x1="12.74" y1="29.62" x2="33.84" y2="17.52"/>
        <line class="cls-1" x1="12.04" y1="29.02" x2="26.34" y2="4.02"/>
        <line class="cls-1" x1="27.24" y1="4.22" x2="27.24" y2="28.72"/>
        <line class="cls-1" x1="11.14" y1="28.72" x2="11.14" y2="4.22"/>
        <line class="cls-1" x1="25.74" y1="29.62" x2="4.54" y2="17.32"/>
        <line class="cls-1" x1="26.34" y1="29.02" x2="12.04" y2="4.02"/>
        <line class="cls-1" x1="12.74" y1="3.32" x2="33.84" y2="15.62"/>
        <line class="cls-1" x1="33.64" y1="16.52" x2="4.84" y2="16.42"/>
        <line class="cls-1" x1="25.74" y1="3.32" x2="4.54" y2="15.52"/>
      </g>
    </g>
  </g>
</svg>