<?xml version="1.0" encoding="UTF-8"?>
<svg id="Layer_2" data-name="Layer 2" xmlns="http://www.w3.org/2000/svg" viewBox="0 0 34.36 28.79">
  <defs>
    <style>
      .cls-1 {
        fill: #fff;
      }
    </style>
  </defs>
  <g id="Layer_5" data-name="Layer 5">
    <g>
      <path class="cls-1" d="M3.84,18.79c-.87-.53-2.85-1.43-3.84-1.78l.58-1.57c1.02.29,2.72,1.05,3.63,1.54l-.38,1.81ZM9.91,24.92c-.14.42-.72,2.56-1.06,3.87l-1.56-.53c.16-.46,0-.72-.26-1.15l-3.13-5.16-1.45.88-.94-1.56,2.92-1.77,3.63,5.99.5-1.71,1.35,1.14ZM15.28,14.88c-2.74-.11-5.27-.7-7.17-1.74-.08,2.09-.61,4.52-1.67,7.1l-1.66-.89c1.21-2.55,1.73-5.54,1.59-7.62l1.25-.76c1.98,1.32,4.79,1.96,7.59,1.99l.07,1.92ZM11.51,15.47c-.57,2.26-1.56,4.27-2.97,6.39l-1.36-.92c1.3-1.99,2.17-3.93,2.84-6.12l1.49.65ZM14.21,16.73c-.61,2.56-1.83,5.13-3.67,7.66l-1.48-1.02c1.9-2.42,3.08-4.95,3.73-7.21l1.42.57ZM17.35,18.09c-.88,3.51-2.68,6.76-5.63,10.09l-1.65-1.17c3.08-3.22,4.69-6.11,5.6-9.51l1.68.58Z"/>
      <path class="cls-1" d="M31.35,5.72l-1.45.88,4.46,7.36-1.39.84-4.46-7.36-1.48.9c2.3,3.89,2.9,5.72,2.84,8.68l-1.73.17c.02-.07,0-.09,0-.15l-5.67,3.44-7.73-12.75,1.45-.8.51.85.73-1.05c.64.43,2.02,1.35,2.8,1.97l-2.2-3.62,1.39-.76,2.12,3.49c-.05-.92-.23-2.49-.43-3.38l1.39-.25c.2.89.45,2.78.48,3.67l-1.29.19.65,1.08,1.91-1.16.89,1.46-1.91,1.16.55.91.13-.41c.82.2,2.17.6,3.17,1.02l-.32,1.52c-.62-.3-1.47-.62-2.21-.87l1.77,2.91-1.35.82-1.92-3.17c.12,1.13.12,2.29-.04,3.37l-1.38-.82,1.34,2.22,4.65-2.82.54.89c-.08-2.39-.75-3.97-2.78-7.33l-2.93-4.83c1.58-1.25,2.95-2.59,4.11-3.99l1.4,1.23c-.87,1.1-2.16,2.38-3.23,3.29l1.4,2.31,4.31-2.62.92,1.51ZM19.57,9.92c-.67-.54-1.93-1.44-2.72-1.91l4.58,7.54c.3-1.28.32-2.64.13-3.95l-1.6.97-.89-1.46,1.92-1.17-.72-1.19-.71,1.17Z"/>
    </g>
  </g>
</svg>