<?xml version="1.0" encoding="UTF-8"?>
<svg id="Layer_2" data-name="Layer 2" xmlns="http://www.w3.org/2000/svg" viewBox="0 0 110.3 82.56">
  <defs>
    <style>
      .cls-1 {
        stroke-width: 1.09px;
      }

      .cls-1, .cls-2, .cls-3 {
        fill: none;
        stroke: #000;
        stroke-linecap: round;
        stroke-linejoin: round;
      }

      .cls-2 {
        stroke-width: .91px;
      }

      .cls-3 {
        stroke-width: 1.09px;
      }
    </style>
  </defs>
  <g id="Layer_5" data-name="Layer 5">
    <g>
      <g>
        <path d="M2.42,72.66c-.38,1.02-.84,2.05-1.39,3.07l-1.04-.91c.78-1.46,1.55-3.36,1.99-5.34l1.26.2c-.13.6-.25,1.12-.41,1.67h2.49v1.26l-.99,2.59-1.02-.38.83-2.16h-1.72ZM5.16,79.56c-.34.29-1.67,1.26-2.27,1.71-.21.15-.41.31-.62.52l-.74-1.13c.38-.32.43-.56.43-1.05v-5.62l1.26.06v5.37c.38-.27,1.26-1.04,1.55-1.26l.38,1.41ZM12.84,81.08l-.94,1.16c-1.55-1.13-2.75-2.52-3.43-4.16-.6,1.57-1.67,2.94-3.46,4.33l-.97-1.15c2.68-1.85,3.6-3.7,3.67-6.39,0-.25.01-1.2.01-1.44l1.33.06c0,.22-.03,1.06-.03,1.39,0,.27-.01.53-.04.78.38,2.2,1.65,3.92,3.85,5.42ZM4.88,74.97c1.01-1.61,1.65-3.43,2.14-5.52l1.26.27c-.15.6-.29,1.15-.45,1.69h4.37v1.34l-1.2,2.75-1.13-.46,1.02-2.26h-3.52c-.38,1.02-.83,1.98-1.39,2.91l-1.11-.73Z"/>
        <path d="M26.27,74.63c-.62-.27-1.23-.56-1.83-.9v4.41l.34-.24.63.97c-.6.39-1.36.84-2.1,1.22.99.38,1.86.7,2.44.97l-.32,1.26c-1.01-.49-3.15-1.34-4.96-2.02l.03,1.04c-.48.07-2.48.56-3.24.78-.38.1-.76.22-1.11.38l-.48-1.22c.41-.32.46-.49.46-.7v-6.68c-.52.28-1.06.53-1.61.8l-.52-1.32c2.54-1.06,4.59-2.44,5.84-3.99h1.15c1.23,1.51,3.26,2.9,5.77,3.92l-.49,1.32ZM23.99,73.48c-1.5-.85-2.77-1.83-3.56-2.75-.78.9-2.04,1.85-3.57,2.75h3.08l-.41-1.37,1.16-.22c.15.43.34,1.05.49,1.6h2.8ZM17.5,74.59v.88h5.55v-.88h-5.55ZM17.5,77.41h5.55v-.87h-5.55v.87ZM17.5,80.77c.56-.15,1.72-.41,2.49-.63-.74-.27-1.39-.48-1.83-.6l.42-1.01h-1.08v2.24ZM23.83,78.53h-5.08c.73.21,1.92.6,3.15,1.05.62-.29,1.3-.66,1.93-1.05Z"/>
        <path d="M37.26,78.97h-8.91v-1.37h8.91v1.37ZM32.08,72.67l-.13,1.89h7.58c0,.46-.25,4.82-.31,5.18-.11,1.92-.59,2.31-2.44,2.38l-1.7.08-.42-1.43,1.69-.08c1.13-.04,1.37-.18,1.44-1.37.03-.29.21-2.97.24-3.36h-7.72l.45-6.26,1.5.06-.1,1.55h8.04v1.36h-8.14Z"/>
        <path d="M43.19,70.29h3.52v10.51c0,.95-.38,1.29-1.29,1.39l-.53.06-.43-1.44.57-.06c.39-.04.53-.14.53-.57v-2.1h-1.27c-.13,1.64-.39,2.87-.94,4.12l-1.22-.45c.71-1.62,1.06-2.27,1.06-6.11v-5.34ZM44.34,71.68v1.93h1.22v-1.93h-1.22ZM45.56,76.73v-1.86h-1.22v1.86h1.22ZM54.75,76.85v1.15h-7.92v-1.15h1.37c-.18-.29-.36-.63-.52-.84l.56-.35h-1.29v-1.08h3.14v-.77h-2.63v-1.02h2.63v-.74h-2.97v-1.09h1.68c-.21-.29-.39-.59-.6-.85l.94-.67c.32.41.71.97.88,1.25l-.34.28h1.54c.35-.45.74-1.06.95-1.5l1.04.59c-.15.27-.36.59-.59.91h1.67v1.09h-3.01v.74h2.66v1.02h-2.66v.77h3.19v1.08h-1.4l.57.32c-.1.24-.28.55-.49.87h1.58ZM47.55,78.65h6.25v3.54h-1.19v-.43h-3.88v.43h-1.18v-3.54ZM48.7,75.65c.22.29.5.74.63,1.01l-.27.18h1.04v-1.19h-1.4ZM48.72,79.72v.94h3.88v-.94h-3.88ZM51.29,75.65v1.19h.63l.74-1.19h-1.37Z"/>
        <path d="M68.44,74.63c-.62-.27-1.23-.56-1.83-.9v4.41l.34-.24.63.97c-.6.39-1.36.84-2.1,1.22.99.38,1.86.7,2.44.97l-.32,1.26c-1.01-.49-3.15-1.34-4.96-2.02l.03,1.04c-.48.07-2.48.56-3.24.78-.38.1-.76.22-1.11.38l-.48-1.22c.41-.32.46-.49.46-.7v-6.68c-.52.28-1.06.53-1.61.8l-.52-1.32c2.54-1.06,4.59-2.44,5.84-3.99h1.15c1.23,1.51,3.26,2.9,5.77,3.92l-.49,1.32ZM66.16,73.48c-1.5-.85-2.77-1.83-3.56-2.75-.78.9-2.04,1.85-3.57,2.75h3.08l-.41-1.37,1.16-.22c.15.43.34,1.05.49,1.6h2.8ZM59.67,74.59v.88h5.55v-.88h-5.55ZM59.67,77.41h5.55v-.87h-5.55v.87ZM59.67,80.77c.56-.15,1.72-.41,2.49-.63-.74-.27-1.39-.48-1.83-.6l.42-1.01h-1.08v2.24ZM66,78.53h-5.08c.73.21,1.92.6,3.15,1.05.62-.29,1.3-.66,1.93-1.05Z"/>
        <path d="M76.55,75.11c-.38.49-.98,1.16-1.47,1.72.57.43,1.12.85,1.34,1.04l-.63,1.18c-.34-.29-1.15-.94-1.86-1.5v4.62h-1.32v-5.46c-.52.57-1.08,1.11-1.68,1.65l-.64-1.19c1.61-1.42,2.73-2.79,3.47-4.13h-2.77v-1.36h1.92c-.17-.66-.41-1.44-.56-1.88l1.32-.21c.15.46.43,1.39.62,2.09h1.09v1.25c-.42.74-.9,1.47-1.44,2.19v.85l.17.13c.49-.56,1.12-1.32,1.53-1.81l.92.83ZM82.42,77.5c-.78-.67-2.31-1.85-3.29-2.52v7.19h-1.4v-12.55l1.4.06v4.52l.41-.59c1.05.67,2.63,1.79,3.61,2.58l-.73,1.32Z"/>
        <path d="M96.96,78.99c0,.41-.03.9-.08,1.33-.15,1.15-.57,1.64-2.14,1.71-.55.03-1.08.03-1.62,0-1.29-.07-1.81-.38-1.81-1.78v-3.82c-.55.04-1.11.06-1.68.07-.01.18-.03.35-.03.5-.15,2.84-1.37,4.06-4.41,5.56l-.83-1.33c2.63-1.16,3.56-2.12,3.78-4.27.01-.11.03-.24.03-.39l-2.47.15-.34-1.39c.28-.04.64-.24.77-.34.69-.57,1.62-1.55,2.42-2.51h-3.7v-1.41h5.29c-.15-.5-.29-1.01-.41-1.33l1.44-.21c.11.35.31.94.48,1.54h4.85v1.41h-6.07c-.9,1.09-1.95,2.16-2.58,2.7l5.59-.2c-.56-.63-1.12-1.2-1.47-1.58l1.08-.77c.83.85,2.17,2.3,3.07,3.42l-.92,1.02-.62-.78-1.86.07v3.56c0,.57.21.67.9.73.32.03.63.03.95,0,.79-.07.83-.17.94-.7.06-.38.1-.92.1-1.36l1.34.39Z"/>
        <path d="M105,72.29c-.36.81-.83,1.53-1.4,2.16.94.55,1.81,1.08,2.44,1.47l-.52,1.33c-.8-.52-1.88-1.19-2.94-1.85-1,.78-2.2,1.43-3.77,2.04l-.6-1.29c1.22-.45,2.25-.95,3.1-1.53-.71-.43-1.36-.81-1.91-1.13l.62-1.05c.6.32,1.47.78,2.37,1.3.45-.42.83-.91,1.15-1.46h-4.73v-1.33h2.89l-.43-1.25,1.39-.21c.17.41.32.88.53,1.46h2.76v1.33h-.92ZM100.25,76.85l1.29.06c0,.13,0,.29-.01.5-.04,2.55-.49,3.59-2.09,4.96l-1.02-.91c1.44-1.22,1.76-1.86,1.81-4.01.01-.13.01-.43.03-.6ZM103.32,76.79l1.26.06v5.11h-1.26v-5.17ZM107.68,79.21h-1.26v-8.31l1.26.06v8.25ZM110.3,69.79v10.45c0,1.33-.57,1.72-1.91,1.83l-.9.07-.45-1.29,1-.08c.74-.06.95-.18.95-.81v-10.23l1.3.06Z"/>
      </g>
      <g>
        <g>
          <path class="cls-1" d="M28.61,31.04h0l-11.6,11.6c-4.5,4.5-4.5,11.8,0,16.3s11.8,4.5,16.3,0l11.6-11.6h0c1.4-1.4-1.1-6.2-5.6-10.7-4.5-4.5-9.3-7-10.7-5.6Z"/>
          <ellipse class="cls-3" cx="36.8" cy="39.23" rx="3.6" ry="11.5" transform="translate(-16.96 37.51) rotate(-45)"/>
          <path class="cls-2" d="M27.01,38.14l-8.5,8.5c-.3.3-.7.3-1,0h0c-.3-.3-.3-.7,0-1l8.5-8.5c.3-.3.7-.3,1,0h0c.3.3.3.7,0,1Z"/>
        </g>
        <g>
          <path class="cls-1" d="M90.71,42.64l-11.6-11.6h0c-1.4-1.4-6.2,1.1-10.7,5.6s-7,9.3-5.6,10.7h0l11.6,11.6c4.5,4.5,11.8,4.5,16.3,0s4.5-11.8,0-16.3Z"/>
          <path class="cls-2" d="M82.71,40.04l-4-4c-.3-.3-.3-.7,0-1h0c.3-.3.7-.3,1,0l4,4c.3.3.3.7,0,1h0c-.3.3-.8.3-1,0Z"/>
        </g>
        <polygon class="cls-1" points="72.71 22.24 66.21 22.24 66.21 15.84 60.81 15.84 60.81 22.24 54.31 22.24 54.31 27.74 60.81 27.74 60.81 34.14 66.21 34.14 66.21 27.74 72.71 27.74 72.71 22.24"/>
        <path class="cls-1" d="M50.01,39.04s-7.6.3-8.6-7c-.1,0,5.4,0,8.6,7Z"/>
        <path class="cls-1" d="M47.61,32.04s-7.7-.4-8.3-7.7c0,0,5.9,1,8.3,7.7Z"/>
        <path class="cls-1" d="M44.41,23.64s-7.5.4-8.9-6.8c0,0,5.9.8,8.9,6.8Z"/>
        <path class="cls-1" d="M41.01,15.84s-7.2.8-8.5-6.4c0,0,5.6.2,8.5,6.4Z"/>
        <path class="cls-1" d="M50.01,39.04s5.7-4.9,1.7-11.5c0-.1-3.3,5.5-1.7,11.5Z"/>
        <path class="cls-1" d="M47.61,32.04s4.6-6.3.3-11.3c0,0-2.9,3-.3,11.3Z"/>
        <path class="cls-1" d="M44.41,23.64s5-5.6-.2-10.7c0,0-2.3,4.7.2,10.7Z"/>
        <path class="cls-1" d="M41.01,15.84s5-6.2-.3-11.2c0,0-2.8,5.2.3,11.2Z"/>
        <path d="M51.81,44.04c-.1-.2-5.4-19.7-13.9-34.9,0,.2,0,.5-.1.7,0,0-.2-.1-.6-.2,8.4,15.1,13.7,34.4,13.8,34.6,0,.2.2.3.4.3h.1c.3-.1.4-.3.3-.5Z"/>
        <path class="cls-1" d="M37.91,9.84s-6.3-1.7-5.8-9.3c0,0,6.6,2.4,5.8,9.3Z"/>
      </g>
    </g>
  </g>
</svg>