<?xml version="1.0" encoding="UTF-8"?>
<svg id="Layer_2" data-name="Layer 2" xmlns="http://www.w3.org/2000/svg" viewBox="0 0 81.22 47.1">
  <g id="Layer_5" data-name="Layer 5">
    <g>
      <g id="_9unT3F" data-name="9unT3F">
        <g>
          <path d="M16.44,28.56q1.93-1.39.9-2.86c-4.84-6.87-3.66-16.22,2.74-21.8,6.08-5.3,15.5-5.19,21.49.25,6.25,5.68,7.26,15,2.36,21.74-5.22,7.18-15.28,8.88-22.58,3.8-.41-.29-.82-.58-1.21-.85-1.76,1.14-1.79,1.26-.37,2.65.42.41.93.72,1.56,1.2-2.13,2.14-4.01,4.03-5.89,5.93-1.86,1.88-3.71,3.78-5.61,5.71-.43-.24-.78-.43-1.34-.74-1,1.15-2.01,2.33-3.03,3.5-1.89-1.91-3.57-3.63-5.46-5.54,1.1-.91,2.3-1.89,3.49-2.88-.07-.11-.13-.21-.2-.32-.18-.35-.36-.71-.61-1.19,1.56-1.53,3.12-3.06,4.67-4.59,2-1.99,4-3.97,5.97-5.99.56-.58.99-.7,1.52-.01.51.67,1.06,1.3,1.6,1.97ZM44.55,16.4c.01-7.77-6.15-13.99-13.87-14-7.64,0-13.87,6.23-13.87,13.89,0,7.71,6.13,13.87,13.83,13.89,7.73.02,13.9-6.09,13.91-13.79ZM17.72,32.65c-1.01-.93-2.03-1.92-3.12-2.81-.21-.17-.89-.1-1.11.11-2.32,2.24-4.6,4.53-6.85,6.84-.2.2-.27.84-.11,1.03.94,1.11,1.97,2.14,2.87,3.1,2.84-2.82,5.47-5.44,8.33-8.27ZM6.86,41.83c-1.57-2.1-2.04-2.08-3.31.05,1.46,2.01,1.78,2.01,3.31-.05Z"/>
          <path d="M30.62,21.26c-1.05.21-1.11-.41-1.15-1.24-.05-1.05.5-1.1,1.31-1.13,1.02-.05,1.13.45,1.17,1.29.04,1.05-.49,1.2-1.33,1.08Z"/>
          <path d="M31.91,12.48c.12.88-.19,1.31-1.15,1.3-.86,0-1.31-.21-1.29-1.19.02-.85.17-1.33,1.17-1.28.83.03,1.43.15,1.27,1.17Z"/>
          <path d="M27.05,17.5c-.92.13-1.39-.11-1.38-1.11.01-.85.16-1.31,1.16-1.29.83.02,1.35.13,1.29,1.14-.05.79-.04,1.49-1.07,1.25Z"/>
          <path d="M35.65,16.32c.17.94-.26,1.22-1.18,1.23-.93,0-1.21-.33-1.21-1.24,0-.93.3-1.23,1.22-1.22.91,0,1.35.28,1.17,1.23Z"/>
        </g>
      </g>
      <g>
        <path d="M62.6,15.45v.78h4.12v1.12h-1.12l.46.36c-.29.43-.69.88-1.08,1.32h2.59v1.15h-11.35v-1.15h2.65c-.38-.45-.73-.9-1.05-1.23l.49-.45h-1.23v-1.12h4.12v-.78h-2.4v-.62c-.85.38-1.78.73-2.79,1.06l-.42-1.3c1.92-.57,3.52-1.26,4.76-2.14h-.94v-4.83l1.33.06v4.5c.21-.15.41-.32.59-.49h1.12c1.3,1.18,3.05,2.07,5.73,2.82l-.39,1.3c-1.01-.32-1.93-.66-2.82-1.04v.69h-2.38ZM57.98,12.58h-1.29v-4.59l1.29.06v4.54ZM58.99,17.36c.38.41.78.91,1.12,1.34l-.39.34h1.48v-1.68h-2.21ZM59.72,14.39h4.45c-.9-.45-1.65-.94-2.26-1.51-.57.56-1.3,1.05-2.2,1.51ZM62.97,10.17c-.32.55-.67,1.04-1.02,1.47l-1.11-.67c.84-1.05,1.6-2.38,1.95-3.46l1.32.34c-.13.34-.28.69-.46,1.06h4.12v1.26h-3c.52.43,1.29,1.11,1.74,1.6l-.76,1.06c-.53-.62-1.5-1.51-2.03-1.93l.56-.73h-1.3ZM62.6,17.36v1.68h1.75l-.5-.45c.35-.38.73-.83,1.05-1.23h-2.3Z"/>
        <path d="M73.13,14.15h3.11c0,.5-.11,3.42-.17,4.01-.07,1.37-.62,1.71-2.14,1.86l-.56.06-.39-1.29.5-.06c1.09-.11,1.26-.2,1.3-1.13.04-.38.08-1.88.08-2.17h-1.82c-.27,2.33-.95,3.36-2.49,5.04l-1.11-.91c1.39-1.36,1.95-2.24,2.21-4.13h-1.75v-1.27h1.88c.04-.43.04-.98.06-1.39h-1.37v-4.55h5.65v4.55h-2.93l-.06,1.39ZM71.81,11.46h2.94v-2.02h-2.94v2.02ZM78.6,16.99h-1.3v-8.01l1.3.06v7.96ZM81.22,7.9v10.6c0,1.27-.41,1.62-1.86,1.78l-.87.08-.43-1.4.97-.08c.71-.06.91-.18.91-.85V7.84l1.29.06Z"/>
      </g>
    </g>
  </g>
</svg>