<?xml version="1.0" encoding="UTF-8"?>
<svg id="Layer_2" data-name="Layer 2" xmlns="http://www.w3.org/2000/svg" viewBox="0 0 51.79 64.35">
  <g id="Layer_5" data-name="Layer 5">
    <g>
      <g id="KWIHUb">
        <g>
          <path d="M13.45,25.87c.02-6.89,5.62-12.45,12.51-12.42,6.84.02,12.43,5.62,12.43,12.44,0,6.95-5.61,12.52-12.62,12.49-6.82-.03-12.35-5.64-12.33-12.51ZM25.88,35.7c5.43.01,9.85-4.38,9.85-9.79,0-5.36-4.42-9.78-9.79-9.8-5.4-.02-9.83,4.4-9.83,9.82,0,5.4,4.36,9.76,9.77,9.77Z"/>
          <path d="M27.2,5c0,1.13.01,2.27,0,3.4-.01.88-.53,1.45-1.29,1.47-.78.02-1.37-.6-1.38-1.48-.01-2.3-.01-4.59,0-6.89C24.54.58,25.08,0,25.88,0c.8,0,1.3.56,1.31,1.51.01,1.16,0,2.32,0,3.49h0Z"/>
          <path d="M46.88,27.19c-1.17,0-2.33.02-3.5,0-.92-.02-1.45-.5-1.46-1.28-.02-.78.51-1.34,1.41-1.34,2.36-.03,4.72-.02,7.08,0,.84,0,1.38.55,1.38,1.28,0,.79-.52,1.33-1.41,1.34-1.17.02-2.33,0-3.5,0Z"/>
          <path d="M4.94,24.58c1.14,0,2.28-.01,3.41,0,.96.01,1.51.52,1.5,1.33,0,.82-.54,1.29-1.52,1.3-2.28.01-4.55.01-6.83,0C.55,27.21,0,26.7,0,25.89c0-.79.58-1.3,1.53-1.31,1.14-.01,2.28,0,3.41,0Z"/>
          <path d="M40.7,33.09c.5.18.79.24,1.04.38,1.37.77,2.73,1.55,4.07,2.36.87.52,1.13,1.25.75,1.95-.39.71-1.22.84-2.13.33-1.37-.77-2.72-1.56-4.08-2.35-.61-.35-.95-.92-.69-1.56.19-.45.7-.77,1.03-1.11Z"/>
          <path d="M18.69,40.71c-.17.47-.23.74-.36.96-.8,1.41-1.61,2.82-2.44,4.21-.47.8-1.26,1.05-1.91.65-.68-.41-.85-1.17-.39-1.98.81-1.44,1.64-2.86,2.48-4.28.34-.59.92-.87,1.52-.6.45.21.77.7,1.11,1.03Z"/>
          <path d="M38.59,6.2c-.19.49-.27.78-.41,1.03-.77,1.36-1.55,2.73-2.35,4.08-.51.86-1.19,1.11-1.88.73-.76-.42-.92-1.2-.41-2.1.8-1.41,1.61-2.81,2.44-4.21.37-.62.97-.87,1.6-.56.42.21.7.7,1.01,1.02Z"/>
          <path d="M46.71,14.92c-.16.19-.39.65-.76.88-1.4.87-2.84,1.68-4.28,2.48-.77.43-1.54.22-1.91-.44-.37-.66-.2-1.37.53-1.81,1.48-.9,2.97-1.78,4.49-2.6.92-.49,1.97.21,1.93,1.48Z"/>
          <path d="M6.17,38.55c-.28-.24-.76-.5-.97-.9-.28-.53-.18-1.18.38-1.52,1.57-.96,3.16-1.89,4.77-2.76.63-.34,1.38-.05,1.68.54.31.62.29,1.29-.32,1.67-1.56.97-3.17,1.86-4.77,2.77-.16.09-.36.1-.77.2Z"/>
          <path d="M34.83,39.57c.19.14.67.35.9.71.89,1.42,1.71,2.88,2.53,4.34.42.76.22,1.53-.44,1.9-.66.38-1.4.17-1.86-.6-.86-1.44-1.71-2.88-2.51-4.35-.51-.93.1-1.98,1.38-2Z"/>
          <path d="M18.68,10.99c-.31.37-.56.92-.96,1.06-.39.14-1.19.05-1.37-.23-1.08-1.65-2.07-3.36-3-5.09-.29-.54.01-1.13.57-1.45.54-.31,1.22-.36,1.55.17,1.06,1.69,2.02,3.45,3.01,5.18.04.07.03.16.04.24.05.04.09.08.14.12Z"/>
          <path d="M6.44,13.29c.25.09.52.15.75.28,1.41.8,2.81,1.61,4.2,2.44.78.47,1.02,1.27.61,1.92-.39.63-1.18.8-1.93.37-1.43-.81-2.85-1.65-4.28-2.47-.64-.37-.89-.97-.62-1.58.2-.44.71-.74,1.09-1.1.06.05.12.09.18.14Z"/>
        </g>
      </g>
      <g>
        <path d="M25.46,61.13c-.6-.94-1.86-2.48-2.82-3.54v6.54h-1.4v-6.18c-.66,1.02-1.4,1.99-2.25,2.94l-.14-.14.15,1.39c-.81.11-4.22.7-5.06.87l-.15-1.32c.32-.06,1.09-.2,1.95-.36v-3.26h-1.46v-1.34h1.46v-2.82h-1.58v-1.34h4.5v1.34h-1.55v2.82h1.48v1.34h-1.48v3.01c.74-.15,1.41-.25,1.74-.35l-.88-.92c1.69-1.64,2.91-3.74,3.81-5.98h-2.75v-1.43h6.92v1.43h-2.69c-.32.85-.66,1.65-1.04,2.44h.43v.52l.59-.55c.94.98,2.48,2.77,3.19,3.78l-.97,1.12Z"/>
        <path d="M31.99,61.35c-.42.11-3.63,1.13-4.02,1.3l-.24-1.39c.15-.04.83-.24,1.61-.5v-4.51h-1.25v-1.33h1.25v-3.46l1.25.06v3.4h1.09v1.33h-1.09v4.12l1.26-.43.14,1.41ZM40.41,61.61c-.04.34-.06.62-.11,1.02-.15,1.01-.38,1.2-1.51,1.27-.49.03-.95.03-1.4,0-.91-.06-1.29-.31-1.29-1.25v-1.82h-1.13v.08c-.07,1.98-1.34,2.61-3.7,3.43l-.6-1.15c2.28-.63,2.9-1.27,3.01-2.27,0-.04,0-.07.01-.1h-1.44v-4.31h6.89v4.31h-1.83v1.4c0,.49.11.55.55.59.22.01.45.01.69,0,.5-.04.57-.1.64-.56.07-.45.1-.78.1-1.05l1.13.39ZM40.14,55.85h-8.18v-1.06h1.74l-.22-1.19h-1.44v-1.04h3c-.1-.34-.2-.66-.31-.98l1.37-.21c.13.38.27.76.39,1.19h3.22v1.04h-1.53c-.07.34-.2.78-.31,1.19h2.27v1.06ZM33.45,57.53v.67h4.48v-.67h-4.48ZM33.45,59.84h4.48v-.66h-4.48v.66ZM34.72,53.59c.1.39.15.81.21,1.19h1.67l.32-1.19h-2.2Z"/>
      </g>
    </g>
  </g>
</svg>