<?xml version="1.0" encoding="UTF-8"?>
<svg id="Layer_2" data-name="Layer 2" xmlns="http://www.w3.org/2000/svg" viewBox="0 0 59.7 53.64">
  <g id="Layer_5" data-name="Layer 5">
    <g>
      <g id="Dry">
        <path d="M29.83,31.49c-8.66,0-15.71-7.05-15.71-15.71S21.17.08,29.83.08s15.71,7.05,15.71,15.71-7.05,15.71-15.71,15.71ZM29.83,2.46c-7.35,0-13.33,5.98-13.33,13.33s5.98,13.33,13.33,13.33,13.33-5.98,13.33-13.33-5.98-13.33-13.33-13.33Z"/>
        <path d="M30,35.2c-8.9,0-16.47-4.38-21.25-8.05-2.88-2.21-4.98-4.33-6.23-5.71-2.51-2.78-2.51-3.46-2.51-3.75,0-.65.74-1.9,2.19-3.72,1.13-1.42,3.05-3.58,5.76-5.81C12.49,4.44,19.94,0,29.67,0s17.29,4.37,21.88,8.04c2.8,2.24,4.75,4.39,5.9,5.8,1.03,1.27,2.25,2.97,2.25,3.87,0,.3,0,1.08-2.45,3.87-1.21,1.38-3.26,3.48-6.14,5.71-4.69,3.62-12.16,7.93-21.11,7.93ZM2.49,17.66c.78,1.19,3.79,4.71,8.24,8.01,4.38,3.26,11.28,7.15,19.27,7.15s14.85-3.83,19.16-7.05c4.57-3.42,7.47-7,8.09-8.1-.55-1.06-3.08-4.62-7.64-8.14-4.22-3.26-11.1-7.15-19.94-7.15s-15.57,3.94-19.73,7.24c-4.24,3.37-6.79,6.87-7.45,8.04ZM2.32,17.36s0,0,0,0t0,0Z"/>
        <path d="M29.83,9.92c-3.51,0-6.35,2.84-6.35,6.35s2.84,6.35,6.35,6.35,6.35-2.84,6.35-6.35-2.84-6.35-6.35-6.35ZM32.06,15.79c-1.14,0-2.06-.92-2.06-2.06s.92-2.06,2.06-2.06,2.06.92,2.06,2.06-.92,2.06-2.06,2.06Z"/>
        <polygon points="28.54 29.87 29.77 28.34 29.77 27 28.83 27 28.83 28.01 27.8 29.28 28.54 29.87"/>
        <polygon points="41.26 25.57 34.36 22.54 33.98 23.4 36.9 24.68 36.58 25.14 35.01 25.59 35.26 26.49 37.15 25.96 37.78 25.07 40.88 26.43 41.26 25.57"/>
        <polygon points="19.54 5.7 26.44 8.72 26.82 7.86 23.9 6.58 24.22 6.13 25.79 5.68 25.53 4.77 23.64 5.31 23.02 6.2 19.92 4.84 19.54 5.7"/>
        <polygon points="19.12 16.23 22.17 15.3 21.9 14.4 14.69 16.58 14.96 17.48 18.2 16.51 18.71 17.46 20.52 18.22 20.89 17.35 19.38 16.72 19.12 16.23"/>
        <polygon points="41.96 14.32 45.02 13.4 44.74 12.5 37.53 14.68 37.81 15.58 41.04 14.6 41.56 15.56 43.37 16.31 43.74 15.45 42.23 14.82 41.96 14.32"/>
        <polygon points="24.14 25.34 23.7 25 26.1 22.9 25.48 22.19 24.5 23.05 23.82 22.24 23.81 21.23 22.86 21.25 22.89 22.59 23.79 23.67 19.81 27.15 20.43 27.86 22.97 25.63 23.84 26.29 25.8 26.23 25.77 25.29 24.14 25.34"/>
        <polygon points="36.36 5.82 36.81 6.16 34.4 8.26 35.02 8.97 36.01 8.11 36.68 8.91 36.7 9.93 37.64 9.91 37.61 8.57 36.71 7.49 40.69 4.01 40.08 3.3 37.53 5.53 36.67 4.87 34.7 4.93 34.73 5.87 36.36 5.82"/>
        <polygon points="29.94 1.29 29.11 3.68 29.69 5.32 30.84 4.91 30.4 3.68 31.09 1.69 29.94 1.29"/>
        <polygon points="43.03 21.72 41.2 19.96 39.48 19.81 39.37 21.01 40.67 21.13 42.18 22.59 43.03 21.72"/>
      </g>
      <g>
        <path d="M12.95,41.22h3.91v10.97h-3.91v-10.97ZM14.08,42.46v1.98h1.62v-1.98h-1.62ZM15.71,47.61v-1.95h-1.62v1.95h1.62ZM15.71,50.94v-2.14h-1.62v2.14h1.62ZM24.99,51.85l-.86,1.15c-2.34-1.3-3.63-2.77-4.37-5.5h-.63v4.06c.46-.2,1.43-.67,1.88-.9l.25,1.29-2.51,1.12c-.28.13-.5.25-.79.41l-.56-1.27c.35-.18.41-.28.41-.67v-10.32h6.01v6.29h-2.83c.21.63.43,1.15.71,1.64.66-.49,1.25-.97,1.88-1.51l.73.95c-.6.5-1.27,1.05-1.89,1.51.66.71,1.46,1.26,2.56,1.77ZM19.14,42.44v1.29h3.39v-1.29h-3.39ZM19.14,46.27h3.39v-1.32h-3.39v1.32Z"/>
        <path d="M29.64,46.12c0,3.61-.58,5.13-2.07,7.44l-1.21-.73c1.19-1.71,1.79-2.89,1.95-4.62-.48.29-1.13.69-1.44.84l-.47-1.33c.31-.11,1.33-.71,1.96-1.05v-.69l-.9.38c-.18-.77-.74-2.27-1.08-3.1l1.12-.5c.22.56.59,1.5.86,2.24v-3.1h4.64l-.35-1.06,1.37-.25c.13.35.28.83.43,1.32h4.15v1.25h-8.95v2.97ZM38.31,53.39c-1.55-.55-2.7-1.04-3.64-1.64-.9.62-1.95,1.18-3.33,1.75l-.71-1.15c-.22.38-.51.74-.83,1.18l-1.08-.76c1.46-1.61,1.85-2.68,1.85-5.46v-3.08h3.22v-.91l1.3.06v.85h3.25v1.11l-.69,1.36-1.21-.32.5-.94h-1.86v1.64h2.54v1.09c-.49,1.08-1.08,1.96-1.92,2.76.84.46,1.9.83,3.26,1.18l-.66,1.29ZM33.61,50.93c-.66-.62-1.16-1.36-1.6-2.31l.85-.36h-1.08c-.07,1.65-.36,2.73-1.08,3.95,1.18-.41,2.12-.81,2.9-1.27ZM31.81,45.43v1.64h1.97v-1.64h-1.97ZM36.22,48.25h-2.96c.37.81.83,1.46,1.4,1.95.71-.57,1.18-1.2,1.55-1.95Z"/>
        <path d="M52.92,41.72v1.3h-3.54v1.06h-1.32v-1.06h-2.73v1.06h-1.4v-1.06h-3.49v-1.3h3.49v-1.11l1.4.06v1.05h2.73v-1.11l1.32.06v1.05h3.54ZM46.23,46.36c-.02.29-.06.77-.1,1.21h5.06c-.04.41-.2,2.86-.24,3.52-.11,1.53-.64,1.82-2.28,1.93l-1.39.08-.41-1.37,1.43-.08c.94-.04,1.13-.17,1.25-.94.04-.35.13-1.64.13-1.92h-3.7c-.41,2.42-1.51,3.59-4.76,4.86l-.63-1.39c2.75-1.05,3.69-1.78,3.99-3.47h-3.04v-1.22h3.15c.04-.38.08-.98.08-1.26l1.46.06ZM41.12,44.51h11.16v2.83h-1.35v-1.6h-8.47v1.6h-1.34v-2.83Z"/>
      </g>
    </g>
  </g>
</svg>