<?xml version="1.0" encoding="UTF-8"?>
<svg id="Layer_2" data-name="Layer 2" xmlns="http://www.w3.org/2000/svg" viewBox="0 0 61.08 39.95">
  <defs>
    <style>
      .cls-1 {
        fill: none;
      }
    </style>
  </defs>
  <g id="Layer_5" data-name="Layer 5">
    <g>
      <g>
        <g>
          <circle class="cls-1" cx="30.56" cy="11.68" r="9.99"/>
          <circle cx="30.56" cy="11.68" r="3.81"/>
        </g>
        <path d="M30.47,23.35c-5.21-.21-9.93-1.85-14.4-4.34-2.95-1.64-5.71-3.56-8.06-6.01-1.16-1.21-1.16-1.62.04-2.76,3.52-3.35,7.47-6.04,11.94-7.97,7.6-3.28,15.1-2.96,22.52.62,3.94,1.9,7.47,4.39,10.64,7.4,1.1,1.05,1.13,1.54.05,2.55-4.92,4.61-10.47,8.16-17.12,9.7-1.83.42-3.73.55-5.59.81ZM30.47,21.03c5.04.09,9.43-4.13,9.53-9.14.1-5.26-4.06-9.64-9.21-9.72-5.25-.08-9.57,4.06-9.67,9.27-.09,5.17,4.13,9.5,9.35,9.59ZM21.55,19.12c-3.51-4.98-3.47-9.95-.09-14.98-4.43,1.74-8.23,4.31-11.76,7.53,3.56,3.28,7.43,5.78,11.85,7.45ZM39.61,19.08c4.38-1.72,8.18-4.26,11.72-7.49-3.5-3.19-7.28-5.75-11.68-7.45,3.43,5,3.4,9.95-.03,14.93Z"/>
        <path d="M36.83,16.37c1.29,0,1.29-2,0-2s-1.29,2,0,2h0Z"/>
        <path d="M34.38,18.83c1.29,0,1.29-2,0-2s-1.29,2,0,2h0Z"/>
        <path d="M30.27,19.1c1.29,0,1.29-2,0-2s-1.29,2,0,2h0Z"/>
        <path d="M26.75,17.64c1.29,0,1.29-2,0-2s-1.29,2,0,2h0Z"/>
        <path d="M23.7,15.55c1.29,0,1.29-2,0-2s-1.29,2,0,2h0Z"/>
        <path d="M32.82,21.84c1.29,0,1.29-2,0-2s-1.29,2,0,2h0Z"/>
        <path d="M37.47,19.56c1.29,0,1.29-2,0-2s-1.29,2,0,2h0Z"/>
        <path d="M27.62,21.66c1.29,0,1.29-2,0-2s-1.29,2,0,2h0Z"/>
        <path d="M24.2,20.08c1.29,0,1.29-2,0-2s-1.29,2,0,2h0Z"/>
      </g>
      <g>
        <path d="M6.12,34.85c.3,1.82,1.95,3.09,4.94,3.77l-.5,1.32c-2.55-.74-4.15-1.7-5-3.14-.8,1.29-2.41,2.25-5.01,3.14l-.55-1.26c3.36-.96,4.89-2.29,4.89-4.1v-1.3l1.24.05v1.51ZM2.99,30.63H.26v-1.09h2.72v-1.09l1.25.05v1.04h2.5v-1.09l1.25.05v1.04h2.71v1.09h-2.71v.92h-1.25v-.92h-2.5v.92h-1.25v-.92ZM10.44,34.21h-1.21v-1.27H1.72v1.34H.51v-2.36h9.92v2.3ZM2.12,33.86c.5.42,1.39,1.3,1.84,1.89l-.72,1c-.5-.6-1.33-1.52-1.91-2.02l.8-.86ZM6.91,35.89c.61-.55,1.44-1.47,1.8-2.02l.95.81c-.41.54-1.15,1.44-1.82,2.01l-.92-.8Z"/>
        <path d="M23.6,36.73c-.04.34-.05.71-.11,1.2-.2,1.3-.54,1.57-1.89,1.64-.49.02-.96.02-1.44,0-1.2-.06-1.61-.38-1.61-1.67v-3.62h-1.61c0,.09-.01.14-.01.19-.16,2.77-1.01,4.04-3.67,5.47l-1-1.12c2.44-1.16,3.26-1.97,3.32-4.37,0-.06,0-.12.01-.16h-2.86v-1.24h4.6v-4.54l1.29.05v4.49h4.7v1.24h-3.47v3.22c0,.56.2.65.79.7.26.02.54.02.81,0,.71-.06.75-.18.85-.69.04-.29.08-.67.09-1.11l1.22.34ZM15.49,32.74c-.46-.8-1.51-2.15-2.11-2.79l.97-.77c.56.6,1.62,1.91,2.09,2.66l-.95.9ZM22.66,29.91c-.54.84-1.46,2.09-2.17,2.86l-1-.82c.72-.8,1.61-1.97,2.15-2.81l1.02.77Z"/>
        <path d="M28.84,38.02c-.95.56-2.17,1.2-3.29,1.66l-.49-1.02c1.09-.39,2.34-1,3.22-1.61l.55.97ZM36.01,32.36v.91h-2.91l.56.73c-1.59.96-2.75,1.59-3.95,2.02l3.36-.15-.6-.46.65-.69c.7.46,1.86,1.44,2.42,1.97l-.6.77c-.2-.19-.44-.38-.7-.61-.6,0-1.75.01-2.99.05v1.44c0,1.06-.31,1.2-1.5,1.34l-.76.07-.38-1.12.7-.08c.62-.06.79-.1.79-.56v-1.06c-1.24.04-2.36.06-3,.1l-1.15.08-.16-1c.36,0,.92-.02,1.32-.11.8-.2,1.66-.55,2.51-.95-.8.01-1.66.02-2.15.06-.26.04-.69.04-.95.08l-.16-.89c.59-.05.77-.1.96-.19.36-.15.96-.48,1.55-.84h-3.7v-.91h4.8v-.64h-3.72v-.91h3.72v-.62h-4.26v-.94h4.26v-.81l1.21.05v.76h4.27v.94h-4.27v.62h3.7v.91h-3.7v.64h4.81ZM32.8,33.28h-2.8l.26.29c-.4.26-.8.47-1.2.67.64-.04,1.62-.04,2.29-.08.55-.31,1.05-.62,1.45-.89ZM32.54,37.01c1.01.44,2.47,1.16,3.45,1.66l-.45,1.01c-.88-.46-2.42-1.26-3.51-1.66l.51-1.01Z"/>
        <path d="M48.27,39.56c-2.01-.81-3.4-1.57-4.5-2.54v2.79h-1.24v-2.8c-1.09.96-2.47,1.75-4.54,2.56l-.46-1.2c2-.74,3.37-1.34,4.4-2.14h-3.92v-1.12h4.52v-1.19l1.24.05v1.14h4.45v1.12h-3.96c1.15.91,2.72,1.57,4.51,2.19l-.5,1.14ZM39.82,32.4c-.39-.29-1.67-1.05-2.06-1.21l.5-.99c.46.2,1.62.88,2.04,1.19l-.47,1.01ZM37.9,33.8c.94-.54,2.12-1.36,2.69-1.86l.56.86c-.62.52-1.67,1.34-2.67,1.97l-.58-.97ZM40.74,30.71c-.52-.4-1.6-1.02-2.1-1.29l.47-.92c.5.24,1.56.83,2.09,1.21l-.46,1ZM40.51,33.46c1.47-.76,1.97-1.32,2.17-2.4h-1.39v-1.12h1.46l.04-1.44,1.25.05c.01.26,0,.64-.04,1.39h2.45v2.86c0,.24.08.31.33.31h.25c.24,0,.36-.11.4-.33.05-.31.09-.71.1-1.12l1.09.34c-.03.44-.06.84-.12,1.2-.14.8-.49,1.05-1.34,1.05h-.71c-.86,0-1.2-.29-1.2-1.25v-1.94h-1.35c-.24,1.56-.97,2.52-2.64,3.46l-.75-1.06Z"/>
        <path d="M61.08,36.99c-.04.34-.05.65-.14,1.04-.23,1.17-.54,1.47-1.92,1.51-1.91.06-3.81.06-5.71,0-1.31-.04-1.88-.51-1.88-1.95v-4.79l-.6.52-.81-1.05c1.44-1.17,2.82-2.61,3.62-4.1l1.15.55c-.11.21-.22.41-.36.61h4.42v1.04c-.31.29-.87.92-1.36,1.51h2.49v4.09h-7.32v1.32c0,.85.17,1.02,1.06,1.06,1.69.06,3.36.06,5.04,0,.84-.04.92-.16,1.05-.81.06-.31.09-.64.1-.99l1.17.43ZM53.64,30.48c-.39.49-.8.96-1.24,1.41h3.52c.47-.51,1.19-1.32,1.34-1.41h-3.62ZM55.09,34.85v-1.86h-2.42v1.86h2.42ZM58.75,32.99h-2.45v1.86h2.45v-1.86Z"/>
      </g>
    </g>
  </g>
</svg>