<?xml version="1.0" encoding="UTF-8"?>
<svg id="Layer_2" data-name="Layer 2" xmlns="http://www.w3.org/2000/svg" viewBox="0 0 69.03 66.23">
  <g id="Layer_5" data-name="Layer 5">
    <g>
      <g id="_0fdiQx" data-name="0fdiQx">
        <g>
          <path d="M51.34,17c.68-.74,1.34-1.5,2.05-2.21,1.32-1.33,2.79-1.32,4.12,0,.7.69,1.41,1.38,2.09,2.09,1.17,1.22,1.15,2.71-.05,3.91-2.61,2.61-5.22,5.23-7.85,7.82-.47.46-.68.93-.67,1.59.03,3.21.02,6.43,0,9.64,0,2.9-1.84,4.73-4.75,4.73-8.73,0-17.46,0-26.19,0-2.86,0-4.7-1.82-4.7-4.7-.01-11.74-.01-23.48,0-35.22C15.4,1.9,17.29,0,20.04,0c6.93,0,13.87-.01,20.8.02.44,0,.99.24,1.31.55,2.82,2.76,5.61,5.55,8.37,8.37.3.3.5.82.51,1.25.05,1.95.01,3.9.01,5.84,0,.27.03.53.04.8.08.05.17.1.25.16ZM49.22,31.19c-.27.24-.48.41-.66.6-1.25,1.25-2.49,2.52-3.76,3.75-.28.27-.63.54-.99.64-2.02.58-4.05,1.1-6.08,1.64-1.09.29-1.6-.24-1.3-1.34.52-1.95,1.02-3.91,1.58-5.86.12-.41.37-.84.67-1.15,3.36-3.4,6.76-6.76,10.12-10.16.28-.28.49-.77.5-1.17.05-2.22,0-4.45.04-6.68,0-.63-.17-.83-.81-.82-2.25.03-4.5.01-6.75.01-1.21,0-1.39-.19-1.39-1.42,0-2.18-.03-4.35.01-6.53.01-.73-.14-1-.95-1-6.4.04-12.8.02-19.2.02-2.02,0-3.09,1.07-3.09,3.09,0,11.66,0,23.32,0,34.98,0,1.92,1.1,3.02,3.01,3.02,3.36,0,6.73,0,10.09,0,5.39,0,10.78,0,16.17,0,1.68,0,2.88-1.07,2.9-2.66.03-2.86.01-5.72,0-8.57,0-.09-.04-.18-.08-.4ZM55.32,22.29c-.91-.88-1.91-1.79-2.84-2.78-.51-.54-.81-.6-1.37-.03-2.88,2.95-5.81,5.84-8.72,8.76-.71.71-1.41,1.43-2.07,2.1,1.23,1.21,2.39,2.36,3.53,3.48,3.76-3.78,7.56-7.6,11.48-11.53ZM42.15,3.29c0,1.75,0,3.43,0,5.12,0,.49.27.51.64.51,1.34,0,2.68,0,4.02,0,.33,0,.66,0,.95,0-1.88-1.89-3.7-3.72-5.59-5.63ZM56.79,21.18c.55-.59,1.09-1.15,1.62-1.73.38-.41.43-.86.02-1.28-.77-.79-1.53-1.61-2.37-2.33-.23-.2-.85-.29-1.06-.12-.69.53-1.27,1.19-1.87,1.78,1.23,1.23,2.38,2.39,3.66,3.68ZM39.37,32.31c-.29,1.12-.58,2.22-.91,3.49,1.29-.36,2.36-.65,3.42-.95-.86-.87-1.64-1.66-2.51-2.55Z"/>
          <path d="M33.22,19.65c3.11,0,6.22,0,9.33,0,.23,0,.52-.07.67.04.27.21.63.52.63.8,0,.28-.33.61-.6.82-.17.13-.49.07-.74.07-6.19,0-12.38,0-18.58,0-.2,0-.41,0-.6-.03-.49-.08-.8-.37-.78-.87.02-.49.31-.79.82-.83.23-.02.45-.01.68-.01,3.06,0,6.12,0,9.17,0Z"/>
          <path d="M33.18,16.01c-3.16,0-6.32.02-9.47-.02-.37,0-.84-.23-1.06-.51-.34-.44.05-1.07.64-1.17.27-.04.55-.03.83-.03,6.09,0,12.18,0,18.26,0,.15,0,.3,0,.45,0,.59-.02,1.03.22,1.04.84.01.67-.46.89-1.07.89-3.21,0-6.42,0-9.62,0Z"/>
          <path d="M30.11,26.74c-2.1,0-4.2,0-6.3,0-.25,0-.57.03-.73-.11-.24-.21-.52-.55-.5-.82.02-.27.35-.56.61-.75.16-.11.44-.06.67-.06,4.17,0,8.34,0,12.51,0,.05,0,.1,0,.15,0,.6-.01,1.09.16,1.09.86,0,.69-.47.89-1.07.89-1.06,0-2.12,0-3.19,0-1.09,0-2.17,0-3.26,0h0Z"/>
          <path d="M28.29,32.08c-1.54,0-3.08,0-4.62,0-.6,0-1.1-.18-1.11-.85-.01-.68.47-.88,1.08-.88,3.11,0,6.22,0,9.32,0,.59,0,1.08.12,1.1.84.02.59-.35.88-1.14.88-1.54,0-3.08,0-4.62,0,0,0,0,0,0,0Z"/>
        </g>
      </g>
      <g>
        <path d="M12.47,54.61v1.22H3.4v2.96c0,3.43-.63,5.1-2.18,7.44l-1.09-.78c1.16-1.65,1.78-2.82,1.96-4.51-.64.34-1.4.73-1.54.84l-.46-1.36c.52-.24,1.34-.66,2.06-1.01v-.71l-1.04.42c-.18-.78-.74-2.44-1.11-3.29l1.15-.46c.27.63.73,1.93.99,2.79v-3.53h4.71c-.13-.43-.27-.83-.42-1.26l1.42-.25c.15.41.35.99.5,1.51h4.12ZM3.81,56.88h8.59v1.2h-3.71c0,.38,0,.81-.01,1.15h3.25v4.97c0,1.27-.39,1.53-1.67,1.64l-.88.08-.39-1.26.87-.08c.74-.07.84-.21.84-.73v-.62l-.63.73c-.48-.56-1.34-1.4-2.05-2.03-.45.77-1.18,1.47-2.18,2.3l-.39-.53v2.05h-1.27v-6.51h3.29v-1.15h-3.64v-1.2ZM5.43,62.89c1.16-.87,1.76-1.51,1.95-2.47h-1.95v2.47ZM10.69,60.43h-2.09c-.04.11-.03.22-.07.34.69.57,1.61,1.48,2.16,2.07v-2.41Z"/>
        <path d="M26.26,65.95c-3-.27-5.1-.73-6.81-1.69-.99.77-2.49,1.33-4.75,1.93l-.53-1.44c1.92-.39,3.18-.81,4.02-1.33-.76-.6-1.48-1.37-2.2-2.28l1.01-.85h-1.71v-5.25h4.41v-1.74l1.39.06v1.68h4.5v5.25h-4.5c0,1.22-.17,2.12-.63,2.89,1.5.77,3.39,1.13,6.13,1.32l-.34,1.47ZM16.7,58.97h3v-2.61h-3v2.61ZM17.14,60.27c.67.88,1.34,1.57,2.09,2.13.35-.6.48-1.27.48-2.13h-2.56ZM21.09,56.36v2.61h3.11v-2.61h-3.11Z"/>
        <path d="M32.4,59.1c.53.45,1.53,1.53,2.06,2.13l-.91,1.06c-.32-.41-.92-1.11-1.44-1.67v5.29h-1.34v-5.41c-.62,1.16-1.36,2.27-2.05,3.11l-.7-1.41c.94-1.11,1.88-2.52,2.55-3.92h-2.06v-1.37h2.26v-1.47c-.71.13-1.39.24-1.95.31l-.14-1.33c1.44-.18,3.6-.57,5.06-.98l.24,1.33c-.52.15-1.18.27-1.86.42v1.72h2.13v1.37h-2.13v1.12l.29-.31ZM40.03,54.42v11.02h-1.32v-.87h-2.83v.95h-1.36v-11.11h5.5ZM38.72,63.16v-7.27h-2.83v7.27h2.83Z"/>
        <path d="M45.66,58.49c0,3.85-.66,5.45-2.12,7.58l-1.3-.76c1.28-1.74,1.86-2.73,2.02-4.47-.56.27-1.21.57-1.71.84l-.36-1.34,2.13-.98v-.83l-.98.38c-.22-.74-.71-2.27-1.09-3.05l1.22-.43c.22.48.59,1.44.85,2.2v-3.12h4.58c-.11-.35-.24-.67-.36-1.05l1.42-.25c.15.35.29.84.45,1.3h4.16v1.4h-8.9v2.59ZM54.75,64.15v1.3h-9.69v-1.3h1.68v-4.58l1.37.06v4.52h1.75v-5.88h-3.66v-1.32h8.05v1.32h-3.04v2.07h2.75v1.26h-2.75v2.55h3.53Z"/>
        <path d="M65.03,58.26c.35,2.69,1.81,4.82,3.99,6.63l-1.08,1.15c-1.51-1.3-2.75-3-3.46-4.86-.58,1.81-1.61,3.46-3.25,4.92l-.69-.83v.64h-1.36v-4.41c-.74.66-1.91,1.62-2.31,1.96l-.64-1.46c.5-.35,2.04-1.57,2.96-2.37v-.94l-1.07.5c-.38-1.16-1.11-2.77-1.62-3.78l1.2-.55c.45.91,1.04,2.27,1.49,3.46v-5.04l1.36.06v11.28c2.19-2.07,2.97-3.78,3.15-6.36h-2.72v-1.36h2.75v-3.64l1.34.06v3.59h3.49v1.36h-3.53ZM67.21,56.69c-.31-.53-1.25-1.79-1.75-2.3l.95-.85c.52.48,1.46,1.68,1.79,2.24l-1,.91Z"/>
      </g>
    </g>
  </g>
</svg>