<?xml version="1.0" encoding="UTF-8"?>
<svg id="Layer_2" data-name="Layer 2" xmlns="http://www.w3.org/2000/svg" xmlns:xlink="http://www.w3.org/1999/xlink" viewBox="0 0 48.13 58.51">
  <defs>
    <style>
      .cls-1, .cls-2 {
        fill: none;
      }

      .cls-1, .cls-2, .cls-3, .cls-4, .cls-5 {
        stroke: #000;
      }

      .cls-1, .cls-2, .cls-4, .cls-5 {
        stroke-width: 2px;
      }

      .cls-1, .cls-4, .cls-5 {
        stroke-miterlimit: 10;
      }

      .cls-2, .cls-3 {
        stroke-linejoin: round;
      }

      .cls-2, .cls-3, .cls-4, .cls-5 {
        stroke-linecap: round;
      }

      .cls-4 {
        fill: url(#linear-gradient-2);
      }

      .cls-5 {
        fill: url(#linear-gradient-3);
      }

      .cls-6 {
        fill: url(#linear-gradient);
      }
    </style>
    <linearGradient id="linear-gradient" x1="1382.62" y1="261.93" x2="1395.84" y2="261.93" gradientTransform="translate(-634.15 740.29) rotate(-58.75) scale(.69 .67)" gradientUnits="userSpaceOnUse">
      <stop offset="0" stop-color="#b18a12"/>
      <stop offset=".1" stop-color="#c49919"/>
      <stop offset=".24" stop-color="#d6a921"/>
      <stop offset=".38" stop-color="#e2b225"/>
      <stop offset=".53" stop-color="#e6b627"/>
      <stop offset="1" stop-color="#b18a12"/>
    </linearGradient>
    <linearGradient id="linear-gradient-2" x1="2933.55" y1="3018.45" x2="2958.9" y2="3018.45" gradientTransform="translate(-280.74 1340.48) rotate(-124.46) scale(.31 .34)" xlink:href="#linear-gradient"/>
    <linearGradient id="linear-gradient-3" x1="-2730.4" y1="3693.51" x2="-2705.05" y2="3693.51" gradientTransform="translate(266.06 1451.35) rotate(145.71) scale(.23 .36)" xlink:href="#linear-gradient"/>
  </defs>
  <g id="Layer_5" data-name="Layer 5">
    <g>
      <g>
        <g>
          <polygon class="cls-3" points="25.31 25.31 36.59 40.01 14.04 40.01 25.31 25.31"/>
          <circle class="cls-2" cx="7.16" cy="21.85" r="6.16"/>
          <rect x="-.28" y="22.68" width="49.51" height="3.87" rx="1.31" ry="1.31" transform="translate(-6.74 9.44) rotate(-19.24)"/>
          <circle class="cls-2" cx="35.85" cy="12.14" r="6.16"/>
          <g>
            <line class="cls-6" x1="10.51" y1="16.39" x2="15.24" y2="8.6"/>
            <g>
              <line class="cls-1" x1="10.51" y1="16.39" x2="13.38" y2="11.67"/>
              <polygon points="15.13 13.59 15.24 8.6 10.87 11 15.13 13.59"/>
            </g>
          </g>
        </g>
        <line class="cls-4" x1="31.59" y1="7.57" x2="27.08" y2="1"/>
        <line class="cls-5" x1="31.07" y1="1.84" x2="26.3" y2="5.09"/>
      </g>
      <g>
        <path d="M14.82,51.93c-.67-.67-1.71-1.48-2.25-1.85l.77-1.04c.63.41,1.68,1.2,2.28,1.76l-.8,1.12ZM15.34,53.14c-.22,1.06-.98,3.96-1.21,5.08l-1.26-.34c.34-.99,1.08-3.92,1.26-5.06l1.21.31ZM15.31,48.96c-.56-.56-1.65-1.5-2.18-1.85l.74-1.02c.56.38,1.58,1.21,2.16,1.74l-.71,1.13ZM24.46,58.38c-.79-.88-1.39-1.68-1.88-2.56-.55.88-1.19,1.71-2.07,2.65l-.7-.88c-.24.32-.62.42-1.22.48l-.71.07-.38-1.13.74-.06c.55-.04.69-.15.76-.66.06-.32.07-.67.08-.99h-1.51c-.27,1.3-.79,2.06-1.95,3.22l-.92-.78c1.43-1.34,1.76-2.07,1.88-3.89,0-.1.01-.21.01-.34h-1.09v-1.06h2.31c-.07-.27-.14-.48-.24-.74l1.2-.2c.11.28.22.62.34.94h1.77v1.06h-3.14c0,.13-.01.24-.01.34l-.03.43h2.56c-.04.53-.1,1.69-.14,2.21-.01.21-.03.39-.07.56.84-.88,1.46-1.64,1.92-2.44-.43-.99-.71-2.03-.92-3.26l-.15.32-.55-.48v.25h-4.12v-4.48h1.27c.15-.45.29-.94.36-1.27l1.22.17c-.07.27-.22.7-.38,1.11h1.64v3.35c.6-1.4,1.12-3.14,1.34-4.59l1.18.15c-.15.67-.31,1.36-.52,2.07h2.7v1.23h-.64c-.21,2.23-.53,3.91-1.16,5.38.55,1.02,1.25,1.88,2.13,2.76l-.91,1.08ZM17.29,47.95v.77h1.99v-.77h-1.99ZM19.28,50.46v-.76h-1.99v.76h1.99ZM22.61,53.2c.39-1.12.59-2.37.71-4.03h-1.4c-.04.13-.08.27-.14.39.18,1.46.45,2.62.83,3.64Z"/>
        <path d="M31.23,56.41c-1.06.63-2.44,1.34-3.68,1.86l-.55-1.15c1.22-.43,2.62-1.12,3.61-1.81l.62,1.09ZM39.27,50.06v1.02h-3.26l.63.81c-1.78,1.08-3.08,1.78-4.43,2.27l3.77-.17-.67-.52.73-.77c.78.52,2.09,1.61,2.72,2.21l-.67.87c-.22-.21-.49-.42-.78-.69-.67,0-1.96.01-3.35.06v1.61c0,1.19-.35,1.34-1.68,1.5l-.85.08-.42-1.26.78-.08c.7-.07.88-.11.88-.63v-1.19c-1.39.04-2.65.07-3.36.11l-1.29.08-.18-1.12c.41,0,1.04-.03,1.49-.13.9-.22,1.86-.62,2.82-1.06-.9.01-1.86.03-2.41.07-.29.04-.77.04-1.06.08l-.18-.99c.66-.06.87-.11,1.08-.21.41-.17,1.08-.53,1.74-.94h-4.15v-1.02h5.38v-.71h-4.17v-1.02h4.17v-.7h-4.78v-1.05h4.78v-.91l1.36.06v.85h4.79v1.05h-4.79v.7h4.15v1.02h-4.15v.71h5.39ZM35.67,51.09h-3.14l.29.32c-.45.29-.9.53-1.34.76.71-.04,1.82-.04,2.56-.08.62-.35,1.18-.7,1.62-.99ZM35.38,55.27c1.13.49,2.77,1.3,3.87,1.86l-.5,1.13c-.98-.52-2.72-1.42-3.94-1.86l.57-1.13Z"/>
      </g>
    </g>
  </g>
</svg>