<?xml version="1.0" encoding="UTF-8"?>
<svg id="Layer_2" data-name="Layer 2" xmlns="http://www.w3.org/2000/svg" viewBox="0 0 56.88 47.15">
  <g id="Layer_5" data-name="Layer 5">
    <g>
      <g>
        <path d="M1.88,36.66l1.4.06v9.9h-1.4v-9.96ZM4.33,37.23c-.46-.62-1.54-1.75-2.1-2.28l.92-.98c.6.45,1.64,1.53,2.17,2.13l-.99,1.13ZM10.37,45.3c.88-.04,1.01-.17,1.01-1.01v-7.96h-5.74v-1.33h7.19v9.76c0,1.62-.29,1.95-1.85,2.02l-1.22.07-.43-1.5,1.05-.06Z"/>
        <path d="M19.45,44.25c-.27.22-1.51,1.42-2.27,2.14l-.83-.98c.29-.24.29-.48.29-.87v-4.69h-1.32v-1.41h2.66v5.45l1.02-.94.43,1.3ZM17.88,37.72c-.36-.7-1.32-2.1-1.83-2.73l1.02-.81c.56.6,1.39,1.79,1.79,2.49l-.98,1.05ZM27.07,39.74c-1.78-1.18-3.22-2.59-4.06-4.05-.9,1.36-2.23,2.76-3.98,4.05l-.74-1.26c1.84-1.2,3.39-2.98,4.13-4.43h1.13c.78,1.68,2.39,3.24,4.24,4.38l-.73,1.3ZM27.16,42.71c-2,1.98-4.51,3.42-7.82,4.44l-.63-1.44c3.35-.9,5.59-2.17,7.56-4.06l.88,1.06ZM24.33,38.6c-1.29,1.27-2.76,2.21-4.55,3.05l-.53-1.16c1.67-.8,3.03-1.74,4.36-2.93l.73,1.04ZM25.62,40.54c-1.44,1.46-3.29,2.68-5.53,3.61l-.57-1.27c2.24-.84,4.05-2.05,5.39-3.29l.71.95Z"/>
        <path d="M31.84,40.82c-.71-.69-1.95-1.62-2.62-2.07l.8-1.18c.7.45,1.89,1.34,2.61,1.95l-.78,1.3ZM29.53,46.28c.39-.77,1.61-3.92,1.89-4.8l1.32.55c-.28.85-1.48,4.06-1.83,4.82l-1.37-.56ZM32.63,37.55c-.63-.59-1.96-1.6-2.63-2.02l.76-1.16c.67.41,2.03,1.43,2.63,1.95l-.76,1.23ZM40.18,40.23c-.11-.22-.24-.48-.39-.74-1.25.06-5.43.25-6.57.36l-.36-1.36c.43-.15.52-.28.78-.55.56-.63,1.83-2.63,2.4-3.96l1.32.62c-.67,1.26-1.65,2.94-2.34,3.77l4.03-.18c-.43-.73-.9-1.44-1.25-1.93l1.13-.77c.74,1.01,1.76,2.7,2.44,3.89l-1.19.85ZM33.55,40.99h6.95v5.83h-1.42v-.64h-4.12v.63h-1.42v-5.81ZM34.97,42.3v2.54h4.12v-2.54h-4.12Z"/>
        <path d="M55.56,35.61v1.29h-8.8v2.89c0,2.89-.24,4.59-1.92,7.21l-1.32-.7c1.22-1.68,1.7-3.15,1.86-4.59l-1.78.91-.43-1.34c.25-.11,1.56-.73,2.3-1.06v-.69l-1.02.45c-.18-.74-.77-2.49-1.19-3.29l1.11-.42c.34.69.88,1.93,1.11,2.79v-3.43h4.47c-.11-.43-.24-.81-.39-1.25l1.44-.25c.15.39.32.98.48,1.5h4.09ZM47.26,38.11h7.89v1.32l-3.07,2.06v3.46c0,1.34-.36,1.65-1.77,1.76l-1.18.08-.42-1.36,1.18-.08c.62-.04.78-.13.78-.74v-3.68l2.27-1.48h-5.69v-1.33Z"/>
      </g>
      <g>
        <g id="a0Abqb">
          <path d="M23.35,26.97c.8-2,1.6-3.9,2.5-5.8.8-1.9,1.6-3.9,2.5-5.8h-4.6c.1-.3.2-.5.3-.8,1.4-3.5,2.8-6.9,4.1-10.4.1-.2.2-.2.4-.2h4.6c-1.1,2.7-2.2,5.3-3.3,8h4.8c-.1.1-.1.2-.2.2-1.8,2.5-3.7,5-5.5,7.5-1.8,2.4-3.6,4.8-5.3,7.2-.1,0-.1.2-.3.1h0Z"/>
        </g>
        <path d="M28.35,28.47c-6.3-.2-12.1-2.2-17.5-5.3-3.6-2-6.9-4.3-9.8-7.3-1.4-1.5-1.4-2,0-3.4C5.35,8.37,10.15,5.17,15.55,2.77c9.2-4,18.4-3.6,27.4.8,4.8,2.3,9.1,5.3,12.9,9,1.3,1.3,1.4,1.9.1,3.1-6,5.6-12.7,9.9-20.8,11.8-2.2.6-4.6.7-6.8,1h0ZM28.35,25.67c6.1.1,11.5-5,11.6-11.1.1-6.4-4.9-11.7-11.2-11.8-6.4-.1-11.6,4.9-11.8,11.3-.1,6.2,5,11.5,11.4,11.6h0ZM17.55,23.37c-4.3-6-4.2-12.1-.1-18.2-5.4,2.1-10,5.2-14.3,9.2,4.3,3.9,9,7,14.4,9h0ZM39.45,23.37c5.3-2.1,10-5.2,14.2-9.1-4.2-3.9-8.9-7-14.2-9,4.2,6,4.2,12,0,18.1h0Z"/>
      </g>
    </g>
  </g>
</svg>