<?xml version="1.0" encoding="UTF-8"?>
<svg id="Layer_2" data-name="Layer 2" xmlns="http://www.w3.org/2000/svg" viewBox="0 0 53.84 62.45">
  <defs>
    <style>
      .cls-1, .cls-2 {
        fill: none;
        stroke: #000;
        stroke-miterlimit: 10;
        stroke-width: 1.81px;
      }

      .cls-2 {
        stroke-linecap: round;
      }
    </style>
  </defs>
  <g id="Layer_5" data-name="Layer 5">
    <g>
      <g>
        <path d="M3.71,54.31v7.02H0v-10.83h3.71v3.52c1.57-1.25,2.63-2.61,3.42-4.4h1.04c.84,1.89,2.24,3.42,3.96,4.72l-.83,1.04c-.41-.32-.78-.64-1.13-.97v.98h-5.06v-.9c-.24.22-.49.45-.76.67l-.64-.85ZM1.19,51.83v1.85h1.34v-1.85h-1.34ZM1.19,54.94v1.89h1.34v-1.89h-1.34ZM2.54,60.04v-1.95h-1.34v1.95h1.34ZM10.88,56.14c-.34,1.19-.95,3.07-1.44,4.43h1.99v1.34h-7.41v-1.34h4.19c.56-1.46,1.23-3.42,1.53-4.83l1.15.41ZM5.36,60.05c-.2-1.06-.7-2.96-1.04-3.92l1.06-.35c.41,1.04.91,2.97,1.09,3.95l-1.12.32ZM5.59,54.03h4.19c-.91-.9-1.64-1.83-2.13-2.79-.52,1.01-1.16,1.88-2.06,2.79ZM7.47,59.56c-.15-.95-.59-2.65-.92-3.59l1.08-.36c.34.81.76,2.63.94,3.61l-1.09.34Z"/>
        <path d="M17.67,60.57c-.63.11-3.57.7-4.19.87l-.28-1.27c.57-.06,3.57-.71,4.26-.88l.08.67.13.62ZM13.83,55.01l-.35-1.33c.29-.13.41-.25.53-.46.45-.63,1.12-2.09,1.64-3.5l1.15.38c-.56,1.36-1.26,2.87-1.67,3.47.27-.01.77-.06,1.16-.07.34-.66.63-1.27.84-1.77l1.11.5c-.7,1.48-2.18,4.09-2.63,4.76.45-.07,1.36-.24,1.68-.31v1.33c-.36.07-1.85.27-2.48.42-.24.06-.45.1-.71.17l-.34-1.4c.34-.13.42-.18.63-.45.28-.41.73-1.13,1.19-1.96-.45.04-.97.07-1.19.11-.18.01-.38.04-.56.1ZM25.25,61.62c-1.16-1.16-1.95-2.21-2.51-3.63l-.15.11c.13.6.18,1.33.18,2.16,0,1.51-.45,1.88-1.88,2.03l-.7.07-.38-1.16.71-.06c.88-.07,1.09-.27,1.09-1.26,0-.18,0-.36-.01-.55-1.12,1.05-2.68,2-4.19,2.72l-.49-1.05c1.51-.67,3.21-1.81,4.48-2.97l-.13-.42c-1.01.73-2.23,1.5-3.47,2.06l-.46-1.08c1.12-.49,2.47-1.23,3.52-1.96l-.25-.42c-.95.55-1.92,1.05-2.7,1.39l-.38-1.12c.91-.32,1.91-.83,2.75-1.32h-2.48v-1.05h4.97l.13-.76h-4.38l.84-3.68,1.16.13-.18.73h4.22l-.57,3.59h1.67v1.05h-3.36l-.74.49c.27.42.5.84.69,1.27.8-.49,1.7-1.13,2.3-1.62l.69.97c-.38.32-.94.73-1.54,1.12.49,1.46,1.18,2.23,2.37,3.38l-.79.85ZM23.08,52.32l.14-.76h-3.14l-.18.76h3.18Z"/>
        <path d="M29.81,56.37c-.63-.63-1.81-1.62-2.51-2.09l.8-1.08c.71.45,1.91,1.33,2.51,1.89l-.8,1.27ZM27.85,61.9c.41-1.04,1.23-3.77,1.5-4.85l1.27.43c-.22.94-1.12,3.87-1.47,4.85l-1.3-.43ZM30.35,53.09c-.52-.59-1.74-1.56-2.38-1.99l.78-1.05c.62.42,1.71,1.23,2.38,1.83l-.78,1.21ZM39.79,54.28v1.01h-8.99v-1.01h3.68v-.67h-2.89v-.99h2.89v-.66h-3.22v-.99h3.22v-1.18l1.27.06v1.12h3.46v.99h-3.46v.66h3.12v.99h-3.12v.67h4.03ZM31.6,56h7.03v4.9c0,1.06-.36,1.3-1.47,1.42l-.79.08-.39-1.08.7-.08c.62-.07.67-.14.67-.56v-.32h-4.47v1.89h-1.29v-6.25ZM32.89,57.05v.59h4.47v-.59h-4.47ZM37.36,59.31v-.64h-4.47v.64h4.47Z"/>
        <path d="M42.27,53.13c.73.46,1.92,1.41,2.68,2.02l-.81,1.26c-.74-.67-1.98-1.71-2.69-2.16l.83-1.12ZM41.85,61.86c.39-.84,1.43-3.66,1.76-4.73l1.3.5c-.49,1.54-1.18,3.5-1.7,4.71l-1.37-.48ZM42.8,49.94c.69.42,1.89,1.36,2.52,1.88l-.77,1.25c-.63-.56-1.88-1.57-2.55-2.02l.8-1.11ZM50.12,52.88v1.65h3.04v1.3h-7.61v-1.3h3.12v-1.65h-3.14v-1.3h3.14v-1.82l1.44.06v1.76h3.71v1.3h-3.71ZM45.84,57.01h7.09v5.44h-1.46v-.73h-4.2v.73h-1.43v-5.44ZM47.27,58.32v2.09h4.2v-2.09h-4.2Z"/>
      </g>
      <g>
        <g id="vQDaor">
          <g>
            <path d="M29.54,3.8c.5,4.7,3.2,8,6.6,10.9-4-1.5-6.6-4.5-8.1-8.5-.4.4-.6.8-.9,1.1-3.4,4-7.8,6.7-12.7,8.7-2.6,1-5.3,1.7-8.1,1.9-.7.1-.8.3-.8,1,.5,6.7,2.7,12.8,6.7,18.1,1.4,1.9,3.1,3.5,5.3,4.6,4.3,2,8.2,1.4,11.9-1.3,1.9-1.4,3.4-3.2,4.8-5.1.2-.2.3-.5.6-.8,0,.2.1.3,0,.3-2,4.2-4.9,7.5-9.4,8.9-4.7,1.5-8.8.2-12.5-3-3-2.6-5-6-6.5-9.6-1.7-3.9-2.8-8.1-3-12.4C3.04,10.8,7.54,4.2,15.04,1.3c8-3.1,17.1-.5,22.2,6.2,1.6,2.1,2.7,4.5,3.1,7.2.1.8-.1,1.6-.2,2.3,0,.2-.3.4-.4.6-.2-.2-.4-.3-.5-.5-.3-.7-.6-1.5-.8-2.2-1.1-5-4-8.6-8.4-11-.1-.1-.3-.1-.5-.1q.2,0,0,0ZM5.64,16.1c.6-.1.9-.1,1.3-.1,5.2-.7,9.9-2.6,14.1-5.7,2.4-1.7,4.6-3.7,6.1-6.3.2-.3.3-.7.5-1.2-5.7-1.6-10.9-1-15.6,2.4-3.6,2.7-5.8,6.3-6.4,10.9Z"/>
            <circle cx="15.84" cy="23.7" r="1.8"/>
            <g id="ToAuOY">
              <path d="M33.14,31.2c-.4-.2-.7-.3-1.1-.4-1.8-.7-3.5-1.4-5.3-2.1-1.9-.7-2.2-2.6-.8-4,0,0,.1-.1.1-.2-.7-.8-1-1.8-.5-2.8s1.5-1.4,2.7-1.2c0-1,.3-1.9,1.2-2.4s1.8-.3,2.7.2c0-.2.1-.3.1-.5.2-1.3,1.5-2,2.7-1.5,3.1,1.2,6.2,2.5,9.2,3.7,1.5.6,3,1.4,4.1,2.6,1.3,1.3,2.7,2.2,4.4,2.7.3.1.6.2.8.3.4.2.5.4.3.8,0,.1-.1.2-.1.3-1.2,3-2.4,6.1-3.6,9.1-.3.8-.5.8-1.2.5-.9-.4-1.8-.7-2.7-1.1-.2-.1-.4-.4-.5-.6-.1-.3-.6-.5-.8-.3-2,1.9-4.4,1.9-6.9,1.4-1.4-.3-2.7-.1-4,.2-.5.1-1.1.3-1.6.4-.6.1-1-.1-1.3-.6-.6-1-.3-2.4.6-3.3.4-.5,1-.8,1.5-1.2ZM39.64,19.3h0c-1.7-.7-3.4-1.4-5.1-2-.5-.2-.9,0-1.1.5-.2.5,0,1,.4,1.2,1.1.4,2.1.9,3.2,1.3.1,0,.2.1.4.2.3.2.4.4.3.7-.1.3-.4.4-.7.3-.1,0-.3-.1-.4-.2-1.8-.7-3.7-1.5-5.5-2.2-.7-.3-1.3,0-1.6.6s0,1.2.7,1.6c.2.1.3.1.5.2,1.5.6,3.1,1.2,4.6,1.9.6.2.7.5.6.9-.2.4-.5.4-1,.2-.1,0-.2-.1-.3-.1-2-.8-4.1-1.6-6.1-2.5-.1,0-.2-.1-.4-.1-.6-.2-1.2.1-1.4.6-.3.6-.1,1.2.5,1.5.2.1.4.2.5.2,2.1.8,4.2,1.7,6.3,2.5.1,0,.2.1.4.2.3.1.5.4.3.7-.1.3-.4.4-.7.3-.2,0-.3-.1-.5-.2-1.8-.7-3.6-1.5-5.4-2.2-.6-.2-1.2-.1-1.5.4s-.2,1.1.2,1.5c.2.2.4.3.6.4,3.1,1.2,6.2,2.5,9.3,3.7.6.2,1,.6,1.3,1.2.2.4.2.7-.2.9s-.6,0-.8-.3c-.2-.2-.4-.5-.6-.7-1.2-.6-3.1-.2-3.9.8-.3.4-.5.9-.5,1.4,0,.3.2.5.6.4.3-.1.7-.2,1.1-.3,1.6-.5,3.3-.7,5-.2.4.1.9.1,1.3.1,1.7,0,3.4-.3,4.6-1.7.1-.1.5-.2.7-.2s.4.1.6.2c.4.2.5.1.7-.3.8-2.1,1.7-4.3,2.6-6.4.2-.4.5-.9.4-1.3-.1-.4-.6-.6-.9-.9-1.6-1.6-3.4-2.7-5.4-3.5-1.5-.4-2.6-.9-3.7-1.3ZM49.04,35q.1-.1,0,0c1.2-2.8,2.3-5.6,3.4-8.3.1-.2,0-.4-.2-.5-.4-.2-.9-.3-1.3-.5-.4-.2-.6-.1-.7.3-.9,2.3-1.8,4.6-2.7,6.8-.1.3-.3.7-.4,1,0,.1,0,.4.1.4.6.4,1.2.6,1.8.8Z"/>
            </g>
            <polyline class="cls-1" points="33.84 16.5 23.04 16.5 23.04 29.6 30.34 29.6"/>
          </g>
        </g>
        <path class="cls-2" d="M26.34,35.6s-6.2,2.9-7.7-2.2"/>
      </g>
    </g>
  </g>
</svg>