<?xml version="1.0" encoding="UTF-8"?>
<svg id="Layer_2" data-name="Layer 2" xmlns="http://www.w3.org/2000/svg" viewBox="0 0 61.84 35.97">
  <defs>
    <style>
      .cls-1 {
        fill: none;
      }
    </style>
  </defs>
  <g id="Layer_5" data-name="Layer 5">
    <g>
      <g>
        <g>
          <circle class="cls-1" cx="22.86" cy="11.06" r="9.46"/>
          <circle cx="22.86" cy="11.06" r="3.61"/>
        </g>
        <path d="M22.77,22.12c-4.93-.2-9.41-1.75-13.64-4.11-2.79-1.56-5.4-3.37-7.64-5.69-1.1-1.15-1.1-1.53.04-2.62,3.33-3.17,7.08-5.72,11.31-7.54,7.2-3.11,14.31-2.8,21.33.59,3.73,1.8,7.08,4.16,10.08,7.01,1.04.99,1.07,1.46.04,2.42-4.66,4.37-9.92,7.73-16.22,9.18-1.73.4-3.53.52-5.3.77ZM22.77,19.92c4.77.08,8.93-3.91,9.02-8.66.1-4.98-3.84-9.13-8.72-9.2-4.97-.07-9.07,3.85-9.16,8.78-.09,4.9,3.91,9,8.86,9.09ZM14.32,18.11c-3.32-4.72-3.29-9.42-.09-14.19-4.2,1.65-7.79,4.08-11.14,7.14,3.37,3.11,7.04,5.47,11.23,7.05ZM31.42,18.07c4.14-1.63,7.75-4.03,11.1-7.09-3.31-3.02-6.9-5.44-11.06-7.05,3.24,4.74,3.22,9.43-.03,14.14Z"/>
        <path d="M36.18,10.63c1.29,0,1.29-2,0-2s-1.29,2,0,2h0Z"/>
        <path d="M38.93,12.67c1.29,0,1.29-2,0-2s-1.29,2,0,2h0Z"/>
        <path d="M6.74,11.99c1.29,0,1.29-2,0-2s-1.29,2,0,2h0Z"/>
        <path d="M9.62,10.31c1.29,0,1.29-2,0-2s-1.29,2,0,2h0Z"/>
        <path d="M35.95,14.03c1.29,0,1.29-2,0-2s-1.29,2,0,2h0Z"/>
        <path d="M9.62,13.77c1.29,0,1.29-2,0-2s-1.29,2,0,2h0Z"/>
      </g>
      <g>
        <path d="M9.23,26.69v.98H0v-.98h9.23ZM.65,28.61h3.55v6.05c0,.8-.27.99-1.16,1.07l-.55.04-.3-1,.59-.04c.39-.03.46-.12.46-.48v-1.75l-.62.56c-.22-.5-.67-1.38-1.04-1.94v4.5h-.93v-7ZM1.58,29.64v1.22l.57-.37c.34.47.81,1.25,1.09,1.84v-2.69h-1.66ZM4.93,28.61h3.66v6.05c0,.81-.33.99-1.21,1.07l-.54.05-.3-1,.62-.05c.41-.03.47-.12.47-.48v-1.72l-.64.54c-.25-.54-.77-1.44-1.16-1.99v4.55h-.91v-7ZM5.85,29.64v1.3l.62-.45c.37.47.87,1.24,1.18,1.86v-2.71h-1.8Z"/>
        <path d="M19.78,34.51v.98h-9.28v-.98h9.28ZM11.08,30.39l-.24-.97c.28-.07.38-.21.51-.34.24-.27,1.23-1.88,1.67-2.88l.91.46c-.37.82-1.3,2.26-1.66,2.68l1.33-.02c.34-.51.65-1.04.9-1.49l.82.48c-.62,1.15-1.98,3.26-2.46,3.74l1.86-.13-.02,1.02c-.33,0-2.37.15-3.28.26l-.23-1c.33-.09.47-.23.59-.33.13-.12.62-.76,1.18-1.6-.62.03-1.35.05-1.89.09ZM14.78,29.46c.28-.12.39-.24.5-.36.24-.24,1.24-1.89,1.69-2.89l.88.47c-.42.84-1.27,2.27-1.64,2.67l1.42-.02c.34-.51.65-1.01.87-1.43l.82.5c-.61,1.11-1.98,3.15-2.57,3.67l2.45-.18-.02,1c-.33,0-2.9.22-3.91.3l-.18-.99c.34-.07.48-.2.64-.36.17-.17.69-.8,1.25-1.59-.64.03-1.51.06-1.94.12l-.26-.93Z"/>
        <path d="M29.66,35.88c-.59-.45-1.3-.98-2.03-1.47-.67.59-1.55,1.05-2.85,1.56l-.37-1c-.08.46-.37.63-.99.7l-.42.04-.3-1.01.41-.04c.38-.03.47-.14.47-.46v-1.68h-1.02c-.05,1.43-.34,2.26-.86,3.23l-.88-.35c.65-1.22.89-1.93.89-4.79v-3.84h2.73v7.84c0,.08,0,.16,0,.23.93-.3,1.68-.66,2.24-1.09-.59-.39-1.15-.73-1.62-1,.2-.49.4-1,.58-1.53h-.88v-.98h1.19c.16-.56.29-1.1.39-1.6l1.02.25c-.09.42-.23.88-.37,1.34h3.25v.98h-.97c-.21,1-.47,1.75-.92,2.38.66.41,1.31.85,1.94,1.3l-.63.96ZM22.6,27.8v1.46h1v-1.46h-1ZM23.59,31.57v-1.38h-1v1.38h1ZM25.86,29.46h-.92v-2.05h2.06c-.09-.35-.19-.67-.3-1.01l1-.18c.12.3.26.8.38,1.19h1.91v2.05h-.91v-1.12h-3.2v1.12ZM26.66,31.24c-.16.43-.29.8-.43,1.1.35.2.75.42,1.2.7.41-.51.65-1.1.81-1.81h-1.57Z"/>
        <path d="M41.05,34.35l-.54.86c-1.02-.7-1.79-1.4-2.34-2.32v1.6c0,.95-.26,1.14-1.23,1.23l-.65.06-.3-.92.57-.06c.56-.05.7-.06.7-.57v-1.1c-.73.62-2.12,1.77-2.37,1.99l-.51-.75c-.8.22-2.49.63-2.72.71l-.17-.96c.28-.04,2.83-.7,3.17-.83l.04.41.03.29c.72-.56,2.11-1.66,2.53-2.03v-1.19h-2.55v-.88h4.24v-.73h-3.54v-.88h3.54v-.72h-3.73v-.89h4.68v3.23h.88v.88h-2.61v.28c.16.38.33.72.53,1.05.45-.39.92-.82,1.25-1.17l.61.66c-.35.34-.88.81-1.35,1.22.48.57,1.1,1.07,1.85,1.51ZM31.86,30.22l-.22-1.01c.2-.07.29-.2.38-.32.25-.37.88-1.53,1.3-2.62l.82.34c-.36.91-.99,2.04-1.33,2.55.2-.01.66-.02.99-.05.24-.46.47-.91.64-1.28l.81.39c-.54,1.06-1.55,2.88-1.97,3.46l1.44-.23v.97s-2.13.37-2.13.37l-.5.1-.2-1.01c.28-.07.35-.15.47-.33.21-.29.54-.85.91-1.48-.37.03-.79.07-.99.08-.14.01-.25.03-.41.06ZM35.52,30.9c.37.34.77.8,1.07,1.19l-.63.59c-.26-.37-.7-.82-1.04-1.19l.6-.59Z"/>
        <path d="M51.08,35.61c-1.69-.68-2.86-1.32-3.78-2.13v2.34h-1.04v-2.35c-.91.81-2.08,1.47-3.81,2.15l-.39-1.01c1.68-.62,2.83-1.12,3.7-1.79h-3.3v-.94h3.8v-1l1.04.04v.96h3.74v.94h-3.33c.96.77,2.29,1.32,3.79,1.84l-.42.96ZM43.98,29.59c-.33-.24-1.41-.88-1.73-1.02l.42-.83c.39.17,1.36.73,1.71,1l-.4.85ZM42.37,30.77c.79-.45,1.78-1.14,2.26-1.56l.47.72c-.53.44-1.41,1.12-2.25,1.66l-.48-.82ZM44.75,28.17c-.44-.34-1.34-.86-1.76-1.08l.4-.78c.42.2,1.31.69,1.75,1.02l-.39.84ZM44.56,30.48c1.24-.64,1.66-1.11,1.83-2.02h-1.17v-.94h1.23l.03-1.21,1.05.04c.01.22,0,.54-.03,1.17h2.06v2.4c0,.2.06.26.27.26h.21c.2,0,.3-.09.34-.27.04-.26.07-.6.08-.94l.91.28c-.02.37-.05.7-.1,1.01-.12.67-.41.88-1.12.88h-.6c-.72,0-1.01-.24-1.01-1.05v-1.63h-1.13c-.2,1.31-.82,2.12-2.21,2.91l-.63-.89Z"/>
        <path d="M61.84,33.44c-.03.28-.04.55-.12.87-.19.99-.45,1.24-1.62,1.27-1.61.05-3.2.05-4.8,0-1.1-.03-1.57-.43-1.57-1.64v-4.02l-.5.44-.68-.88c1.21-.99,2.37-2.19,3.04-3.44l.97.46c-.09.18-.19.35-.3.51h3.72v.87c-.26.24-.74.78-1.14,1.27h2.09v3.43h-6.15v1.11c0,.71.15.86.89.89,1.42.05,2.82.05,4.23,0,.7-.03.78-.14.88-.68.05-.26.07-.54.08-.83l.99.36ZM55.59,27.97c-.33.41-.67.81-1.04,1.19h2.96c.4-.43,1-1.11,1.12-1.19h-3.04ZM56.8,31.65v-1.56h-2.04v1.56h2.04ZM59.88,30.08h-2.06v1.56h2.06v-1.56Z"/>
      </g>
    </g>
  </g>
</svg>