<?xml version="1.0" encoding="UTF-8"?>
<svg id="Layer_2" data-name="Layer 2" xmlns="http://www.w3.org/2000/svg" viewBox="0 0 95.58 47.38">
  <defs>
    <style>
      .cls-1 {
        fill: #a5a7ab;
      }
    </style>
  </defs>
  <g id="Layer_8" data-name="Layer 8">
    <g>
      <path class="cls-1" d="M42.23,11.07l-7.88-.65c.75,1.1,1.35,2.08,1.83,2.86l-3.74,2.35c-.81-1.5-2.45-4.34-3.33-5.65l-2.06-.17c-.68,1.08-1.4,2.05-2.23,3.12l-1.64-.97c.27.96.47,2.01.73,3.07l16.74,1.38-.62,7.49-4.7-.39-.74,9-25.54-2.11-.23,2.74,26.62,2.2-1,12.04-4.89-.4.13-1.62-21.73-1.8-.15,1.81-4.84-.4,1.98-23.98-4.06-.34.62-7.49,1.76.15-3.27-2.78C3.46,7.46,6.48,3.63,8.51,0l4.62,1.32c-.53.99-1.15,2.02-1.78,3.01l11.21.93-.27,3.23c1.76-2.22,2.96-4.24,4.17-6.9l4.69,1.13c-.53,1.09-1.01,2.13-1.64,3.12l13.07,1.08-.34,4.16ZM19.08,14.62c-.18-.85-.31-1.65-.57-2.61l4.22-.34-2.07-1.21c.38-.36.65-.73.93-1.11l-6.9-.57c.71,1,1.31,2.08,1.79,2.76l-3.74,2.35c-.66-1.53-2.51-4.2-3.29-5.54l-.98-.08c-1.48,1.85-3,3.55-4.61,5.09l15.22,1.26ZM35.4,19.81l-29.26-2.42-.23,2.74,29.26,2.42.23-2.74ZM8.52,36.85l-.25,3.03,21.73,1.8.25-3.03-21.73-1.8ZM30.32,25.8l-20.75-1.72-.22,2.69,20.75,1.72.22-2.69Z"/>
      <path class="cls-1" d="M67.87,40.59c-2.88.5-13.14,3.44-15.52,4.11l-.81-4.59c1.12-.24,3.6-.87,6.33-1.56l-.45-12.22-4.91.18-.17-4.51,4.91-.18-.38-10.2-5.3.2-.17-4.46,14.87-.55.17,4.46-5.05.19.38,10.2,4.71-.17.17,4.51-4.71.18.42,11.19,4.91-1.41.61,4.64ZM95.42,40.36l.17,4.46-29.93,1.11-.17-4.46,12.85-.48-.16-4.22-10.06.37-.17-4.51,10.06-.37-.16-4.22-9.67.36-.86-23.16,23.84-.89.86,23.16-9.67.36.16,4.22,10.25-.38.17,4.51-10.25.38.16,4.22,12.56-.47ZM72.06,9.49l.19,5.05,5.1-.19-.19-5.05-5.1.19ZM77.7,23.62l-.18-4.96-5.1.19.18,4.95,5.1-.19ZM86.83,8.94l-5.15.19.19,5.05,5.15-.19-.19-5.05ZM87.36,23.26l-.18-4.96-5.15.19.18,4.96,5.15-.19Z"/>
    </g>
  </g>
</svg>