<?xml version="1.0" encoding="UTF-8"?>
<svg id="Layer_2" data-name="Layer 2" xmlns="http://www.w3.org/2000/svg" viewBox="0 0 84.15 102.46">
  <defs>
    <style>
      .cls-1 {
        fill: #a5a7ab;
      }
    </style>
  </defs>
  <g id="Layer_8" data-name="Layer 8">
    <g>
      <path class="cls-1" d="M18.4,19.57c-1.53.33-15.4,5.53-16.82,6.02l-1.59-5.35c2.98-.79,13.82-4.55,16.83-5.91l.89,3.03.68,2.21ZM19.79,43.57l-5.59-.68c.76-3.02,1.6-6.47,2.13-9.46-3.46.28-6.92-.49-11.89-1.96l1.57-5.36c9.25,3.5,13.01,2.95,20.24-2.07l10.63-7.39,2.4,3.81-10.47,7.27c-2.71,1.88-5.08,3.29-7.12,4.21-.43,3.41-1.18,8.73-1.91,11.62ZM30.02,9.74c.72-2.39,1.51-7.81,1.57-9.74l5.35.24c-.17,2.56-.68,6.74-.94,9.42l3.24-2.25,9.56,13.75-24.06,16.72-2.65-3.82,19.46-13.52-4.28-6.16-19.59,13.61-2.62-3.78,20.73-14.41-5.77-.07ZM57.64,31.7l-30.47,21.17c-3.69,2.57-5.21,2.22-7.91-.96l-1.83-2.2,3.62-4.52,1.79,2.04c1.08,1.2,1.51,1.39,3.03.33l29.03-20.17,2.75,4.3ZM19.83,15.05c.73-3.43,1.38-7.47,1.51-10.18l5.69.31c-.13,2.53-.54,6.4-1.18,9.95l-6.02-.08ZM27.47,44.2l-2.74-3.94,22.95-15.95,2.57,4.06-22.79,15.83Z"/>
      <path class="cls-1" d="M42.88,84.83l8.25,15.77-3.54,1.85-19.25-36.82,3.54-1.85,8.32,15.9,1.29-.67-6.65-12.72,3.24-1.69,6.65,12.72,1.28-.67-6.56-12.54,11.56-6.05,15.78,30.17-11.56,6.05-6.53-12.49-1.28.67,6.6,12.63-3.24,1.69-6.6-12.63-1.29.67ZM49.1,75.03l1.24-.65-3.71-7.09-1.24.65,3.71,7.09ZM50.8,65.12l-1.2.63,3.71,7.09,1.2-.62-3.71-7.09ZM73.52,89.8l-3.19,1.67-19.99-38.24,3.19-1.67,19.99,38.24ZM55.45,87.17l1.24-.65-3.66-7-1.24.65,3.66,7ZM60.85,84.35l-3.66-7-1.2.62,3.66,7,1.2-.63ZM72.81,85.2l-15.87-30.35,11.34-5.93,15.87,30.35-11.34,5.93ZM72.91,78.16l1.15-.6-10.1-19.32-1.15.6,10.1,19.32ZM67.94,56.15l-1.15.6,10.1,19.32,1.15-.6-10.1-19.32Z"/>
    </g>
  </g>
</svg>