<?xml version="1.0" encoding="UTF-8"?>
<svg id="Layer_2" data-name="Layer 2" xmlns="http://www.w3.org/2000/svg" viewBox="0 0 54.51 52.11">
  <g id="Layer_5" data-name="Layer 5">
    <g>
      <g>
        <g id="xm3nRX">
          <g>
            <path d="M37.47,17.37c.14-.11.29-.22.42-.34,2.77-2.57,7.05-1.34,7.94,2.33.37,1.5.06,2.96-1.01,4.11-1.47,1.57-3.02,3.07-4.54,4.6-1.67,1.68-3.33,3.37-5.03,5.02-2.67,2.59-7.06,1.32-7.89-2.31-.17-.73-.08-1.55.03-2.3.12-.81.19-.8-.66-.8-3.36,0-6.71,0-10.07,0-.98,0-1.15-.16-1.15-1.13,0-8.43,0-16.86,0-25.29,0-1.1.16-1.25,1.26-1.25,4.35,0,8.69,0,13.04,0,.5,0,.87.15,1.22.5,1.95,1.97,3.91,3.93,5.89,5.88.34.34.38.73.38,1.16,0,3.02,0,6.04,0,9.07,0,.22,0,.45,0,.67l.17.08ZM16.93,13.83c0,3.94,0,7.88,0,11.82,0,.49.14.65.63.64,3.52-.01,7.03,0,10.55-.02.31,0,.7-.17.92-.39,2.17-2.13,4.3-4.29,6.46-6.43.32-.31.44-.64.44-1.08-.01-3.3,0-6.61,0-9.91,0-.7-.03-.72-.71-.73-1.55,0-3.11,0-4.66,0-.76,0-.96-.21-.97-.99,0-1.54,0-3.07,0-4.61,0-.71-.02-.73-.7-.73-3.74,0-7.49,0-11.23,0-.7,0-.7,0-.7.71,0,3.9,0,7.81,0,11.71ZM41.49,17.05c-1.13,0-1.91.28-2.52.88-1.33,1.29-2.63,2.61-3.94,3.92-.23.23-.27.41-.02.66,1.37,1.35,2.73,2.71,4.08,4.08.26.26.45.25.71,0,1.29-1.31,2.61-2.58,3.88-3.91,1-1.05,1.18-2.33.61-3.64-.57-1.3-1.64-1.94-2.79-2ZM28.59,29.65c0,1.39.76,2.58,2.06,3.12,1.3.54,2.53.34,3.55-.61,1.34-1.25,2.6-2.59,3.91-3.88.27-.27.3-.46.01-.74-1.33-1.31-2.66-2.64-3.97-3.97-.3-.31-.53-.32-.83,0-1.24,1.26-2.5,2.5-3.74,3.75-.63.64-.98,1.42-.98,2.33ZM34.66,6.36c-1.26-1.27-2.44-2.45-3.62-3.63,0,0-.06.06-.06.12,0,1.06-.02,2.12,0,3.17,0,.12.27.31.42.32.54.04,1.09.02,1.64.02.52,0,1.04,0,1.62,0Z"/>
            <path d="M19.61,21.12c0-1.34,0-4.26,0-5.62,0-.4.13-.54.52-.52.56.02,1.13,0,1.7,0,1.25.03,2.16.92,2.19,2.13.02,1.12-.87,2.08-2.07,2.12-.22,0-.38,0-.56,0-.27,0-.38.13-.38.43,0,.45,0,.91,0,1.42,0,.83-1.39.82-1.39.03ZM21.02,17.02c0,.73.04.87.6.87.64,0,.99-.26.99-.76,0-.49-.34-.78-.98-.78s-.61.21-.61.67Z"/>
            <path d="M22.58,8.26c-.99,0-1.98-.03-2.96.01-.62.02-.5-.37-.52-.73-.02-.39,0-.67.54-.66,2.01.03,4.02.03,6.03,0,.55,0,.53.3.53.67,0,.39.04.74-.55.71-1.02-.04-2.05-.01-3.07-.01Z"/>
            <path d="M21.83,5.27c-.74,0-1.48-.02-2.23,0-.4.01-.55-.14-.51-.53.02-.16-.05-.34.02-.47.07-.15.24-.36.37-.36,1.55-.02,3.11-.01,4.66-.02.3,0,.41.15.39.43-.01.16-.02.32-.01.48.02.34-.13.47-.47.46-.74-.01-1.48,0-2.23,0Z"/>
          </g>
        </g>
        <path d="M25.92,22.6c.11.13,0,.24,0,.25-.79,1.01-.83.95-1.74.06-.72-.72-.61-.81-1.41,0-1.01,1.03-.66.84-1.62,0-.1-.14-.13-.2.03-.36.37-.37.58-.61.97-.97.27-.25.25-.44,0-.7-.07-.07-.47-.55-1.32-1.39-.32-.31.73-1.2.95-1.01.56.5,1.02.98,1.58,1.58.05.05.31-.02.4-.11.32-.28.62-.58.9-.9.25-.28.46-.27.69.02.09.11.19.21.3.3.29.24.26.45,0,.69-.29.26-.54.56-.83.82-.25.23-.26.43-.01.66.39.36.77.72,1.13,1.06Z"/>
      </g>
      <g>
        <path d="M0,50.47c1.86-.21,3.75-.48,5.67-.77l.03,1.27c-1.89.27-3.71.52-5.5.81l-.2-1.32ZM11.89,40.72v1.23h-3.1v.88h-1.37v-.88h-2.68v.85h-1.34v-.85H.13v-1.23h3.28v-1.33l1.34.06v1.27h2.68v-1.33l1.37.06v1.27h3.1ZM3.56,43.07c-.6.99-1.11,1.65-1.49,1.98l1.54-.07c.34-.43.64-.9.92-1.34l1.05.74c-.83,1.23-1.96,2.56-2.67,3.24l2.34-.24v1.26c-.35,0-2.21.2-3.59.35-.27.04-.5.06-.71.1l-.31-1.27c.5-.11.56-.17.63-.27.45-.39.9-.85,1.34-1.34-.43.04-.9.06-1.33.1-.28.04-.53.04-.74.08l-.31-1.25c.34-.1.45-.24.62-.36.32-.25,1.09-1.32,1.64-2.34l1.07.64ZM8.03,43.07c-.11.28-.22.55-.35.81h3.66c0,.34-.17,5.69-.22,6.16-.07,1.5-.38,1.77-1.99,1.88l-1.2.08-.41-1.29,1.09-.07c1.05-.07,1.21-.24,1.25-1.25,0-.41.17-3.85.17-4.29h-2.98c-.38.66-.8,1.27-1.25,1.85l-.98-.74c.83-1.12,1.57-2.44,2-3.6l1.22.45ZM8.28,49.1c-.6-.8-1.3-1.53-2.04-2.19l.77-.9c.83.66,1.43,1.25,2.1,2.03l-.83,1.05Z"/>
        <path d="M25.84,41.52c-.07.59-.28,7.7-.35,8.28-.11,1.44-.71,1.81-2.17,1.92l-1.16.08-.41-1.32,1.19-.08c.95-.07,1.26-.24,1.33-1.2,0-.53.31-5.85.31-6.37h-.59c-.6,3.96-1.48,6.37-4.51,9.13l-.85-1.02c2.7-2.37,3.7-4.78,4.26-8.11h-.85c-.56,2.76-1.53,4.58-3.68,6.7l-.83-1.05c1.88-1.69,2.86-3.35,3.38-5.65h-.91c-.38.74-.8,1.46-1.29,2.14l-.99-.85c.15-.21.32-.43.49-.69h-.97v2.42l1.3-.52.13,1.34-1.43.59v4.8h-1.21v-4.31c-.92.38-1.78.71-1.99.83l-.35-1.39c.29-.07,1.3-.46,2.34-.87v-2.9h-.76c-.11.9-.24,1.75-.39,2.49l-1.16-.21c.34-1.51.56-3.47.67-5.15l1.16.1-.13,1.46h.6v-2.69l1.21.06v2.63h1.15v1.02c.71-1.16,1.32-2.54,1.71-3.88l1.23.36c-.22.67-.45,1.3-.71,1.9h5.24Z"/>
        <path d="M39.87,40.7v2.54h-1.47v-1.26h-8.54v1.26h-1.49v-2.54h5.08c-.11-.39-.24-.77-.34-1.06l1.42-.21.42,1.27h4.92ZM34.82,43.46h4.05v6.37h-4.05v2.27h-1.34v-2.27h-4.1v-6.37h4.1v-1.09l1.34.06v1.04ZM30.72,44.68v1.32h2.76v-1.32h-2.76ZM33.48,48.62v-1.46h-2.76v1.46h2.76ZM34.82,44.68v1.32h2.73v-1.32h-2.73ZM37.55,48.62v-1.46h-2.73v1.46h2.73Z"/>
        <path d="M49.7,41.97c1.29.95,2.94,1.74,4.8,2.3l-.5,1.42c-.57-.24-1.12-.45-1.62-.71v4.61h-8.47v-4.57c-.52.27-1.06.52-1.64.76l-.52-1.42c1.79-.62,3.39-1.47,4.68-2.38h-3.98v-1.25h4.99v-1.3l1.43.06v1.25h4.97v1.25h-4.13ZM42.41,50.45h11.46v1.25h-11.46v-1.25ZM51.72,44.64c-1.12-.57-2.03-1.19-2.86-1.92v1.67h-1.43v-1.65c-.8.69-1.74,1.33-2.82,1.91h7.1ZM50.96,45.78h-5.64v.77h5.64v-.77ZM50.96,48.41v-.74h-5.64v.74h5.64Z"/>
      </g>
    </g>
  </g>
</svg>