<?xml version="1.0" encoding="UTF-8"?>
<svg id="Layer_2" data-name="Layer 2" xmlns="http://www.w3.org/2000/svg" viewBox="0 0 61.7 43.55">
  <defs>
    <style>
      .cls-1 {
        stroke-width: .75px;
      }

      .cls-1, .cls-2 {
        fill: none;
        stroke: #000;
        stroke-linecap: round;
        stroke-linejoin: round;
      }

      .cls-2 {
        stroke-width: 3px;
      }
    </style>
  </defs>
  <g id="Layer_5" data-name="Layer 5">
    <g>
      <g>
        <g>
          <path d="M42.25,18.17c1.1-.4,2.22-1.14,2.78-2.38,1.03-2.26-1.24-6.03.61-6.25,1.33-.16,1.58.99,1.26,1.03-.26-.58-.54-1.67-.97-2.32-.2-.31-.49,0-.69-.27-.21-.07-.4-1.96-.81-1.39-.27.38-.87-.64-1-.85l.25,9.12c0,.42-.49.77-1.09.77s-1.09-.35-1.09-.77V4.89c-.47-.33-.97-.64-1.5-.92v10.89c0,.42-.49.77-1.09.77s-1.09-.35-1.09-.77V2.98c-.48-.18-.98-.35-1.5-.51v12.39c0,.42-.49.77-1.09.77s-1.09-.35-1.09-.77V1.94c-.49-.09-1.01-.19-1.54-.28,0,.04.03.08.03.12v13.08c0,.42-.49.77-1.09.77s-1.09-.35-1.09-.77V1.79c0-.1.03-.2.08-.29-.61,0-1.13,0-1.46.01-.05,0-.13,0-.2,0,.05.08.08.17.08.27v5.69c0,.42-.49.77-1.09.77s-1.09-.35-1.09-.77V1.79s.01-.03.02-.05c-.51.06-1.01.14-1.52.23v5.51c0,.42-.49.77-1.09.77s-1.09-.35-1.09-.77V2.42c-.52.15-1.01.33-1.5.52v11.92c0,.42-.49.77-1.09.77s-1.09-.35-1.09-.77V3.95s-.08.04-.12.06c-.03.01-.07.02-.1.04-.47.23-.9.51-1.28.78v10.03c0,.42-.49.77-1.09.77s-1.09-.35-1.09-.77l-.32-8.75c-2.35,2.38-2.74,3.59-2.65,3.72.11.15.47-1.11,1.71-.39.82.48-.93,3.55,0,5.89.61,1.54,2.17,2.28,3.46,2.67,8.08.06,16.17.11,24.25.17Z"/>
          <path d="M35.64,26.02c1.28-1.08.94-2.49-.99-3.36-1.5-.68-3.18-.93-4.97-.94-1.78.02-3.48.25-4.96.95-1.6.76-2.1,1.79-1.52,2.73,4.02.94,8.27,1.3,12.45.62Z"/>
          <path class="cls-1" d="M29.68,18.17c2.58.01,5,.38,7.17,1.33,3.27,1.45,3.38,3.94.25,5.51-3.85,1.92-10.79,1.94-14.66.04-3.27-1.6-3.25-3.98.09-5.53,2.14-.99,4.59-1.32,7.16-1.35Z"/>
        </g>
        <path class="cls-2" d="M6.9,14.68s20.11-29.65,45.88,0c0,0-22.07,30.13-45.88,0Z"/>
      </g>
      <g>
        <path d="M2.78,37.17v5.26H0v-8.11h2.78v2.64c1.18-.93,1.97-1.95,2.56-3.3h.78c.63,1.42,1.68,2.56,2.97,3.54l-.62.78c-.3-.24-.59-.48-.85-.72v.73h-3.79v-.67c-.18.17-.37.34-.57.5l-.48-.64ZM.89,35.32v1.39h1.01v-1.39H.89ZM.89,37.65v1.42h1.01v-1.42H.89ZM1.9,41.47v-1.46H.89v1.46h1.01ZM8.16,38.55c-.25.89-.71,2.3-1.08,3.32h1.49v1.01H3.01v-1.01h3.14c.42-1.09.92-2.56,1.14-3.62l.86.3ZM4.02,41.48c-.15-.8-.53-2.21-.78-2.94l.8-.26c.3.78.68,2.23.82,2.96l-.84.24ZM4.19,36.96h3.14c-.68-.67-1.23-1.38-1.6-2.09-.39.76-.87,1.41-1.54,2.09ZM5.6,41.11c-.12-.71-.44-1.98-.69-2.69l.81-.27c.25.61.57,1.97.7,2.71l-.82.25Z"/>
        <path d="M19.54,42.53l-.53,1.02c-.96-.6-1.72-1.19-2.34-1.86-.63.64-1.44,1.22-2.45,1.81l-.54-.86c-.16.26-.29.54-.49.8l-.86-.69v.49h-.96v-4.43c-.28.67-.59,1.33-.96,1.91l-.8-.65c.54-.84,1.25-2.23,1.67-3.45h-1.05v-.99h1.13v-1.88l.96.04v1.84h1.17v.99h-1.17v.99l.27-.27c.37.37.85.97,1.13,1.39.03-.42.05-.89.05-1.41v-2.65c1.73-.12,3.37-.36,4.93-.65l.22.97c-1.35.28-2.91.47-4.17.59v1.13h4.01v.98c-.33,1.31-.76,2.34-1.44,3.25.55.59,1.25,1.09,2.18,1.61ZM12.34,42.68c.79-1.15,1.24-2.19,1.41-3.93l-.62.69c-.2-.33-.5-.71-.79-1.05v4.28ZM16,40.84c-.51-.79-.86-1.67-1.1-2.77l.91-.3c.22.92.49,1.65.88,2.29.54-.72.81-1.49,1.05-2.38h-2.96c-.03,2.05-.3,3.45-.98,4.75.93-.53,1.66-1.05,2.19-1.58Z"/>
        <path d="M26,40.14c-.33.93-.85,1.9-1.81,2.83l-.52-.55c-.07.46-.35.67-.93.75l-.39.04-.28-.96.38-.04c.28-.03.39-.14.39-.42v-1.7h-.88c-.08,1.41-.32,2.15-.74,3.08l-.91-.24c.54-1.18.81-1.84.81-4.68v-3.93h2.58v7.8c.72-.66,1.19-1.35,1.44-1.98h-1.18v-.96h2.05v.96ZM21.99,35.26v1.5h.84v-1.5h-.84ZM22.83,39.12v-1.39h-.84v1.39h.84ZM29.98,42l-.58.94c-.93-.66-1.61-1.33-2.11-2.2v1.38c0,.79-.22,1.03-1.02,1.08l-.58.04-.28-1.04.37-.02c.43-.01.54-.06.54-.47v-3.17h-2v-3.94h1.51c.12-.33.24-.71.32-.98l1.04.17c-.07.2-.17.52-.28.81h2.18v3.94h-1.79v.3c.12.3.25.61.41.9.42-.34.89-.73,1.22-1.06l.61.76c-.38.33-.87.73-1.32,1.07.49.64,1.09,1.13,1.77,1.49ZM25.29,35.4v.77h2.83v-.77h-2.83ZM25.29,37.72h2.83v-.75h-2.83v.75Z"/>
        <path d="M40.58,40.89c-.07.33-.13.59-.24.93-.34,1.08-.71,1.34-1.26,1.34s-1.01-.35-1.56-1.24c-.08-.14-.16-.28-.24-.44-.46.5-1.01.97-1.65,1.46l-.66-.77c.8-.59,1.41-1.12,1.91-1.7-.37-1.06-.62-2.43-.78-4.16h-3.03v1.24h2.52c0,.41-.12,2.87-.16,3.3-.08.99-.27,1.23-1.42,1.36l-.54.06-.31-1.01.46-.05c.68-.08.76-.14.81-.64.03-.3.09-1.78.09-2.03h-1.46c-.05,2.1-.46,3.27-1.25,4.69l-1-.47c.86-1.4,1.22-2.33,1.22-4.68v-2.8h3.98c-.05-.65-.12-1.39-.12-1.53l1.02.04.12,1.49h1.46c-.34-.37-.76-.79-1.02-1.03l.67-.67c.38.35.91.86,1.25,1.27l-.37.43h1.22v1.03h-3.12c.12,1.27.27,2.29.48,3.17.5-.8.86-1.64,1.2-2.68l.9.38c-.46,1.34-.97,2.45-1.73,3.46.14.34.29.64.47.92.24.37.46.47.66.47.18,0,.26-.17.42-.7.07-.24.13-.48.21-.86l.84.4Z"/>
        <path d="M44.44,34c-.2.68-.4,1.34-.68,2.02v7.19h-.97v-5.21c-.26.46-.56.91-.85,1.32l-.7-.8c.89-1.33,1.74-3.07,2.19-4.78l1.01.25ZM51.2,42.05l-.62.73c-.86-.69-1.52-1.49-1.96-2.76l-.35.2c.12.42.15.87.15,1.39,0,1.19-.36,1.43-1.45,1.54l-.56.05-.29-.87.61-.05c.59-.05.77-.18.77-.94,0-.12,0-.21,0-.33-.93.88-2.07,1.49-3.32,2.03l-.41-.85c1.31-.43,2.61-1.06,3.58-1.99-.03-.12-.07-.2-.12-.32-.91.71-1.86,1.2-2.98,1.69l-.35-.8c1.27-.47,2.28-.98,2.99-1.51-.04-.08-.08-.16-.16-.24-.6.41-1.4.7-2.45,1.05l-.34-.81c1.26-.37,2.06-.66,2.56-1.11h-1.73v-1.47l-.4.28-.45-.88c1.01-.66,1.83-1.56,2.38-2.48l.92.34c-.08.16-.17.3-.26.44h2.57v.78l-.69.72h1.56v2.27h-2.82c-.07.12-.14.21-.21.29.24.34.43.63.59.96.59-.33,1.38-.8,1.97-1.25l.49.79c-.35.23-.73.46-1.14.7.43,1.04,1.04,1.71,1.91,2.41ZM45.7,37.41h1.34c.09-.23.16-.5.19-.81h-1.53v.81ZM46.4,35.17c-.2.24-.42.47-.66.7h1.97l.68-.7h-2ZM49.51,36.6h-1.47c-.03.3-.07.57-.15.81h1.62v-.81Z"/>
        <path d="M57.63,36.86c.88,1.68,2.18,3.04,4.06,4.36l-.61,1.11c-1.52-1.14-2.77-2.36-3.7-3.84v4.76h-1.06v-4.78c-.92,1.48-2.12,2.72-3.63,3.93l-.68-1.07c1.82-1.32,3.17-2.81,4.06-4.46h-3.46v-1.07h3.72v-2.05l1.06.04v2.01h2.03c-.37-.42-.98-1.02-1.41-1.35l.65-.71c.41.3,1.05.89,1.44,1.31l-.63.76h1.68v1.07h-3.52Z"/>
      </g>
    </g>
  </g>
</svg>