<?xml version="1.0" encoding="UTF-8"?>
<svg id="Layer_2" data-name="Layer 2" xmlns="http://www.w3.org/2000/svg" viewBox="0 0 87.94 67.3">
  <defs>
    <style>
      .cls-1, .cls-2, .cls-3 {
        fill: none;
      }

      .cls-2 {
        stroke-width: .25px;
      }

      .cls-2, .cls-3 {
        stroke: #000;
        stroke-linecap: round;
        stroke-linejoin: round;
      }

      .cls-3 {
        stroke-width: 3px;
      }
    </style>
  </defs>
  <g id="Layer_5" data-name="Layer 5">
    <g>
      <g>
        <g>
          <g>
            <path class="cls-1" d="M49.61,4.59c-.78-.33-1.49-.78-2.25-1.15-.76-.37-1.54-.69-2.3-1.04-.05-.02-.1-.04-.15-.06-.19-.08-.39-.16-.58-.24-.4-.16-.8-.33-1.19-.49-.63-.26-1.1-.56-1.47-1.13-.07-.1-.11-.22-.16-.33-.1.01-.2.02-.3.03-.33.03-.21-.02-.06-.03-.25.01-.67.15-.82.18-1.91.34-3.86.83-5.82,1-.1.29-.26.54-.49.76-.22.24-.49.41-.79.51-.29.15-.61.22-.95.21-.52.06-1.04.09-1.55.14-.27.05-.53.11-.79.19-.26.92-.41,1.88-.41,2.89,0,5.94,4.81,10.75,10.75,10.75s10.75-4.81,10.75-10.75c0-.35-.03-.7-.06-1.04-.45-.08-.89-.2-1.33-.39Z"/>
            <circle cx="40.25" cy="5.35" r="4.94"/>
            <path class="cls-3" d="M16.46,15.17s20.87-30.76,47.59,0c0,0-22.9,31.26-47.59,0Z"/>
            <path class="cls-2" d="M20.15,12.2s15.99,26.15,40.82,1.32"/>
          </g>
          <path d="M59.61,17.25c.64,0,.64-1,0-1s-.64,1,0,1h0Z"/>
          <path d="M57.06,19.24c.64,0,.64-1,0-1s-.64,1,0,1h0Z"/>
          <path d="M54.07,21.46c.64,0,.64-1,0-1s-.64,1,0,1h0Z"/>
          <path d="M50.41,23.9c.64,0,.64-1,0-1s-.64,1,0,1h0Z"/>
          <path d="M46.53,25.45c.64,0,.64-1,0-1s-.64,1,0,1h0Z"/>
          <path d="M42.2,26.45c.64,0,.64-1,0-1s-.64,1,0,1h0Z"/>
          <path d="M37.99,26.45c.64,0,.64-1,0-1s-.64,1,0,1h0Z"/>
          <path d="M33.67,25.56c.64,0,.64-1,0-1s-.64,1,0,1h0Z"/>
          <path d="M29.79,24.01c.64,0,.64-1,0-1s-.64,1,0,1h0Z"/>
          <path d="M26.24,21.46c.64,0,.64-1,0-1s-.64,1,0,1h0Z"/>
          <path d="M23.03,18.69c.64,0,.64-1,0-1s-.64,1,0,1h0Z"/>
          <path d="M20.15,16.14c.64,0,.64-1,0-1s-.64,1,0,1h0Z"/>
        </g>
        <path class="cls-3" d="M29.5,6.02c0,5.94,4.81,10.75,10.75,10.75s10.75-4.81,10.75-10.75"/>
      </g>
      <g id="Fktjwz">
        <g>
          <path d="M69.49,31.79c5.85,1.6,11.7,3.21,17.56,4.81.14.04.28.07.41.12.38.12.55.41.46.8-.1.4-.35.58-.76.52-.16-.02-.31-.07-.47-.11-11.38-3.12-22.76-6.24-34.14-9.34-.71-.19-1.45-.32-2.19-.36-.58-.03-1.16.11-1.74.2-.71.11-1.36.41-1.98.77-.72.42-1.36.95-1.89,1.59-.37.45-.66.94-.93,1.45-.3.56-.52,1.14-.61,1.75-.11.8-.17,1.61-.02,2.43.18,1.02.53,1.96,1.09,2.82.4.6.88,1.13,1.44,1.6.94.79,2.03,1.23,3.2,1.54,11.34,3.1,22.68,6.21,34.01,9.32.19.05.37.11.55.19.31.14.41.46.29.82-.12.34-.39.51-.72.44-.14-.03-.28-.07-.42-.11-11.45-3.14-22.9-6.27-34.36-9.41-.53-.14-1.07-.28-1.56-.5-.68-.3-1.34-.66-1.88-1.19-.4-.38-.83-.74-1.17-1.17-.42-.54-.82-1.11-1.12-1.73-.31-.63-.53-1.31-.69-1.98-.13-.52-.14-1.08-.17-1.62-.06-1.22.25-2.38.7-3.49.21-.52.52-1.02.84-1.49.29-.43.63-.84,1-1.22.5-.51,1.07-.93,1.7-1.29.82-.47,1.68-.82,2.6-.98.61-.11,1.22-.16,1.85-.17,1.04-.01,1.99.31,2.96.57,5.39,1.47,10.78,2.95,16.17,4.42Z"/>
          <path d="M50.26,40.96c-.76-.14-1.47-.44-2.14-.82-.71-.41-1.28-.97-1.74-1.64-.38-.55-.63-1.16-.77-1.79-.12-.52-.15-1.09-.11-1.62.08-1,.4-1.95,1.01-2.76.67-.89,1.54-1.55,2.62-1.9,1.19-.4,2.38-.36,3.57-.02.34.1.68.19,1.02.28.95.25,1.78.73,2.43,1.46.45.5.76,1.09.95,1.76.28.99.18,1.96-.09,2.93-.09.31-.14.63-.26.92-.21.53-.38,1.09-.69,1.56-.49.75-1.18,1.32-2.03,1.67-1.12.46-2.24.42-3.38.09-.13-.04-.26-.07-.39-.11ZM52.68,31.93c-.28-.08-.57-.15-.85-.23-.87-.25-1.72-.15-2.53.19-1.1.46-1.79,1.32-2.23,2.4-.07.18-.09.39-.11.59-.03.2-.05.4-.04.6.02.32.03.64.1.94.15.62.43,1.18.86,1.66.4.45.84.85,1.42,1.04.75.24,1.52.45,2.28.66.78.22,1.52.1,2.21-.28.63-.35,1.14-.84,1.36-1.55.23-.75.43-1.5.63-2.26.13-.48.07-.96-.08-1.43-.32-1.05-1-1.74-2.05-2.07-.32-.1-.65-.18-.97-.27Z"/>
          <path d="M66.75,39.88c-.16.58-.35,1.15-.46,1.73-.13.66-.14,1.34-.02,2,.03.17.12.33.18.49.24.57-.1,1.07-.71,1.07-.3,0-.48-.24-.58-.46-.27-.55-.37-1.14-.38-1.77-.02-1.62.37-3.15.88-4.66.28-.84.63-1.66,1.14-2.38.29-.4.68-.74,1.08-1.04.4-.29.78-.16,1.07.28.16.25,0,.7-.31.94-.37.27-.67.6-.88,1.01-.14.28-.34.55-.44.85-.23.63-.42,1.28-.63,1.92l.07.02Z"/>
          <path d="M74.43,42.22c-.22.59-.49,1.42-.85,2.2-.25.54-.59,1.06-.96,1.53-.26.33-.59.61-1.03.73-.41.11-.85-.2-.82-.63.02-.31.15-.54.42-.76.33-.27.62-.62.84-.98.67-1.09.93-2.33,1.27-3.55.2-.7.23-1.43.26-2.14.02-.44-.03-.9-.28-1.31-.14-.23,0-.78.22-.93.32-.22.67-.17.94.14.33.38.42.84.49,1.32.19,1.32-.2,3.07-.5,4.37Z"/>
          <path d="M69.17,40.51c.4-1.45.8-2.91,1.19-4.36.1-.36.41-.63.76-.66.24-.03.55.18.62.47.04.17.07.37.03.54-.8,2.94-1.6,5.88-2.41,8.82-.1.37-.36.56-.72.62-.12.02-.3-.03-.39-.12-.26-.25-.41-.54-.29-.95.42-1.45.8-2.9,1.2-4.36Z"/>
        </g>
      </g>
      <g>
        <path d="M3.71,58.8v7.02H0v-10.83h3.71v3.52c1.57-1.25,2.63-2.61,3.42-4.4h1.04c.84,1.89,2.24,3.42,3.96,4.72l-.83,1.04c-.41-.32-.78-.64-1.13-.97v.98h-5.06v-.9c-.24.22-.49.45-.76.67l-.64-.85ZM1.19,56.32v1.85h1.34v-1.85h-1.34ZM1.19,59.43v1.89h1.34v-1.89h-1.34ZM2.54,64.53v-1.95h-1.34v1.95h1.34ZM10.88,60.64c-.34,1.19-.95,3.07-1.44,4.43h1.99v1.34h-7.41v-1.34h4.19c.56-1.46,1.23-3.42,1.53-4.83l1.15.41ZM5.36,64.54c-.2-1.06-.7-2.96-1.04-3.92l1.06-.35c.41,1.04.91,2.97,1.09,3.95l-1.12.32ZM5.59,58.52h4.19c-.91-.9-1.64-1.83-2.13-2.79-.52,1.01-1.16,1.88-2.06,2.79ZM7.47,64.05c-.15-.95-.59-2.65-.92-3.59l1.08-.36c.34.81.76,2.63.94,3.61l-1.09.34Z"/>
        <path d="M26.06,65.94l-.7,1.36c-1.29-.8-2.3-1.58-3.12-2.48-.84.85-1.92,1.62-3.26,2.41l-.71-1.15c-.21.35-.39.71-.66,1.06l-1.15-.92v.66h-1.27v-5.91c-.38.9-.78,1.78-1.27,2.55l-1.06-.87c.71-1.12,1.67-2.97,2.23-4.61h-1.4v-1.32h1.51v-2.51l1.27.06v2.45h1.56v1.32h-1.56v1.32l.36-.36c.49.49,1.13,1.29,1.51,1.85.04-.56.07-1.19.07-1.88v-3.53c2.31-.15,4.5-.48,6.58-.87l.29,1.29c-1.81.38-3.88.63-5.56.78v1.51h5.35v1.3c-.43,1.75-1.01,3.12-1.92,4.34.73.78,1.67,1.46,2.91,2.14ZM16.45,66.14c1.05-1.54,1.65-2.93,1.88-5.24l-.83.92c-.27-.43-.67-.95-1.05-1.4v5.72ZM21.34,63.69c-.69-1.05-1.15-2.23-1.47-3.7l1.22-.41c.29,1.23.66,2.2,1.18,3.05.71-.97,1.08-1.99,1.4-3.18h-3.95c-.04,2.73-.41,4.61-1.3,6.33,1.25-.7,2.21-1.4,2.93-2.1Z"/>
        <path d="M34.67,62.75c-.43,1.25-1.13,2.54-2.41,3.78l-.7-.73c-.1.62-.46.9-1.25.99l-.52.06-.38-1.27.5-.06c.38-.04.52-.18.52-.56v-2.27h-1.18c-.11,1.88-.42,2.87-.98,4.1l-1.22-.32c.71-1.57,1.08-2.45,1.08-6.25v-5.24h3.45v10.41c.97-.88,1.58-1.81,1.92-2.65h-1.57v-1.27h2.73v1.27ZM29.32,56.25v2h1.12v-2h-1.12ZM30.44,61.39v-1.85h-1.12v1.85h1.12ZM39.98,65.24l-.77,1.26c-1.25-.88-2.14-1.78-2.82-2.94v1.83c0,1.05-.29,1.37-1.36,1.44l-.77.06-.38-1.39.49-.03c.57-.01.73-.08.73-.63v-4.23h-2.67v-5.25h2.02c.15-.43.32-.95.42-1.3l1.39.22c-.1.27-.22.7-.38,1.08h2.91v5.25h-2.4v.41c.15.41.34.81.55,1.2.56-.45,1.19-.98,1.62-1.42l.81,1.01c-.5.43-1.16.98-1.76,1.43.66.85,1.46,1.51,2.37,1.99ZM33.73,56.43v1.02h3.78v-1.02h-3.78ZM33.73,59.53h3.78v-.99h-3.78v.99Z"/>
        <path d="M45.84,60.41c-.35.15-.81.36-1.32.57v4.22c0,1.19-.41,1.43-1.64,1.54l-.64.07-.42-1.32.69-.06c.55-.06.7-.13.7-.67v-3.25c-.66.27-1.25.46-1.68.62l-.31-1.44c.52-.15,1.22-.41,1.99-.7v-2.09h-1.55v-1.34h1.55v-2.34l1.32.06v2.28h1.13v1.34h-1.13v1.57c.38-.15.71-.28,1.01-.43l.31,1.37ZM53.91,60.76l-.43,1.36c-1.64-.49-2.94-1.02-4.01-1.75-.63.43-1.37.84-2.23,1.19l1.25.06-.03.62c-.11,1.93-.53,3.53-2.61,4.94l-.95-1.02c1.83-1.23,2.18-2.3,2.18-3.88v-.64c-.49.2-1.01.38-1.55.55l-.49-1.3c1.33-.38,2.47-.83,3.38-1.36-.77-.71-1.37-1.58-1.95-2.65h-.63v-1.26h3.01c-.15-.5-.31-1.06-.42-1.39l1.36-.18c.13.35.34.99.5,1.57h3.17v1.26h-1.04c-.48,1.02-1.11,1.89-1.89,2.63.9.52,1.97.91,3.38,1.26ZM47.95,56.87c.43.77.92,1.37,1.53,1.89.6-.52,1.12-1.15,1.53-1.89h-3.05ZM50.5,61.59l1.36.06v5.15h-1.36v-5.21Z"/>
        <path d="M58.41,58.8c0,4.57-.46,6.04-1.81,8.32l-1.39-.7c1.29-2.2,1.74-3.07,1.74-7.48v-4.02h10.7v1.37h-9.25v2.51ZM68.02,64.96v1.39h-10.08v-1.39h4.02v-4.12h-3.28v-1.4h3.28v-2.75l1.49.06v2.69h3.74v1.4h-3.74v4.12h4.58ZM64.91,61.11c.59.55,1.69,1.74,2.21,2.41l-.85,1.12c-.46-.62-1.72-2.06-2.31-2.61l.95-.92Z"/>
      </g>
    </g>
  </g>
</svg>