<?xml version="1.0" encoding="UTF-8"?>
<svg id="Layer_2" data-name="Layer 2" xmlns="http://www.w3.org/2000/svg" viewBox="0 0 34.71 29.58">
  <defs>
    <style>
      .cls-1 {
        fill: #fff;
      }
    </style>
  </defs>
  <g id="Layer_5" data-name="Layer 5">
    <g>
      <path class="cls-1" d="M10.18,25.79l2.06,2.76-1.38,1.03-1.91-2.55c-.78.76-1.54,1.51-2.35,2.27l-1.23-1.29c.85-.79,1.71-1.57,2.53-2.39l-1.3-1.75-2.28,1.7-1.03-1.38c-.17-.93-.6-2.25-1.12-3.64l-1.14.85-1.02-1.37,1.53-1.14c-.32-.82-.62-1.52-.91-2.18l1.42-.68c.26.59.55,1.19.81,1.87l2.42-1.81,1.02,1.37-2.77,2.07c.52,1.39.99,2.68,1.19,3.58l.95-.71-1.79-2.4,1.32-.88,1.73,2.32,1.24-.93,1.03,1.38-1.24.93,1.15,1.54c.46-.46.93-.92,1.36-1.4l1.13,1.31-1.45,1.49ZM7.97,20.28c1.19-2.41,1.83-4.8,1.89-6.89l-3.89,2.91-1.02-1.37,5.76-4.3.97,1.3c0,1-.07,2.01-.2,3.07,1.4-.17,2.74-.34,4.14-.42l.38,1.78c-1.59.04-3.21.15-4.84.35-.32,1.38-.79,2.77-1.47,4.26l-1.71-.7ZM16.31,22.45l2.99-2.23,1.02,1.37-7.53,5.62-1.02-1.37,3.13-2.34-1.79-2.39-2.34,1.75-1.04-1.4,5.99-4.47,1.05,1.4-2.24,1.67,1.79,2.39Z"/>
      <path class="cls-1" d="M19.79,12.1c2.68,3.59,3.18,5.47,3.56,8.31l-1.75.21c-.42-2.97-.87-4.36-3.51-7.89l-3.24-4.34,5.21-3.89c-.41-.3-.77-.57-1.22-.85l1.26-1.32c.52.33.98.62,1.51,1l4.46-3.33.95,1.27-9.82,7.34.88,1.18,1.85-1.38-.71-.95,1.43-.98.67.89,3.03-2.26-.71-.95,1.44-.99.67.89,2.12-1.58.9,1.21-2.12,1.58,1.53,2.05-5.81,4.34-1.53-2.05-1.85,1.38.82,1.1ZM34.71,11.79c-2.42,1.25-4.31,2.05-6.16,2.47-.89,1.54-2.09,3.16-3.74,5.04l-1.55-.91c1.37-1.41,2.4-2.65,3.23-3.83-1.01.06-2.03.01-3.14-.15l.22-.82-1.31.98-.84-1.12,8.25-6.16.85,1.14c-.09,1.3-.38,2.56-.98,3.92,1.31-.51,2.73-1.21,4.55-2.27l.63,1.71ZM22.2,8.59l.67.89,3.03-2.26-.67-.89-3.03,2.26ZM24.35,13c1.06.13,2.05.13,3.15-.08.61-1.11.96-2.11,1.1-3.1l-4.26,3.18Z"/>
    </g>
  </g>
</svg>