<?xml version="1.0" encoding="UTF-8"?>
<svg id="Layer_2" data-name="Layer 2" xmlns="http://www.w3.org/2000/svg" viewBox="0 0 81.93 102.09">
  <defs>
    <style>
      .cls-1 {
        fill: #a5a7ab;
      }
    </style>
  </defs>
  <g id="Layer_8" data-name="Layer 8">
    <g>
      <path class="cls-1" d="M13.82,88.99c-.29.53-.53,1.08-.71,1.72l-4.63-1.32c.14-1-.11-1.48-.43-2.05-1.01-2.02-4.58-7.49-8.05-11.47l3.45-2.79c2.92,3.85,6.04,8.27,7.46,11.32.53-1.08,1.36-2.62,1.92-3.96-1.21-1.85-2.39-3.57-3.39-4.97l3.48-2.32c3.64,4.82,7.82,11.91,9.47,15.37.61-1.66,1.88-5.58,2.26-6.79l4.27,2.2c-.45.83-2.87,7.49-3.41,9.64-.27.82-.48,1.62-.68,2.42l-5.1-1.51c.16-1.45.04-1.97-.36-2.81-.71-1.52-2.02-3.94-3.72-6.68l-1.83,4.01ZM56.92,66.74c-3.68,3.75-7.1,6.5-10.63,8.4.33,4.33-.03,9.08-1.2,14.19l-4.43-.64c.63,1.25,1.05,2.56,1.62,3.95l-4.54,1.35c-.52-1.76-1.14-3.46-1.83-5.03-1.01,3.55-3.04,11.49-3.47,13.13l-4.65-1.5c.46-1.68,3.55-12.86,3.96-14.86l2.1.85,1.15.4c-2.04-3.89-4.64-7.29-8.24-10.61l-2.71,5.01-3.52-1.91,3.12-5.76c-.79-.65-1.63-1.28-2.49-1.92l-2.71,5.01-3.56-1.93,1.69-3.12c-1.54-.21-3.97-.33-5.2-.26l.2-2.79c-.56,1.35-1.13,2.51-1.69,3.64l-3.68-1.6c3.44-7.18,8.12-17.72,10.43-24.49l3.81,1.27c-1.26,3.58-2.94,7.84-4.85,12.21,1.44-.13,4.93.34,6.2.74l-.46,2.54,2.1-3.87c-1.39-1.95-3.31-4.7-4.56-6.28l2.86-2.55c1.01,1.4,2.53,3.42,3.7,5.13l2.17-4,3.56,1.93-7.93,14.64,2.49,1.92,8.67-16,3.52,1.91-9.07,16.75,2.06,1.97,7.88-14.55,3.61,1.95c1.57,2.67,2.66,5.59,3.33,8.86,2.54-1.75,5.18-4.3,7.95-7.64l3.3,3.55ZM17.71,68.07l-.13,1.81,3.1-5.71c-1.33-.27-4.56-.71-5.79-.64l.51-3.36c-1.14,2.62-2.34,5.27-3.41,7.65,1.57-.06,4.39-.01,5.72.26ZM42.18,76.95c-2.51.86-5.17,1.35-7.88,1.42,2.43,3.08,4.54,6.32,6.22,10.03,1.17-4.37,1.63-8.04,1.65-11.45ZM39.91,66.23l-4.45,8.22c2.35-.15,4.52-.68,6.47-1.55-.32-2.45-.99-4.69-2.02-6.67Z"/>
      <path class="cls-1" d="M79.33,18.16l-4.84,6.75,7.44,5.33-2.54,3.54-7.44-5.33-5.18,7.23-3.62-2.59,5.19-7.23-4.02-2.88-2.54,3.54c1.1,1.47,2.02,2.93,2.82,4.3l-3.39,2.24,8.49,6.09c2.76,1.98,2.58,3.27,1.19,5.9l-1.11,1.97-2.74-.98-2.42,3.37-7.11-5.1-1.92,2.68c3.62,3.27,5.46,5.94,7.39,9.6l-3.67,2.54c-3.15-5.82-4.95-8.28-13.08-14.11l-7.31-5.24c.12.52.2,1.01.25,1.54l-4.31.78c-1.07-6.49-3.19-11.51-6.1-16.37l3.67-2.54c.54.88,1,1.7,1.51,2.62l4.98-6.95,3.17,2.27,1.82,5.36,2.77-3.86,2.76,1.98c-.15-5.03-1.2-6.83-3.58-9.33l-.44-.5-2.59,3.62-3.41-2.45L50.82,0c2.25,1.92,6.46,5.31,7.27,6.07,3.02,2.66,3.01,4.12.74,7.73l-1.38,2.27-4.32-1.44,1.3-2.08c1.28-2.04,1.31-2.51-.19-3.77-.85-.79-2.06-1.85-2.8-2.44l-3.35,4.67c.52.56.98.95,1.38,1.42,2.81,2.94,3.97,6.05,4.43,10.81l3-2.65c.72.71,1.42,1.45,2.05,2.21l1.75-2.44-3.25-2.33,2.7-3.42,3.09,2.21,3.9-5.45,3.62,2.59-3.9,5.45,4.02,2.88,4.84-6.75,3.62,2.59ZM36.07,30.02c.71,1.67,1.31,3.15,1.77,4.9l3.12-4.35-1.75-4.94-3.14,4.39ZM43.42,34.18l-1.75,2.44,3.66,2.62,1.75-2.44-3.66-2.62ZM47.61,28.33l-1.78,2.48,3.66,2.62,1.78-2.48-3.66-2.62ZM54.1,41.85l-3.54-2.53-1.75,2.44,1.38.99c.77.55,1.46,1.05,2.12,1.58l1.78-2.48ZM60.93,32.84c-1.79-3.25-4.69-6.93-7.03-9.59l.11,1.56-3.81.34,10.73,7.69ZM54.76,33.46l-1.78,2.48,3.54,2.54,1.78-2.48-3.54-2.53ZM66.48,43.89c.69-1.23.71-1.52-.26-2.21l-4.51-3.23-1.78,2.48,5.85,4.2.7-1.23Z"/>
    </g>
  </g>
</svg>