<?xml version="1.0" encoding="UTF-8"?>
<svg id="Layer_2" data-name="Layer 2" xmlns="http://www.w3.org/2000/svg" viewBox="0 0 33.5 27.31">
  <defs>
    <style>
      .cls-1 {
        fill: #fff;
      }
    </style>
  </defs>
  <g id="Layer_5" data-name="Layer 5">
    <g>
      <path class="cls-1" d="M15.84,18.55l-4.75,3.54,3.06,4.1-1.49,1.11-3.06-4.1-4.83,3.61L0,20.43l4.83-3.61-1.94-2.6,1.53-1.05,1.9,2.54,4.75-3.54,4.77,6.39ZM8.55,21.79l-2.63-3.52-3.32,2.48,2.63,3.52,3.32-2.48ZM10.65,14.74l-3.25,2.42,2.63,3.52,3.25-2.42-2.63-3.52Z"/>
      <path class="cls-1" d="M18.58,12.1c2.68,3.59,3.18,5.47,3.56,8.31l-1.75.21c-.42-2.97-.88-4.36-3.51-7.89l-3.24-4.34,5.21-3.89c-.41-.3-.77-.57-1.22-.85l1.26-1.32c.52.33.98.62,1.51,1l4.46-3.33.95,1.27-9.82,7.34.88,1.18,1.85-1.38-.71-.95,1.43-.98.67.89,3.03-2.26-.71-.95,1.44-.99.67.89,2.12-1.58.9,1.21-2.12,1.58,1.53,2.05-5.81,4.34-1.53-2.05-1.85,1.38.82,1.1ZM33.5,11.79c-2.42,1.25-4.31,2.05-6.16,2.47-.89,1.54-2.09,3.16-3.74,5.04l-1.55-.91c1.38-1.41,2.4-2.65,3.23-3.83-1.01.06-2.04.01-3.14-.15l.22-.82-1.31.98-.84-1.12,8.25-6.16.85,1.14c-.09,1.3-.38,2.56-.98,3.92,1.31-.5,2.74-1.21,4.55-2.27l.63,1.71ZM20.99,8.59l.67.89,3.03-2.26-.67-.89-3.03,2.26ZM23.15,13c1.06.13,2.05.13,3.15-.08.61-1.11.96-2.11,1.1-3.09l-4.26,3.18Z"/>
    </g>
  </g>
</svg>