<?xml version="1.0" encoding="UTF-8"?>
<svg id="Layer_2" data-name="Layer 2" xmlns="http://www.w3.org/2000/svg" viewBox="0 0 51.18 53.03">
  <defs>
    <style>
      .cls-1 {
        fill-rule: evenodd;
      }
    </style>
  </defs>
  <g id="Layer_5" data-name="Layer 5">
    <g>
      <path class="cls-1" d="M37.31,12.14c-.09-.43-.02-.86-.12-1.27-.24-.97-.42-1.89-.78-2.71-.72-1.66-1.62-3.27-2.9-4.36-.39-.33-.72-.73-1.13-1.04-.43-.32-.88-.64-1.34-.92-.2-.12-.41-.18-.61-.31C28.8.54,26.37-.05,23.71,0c-.1.06-.29,0-.42.02-.36.04-.72.08-1.08.12-.98.24-1.93.38-2.78.73-3.58,1.48-5.97,3.93-7.45,7.52-.32.79-.44,1.67-.66,2.57-.09.35-.01.69-.09,1.06-.07.33-.1,1.07-.02,1.41.07.34-.03.65.05.97.17.72.22,1.46.42,2.1.22.68.39,1.29.66,1.91,1.27,2.89,3.66,5.25,6.55,6.53.75.33,1.56.6,2.43.85.38.07.77.14,1.15.21.13,0,.25.02.38.02.16.04.41.05.59.07h.45c.18.04.57.07.78.02.33-.07.7,0,1.04-.07.81-.19,1.6-.23,2.33-.47,3.84-1.28,6.66-3.73,8.22-7.28.38-.87.61-1.8.87-2.8.05-.37.11-.74.17-1.11v-.26c.06-.26-.02-.6.05-.9.06-.26.03-.82-.02-1.08ZM36.2,13.72c-.09.42-.02.87-.12,1.27-.26,1.03-.46,1.97-.85,2.85-1.35,3.07-3.7,5.14-6.83,6.43-.7.29-1.49.39-2.29.59-.35.04-.71.08-1.06.12h-.54c-.26.06-.82.03-1.08-.02-.45-.1-.92-.03-1.34-.14-.51-.13-1.02-.21-1.51-.38-.41-.14-.83-.33-1.2-.49-2.61-1.15-4.86-3.33-6.01-5.94-.26-.59-.42-1.18-.64-1.84-.18-.55-.23-1.19-.38-1.81-.02-.31-.03-.63-.05-.94-.08-.37-.05-1.01.02-1.37.08-.36.01-.67.09-1.01.19-.76.29-1.52.57-2.19,1.38-3.36,3.58-5.7,6.93-7.09.79-.33,1.66-.46,2.57-.68.41-.04.82-.08,1.23-.12.84,0,1.8-.03,2.5.14.92.22,1.8.39,2.59.73,3.07,1.33,5.21,3.51,6.53,6.6.28.66.48,1.4.68,2.17.11.43.06.86.16,1.32.08.36.11,1.43.02,1.81ZM35.26,11.9c-.05-.32-.11-.64-.16-.97-.19-.66-.39-1.31-.64-1.89-.47-1.08-1.02-2.01-1.67-2.9-.24-.33-.57-.58-.82-.9-.2-.25-.46-.52-.71-.71-.59-.45-1.21-.85-1.86-1.25-.42-.25-.89-.37-1.37-.57-1.09-.45-2.61-.76-4.15-.73-.09.06-.33.02-.47.02l-.78.07c-.82.19-1.6.3-2.31.59-3.13,1.3-5.28,3.36-6.57,6.5-.32.78-.42,1.67-.64,2.57-.08.32,0,.66-.07.99-.09.4-.06,1.11.02,1.48v.26c.06.38.13.75.19,1.13.24.86.5,1.67.87,2.38.09.18.15.38.26.54.37.53.96.9,1.53,1.23.21.12.42.35.61.49.16.12.31.22.42.38.37.51.59,1.18.97,1.67.06.07.16.11.24.16l.31.31c.13.09.28.13.42.21.82.5,1.8.83,2.85,1.13.31.09.59.06.92.14.18.04.44.05.64.09h.4c.19.04.6.07.82.02.35-.03.71-.06,1.06-.09.84-.2,1.67-.29,2.4-.59,3.25-1.34,5.09-3.14,6.48-6.34.32-.74.49-1.56.71-2.4.1-.37.03-.73.12-1.13.08-.37.08-1.07,0-1.44,0-.16-.02-.33-.02-.49ZM34.18,13.81v.4c-.04.3-.08.6-.12.9-.17.66-.31,1.3-.57,1.89-1.16,2.67-3.31,4.65-6.03,5.77-.52.21-1.11.28-1.7.42-.21.05-.44.03-.64.07h-.42c-.41.09-1.21.01-1.58-.07-.42-.05-.83-.09-1.25-.14-1.09-.28-2.17-.57-2.95-1.15-.38-.29-.47-.75-.71-1.2-.14-.27-.38-.56-.57-.8-.08-.06-.16-.13-.24-.19-.13-.12-.27-.35-.4-.45-.24-.18-.52-.34-.75-.49-.26-.17-.6-.27-.78-.52-.24-.32-.37-.7-.54-1.08-.69-1.57-1.14-4.13-.57-6.2.11-.39.14-.73.28-1.08,1.14-2.77,2.87-4.78,5.58-5.96.7-.3,1.47-.45,2.26-.66.36-.04.72-.08,1.08-.12,4.66.01,7.49,2.14,9.26,5.04.25.41.39.86.59,1.32.26.62.4,1.34.59,2.05.09.36.03.7.12,1.08.07.31.09.85.02,1.18ZM32.41,8.91c-.22-.36-.42-.74-.66-1.08-.7-.99-1.63-1.77-2.66-2.43-1.4-.89-2.96-1.46-5.33-1.41-.07.05-.2,0-.31.02-.27.04-.55.08-.82.12-.7.18-1.37.32-1.98.59-2.45,1.07-4.02,2.94-5.04,5.44-.14.33-.16.65-.26,1.01-.51,1.79-.17,4.02.42,5.44.16.38.26.79.49,1.11.48.66,1.49.77,1.98,1.41.55.74.98,1.77,1.72,2.31.39.28.89.33,1.41.49.54.17,1.19.26,1.79.4.3.07.58-.02.9.05.17.04.51.04.68,0h.42c.75-.17,1.48-.18,2.12-.45,2.6-1.07,4.51-2.88,5.58-5.47.78-1.87.68-4.75-.07-6.57-.14-.34-.22-.69-.4-.99ZM32.01,15.41c-.85,2.61-2.33,4.27-4.76,5.3-.51.22-1.1.34-1.7.49-.27.07-.52,0-.8.07-.24.05-.89.11-1.18.05-.7-.16-1.48-.16-2.12-.35-.14-.04-.25-.02-.38-.07-.1-.04-.17-.15-.26-.21-.51-.34-.86-.7-1.18-1.23-.2-.34-.29-.75-.52-1.06-.19-.26-.51-.55-.82-.68-.4-.18-.88-.32-1.11-.66-.19-.27-.27-.6-.4-.92-.43-1.02-.82-2.97-.45-4.41.36-1.38.7-2.32,1.41-3.32.91-1.28,2.34-2.37,3.98-2.92.48-.16.99-.21,1.51-.33.3-.02.6-.05.9-.07,2.21,0,3.6.69,4.88,1.6,1.47,1.05,2.39,2.42,3.02,4.34.4,1.23.36,3.19-.02,4.38ZM30.55,9.71c-1.21-1.98-3.26-3.74-6.5-3.68-.29.04-.58.08-.87.12-.53.14-1.04.27-1.51.47-1.95.85-3.12,2.15-3.94,4.15-.62,1.53-.57,4.4.31,5.58.2.27.52.57.8.75.35.23.74.36.99.68.1.14.11.3.19.47.09.21.27.54.4.73.66.98,1.72,1.12,3.04,1.44.24.06,1.02.14,1.32.07.2-.05.44-.02.66-.07.45-.11.91-.16,1.32-.33,2.03-.83,3.4-2.17,4.24-4.19.61-1.47.6-3.7,0-5.16-.15-.37-.25-.71-.45-1.04ZM29.89,15.7c-.67,1.57-1.85,2.69-3.44,3.35-.51.21-1.07.22-1.67.35-.21.05-.58.01-.75-.02-.35-.02-.69-.05-1.04-.07-.27-.07-.54-.2-.78-.28-.28-.1-.53-.14-.68-.35-.19-.27-.43-.56-.57-.87-.11-.24-.14-.48-.28-.68-.16-.23-.78-.6-1.04-.75-.16-.1-.36-.14-.47-.28-.79-1.03-1.01-3.45-.42-4.9.67-1.64,1.83-2.93,3.46-3.61.38-.16.8-.23,1.23-.33.19-.04.61.01.75-.07,3.07.02,4.85,1.73,5.75,3.94.54,1.32.51,3.3-.05,4.59ZM24.14,8.16c-.12.08-.37.01-.52.05-.39.09-.79.16-1.13.31-1.37.59-2.26,1.6-2.83,2.99-.12.29-.16.64-.24.97-.17.72-.01,1.66.17,2.21.51,1.58,1.26,2.47,2.64,3.18.31.16.68.3,1.06.4.2.05.35.02.57.07.16.04.45.09.64.05.53-.11,1.02-.11,1.46-.28,1.37-.55,2.38-1.52,2.95-2.87.49-1.17.45-2.78-.02-3.91-.76-1.81-2.15-3.19-4.74-3.16ZM28.1,14.05c-.07.3-.14.6-.26.87-.41.96-1.19,1.7-2.17,2.1-.32.13-.69.15-1.06.24-.57.13-1.45-.16-1.79-.31-1.46-.62-2.89-2.67-2.17-4.9.37-1.14,1.14-2.04,2.19-2.5.22-.07.44-.14.66-.21.14-.04.33,0,.45-.07.51,0,.98,0,1.37.12,1.37.44,2.22,1.34,2.66,2.71.17.51.27,1.33.12,1.96Z"/>
      <g>
        <path d="M3.3,30.93l1.02.04v9.28h-1.02v-1.87H.18v-1.04h3.12v-1.55H.84v-1.01h2.46v-1.48H.65v-1.02h2.65v-1.35ZM9.48,38.38h-3.03v1.91h-1v-9.44l1,.04v1.39h2.67v1.02h-2.67v1.48h2.49v1.01h-2.49v1.55h3.03v1.04Z"/>
        <path d="M13.59,31.05c-.24.85-.48,1.6-.81,2.31v6.97h-.91v-5.21c-.24.41-.47.8-.76,1.21l-.68-.86c.76-1.09,1.7-2.96,2.17-4.66l.99.24ZM19.88,40.3c-1.4-.28-2.46-.56-3.31-.98-.81.41-1.79.75-3.1,1.04l-.4-.87c1.04-.2,1.86-.44,2.54-.73-.42-.33-.8-.7-1.14-1.2l.59-.44h-.89v-.35h-.85v-1.74h6.52v1.74h-.75v.31c-.45.67-.93,1.22-1.6,1.69.7.25,1.56.45,2.7.63l-.32.89ZM19.23,34.5h-5.38v-.78h4.41v-.51h-4.1v-.75h4.1v-.51h-4.34v-.78h5.31v3.33ZM14.23,35.8v.57h4.69v-.57h-4.69ZM15.31,37.12c.33.47.72.87,1.21,1.18.55-.34,1-.72,1.42-1.18h-2.62Z"/>
        <path d="M30.68,39.31l-.82.98c-2.1-1.85-3.12-3.02-3.84-5.49-.57,1.77-1.72,3.6-4.09,5.49l-.82-.94c2.86-2.07,4.02-4.24,4.33-6.38-.2-.33-.44-.58-.68-.73l-.69-.46.55-.84.69.43c.66.41,1.17,1,1.32,1.71.64,2.94,1.64,4.26,4.06,6.25Z"/>
        <path d="M31.61,36.23c.2-.96.49-2.55.63-3.73l.89.13c-.14,1.04-.46,2.96-.63,3.8l-.89-.2ZM41.08,38.83v1.04h-6.11v-1.04h2.65v-2.1h-2.12v-1.03h2.12v-1.83h-1.21c-.16.55-.32,1.09-.51,1.64l-.96-.33c.18-.45.33-.92.46-1.4l-.38.44c-.2-.28-.54-.71-.82-1.05v7.05h-1v-9.41l1,.04v1.85l.45-.4c.22.26.58.69.86,1.06.17-.66.3-1.31.39-1.97l.96.13c-.07.45-.12.86-.21,1.27h.96v-1.94l1.04.04v1.9h2.15v1.07h-2.15v1.83h1.92v1.03h-1.92v2.1h2.42Z"/>
        <path d="M42.98,33.33c.54.37,1.44,1.07,1.86,1.49l-.58,1.01c-.47-.5-1.41-1.3-1.91-1.64l.63-.86ZM42.54,39.88c.21-.5,1.13-2.96,1.3-3.55l1,.41c-.21.62-1.07,3.07-1.28,3.54l-1.02-.4ZM43.47,30.99c.49.3,1.38.94,1.79,1.36l-.58.95c-.44-.44-1.3-1.16-1.8-1.49l.59-.82ZM51.01,31.36v8.9h-1.07v-.51h-3.46v.55h-1.07v-8.93h5.61ZM46.47,32.4v1.42h3.46v-1.42h-3.46ZM46.47,34.81v1.41h3.46v-1.41h-3.46ZM49.94,38.72v-1.48h-3.46v1.48h3.46Z"/>
        <path d="M7.05,50.59c.45.68,1.23,1.12,2.5,1.41l-.22.96c-1.31-.35-2.26-.9-2.82-1.69-.42.72-1.24,1.27-2.78,1.7l-.26-.83c-.14.34-.43.46-.93.5l-.43.04-.3-.94.41-.04c.33-.03.43-.1.43-.43v-1.7h-.92c-.12,1.45-.39,2.29-.81,3.15l-.9-.35c.59-1.21.85-1.82.85-4.63v-3.94h2.69v7.82c0,.15-.01.27-.03.38,1.35-.39,2.03-.81,2.31-1.41h-2.06v-.83h2.25v-.1c0-.12,0-.28,0-.45h-1.78v-3.37h4.56v3.37h-1.87c0,.17,0,.35-.01.47v.08h2.37v.83h-2.23ZM1.75,44.75v1.48h.88v-1.48h-.88ZM2.64,48.6v-1.41h-.88v1.41h.88ZM5,45.11h-1.12v-.87h1.12v-.96l.87.04v.91h1.2v-.96l.86.04v.91h1.33v.87h-1.33v.57h-.86v-.57h-1.2v.57h-.87v-.57ZM5.07,46.6v.55h2.88v-.55h-2.88ZM5.07,48.44h2.88v-.59h-2.88v.59Z"/>
        <path d="M19.72,52.93c-.97-.47-1.71-.92-2.31-1.46-.55.5-1.24.99-2.21,1.5l-.51-.87c-.14.27-.3.55-.48.83l-.82-.52c.16-.22.27-.43.39-.63h-2.24v-2.87c-.16.26-.32.51-.48.76l-.55-.77c.62-1.02,1.28-2.44,1.58-3.84h-1.12v-.99h3.25v.99h-1.2c-.15.66-.33,1.28-.54,1.86h1.42v4.62c.59-1.15.67-2.13.67-4.2v-2.76h2.13v-1.25l.93.04v1.21h2.17v.97l-.5,1.18-.88-.25.4-.9h-1.19v1.68h1.67v.97c-.33,1.01-.66,1.81-1.25,2.56.54.45,1.22.84,2.14,1.22l-.49.94ZM13.09,47.94h-.74v2.87h.74v-2.87ZM16.74,50.79c-.5-.62-.87-1.31-1.17-2.24l.62-.3h-.67c-.03,1.59-.16,2.55-.8,3.78.88-.42,1.52-.82,2.02-1.24ZM15.52,45.56v1.68h1.2v-1.68h-1.2ZM18.29,48.25h-1.82c.25.76.54,1.33.92,1.84.42-.55.67-1.13.89-1.84Z"/>
        <path d="M24.82,50.56v1.19l1.89-.64.16,1.01c-.26.04-2.17.63-3.05.92l-.39-.81c.38-.2.38-.37.38-.48v-.64c-.72.35-1.49.66-2.29.92l-.31-.94c1.54-.49,2.75-1.02,3.63-1.62h-3.23v-.85h.64l-.32-.69c.77-.24,1.35-.46,1.85-.7-.28-.2-.66-.43-1.01-.63-.24.2-.46.37-.75.57l-.48-.75c.76-.58,1.49-1.24,1.91-1.9h-1.41v-.83h4.73v.83h-2.26c-.12.2-.23.38-.36.58h2.36v.69c-.64,1.22-1.63,2.03-3.7,2.83h2.87l-.28-.93.92-.2c.09.3.23.72.35,1.13h3.61v.85h-1.27l.54.79c-.33.2-.77.48-1.22.75.64.35,1.41.62,2.32.83l-.42.97c-2.11-.56-3.52-1.45-4.48-2.84-.29.21-.61.41-.93.61ZM23.4,46c.25.14.54.29.8.45l-.38.75c.75-.38,1.19-.78,1.55-1.31h-1.87l-.11.12ZM29,49.46h-2.44c.26.36.57.67.89.94.58-.33,1.13-.66,1.54-.94ZM27.97,46.81h-.92v-2.91l.92.04v2.87ZM27.76,47.17l.64-.04c.51-.03.64-.14.64-.52v-3.21l.91.04v3.43c0,.91-.23,1.13-1.31,1.22l-.58.05-.3-.97Z"/>
        <path d="M32.35,44.05h3.34v7.9h-3.34v-7.9ZM33.35,45.12v2.32h1.35v-2.32h-1.35ZM34.7,50.84v-2.37h-1.35v2.37h1.35ZM41.17,46.37h-1.17v4.91c0,1.13-.38,1.34-1.63,1.46l-.7.06-.36-1.11.78-.06c.72-.05.82-.13.82-.68v-4.58h-3.05v-1.09h3.05v-1.96l1.09.04v1.92h1.17v1.09ZM37.5,49.94c-.28-.7-1.03-2.07-1.38-2.63l.87-.48c.34.52,1.08,1.88,1.39,2.57l-.88.55Z"/>
        <path d="M42.89,45.22l1.07.04v7.43h-1.07v-7.47ZM43.82,43.19c.42.37,1.19,1.13,1.61,1.62l-.78.81c-.39-.52-1.17-1.34-1.55-1.7l.72-.72ZM49.08,51.27h-4.12v-5.27h4.12v5.27ZM51.18,43.9v7.36c0,1.09-.22,1.43-1.4,1.51l-.75.06-.34-1.04.61-.05c.67-.05.78-.19.78-.75v-6.08h-4.49v-1.02h5.58ZM45.97,46.99v1.15h2.12v-1.15h-2.12ZM48.09,50.27v-1.14h-2.12v1.14h2.12Z"/>
      </g>
    </g>
  </g>
</svg>