<?xml version="1.0" encoding="UTF-8"?>
<svg id="Layer_2" data-name="Layer 2" xmlns="http://www.w3.org/2000/svg" viewBox="0 0 48.44 47.6">
  <defs>
    <style>
      .cls-1 {
        stroke: #000;
        stroke-miterlimit: 10;
      }

      .cls-1, .cls-2 {
        fill: none;
      }
    </style>
  </defs>
  <g id="Layer_5" data-name="Layer 5">
    <g>
      <g>
        <circle class="cls-2" cx="20.03" cy="9.98" r="8.96"/>
        <circle cx="20.03" cy="9.98" r="3.42"/>
      </g>
      <path d="M19.95,19.96c-4.45-.18-8.49-1.58-12.32-3.71-2.52-1.4-4.88-3.05-6.89-5.14-1-1.03-.99-1.38.03-2.36C3.78,5.89,7.17,3.59,10.98,1.95c6.5-2.81,12.91-2.53,19.25.53,3.37,1.63,6.39,3.75,9.1,6.33.94.9.96,1.32.04,2.18-4.21,3.94-8.95,6.98-14.64,8.29-1.56.36-3.19.47-4.78.69ZM19.94,17.98c4.31.07,8.06-3.53,8.15-7.82.09-4.49-3.47-8.24-7.88-8.31-4.49-.07-8.19,3.47-8.27,7.92-.08,4.42,3.53,8.13,8,8.2ZM12.32,16.35c-3-4.26-2.97-8.5-.08-12.81-3.79,1.49-7.03,3.68-10.06,6.44,3.04,2.81,6.35,4.94,10.14,6.37ZM27.76,16.31c3.74-1.47,7-3.64,10.02-6.4-2.99-2.73-6.23-4.91-9.99-6.37,2.93,4.28,2.91,8.51-.03,12.77Z"/>
      <polyline class="cls-2" points="34.81 21.79 37.31 21.79 37.31 24.29 34.81 24.29"/>
      <g>
        <g>
          <path d="M40.71,14.14c-.57-.88-1.41-1.17-2.4-.8-.54.21-1.04.55-1.54.86-.82.51-.8.51-1.49-.18-.12-.12-.19-.22-.22-.33-.12-.04-.24-.09-.35-.14-.02,0-.04,0-.06,0-.2,0-.4,0-.6.03-.1,0-.19.03-.29.04,0,0,0,0,0,0-.04,0-.09.02-.13.03-.31.07-.6.17-.9.29-.12.1-.24.2-.36.3-.09.14-.17.29-.24.44-.02.04-.04.08-.05.13-.02.08-.05.16-.07.24-.02.09-.04.18-.05.27,0,.04-.01.08-.02.12,0,.2,0,.39.02.59,0,.03.01.07.02.1,0,0,0,.01,0,.02.02.11.05.21.09.32.03.08.03.16.04.25.01.01.02.03.03.04.25.35-.11.51-.35.68-.29.2-.6.39-.89.58-1.31.86-1.55,1.97-.7,3.27,2.43,3.76,4.87,7.52,7.3,11.28.09.13.15.32.27.38.17.07.42.11.57.03.12-.06.21-.33.18-.48-.04-.2-.2-.38-.32-.56-2.4-3.71-4.81-7.42-7.21-11.13-.53-.82-.4-1.45.42-2,.39-.26.79-.52,1.19-.77,1.02-.66,1.05-.8.35-1.78-.05-.06-.08-.14-.14-.19-.44-.36-.25-.58.12-.85,1.28-.91,1.28-.93,2.26.31.32.4.65.46,1.07.18.56-.37,1.13-.73,1.69-1.09,1.05-.66,1.53-.56,2.19.46,2.42,3.74,4.85,7.49,7.27,11.23.2.3.41.59.8.33.36-.24.21-.53.02-.82-2.51-3.87-5.02-7.75-7.54-11.62Z"/>
          <path d="M35.45,17.72c.96-.62,1.91-1.25,2.88-1.86.71-.45,1.36-.31,1.83.39.79,1.16,1.53,2.35,2.33,3.5.31.44.22.71-.22.94-.17.09-.33.27-.51.29-.19.03-.49-.01-.58-.14-.55-.77-1.05-1.57-1.55-2.38-.07-.11-.06-.37.02-.47.43-.54-.06-.85-.3-1.18-.28-.39-.6-.1-.87.07-1.69,1.09-3.38,2.18-5.07,3.28-.27.18-.67.35-.43.77.21.36.31.97,1.01.72.12-.04.37.09.46.22.51.75.99,1.52,1.49,2.28.19.29.17.51-.11.7-.2.13-.4.26-.6.39-.29.19-.51.14-.7-.15-.82-1.26-1.66-2.5-2.44-3.78-.4-.65-.21-1.25.43-1.68.97-.65,1.95-1.27,2.93-1.9Z"/>
          <path d="M42.2,28.22c-.94.61-1.88,1.23-2.83,1.83-.68.43-1.35.33-1.82-.32-.56-.78-1.07-1.61-1.6-2.42-.4-.62.16-.77.51-1.02.34-.25.66-.37.93.1.21.36.44.7.68,1.04.18.27.26.51.02.8-.3.35-.06.67.19.87.16.12.54.15.71.04,1.82-1.14,3.62-2.31,5.41-3.5.16-.1.28-.44.24-.62-.08-.3-.23-.7-.68-.58-.41.11-.58-.1-.75-.39-.17-.29-.36-.56-.54-.85-.39-.61-.38-.68.21-1.08.76-.5.83-.51,1.23.11.47.73.93,1.46,1.38,2.21.45.75.28,1.45-.46,1.93-.94.62-1.89,1.22-2.83,1.83Z"/>
          <rect class="cls-1" x="37.54" y="19.15" width="2.67" height="7.68" transform="translate(-6.25 24.82) rotate(-32.93)"/>
        </g>
        <rect x="37.41" y="21.92" width="3.11" height="1.59" transform="translate(-6.09 24.83) rotate(-32.93)"/>
      </g>
      <g>
        <path d="M2.63,41.2c-.62-.57-1.76-1.53-2.44-2.02l.8-1.08c.67.45,1.82,1.32,2.42,1.83l-.78,1.26ZM.54,47.07c.34-.95,1.13-3.89,1.3-4.78l1.27.32c-.2,1.04-.9,3.56-1.27,4.79l-1.3-.34ZM3.33,37.88c-.56-.56-1.81-1.53-2.44-1.93l.78-1.04c.67.41,1.81,1.22,2.44,1.74l-.79,1.23ZM9.91,40.14c.74.9,1.76,1.6,2.96,2.14l-.52,1.3c-1.57-.84-2.83-1.92-3.73-3.45h-1.51c-.55.88-1.23,1.57-2.25,2.31,1.33-.38,2.68-1.02,3.68-1.62l.56.98c-1.06.69-2.48,1.32-3.82,1.75l-.45-1.08c-.38.27-.77.55-1.26.84l-.64-1.16c1.25-.71,2-1.25,2.61-2.02h-1.96v-1.15h2.66c.15-.29.25-.6.41-.95-.95.04-1.82.06-2.28.1l-.24-1.13c.38-.1.55-.21.76-.34.38-.27,1.46-1.42,2.13-2.2l1.08.49c-.63.77-1.39,1.67-1.92,2.04l3.64-.08c-.39-.41-.77-.76-1.09-1.02l.76-.76c.73.57,1.95,1.75,2.58,2.45l-.77.9c-.15-.15-.28-.34-.49-.55-.67,0-2.07.03-3.45.07l.66.17c-.1.29-.2.55-.31.81h4.71v1.15h-2.48ZM3.5,46.31c3.67-.63,5.79-1.47,7.58-2.7l.69.94c-1.88,1.32-4.2,2.24-7.73,2.96l-.53-1.19ZM10.24,43.27c-1.51.95-3.26,1.77-5.56,2.27l-.35-1.19c2.13-.43,3.89-1.22,5.36-2.13l.55,1.05Z"/>
        <path d="M26.81,45.84l-.29,1.2c-2.14.1-4.27.13-6.4.08-1.76-.04-2.59-.22-3.6-1.34-.49.57-.98,1.16-1.55,1.68l-.88-1.23c.62-.52,1.21-1.08,1.75-1.65v-3.81h-1.32v-1.41h2.62v5.2c.74,1.11,1.43,1.34,3.07,1.39,2.24.04,4.41,0,6.61-.1ZM16.67,38.3c-.34-.67-1.27-1.96-1.83-2.55l.99-.8c.52.56,1.37,1.71,1.86,2.44l-1.02.91ZM17.33,40.23c1.34-.5,2.28-1.02,3.03-1.74h-2.33v-1.09h3.31v-.78c-1.11.1-2.14.14-2.94.18l-.04-1.2c1.92-.11,5.03-.28,7.05-.66l.15,1.2c-.84.13-1.86.25-2.93.35v.91h3.61v1.09h-2.47c.73.71,1.57,1.23,2.9,1.69l-.5,1.26c-1.64-.77-2.7-1.53-3.54-2.44v1.53h-1.29v-1.53c-.55.66-1.16,1.19-2.04,1.74h5.2l-.27,1.51h1.82c-.1.43-.21,1.22-.32,1.79-.15.97-.42,1.23-1.71,1.34l-1.16.1-.35-1.15,1.06-.08c.77-.04.94-.07,1.05-.55.04-.1.07-.29.08-.45h-1.86l.29-1.37h-1.79c-.01.15-.01.31-.06.46-.15,1.34-1.08,2.41-2.69,3.35l-.63-1.13c1.4-.7,1.96-1.32,2.14-2.37l.04-.31h-1.12v-.98c-.32.18-.69.38-1.12.59l-.57-1.27Z"/>
        <path d="M31.23,39.28c0,4.57-.46,6.04-1.81,8.32l-1.39-.7c1.29-2.2,1.74-3.07,1.74-7.48v-4.02h10.7v1.37h-9.25v2.51ZM40.84,45.44v1.39h-10.08v-1.39h4.02v-4.12h-3.28v-1.4h3.28v-2.75l1.49.06v2.69h3.74v1.4h-3.74v4.12h4.58ZM37.73,41.59c.59.55,1.69,1.74,2.21,2.41l-.85,1.12c-.46-.62-1.72-2.06-2.31-2.61l.95-.92Z"/>
      </g>
    </g>
  </g>
</svg>