<?xml version="1.0" encoding="UTF-8"?>
<svg id="Layer_2" data-name="Layer 2" xmlns="http://www.w3.org/2000/svg" viewBox="0 0 52.19 56.85">
  <g id="Layer_5" data-name="Layer 5">
    <g>
      <g>
        <path d="M13.05,55.25c1.86-.21,3.75-.48,5.67-.77l.03,1.27c-1.89.27-3.71.52-5.5.81l-.2-1.32ZM24.94,45.5v1.23h-3.1v.88h-1.37v-.88h-2.68v.85h-1.34v-.85h-3.28v-1.23h3.28v-1.33l1.34.06v1.27h2.68v-1.33l1.37.06v1.27h3.1ZM16.6,47.85c-.6.99-1.11,1.65-1.49,1.98l1.54-.07c.34-.43.64-.9.92-1.34l1.05.74c-.83,1.23-1.96,2.56-2.67,3.24l2.34-.24v1.26c-.35,0-2.21.2-3.59.35-.27.04-.5.06-.71.1l-.31-1.27c.5-.11.56-.17.63-.27.45-.39.9-.85,1.34-1.34-.43.04-.9.06-1.33.1-.28.04-.53.04-.74.08l-.31-1.25c.34-.1.45-.24.62-.36.32-.25,1.09-1.32,1.64-2.34l1.07.64ZM21.07,47.85c-.11.28-.22.55-.35.81h3.66c0,.34-.17,5.69-.22,6.16-.07,1.5-.38,1.77-1.99,1.88l-1.2.08-.41-1.29,1.09-.07c1.05-.07,1.21-.24,1.25-1.25,0-.41.17-3.85.17-4.29h-2.98c-.38.66-.8,1.27-1.25,1.85l-.98-.74c.83-1.12,1.57-2.44,2-3.6l1.22.45ZM21.32,53.88c-.6-.8-1.3-1.53-2.04-2.19l.77-.9c.83.66,1.43,1.25,2.1,2.03l-.83,1.05Z"/>
        <path d="M38.88,46.3c-.07.59-.28,7.7-.35,8.28-.11,1.44-.71,1.81-2.17,1.92l-1.16.08-.41-1.32,1.19-.08c.95-.07,1.26-.24,1.33-1.2,0-.53.31-5.85.31-6.37h-.59c-.6,3.96-1.48,6.37-4.51,9.13l-.85-1.02c2.7-2.37,3.7-4.78,4.26-8.11h-.85c-.56,2.76-1.53,4.58-3.68,6.7l-.83-1.05c1.88-1.69,2.86-3.35,3.38-5.65h-.91c-.38.74-.8,1.46-1.29,2.14l-.99-.85c.15-.21.32-.43.49-.69h-.97v2.42l1.3-.52.13,1.34-1.43.59v4.8h-1.21v-4.31c-.92.38-1.78.71-1.99.83l-.35-1.39c.29-.07,1.3-.46,2.34-.87v-2.9h-.76c-.11.9-.24,1.75-.39,2.49l-1.16-.21c.34-1.51.56-3.47.67-5.15l1.16.1-.13,1.46h.6v-2.69l1.21.06v2.63h1.15v1.02c.71-1.16,1.32-2.54,1.71-3.88l1.23.36c-.22.67-.45,1.3-.71,1.9h5.24Z"/>
      </g>
      <g id="TArSut">
        <g>
          <g>
            <path d="M51.27,24.1c-3.5-3.4-7.5-6.1-11.9-8.3-5.4-2.6-10.9-3.7-16.4-3,.3.8.5,1.7.6,2.6.9-.2,1.8-.3,2.7-.3,5.8.1,10.4,5,10.3,10.8-.1,5.6-5,10.3-10.6,10.2-5.8-.1-10.4-4.8-10.4-10.5-.6.1-1.2.2-1.8.2h-.6c0,2.8,1,5.5,2.9,8.3-4.9-1.9-9.3-4.7-13.2-8.3,1.2-1.1,2.5-2.1,3.7-3.1-.6-.6-1-1.3-1.5-2-1.4,1.1-2.8,2.2-4.1,3.5-1.3,1.3-1.3,1.7,0,3.1,2.6,2.7,5.7,4.9,9,6.7,5,2.8,10.3,4.6,16.1,4.8,2.1-.3,4.2-.4,6.2-.9,7.4-1.7,13.6-5.7,19.1-10.8,1.1-1.3,1.1-1.9-.1-3h0ZM36.17,33.9c3.8-5.6,3.9-11.1,0-16.7,4.9,1.9,9.1,4.8,13,8.3-3.9,3.6-8.2,6.5-13,8.4h0Z"/>
            <path d="M14.37,25.8c-5.4,0-9.9-4.4-9.8-9.8,0-1.3.5-2.7,1-3.9,1.9-4.3,4.8-7.9,7.8-11.5.6-.8,1.4-.8,2,0,3.1,3.6,5.9,7.4,8,11.7,3,6.3-2,13.6-9,13.5h0ZM14.47,3.2c-2.6,3.2-4.9,6.4-6.7,10-2.2,4.4.9,9.2,5.2,10.1,5,1.1,9.9-3.5,8.8-8.4,0-.1,0-.3-.1-.4-1.6-4.2-4.4-7.7-7.2-11.3Z"/>
          </g>
          <circle cx="26.27" cy="25.8" r="4.8"/>
        </g>
      </g>
    </g>
  </g>
</svg>