<?xml version="1.0" encoding="UTF-8"?>
<svg id="Layer_2" data-name="Layer 2" xmlns="http://www.w3.org/2000/svg" viewBox="0 0 62.44 41.67">
  <defs>
    <style>
      .cls-1 {
        fill: none;
        stroke: #000;
        stroke-linecap: round;
        stroke-linejoin: round;
        stroke-width: 1.5px;
      }
    </style>
  </defs>
  <g id="Layer_5" data-name="Layer 5">
    <g>
      <g>
        <path d="M.63,34.55c.54.37,1.44,1.08,1.87,1.5l-.58,1.01c-.47-.51-1.41-1.31-1.92-1.64l.63-.86ZM.19,41.13c.21-.51,1.14-2.97,1.31-3.56l1,.41c-.21.62-1.08,3.08-1.29,3.55l-1.02-.4ZM1.13,32.2c.5.31,1.38.95,1.8,1.37l-.58.95c-.44-.44-1.31-1.16-1.81-1.5l.59-.82ZM8.7,32.57v8.94h-1.08v-.52h-3.48v.55h-1.08v-8.97h5.63ZM4.14,33.62v1.42h3.48v-1.42h-3.48ZM4.14,36.04v1.41h3.48v-1.41h-3.48ZM7.62,39.96v-1.49h-3.48v1.49h3.48Z"/>
        <path d="M10.39,39.27c.81-1.51,1.66-3.7,1.99-5.27l1.06.26c-.42,1.8-1.29,3.94-2.1,5.51l-.96-.51ZM14.06,40.29c.6-.03.71-.2.71-.76v-7.31l1.11.04v7.61c0,1.19-.37,1.44-1.56,1.53l-1.03.06-.36-1.13,1.14-.05ZM17.71,33.94c.64,1.33,1.96,4.13,2.48,5.42l-1.04.55c-.56-1.43-1.72-4.08-2.42-5.54l.98-.43Z"/>
        <path d="M21.19,41.13c.51-.71.95-1.71,1.2-2.38l.92.38c-.27.81-.8,1.87-1.19,2.54l-.93-.54ZM29.37,38.59h-7.03v-3.64h2.71v-2.9l1.06.04v.86h3.91v1.06h-3.91v.93h3.26v3.64ZM28.34,36.01h-4.99v1.55h4.99v-1.55ZM24.9,39.01c.2.65.4,1.62.45,2.18l-1,.25c-.07-.72-.25-1.6-.41-2.23l.96-.2ZM27.04,38.92c.31.59.62,1.55.76,2.12l-.94.33c-.12-.62-.44-1.5-.73-2.16l.91-.28ZM29.17,38.72c.22.35.44.74.66,1.15.22.41.41.77.57,1.09l-.89.6c-.25-.65-.79-1.69-1.23-2.4l.89-.43Z"/>
        <path d="M34.84,37.77c-.2-.31-.47-.71-.76-1.05v4.83h-.97v-4.39c-.31.72-.69,1.39-1.06,1.91l-.62-.75c.63-.96,1.23-2.21,1.62-3.45h-1.11v-1.01h1.17v-1.88l.97.04v1.83h1.12v1.01h-1.12v.9l.17-.16c.34.34.93,1.08,1.24,1.48l-.65.69ZM38.34,40.17h2.49v1h-6.03v-1h2.55v-1.48h-1.89v-.98h1.89v-1.33h-1.69v-.52c-.16.14-.34.27-.52.41l-.54-.88c1.25-.93,2.14-1.93,2.82-3.46h.82c.67,1.43,1.8,2.65,3.04,3.53l-.52.88c-.26-.2-.51-.4-.75-.61v.64h-1.68v1.33h1.86v.98h-1.86v1.48ZM36.17,35.41h3.46c-.79-.75-1.41-1.51-1.78-2.34-.43.93-.96,1.66-1.68,2.34Z"/>
        <path d="M47.5,39.75v.78h3.33v.83h-7.58v-.83h3.26v-.78h-1.71v-.81c-.64.47-1.4.89-2.29,1.3l-.38-.94c1.14-.42,2.09-.92,2.73-1.55h-2.28v-.79h2.66v-.5h-1.83v-.76h1.83v-.48h-1.91v-.8h1.91v-.56l.92.04v.52h1.75v-.56l.92.04v.52h1.9v.8h-1.9v.48h1.82v.76h-1.82v.5h2.64v.79h-2.37c.63.56,1.67,1.08,2.84,1.49l-.42.9c-.84-.37-1.59-.74-2.24-1.19v.81h-1.77ZM43.76,34.34h-.97v-1.51h3.72c-.07-.24-.15-.48-.23-.73l1.07-.16c.12.3.2.56.29.89h3.61v1.51h-.97v-.73h-6.52v.73ZM46.5,38.9v-.72l.99.04v.67h1.71c-.49-.35-.9-.73-1.24-1.15h-1.9c-.33.41-.73.8-1.2,1.15h1.64ZM46.16,35.7h1.75v-.48h-1.75v.48ZM46.16,36.96h1.75v-.5h-1.75v.5Z"/>
        <path d="M58.36,35.14c.89,1.69,2.19,3.06,4.08,4.38l-.61,1.12c-1.53-1.15-2.78-2.37-3.71-3.86v4.78h-1.06v-4.8c-.93,1.49-2.13,2.73-3.65,3.94l-.69-1.08c1.82-1.33,3.18-2.83,4.08-4.48h-3.48v-1.08h3.73v-2.06l1.06.04v2.01h2.04c-.37-.42-.98-1.02-1.41-1.36l.65-.72c.41.31,1.05.9,1.44,1.32l-.63.76h1.69v1.08h-3.53Z"/>
      </g>
      <path class="cls-1" d="M38.79,5.83l-5.1-3.3s2.9-3.8,10.5-.3c7.6,3.5,6.3,8,6.3,8l-5.2-1.2-5.7,10.4s-.3.8.7,1.3c.4.3,1.9.9,2.1,1,.9.4,1.8,1.8.3,2.5-2.3,1.1-9.5,3.8-9.5,3.8,0,0-2.1.9-3-1.3-.9-2.2-2.9-9.2-2.9-9.2,0,0-.3-2.5,2.2-1.6l2.5,1.3s.9.6,1.6-.6c.9-1.5,5.3-10.8,5.2-10.8h0Z"/>
    </g>
  </g>
</svg>