<?xml version="1.0" encoding="UTF-8"?>
<svg id="Layer_2" data-name="Layer 2" xmlns="http://www.w3.org/2000/svg" viewBox="0 0 65.94 47.61">
  <defs>
    <style>
      .cls-1 {
        fill: #fff;
      }
    </style>
  </defs>
  <g id="Layer_5" data-name="Layer 5">
    <g>
      <path class="cls-1" d="M15.86,17.11c-.58.72-1.23,1.4-1.72,1.84-1.02.9-1.86,1.13-2.4.8-.55-.33-.82-1.12-.52-2.21.31-1.07.77-2.46,2.41-5.17l3.42-5.67-7.15-4.32-3.04,5.04c-1.35,2.23-3.19,4.11-5.95,5.75l-.9-1.57c2.69-1.57,4.08-3.03,5.39-5.2L9.25,0l10.19,6.15-3.84,6.37c-1.28,2.13-1.81,3.13-2.18,3.92-.36.77-.45,1.09-.28,1.2s.4-.1.84-.56c.4-.41.71-.75,1.16-1.32l.72,1.36ZM15.76,7.82c-1.41.91-2.94,1.76-4.52,2.57.1,2.1.16,4.16.13,5.63l-1.83.32c.03-1.41,0-3.24-.05-5.12-1.77.8-3.53,1.46-5.2,1.95l-.55-1.7c1.82-.5,3.76-1.24,5.69-2.12-.05-2.03-.17-3.93-.32-5.22l1.66-.2c.13,1.15.27,2.79.36,4.59,1.35-.7,2.61-1.43,3.82-2.22l.8,1.49Z"/>
      <path class="cls-1" d="M19.35,20.86l-.42-.17.45-1.79.45.19c.89.37,1.14.37,1.7-.55.48-.8.85-2.01.78-3.67l3.26-3.06-1.5-.9-7.15,11.85-1.39-.84,8.04-13.32,4.19,2.53-.89,1.48-2.43,2.19c2.78-.25,5.11-1.04,7.13-2.45l1.25.75c-.27,2.64.31,5.28,1.48,8.07l-1.61.65c-.27-.67-.53-1.33-.72-2.01l-.66,1.09-5.93-3.58.58-.96c-.49.11-.95.18-1.46.23l-.14-1.72-.56.51c0,1.77-.36,3.15-1.11,4.38-1.05,1.74-1.72,1.74-3.33,1.1ZM31.59,22.27c-1.2,1.15-3.11,2.79-4.5,3.87l2.28,1.38-.88,1.46-8.96-5.41.88-1.46,5.12,3.09c1.66-1.25,3.65-2.91,4.98-4.21l1.08,1.28ZM25.55,17.93c-.27,1.29-.85,3.63-1.28,5.01l-1.7-.22c.54-1.36,1.21-3.88,1.43-5.09l1.54.3ZM25.33,23.6c.48-1.25,1.08-3.43,1.31-4.65l1.52.37c-.2,1.16-.79,3.3-1.23,4.51l-1.61-.23ZM26.77,16.19l5.03,3.03c-.48-1.72-.71-3.33-.57-4.84-1.31.81-2.79,1.41-4.46,1.81Z"/>
      <path class="cls-1" d="M50.97,25.07l-8.08,13.38-1.54-.93.41-.68-8.87-5.35-.41.68-1.56-.94,8.08-13.38,11.96,7.22ZM42.67,35.35l5.83-9.67-8.87-5.35-5.83,9.67,8.87,5.35ZM42.36,27.19c-.11.08-.18.19-.26.29l-.18.19c.42,1.43,1.03,4.05,1.28,5.4l-1.75.85c-.17-1.28-.6-3.43-.99-5.01-1.34.87-2.98,1.31-5.23,1.38v-1.9c2.76.05,4.31-.44,5.65-2.09l-2.93-1.77.89-1.48,3.02,1.82c.56-.82,1.09-1.67,1.28-1.98l1.52,1c-.31.51-.77,1.21-1.26,1.91l3.07,1.85-.89,1.48-3.22-1.94Z"/>
      <path class="cls-1" d="M51.22,40.57c-1.59-.01-3.57-.14-5.29-.4l.16-1.63c1.63.33,3.63.51,5.18.41l-.05,1.61ZM64.29,38.93l-.68,1.12-3.59-2.17.15,1.31c-2.67,0-4.57-.09-6.38-.44l4.26,2.32-.4-1.02,1.31-.36c.52,1.09,1.23,3.16,1.52,4.24l-1.32.51c-.11-.38-.26-.79-.41-1.28-.74-.45-2.17-1.29-3.72-2.16l-1.07,1.77c-.79,1.31-1.28,1.25-2.85.53l-1-.48.38-1.67.92.43c.82.39,1.05.46,1.39-.11l.79-1.31c-1.55-.88-2.96-1.68-3.77-2.11l-1.47-.76.54-1.35c.45.27,1.16.66,1.72.85,1.13.35,2.46.56,3.81.7-1-.58-2.07-1.21-2.7-1.52-.35-.15-.88-.46-1.23-.62l.46-1.21c.76.38,1.03.45,1.33.48.56.09,1.54.13,2.54.12l-4.56-2.75.68-1.12,5.92,3.57.47-.79-4.59-2.77.68-1.12,4.59,2.77.46-.77-5.26-3.17.7-1.16,5.26,3.17.6-1,1.46.96-.57.94,5.27,3.18-.7,1.16-5.27-3.18-.47.77,4.56,2.75-.68,1.13-4.56-2.75-.47.79,5.94,3.58ZM59.64,37.67l-3.45-2.08.11.55c-.69.03-1.34,0-1.98-.06.81.43,2.03,1.16,2.88,1.61.91.02,1.76.01,2.45-.02ZM56.54,42.08c.92,1.29,2.19,3.28,3.02,4.62l-1.31.91c-.74-1.22-2.05-3.36-3.1-4.67l1.39-.87Z"/>
    </g>
  </g>
</svg>