<?xml version="1.0" encoding="UTF-8"?>
<svg id="Layer_2" data-name="Layer 2" xmlns="http://www.w3.org/2000/svg" viewBox="0 0 68.84 41.61">
  <g id="Layer_5" data-name="Layer 5">
    <g>
      <g>
        <path d="M4.79,38.15c-1.12.29-3.01.74-4.54,1.08l-.25-1.36c.55-.13,1.18-.25,1.81-.41v-5.9H.36v-1.4h4.36v1.4h-1.57v5.59c.57-.15,1.11-.27,1.51-.38l.06.7.07.67ZM12.69,37.66c0,.45-.04,1.37-.11,2.05-.11.95-.36,1.27-1.37,1.34-.21.01-.43.01-.64,0-.88-.06-1.32-.39-1.32-1.44v-3.14l-.69.49c-.42-.83-1.37-2.51-1.96-3.47v.7c0,3.96-.35,5.39-1.99,7.3l-1.22-.77c1.64-1.99,1.85-2.8,1.85-6.53v-4.8h5.31v9.74c0,.32.08.5.25.53.1.01.21.01.31,0,.18-.04.24-.15.28-.56.06-.46.1-1.15.11-1.86l1.19.43ZM7.41,32.48c.41.63,1.28,2.04,1.83,3.04v-4.68h-2.65v2.16l.81-.52Z"/>
        <path d="M23.3,38.4c.6.91,1.64,1.5,3.33,1.88l-.29,1.27c-1.75-.46-3.01-1.2-3.77-2.25-.56.97-1.65,1.69-3.71,2.27l-.35-1.11c-.18.45-.57.62-1.25.67l-.57.06-.41-1.26.55-.06c.43-.04.57-.14.57-.57v-2.27h-1.23c-.15,1.93-.52,3.05-1.08,4.2l-1.21-.46c.79-1.61,1.13-2.42,1.13-6.18v-5.25h3.59v10.44c0,.2-.01.36-.04.5,1.81-.52,2.7-1.08,3.08-1.88h-2.75v-1.11h3v-.14c.01-.15.01-.38.01-.6h-2.38v-4.5h6.08v4.5h-2.49c0,.22,0,.46-.01.63v.11h3.17v1.11h-2.97ZM16.23,30.61v1.98h1.18v-1.98h-1.18ZM17.4,35.75v-1.88h-1.18v1.88h1.18ZM20.56,31.09h-1.5v-1.16h1.5v-1.27l1.16.06v1.22h1.6v-1.27l1.15.06v1.22h1.78v1.16h-1.78v.76h-1.15v-.76h-1.6v.76h-1.16v-.76ZM20.65,33.08v.73h3.84v-.73h-3.84ZM20.65,35.53h3.84v-.78h-3.84v.78Z"/>
        <path d="M32.2,35.43c-.27.11-.62.22-1,.38v3.91c0,1.2-.35,1.42-1.71,1.53l-.56.06-.41-1.3.63-.06c.69-.07.77-.14.77-.64v-3.03c-.6.21-1.16.41-1.6.53l-.27-1.32c.5-.15,1.18-.36,1.86-.63v-2.42h-1.46v-1.3h1.46v-2.35l1.27.06v2.3h1.3v1.3h-1.3v1.96c.34-.15.66-.27.94-.38l.06,1.42ZM39.96,41.47c-1.12-.62-2.21-1.18-3.29-1.67-1.02.66-2.45,1.18-4.64,1.68l-.41-1.33c1.62-.34,2.73-.66,3.57-1.01-.78-.34-1.55-.66-2.31-.97.27-.43.49-.91.76-1.42h-1.54v-1.22h2.07c.18-.45.34-.88.46-1.27h-2.34v-1.23h1.83c-.1-.6-.2-1.36-.29-1.9h-1.11v-1.22h2.9c-.13-.41-.25-.8-.35-1.06l1.36-.17c.11.28.28.74.43,1.23h2.96v1.22h-1.19l-.34,1.9h2.03v1.23h-5.71l1.12.28c-.11.32-.24.64-.39.99h4.82v1.22h-1.37c-.35.85-.73,1.53-1.25,2.13.97.43,1.96.9,2.84,1.33l-.63,1.25ZM36.5,38.36c.49-.43.79-.94,1.08-1.6h-2.56c-.15.32-.29.6-.42.83.53.2,1.16.45,1.9.77ZM35.09,31.13c.1.56.21,1.33.31,1.9h1.83c.13-.6.24-1.33.34-1.9h-2.48Z"/>
        <path d="M46.82,31.98h1.19v7.98c0,.83-.27,1.08-1.18,1.19l-.48.06-.38-1.16.41-.04c.39-.04.49-.13.49-.48v-1.55h-.81v2h-1.09v-2h-.9c-.11,1.41-.46,2.2-.91,3.24l-1.13-.34c.67-1.61.99-2.4.99-5.28v-2.52l-.34.35-.67-1.09c1.23-1.23,1.89-2.47,2.39-3.87l1.26.24c-.13.35-.25.66-.38.95h2.3v1.18l-.77,1.15ZM44.68,30.85c-.22.39-.48.76-.74,1.13h1.51l.78-1.13h-1.55ZM44.14,33.09v1.36h.83v-1.36h-.83ZM44.97,36.87v-1.3h-.83v1.3h.83ZM46.88,33.09h-.81v1.36h.81v-1.36ZM46.88,36.87v-1.3h-.81v1.3h.81ZM53.81,41.22c-.07-.31-.17-.66-.28-1.04-1.64.17-3.31.29-5.15.45l-.11-1.33c.78-.04,1.57-.06,2.35-.11v-2.9h-1.98v-5.48h1.98v-2.24l1.25.06v2.19h2.03v5.48h-2.03v2.82l1.3-.13c-.22-.67-.46-1.3-.64-1.74l1.09-.41c.38.98,1.05,2.83,1.28,3.87l-1.08.52ZM50.62,35.02v-2.97h-.88v2.97h.88ZM51.86,32.05v2.97h.91v-2.97h-.91Z"/>
        <path d="M60.41,39.42c-.22.14-1.62,1.16-2.34,1.65l-.66-1.01c.38-.22.36-.46.36-.84v-2.52h-1.25v-1.23h1.25v-1.46h-.76v-.87l-.31.46-.84-.85c.84-1.23,1.64-2.66,2.09-4.24l1.16.32c-.13.46-.31.94-.52,1.43h1.83v1.23h-2.42c-.24.43-.49.85-.76,1.29h2.94v1.23h-1.19v1.46h1.33v1.23h-1.33v2.27l1.18-.8.22,1.25ZM68.84,38.76c-.01.38-.06.7-.1,1.08-.15,1.06-.31,1.27-1.46,1.34-.46.03-.94.03-1.4,0-.9-.04-1.29-.34-1.29-1.3v-1.84h-1.08v.03c-.07,1.82-.98,2.75-3.22,3.53l-.59-1.16c2.07-.64,2.45-1.32,2.52-2.35v-.04h-1.4v-4.3h6.77v4.3h-1.79v1.4c0,.49.13.53.56.59.22.03.45.03.69,0,.5-.07.56-.17.62-.56.04-.34.08-.7.1-1.08l1.08.36ZM62.01,30.75h-1.27v-1.02h2.93c-.1-.34-.21-.66-.32-1.01l1.29-.22c.13.34.29.8.42,1.23h3.08v1.02h-1.57l-.31,1.23h2.3v1.04h-8.19v-1.04h1.86l-.21-1.23ZM62.08,34.74v.67h4.23v-.67h-4.23ZM62.08,37.04h4.23v-.69h-4.23v.69ZM65.08,31.98c.1-.41.21-.83.28-1.23h-2.12l.22,1.23h1.61Z"/>
      </g>
      <g id="f30c7K">
        <path d="M22.68,6.51c-1,1.1-2,2.1-2.9,3.2-2.3,3.1-3.5,6.6-3.7,10.5v.3c-.1,1-.5,1.5-1.2,1.5s-1.1-.6-1-1.5c.4-8.2,4.1-14.4,11.4-18.1,12.8-6.6,27.8,1,30.3,15.2.2,1,.2,2.1.3,3.1,0,.8-.2,1.3-1.1,1.4-.7,0-1.1-.4-1.1-1.3-.1-3.7-1.1-7.2-3.3-10.2-1-1.3-2.1-2.5-3.3-4-1.1,2.7-3.2,3.6-5.4,4.2-4.7,1.3-9.5,1.3-14.2-.2-2.4-.9-3.4-1.8-4.8-4.1h0ZM40.48,4.01c0-.7-.7-1-1.3-1.2-2.2-.7-4.4-.7-6.6-.4-.8.1-1.6.3-2.4.6-.6.2-1.1.7-.8,1.4.2.7.8.9,1.5.7,2.8-.7,5.5-.8,8.2,0,.8.3,1.4-.3,1.4-1.1h0Z"/>
      </g>
    </g>
  </g>
</svg>