<?xml version="1.0" encoding="UTF-8"?>
<svg id="Layer_2" data-name="Layer 2" xmlns="http://www.w3.org/2000/svg" viewBox="0 0 34.73 30.21">
  <defs>
    <style>
      .cls-1 {
        fill: #fff;
      }
    </style>
  </defs>
  <g id="Layer_5" data-name="Layer 5">
    <g>
      <path class="cls-1" d="M8.15,16.11l.55.8,4.29-2.94,3.26,4.75-4.29,2.94.53.77,4.56-3.12.72,1.06-4.56,3.12.57.83,5.5-3.76.76,1.11-12.46,8.54-.76-1.11,5.5-3.76-.57-.83-4.55,3.11-.72-1.06,4.55-3.11-.53-.77-4.28,2.93-3.26-4.75,4.28-2.93-.55-.8-5.82,3.99-.76-1.11,5.82-3.99-.6-.88c-1.63,1.22-3.21,2.38-4.39,3.21l-.92-1.22c2.81-1.99,7.42-5.45,10.05-7.54l1,1.17c-1.09.86-2.65,2.03-4.3,3.31l.64.94,5.84-4,.76,1.11-5.84,4ZM5.14,20.92l.54.79,2.82-1.93-.54-.79-2.82,1.93ZM9.73,21.57l-.53-.77-2.82,1.93.53.77,2.82-1.93ZM9.44,17.98l.54.79,2.82-1.93-.54-.79-2.82,1.93ZM14.03,18.63l-.53-.77-2.82,1.93.53.77,2.82-1.93Z"/>
      <path class="cls-1" d="M19.82,11.83c2.53,3.7,2.96,5.59,3.21,8.45l-1.76.14c-.3-2.98-.7-4.39-3.19-8.03l-3.06-4.47,5.36-3.67c-.39-.32-.74-.61-1.18-.89l1.31-1.27c.5.35.95.66,1.47,1.06l4.59-3.14.9,1.31-10.12,6.93.83,1.22,1.9-1.3-.67-.98,1.47-.92.63.92,3.12-2.14-.67-.98,1.48-.93.63.92,2.18-1.5.85,1.25-2.18,1.5,1.44,2.11-5.99,4.1-1.44-2.11-1.9,1.3.77,1.13ZM34.73,12.13c-2.47,1.15-4.39,1.87-6.25,2.21-.96,1.5-2.22,3.07-3.94,4.88l-1.52-.97c1.43-1.35,2.51-2.55,3.38-3.69-1.01.02-2.03-.07-3.14-.28l.25-.81-1.35.93-.79-1.16,8.5-5.82.8,1.17c-.14,1.3-.49,2.54-1.14,3.88,1.33-.45,2.78-1.1,4.64-2.09l.56,1.74ZM22.37,8.42l.63.92,3.12-2.14-.63-.92-3.12,2.14ZM24.34,12.92c1.06.17,2.05.21,3.15.05.65-1.08,1.05-2.07,1.23-3.05l-4.38,3Z"/>
    </g>
  </g>
</svg>