<?xml version="1.0" encoding="UTF-8"?>
<svg id="Layer_2" data-name="Layer 2" xmlns="http://www.w3.org/2000/svg" viewBox="0 0 50.83 57.09">
  <defs>
    <style>
      .cls-1 {
        stroke: #000;
        stroke-miterlimit: 10;
        stroke-width: .25px;
      }
    </style>
  </defs>
  <g id="Layer_5" data-name="Layer 5">
    <g>
      <g id="WiJ8ZH">
        <g>
          <path class="cls-1" d="M44.79,3.63c-1.73,0-3.46,0-5.19,0-1.19,0-2.41-.19-2.47-1.61-.07-1.51,1.16-1.87,2.43-1.88,2.91-.02,5.83-.08,8.74.06.79.04,1.79.57,2.22,1.2.27.39-.18,1.53-.62,2.09-1.94,2.48-4,4.86-6.01,7.28-.35.42-.68.87-1.4,1.78,2.25,0,3.97.02,5.68,0,1.27-.02,2.53.21,2.52,1.72,0,1.51-1.25,1.73-2.53,1.72-2.91-.03-5.83.06-8.74-.06-.75-.03-1.76-.51-2.11-1.1-.26-.45.14-1.56.58-2.11,2.3-2.91,4.71-5.74,7.09-8.6-.07-.17-.13-.33-.2-.5Z"/>
          <path class="cls-1" d="M26.77,16c-2.22,0-3.89-.01-5.57,0-1.26.01-2.55-.17-2.6-1.67-.05-1.51,1.21-1.78,2.49-1.77,2.92,0,5.83-.07,8.74.04.75.03,1.84.49,2.11,1.06.26.55-.16,1.65-.62,2.25-1.74,2.26-3.63,4.41-5.45,6.61-.51.61-.99,1.25-1.72,2.16.84.11,1.32.21,1.8.22,1.46.03,2.95-.16,4.36.1.72.13,1.3,1.03,1.95,1.58-.62.57-1.22,1.61-1.87,1.64-3.31.17-6.64.15-9.96.05-1.78-.05-2.39-1.52-1.27-2.93,2.03-2.55,4.15-5.04,6.23-7.56.36-.44.69-.89,1.4-1.8Z"/>
          <path class="cls-1" d="M5.51,37.3c1.29,0,2.07,0,2.84,0,1.11,0,2.22-.03,3.32.01,1.1.04,1.98.44,1.93,1.74-.04,1.18-.83,1.6-1.89,1.61-3.21.02-6.42.06-9.62-.03-.63-.02-1.55-.5-1.78-1.01-.23-.53.01-1.53.41-2.04,1.98-2.52,4.07-4.95,6.12-7.42.36-.44.7-.9,1.26-1.63-.78-.09-1.25-.18-1.73-.19-1.28-.02-2.57-.02-3.85-.01-1.2.01-2.37-.18-2.41-1.64-.04-1.62,1.22-1.75,2.46-1.75.64,0,1.28,0,1.92,0,2.27,0,4.55-.07,6.82.05.72.04,1.82.42,2.01.93.24.64-.05,1.73-.51,2.32-1.89,2.44-3.93,4.77-5.91,7.14-.39.47-.73.98-1.43,1.93Z"/>
        </g>
      </g>
      <g>
        <path d="M19,45.02h3.46v10.95h-3.46v-10.95ZM20.16,46.35v1.93h1.18v-1.93h-1.18ZM21.34,51.41v-1.81h-1.18v1.81h1.18ZM21.34,54.7v-2h-1.18v2h1.18ZM29.52,51.28v1.5h.98v1.19h-3.28v1.36h2.94v1.19h-6.99v-1.19h2.93v-1.36h-3.14v-1.19h.85v-1.5h-1.02v-1.22h1.02v-1.47h-.78v-1.2h3.07v-1.12l-2.76.17-.07-1.19c1.7-.07,4.89-.36,6.54-.63l.18,1.23c-.74.11-1.72.22-2.77.32v1.22h3.28v1.2h-.98v1.47h1.34v1.22h-1.34ZM24.9,50.06h1.21v-1.47h-1.21v1.47ZM26.1,52.78v-1.5h-1.21v1.5h1.21ZM27.22,48.59v1.47h1.21v-1.47h-1.21ZM28.43,51.28h-1.21v1.5h1.21v-1.5Z"/>
        <path d="M33.17,45.03h3.88v11.08h-3.88v-11.08ZM34.39,46.41v1.96h1.4v-1.96h-1.4ZM35.79,51.52v-1.86h-1.4v1.86h1.4ZM35.79,54.78v-1.99h-1.4v1.99h1.4ZM45.26,54.43c-.1.49-.17.92-.28,1.27-.32,1.01-.74,1.33-1.25,1.33-.56,0-1.25-.34-1.69-1.51-.29-.8-.55-1.82-.71-3.24h-2.09v2.87l1.98-.94.2,1.37c-.71.34-2.17,1.01-2.72,1.23-.17.1-.36.17-.53.27l-.56-1.23c.29-.18.39-.39.39-.74v-10.37h6.33v4.47h-1.98c.01.6.06,1.18.1,1.72h2.34v1.34h-2.2c.13.97.31,1.79.52,2.48.21.57.5.7.63.7s.25-.1.35-.55l.15-1.08,1.02.59ZM39.23,46.13v1.71h3.84v-1.71h-3.84ZM41.19,50.95c-.04-.55-.06-1.11-.1-1.72h-1.86v1.72h1.96Z"/>
      </g>
    </g>
  </g>
</svg>