<?xml version="1.0" encoding="UTF-8"?>
<svg id="Layer_2" data-name="Layer 2" xmlns="http://www.w3.org/2000/svg" viewBox="0 0 51.08 38.1">
  <defs>
    <style>
      .cls-1 {
        fill: #fff;
      }
    </style>
  </defs>
  <g id="Layer_5" data-name="Layer 5">
    <g>
      <path class="cls-1" d="M19.69,28.51l.88,1.45-13.42,8.14-.88-1.45,4.33-2.62-5.95-9.81-3.74,2.27-.91-1.49,12.25-7.44.91,1.49-3.76,2.28,4.18,6.9c-.08-2.12-.35-5.01-.78-6.84l1.85-.07c.32,1.81.7,5.11.75,7.13h-1.68s1.62,2.69,1.62,2.69l4.34-2.63ZM3.12,27.3c1.8,1.03,4.26,2.79,5.7,3.87l-.77,1.75c-1.65-1.33-4.08-3.04-5.83-4.06l.91-1.56ZM12.15,33.09l1.65-1-5.95-9.81-1.65,1,5.95,9.81Z"/>
      <path class="cls-1" d="M31.65,15.01c-1.09-.03-2.07-.15-3.02-.32.7,1.32,2.44,4.69,3.07,5.99.8,1.77.45,2.55-1.32,3.79l-1.31.92-1.43-1.28,1.34-.94c1.15-.81,1.3-1.08.78-2.22-.44-.83-1.64-3.22-1.89-3.74l-3.85,2.33.39.75c1.54,2.81,1.56,4.89-.53,8.85l-1.96-.56c2.05-3.43,1.96-4.92.85-7.32-.13-.32-.25-.55-.35-.75l-2.02,1.22-.68-1.12c-.2.61-.41,1.24-.65,1.87l-1.7-.82c1.18-2.82,1.71-5.93,1.32-8.79l1.83-.31c.36,2.56.12,4.88-.59,7.35l8.65-5.25c-2.47-.46-4.57-1.4-6.86-3.21l1.11-1.39c2.62,2.1,5.16,2.87,8.76,2.94l.05,1.99Z"/>
      <path class="cls-1" d="M33.53,13.27c1.64-1.77,2.93-3.61,3.71-5.41l-4.54,2.76-.78-1.29,3.12-1.9c-.99-.24-2.57-.56-3.49-.68l.29-1.57c1.01.06,2.79.37,3.75.63l-.17,1.39,1.82-1.1-1.94-3.2,1.55-.85,1.91,3.14,1.8-1.09-1.21-.36c.37-1.06.83-2.76,1.03-3.72l1.64.35c-.21.87-.66,2.34-1,3.45l3.11-1.89.78,1.29-5.37,3.26,1.56,2.57-1.51.92-.85-1.4c-.78,1.88-1.92,3.54-3.8,5.93l-1.41-1.21ZM43.05,11.6c1.66.62,4.23.55,7.41-.73l.61,1.91c-3.5,1.03-6.2,1.34-8.27.57-.15,2.01-1.74,4.17-4.55,7.08l-1.41-1.29c2.78-2.51,4.08-4.58,4.07-6.24l-4.96,3.01-.81-1.34,5.28-3.2-.59-.97,1.59-.88.55.91,5.33-3.23.81,1.34-5.06,3.07ZM40.18,6.31c1.63-.25,4.9-.95,6.5-1.19l.41,1.69c-1.76.16-4.8.72-6.55,1.01l-.37-1.5Z"/>
    </g>
  </g>
</svg>