<?xml version="1.0" encoding="UTF-8"?>
<svg id="Layer_2" data-name="Layer 2" xmlns="http://www.w3.org/2000/svg" viewBox="0 0 54.55 49.84">
  <defs>
    <style>
      .cls-1 {
        stroke-width: .75px;
      }

      .cls-1, .cls-2, .cls-3, .cls-4 {
        fill: none;
        stroke: #000;
        stroke-linecap: round;
        stroke-linejoin: round;
      }

      .cls-2, .cls-4 {
        stroke-width: .25px;
      }

      .cls-3 {
        stroke-width: 3px;
      }

      .cls-4 {
        stroke-dasharray: 2.02 2.02;
      }
    </style>
  </defs>
  <g id="Layer_5" data-name="Layer 5">
    <g>
      <circle cx="27.36" cy="5.35" r="4.94"/>
      <path class="cls-3" d="M3.56,15.17s20.87-30.76,47.59,0c0,0-22.9,31.26-47.59,0Z"/>
      <g>
        <path class="cls-2" d="M6.72,13.08s.2.3.58.81"/>
        <path class="cls-4" d="M8.59,15.45c4.85,5.51,18.84,17.42,38.04-.53"/>
        <path class="cls-2" d="M47.36,14.23c.24-.23.47-.46.71-.7"/>
      </g>
      <line class="cls-1" x1="27.36" y1="17.02" x2="27.36" y2="23.95"/>
      <line class="cls-1" x1="26.13" y1="24.36" x2="28.58" y2="24.36"/>
      <g>
        <line class="cls-1" x1="27.4" y1="30.96" x2="27.4" y2="34.7"/>
        <line class="cls-1" x1="26.17" y1="30.96" x2="28.62" y2="30.96"/>
      </g>
      <path class="cls-3" d="M16.6,4.91c0,5.94,4.81,10.75,10.75,10.75s10.75-4.81,10.75-10.75"/>
      <g>
        <path d="M.84,40.43c.71.49,1.92,1.43,2.48,1.99l-.77,1.34c-.63-.67-1.88-1.74-2.55-2.19l.84-1.15ZM.25,49.17c.28-.67,1.51-3.95,1.74-4.73l1.33.55c-.28.83-1.43,4.09-1.71,4.72l-1.36-.53ZM1.5,37.3c.66.41,1.83,1.26,2.4,1.82l-.77,1.26c-.59-.59-1.74-1.54-2.41-1.99l.78-1.09ZM11.56,37.79v11.88h-1.43v-.69h-4.62v.73h-1.43v-11.92h7.48ZM5.5,39.18v1.89h4.62v-1.89h-4.62ZM5.5,42.4v1.88h4.62v-1.88h-4.62ZM10.13,47.61v-1.98h-4.62v1.98h4.62Z"/>
        <path d="M14.78,40.3c.67.45,1.86,1.34,2.58,1.95l-.76,1.26c-.74-.63-1.93-1.61-2.61-2.06l.78-1.15ZM14.29,49.14c.28-.67,1.48-4.17,1.65-4.9l1.36.48c-.17.77-1.39,4.36-1.62,4.9l-1.39-.48ZM15.5,37.18c.64.42,1.93,1.36,2.52,1.88l-.8,1.27c-.55-.55-1.88-1.58-2.51-1.99l.79-1.16ZM26.51,39.26h-1.19v8.4c0,1.54-.42,1.86-2.12,2.02l-1.05.08-.41-1.4,1.12-.08c.9-.07,1.04-.14,1.04-1.01v-8.01h-5.76v-1.32h8.36v1.32ZM22.64,46.52h-4.36v-5.7h4.36v5.7ZM21.37,42.09h-1.77v3.12h1.77v-3.12Z"/>
        <path d="M40.45,38.17v1.12h-12.19v-1.12h5.41c-.07-.29-.17-.6-.29-.94l1.4-.24c.13.32.27.74.39,1.18h5.28ZM29.11,43.61h10.53v4.43c0,1.15-.38,1.44-1.67,1.6l-.76.1-.42-1.22.69-.08c.71-.07.78-.18.78-.74v-3.03h-7.82v5.07h-1.34v-6.12ZM38.53,40.03v2.82h-8.33v-2.82h8.33ZM37.15,41.01h-5.59v.84h5.59v-.84ZM37.12,48.34h-5.52v-2.96h5.52v2.96ZM35.8,46.43h-2.87v.85h2.87v-.85Z"/>
        <path d="M44.7,43c0,3.49-.56,4.89-1.65,6.84l-1.19-.69c1.12-2.05,1.48-3.12,1.48-6.56v-4.22h5.06c-.11-.38-.21-.71-.36-1.09l1.4-.24c.17.45.32.84.48,1.33h4.33v1.23h-9.54v1.15h1.79v-.92l1.34.06v.87h2.94v-.92l1.36.06v.87h2.06v1.18h-2.06v1.99h-5.65v-1.99h-1.79v1.06ZM54.14,49.75c-2.09-.35-3.64-.73-4.99-1.33-1.28.55-2.77.99-4.68,1.4l-.55-1.29c1.51-.24,2.73-.53,3.8-.88-.66-.43-1.28-.94-1.89-1.55l.52-.41h-1.27v-1.09h8.01v1.11c-.66.77-1.43,1.42-2.44,1.99,1.05.29,2.27.52,3.89.7l-.41,1.36ZM47.13,45.69c.6.57,1.22,1.04,2,1.41.9-.41,1.58-.87,2.13-1.41h-4.13ZM47.84,41.94v.87h2.94v-.87h-2.94Z"/>
      </g>
    </g>
  </g>
</svg>