<?xml version="1.0" encoding="UTF-8"?>
<svg id="Layer_2" data-name="Layer 2" xmlns="http://www.w3.org/2000/svg" viewBox="0 0 34 24.27">
  <defs>
    <style>
      .cls-1 {
        fill: #fff;
      }
    </style>
  </defs>
  <g id="Layer_5" data-name="Layer 5">
    <g>
      <path class="cls-1" d="M16.55,12.46c-.48-.98-.83-1.91-1.12-2.82-.85,1.23-3.02,4.34-3.89,5.5-1.2,1.53-2.05,1.58-3.97.59l-1.43-.74.47-1.86,1.46.75c1.25.65,1.56.65,2.33-.34.53-.77,2.09-2.94,2.44-3.41l-3.85-2.33-.48.7c-1.78,2.67-3.61,3.65-8.08,3.64l-.42-2c3.99.22,5.27-.54,6.87-2.64.22-.26.37-.47.5-.66l-2.02-1.22.68-1.12c-.63.1-1.28.21-1.96.29l-.06-1.89c3.04-.27,6.04-1.23,8.4-2.9l1.12,1.48c-2.11,1.5-4.27,2.37-6.79,2.89l8.66,5.23c-.74-2.4-.89-4.7-.34-7.56l1.75.34c-.64,3.29-.15,5.9,1.46,9.12l-1.74.97Z"/>
      <path class="cls-1" d="M20.95,20.27c-.44.07-2.6.55-3.92.85l-.26-1.63c.48-.07.64-.33.9-.76l3.12-5.16-1.45-.88.94-1.56,2.93,1.77-3.62,6,1.75-.35-.39,1.72ZM30.46,23.69c-3.52.84-7.23.77-11.55-.3l.27-2.01c4.28,1.24,7.59,1.32,11.02.55l.26,1.76ZM30.2,20.28c-2.55.64-5.4.76-8.49.3l.21-1.78c3.02.56,5.81.44,8.12-.04l.15,1.52ZM30.07,17.3c-2.26.55-4.51.6-7.04.34l.19-1.63c2.36.23,4.48.1,6.74-.33l.11,1.62ZM23.56,12.05c.07-1.01-.05-3.19-.21-4.22l1.67-.21c.22,1.04.33,2.89.32,3.93l-1.78.5ZM32.33,20.37c-1.18-2.48-1.83-4.99-1.78-7.15-1.89.9-4.28,1.56-7.07,1.81l.02-1.88c2.82-.11,5.71-1.03,7.49-2.13l1.25.75c-.25,2.37.49,5.15,1.76,7.64l-1.67.95Z"/>
    </g>
  </g>
</svg>