<?xml version="1.0" encoding="UTF-8"?>
<svg id="Layer_2" data-name="Layer 2" xmlns="http://www.w3.org/2000/svg" viewBox="0 0 54.94 62.24">
  <defs>
    <style>
      .cls-1 {
        stroke: #000;
        stroke-miterlimit: 10;
        stroke-width: .5px;
      }
    </style>
  </defs>
  <g id="Layer_5" data-name="Layer 5">
    <g>
      <g id="_27aoYL" data-name="27aoYL">
        <g>
          <path class="cls-1" d="M35.07,2.77c0,.91.02,1.73,0,2.54-.02.53.19.69.7.69,1.52-.02,3.03.01,4.55-.02.59-.01.78.19.78.78-.01,10.8-.01,21.6,0,32.4,0,.6-.21.78-.79.78-8.35-.01-16.71-.02-25.06,0-.69,0-.84-.26-.84-.89.02-7.48.01-14.95.01-22.43,0-3.22.02-6.44-.02-9.66,0-.74.17-1.03.97-1,1.59.06,3.19,0,4.79.03.55.01.77-.16.74-.72-.04-.64.01-1.28,0-1.91-.01-.45.18-.61.62-.6.9.02,1.81-.01,2.71.01.45.01.7-.12.89-.58.51-1.25,1.49-1.94,2.84-1.95,1.35,0,2.36.63,2.89,1.88.22.52.5.66,1.02.65,1.03-.03,2.07,0,3.22,0ZM20.88,9c0-.39-.03-.68,0-.96.08-.66-.17-.9-.84-.87-1.12.05-2.23.01-3.35.02-1.08,0-1.09,0-1.09,1.09,0,9.76,0,19.53,0,29.29q0,1.18,1.16,1.18c7.34,0,14.69,0,22.03,0q1.09,0,1.09-1.08c0-8.57,0-17.13,0-25.7,0-1.33-.03-2.66.01-3.99.02-.66-.23-.83-.84-.8-1.04.04-2.08.05-3.11,0-.71-.04-.99.22-.88.91.12.74-.2.93-.93.93-4.1-.03-8.2-.02-12.29-.02-.29,0-.57,0-.97,0ZM33.84,4.05c-.16-.05-.23-.08-.31-.08-.88,0-1.76-.04-2.63,0-.65.03-1-.07-1.04-.87-.05-.97-.91-1.65-1.84-1.66-.97-.01-1.78.67-1.96,1.65-.05.26-.06.52-.1.86-.93,0-1.83,0-2.73,0-1.29,0-1.18-.15-1.18,1.22,0,.59.04,1.18-.01,1.75-.07.7.17.92.88.91,3.38-.03,6.76-.01,10.14-.02.25,0,.51-.03.78-.05v-3.71Z"/>
          <path class="cls-1" d="M44.05,39.59c-.19-1.13-1-1.88-.53-2.94.09-.2.02-.47.02-.71,0-4.04,0-8.09,0-12.13,0-.31,0-.62,0-.97h1.17c0,.32,0,.63,0,.94,0,4.1-.06,8.2.04,12.29.03,1.02-.02,1.96-.38,2.9-.05.14-.14.27-.32.64Z"/>
          <path class="cls-1" d="M43.61,20.07c1.18-.23,1.34.04.99,1.69h-.99v-1.69Z"/>
          <path class="cls-1" d="M19.76,27.64c-.21-1.07-.18-1.12.8-1.12,2.39,0,4.78,0,7.17,0,.4,0,.87-.15.89.57.01.69-.42.61-.85.61-2.44,0-4.89,0-7.33,0-.23,0-.47-.03-.68-.05Z"/>
          <path class="cls-1" d="M24.18,15.47c1.25,0,2.5.01,3.75,0,.44,0,.69.09.69.61,0,.55-.31.58-.72.58-2.53,0-5.05-.01-7.58,0-.44,0-.69-.08-.69-.61,0-.56.31-.58.72-.58,1.28,0,2.55,0,3.83,0h0Z"/>
          <path class="cls-1" d="M24.06,22.18c-1.17,0-2.34,0-3.51,0-.43,0-.94.15-.92-.61.02-.76.55-.58.96-.58,2.37-.01,4.73,0,7.1,0,.44,0,.93-.12.92.62,0,.71-.48.57-.88.57-1.22,0-2.45,0-3.67,0Z"/>
          <path class="cls-1" d="M24.15,32.05c1.25,0,2.5,0,3.75,0,.41,0,.71.04.71.59,0,.52-.26.61-.69.61-2.52,0-5.05,0-7.57,0-.42,0-.71-.05-.71-.59,0-.53.26-.61.69-.61,1.28.01,2.55,0,3.83,0Z"/>
          <path class="cls-1" d="M32.9,26.92c.68-.79,1.3-1.52,1.96-2.3.36.34.61.56.83.76-1.01,1-1.99,1.96-2.92,2.88-.59-.58-1.27-1.25-2.06-2.03.19-.15.43-.35.77-.63.42.39.83.77,1.42,1.32Z"/>
          <path class="cls-1" d="M34.95,13.64c.29.28.53.51.74.71-1.02.99-2,1.95-2.92,2.84-.59-.55-1.29-1.21-2.05-1.92.24-.23.48-.46.76-.73.42.4.81.76,1.3,1.23.71-.7,1.42-1.39,2.17-2.13Z"/>
          <path class="cls-1" d="M31.41,31.04c.55.53.92.87,1.44,1.37.62-.79,1.22-1.56,1.96-2.51.46.54.69.82.9,1.07-1.02,1.02-1.99,1.99-2.94,2.94-.66-.67-1.33-1.34-2.07-2.07.21-.24.45-.51.7-.8Z"/>
          <path class="cls-1" d="M34.86,19.08c.38.36.62.58.86.82-1.03.99-2.01,1.94-2.98,2.88-.59-.59-1.28-1.27-2.01-1.99.22-.21.46-.44.74-.7.45.41.85.78,1.37,1.26.68-.76,1.32-1.48,2.01-2.26Z"/>
        </g>
      </g>
      <g>
        <path d="M5.35,52.03c-.24.43-.49.84-.76,1.25h6.54v6.99c0,1.2-.46,1.53-1.75,1.64l-1.12.08-.41-1.3,1.06-.08c.74-.04.81-.1.81-.7v-.49h-5.73v2.47h-1.39v-6.14c-.57.6-1.22,1.19-1.93,1.78l-.69-1.37c1.44-1.13,2.73-2.51,3.74-4.12H.7v-1.3h3.75c.27-.55.48-1.08.66-1.62l1.43.32c-.17.45-.35.87-.53,1.3h6.64v1.3h-7.3ZM9.74,54.53h-5.73v1.2h5.73v-1.2ZM9.74,58.2v-1.27h-5.73v1.27h5.73Z"/>
        <path d="M19.06,60.93c-.34-.43-.76-.94-1.22-1.5-.78,1.02-1.75,1.92-2.93,2.82l-.84-1.16c1.23-.84,2.18-1.69,2.91-2.7-.55-.66-1.09-1.3-1.54-1.82l.91-.87c.43.46.88.97,1.37,1.51.29-.59.53-1.2.71-1.83l.98.35c-.55-.81-1.29-1.79-1.71-2.28l.94-.7c.6.64,1.72,2.21,2.28,3.03l-.97.81-.35-.56c-.27.83-.6,1.55-1,2.24.5.6.98,1.18,1.36,1.68l-.92.99ZM17.4,53.35c-.62,1.22-1.48,2.49-2.33,3.45l-.9-.87c.74-.81,1.54-2.13,2.1-3.22l1.12.64ZM20.65,52.65h-6.11v-1.4h2.47c-.11-.56-.35-1.26-.46-1.64l1.32-.17c.14.39.39,1.19.55,1.81h2.24v1.4ZM26.99,60.98l-.88,1.26c-1.13-.87-2.09-1.78-2.84-2.72-.74.91-1.72,1.82-2.94,2.72l-.92-1.19c1.36-.91,2.33-1.77,3.04-2.72-.6-1.01-1.04-2.07-1.3-3.31-.06.11-.13.22-.2.34l-.84-1.13c.79-1.25,1.61-3.4,1.91-4.93l1.36.17c-.17.71-.36,1.39-.58,2.02h3.84v1.4h-.95c-.27,2.24-.73,3.92-1.55,5.37.74.97,1.7,1.83,2.87,2.73ZM22.07,53.26c.22,1.41.63,2.65,1.22,3.73.57-1.18.85-2.47,1.06-4.1h-2.12l-.17.38Z"/>
        <path d="M29.12,52.12l1.44.06v9.68h-1.44v-9.74ZM31.36,52.42c-.45-.59-1.54-1.71-2.1-2.2l.88-1.04c.6.45,1.7,1.5,2.26,2.1l-1.04,1.13ZM37.25,53.29v5.72h-5.32v-5.72h5.32ZM37.62,60.48c.85-.04,1.01-.24,1.01-.98v-7.97h-5.88v-1.42h7.31v9.81c0,1.6-.35,1.89-1.85,2l-1.25.08-.43-1.47,1.09-.06ZM33.31,57.71h2.55v-3.15h-2.55v3.15Z"/>
        <path d="M49.51,58.53c.63-.04.74-.17.79-.57l.03-.39h-3.94v2.24c0,.71.18.87.84.88,1.28.06,2.51.07,3.78,0,.83-.04.95-.18,1.06-.8.04-.27.06-.5.1-.88l1.37.48c-.04.32-.07.53-.14.88-.25,1.13-.57,1.53-1.99,1.57-1.55.06-3.1.06-4.65,0-1.33-.04-1.78-.48-1.78-1.82v-2.17c-.6.46-1.26.94-2,1.4l-.73-1.3c1.49-.85,2.66-1.76,3.52-2.75h-3.04v-1.16h3.89c.22-.38.42-.73.59-1.12h-3.98v-1.19h2.31c-.39-.55-.85-1.13-1.26-1.62l.98-.67c.42.45,1.08,1.29,1.42,1.78l-.53.52h1.47c.21-.74.38-1.65.48-2.44l1.43.11c-.11.83-.27,1.6-.45,2.33h1.13c.55-.62,1.46-1.85,1.68-2.27l.97.66c-.24.35-.73,1.06-1.16,1.61h2.34v1.19h-5.34c-.15.39-.31.77-.48,1.12h6.32v1.16h-3.05c.84.9,1.96,1.58,3.46,2.16l-.57,1.36c-.95-.43-1.86-.99-2.69-1.65l-.06,1.13c-.07,1.11-.46,1.39-1.65,1.46l-1.15.08-.36-1.22,1.05-.08ZM50.85,56.42c-.35-.35-.67-.73-.94-1.12h-2.37c-.25.38-.55.74-.9,1.12h4.2Z"/>
      </g>
    </g>
  </g>
</svg>