<?xml version="1.0" encoding="UTF-8"?>
<svg id="Layer_2" data-name="Layer 2" xmlns="http://www.w3.org/2000/svg" viewBox="0 0 64.36 59.58">
  <defs>
    <style>
      .cls-1 {
        fill: none;
        stroke: #000;
        stroke-linecap: round;
        stroke-linejoin: round;
        stroke-width: .91px;
      }
    </style>
  </defs>
  <g id="Layer_5" data-name="Layer 5">
    <g>
      <g>
        <path d="M19.11,52.13v1.97c0,1.22-.35,1.48-1.58,1.6l-.92.08-.45-1.3.95-.08c.67-.04.77-.08.77-.69v-1.25c-.91.27-1.78.49-2.21.62l-.08-1.37c.41-.1,1.34-.31,2.3-.57v-1.37h-1.82v-1.3h1.82v-1.76l1.23.06v1.71h1.46v1.3h-1.46v1.05c.5-.15.94-.24,1.21-.34l.04.6.07.71-1.32.34ZM15.88,58.81c.62-.95,1.08-2.02,1.4-3.03l1.23.42c-.32,1.08-.85,2.27-1.4,3.21l-1.23-.6ZM20.67,56.01c.25.84.52,2.16.59,2.94l-1.3.31c-.1-.95-.31-2.13-.53-3.01l1.25-.24ZM26.26,55.68c.59.85,1.23,2.07,1.57,2.89l-1.15.74c-.36-.88-1.06-2.14-1.67-3.11l1.04-.62c-.35-.21-.67-.66-.88-1.54-.11-.53-.2-2.17-.2-3.29v-1.08h-1.62c-.01.84-.07,1.57-.18,2.19.73.39,1.39.78,1.88,1.08l-.6,1.3c-.45-.32-1.04-.69-1.65-1.06-.41,1.01-1.11,1.81-2.23,2.76l-1.12-.99c1.13-.83,1.81-1.5,2.2-2.41-.42-.24-.81-.45-1.19-.62l.56-1.15.98.48c.07-.45.11-.97.13-1.57h-1.19v-1.32h1.2v-1.64l1.22.06v1.58h2.84v2.34c0,1.08.07,2.17.11,2.73.06.49.25.69.38.69.15,0,.21-.18.31-.64.07-.32.11-.6.15-.94l.97.53c-.06.34-.18.92-.31,1.36-.28.91-.67,1.32-1.23,1.32-.13,0-.22-.01-.31-.06ZM23.5,55.75c.36.81.81,2.07.99,2.84l-1.25.48c-.2-.84-.6-2.06-.94-2.91l1.19-.41Z"/>
        <path d="M42.24,58.25l-.9,1.16c-.97-.83-1.78-1.72-2.42-2.68-.71.99-1.6,1.86-2.77,2.76l-.66-.9c-.27.35-.7.46-1.54.53l-.8.07-.38-1.06.85-.06c.74-.07.81-.15.92-.6.04-.11.07-.39.11-.6h-2.49c-.32,1.05-.92,1.79-1.89,2.7l-.88-.84c1.34-1.16,1.74-1.82,1.85-3.31,0-.04.01-.11.01-.18h-1.54v-.98h2.97c-.07-.24-.14-.43-.2-.59l1.19-.13.22.71h2.93v.98h-4.4l-.03.2-.04.42h3.54c-.07.45-.14,1.33-.18,1.89l-.04.31c1.11-.84,1.92-1.61,2.54-2.51-.5-.98-.87-2.04-1.11-3.21l-.21.38-.69-.63v1.67h-1.09v-.67h-1.3v.38h-1.13v-.38h-1.37v.71h-1.11v-4.29h2.48v-.67h-2.89v-.94h2.89v-1.32l1.13.06v1.26h1.19c-.22-.34-.59-.78-.77-.97l.83-.67c.2.22.76.95.94,1.2l-.5.43h1.39v.94h-3.07v.67h2.39v1.96c.79-1.44,1.3-3.07,1.68-4.99l1.19.2c-.17.77-.36,1.5-.57,2.21h3.32v1.2h-.83c-.22,2.3-.63,3.99-1.34,5.41.66.99,1.51,1.85,2.58,2.73ZM31.32,50.43v.49h1.37v-.49h-1.37ZM32.69,52.27v-.5h-1.37v.5h1.37ZM33.83,50.43v.49h1.3v-.49h-1.3ZM35.13,52.27v-.5h-1.3v.5h1.3ZM37.94,50.53c.14,1.4.48,2.65.99,3.74.49-1.12.76-2.41.92-4.16h-1.75l-.17.42Z"/>
      </g>
      <g>
        <g id="_7CRXi9" data-name="7CRXi9">
          <path d="M40.26,32.95c-1-.2-2.1-.6-2.9-1.4-.4-.4-.6-1-.7-1.6,0-.5.2-1,.5-1.4l-.2-.2c-.9-.9-.8-2.3,0-3.2.6-.6,1.5-.8,2.2-.5v-.5c0-.4.1-.8.3-1.1.1-.2.2-.3.3-.5.3-.3.6-.5,1-.6.2,0,.4-.1.6-.1.3,0,.6.1.9.2.2.1.4.2.6.3,0-.3.1-.5.3-.8.1-.2.2-.3.3-.5.3-.3.6-.5,1-.6.2,0,.4-.1.6-.1h.3c-1.3-4-5.3-7.6-11-7.9-7.8-.4-15.6-.8-23.4-1-2.9-.1-5.3,1-7.3,2.8C-.34,17.85-1.14,23.45,1.66,27.95c1.8,2.8,4.4,4.8,8.2,4.6,2.1-.1,4.3-.4,6.1-1.2,3.7-1.7,6.9-1.5,10.3.7,2.7,1.8,5.8,3,9.3,2.6,1.9-.2,3.7-.8,5.2-1.8-.1.2-.3.2-.5.1Z"/>
        </g>
        <g id="ToAuOY">
          <path d="M43.66,34.85c-.4-.2-.7-.3-1.1-.4-1.8-.7-3.5-1.4-5.3-2.1-1.9-.7-2.2-2.6-.8-4,0,0,.1-.1.1-.2-.7-.8-1-1.8-.5-2.8s1.5-1.4,2.7-1.2c0-1,.3-1.9,1.2-2.4s1.8-.3,2.7.2c0-.2.1-.3.1-.5.2-1.3,1.5-2,2.7-1.5,3.1,1.2,6.2,2.5,9.2,3.7,1.5.6,3,1.4,4.1,2.6,1.3,1.3,2.7,2.2,4.4,2.7.3.1.6.2.8.3.4.2.5.4.3.8,0,.1-.1.2-.1.3-1.2,3-2.4,6.1-3.6,9.1-.3.8-.5.8-1.2.5-.9-.4-1.8-.7-2.7-1.1-.2-.1-.4-.4-.5-.6-.1-.3-.6-.5-.8-.3-2,1.9-4.4,1.9-6.9,1.4-1.4-.3-2.7-.1-4,.2-.5.1-1.1.3-1.6.4-.6.1-1-.1-1.3-.6-.6-1-.3-2.4.6-3.3.4-.5.9-.8,1.5-1.2ZM50.06,22.95h0c-1.7-.7-3.4-1.4-5.1-2-.5-.2-.9,0-1.1.5-.2.5,0,1,.4,1.2,1.1.4,2.1.9,3.2,1.3.1,0,.2.1.4.2.3.2.4.4.3.7-.1.3-.4.4-.7.3-.1,0-.3-.1-.4-.2-1.8-.7-3.7-1.5-5.5-2.2-.7-.3-1.3,0-1.6.6s0,1.2.7,1.6c.2.1.3.1.5.2,1.5.6,3.1,1.2,4.6,1.9.6.2.7.5.6.9-.2.4-.5.4-1,.2-.1,0-.2-.1-.3-.1-2-.8-4.1-1.6-6.1-2.5-.1,0-.2-.1-.4-.1-.6-.2-1.2.1-1.4.6-.3.6-.1,1.2.5,1.5.2.1.4.2.5.2,2.1.8,4.2,1.7,6.3,2.5.1,0,.2.1.4.2.3.1.5.4.3.7-.1.3-.4.4-.7.3-.2,0-.3-.1-.5-.2-1.8-.7-3.6-1.5-5.4-2.2-.6-.2-1.2-.1-1.5.4s-.2,1.1.2,1.5c.2.2.4.3.6.4,3.1,1.2,6.2,2.5,9.3,3.7.6.2,1,.6,1.3,1.2.2.4.2.7-.2.9s-.6,0-.8-.3c-.2-.2-.4-.5-.6-.7-1.2-.6-3.1-.2-3.9.8-.3.4-.5.9-.5,1.4,0,.3.2.5.6.4.3-.1.7-.2,1.1-.3,1.6-.5,3.3-.7,5-.2.4.1.9.1,1.3.1,1.7,0,3.4-.3,4.6-1.7.1-.1.5-.2.7-.2s.4.1.6.2c.4.2.5.1.7-.3.8-2.1,1.7-4.3,2.6-6.4.2-.4.5-.9.4-1.3-.1-.4-.6-.6-.9-.9-1.6-1.6-3.4-2.7-5.4-3.5-1.5-.4-2.6-.8-3.7-1.3ZM59.56,38.75q.1-.1,0,0c1.2-2.8,2.3-5.6,3.4-8.3.1-.2,0-.4-.2-.5-.4-.2-.9-.3-1.3-.5-.4-.2-.6-.1-.7.3-.9,2.3-1.8,4.6-2.7,6.8-.1.3-.3.7-.4,1,0,.1,0,.4.1.4.6.3,1.2.5,1.8.8Z"/>
        </g>
        <g>
          <path class="cls-1" d="M37.46,1.65s-5.3,1.4-1.6,4.2c3.7,2.9-1.2,4.8-1.2,4.8"/>
          <path class="cls-1" d="M40.56,4.45s-2.8.8-.8,2.6-.6,3-.6,3"/>
          <path class="cls-1" d="M33.36,5.75s-1.9.6-.6,1.8c1.3,1.2-.4,2-.4,2"/>
        </g>
        <g>
          <path class="cls-1" d="M15.36.45s-5.3,1.4-1.6,4.2c3.7,2.9-1.2,4.8-1.2,4.8"/>
          <path class="cls-1" d="M18.46,3.25s-2.8.8-.8,2.6-.6,3-.6,3"/>
          <path class="cls-1" d="M11.26,4.55s-1.9.6-.6,1.8c1.3,1.2-.4,2-.4,2"/>
        </g>
      </g>
    </g>
  </g>
</svg>