<?xml version="1.0" encoding="UTF-8"?>
<svg id="Layer_1" data-name="Layer 1" xmlns="http://www.w3.org/2000/svg" xmlns:xlink="http://www.w3.org/1999/xlink" viewBox="0 0 892.14 858.81">
  <defs>
    <style>
      .cls-1 {
        stroke: #010101;
      }

      .cls-1, .cls-2, .cls-3, .cls-4 {
        fill: none;
      }

      .cls-1, .cls-2, .cls-4 {
        stroke-linecap: round;
      }

      .cls-1, .cls-4 {
        stroke-linejoin: round;
      }

      .cls-5, .cls-2, .cls-3 {
        stroke: #000;
        stroke-miterlimit: 10;
      }

      .cls-6 {
        fill: #010101;
      }

      .cls-7 {
        fill: #fff;
      }

      .cls-8 {
        fill: #a6a8ac;
      }

      .cls-9 {
        fill: url(#New_Gradient_Swatch_3);
      }

      .cls-10 {
        fill: url(#New_Gradient_Swatch_1);
      }

      .cls-11 {
        fill: url(#New_Gradient_Swatch_4);
      }

      .cls-2, .cls-3 {
        stroke-width: 2px;
      }

      .cls-4 {
        stroke: #241f20;
        stroke-width: 3px;
      }
    </style>
    <linearGradient id="New_Gradient_Swatch_3" data-name="New Gradient Swatch 3" x1="272.05" y1="800.76" x2="823.84" y2="225.21" gradientUnits="userSpaceOnUse">
      <stop offset="0" stop-color="#9f6d29"/>
      <stop offset=".03" stop-color="#a56f28"/>
      <stop offset=".15" stop-color="#bf7927"/>
      <stop offset=".27" stop-color="#d28125"/>
      <stop offset=".4" stop-color="#de8525"/>
      <stop offset=".53" stop-color="#e28725"/>
      <stop offset="1" stop-color="#9f6d29"/>
    </linearGradient>
    <linearGradient id="New_Gradient_Swatch_1" data-name="New Gradient Swatch 1" x1="328.96" y1="644.68" x2="653.7" y2="271.1" gradientUnits="userSpaceOnUse">
      <stop offset="0" stop-color="#808185"/>
      <stop offset=".02" stop-color="#86878b"/>
      <stop offset=".11" stop-color="#a8a9ac"/>
      <stop offset=".21" stop-color="#c2c3c5"/>
      <stop offset=".32" stop-color="#d5d6d8"/>
      <stop offset=".42" stop-color="#e1e2e3"/>
      <stop offset=".53" stop-color="#e5e6e7"/>
      <stop offset="1" stop-color="#808185"/>
    </linearGradient>
    <linearGradient id="New_Gradient_Swatch_4" data-name="New Gradient Swatch 4" x1="387.89" y1="523.96" x2="547.62" y2="358.95" gradientUnits="userSpaceOnUse">
      <stop offset="0" stop-color="#b68c2e"/>
      <stop offset=".1" stop-color="#c99b28"/>
      <stop offset=".24" stop-color="#dbaa23"/>
      <stop offset=".38" stop-color="#e7b320"/>
      <stop offset=".53" stop-color="#ebb61f"/>
      <stop offset="1" stop-color="#b68c2e"/>
    </linearGradient>
  </defs>
  <g>
    <path class="cls-9" d="m642.72,526.85l-80.73,25.33-27.73-88.9-93.77-57.78-2.27-.03-93.61,63.81-87.49-10.36-9.29,79.56-134.85,102.02c73.29,100.1,191.66,165.1,325.22,165.1,146.58,0,274.88-78.3,345.35-195.36l-140.83-83.4Z"/>
    <path class="cls-10" d="m642.72,526.85l-80.73,25.33-27.73-88.9-93.77-57.78-2.27-.03-93.61,63.81-87.49-10.36-9.29,79.56-12.57,9.51c45.19,64.38,119.99,106.47,204.62,106.47,90.84,0,170.34-48.48,214.08-120.97l-11.23-6.65Z"/>
    <path class="cls-11" d="m534.26,463.28l-93.77-57.78-2.27-.03-93.61,63.81-.43-.05c20.9,30.37,55.9,50.29,95.56,50.29s75.29-20.27,96.12-51.1l-1.6-5.14Z"/>
  </g>
  <g>
    <path class="cls-6" d="m652.06,644.92v5.72h3.04v1.38h-4.49v-7.1h1.45Z"/>
    <path class="cls-6" d="m657.82,644.92v7.1h-1.45v-7.1h1.45Z"/>
    <path class="cls-6" d="m661.98,644.92c1.99-.04,3.69,1.62,3.65,3.55.04,1.93-1.66,3.59-3.65,3.55h-2.34v-7.1h2.34Zm0,1.33h-.89v4.44h.89c1.29,0,2.19-.99,2.19-2.22s-.9-2.22-2.19-2.22Z"/>
    <path class="cls-6" d="m678.01,644.92l-1.71,7.1h-1.36l-1.56-3.77-1.56,3.77h-1.36l-1.71-7.1h1.54l1.08,4.72,2.01-4.84,2.01,4.84,1.08-4.72h1.54Z"/>
    <path class="cls-6" d="m680.67,644.92v7.1h-1.45v-7.1h1.45Z"/>
    <path class="cls-6" d="m683.96,649.7v2.32h-1.45v-7.1h2.36c1.43,0,2.49,1.04,2.49,2.39s-1.06,2.39-2.49,2.39h-.91Zm0-3.42v2.06h.89c.65,0,1.1-.44,1.1-1.03s-.45-1.03-1.1-1.03h-.89Z"/>
    <path class="cls-6" d="m693.08,644.92v1.38h-2.97v1.46h2.37v1.38h-2.37v1.5h2.97v1.38h-4.42v-7.1h4.42Z"/>
    <path class="cls-6" d="m696.88,652.14c-1.63.03-2.68-1.13-2.72-2.32h1.44c.09.61.63.98,1.28.98.59,0,1.01-.28,1.01-.72,0-.39-.31-.68-.94-.86l-.76-.22c-1.16-.33-1.85-1.05-1.86-2.1,0-.65.22-1.16.65-1.53.43-.38,1.01-.57,1.73-.57,1.47-.02,2.45,1.08,2.49,2.16h-1.43c-.16-.56-.59-.82-1.06-.82-.53,0-.92.27-.92.68s.29.66.89.83l.84.23c1.16.33,1.84,1.07,1.84,2.15,0,1.2-1.01,2.11-2.48,2.11Z"/>
  </g>
  <g id="_8wYxki" data-name="8wYxki">
    <g>
      <path d="m206.88,639.99c.07-1.79.76-3.28,2.01-4.53,4.01-4,8-8.01,12.02-12,2.79-2.77,6.47-2.76,9.27.03,4.14,4.12,8.27,8.26,12.4,12.39,1.16,1.16,2.32,2.31,3.47,3.47,2.19,2.23,2.2,5.26.06,7.52-1.62,1.72-1.62,3.33.01,5.04.09.09.18.18.27.28q.87.88,1.96.37c1.54-.73,3.46-.3,4.61,1.03,1.11,1.28,1.28,3.29.29,4.71-.37.53-.32.87-.01,1.37,1.75,2.86,3.46,5.74,5.18,8.61.52.86.49,1.12-.22,1.84-.76.78-1.54,1.54-2.31,2.32-.97.98-1.2,1.01-2.41.28-2.76-1.66-5.53-3.31-8.28-4.98-.49-.3-.85-.37-1.38-.01-1.57,1.06-3.51.85-4.87-.42-1.32-1.24-1.62-3.22-.65-4.85.29-.48.26-.78-.15-1.12-.24-.2-.45-.43-.67-.65-1.76-1.73-3.38-1.75-5.14-.05-.77.74-1.65,1.26-2.7,1.45-1.92.35-3.51-.28-4.87-1.64-5.28-5.29-10.58-10.58-15.87-15.86-.86-.86-1.51-1.85-1.77-3.06-.11-.5-.16-1.02-.24-1.53Zm39.27,14.46c-.64-.52-1.23-.91-1.71-1.41-2.08-2.13-2.06-5.21.01-7.33,1.67-1.72,1.69-3.41,0-5.09-5.26-5.27-10.53-10.54-15.81-15.8-.43-.43-.96-.82-1.52-1.05-1.88-.77-3.47-.22-4.87,1.19-3.9,3.92-7.81,7.82-11.73,11.73-2.17,2.16-2.18,4.49,0,6.67,5.16,5.16,10.36,10.27,15.45,15.49,1.63,1.68,3.77,1.64,5.3.06,2.01-2.08,5.19-2.01,7.28,0,.34.32.68.64.99,1,.36.42.64.48,1.06.02.7-.77,1.46-1.48,2.2-2.21,1.03-1.02,2.07-2.03,3.34-3.27Zm5.89,1.81c-.12-.84-.58-1.55-1.3-1.86-.88-.38-1.63-.11-2.27.52-2.7,2.69-5.39,5.39-8.08,8.09-.84.84-.86,2.02-.1,2.78.8.79,1.98.77,2.84-.09,2.7-2.69,5.41-5.38,8.08-8.1.36-.37.55-.9.82-1.35Zm-.57,4.36c-1.81,1.81-3.55,3.55-5.32,5.32.11.07.31.21.53.35,1.98,1.19,3.96,2.37,5.93,3.57,1.9,1.15,1.88,1.14,3.44-.44.34-.34.36-.6.11-1-1.06-1.72-2.09-3.47-3.13-5.2-.54-.91-1.1-1.81-1.57-2.59Z"/>
      <path d="m227.65,650.41c-4.27.05-7.48-4.49-5.67-8.44,1.26-2.76,2.97-5.23,4.81-7.61.49-.63,1.19-.67,1.66-.06,1.94,2.47,3.84,4.99,4.96,7.96,1.5,3.98-1.48,8.16-5.76,8.15Zm0-13.9c-1.53,2.15-2.97,4.12-3.87,6.41-.66,1.69-.22,3.16,1.06,4.38,1.28,1.23,3.27,1.44,4.84.57,1.46-.81,2.49-2.66,2.09-4.1-.74-2.7-2.45-4.87-4.13-7.26Z"/>
    </g>
  </g>
  <g>
    <path class="cls-6" d="m218.32,684.94h-3.02l-.69,1.62h-1.5l3.06-7.1h1.29l3.07,7.1h-1.52l-.69-1.62Zm-.53-1.27l-.98-2.31-.98,2.31h1.96Z"/>
    <path class="cls-6" d="m225.81,686.56l-2.43-2.99h-.36v2.99h-1.45v-7.1h2.72c1.31,0,2.18.91,2.18,2.1,0,.92-.49,1.54-1.46,1.85l2.55,3.15h-1.75Zm-1.69-4.23c.55,0,.91-.29.91-.77s-.36-.77-.91-.77h-1.1v1.54h1.1Z"/>
    <path class="cls-6" d="m227.59,680.85v-1.38h5.26v1.38h-1.91v5.72h-1.46v-5.72h-1.89Z"/>
    <path class="cls-6" d="m235.55,679.47v7.1h-1.45v-7.1h1.45Z"/>
    <path class="cls-6" d="m241.7,679.47v1.38h-2.87v1.47h2.25v1.38h-2.25v2.87h-1.45v-7.1h4.32Z"/>
    <path class="cls-6" d="m244.5,679.47v7.1h-1.45v-7.1h1.45Z"/>
    <path class="cls-6" d="m253.08,684.14c-.38,1.49-1.84,2.54-3.44,2.54-2.11.04-3.76-1.64-3.72-3.67-.04-2.03,1.61-3.71,3.72-3.67,1.6,0,3.06,1.05,3.44,2.54h-1.57c-.29-.69-1.06-1.14-1.87-1.14-1.33,0-2.26,1-2.26,2.27s.93,2.27,2.26,2.27c.81,0,1.58-.45,1.87-1.14h1.57Z"/>
    <path class="cls-6" d="m255.83,679.47v7.1h-1.45v-7.1h1.45Z"/>
    <path class="cls-6" d="m262.09,684.94h-3.02l-.69,1.62h-1.5l3.06-7.1h1.29l3.07,7.1h-1.52l-.69-1.62Zm-.53-1.27l-.98-2.31-.98,2.31h1.96Z"/>
    <path class="cls-6" d="m266.79,679.47v5.72h3.04v1.38h-4.49v-7.1h1.45Z"/>
    <path class="cls-6" d="m225.56,690.85v-1.38h5.26v1.38h-1.91v5.72h-1.46v-5.72h-1.89Z"/>
    <path class="cls-6" d="m236.49,689.47v1.38h-2.97v1.46h2.37v1.38h-2.37v1.5h2.97v1.38h-4.42v-7.1h4.42Z"/>
    <path class="cls-6" d="m242.43,694.94h-3.02l-.69,1.62h-1.5l3.06-7.1h1.29l3.07,7.1h-1.52l-.69-1.62Zm-.53-1.27l-.98-2.31-.98,2.31h1.96Z"/>
    <path class="cls-6" d="m249.92,696.56l-2.43-2.99h-.36v2.99h-1.45v-7.1h2.72c1.31,0,2.18.91,2.18,2.1,0,.92-.49,1.54-1.46,1.85l2.55,3.15h-1.75Zm-1.69-4.23c.55,0,.91-.29.91-.77s-.36-.77-.91-.77h-1.1v1.54h1.1Z"/>
    <path class="cls-6" d="m254.66,696.68c-1.63.03-2.68-1.13-2.72-2.32h1.44c.09.61.63.98,1.28.98.59,0,1.01-.28,1.01-.72,0-.39-.31-.68-.94-.86l-.76-.22c-1.16-.33-1.85-1.05-1.86-2.1,0-.65.22-1.16.65-1.53.43-.38,1.01-.57,1.73-.57,1.47-.02,2.45,1.08,2.49,2.16h-1.43c-.16-.56-.59-.82-1.06-.82-.53,0-.92.27-.92.68s.29.66.89.83l.84.23c1.16.33,1.84,1.07,1.84,2.15,0,1.2-1.01,2.11-2.48,2.11Z"/>
  </g>
  <g>
    <path class="cls-6" d="m571.58,708.64l-1.71,7.1h-1.36l-1.56-3.77-1.56,3.77h-1.36l-1.71-7.1h1.54l1.08,4.72,2.01-4.84,2.01,4.84,1.08-4.72h1.54Z"/>
    <path class="cls-6" d="m576.82,714.12h-3.02l-.69,1.62h-1.5l3.06-7.1h1.29l3.07,7.1h-1.52l-.69-1.62Zm-.53-1.27l-.98-2.31-.98,2.31h1.96Z"/>
    <path class="cls-6" d="m584.31,715.74l-2.43-2.99h-.36v2.99h-1.45v-7.1h2.72c1.31,0,2.18.91,2.18,2.1,0,.92-.49,1.54-1.46,1.85l2.55,3.15h-1.75Zm-1.69-4.23c.55,0,.91-.29.91-.77s-.36-.77-.91-.77h-1.1v1.54h1.1Z"/>
    <path class="cls-6" d="m594.14,708.64v7.1h-1.45v-4.62l-2.18,2.99-2.18-2.99v4.62h-1.45v-7.1h1.32l2.31,3.16,2.31-3.16h1.32Z"/>
    <path class="cls-6" d="m557.83,723.32c-.38,1.49-1.84,2.54-3.44,2.54-2.11.04-3.76-1.64-3.72-3.67-.04-2.03,1.61-3.71,3.72-3.67,1.6,0,3.06,1.05,3.44,2.54h-1.57c-.29-.69-1.06-1.14-1.87-1.14-1.33,0-2.26,1-2.26,2.27s.93,2.27,2.26,2.27c.81,0,1.58-.45,1.87-1.14h1.57Z"/>
    <path class="cls-6" d="m562.38,718.52c1.98-.04,3.71,1.69,3.67,3.67.04,1.98-1.69,3.71-3.67,3.67-1.98.04-3.71-1.69-3.67-3.67-.04-1.98,1.69-3.71,3.67-3.67Zm0,1.4c-1.21-.03-2.23,1.06-2.21,2.27-.02,1.21,1,2.3,2.21,2.27,1.21.03,2.23-1.06,2.21-2.27.02-1.21-1-2.3-2.21-2.27Z"/>
    <path class="cls-6" d="m574.72,718.64v7.1h-1.45v-4.62l-2.18,2.99-2.18-2.99v4.62h-1.45v-7.1h1.32l2.31,3.16,2.31-3.16h1.32Z"/>
    <path class="cls-6" d="m578,723.42v2.32h-1.45v-7.1h2.36c1.43,0,2.49,1.04,2.49,2.39s-1.06,2.39-2.49,2.39h-.91Zm0-3.42v2.06h.89c.65,0,1.1-.44,1.1-1.03s-.45-1.03-1.1-1.03h-.89Z"/>
    <path class="cls-6" d="m586.95,725.74l-2.43-2.99h-.36v2.99h-1.45v-7.1h2.72c1.31,0,2.18.91,2.18,2.1,0,.92-.49,1.54-1.46,1.85l2.55,3.15h-1.75Zm-1.69-4.23c.55,0,.91-.29.91-.77s-.36-.77-.91-.77h-1.1v1.54h1.1Z"/>
    <path class="cls-6" d="m593.94,718.64v1.38h-2.97v1.46h2.37v1.38h-2.37v1.5h2.97v1.38h-4.42v-7.1h4.42Z"/>
    <path class="cls-6" d="m597.73,725.86c-1.63.03-2.68-1.13-2.72-2.32h1.44c.09.61.63.98,1.28.98.59,0,1.01-.28,1.01-.72,0-.39-.31-.68-.94-.86l-.76-.22c-1.16-.33-1.85-1.05-1.86-2.1,0-.65.22-1.16.65-1.53.43-.38,1.01-.57,1.73-.57,1.47-.02,2.45,1.08,2.49,2.16h-1.43c-.16-.56-.59-.82-1.06-.82-.53,0-.92.27-.92.68s.29.66.89.83l.84.23c1.16.33,1.84,1.07,1.84,2.15,0,1.2-1.01,2.11-2.48,2.11Z"/>
    <path class="cls-6" d="m603.92,725.86c-1.63.03-2.68-1.13-2.72-2.32h1.44c.09.61.63.98,1.28.98.59,0,1.01-.28,1.01-.72,0-.39-.31-.68-.94-.86l-.76-.22c-1.16-.33-1.85-1.05-1.86-2.1,0-.65.22-1.16.65-1.53.43-.38,1.01-.57,1.73-.57,1.47-.02,2.45,1.08,2.49,2.16h-1.43c-.16-.56-.59-.82-1.06-.82-.53,0-.92.27-.92.68s.29.66.89.83l.84.23c1.16.33,1.84,1.07,1.84,2.15,0,1.2-1.01,2.11-2.48,2.11Z"/>
  </g>
  <g>
    <g>
      <g id="E5tU7s">
        <g>
          <path d="m427.06,721.32c-4.36-.07-7.97-1.43-11.35-3.51-1.68-1.03-3.26-2.18-4.6-3.64-.62-.67-.63-.98.02-1.59,3.82-3.59,8.14-6.26,13.44-7.02,2.95-.42,5.82.02,8.58,1.09,3.47,1.33,6.49,3.36,9.15,5.94.63.61.65.94.03,1.52-3.75,3.54-8,6.17-13.19,7.02-.8.13-1.61.16-2.09.21Zm-.36-1.52c3.6,0,6.47-2.86,6.47-6.47,0-3.54-2.9-6.43-6.47-6.42-3.55,0-6.45,2.9-6.45,6.45,0,3.56,2.88,6.44,6.44,6.44Zm-6.04-11.68c-3.16,1.28-5.78,3.06-8.24,5.29,2.41,2.25,5.08,3.96,8.12,5.11-2.4-3.44-2.4-6.84.12-10.39Zm20.31,5.24c-2.45-2.21-5.05-3.96-8.07-5.14,2.38,3.4,2.39,6.79.06,10.22,3-1.14,5.57-2.91,8.01-5.09Z"/>
          <path d="m478.89,718.36c.75,1.19,1.66,2.09,2.83,2.71.18.1.36.18.54.27.42.22.61.55.41,1-.2.46-.62.52-1.03.34-.5-.22-.98-.49-1.43-.79-1.03-.67-1.86-1.55-2.5-2.6-.19-.32-.38-.44-.78-.33-.8.22-1.61.39-2.43.53-.47.08-.6.27-.53.72.15.96.26,1.92.38,2.88.02.14.05.28.06.42.04.59-.2.95-.66.97-.53.03-.76-.29-.83-.77-.13-1.04-.25-2.08-.4-3.12-.14-1.02-.04-.83-.98-.86-.56-.01-1.28-.25-1.65,0-.35.25-.29,1.03-.52,1.54-.41.94-.88,1.86-1.37,2.76-.27.49-.75.59-1.13.35-.36-.24-.41-.69-.08-1.17.67-1,1.14-2.08,1.39-3.27.08-.4,0-.59-.42-.68-.59-.12-1.18-.29-1.76-.47-.35-.12-.54-.05-.72.29-.88,1.63-2.19,2.83-3.84,3.67-.41.21-.83.2-1.06-.22-.24-.43-.12-.82.34-1.07.2-.1.39-.22.58-.33,1.04-.63,1.88-1.46,2.52-2.49.08-.14.15-.28.26-.49-.9-.45-1.78-.89-2.67-1.3-.08-.04-.29.09-.38.2-1.41,1.56-3.18,2.39-5.24,2.65-.1.01-.2.03-.3.03-.56.03-.95-.23-.96-.68,0-.53.33-.69.81-.8.9-.21,1.83-.39,2.66-.76.72-.32,1.32-.89,2.07-1.41-.71-.5-1.26-.91-1.84-1.27-.1-.07-.36,0-.48.08-1.78,1.31-3.83,1.66-5.97,1.72-.62.02-1-.29-.96-.75.05-.55.42-.73.93-.73,1.45,0,2.86-.23,4.18-.87.3-.15.57-.34.9-.54-.34-.38-.63-.69-.9-1.01-.29-.35-.31-.72.04-1.02.37-.32.73-.24,1.08.09,3.42,3.27,7.43,5.42,12.1,6.28,3.64.67,7.08-.1,10.39-1.63,2.49-1.16,4.76-2.67,6.8-4.52.1-.09.21-.26.32-.26.31-.02.7-.07.93.08.34.22.32.64.06.97-.2.25-.44.48-.7.67-.34.25-.33.49-.11.82,1.06,1.57,2.57,2.41,4.39,2.77.14.03.28.04.42.08.42.13.66.41.57.86-.08.45-.41.66-.85.59-2.26-.37-4.2-1.31-5.58-3.2-.11-.15-.21-.3-.32-.44-.02-.03-.06-.05-.15-.11-.69.47-1.39.95-2.14,1.46.96,1.31,2.15,2.21,3.58,2.79.21.08.42.14.63.23.4.18.56.55.37.89-.13.24-.52.47-.79.46-.38,0-.78-.2-1.15-.36-1.46-.63-2.67-1.6-3.65-2.84-.26-.32-.44-.36-.8-.18-.8.42-1.63.79-2.51,1.22Z"/>
          <path d="m427.7,694.92c6.38.16,11.61,2.08,16.24,5.63,1.3,1,1.54,2.62.62,3.79-.97,1.23-2.74,1.32-3.91.2-2.26-2.18-4.87-3.8-7.81-4.89-5.29-1.96-10.48-1.57-15.59.7-2.29,1.02-4.38,2.36-6.35,3.89-.14.11-.28.23-.43.33-.35.23-.7.21-.98-.11-.27-.32-.27-.69.02-.99.54-.55,1.1-1.07,1.68-1.58,3.8-3.33,8.07-5.73,13.11-6.59,1.29-.22,2.61-.29,3.41-.38Zm-3.57,1.85s0,.09.01.14c.03.02.06.05.1.05.14,0,.28,0,.42,0,3.63-.2,7.09.48,10.38,2.01,2.44,1.13,4.66,2.59,6.6,4.47.55.53,1.19.54,1.66.06.52-.53.41-1.24-.33-1.8-4.61-3.45-9.75-5.35-15.57-5.21-1.09.03-2.18.2-3.27.3Z"/>
          <path d="m471.63,701.92c-4.72.04-8.57,1.69-11.99,4.45-.9.72-1.71,1.54-2.56,2.31-.37.34-.76.41-1.12.03-.34-.35-.27-.74.06-1.08,3.02-3.08,6.47-5.49,10.73-6.56,4.26-1.08,8.39-.57,12.42,1.06,2.51,1.02,4.81,2.4,6.9,4.12.17.14.35.28.5.44.3.32.37.68.06,1.03-.31.35-.69.34-1.03.07-.47-.36-.89-.76-1.36-1.12-3.14-2.39-6.61-4.04-10.56-4.61-.22-.03-.44-.06-.66-.07-.54-.04-1.09-.07-1.38-.09Z"/>
          <path d="m426.73,717.33c0,.49-.4.79-.92.73-1.43-.16-3.27-1.76-3.51-3.16-.05-.27.19-.7.43-.87.33-.23.7-.05.91.32.18.32.3.67.51.96.46.65,1.08,1.08,1.87,1.25.42.09.69.32.72.75Z"/>
        </g>
      </g>
      <circle cx="426.91" cy="713.28" r="2.56"/>
    </g>
    <g>
      <path class="cls-6" d="m435.68,732.63c1.17,0,2.11.94,2.11,2.06,0,.52-.19.94-.56,1.27.64.31,1.05.91,1.05,1.68,0,1.17-.94,2.09-2.2,2.09h-3v-7.1h2.6Zm-.14,1.32h-1.01v1.59h1.01c.49,0,.84-.34.84-.79s-.35-.8-.84-.8Zm.44,2.82h-1.45v1.63h1.45c.53,0,.89-.34.89-.81s-.36-.82-.89-.82Z"/>
      <path class="cls-6" d="m441.12,732.63v5.72h3.04v1.38h-4.49v-7.1h1.45Z"/>
      <path class="cls-6" d="m446.88,732.63v7.1h-1.45v-7.1h1.45Z"/>
      <path class="cls-6" d="m455.05,732.63v7.1h-1.25l-3.64-4.63v4.63h-1.45v-7.1h1.25l3.64,4.63v-4.63h1.45Z"/>
      <path class="cls-6" d="m461.4,739.73l-3.08-3.23v3.23h-1.44v-7.1h1.44v3l2.56-3h1.79l-2.92,3.41,3.53,3.69h-1.88Z"/>
      <path class="cls-6" d="m425.21,742.63v1.38h-2.97v1.46h2.37v1.38h-2.37v1.5h2.97v1.38h-4.42v-7.1h4.42Z"/>
      <path class="cls-6" d="m431.26,749.73l-1.84-2.46-1.85,2.46h-1.7l2.67-3.59-2.52-3.51h1.68l1.72,2.38,1.71-2.38h1.68l-2.52,3.51,2.67,3.59h-1.7Z"/>
      <path class="cls-6" d="m438.36,742.63v1.38h-2.97v1.46h2.37v1.38h-2.37v1.5h2.97v1.38h-4.42v-7.1h4.42Z"/>
      <path class="cls-6" d="m444.11,749.73l-2.43-2.99h-.36v2.99h-1.45v-7.1h2.72c1.31,0,2.18.91,2.18,2.1,0,.92-.49,1.54-1.46,1.85l2.55,3.15h-1.75Zm-1.69-4.23c.55,0,.91-.29.91-.77s-.36-.77-.91-.77h-1.1v1.54h1.1Z"/>
      <path class="cls-6" d="m453.2,747.31c-.38,1.49-1.84,2.54-3.44,2.54-2.11.04-3.76-1.64-3.72-3.67-.04-2.03,1.61-3.71,3.72-3.67,1.6,0,3.06,1.05,3.44,2.54h-1.57c-.29-.69-1.06-1.14-1.87-1.14-1.33,0-2.26,1-2.26,2.27s.93,2.27,2.26,2.27c.81,0,1.58-.45,1.87-1.14h1.57Z"/>
      <path class="cls-6" d="m455.95,742.63v7.1h-1.45v-7.1h1.45Z"/>
      <path class="cls-6" d="m460.06,749.85c-1.63.03-2.68-1.13-2.72-2.32h1.44c.09.61.63.98,1.28.98.59,0,1.01-.28,1.01-.72,0-.39-.31-.68-.94-.86l-.76-.22c-1.16-.33-1.85-1.05-1.86-2.1,0-.65.22-1.16.65-1.53.43-.38,1.01-.57,1.73-.57,1.47-.02,2.45,1.08,2.49,2.16h-1.43c-.16-.56-.59-.82-1.06-.82-.53,0-.92.27-.92.68s.29.66.89.83l.84.23c1.16.33,1.84,1.07,1.84,2.15,0,1.2-1.01,2.11-2.48,2.11Z"/>
      <path class="cls-6" d="m468.39,742.63v1.38h-2.97v1.46h2.37v1.38h-2.37v1.5h2.97v1.38h-4.42v-7.1h4.42Z"/>
      <path class="cls-6" d="m472.18,749.85c-1.63.03-2.68-1.13-2.72-2.32h1.44c.09.61.63.98,1.28.98.59,0,1.01-.28,1.01-.72,0-.39-.31-.68-.94-.86l-.76-.22c-1.16-.33-1.85-1.05-1.86-2.1,0-.65.22-1.16.65-1.53.43-.38,1.01-.57,1.73-.57,1.47-.02,2.45,1.08,2.49,2.16h-1.43c-.16-.56-.59-.82-1.06-.82-.53,0-.92.27-.92.68s.29.66.89.83l.84.23c1.16.33,1.84,1.07,1.84,2.15,0,1.2-1.01,2.11-2.48,2.11Z"/>
    </g>
  </g>
  <g>
    <g id="TArSut">
      <g>
        <g>
          <path d="m454.36,582.87c-3.53-3.36-7.47-6.13-11.87-8.26-5.43-2.62-10.89-3.66-16.41-3.05.34.85.53,1.7.6,2.56.87-.21,1.78-.33,2.73-.32,5.75.09,10.39,4.98,10.28,10.84-.11,5.6-5.01,10.3-10.63,10.2-5.77-.1-10.43-4.83-10.43-10.52-.59.1-1.18.17-1.8.16-.22,0-.43-.02-.65-.03.02,2.76.99,5.51,2.93,8.27-4.94-1.86-9.26-4.65-13.23-8.31,1.21-1.11,2.46-2.14,3.74-3.1-.56-.61-1.05-1.28-1.45-2.01-1.43,1.09-2.81,2.25-4.13,3.51-1.34,1.27-1.34,1.73-.04,3.08,2.63,2.73,5.7,4.87,8.99,6.71,4.99,2.78,10.26,4.61,16.07,4.84,2.08-.29,4.2-.43,6.24-.9,7.43-1.71,13.61-5.68,19.11-10.82,1.21-1.13,1.18-1.68-.05-2.85Zm-15.1,9.8c3.83-5.56,3.86-11.08.04-16.66,4.91,1.9,9.13,4.75,13.04,8.31-3.94,3.6-8.19,6.43-13.07,8.35Z"/>
          <path d="m417.5,584.61c-5.4-.01-9.88-4.44-9.75-9.81.03-1.3.45-2.67.99-3.88,1.91-4.28,4.77-7.94,7.79-11.47.64-.75,1.42-.77,2.04-.05,3.09,3.61,5.91,7.38,7.97,11.71,3,6.31-2.09,13.61-9.03,13.49Zm.08-22.65c-2.6,3.24-4.92,6.4-6.7,9.96-2.19,4.38.9,9.24,5.17,10.14,5.02,1.06,9.88-3.54,8.81-8.38-.03-.13-.05-.26-.1-.38-1.55-4.24-4.33-7.7-7.18-11.34Z"/>
        </g>
        <circle cx="429.4" cy="584.62" r="4.75"/>
      </g>
    </g>
    <g>
      <path class="cls-6" d="m380.12,609.38v2.32h-1.45v-7.1h2.36c1.43,0,2.49,1.04,2.49,2.39s-1.06,2.39-2.49,2.39h-.91Zm0-3.42v2.06h.89c.65,0,1.1-.44,1.1-1.03s-.45-1.03-1.1-1.03h-.89Z"/>
      <path class="cls-6" d="m386.28,604.6v2.83h3.08v-2.83h1.45v7.1h-1.45v-2.89h-3.08v2.89h-1.45v-7.1h1.45Z"/>
      <path class="cls-6" d="m397.07,610.08h-3.02l-.69,1.62h-1.5l3.06-7.1h1.29l3.07,7.1h-1.52l-.69-1.62Zm-.53-1.27l-.98-2.31-.98,2.31h1.96Z"/>
      <path class="cls-6" d="m404.56,611.7l-2.43-2.99h-.36v2.99h-1.45v-7.1h2.72c1.31,0,2.18.91,2.18,2.1,0,.92-.49,1.54-1.46,1.85l2.55,3.15h-1.75Zm-1.69-4.23c.55,0,.91-.29.91-.77s-.36-.77-.91-.77h-1.1v1.54h1.1Z"/>
      <path class="cls-6" d="m414.39,604.6v7.1h-1.45v-4.62l-2.18,2.99-2.18-2.99v4.62h-1.45v-7.1h1.32l2.31,3.16,2.31-3.16h1.32Z"/>
      <path class="cls-6" d="m420.65,610.08h-3.02l-.69,1.62h-1.5l3.06-7.1h1.29l3.07,7.1h-1.52l-.69-1.62Zm-.53-1.27l-.98-2.31-.98,2.31h1.96Z"/>
      <path class="cls-6" d="m430.35,609.28c-.38,1.49-1.84,2.54-3.44,2.54-2.11.04-3.76-1.64-3.72-3.67-.04-2.03,1.61-3.71,3.72-3.67,1.6,0,3.06,1.05,3.44,2.54h-1.57c-.29-.69-1.06-1.14-1.87-1.14-1.33,0-2.26,1-2.26,2.27s.93,2.27,2.26,2.27c.81,0,1.58-.45,1.87-1.14h1.57Z"/>
      <path class="cls-6" d="m436.07,604.6v1.38h-2.97v1.46h2.37v1.38h-2.37v1.5h2.97v1.38h-4.42v-7.1h4.42Z"/>
      <path class="cls-6" d="m437.5,604.6h1.45v4.32c0,.93.57,1.5,1.44,1.5s1.44-.57,1.44-1.5v-4.32h1.45v4.3c0,1.76-1.21,2.92-2.89,2.92s-2.89-1.16-2.89-2.92v-4.3Z"/>
      <path class="cls-6" d="m444.45,605.98v-1.38h5.26v1.38h-1.91v5.72h-1.46v-5.72h-1.89Z"/>
      <path class="cls-6" d="m452.41,604.6v7.1h-1.45v-7.1h1.45Z"/>
      <path class="cls-6" d="m460.99,609.28c-.38,1.49-1.84,2.54-3.44,2.54-2.11.04-3.76-1.64-3.72-3.67-.04-2.03,1.61-3.71,3.72-3.67,1.6,0,3.06,1.05,3.44,2.54h-1.57c-.29-.69-1.06-1.14-1.87-1.14-1.33,0-2.26,1-2.26,2.27s.93,2.27,2.26,2.27c.81,0,1.58-.45,1.87-1.14h1.57Z"/>
      <path class="cls-6" d="m466.53,610.08h-3.02l-.69,1.62h-1.5l3.06-7.1h1.29l3.07,7.1h-1.52l-.69-1.62Zm-.53-1.27l-.98-2.31-.98,2.31h1.96Z"/>
      <path class="cls-6" d="m471.23,604.6v5.72h3.04v1.38h-4.49v-7.1h1.45Z"/>
      <path class="cls-6" d="m477.69,611.82c-1.63.03-2.68-1.13-2.72-2.32h1.44c.09.61.63.98,1.28.98.59,0,1.01-.28,1.01-.72,0-.39-.31-.68-.94-.86l-.76-.22c-1.16-.33-1.85-1.05-1.86-2.1,0-.65.22-1.16.65-1.53.43-.38,1.01-.57,1.73-.57,1.47-.02,2.45,1.08,2.49,2.16h-1.43c-.16-.56-.59-.82-1.06-.82-.53,0-.92.27-.92.68s.29.66.89.83l.84.23c1.16.33,1.84,1.07,1.84,2.15,0,1.2-1.01,2.11-2.48,2.11Z"/>
    </g>
  </g>
  <g>
    <g>
      <g id="a0Abqb">
        <path d="m333.75,549.38c.82-1.95,1.63-3.88,2.45-5.81.82-1.94,1.63-3.87,2.47-5.85h-4.57c.11-.29.2-.54.3-.79,1.38-3.47,2.75-6.94,4.13-10.41.07-.18.16-.24.35-.24,1.47,0,2.94,0,4.41,0,.07,0,.13,0,.25.01-1.1,2.67-2.18,5.3-3.28,7.98h4.82c-.07.12-.11.19-.16.25-1.83,2.49-3.67,4.98-5.5,7.47-1.78,2.42-3.56,4.83-5.34,7.25-.07.09-.13.21-.32.14Z"/>
      </g>
      <path d="m338.79,550.94c-6.33-.25-12.08-2.25-17.51-5.27-3.59-2-6.94-4.33-9.8-7.3-1.42-1.47-1.41-1.97.05-3.36,4.28-4.07,9.09-7.34,14.51-9.68,9.24-3.99,18.36-3.6,27.37.75,4.79,2.31,9.08,5.34,12.93,8.99,1.34,1.27,1.37,1.87.06,3.1-5.99,5.6-12.73,9.92-20.82,11.79-2.22.51-4.53.66-6.8.98Zm0-2.82c6.13.11,11.46-5.02,11.58-11.12.12-6.39-4.93-11.72-11.2-11.81-6.38-.09-11.64,4.94-11.75,11.26-.12,6.29,5.01,11.55,11.37,11.66Zm-10.84-2.32c-4.26-6.05-4.22-12.09-.11-18.21-5.38,2.12-10,5.23-14.3,9.16,4.33,3.99,9.03,7.02,14.41,9.05Zm21.95-.05c5.32-2.09,9.95-5.18,14.24-9.1-4.25-3.88-8.85-6.99-14.2-9.05,4.16,6.08,4.13,12.1-.04,18.15Z"/>
    </g>
    <g>
      <path class="cls-6" d="m298.82,557.7v7.1h-1.45v-7.1h1.45Z"/>
      <path class="cls-6" d="m306.99,557.7v7.1h-1.25l-3.64-4.63v4.63h-1.45v-7.1h1.25l3.64,4.63v-4.63h1.45Z"/>
      <path class="cls-6" d="m308.24,559.08v-1.38h5.26v1.38h-1.91v5.72h-1.46v-5.72h-1.89Z"/>
      <path class="cls-6" d="m319.17,557.7v1.38h-2.97v1.46h2.37v1.38h-2.37v1.5h2.97v1.38h-4.42v-7.1h4.42Z"/>
      <path class="cls-6" d="m327.02,557.7v7.1h-1.25l-3.64-4.63v4.63h-1.45v-7.1h1.25l3.64,4.63v-4.63h1.45Z"/>
      <path class="cls-6" d="m331.13,564.91c-1.63.03-2.68-1.13-2.72-2.32h1.44c.09.61.63.98,1.28.98.59,0,1.01-.28,1.01-.72,0-.39-.31-.68-.94-.86l-.76-.22c-1.16-.33-1.85-1.05-1.86-2.1,0-.65.22-1.16.65-1.53.43-.38,1.01-.57,1.73-.57,1.47-.02,2.45,1.08,2.49,2.16h-1.43c-.16-.56-.59-.82-1.06-.82-.53,0-.92.27-.92.68s.29.66.89.83l.84.23c1.16.33,1.84,1.07,1.84,2.15,0,1.2-1.01,2.11-2.48,2.11Z"/>
      <path class="cls-6" d="m339.46,557.7v1.38h-2.97v1.46h2.37v1.38h-2.37v1.5h2.97v1.38h-4.42v-7.1h4.42Z"/>
      <path class="cls-6" d="m344.92,562.48v2.32h-1.45v-7.1h2.36c1.43,0,2.49,1.04,2.49,2.39s-1.06,2.39-2.49,2.39h-.91Zm0-3.42v2.06h.89c.65,0,1.1-.44,1.1-1.03s-.45-1.03-1.1-1.03h-.89Z"/>
      <path class="cls-6" d="m349.55,557.7h1.45v4.32c0,.93.57,1.5,1.44,1.5s1.44-.57,1.44-1.5v-4.32h1.45v4.3c0,1.76-1.21,2.92-2.89,2.92s-2.89-1.16-2.89-2.92v-4.3Z"/>
      <path class="cls-6" d="m358.53,557.7v5.72h3.04v1.38h-4.49v-7.1h1.45Z"/>
      <path class="cls-6" d="m364.99,564.91c-1.63.03-2.68-1.13-2.72-2.32h1.44c.09.61.63.98,1.28.98.59,0,1.01-.28,1.01-.72,0-.39-.31-.68-.94-.86l-.76-.22c-1.16-.33-1.85-1.05-1.86-2.1,0-.65.22-1.16.65-1.53.43-.38,1.01-.57,1.73-.57,1.47-.02,2.45,1.08,2.49,2.16h-1.43c-.16-.56-.59-.82-1.06-.82-.53,0-.92.27-.92.68s.29.66.89.83l.84.23c1.16.33,1.84,1.07,1.84,2.15,0,1.2-1.01,2.11-2.48,2.11Z"/>
      <path class="cls-6" d="m373.32,557.7v1.38h-2.97v1.46h2.37v1.38h-2.37v1.5h2.97v1.38h-4.42v-7.1h4.42Z"/>
      <path class="cls-6" d="m377.17,557.7c1.99-.04,3.69,1.62,3.65,3.55.04,1.93-1.66,3.59-3.65,3.55h-2.34v-7.1h2.34Zm0,1.33h-.89v4.44h.89c1.29,0,2.19-.99,2.19-2.22s-.9-2.22-2.19-2.22Z"/>
      <path class="cls-6" d="m301.26,567.7v5.72h3.04v1.38h-4.49v-7.1h1.45Z"/>
      <path class="cls-6" d="m307.02,567.7v7.1h-1.45v-7.1h1.45Z"/>
      <path class="cls-6" d="m312.18,574.91c-2.12.04-3.77-1.64-3.74-3.67-.04-2.03,1.61-3.71,3.72-3.67,1.49,0,2.87.89,3.35,2.22h-1.66c-.35-.51-1-.82-1.69-.82-1.33,0-2.26,1-2.26,2.27s.93,2.27,2.28,2.27c1.13,0,1.84-.61,2-1.61h-2.17v-1.36h3.67c.03.21.04.44.04.68.03,2.39-1.58,3.71-3.54,3.69Z"/>
      <path class="cls-6" d="m318.6,567.7v2.83h3.08v-2.83h1.45v7.1h-1.45v-2.89h-3.08v2.89h-1.45v-7.1h1.45Z"/>
      <path class="cls-6" d="m324.38,569.08v-1.38h5.26v1.38h-1.91v5.72h-1.46v-5.72h-1.89Z"/>
      <path class="cls-6" d="m332.21,569.08v-1.38h5.26v1.38h-1.91v5.72h-1.46v-5.72h-1.89Z"/>
      <path class="cls-6" d="m340.17,567.7v2.83h3.08v-2.83h1.45v7.1h-1.45v-2.89h-3.08v2.89h-1.45v-7.1h1.45Z"/>
      <path class="cls-6" d="m350.94,567.7v1.38h-2.97v1.46h2.37v1.38h-2.37v1.5h2.97v1.38h-4.42v-7.1h4.42Z"/>
      <path class="cls-6" d="m356.69,574.79l-2.43-2.99h-.36v2.99h-1.45v-7.1h2.72c1.31,0,2.18.91,2.18,2.1,0,.92-.49,1.54-1.46,1.85l2.55,3.15h-1.75Zm-1.69-4.23c.55,0,.91-.29.91-.77s-.36-.77-.91-.77h-1.1v1.54h1.1Z"/>
      <path class="cls-6" d="m363.69,573.18h-3.02l-.69,1.62h-1.5l3.06-7.1h1.29l3.07,7.1h-1.52l-.69-1.62Zm-.53-1.27l-.98-2.31-.98,2.31h1.96Z"/>
      <path class="cls-6" d="m368.39,572.48v2.32h-1.45v-7.1h2.36c1.43,0,2.49,1.04,2.49,2.39s-1.06,2.39-2.49,2.39h-.91Zm0-3.42v2.06h.89c.65,0,1.1-.44,1.1-1.03s-.45-1.03-1.1-1.03h-.89Z"/>
      <path class="cls-6" d="m372.22,567.7h1.68l1.66,2.69,1.67-2.69h1.69l-2.63,4.12v2.98h-1.45v-2.99l-2.62-4.11Z"/>
    </g>
  </g>
  <g id="_0fdiQx" data-name="0fdiQx">
    <g>
      <path d="m353.6,700.78c.68-.74,1.34-1.5,2.05-2.21,1.32-1.33,2.79-1.32,4.12,0,.7.69,1.41,1.38,2.09,2.09,1.17,1.22,1.15,2.71-.05,3.91-2.61,2.61-5.22,5.23-7.85,7.82-.47.46-.68.93-.67,1.59.03,3.21.02,6.43,0,9.64,0,2.9-1.84,4.73-4.75,4.73-8.73,0-17.46,0-26.19,0-2.86,0-4.7-1.82-4.7-4.7-.01-11.74-.01-23.48,0-35.22,0-2.74,1.9-4.63,4.64-4.63,6.93,0,13.87-.01,20.8.02.44,0,.99.24,1.31.55,2.82,2.76,5.61,5.55,8.37,8.37.3.3.5.82.51,1.25.05,1.95.01,3.9.01,5.84,0,.27.03.53.04.8.08.05.17.1.25.16Zm-2.12,14.2c-.27.24-.48.41-.66.6-1.25,1.25-2.49,2.52-3.76,3.75-.28.27-.63.54-.99.64-2.02.58-4.05,1.1-6.08,1.64-1.09.29-1.6-.24-1.3-1.34.52-1.95,1.02-3.91,1.58-5.86.12-.41.37-.84.67-1.15,3.36-3.4,6.76-6.76,10.12-10.16.28-.28.49-.77.5-1.17.05-2.22,0-4.45.04-6.68,0-.63-.17-.83-.81-.82-2.25.03-4.5.01-6.75.01-1.21,0-1.39-.19-1.39-1.42,0-2.18-.03-4.35.01-6.53.01-.73-.14-1-.95-1-6.4.04-12.8.02-19.2.02-2.02,0-3.09,1.07-3.09,3.09,0,11.66,0,23.32,0,34.98,0,1.92,1.1,3.02,3.01,3.02,3.36,0,6.73,0,10.09,0,5.39,0,10.78,0,16.17,0,1.68,0,2.88-1.07,2.9-2.66.03-2.86.01-5.72,0-8.57,0-.09-.04-.18-.08-.4Zm6.11-8.9c-.91-.88-1.91-1.79-2.84-2.78-.51-.54-.81-.6-1.37-.03-2.88,2.95-5.81,5.84-8.72,8.76-.71.71-1.41,1.43-2.07,2.1,1.23,1.21,2.39,2.36,3.53,3.48,3.76-3.78,7.56-7.6,11.48-11.53Zm-13.18-19c0,1.75,0,3.43,0,5.12,0,.49.27.51.64.51,1.34,0,2.68,0,4.02,0,.33,0,.66,0,.95,0-1.88-1.89-3.7-3.72-5.59-5.63Zm14.64,17.89c.55-.59,1.09-1.15,1.62-1.73.38-.41.43-.86.02-1.28-.77-.79-1.53-1.61-2.37-2.33-.23-.2-.85-.29-1.06-.12-.69.53-1.27,1.19-1.87,1.78,1.23,1.23,2.38,2.39,3.66,3.68Zm-17.42,11.14c-.29,1.12-.58,2.22-.91,3.49,1.29-.36,2.36-.65,3.42-.95-.86-.87-1.64-1.66-2.51-2.55Z"/>
      <path d="m335.48,703.43c3.11,0,6.22,0,9.33,0,.23,0,.52-.07.67.04.27.21.63.52.63.8,0,.28-.33.61-.6.82-.17.13-.49.07-.74.07-6.19,0-12.38,0-18.58,0-.2,0-.41,0-.6-.03-.49-.08-.8-.37-.78-.87.02-.49.31-.79.82-.83.23-.02.45-.01.68-.01,3.06,0,6.12,0,9.17,0Z"/>
      <path d="m335.44,699.8c-3.16,0-6.32.02-9.47-.02-.37,0-.84-.23-1.06-.51-.34-.44.05-1.07.64-1.17.27-.04.55-.03.83-.03,6.09,0,12.18,0,18.26,0,.15,0,.3,0,.45,0,.59-.02,1.03.22,1.04.84.01.67-.46.89-1.07.89-3.21,0-6.42,0-9.62,0Z"/>
      <path d="m332.37,710.52c-2.1,0-4.2,0-6.3,0-.25,0-.57.03-.73-.11-.24-.21-.52-.55-.5-.82.02-.27.35-.56.61-.75.16-.11.44-.06.67-.06,4.17,0,8.34,0,12.51,0,.05,0,.1,0,.15,0,.6-.01,1.09.16,1.09.86,0,.69-.47.89-1.07.89-1.06,0-2.12,0-3.19,0-1.09,0-2.17,0-3.26,0h0Z"/>
      <path d="m330.55,715.87c-1.54,0-3.08,0-4.62,0-.6,0-1.1-.18-1.11-.85-.01-.68.47-.88,1.08-.88,3.11,0,6.22,0,9.32,0,.59,0,1.08.12,1.1.84.02.59-.35.88-1.14.88-1.54,0-3.08,0-4.62,0,0,0,0,0,0,0Z"/>
    </g>
  </g>
  <g>
    <path class="cls-6" d="m321.9,738.31h-3.02l-.69,1.62h-1.5l3.06-7.1h1.29l3.07,7.1h-1.52l-.69-1.62Zm-.53-1.27l-.98-2.31-.98,2.31h1.96Z"/>
    <path class="cls-6" d="m327.49,732.83c1.99-.04,3.69,1.62,3.65,3.55.04,1.93-1.66,3.59-3.65,3.55h-2.34v-7.1h2.34Zm0,1.33h-.89v4.44h.89c1.29,0,2.19-.99,2.19-2.22s-.9-2.22-2.19-2.22Z"/>
    <path class="cls-6" d="m338.66,732.83l-2.94,7.1h-1.29l-2.93-7.1h1.57l2.01,4.93,1.98-4.93h1.6Z"/>
    <path class="cls-6" d="m341.17,732.83v7.1h-1.45v-7.1h1.45Z"/>
    <path class="cls-6" d="m349.75,737.51c-.38,1.49-1.84,2.54-3.44,2.54-2.11.04-3.76-1.64-3.72-3.67-.04-2.03,1.61-3.71,3.72-3.67,1.6,0,3.06,1.05,3.44,2.54h-1.57c-.29-.69-1.06-1.14-1.87-1.14-1.33,0-2.26,1-2.26,2.27s.93,2.27,2.26,2.27c.81,0,1.58-.45,1.87-1.14h1.57Z"/>
    <path class="cls-6" d="m355.47,732.83v1.38h-2.97v1.46h2.37v1.38h-2.37v1.5h2.97v1.38h-4.42v-7.1h4.42Z"/>
  </g>
  <g>
    <g id="f30c7K">
      <path d="m505.94,563.53c-1.01,1.14-2.01,2.12-2.85,3.23-2.34,3.09-3.54,6.6-3.71,10.47,0,.09,0,.18,0,.28-.06,1.05-.45,1.54-1.21,1.49-.7-.05-1.08-.56-1.03-1.55.41-8.16,4.12-14.38,11.37-18.12,12.8-6.59,27.8.99,30.35,15.16.18,1.02.2,2.07.27,3.1.05.76-.21,1.34-1.08,1.4-.7.05-1.12-.43-1.14-1.35-.1-3.74-1.12-7.19-3.28-10.24-.96-1.35-2.13-2.55-3.33-3.97-1.08,2.68-3.17,3.62-5.42,4.25-4.74,1.33-9.49,1.29-14.2-.23-2.4-.78-3.41-1.62-4.73-3.91Zm17.79-2.52c-.03-.73-.65-1.03-1.3-1.24-2.17-.69-4.4-.65-6.62-.39-.81.09-1.61.33-2.38.6-.61.22-1.07.66-.8,1.41.25.69.81.89,1.48.73,2.75-.67,5.48-.81,8.23.03.72.22,1.38-.34,1.4-1.15Z"/>
    </g>
    <g>
      <path class="cls-6" d="m497.58,591.53c-1.63.03-2.68-1.13-2.72-2.32h1.44c.09.61.63.98,1.28.98.59,0,1.01-.28,1.01-.72,0-.39-.31-.68-.94-.86l-.76-.22c-1.16-.33-1.85-1.05-1.86-2.1,0-.65.22-1.16.65-1.53.43-.38,1.01-.57,1.73-.57,1.47-.02,2.45,1.08,2.49,2.16h-1.43c-.16-.56-.59-.82-1.06-.82-.53,0-.92.27-.92.68s.29.66.89.83l.84.23c1.16.33,1.84,1.07,1.84,2.15,0,1.2-1.01,2.11-2.48,2.11Z"/>
      <path class="cls-6" d="m508.24,588.99c-.38,1.49-1.84,2.54-3.44,2.54-2.11.04-3.76-1.64-3.72-3.67-.04-2.03,1.61-3.71,3.72-3.67,1.6,0,3.06,1.05,3.44,2.54h-1.57c-.29-.69-1.06-1.14-1.87-1.14-1.33,0-2.26,1-2.26,2.27s.93,2.27,2.26,2.27c.81,0,1.58-.45,1.87-1.14h1.57Z"/>
      <path class="cls-6" d="m510.99,584.31v5.72h3.04v1.38h-4.49v-7.1h1.45Z"/>
      <path class="cls-6" d="m519.72,584.31v1.38h-2.97v1.46h2.37v1.38h-2.37v1.5h2.97v1.38h-4.42v-7.1h4.42Z"/>
      <path class="cls-6" d="m525.47,591.41l-2.43-2.99h-.36v2.99h-1.45v-7.1h2.72c1.31,0,2.18.91,2.18,2.1,0,.92-.49,1.54-1.46,1.85l2.55,3.15h-1.75Zm-1.69-4.23c.55,0,.91-.29.91-.77s-.36-.77-.91-.77h-1.1v1.54h1.1Z"/>
      <path class="cls-6" d="m532.47,589.79h-3.02l-.69,1.62h-1.5l3.06-7.1h1.29l3.07,7.1h-1.52l-.69-1.62Zm-.53-1.27l-.98-2.31-.98,2.31h1.96Z"/>
      <path class="cls-6" d="m537.17,584.31v5.72h3.04v1.38h-4.49v-7.1h1.45Z"/>
      <path class="cls-6" d="m500.61,594.31v5.72h3.04v1.38h-4.49v-7.1h1.45Z"/>
      <path class="cls-6" d="m509.34,594.31v1.38h-2.97v1.46h2.37v1.38h-2.37v1.5h2.97v1.38h-4.42v-7.1h4.42Z"/>
      <path class="cls-6" d="m517.19,594.31v7.1h-1.25l-3.64-4.63v4.63h-1.45v-7.1h1.25l3.64,4.63v-4.63h1.45Z"/>
      <path class="cls-6" d="m521.3,601.53c-1.63.03-2.68-1.13-2.72-2.32h1.44c.09.61.63.98,1.28.98.59,0,1.01-.28,1.01-.72,0-.39-.31-.68-.94-.86l-.76-.22c-1.16-.33-1.85-1.05-1.86-2.1,0-.65.22-1.16.65-1.53.43-.38,1.01-.57,1.73-.57,1.47-.02,2.45,1.08,2.49,2.16h-1.43c-.16-.56-.59-.82-1.06-.82-.53,0-.92.27-.92.68s.29.66.89.83l.84.23c1.16.33,1.84,1.07,1.84,2.15,0,1.2-1.01,2.11-2.48,2.11Z"/>
      <path class="cls-6" d="m529.63,594.31v1.38h-2.97v1.46h2.37v1.38h-2.37v1.5h2.97v1.38h-4.42v-7.1h4.42Z"/>
      <path class="cls-6" d="m533.42,601.53c-1.63.03-2.68-1.13-2.72-2.32h1.44c.09.61.63.98,1.28.98.59,0,1.01-.28,1.01-.72,0-.39-.31-.68-.94-.86l-.76-.22c-1.16-.33-1.85-1.05-1.86-2.1,0-.65.22-1.16.65-1.53.43-.38,1.01-.57,1.73-.57,1.47-.02,2.45,1.08,2.49,2.16h-1.43c-.16-.56-.59-.82-1.06-.82-.53,0-.92.27-.92.68s.29.66.89.83l.84.23c1.16.33,1.84,1.07,1.84,2.15,0,1.2-1.01,2.11-2.48,2.11Z"/>
    </g>
  </g>
  <g>
    <path class="cls-6" d="m402.68,489.75v2.32h-1.45v-7.1h2.36c1.43,0,2.49,1.04,2.49,2.39s-1.06,2.39-2.49,2.39h-.91Zm0-3.42v2.06h.89c.65,0,1.1-.44,1.1-1.03s-.45-1.03-1.1-1.03h-.89Z"/>
    <path class="cls-6" d="m407.32,484.97h1.45v4.32c0,.93.57,1.5,1.44,1.5s1.44-.57,1.44-1.5v-4.32h1.45v4.3c0,1.76-1.21,2.92-2.89,2.92s-2.89-1.16-2.89-2.92v-4.3Z"/>
    <path class="cls-6" d="m421.18,484.97v7.1h-1.25l-3.64-4.63v4.63h-1.45v-7.1h1.25l3.64,4.63v-4.63h1.45Z"/>
    <path class="cls-6" d="m429.76,489.65c-.38,1.49-1.84,2.54-3.44,2.54-2.11.04-3.76-1.64-3.72-3.67-.04-2.03,1.61-3.71,3.72-3.67,1.6,0,3.06,1.05,3.44,2.54h-1.57c-.29-.69-1.06-1.14-1.87-1.14-1.33,0-2.26,1-2.26,2.27s.93,2.27,2.26,2.27c.81,0,1.58-.45,1.87-1.14h1.57Z"/>
    <path class="cls-6" d="m430.39,486.35v-1.38h5.26v1.38h-1.91v5.72h-1.46v-5.72h-1.89Z"/>
    <path class="cls-6" d="m440.62,490.45h-3.02l-.69,1.62h-1.5l3.06-7.1h1.29l3.07,7.1h-1.52l-.69-1.62Zm-.53-1.27l-.98-2.31-.98,2.31h1.96Z"/>
    <path class="cls-6" d="m445.32,484.97v5.72h3.04v1.38h-4.49v-7.1h1.45Z"/>
    <path class="cls-6" d="m453.3,489.75v2.32h-1.45v-7.1h2.36c1.43,0,2.49,1.04,2.49,2.39s-1.06,2.39-2.49,2.39h-.91Zm0-3.42v2.06h.89c.65,0,1.1-.44,1.1-1.03s-.45-1.03-1.1-1.03h-.89Z"/>
    <path class="cls-6" d="m459.46,484.97v5.72h3.04v1.38h-4.49v-7.1h1.45Z"/>
    <path class="cls-6" d="m463.44,484.97h1.45v4.32c0,.93.57,1.5,1.44,1.5s1.44-.57,1.44-1.5v-4.32h1.45v4.3c0,1.76-1.21,2.92-2.89,2.92s-2.89-1.16-2.89-2.92v-4.3Z"/>
    <path class="cls-6" d="m474.3,492.19c-2.12.04-3.77-1.64-3.74-3.67-.04-2.03,1.61-3.71,3.72-3.67,1.49,0,2.87.89,3.35,2.22h-1.66c-.35-.51-1-.82-1.69-.82-1.33,0-2.26,1-2.26,2.27s.93,2.27,2.28,2.27c1.13,0,1.84-.61,2-1.61h-2.17v-1.36h3.67c.03.21.04.44.04.68.03,2.39-1.58,3.71-3.54,3.69Z"/>
    <path class="cls-6" d="m481.55,492.19c-1.63.03-2.68-1.13-2.72-2.32h1.44c.09.61.63.98,1.28.98.59,0,1.01-.28,1.01-.72,0-.39-.31-.68-.94-.86l-.76-.22c-1.16-.33-1.85-1.05-1.86-2.1,0-.65.22-1.16.65-1.53.43-.38,1.01-.57,1.73-.57,1.47-.02,2.45,1.08,2.49,2.16h-1.43c-.16-.56-.59-.82-1.06-.82-.53,0-.92.27-.92.68s.29.66.89.83l.84.23c1.16.33,1.84,1.07,1.84,2.15,0,1.2-1.01,2.11-2.48,2.11Z"/>
  </g>
  <g>
    <path class="cls-7" d="m185.52,592.02l5.33,7.68-1.57,1.09-3.47-5-.11,4.87-4.61-1.6,3.47,5-1.57,1.09-5.33-7.68,1.43-.99,4.87,1.68.13-5.15,1.43-.99Z"/>
    <path class="cls-7" d="m189.07,589.55l5.33,7.68-1.57,1.09-5.33-7.68,1.57-1.09Z"/>
    <path class="cls-7" d="m192.62,587.08l4.3,6.19,3.29-2.28,1.04,1.49-4.86,3.37-5.33-7.68,1.57-1.09Z"/>
    <path class="cls-7" d="m199.82,582.09c2.12-1.54,5.21-1.02,6.62,1.1,1.49,2.06.9,5.13-1.28,6.58l-2.53,1.76-5.33-7.68,2.53-1.76Zm1,1.44l-.96.67,3.34,4.8.96-.67c1.4-.97,1.63-2.72.7-4.05s-2.64-1.73-4.04-.76Z"/>
  </g>
  <g>
    <path class="cls-7" d="m273.75,516.23l5.21,7.89-1.61,1.06-3.39-5.14-.23,4.92-4.62-1.73,3.39,5.14-1.61,1.06-5.21-7.89,1.47-.97,4.89,1.82.25-5.21,1.47-.97Z"/>
    <path class="cls-7" d="m279.32,512.37c2.17-1.5,5.36-.84,6.77,1.39,1.5,2.17.84,5.37-1.39,6.77-2.17,1.5-5.37.84-6.77-1.39-1.5-2.17-.84-5.36,1.39-6.77Zm1.03,1.56c-1.37.85-1.7,2.81-.79,4.15.86,1.36,2.8,1.82,4.12.9,1.37-.85,1.7-2.81.79-4.14-.87-1.36-2.8-1.82-4.12-.9Z"/>
    <path class="cls-7" d="m287.66,507.05c2.18-1.5,5.29-.91,6.66,1.27,1.46,2.12.79,5.21-1.46,6.63l-2.6,1.72-5.21-7.89,2.6-1.72Zm.98,1.48l-.99.65,3.26,4.94.99-.65c1.44-.95,1.71-2.71.81-4.08s-2.63-1.81-4.06-.86Z"/>
    <path class="cls-7" d="m298.22,500.09l1.01,1.53-3.3,2.18,1.07,1.62,2.63-1.74,1.01,1.54-2.63,1.74,1.1,1.67,3.3-2.18,1.01,1.53-4.91,3.24-5.21-7.89,4.91-3.24Z"/>
    <path class="cls-7" d="m309.82,503.76l-4.9-1.54-.4.26,2.19,3.32-1.61,1.06-5.21-7.89,3.02-1.99c1.46-.96,3.09-.59,3.96.74.67,1.02.59,2.07-.27,3.13l5.15,1.63-1.95,1.28Zm-4.98-3.46c.61-.4.8-.99.45-1.52s-.97-.59-1.58-.19l-1.22.81,1.13,1.71,1.22-.81Z"/>
    <path class="cls-7" d="m316.42,496.83l-3.36,2.21.42,2.31-1.67,1.1-1.8-10.14,1.43-.95,8.62,5.64-1.69,1.11-1.96-1.29Zm-1.52-1.02l-2.78-1.85.6,3.29,2.18-1.44Z"/>
    <path class="cls-7" d="m315.62,490.81l-1.01-1.53,5.85-3.86,1.01,1.53-2.12,1.4,4.2,6.36-1.62,1.07-4.2-6.36-2.1,1.39Z"/>
    <path class="cls-7" d="m326.77,481.26l1.01,1.53-3.3,2.18,1.07,1.62,2.64-1.74,1.01,1.54-2.64,1.74,1.1,1.67,3.3-2.18,1.01,1.53-4.91,3.24-5.21-7.89,4.91-3.24Z"/>
  </g>
  <g>
    <path class="cls-7" d="m386.14,458.22c-1.83,1.28-3.91.76-4.86-.56l1.64-1.1c.57.63,1.46.63,2.2.14.67-.45.94-1.09.6-1.59-.3-.44-.87-.54-1.72-.26l-1.03.33c-1.57.51-2.9.22-3.71-.97-.5-.74-.63-1.49-.43-2.23.2-.76.71-1.42,1.53-1.97,1.65-1.14,3.61-.64,4.48.56l-1.62,1.09c-.61-.51-1.3-.48-1.83-.12-.6.4-.84,1.01-.53,1.47s.83.53,1.64.27l1.13-.38c1.57-.51,2.91-.19,3.73,1.04.91,1.36.46,3.17-1.21,4.29Z"/>
    <path class="cls-7" d="m390.11,443.66l1.05,1.57-3.38,2.26,1.11,1.66,2.69-1.81,1.05,1.57-2.69,1.81,1.14,1.7,3.38-2.26,1.05,1.57-5.02,3.37-5.41-8.07,5.02-3.37Z"/>
    <path class="cls-7" d="m399.1,437.63l2.07,10.31-1.47.98-8.74-5.84,1.78-1.2,6.04,4.07-1.51-7.11,1.82-1.22Z"/>
    <path class="cls-7" d="m405.33,433.45l1.05,1.57-3.37,2.26,1.11,1.66,2.69-1.81,1.05,1.57-2.69,1.81,1.14,1.7,3.37-2.26,1.05,1.57-5.02,3.37-5.41-8.07,5.02-3.37Z"/>
    <path class="cls-7" d="m417.28,437.13l-5.04-1.55-.41.27,2.28,3.4-1.65,1.11-5.41-8.07,3.09-2.07c1.49-1,3.17-.63,4.08.72.7,1.04.62,2.12-.25,3.21l5.3,1.64-1.99,1.33Zm-5.14-3.52c.63-.42.81-1.02.45-1.57s-1-.6-1.62-.18l-1.25.84,1.17,1.75,1.25-.84Z"/>
    <path class="cls-7" d="m419.81,423.73l1.05,1.57-3.38,2.26,1.11,1.66,2.69-1.81,1.05,1.57-2.69,1.81,1.14,1.7,3.38-2.26,1.05,1.57-5.02,3.37-5.41-8.07,5.02-3.37Z"/>
  </g>
  <g>
    <g id="vQDaor">
      <g>
        <path d="m681.38,595.56c.54,5.17,3.53,8.83,7.33,12.02-4.47-1.65-7.24-4.93-8.98-9.36-.39.47-.69.84-1,1.21-3.81,4.46-8.63,7.43-14.02,9.57-2.86,1.14-5.85,1.83-8.91,2.14-.78.08-.93.37-.88,1.08.59,7.38,2.95,14.11,7.43,20.02,1.58,2.08,3.46,3.88,5.86,5.04,4.7,2.26,9.08,1.58,13.19-1.44,2.11-1.55,3.8-3.53,5.35-5.63.19-.26.39-.51.65-.86.03.2.08.28.05.33-2.25,4.58-5.39,8.3-10.41,9.87-5.18,1.62-9.75.18-13.75-3.34-3.3-2.91-5.48-6.58-7.19-10.56-1.87-4.36-3.06-8.9-3.28-13.65-.39-8.57,4.57-15.94,12.76-19.11,8.79-3.4,18.86-.6,24.47,6.82,1.78,2.35,2.97,4.99,3.39,7.91.12.84-.09,1.73-.21,2.59-.03.23-.29.42-.44.63-.18-.18-.45-.32-.53-.54-.32-.81-.66-1.63-.85-2.48-1.2-5.52-4.36-9.51-9.32-12.13-.14-.08-.3-.14-.45-.19-.04-.01-.1.02-.26.05Zm-26.4,13.56c.62-.06,1.03-.09,1.43-.14,5.72-.79,10.9-2.92,15.6-6.25,2.67-1.9,5.06-4.09,6.74-6.96.21-.36.36-.76.6-1.28-6.27-1.74-12.01-1.06-17.24,2.65-4.07,2.88-6.44,6.85-7.13,11.99Z"/>
        <circle cx="666.28" cy="617.52" r="2.02"/>
        <g id="ToAuOY">
          <path d="m685.37,625.73c-.42-.17-.81-.32-1.19-.48-1.95-.78-3.91-1.56-5.86-2.35-2.05-.83-2.47-2.87-.92-4.44.04-.04.06-.09.13-.17-.79-.93-1.1-1.97-.5-3.12.6-1.14,1.64-1.5,2.93-1.33-.03-1.15.35-2.05,1.34-2.61.98-.55,1.94-.3,2.94.17.04-.22.08-.37.11-.52.25-1.45,1.65-2.24,3.01-1.69,3.4,1.36,6.79,2.73,10.19,4.08,1.7.68,3.28,1.58,4.57,2.88,1.39,1.4,2.97,2.4,4.84,2.99.31.1.61.24.92.37.42.17.53.47.38.89-.04.1-.08.21-.12.31-1.34,3.35-2.68,6.69-4.02,10.04-.34.85-.52.92-1.36.59-1-.4-2.02-.78-3-1.22-.25-.11-.47-.42-.59-.69-.16-.35-.63-.6-.9-.35-2.23,2.06-4.89,2.12-7.63,1.56-1.53-.31-2.98-.12-4.44.27-.58.16-1.16.32-1.76.44-.68.13-1.11-.09-1.47-.69-.64-1.06-.38-2.67.67-3.66.5-.47,1.11-.81,1.73-1.26Zm7.09-13.11h0c-1.87-.75-3.74-1.5-5.61-2.25-.5-.2-.98.02-1.2.53-.22.52-.03,1.06.49,1.27,1.17.48,2.34.94,3.52,1.41.14.05.27.1.41.17.35.17.49.45.36.81-.14.36-.44.47-.81.37-.16-.04-.31-.11-.46-.17-2.02-.81-4.04-1.62-6.06-2.43-.76-.3-1.45-.03-1.74.66-.29.69,0,1.37.74,1.71.18.09.37.16.56.23,1.7.68,3.4,1.36,5.1,2.04.61.24.81.54.63.95-.17.4-.51.47-1.13.22-.12-.05-.24-.1-.36-.14-2.26-.91-4.52-1.81-6.78-2.72-.14-.05-.27-.12-.41-.16-.65-.2-1.29.08-1.57.67-.29.61-.08,1.31.51,1.67.19.11.4.19.6.27,2.31.93,4.62,1.85,6.93,2.78.14.05.27.1.41.17.34.17.5.43.36.8-.14.36-.43.48-.8.36-.17-.05-.34-.13-.51-.19-2-.8-4.01-1.61-6.01-2.41-.66-.26-1.3-.06-1.65.48-.33.51-.27,1.2.18,1.61.2.18.46.3.71.4,3.43,1.38,6.86,2.75,10.3,4.12.65.26,1.11.69,1.42,1.3.21.4.2.77-.22.99-.4.22-.67,0-.91-.35-.19-.27-.42-.58-.71-.73-1.29-.66-3.37-.19-4.31.91-.38.45-.58.97-.52,1.57.04.36.19.58.62.45.38-.12.78-.2,1.17-.31,1.82-.53,3.65-.76,5.52-.26.47.13.98.15,1.47.16,1.93.05,3.72-.28,5.05-1.87.14-.16.52-.18.78-.17.21,0,.42.13.61.23.4.22.6.1.76-.32.93-2.37,1.89-4.72,2.83-7.08.19-.47.54-1,.46-1.43-.08-.39-.65-.69-.99-1.03-1.72-1.72-3.71-3.01-6.01-3.83-1.26-.45-2.48-.99-3.72-1.48Zm10.45,17.39c.1-.08.12-.09.13-.1,1.22-3.03,2.45-6.07,3.67-9.1.11-.27.01-.4-.24-.5-.5-.19-1-.37-1.47-.6-.45-.22-.63-.08-.8.36-.99,2.52-2,5.03-3.01,7.54-.15.37-.32.74-.43,1.13-.04.13.05.41.15.46.66.3,1.35.56,2,.82Z"/>
        </g>
        <polyline class="cls-3" points="686.08 609.54 674.22 609.54 674.22 623.96 682.28 623.96"/>
      </g>
    </g>
    <path class="cls-2" d="m677.8,630.58s-6.79,3.21-8.49-2.41"/>
  </g>
  <g id="_7CRXi9" data-name="7CRXi9">
    <path d="m597.5,696.16c-1.16-.26-2.3-.71-3.16-1.55-.48-.46-.69-1.09-.72-1.74-.03-.58.23-1.13.59-1.57-.06-.06-.14-.11-.2-.18-.98-.97-.9-2.5,0-3.48.63-.68,1.61-.84,2.47-.58-.01-.11-.03-.22-.03-.33v-.17c0-.44.11-.86.34-1.24.13-.17.26-.33.39-.5.31-.31.67-.52,1.09-.63.22-.03.44-.06.66-.09.34-.01.66.06.95.21.24.08.44.21.63.37.05-.3.13-.59.29-.86.13-.17.26-.33.39-.5.31-.31.67-.52,1.09-.63.22-.03.44-.06.65-.09.12,0,.24.01.36.03-1.45-4.36-5.81-8.39-12.09-8.71-8.6-.43-17.2-.83-25.81-1.16-3.18-.12-5.86,1.09-8.07,3.04-4.43,3.92-5.33,10.18-2.22,15.11,1.98,3.14,4.82,5.29,9.09,5.1,2.29-.1,4.76-.45,6.76-1.35,4.1-1.85,7.63-1.62,11.31.79,2.99,1.96,6.43,3.26,10.31,2.86,2.13-.22,4.07-.92,5.72-1.99-.26-.05-.51-.1-.77-.16Z"/>
  </g>
  <g id="ToAuOY-2" data-name="ToAuOY">
    <path d="m601.25,698.23c-.42-.17-.81-.32-1.19-.48-1.95-.78-3.91-1.56-5.86-2.35-2.05-.83-2.47-2.87-.92-4.44.04-.04.06-.09.13-.17-.79-.93-1.1-1.97-.5-3.12.6-1.14,1.64-1.5,2.93-1.33-.03-1.15.35-2.05,1.34-2.61.98-.55,1.94-.3,2.94.17.04-.22.08-.37.11-.52.25-1.45,1.65-2.24,3.01-1.69,3.4,1.36,6.79,2.73,10.19,4.08,1.7.68,3.28,1.58,4.57,2.88,1.39,1.4,2.97,2.4,4.84,2.99.31.1.61.24.92.37.42.17.53.47.38.89-.04.1-.08.21-.12.31-1.34,3.35-2.68,6.69-4.02,10.04-.34.85-.52.92-1.36.59-1-.4-2.02-.78-3-1.22-.25-.11-.47-.42-.59-.69-.16-.35-.63-.6-.9-.35-2.23,2.06-4.89,2.12-7.63,1.56-1.53-.31-2.98-.12-4.44.27-.58.16-1.16.32-1.76.44-.68.13-1.11-.09-1.47-.69-.64-1.06-.38-2.67.67-3.66.5-.47,1.11-.81,1.73-1.26Zm7.09-13.11h0c-1.87-.75-3.74-1.5-5.61-2.25-.5-.2-.98.02-1.2.53-.22.52-.03,1.06.49,1.27,1.17.48,2.34.94,3.52,1.41.14.05.27.1.41.17.35.17.49.45.36.81-.14.36-.44.47-.81.37-.16-.04-.31-.11-.46-.17-2.02-.81-4.04-1.62-6.06-2.43-.76-.3-1.45-.03-1.74.66-.29.69,0,1.37.74,1.71.18.09.37.16.56.23,1.7.68,3.4,1.36,5.1,2.04.61.24.81.54.63.95-.17.4-.51.47-1.13.22-.12-.05-.24-.1-.36-.14-2.26-.91-4.52-1.81-6.78-2.72-.14-.05-.27-.12-.41-.16-.65-.2-1.29.08-1.57.67-.29.61-.08,1.31.51,1.67.19.11.4.19.6.27,2.31.93,4.62,1.85,6.93,2.78.14.05.27.1.41.17.34.17.5.43.36.8-.14.36-.43.48-.8.36-.17-.05-.34-.13-.51-.19-2-.8-4.01-1.61-6.01-2.41-.66-.26-1.3-.06-1.65.48-.33.51-.27,1.2.18,1.61.2.18.46.3.71.4,3.43,1.38,6.86,2.75,10.3,4.12.65.26,1.11.69,1.42,1.3.21.4.2.77-.22.99-.4.22-.67,0-.91-.35-.19-.27-.42-.58-.71-.73-1.29-.66-3.37-.19-4.31.91-.38.45-.58.97-.52,1.57.04.36.19.58.62.45.38-.12.78-.2,1.17-.31,1.82-.53,3.65-.76,5.52-.26.47.13.98.15,1.47.16,1.93.05,3.72-.28,5.05-1.87.14-.16.52-.18.78-.17.21,0,.42.13.61.23.4.22.6.1.76-.32.93-2.37,1.89-4.72,2.83-7.08.19-.47.54-1,.46-1.43-.08-.39-.65-.69-.99-1.03-1.72-1.72-3.71-3.01-6.01-3.83-1.26-.45-2.48-.99-3.72-1.48Zm10.45,17.39c.1-.08.12-.09.13-.1,1.22-3.03,2.45-6.07,3.67-9.1.11-.27.01-.4-.24-.5-.5-.19-1-.37-1.47-.6-.45-.22-.63-.08-.8.36-.99,2.52-2,5.03-3.01,7.54-.15.37-.32.74-.43,1.13-.04.13.05.41.15.46.66.3,1.35.56,2,.82Z"/>
  </g>
  <g>
    <path class="cls-1" d="m594.41,661.64s-5.89,1.5-1.78,4.66c4.11,3.16-1.3,5.32-1.3,5.32"/>
    <path class="cls-1" d="m597.87,664.73s-3.1.93-.94,2.9-.68,3.31-.68,3.31"/>
    <path class="cls-1" d="m589.88,666.13s-2.08.62-.63,1.94-.46,2.22-.46,2.22"/>
  </g>
  <g>
    <path class="cls-1" d="m570.03,660.31s-5.89,1.5-1.78,4.66c4.11,3.16-1.3,5.32-1.3,5.32"/>
    <path class="cls-1" d="m573.5,663.4s-3.1.93-.94,2.9-.68,3.31-.68,3.31"/>
    <path class="cls-1" d="m565.5,664.79s-2.08.62-.63,1.94c1.45,1.32-.46,2.22-.46,2.22"/>
  </g>
  <g>
    <path class="cls-8" d="m284.33,806.98l-7.48,20.45-7.42-2.72,12.13-33.15,6.77,2.48,5.14,18.08,15.59-10.49,6.77,2.48-12.13,33.15-7.47-2.73,7.48-20.45-14.57,9.86-4.81-16.95Z"/>
    <path class="cls-8" d="m336.25,809.62l6.94,1.76,6,37.92-8-2.02-1.21-8-14.17-3.58-4.86,6.46-8-2.02,23.31-30.51Zm2.61,22.3l-1.68-11.4-6.9,9.23,8.58,2.17Z"/>
    <path class="cls-8" d="m383.39,854.79l-13.75-24.14-3.25,21.58-7.82-1.18,5.26-34.9,6.73,1.02,13.71,24.09,3.25-21.53,7.86,1.19-5.26,34.9-6.73-1.02Z"/>
    <path class="cls-8" d="m416.55,822.41l7.15.37,13.29,36.03-8.24-.42-2.75-7.61-14.6-.75-3.51,7.29-8.24-.42,16.9-34.48Zm6.92,21.36l-3.87-10.85-4.96,10.4,8.84.45Z"/>
    <path class="cls-8" d="m442.16,841.17c-.45-10.23,6.95-18.57,17.72-19.04,7.15-.31,14.29,3.55,17.07,10.3l-9.09.4c-1.79-2.16-4.82-3.17-7.65-3.05-6.46.28-10.37,5.13-10.11,11.04.26,5.91,4.59,10.4,11.14,10.11,5.26-.23,8.18-3,8.83-7.31l-10.13.45-.33-7.4,18.33-.8c2.39,14.87-5.79,22.25-16.37,22.71-10.88.48-18.97-7.18-19.42-17.41Z"/>
    <path class="cls-8" d="m485.66,820.9l22.18-2.93.99,7.49-14.34,1.89.83,6.26,11.39-1.5.99,7.49-11.39,1.5.83,6.26,14.34-1.9.99,7.49-22.18,2.93-4.62-35Z"/>
    <path class="cls-8" d="m526.83,828.24l4.79,21.24-7.71,1.74-7.77-34.43,7.03-1.59,14.11,12.41,7.42-17.27,7.03-1.59,7.77,34.43-7.76,1.75-4.79-21.24-6.9,16.18-13.23-11.64Z"/>
    <path class="cls-8" d="m561.25,805.77l21.28-6.9,2.33,7.19-13.76,4.46,1.95,6,10.92-3.54,2.33,7.19-10.92,3.54,1.95,6.01,13.76-4.46,2.33,7.19-21.28,6.9-10.89-33.58Z"/>
    <path class="cls-8" d="m627.5,818.74l-24.35-13.38,8.52,20.09-7.28,3.08-13.78-32.5,6.27-2.66,24.29,13.35-8.5-20.05,7.32-3.1,13.78,32.5-6.27,2.66Z"/>
    <path class="cls-8" d="m638.09,782.73l-7.95,4.23-3.55-6.67,23-12.24,3.55,6.67-8.03,4.27,13.03,24.5-7.02,3.74-13.03-24.5Z"/>
  </g>
  <g>
    <path class="cls-5" d="m510.69,552.81c2.55-4.1,12.08-4.12,15.05,0h2.43s0-.01-.01-.02c-3.2-3.75-7.01-5.4-11.38-4.9-3.3.37-6.14,2.06-8.5,4.92h2.41Z"/>
    <path class="cls-5" d="m533.51,555.05c-.23,0-.45-.09-.62-.27-2.13-2.29-6.61-1.99-6.65-1.98-.47.04-.87-.31-.9-.78-.04-.46.31-.87.78-.91.22-.02,5.32-.37,8.02,2.51.32.34.3.88-.04,1.19-.16.15-.37.23-.58.23Z"/>
    <path class="cls-5" d="m502.75,555.05c-.21,0-.41-.08-.58-.23-.34-.32-.36-.85-.04-1.19,2.69-2.89,7.8-2.53,8.02-2.51.46.04.81.44.78.91-.03.47-.42.82-.9.78-.04,0-4.52-.31-6.65,1.98-.17.18-.39.27-.62.27Z"/>
  </g>
  <path class="cls-4" d="m447.55,440.36l-8.04-5.31s4.62-6.02,16.67-.51c12.07,5.53,10.03,12.58,10.03,12.58l-8.33-1.87-9.01,16.5s-.41,1.21,1.06,2.04c.68.38,3.04,1.44,3.44,1.62,1.45.64,2.89,2.76.47,3.87-3.68,1.68-15.01,6.04-15.01,6.04,0,0-3.36,1.45-4.8-2.08-1.45-3.53-4.63-14.62-4.63-14.62,0,0-.43-4.04,3.53-2.64l4,1.96s1.53.98,2.64-.89,7.99-16.67,7.99-16.67Z"/>
</svg>