<?xml version="1.0" encoding="UTF-8"?>
<svg id="Layer_1" data-name="Layer 1" xmlns="http://www.w3.org/2000/svg" xmlns:xlink="http://www.w3.org/1999/xlink" viewBox="0 0 892.14 858.81">
  <defs>
    <style>
      .cls-1, .cls-2, .cls-3, .cls-4, .cls-5, .cls-6, .cls-7, .cls-8, .cls-9, .cls-10 {
        fill: none;
      }

      .cls-2 {
        stroke: #241f20;
        stroke-width: 1.5px;
      }

      .cls-2, .cls-3, .cls-4, .cls-5, .cls-6, .cls-9, .cls-10 {
        stroke-linecap: round;
      }

      .cls-2, .cls-11, .cls-7, .cls-8 {
        stroke-miterlimit: 10;
      }

      .cls-3 {
        stroke-width: .75px;
      }

      .cls-3, .cls-4, .cls-5, .cls-6, .cls-9, .cls-10 {
        stroke-linejoin: round;
      }

      .cls-3, .cls-11, .cls-5, .cls-6, .cls-7, .cls-8, .cls-10 {
        stroke: #000;
      }

      .cls-12 {
        fill: #010101;
      }

      .cls-13 {
        fill: #fff;
      }

      .cls-14 {
        fill: #a6a8ac;
      }

      .cls-15 {
        fill: url(#New_Gradient_Swatch_3);
      }

      .cls-16 {
        fill: url(#New_Gradient_Swatch_1);
      }

      .cls-17 {
        fill: url(#New_Gradient_Swatch_4);
      }

      .cls-4, .cls-9 {
        stroke: #fff;
        stroke-width: 2px;
      }

      .cls-11 {
        stroke-width: .5px;
      }

      .cls-5, .cls-6 {
        stroke-width: .25px;
      }

      .cls-6 {
        stroke-dasharray: 0 0 2.02 2.02;
      }

      .cls-7 {
        stroke-width: 4px;
      }

      .cls-18 {
        fill: url(#New_Gradient_Swatch_4-2);
      }

      .cls-19 {
        fill: url(#New_Gradient_Swatch_3-5);
      }

      .cls-20 {
        fill: url(#New_Gradient_Swatch_3-2);
      }

      .cls-21 {
        fill: url(#New_Gradient_Swatch_3-6);
      }

      .cls-22 {
        fill: url(#New_Gradient_Swatch_3-7);
      }

      .cls-23 {
        fill: url(#New_Gradient_Swatch_3-8);
      }

      .cls-24 {
        fill: url(#New_Gradient_Swatch_3-3);
      }

      .cls-25 {
        fill: url(#New_Gradient_Swatch_3-4);
      }

      .cls-26 {
        fill: url(#New_Gradient_Swatch_1-5);
      }

      .cls-27 {
        fill: url(#New_Gradient_Swatch_1-2);
      }

      .cls-28 {
        fill: url(#New_Gradient_Swatch_1-3);
      }

      .cls-29 {
        fill: url(#New_Gradient_Swatch_1-6);
      }

      .cls-30 {
        fill: url(#New_Gradient_Swatch_1-4);
      }

      .cls-9 {
        stroke-dasharray: 0 0 5.01 5.01;
      }

      .cls-31 {
        fill-rule: evenodd;
      }

      .cls-10 {
        stroke-width: 3px;
      }
    </style>
    <linearGradient id="New_Gradient_Swatch_3" data-name="New Gradient Swatch 3" x1="324.06" y1="850.61" x2="875.84" y2="275.06" gradientUnits="userSpaceOnUse">
      <stop offset="0" stop-color="#9f6d29"/>
      <stop offset=".03" stop-color="#a56f28"/>
      <stop offset=".15" stop-color="#bf7927"/>
      <stop offset=".27" stop-color="#d28125"/>
      <stop offset=".4" stop-color="#de8525"/>
      <stop offset=".53" stop-color="#e28725"/>
      <stop offset="1" stop-color="#9f6d29"/>
    </linearGradient>
    <linearGradient id="New_Gradient_Swatch_3-2" data-name="New Gradient Swatch 3" x1="97.79" y1="633.69" x2="649.58" y2="58.14" xlink:href="#New_Gradient_Swatch_3"/>
    <linearGradient id="New_Gradient_Swatch_3-3" data-name="New Gradient Swatch 3" x1="220.19" y1="751.03" x2="771.97" y2="175.48" xlink:href="#New_Gradient_Swatch_3"/>
    <linearGradient id="New_Gradient_Swatch_1" data-name="New Gradient Swatch 1" x1="154.51" y1="493.03" x2="479.24" y2="119.45" gradientUnits="userSpaceOnUse">
      <stop offset="0" stop-color="#808185"/>
      <stop offset=".02" stop-color="#86878b"/>
      <stop offset=".11" stop-color="#a8a9ac"/>
      <stop offset=".21" stop-color="#c2c3c5"/>
      <stop offset=".32" stop-color="#d5d6d8"/>
      <stop offset=".42" stop-color="#e1e2e3"/>
      <stop offset=".53" stop-color="#e5e6e7"/>
      <stop offset="1" stop-color="#808185"/>
    </linearGradient>
    <linearGradient id="New_Gradient_Swatch_3-4" data-name="New Gradient Swatch 3" x1="258.67" y1="787.93" x2="810.46" y2="212.38" xlink:href="#New_Gradient_Swatch_3"/>
    <linearGradient id="New_Gradient_Swatch_1-2" data-name="New Gradient Swatch 1" x1="377.88" y1="687.2" x2="702.62" y2="313.62" xlink:href="#New_Gradient_Swatch_1"/>
    <linearGradient id="New_Gradient_Swatch_3-5" data-name="New Gradient Swatch 3" x1="193.55" y1="725.49" x2="745.33" y2="149.94" xlink:href="#New_Gradient_Swatch_3"/>
    <linearGradient id="New_Gradient_Swatch_1-3" data-name="New Gradient Swatch 1" x1="313.17" y1="630.95" x2="637.9" y2="257.37" xlink:href="#New_Gradient_Swatch_1"/>
    <linearGradient id="New_Gradient_Swatch_3-6" data-name="New Gradient Swatch 3" x1="122.39" y1="657.28" x2="674.18" y2="81.73" xlink:href="#New_Gradient_Swatch_3"/>
    <linearGradient id="New_Gradient_Swatch_1-4" data-name="New Gradient Swatch 1" x1="240.15" y1="567.47" x2="564.88" y2="193.9" xlink:href="#New_Gradient_Swatch_1"/>
    <linearGradient id="New_Gradient_Swatch_3-7" data-name="New Gradient Swatch 3" x1="201.32" y1="732.95" x2="753.11" y2="157.4" xlink:href="#New_Gradient_Swatch_3"/>
    <linearGradient id="New_Gradient_Swatch_1-5" data-name="New Gradient Swatch 1" x1="315.46" y1="632.94" x2="640.19" y2="259.36" xlink:href="#New_Gradient_Swatch_1"/>
    <linearGradient id="New_Gradient_Swatch_4" data-name="New Gradient Swatch 4" x1="394.55" y1="530.41" x2="554.28" y2="365.4" gradientUnits="userSpaceOnUse">
      <stop offset="0" stop-color="#b68c2e"/>
      <stop offset=".1" stop-color="#c99b28"/>
      <stop offset=".24" stop-color="#dbaa23"/>
      <stop offset=".38" stop-color="#e7b320"/>
      <stop offset=".53" stop-color="#ebb61f"/>
      <stop offset="1" stop-color="#b68c2e"/>
    </linearGradient>
    <linearGradient id="New_Gradient_Swatch_3-8" data-name="New Gradient Swatch 3" x1="144.38" y1="678.35" x2="696.16" y2="102.8" xlink:href="#New_Gradient_Swatch_3"/>
    <linearGradient id="New_Gradient_Swatch_1-6" data-name="New Gradient Swatch 1" x1="258.99" y1="583.86" x2="583.73" y2="210.28" xlink:href="#New_Gradient_Swatch_1"/>
    <linearGradient id="New_Gradient_Swatch_4-2" data-name="New Gradient Swatch 4" x1="337.59" y1="475.27" x2="497.31" y2="310.26" xlink:href="#New_Gradient_Swatch_4"/>
  </defs>
  <g>
    <path class="cls-1" d="m782.29,193.25l5.16-3.13-.06-.09-5.16,3.13s.04.06.05.09Z"/>
    <path class="cls-15" d="m782.29,193.25l-130.4,79.15c23.98,38.35,37.84,83.67,37.84,132.23,0,44.29-11.54,85.88-31.75,121.95l-14.24-8.43,143.88,85.21c33.97-59.06,53.4-127.54,53.4-200.57,0-76.76-21.47-148.49-58.73-209.54Z"/>
    <path class="cls-20" d="m651.82,272.3l130.41-79.14C712.3,78.64,586.8,1.76,443.22.01l.54,154.83c87.77,1.33,164.55,47.92,208.07,117.46Z"/>
    <path class="cls-24" d="m651.82,272.3s.04.07.06.11l130.4-79.15s-.04-.06-.05-.09l-130.41,79.14Z"/>
    <polygon class="cls-16" points="443.75 154.84 443.79 165.68 443.75 154.84 443.75 154.84"/>
    <path class="cls-25" d="m689.73,404.63c0-48.56-13.87-93.88-37.84-132.23l-114.13,69.27c11.34,17.91,17.91,39.15,17.91,61.92,0,20.21-5.17,39.2-14.26,55.74l-.4-1.3,26.24,84.11,76.49-24,14.24,8.43c20.21-36.07,31.75-77.66,31.75-121.95Z"/>
    <path class="cls-27" d="m689.73,404.63c0-48.56-13.87-93.88-37.84-132.23l-114.13,69.27c11.34,17.91,17.91,39.15,17.91,61.92,0,20.21-5.17,39.2-14.26,55.74l-.4-1.3,26.24,84.11,76.49-24,14.24,8.43c20.21-36.07,31.75-77.66,31.75-121.95Z"/>
    <path class="cls-19" d="m537.68,341.56s.05.08.07.12l114.13-69.27s-.04-.07-.06-.11l-114.14,69.26Z"/>
    <path class="cls-28" d="m537.68,341.56s.05.08.07.12l114.13-69.27s-.04-.07-.06-.11l-114.14,69.26Z"/>
    <path class="cls-21" d="m443.75,154.84l.04,10.84,63.21,56.25-62.02,69.47,3.06-3.42c37.73,2.67,70.47,23.4,89.64,53.59l114.14-69.26c-43.52-69.54-120.3-116.12-208.07-117.46Z"/>
    <path class="cls-30" d="m443.75,154.84l.04,10.84,63.21,56.25-62.02,69.47,3.06-3.42c37.73,2.67,70.47,23.4,89.64,53.59l114.14-69.26c-43.52-69.54-120.3-116.12-208.07-117.46Z"/>
    <path class="cls-22" d="m555.67,403.6c0-22.77-6.57-44.01-17.91-61.92l-93.5,56.76,96.75,59.61.4,1.3c9.09-16.54,14.26-35.54,14.26-55.74Z"/>
    <path class="cls-26" d="m555.67,403.6c0-22.77-6.57-44.01-17.91-61.92l-93.5,56.76,96.75,59.61.4,1.3c9.09-16.54,14.26-35.54,14.26-55.74Z"/>
    <path class="cls-17" d="m555.67,403.6c0-22.77-6.57-44.01-17.91-61.92l-93.5,56.76,96.75,59.61.4,1.3c9.09-16.54,14.26-35.54,14.26-55.74Z"/>
    <path class="cls-23" d="m537.68,341.56l-92.51,56.14,92.51-56.14c-19.17-30.19-51.91-50.92-89.64-53.59l-3.06,3.42-1.35,106.66.61.38,93.5-56.76s-.05-.08-.07-.12Z"/>
    <path class="cls-29" d="m537.68,341.56l-92.51,56.14,92.51-56.14c-19.17-30.19-51.91-50.92-89.64-53.59l-3.06,3.42-1.35,106.66.61.38,93.5-56.76s-.05-.08-.07-.12Z"/>
    <path class="cls-18" d="m537.68,341.56l-92.51,56.14,92.51-56.14c-19.17-30.19-51.91-50.92-89.64-53.59l-3.06,3.42-1.35,106.66.61.38,93.5-56.76s-.05-.08-.07-.12Z"/>
    <g>
      <line class="cls-4" x1="445.17" y1="397.69" x2="447.31" y2="396.4"/>
      <line class="cls-9" x1="451.59" y1="393.8" x2="783.55" y2="192.36"/>
      <line class="cls-4" x1="785.69" y1="191.06" x2="787.83" y2="189.76"/>
    </g>
  </g>
  <g>
    <path class="cls-13" d="m659.23,241.86l3.23-1.96c2.67-1.62,6.11-.82,7.7,1.81,1.59,2.63.71,6.05-1.95,7.67l-3.23,1.96-5.75-9.47Zm7.79,5.57c1.6-.97,1.91-2.89.99-4.41-.92-1.52-2.77-2.13-4.37-1.16l-1.11.67,3.38,5.58,1.11-.67Z"/>
    <path class="cls-13" d="m669.78,235.46l2.12-1.29,5.75,9.47-2.12,1.29-5.75-9.47Z"/>
    <path class="cls-13" d="m677.94,230.51l1.92-1.17,9.8,7.01-2.22,1.34-2.05-1.49-3.92,2.38.37,2.51-2.21,1.34-1.69-11.93Zm5.56,4.33l-2.92-2.14.54,3.58,2.38-1.44Z"/>
    <path class="cls-13" d="m687.84,230.98c-1.67-2.75-.89-6.16,2.01-7.92,1.92-1.17,4.47-1.18,6.25.26l-2.44,1.48c-.82-.32-1.8-.15-2.56.31-1.74,1.05-2.08,2.98-1.12,4.57.96,1.59,2.83,2.17,4.59,1.1,1.41-.86,1.8-2.06,1.33-3.34l-2.72,1.65-1.21-1.99,4.92-2.99c2.9,3.73,1.76,7-1.08,8.72s-6.31.89-7.97-1.86Z"/>
    <path class="cls-13" d="m709.68,224.21l-8.17-3.06,3.55,5.86-2.12,1.29-5.75-9.47,1.83-1.11,8.15,3.05-3.55-5.84,2.14-1.3,5.75,9.47-1.83,1.11Z"/>
    <path class="cls-13" d="m711.11,216.86c-1.64-2.69-.78-6.22,1.93-7.87,2.7-1.64,6.23-.77,7.87,1.93,1.64,2.69.77,6.23-1.93,7.87-2.71,1.64-6.23.77-7.87-1.93Zm7.64-4.64c-.93-1.53-2.94-2.1-4.47-1.17s-1.97,2.98-1.04,4.52,2.94,2.11,4.49,1.17c1.53-.93,1.95-2.98,1.02-4.51Z"/>
    <path class="cls-13" d="m723.83,211.46l2.12-1.29c.62.72,1.54.76,2.37.26.71-.43,1.04-1.05.72-1.59-.27-.44-.81-.58-1.86-.27l-1.07.32c-1.75.52-3.38.19-4.29-1.29-1.1-1.78-.46-3.67,1.51-4.86,2.07-1.25,4.28-.53,5.21.89l-2.11,1.28c-.67-.62-1.41-.52-1.91-.21-.62.37-.95.94-.65,1.45.3.53.91.58,1.76.32l1.25-.37c1.79-.54,3.37-.11,4.27,1.37.98,1.61.41,3.68-1.63,4.92-2.35,1.43-4.63.6-5.68-.93Z"/>
    <path class="cls-13" d="m729.54,199.2l2.12-1.29,5.75,9.47-2.12,1.29-5.75-9.47Z"/>
    <path class="cls-13" d="m737.99,202.87l2.12-1.29c.62.72,1.54.76,2.37.26.71-.43,1.04-1.05.72-1.59-.27-.44-.81-.58-1.86-.27l-1.07.32c-1.75.52-3.38.19-4.29-1.29-1.1-1.78-.46-3.67,1.51-4.86,2.07-1.25,4.28-.53,5.21.89l-2.11,1.28c-.67-.62-1.41-.52-1.91-.21-.62.37-.95.94-.65,1.45.3.53.91.58,1.76.32l1.25-.37c1.79-.54,3.37-.11,4.27,1.37.98,1.61.41,3.68-1.63,4.92-2.35,1.43-4.63.6-5.68-.93Z"/>
  </g>
  <g>
    <path class="cls-13" d="m596.23,325.42l1.96-1.19c.57.67,1.42.71,2.19.24.65-.4.96-.97.66-1.47-.25-.41-.75-.54-1.72-.25l-.99.29c-1.62.48-3.12.17-3.96-1.19-1.02-1.64-.42-3.39,1.39-4.49,1.91-1.16,3.95-.49,4.82.82l-1.95,1.18c-.62-.57-1.3-.48-1.77-.19-.57.34-.87.87-.6,1.34.28.49.85.53,1.63.29l1.16-.35c1.66-.5,3.11-.1,3.94,1.27.91,1.49.38,3.4-1.51,4.54-2.17,1.32-4.28.56-5.25-.86Z"/>
    <path class="cls-13" d="m604.62,319.44l-3.21-5.29,1.96-1.19,3.22,5.31c.64,1.05,1.69,1.28,2.66.69.97-.59,1.25-1.64.61-2.68l-3.22-5.31,1.96-1.19,3.21,5.29c1.32,2.18.69,4.53-1.41,5.8s-4.47.75-5.79-1.43Z"/>
    <path class="cls-13" d="m611.29,308.15l3.29-2c1.43-.87,3.31-.42,4.18,1.02.37.62.44,1.28.28,1.89.97-.07,1.93.38,2.5,1.32.88,1.44.4,3.28-1.1,4.19l-3.85,2.33-5.31-8.76Zm5.22,1.68c.53-.32.67-.95.39-1.42s-.92-.66-1.45-.33l-1.11.67,1.06,1.75,1.11-.67Zm2.69,3.04c.52-.31.68-.94.38-1.43-.29-.48-.93-.64-1.46-.31l-1.71,1.04,1.06,1.75,1.73-1.05Z"/>
    <path class="cls-13" d="m622.49,307.4l3.63-2.2,1.08,1.78-3.63,2.2-1.08-1.78Z"/>
    <path class="cls-13" d="m628.14,303.92c-1.54-2.54-.82-5.69,1.85-7.32,1.92-1.17,4.49-1.05,6.17.58l-2.13,1.29c-.86-.59-2.02-.49-2.88.03-1.6.97-1.92,2.75-1.03,4.22.89,1.47,2.62,2,4.22,1.03.86-.52,1.48-1.51,1.36-2.54l2.13-1.29c.67,2.24-.42,4.57-2.34,5.74-2.68,1.62-5.8.81-7.35-1.73Z"/>
    <path class="cls-13" d="m636.49,292.86l1.96-1.19,4.18,6.88,3.63-2.2,1.14,1.87-5.59,3.39-5.31-8.76Z"/>
    <path class="cls-13" d="m647.03,286.46l1.78-1.08,9.06,6.48-2.05,1.24-1.9-1.38-3.63,2.2.35,2.32-2.05,1.24-1.56-11.03Zm5.14,4l-2.7-1.97.5,3.3,2.2-1.33Z"/>
    <path class="cls-13" d="m657.17,288.44l1.96-1.19c.57.67,1.42.71,2.19.24.65-.4.96-.97.66-1.47-.25-.41-.75-.54-1.72-.25l-.99.29c-1.62.48-3.12.17-3.96-1.19-1.02-1.64-.42-3.39,1.39-4.49,1.91-1.16,3.95-.49,4.82.82l-1.95,1.18c-.62-.57-1.3-.48-1.77-.19-.57.34-.87.87-.6,1.34.28.49.85.53,1.63.29l1.16-.35c1.66-.5,3.11-.1,3.94,1.27.91,1.49.38,3.4-1.51,4.54-2.17,1.32-4.28.56-5.25-.86Z"/>
    <path class="cls-13" d="m665.52,283.38l1.96-1.19c.57.67,1.42.71,2.19.24.65-.4.96-.97.66-1.47-.25-.41-.75-.54-1.72-.25l-.99.29c-1.62.48-3.12.17-3.96-1.19-1.02-1.64-.42-3.39,1.39-4.49,1.91-1.16,3.95-.49,4.82.82l-1.95,1.18c-.62-.57-1.3-.48-1.77-.19-.57.34-.87.87-.6,1.34.28.49.85.53,1.63.29l1.16-.35c1.66-.5,3.11-.1,3.94,1.27.91,1.49.38,3.4-1.51,4.54-2.17,1.32-4.28.56-5.25-.86Z"/>
    <path class="cls-13" d="m670.8,272.04l1.96-1.19,5.31,8.76-1.96,1.19-5.31-8.76Z"/>
    <path class="cls-13" d="m675.53,269.17l5.39-3.27,1.14,1.87-3.43,2.08.96,1.58,2.68-1.62,1.14,1.87-2.68,1.62,2.08,3.43-1.96,1.19-5.31-8.76Z"/>
    <path class="cls-13" d="m683.18,264.53l1.96-1.19,5.31,8.76-1.96,1.19-5.31-8.76Z"/>
    <path class="cls-13" d="m690.09,266.32c-1.54-2.54-.82-5.69,1.85-7.32,1.92-1.17,4.49-1.05,6.17.58l-2.13,1.29c-.86-.59-2.02-.49-2.88.03-1.6.97-1.92,2.75-1.03,4.22.89,1.47,2.62,2,4.22,1.03.86-.52,1.48-1.51,1.36-2.54l2.13-1.29c.67,2.24-.42,4.57-2.34,5.74-2.68,1.62-5.8.81-7.35-1.73Z"/>
    <path class="cls-13" d="m701,253.72l1.78-1.08,9.06,6.48-2.05,1.24-1.9-1.38-3.63,2.2.35,2.32-2.05,1.24-1.56-11.03Zm5.14,4l-2.7-1.97.5,3.3,2.2-1.33Z"/>
    <path class="cls-13" d="m710.2,250.69l-2.23,1.35-1.14-1.87,6.46-3.92,1.14,1.87-2.26,1.37,4.18,6.88-1.97,1.2-4.18-6.88Z"/>
    <path class="cls-13" d="m715.42,244.96l1.96-1.19,5.31,8.76-1.96,1.19-5.31-8.76Z"/>
    <path class="cls-13" d="m722.32,246.77c-1.51-2.49-.72-5.75,1.78-7.27,2.49-1.51,5.76-.71,7.27,1.78,1.51,2.49.71,5.76-1.78,7.27s-5.76.71-7.27-1.78Zm7.07-4.29c-.86-1.42-2.72-1.95-4.13-1.08-1.43.87-1.82,2.76-.96,4.17.86,1.42,2.71,1.94,4.14,1.08s1.81-2.75.95-4.17Z"/>
    <path class="cls-13" d="m742.54,240.49l-7.55-2.82,3.28,5.41-1.96,1.19-5.31-8.76,1.69-1.03,7.53,2.82-3.28-5.4,1.97-1.2,5.31,8.76-1.69,1.03Z"/>
  </g>
  <g>
    <path class="cls-12" d="m579.79,381.19v-1.38h5.26v1.38h-1.91v5.72h-1.46v-5.72h-1.89Z"/>
    <path class="cls-12" d="m590.71,379.81v1.38h-2.97v1.46h2.37v1.38h-2.37v1.5h2.97v1.38h-4.42v-7.1h4.42Z"/>
    <path class="cls-12" d="m596.65,385.28h-3.02l-.69,1.62h-1.5l3.06-7.1h1.29l3.07,7.1h-1.52l-.69-1.62Zm-.53-1.27l-.98-2.31-.98,2.31h1.96Z"/>
    <path class="cls-12" d="m604.14,386.9l-2.43-2.99h-.36v2.99h-1.45v-7.1h2.72c1.31,0,2.18.91,2.18,2.1,0,.92-.49,1.54-1.46,1.85l2.55,3.15h-1.75Zm-1.69-4.23c.55,0,.91-.29.91-.77s-.36-.77-.91-.77h-1.1v1.54h1.1Z"/>
    <path class="cls-12" d="m616.27,379.81v7.1h-1.45v-4.62l-2.18,2.99-2.18-2.99v4.62h-1.45v-7.1h1.32l2.31,3.16,2.31-3.16h1.32Z"/>
    <path class="cls-12" d="m622.52,379.81v1.38h-2.97v1.46h2.37v1.38h-2.37v1.5h2.97v1.38h-4.42v-7.1h4.42Z"/>
    <path class="cls-12" d="m630.37,379.81v7.1h-1.25l-3.64-4.63v4.63h-1.45v-7.1h1.25l3.64,4.63v-4.63h1.45Z"/>
    <path class="cls-12" d="m633.65,379.81v7.1h-1.45v-7.1h1.45Z"/>
    <path class="cls-12" d="m637.76,387.02c-1.63.03-2.68-1.13-2.72-2.32h1.44c.09.61.63.98,1.28.98.59,0,1.01-.28,1.01-.72,0-.39-.31-.68-.94-.86l-.76-.22c-1.16-.33-1.85-1.05-1.86-2.1,0-.65.22-1.16.65-1.53.43-.38,1.01-.57,1.73-.57,1.47-.02,2.45,1.08,2.49,2.16h-1.43c-.16-.56-.59-.82-1.06-.82-.53,0-.92.27-.92.68s.29.66.89.83l.84.23c1.16.33,1.84,1.07,1.84,2.15,0,1.2-1.01,2.11-2.48,2.11Z"/>
    <path class="cls-12" d="m648.42,384.48c-.38,1.49-1.84,2.54-3.44,2.54-2.11.04-3.76-1.64-3.72-3.67-.04-2.03,1.61-3.71,3.72-3.67,1.6,0,3.06,1.05,3.44,2.54h-1.57c-.29-.69-1.06-1.14-1.87-1.14-1.33,0-2.26,1-2.26,2.27s.93,2.27,2.26,2.27c.81,0,1.58-.45,1.87-1.14h1.57Z"/>
    <path class="cls-12" d="m649.64,379.81h1.45v4.32c0,.93.57,1.5,1.44,1.5s1.44-.57,1.44-1.5v-4.32h1.45v4.3c0,1.76-1.21,2.92-2.89,2.92s-2.89-1.16-2.89-2.92v-4.3Z"/>
    <path class="cls-12" d="m659.45,387.02c-1.63.03-2.68-1.13-2.72-2.32h1.44c.09.61.63.98,1.28.98.59,0,1.01-.28,1.01-.72,0-.39-.31-.68-.94-.86l-.76-.22c-1.16-.33-1.85-1.05-1.86-2.1,0-.65.22-1.16.65-1.53.43-.38,1.01-.57,1.73-.57,1.47-.02,2.45,1.08,2.49,2.16h-1.43c-.16-.56-.59-.82-1.06-.82-.53,0-.92.27-.92.68s.29.66.89.83l.84.23c1.16.33,1.84,1.07,1.84,2.15,0,1.2-1.01,2.11-2.48,2.11Z"/>
    <path class="cls-12" d="m603.94,389.81v2.83h3.08v-2.83h1.45v7.1h-1.45v-2.89h-3.08v2.89h-1.45v-7.1h1.45Z"/>
    <path class="cls-12" d="m614.71,389.81v1.38h-2.97v1.46h2.37v1.38h-2.37v1.5h2.97v1.38h-4.42v-7.1h4.42Z"/>
    <path class="cls-12" d="m617.67,389.81v7.1h-1.45v-7.1h1.45Z"/>
    <path class="cls-12" d="m622.83,397.02c-2.12.04-3.77-1.64-3.74-3.67-.04-2.03,1.61-3.71,3.72-3.67,1.49,0,2.87.89,3.35,2.22h-1.66c-.35-.51-1-.82-1.69-.82-1.33,0-2.26,1-2.26,2.27s.93,2.27,2.28,2.27c1.13,0,1.84-.61,2-1.61h-2.17v-1.36h3.67c.03.21.04.44.04.68.03,2.39-1.58,3.71-3.54,3.69Z"/>
    <path class="cls-12" d="m629.25,389.81v2.83h3.08v-2.83h1.45v7.1h-1.45v-2.89h-3.08v2.89h-1.45v-7.1h1.45Z"/>
    <path class="cls-12" d="m635.04,391.19v-1.38h5.26v1.38h-1.91v5.72h-1.46v-5.72h-1.89Z"/>
  </g>
  <g>
    <path class="cls-12" d="m481.4,401.63v7.1h-1.45v-4.62l-2.18,2.99-2.18-2.99v4.62h-1.45v-7.1h1.32l2.31,3.16,2.31-3.16h1.32Z"/>
    <path class="cls-12" d="m487.65,401.63v1.38h-2.97v1.46h2.37v1.38h-2.37v1.5h2.97v1.38h-4.42v-7.1h4.42Z"/>
    <path class="cls-12" d="m490.61,401.63v7.1h-1.45v-7.1h1.45Z"/>
    <path class="cls-12" d="m495.04,401.63c1.17,0,2.11.94,2.11,2.06,0,.52-.19.94-.56,1.27.64.31,1.05.91,1.05,1.68,0,1.17-.94,2.09-2.2,2.09h-3v-7.1h2.6Zm-.14,1.32h-1.01v1.59h1.01c.49,0,.84-.34.84-.79s-.35-.8-.84-.8Zm.44,2.82h-1.45v1.63h1.45c.53,0,.89-.34.89-.81s-.36-.82-.89-.82Z"/>
    <path class="cls-12" d="m502.28,401.51c1.98-.04,3.71,1.69,3.67,3.67.04,1.98-1.69,3.71-3.67,3.67-1.98.04-3.71-1.69-3.67-3.67-.04-1.98,1.69-3.71,3.67-3.67Zm0,1.4c-1.21-.03-2.23,1.06-2.21,2.27-.02,1.21,1,2.3,2.21,2.27,1.21.03,2.23-1.06,2.21-2.27.02-1.21-1-2.3-2.21-2.27Z"/>
    <path class="cls-12" d="m510.69,408.85c-2.12.04-3.77-1.64-3.74-3.67-.04-2.03,1.61-3.71,3.72-3.67,1.49,0,2.87.89,3.35,2.22h-1.66c-.35-.51-1-.82-1.69-.82-1.33,0-2.26,1-2.26,2.27s.93,2.27,2.28,2.27c1.13,0,1.84-.61,2-1.61h-2.17v-1.36h3.67c.03.21.04.44.04.68.03,2.39-1.58,3.71-3.54,3.69Z"/>
    <path class="cls-12" d="m519.9,408.73l-2.43-2.99h-.36v2.99h-1.45v-7.1h2.72c1.31,0,2.18.91,2.18,2.1,0,.92-.49,1.54-1.46,1.85l2.55,3.15h-1.75Zm-1.69-4.23c.55,0,.91-.29.91-.77s-.36-.77-.91-.77h-1.1v1.54h1.1Z"/>
    <path class="cls-12" d="m526.9,407.11h-3.02l-.69,1.62h-1.5l3.06-7.1h1.29l3.07,7.1h-1.52l-.69-1.62Zm-.53-1.27l-.98-2.31-.98,2.31h1.96Z"/>
    <path class="cls-12" d="m531.6,406.41v2.32h-1.45v-7.1h2.36c1.43,0,2.49,1.04,2.49,2.39s-1.06,2.39-2.49,2.39h-.91Zm0-3.42v2.06h.89c.65,0,1.1-.44,1.1-1.03s-.45-1.03-1.1-1.03h-.89Z"/>
    <path class="cls-12" d="m537.76,401.63v2.83h3.08v-2.83h1.45v7.1h-1.45v-2.89h-3.08v2.89h-1.45v-7.1h1.45Z"/>
    <path class="cls-12" d="m543.43,401.63h1.68l1.66,2.69,1.67-2.69h1.69l-2.63,4.12v2.98h-1.45v-2.99l-2.62-4.11Z"/>
  </g>
  <g>
    <path class="cls-12" d="m551.88,265.11v7.1h-1.25l-3.64-4.63v4.63h-1.45v-7.1h1.25l3.64,4.63v-4.63h1.45Z"/>
    <path class="cls-12" d="m556.96,264.99c1.98-.04,3.71,1.69,3.67,3.67.04,1.98-1.69,3.71-3.67,3.67-1.98.04-3.71-1.69-3.67-3.67-.04-1.98,1.69-3.71,3.67-3.67Zm0,1.4c-1.21-.03-2.23,1.06-2.21,2.27-.02,1.21,1,2.3,2.21,2.27,1.21.03,2.23-1.06,2.21-2.27.02-1.21-1-2.3-2.21-2.27Z"/>
    <path class="cls-12" d="m568.38,265.11v7.1h-1.25l-3.64-4.63v4.63h-1.45v-7.1h1.25l3.64,4.63v-4.63h1.45Z"/>
    <path class="cls-12" d="m572.88,268v1.32h-2.86v-1.32h2.86Z"/>
    <path class="cls-12" d="m575.97,265.11v7.1h-1.45v-7.1h1.45Z"/>
    <path class="cls-12" d="m584.14,265.11v7.1h-1.25l-3.64-4.63v4.63h-1.45v-7.1h1.25l3.64,4.63v-4.63h1.45Z"/>
    <path class="cls-12" d="m592.37,265.11l-2.94,7.1h-1.29l-2.93-7.1h1.57l2.01,4.93,1.98-4.93h1.6Z"/>
    <path class="cls-12" d="m597.07,270.59h-3.02l-.69,1.62h-1.5l3.06-7.1h1.29l3.07,7.1h-1.52l-.69-1.62Zm-.53-1.27l-.98-2.31-.98,2.31h1.96Z"/>
    <path class="cls-12" d="m602.37,272.33c-1.63.03-2.68-1.13-2.72-2.32h1.44c.09.61.63.98,1.28.98.59,0,1.01-.28,1.01-.72,0-.39-.31-.68-.94-.86l-.76-.22c-1.16-.33-1.85-1.05-1.86-2.1,0-.65.22-1.16.65-1.53.43-.38,1.01-.57,1.73-.57,1.47-.02,2.45,1.08,2.49,2.16h-1.43c-.16-.56-.59-.82-1.06-.82-.53,0-.92.27-.92.68s.29.66.89.83l.84.23c1.16.33,1.84,1.07,1.84,2.15,0,1.2-1.01,2.11-2.48,2.11Z"/>
    <path class="cls-12" d="m607.73,265.11v7.1h-1.45v-7.1h1.45Z"/>
    <path class="cls-12" d="m615.96,265.11l-2.94,7.1h-1.29l-2.93-7.1h1.57l2.01,4.93,1.98-4.93h1.6Z"/>
    <path class="cls-12" d="m621.44,265.11v1.38h-2.97v1.46h2.37v1.38h-2.37v1.5h2.97v1.38h-4.42v-7.1h4.42Z"/>
    <path class="cls-12" d="m549.91,275.11c1.17,0,2.11.94,2.11,2.06,0,.52-.19.94-.56,1.27.64.31,1.05.91,1.05,1.68,0,1.17-.94,2.09-2.2,2.09h-3v-7.1h2.6Zm-.14,1.32h-1.01v1.59h1.01c.49,0,.84-.34.84-.79s-.35-.8-.84-.8Zm.44,2.82h-1.45v1.63h1.45c.53,0,.89-.34.89-.81s-.36-.82-.89-.82Z"/>
    <path class="cls-12" d="m558.14,282.21l-2.43-2.99h-.36v2.99h-1.45v-7.1h2.72c1.31,0,2.18.91,2.18,2.1,0,.92-.49,1.54-1.46,1.85l2.55,3.15h-1.75Zm-1.69-4.23c.55,0,.91-.29.91-.77s-.36-.77-.91-.77h-1.1v1.54h1.1Z"/>
    <path class="cls-12" d="m565.13,275.11v1.38h-2.97v1.46h2.37v1.38h-2.37v1.5h2.97v1.38h-4.42v-7.1h4.42Z"/>
    <path class="cls-12" d="m571.07,280.59h-3.02l-.69,1.62h-1.5l3.06-7.1h1.29l3.07,7.1h-1.52l-.69-1.62Zm-.53-1.27l-.98-2.31-.98,2.31h1.96Z"/>
    <path class="cls-12" d="m578.84,282.21l-3.08-3.23v3.23h-1.44v-7.1h1.44v3l2.56-3h1.79l-2.92,3.41,3.53,3.69h-1.88Z"/>
    <path class="cls-12" d="m581.35,275.11h1.45v4.32c0,.93.57,1.5,1.44,1.5s1.44-.57,1.44-1.5v-4.32h1.45v4.3c0,1.76-1.21,2.92-2.89,2.92s-2.89-1.16-2.89-2.92v-4.3Z"/>
    <path class="cls-12" d="m590.33,279.89v2.32h-1.45v-7.1h2.36c1.43,0,2.49,1.04,2.49,2.39s-1.06,2.39-2.49,2.39h-.91Zm0-3.42v2.06h.89c.65,0,1.1-.44,1.1-1.03s-.45-1.03-1.1-1.03h-.89Z"/>
    <path class="cls-12" d="m596.37,276.49v-1.38h5.26v1.38h-1.91v5.72h-1.46v-5.72h-1.89Z"/>
    <path class="cls-12" d="m604.33,275.11v7.1h-1.45v-7.1h1.45Z"/>
    <path class="cls-12" d="m613.42,275.11v7.1h-1.45v-4.62l-2.18,2.99-2.18-2.99v4.62h-1.45v-7.1h1.32l2.31,3.16,2.31-3.16h1.32Z"/>
    <path class="cls-12" d="m619.67,275.11v1.38h-2.97v1.46h2.37v1.38h-2.37v1.5h2.97v1.38h-4.42v-7.1h4.42Z"/>
  </g>
  <g>
    <path class="cls-12" d="m473.66,279.69c1.98-.04,3.71,1.69,3.67,3.67.04,1.98-1.69,3.71-3.67,3.67-1.98.04-3.71-1.69-3.67-3.67-.04-1.98,1.69-3.71,3.67-3.67Zm0,1.4c-1.21-.03-2.23,1.06-2.21,2.27-.02,1.21,1,2.3,2.21,2.27,1.21.03,2.23-1.06,2.21-2.27.02-1.21-1-2.3-2.21-2.27Z"/>
    <path class="cls-12" d="m481.02,287.03c-1.63.03-2.68-1.13-2.72-2.32h1.44c.09.61.63.98,1.28.98.59,0,1.01-.28,1.01-.72,0-.39-.31-.68-.94-.86l-.76-.22c-1.16-.33-1.85-1.05-1.86-2.1,0-.65.22-1.16.65-1.53.43-.38,1.01-.57,1.73-.57,1.47-.02,2.45,1.08,2.49,2.16h-1.43c-.16-.56-.59-.82-1.06-.82-.53,0-.92.27-.92.68s.29.66.89.83l.84.23c1.16.33,1.84,1.07,1.84,2.15,0,1.2-1.01,2.11-2.48,2.11Z"/>
    <path class="cls-12" d="m492.19,279.81v7.1h-1.45v-4.62l-2.18,2.99-2.18-2.99v4.62h-1.45v-7.1h1.32l2.31,3.16,2.31-3.16h1.32Z"/>
    <path class="cls-12" d="m497.27,279.69c1.98-.04,3.71,1.69,3.67,3.67.04,1.98-1.69,3.71-3.67,3.67-1.98.04-3.71-1.69-3.67-3.67-.04-1.98,1.69-3.71,3.67-3.67Zm0,1.4c-1.21-.03-2.23,1.06-2.21,2.27-.02,1.21,1,2.3,2.21,2.27,1.21.03,2.23-1.06,2.21-2.27.02-1.21-1-2.3-2.21-2.27Z"/>
    <path class="cls-12" d="m503.8,279.81v5.72h3.04v1.38h-4.49v-7.1h1.45Z"/>
    <path class="cls-12" d="m512.54,285.29h-3.02l-.69,1.62h-1.5l3.06-7.1h1.29l3.07,7.1h-1.52l-.69-1.62Zm-.53-1.27l-.98-2.31-.98,2.31h1.96Z"/>
    <path class="cls-12" d="m520.03,286.91l-2.43-2.99h-.36v2.99h-1.45v-7.1h2.72c1.31,0,2.18.91,2.18,2.1,0,.92-.49,1.54-1.46,1.85l2.55,3.15h-1.75Zm-1.69-4.23c.55,0,.91-.29.91-.77s-.36-.77-.91-.77h-1.1v1.54h1.1Z"/>
    <path class="cls-12" d="m524.05,279.81v7.1h-1.45v-7.1h1.45Z"/>
    <path class="cls-12" d="m525.3,281.19v-1.38h5.26v1.38h-1.91v5.72h-1.46v-5.72h-1.89Z"/>
    <path class="cls-12" d="m531.12,279.81h1.68l1.66,2.69,1.67-2.69h1.69l-2.63,4.12v2.98h-1.45v-2.99l-2.62-4.11Z"/>
  </g>
  <g>
    <path class="cls-12" d="m453.15,331.65v5.72h3.04v1.38h-4.49v-7.1h1.45Z"/>
    <path class="cls-12" d="m458.91,331.65v7.1h-1.45v-7.1h1.45Z"/>
    <path class="cls-12" d="m463.02,338.86c-1.63.03-2.68-1.13-2.72-2.32h1.44c.09.61.63.98,1.28.98.59,0,1.01-.28,1.01-.72,0-.39-.31-.68-.94-.86l-.76-.22c-1.16-.33-1.85-1.05-1.86-2.1,0-.65.22-1.16.65-1.53.43-.38,1.01-.57,1.73-.57,1.47-.02,2.45,1.08,2.49,2.16h-1.43c-.16-.56-.59-.82-1.06-.82-.53,0-.92.27-.92.68s.29.66.89.83l.84.23c1.16.33,1.84,1.07,1.84,2.15,0,1.2-1.01,2.11-2.48,2.11Z"/>
    <path class="cls-12" d="m469.21,338.86c-1.63.03-2.68-1.13-2.72-2.32h1.44c.09.61.63.98,1.28.98.59,0,1.01-.28,1.01-.72,0-.39-.31-.68-.94-.86l-.76-.22c-1.16-.33-1.85-1.05-1.86-2.1,0-.65.22-1.16.65-1.53.43-.38,1.01-.57,1.73-.57,1.47-.02,2.45,1.08,2.49,2.16h-1.43c-.16-.56-.59-.82-1.06-.82-.53,0-.92.27-.92.68s.29.66.89.83l.84.23c1.16.33,1.84,1.07,1.84,2.15,0,1.2-1.01,2.11-2.48,2.11Z"/>
    <path class="cls-12" d="m477.35,337.12h-3.02l-.69,1.62h-1.5l3.06-7.1h1.29l3.07,7.1h-1.52l-.69-1.62Zm-.53-1.27l-.98-2.31-.98,2.31h1.96Z"/>
    <path class="cls-12" d="m487.86,331.65v7.1h-1.45v-4.62l-2.18,2.99-2.18-2.99v4.62h-1.45v-7.1h1.32l2.31,3.16,2.31-3.16h1.32Z"/>
    <path class="cls-12" d="m491.14,331.65v7.1h-1.45v-7.1h1.45Z"/>
    <path class="cls-12" d="m499.31,331.65v7.1h-1.25l-3.64-4.63v4.63h-1.45v-7.1h1.25l3.64,4.63v-4.63h1.45Z"/>
    <path class="cls-12" d="m505.56,331.65v1.38h-2.97v1.46h2.37v1.38h-2.37v1.5h2.97v1.38h-4.42v-7.1h4.42Z"/>
    <path class="cls-12" d="m465.14,348.86c-2.12.04-3.77-1.64-3.74-3.67-.04-2.03,1.61-3.71,3.72-3.67,1.49,0,2.87.89,3.35,2.22h-1.66c-.35-.51-1-.82-1.69-.82-1.33,0-2.26,1-2.26,2.27s.93,2.27,2.28,2.27c1.13,0,1.84-.61,2-1.61h-2.17v-1.36h3.67c.03.21.04.44.04.68.03,2.39-1.58,3.71-3.54,3.69Z"/>
    <path class="cls-12" d="m474.35,348.74l-2.43-2.99h-.36v2.99h-1.45v-7.1h2.72c1.31,0,2.18.91,2.18,2.1,0,.92-.49,1.54-1.46,1.85l2.55,3.15h-1.75Zm-1.69-4.23c.55,0,.91-.29.91-.77s-.36-.77-.91-.77h-1.1v1.54h1.1Z"/>
    <path class="cls-12" d="m481.34,341.65v1.38h-2.97v1.46h2.37v1.38h-2.37v1.5h2.97v1.38h-4.42v-7.1h4.42Z"/>
    <path class="cls-12" d="m487.27,341.65v1.38h-2.97v1.46h2.37v1.38h-2.37v1.5h2.97v1.38h-4.42v-7.1h4.42Z"/>
    <path class="cls-12" d="m495.12,341.65v7.1h-1.25l-3.64-4.63v4.63h-1.45v-7.1h1.25l3.64,4.63v-4.63h1.45Z"/>
    <path class="cls-12" d="m456.59,358.86c-1.63.03-2.68-1.13-2.72-2.32h1.44c.09.61.63.98,1.28.98.59,0,1.01-.28,1.01-.72,0-.39-.31-.68-.94-.86l-.76-.22c-1.16-.33-1.85-1.05-1.86-2.1,0-.65.22-1.16.65-1.53.43-.38,1.01-.57,1.73-.57,1.47-.02,2.45,1.08,2.49,2.16h-1.43c-.16-.56-.59-.82-1.06-.82-.53,0-.92.27-.92.68s.29.66.89.83l.84.23c1.16.33,1.84,1.07,1.84,2.15,0,1.2-1.01,2.11-2.48,2.11Z"/>
    <path class="cls-12" d="m459.77,353.03v-1.38h5.26v1.38h-1.91v5.72h-1.46v-5.72h-1.89Z"/>
    <path class="cls-12" d="m470.01,357.12h-3.02l-.69,1.62h-1.5l3.06-7.1h1.29l3.07,7.1h-1.52l-.69-1.62Zm-.53-1.27l-.98-2.31-.98,2.31h1.96Z"/>
    <path class="cls-12" d="m474.71,351.65v7.1h-1.45v-7.1h1.45Z"/>
    <path class="cls-12" d="m482.88,351.65v7.1h-1.25l-3.64-4.63v4.63h-1.45v-7.1h1.25l3.64,4.63v-4.63h1.45Z"/>
    <path class="cls-12" d="m486.16,351.65v7.1h-1.45v-7.1h1.45Z"/>
    <path class="cls-12" d="m494.33,351.65v7.1h-1.25l-3.64-4.63v4.63h-1.45v-7.1h1.25l3.64,4.63v-4.63h1.45Z"/>
    <path class="cls-12" d="m499.49,358.86c-2.12.04-3.77-1.64-3.74-3.67-.04-2.03,1.61-3.71,3.72-3.67,1.49,0,2.87.89,3.35,2.22h-1.66c-.35-.51-1-.82-1.69-.82-1.33,0-2.26,1-2.26,2.27s.93,2.27,2.28,2.27c1.13,0,1.84-.61,2-1.61h-2.17v-1.36h3.67c.03.21.04.44.04.68.03,2.39-1.58,3.71-3.54,3.69Z"/>
  </g>
  <g>
    <path class="cls-12" d="m516.33,213.68v1.38h-2.87v1.47h2.25v1.38h-2.25v2.87h-1.45v-7.1h4.32Z"/>
    <path class="cls-12" d="m519.13,213.68v5.72h3.04v1.38h-4.49v-7.1h1.45Z"/>
    <path class="cls-12" d="m523.11,213.68h1.45v4.32c0,.93.57,1.5,1.44,1.5s1.44-.57,1.44-1.5v-4.32h1.45v4.3c0,1.76-1.21,2.92-2.89,2.92s-2.89-1.16-2.89-2.92v-4.3Z"/>
    <path class="cls-12" d="m533.89,213.56c1.98-.04,3.71,1.69,3.67,3.67.04,1.98-1.69,3.71-3.67,3.67-1.98.04-3.71-1.69-3.67-3.67-.04-1.98,1.69-3.71,3.67-3.67Zm0,1.4c-1.21-.03-2.23,1.06-2.21,2.27-.02,1.21,1,2.3,2.21,2.27,1.21.03,2.23-1.06,2.21-2.27.02-1.21-1-2.3-2.21-2.27Z"/>
    <path class="cls-12" d="m543.21,220.78l-2.43-2.99h-.36v2.99h-1.45v-7.1h2.72c1.31,0,2.18.91,2.18,2.1,0,.92-.49,1.54-1.46,1.85l2.55,3.15h-1.75Zm-1.69-4.23c.55,0,.91-.29.91-.77s-.36-.77-.91-.77h-1.1v1.54h1.1Z"/>
    <path class="cls-12" d="m550.2,213.68v1.38h-2.97v1.46h2.37v1.38h-2.37v1.5h2.97v1.38h-4.42v-7.1h4.42Z"/>
    <path class="cls-12" d="m553.99,220.9c-1.63.03-2.68-1.13-2.72-2.32h1.44c.09.61.63.98,1.28.98.59,0,1.01-.28,1.01-.72,0-.39-.31-.68-.94-.86l-.76-.22c-1.16-.33-1.85-1.05-1.86-2.1,0-.65.22-1.16.65-1.53.43-.38,1.01-.57,1.73-.57,1.47-.02,2.45,1.08,2.49,2.16h-1.43c-.16-.56-.59-.82-1.06-.82-.53,0-.92.27-.92.68s.29.66.89.83l.84.23c1.16.33,1.84,1.07,1.84,2.15,0,1.2-1.01,2.11-2.48,2.11Z"/>
    <path class="cls-12" d="m564.65,218.36c-.38,1.49-1.84,2.54-3.44,2.54-2.11.04-3.76-1.64-3.72-3.67-.04-2.03,1.61-3.71,3.72-3.67,1.6,0,3.06,1.05,3.44,2.54h-1.57c-.29-.69-1.06-1.14-1.87-1.14-1.33,0-2.26,1-2.26,2.27s.93,2.27,2.26,2.27c.81,0,1.58-.45,1.87-1.14h1.57Z"/>
    <path class="cls-12" d="m570.37,213.68v1.38h-2.97v1.46h2.37v1.38h-2.37v1.5h2.97v1.38h-4.42v-7.1h4.42Z"/>
    <path class="cls-12" d="m573.33,213.68v7.1h-1.45v-7.1h1.45Z"/>
    <path class="cls-12" d="m581.5,213.68v7.1h-1.25l-3.64-4.63v4.63h-1.45v-7.1h1.25l3.64,4.63v-4.63h1.45Z"/>
    <path class="cls-12" d="m524.88,230.9c-1.63.03-2.68-1.13-2.72-2.32h1.44c.09.61.63.98,1.28.98.59,0,1.01-.28,1.01-.72,0-.39-.31-.68-.94-.86l-.76-.22c-1.16-.33-1.85-1.05-1.86-2.1,0-.65.22-1.16.65-1.53.43-.38,1.01-.57,1.73-.57,1.47-.02,2.45,1.08,2.49,2.16h-1.43c-.16-.56-.59-.82-1.06-.82-.53,0-.92.27-.92.68s.29.66.89.83l.84.23c1.16.33,1.84,1.07,1.84,2.15,0,1.2-1.01,2.11-2.48,2.11Z"/>
    <path class="cls-12" d="m528.06,225.06v-1.38h5.26v1.38h-1.91v5.72h-1.46v-5.72h-1.89Z"/>
    <path class="cls-12" d="m538.29,229.16h-3.02l-.69,1.62h-1.5l3.06-7.1h1.29l3.07,7.1h-1.52l-.69-1.62Zm-.53-1.27l-.98-2.31-.98,2.31h1.96Z"/>
    <path class="cls-12" d="m543,223.68v7.1h-1.45v-7.1h1.45Z"/>
    <path class="cls-12" d="m551.16,223.68v7.1h-1.25l-3.64-4.63v4.63h-1.45v-7.1h1.25l3.64,4.63v-4.63h1.45Z"/>
    <path class="cls-12" d="m554.45,223.68v7.1h-1.45v-7.1h1.45Z"/>
    <path class="cls-12" d="m562.61,223.68v7.1h-1.25l-3.64-4.63v4.63h-1.45v-7.1h1.25l3.64,4.63v-4.63h1.45Z"/>
    <path class="cls-12" d="m567.78,230.9c-2.12.04-3.77-1.64-3.74-3.67-.04-2.03,1.61-3.71,3.72-3.67,1.49,0,2.87.89,3.35,2.22h-1.66c-.35-.51-1-.82-1.69-.82-1.33,0-2.26,1-2.26,2.27s.93,2.27,2.28,2.27c1.13,0,1.84-.61,2-1.61h-2.17v-1.36h3.67c.03.21.04.44.04.68.03,2.39-1.58,3.71-3.54,3.69Z"/>
  </g>
  <g>
    <path class="cls-12" d="m473.55,106.87c0-2.06,1.56-3.67,3.73-3.67,1.56,0,3.04.99,3.45,2.56h-1.73c-.3-.66-1.02-1.02-1.72-1.02-1.3,0-2.13.94-2.13,2.13s.83,2.13,2.13,2.13c.7,0,1.42-.36,1.72-1.02h1.73c-.41,1.57-1.89,2.56-3.45,2.56-2.17,0-3.73-1.61-3.73-3.67Z"/>
    <path class="cls-12" d="m481.32,106.87c0-2.02,1.64-3.67,3.67-3.67s3.67,1.65,3.67,3.67-1.65,3.67-3.67,3.67-3.67-1.65-3.67-3.67Zm5.73,0c0-1.15-.91-2.13-2.06-2.13s-2.07.98-2.07,2.13.91,2.13,2.07,2.13,2.06-.98,2.06-2.13Z"/>
    <path class="cls-12" d="m491.35,106.04v4.38h-1.59v-7.1h1.45l2.22,3.06,2.22-3.06h1.45v7.1h-1.6v-4.38l-2.07,2.87-2.08-2.87Z"/>
    <path class="cls-12" d="m498.6,103.32h4.37v1.52h-2.78v1.28h2.17v1.52h-2.17v2.78h-1.59v-7.1Z"/>
    <path class="cls-12" d="m503.51,106.87c0-2.02,1.64-3.67,3.67-3.67s3.67,1.65,3.67,3.67-1.65,3.67-3.67,3.67-3.67-1.65-3.67-3.67Zm5.73,0c0-1.15-.91-2.13-2.06-2.13s-2.07.98-2.07,2.13.91,2.13,2.07,2.13,2.06-.98,2.06-2.13Z"/>
    <path class="cls-12" d="m511.95,103.32h2.8c1.34,0,2.2.96,2.2,2.14,0,.92-.49,1.51-1.39,1.83l2.51,3.13h-1.91l-2.36-2.93h-.26v2.93h-1.59v-7.1Zm2.61,2.82c.47,0,.81-.27.81-.68s-.34-.68-.81-.68h-1.02v1.36h1.02Z"/>
    <path class="cls-12" d="m519.63,104.84h-1.81v-1.52h5.24v1.52h-1.83v5.58h-1.6v-5.58Z"/>
    <path class="cls-12" d="m526.98,104.84h-1.81v-1.52h5.24v1.52h-1.83v5.58h-1.6v-5.58Z"/>
    <path class="cls-12" d="m531.38,103.32h1.59v7.1h-1.59v-7.1Z"/>
    <path class="cls-12" d="m536.06,106.04v4.38h-1.59v-7.1h1.45l2.22,3.06,2.22-3.06h1.45v7.1h-1.6v-4.38l-2.07,2.87-2.08-2.87Z"/>
    <path class="cls-12" d="m543.31,103.32h4.5v1.52h-2.91v1.27h2.31v1.52h-2.31v1.27h2.91v1.52h-4.5v-7.1Z"/>
    <path class="cls-12" d="m553.25,103.32h1.44l3.04,7.1h-1.66l-.63-1.5h-2.94l-.63,1.5h-1.66l3.04-7.1Zm1.61,4.22l-.89-2.14-.89,2.14h1.78Z"/>
    <path class="cls-12" d="m558.47,103.32h4.37v1.52h-2.78v1.28h2.17v1.52h-2.17v2.78h-1.59v-7.1Z"/>
    <path class="cls-12" d="m565.2,104.84h-1.81v-1.52h5.24v1.52h-1.83v5.58h-1.6v-5.58Z"/>
    <path class="cls-12" d="m569.6,103.32h4.5v1.52h-2.91v1.27h2.31v1.52h-2.31v1.27h2.91v1.52h-4.5v-7.1Z"/>
    <path class="cls-12" d="m575.31,103.32h2.8c1.34,0,2.2.96,2.2,2.14,0,.92-.49,1.51-1.39,1.83l2.51,3.13h-1.91l-2.36-2.93h-.26v2.93h-1.59v-7.1Zm2.61,2.82c.47,0,.81-.27.81-.68s-.34-.68-.81-.68h-1.02v1.36h1.02Z"/>
    <path class="cls-12" d="m500.72,114.32h2.67c1.16,0,2.11.94,2.11,2.11,0,.5-.2.92-.51,1.22.6.31,1.01.92,1.01,1.68,0,1.17-.94,2.09-2.16,2.09h-3.12v-7.1Zm2.49,2.87c.43,0,.74-.32.74-.7s-.31-.72-.74-.72h-.9v1.42h.9Zm.5,2.77c.42,0,.74-.31.74-.71s-.32-.71-.75-.71h-1.39v1.42h1.4Z"/>
    <path class="cls-12" d="m507.07,114.32h1.59v5.58h2.94v1.52h-4.53v-7.1Z"/>
    <path class="cls-12" d="m512.59,114.32h1.59v7.1h-1.59v-7.1Z"/>
    <path class="cls-12" d="m520.73,121.42l-3.46-4.39v4.39h-1.59v-7.1h1.37l3.45,4.38v-4.38h1.6v7.1h-1.37Z"/>
    <path class="cls-12" d="m523.6,114.32h1.58v2.97l2.41-2.97h1.95l-2.8,3.41,3.37,3.69h-2.04l-2.89-3.18v3.18h-1.58v-7.1Z"/>
    <path class="cls-12" d="m533.58,115.84h-1.81v-1.52h5.24v1.52h-1.83v5.58h-1.6v-5.58Z"/>
    <path class="cls-12" d="m537.98,114.32h4.5v1.52h-2.91v1.27h2.31v1.52h-2.31v1.27h2.91v1.52h-4.5v-7.1Z"/>
    <path class="cls-12" d="m543.26,119.14h1.59c.1.6.59.93,1.21.93.53,0,.92-.23.92-.63,0-.33-.25-.59-.93-.77l-.69-.18c-1.13-.3-1.91-1.02-1.92-2.13-.01-1.34.97-2.16,2.44-2.16,1.55,0,2.52,1.13,2.56,2.22h-1.58c-.16-.56-.6-.75-.98-.75-.46,0-.83.2-.84.58,0,.39.31.62.86.76l.81.21c1.16.3,1.88,1.06,1.88,2.17,0,1.21-1,2.15-2.53,2.15-1.76,0-2.74-1.21-2.8-2.4Z"/>
    <path class="cls-12" d="m550.83,115.84h-1.81v-1.52h5.24v1.52h-1.83v5.58h-1.6v-5.58Z"/>
  </g>
  <g>
    <path class="cls-12" d="m605.15,157.66h1.73l1.89,4.73,1.88-4.73h1.75l-2.91,7.1h-1.43l-2.91-7.1Z"/>
    <path class="cls-12" d="m614.59,157.66h1.44l3.04,7.1h-1.66l-.63-1.5h-2.94l-.63,1.5h-1.66l3.04-7.1Zm1.61,4.22l-.89-2.14-.89,2.14h1.78Z"/>
    <path class="cls-12" d="m619.82,157.66h1.59v5.58h2.94v1.52h-4.53v-7.1Z"/>
    <path class="cls-12" d="m625.34,157.66h1.59v7.1h-1.59v-7.1Z"/>
    <path class="cls-12" d="m628.43,157.66h2.42c2,0,3.62,1.58,3.62,3.55s-1.62,3.55-3.62,3.55h-2.42v-7.1Zm2.42,5.64c1.2,0,2.01-.95,2.01-2.09s-.81-2.09-2.01-2.09h-.83v4.18h.83Z"/>
    <path class="cls-12" d="m637.52,157.66h1.44l3.04,7.1h-1.66l-.63-1.5h-2.94l-.63,1.5h-1.66l3.04-7.1Zm1.61,4.22l-.89-2.14-.89,2.14h1.78Z"/>
    <path class="cls-12" d="m643.32,159.18h-1.81v-1.52h5.24v1.52h-1.83v5.58h-1.6v-5.58Z"/>
    <path class="cls-12" d="m647.72,157.66h4.5v1.52h-2.91v1.27h2.31v1.52h-2.31v1.27h2.91v1.52h-4.5v-7.1Z"/>
    <path class="cls-12" d="m653.43,157.66h2.42c2,0,3.62,1.58,3.62,3.55s-1.62,3.55-3.62,3.55h-2.42v-7.1Zm2.42,5.64c1.2,0,2.01-.95,2.01-2.09s-.81-2.09-2.01-2.09h-.83v4.18h.83Z"/>
    <path class="cls-12" d="m591.54,171.21c0-2.02,1.64-3.67,3.67-3.67s3.67,1.65,3.67,3.67c0,.69-.19,1.33-.52,1.88l2.05,1.67h-2.25l-.75-.61c-.62.46-1.38.73-2.2.73-2.03,0-3.67-1.65-3.67-3.67Zm4.59,1.9l-1.01-.82.9-1.1,1.07.87c.12-.26.18-.55.18-.85,0-1.15-.91-2.13-2.06-2.13s-2.07.98-2.07,2.13.91,2.13,2.07,2.13c.33,0,.65-.08.92-.23Z"/>
    <path class="cls-12" d="m600.13,171.95v-4.29h1.59v4.31c0,.85.54,1.37,1.33,1.37s1.33-.52,1.33-1.37v-4.31h1.59v4.29c0,1.77-1.22,2.93-2.92,2.93s-2.92-1.16-2.92-2.93Z"/>
    <path class="cls-12" d="m607.39,167.66h4.5v1.52h-2.91v1.27h2.31v1.52h-2.31v1.27h2.91v1.52h-4.5v-7.1Z"/>
    <path class="cls-12" d="m612.67,172.48h1.59c.1.6.59.93,1.21.93.53,0,.92-.23.92-.63,0-.33-.25-.59-.93-.77l-.69-.18c-1.13-.3-1.91-1.02-1.92-2.13-.01-1.34.97-2.16,2.44-2.16,1.55,0,2.52,1.13,2.56,2.22h-1.58c-.16-.56-.6-.75-.98-.75-.46,0-.83.2-.84.58,0,.39.31.62.86.76l.81.21c1.16.3,1.88,1.06,1.88,2.17,0,1.21-1,2.15-2.53,2.15-1.76,0-2.74-1.21-2.8-2.4Z"/>
    <path class="cls-12" d="m620.24,169.18h-1.81v-1.52h5.24v1.52h-1.83v5.58h-1.6v-5.58Z"/>
    <path class="cls-12" d="m624.64,167.66h1.59v7.1h-1.59v-7.1Z"/>
    <path class="cls-12" d="m627.33,171.21c0-2.02,1.64-3.67,3.67-3.67s3.67,1.65,3.67,3.67-1.65,3.67-3.67,3.67-3.67-1.65-3.67-3.67Zm5.73,0c0-1.15-.91-2.13-2.06-2.13s-2.07.98-2.07,2.13.91,2.13,2.07,2.13,2.06-.98,2.06-2.13Z"/>
    <path class="cls-12" d="m640.81,174.76l-3.46-4.39v4.39h-1.59v-7.1h1.37l3.45,4.38v-4.38h1.6v7.1h-1.37Z"/>
    <path class="cls-12" d="m648.73,174.76l-3.46-4.39v4.39h-1.59v-7.1h1.37l3.45,4.38v-4.38h1.6v7.1h-1.37Z"/>
    <path class="cls-12" d="m653.88,167.66h1.44l3.04,7.1h-1.66l-.63-1.5h-2.94l-.63,1.5h-1.66l3.04-7.1Zm1.61,4.22l-.89-2.14-.89,2.14h1.78Z"/>
    <path class="cls-12" d="m659.11,167.66h1.59v7.1h-1.59v-7.1Z"/>
    <path class="cls-12" d="m662.2,167.66h2.8c1.34,0,2.2.96,2.2,2.14,0,.92-.49,1.51-1.39,1.83l2.51,3.13h-1.91l-2.36-2.93h-.26v2.93h-1.59v-7.1Zm2.61,2.82c.47,0,.81-.27.81-.68s-.34-.68-.81-.68h-1.02v1.36h1.02Z"/>
    <path class="cls-12" d="m668.82,167.66h4.5v1.52h-2.91v1.27h2.31v1.52h-2.31v1.27h2.91v1.52h-4.5v-7.1Z"/>
  </g>
  <g id="_27aoYL" data-name="27aoYL">
    <g>
      <path class="cls-11" d="m637.98,115.63c0,.91.02,1.73,0,2.54-.02.53.19.69.7.69,1.52-.02,3.03.01,4.55-.02.59-.01.78.19.78.78-.01,10.8-.01,21.6,0,32.4,0,.6-.21.78-.79.78-8.35-.01-16.71-.02-25.06,0-.69,0-.84-.26-.84-.89.02-7.48.01-14.95.01-22.43,0-3.22.02-6.44-.02-9.66,0-.74.17-1.03.97-1,1.59.06,3.19,0,4.79.03.55.01.77-.16.74-.72-.04-.64.01-1.28,0-1.91-.01-.45.18-.61.62-.6.9.02,1.81-.01,2.71.01.45.01.7-.12.89-.58.51-1.25,1.49-1.94,2.84-1.95,1.35,0,2.36.63,2.89,1.88.22.52.5.66,1.02.65,1.03-.03,2.07,0,3.22,0Zm-14.19,6.22c0-.39-.03-.68,0-.96.08-.66-.17-.9-.84-.87-1.12.05-2.23.01-3.35.02-1.08,0-1.09,0-1.09,1.09,0,9.76,0,19.53,0,29.29q0,1.18,1.16,1.18c7.34,0,14.69,0,22.03,0q1.09,0,1.09-1.08c0-8.57,0-17.13,0-25.7,0-1.33-.03-2.66.01-3.99.02-.66-.23-.83-.84-.8-1.04.04-2.08.05-3.11,0-.71-.04-.99.22-.88.91.12.74-.2.93-.93.93-4.1-.03-8.2-.02-12.29-.02-.29,0-.57,0-.97,0Zm12.96-4.95c-.16-.05-.23-.08-.31-.08-.88,0-1.76-.04-2.63,0-.65.03-1-.07-1.04-.87-.05-.97-.91-1.65-1.84-1.66-.97-.01-1.78.67-1.96,1.65-.05.26-.06.52-.1.86-.93,0-1.83,0-2.73,0-1.29,0-1.18-.15-1.18,1.22,0,.59.04,1.18-.01,1.75-.07.7.17.92.88.91,3.38-.03,6.76-.01,10.14-.02.25,0,.51-.03.78-.05v-3.71Z"/>
      <path class="cls-11" d="m646.96,152.45c-.19-1.13-1-1.88-.53-2.94.09-.2.02-.47.02-.71,0-4.04,0-8.09,0-12.13,0-.31,0-.62,0-.97h1.17c0,.32,0,.63,0,.94,0,4.1-.06,8.2.04,12.29.03,1.02-.02,1.96-.38,2.9-.05.14-.14.27-.32.64Z"/>
      <path class="cls-11" d="m646.52,132.93c1.18-.23,1.34.04.99,1.69h-.99v-1.69Z"/>
      <path class="cls-11" d="m622.67,140.5c-.21-1.07-.18-1.12.8-1.12,2.39,0,4.78,0,7.17,0,.4,0,.87-.15.89.57.01.69-.42.61-.85.61-2.44,0-4.89,0-7.33,0-.23,0-.47-.03-.68-.05Z"/>
      <path class="cls-11" d="m627.09,128.32c1.25,0,2.5.01,3.75,0,.44,0,.69.09.69.61,0,.55-.31.58-.72.58-2.53,0-5.05-.01-7.58,0-.44,0-.69-.08-.69-.61,0-.56.31-.58.72-.58,1.28,0,2.55,0,3.83,0h0Z"/>
      <path class="cls-11" d="m626.97,135.04c-1.17,0-2.34,0-3.51,0-.43,0-.94.15-.92-.61.02-.76.55-.58.96-.58,2.37-.01,4.73,0,7.1,0,.44,0,.93-.12.92.62,0,.71-.48.57-.88.57-1.22,0-2.45,0-3.67,0Z"/>
      <path class="cls-11" d="m627.06,144.9c1.25,0,2.5,0,3.75,0,.41,0,.71.04.71.59,0,.52-.26.61-.69.61-2.52,0-5.05,0-7.57,0-.42,0-.71-.05-.71-.59,0-.53.26-.61.69-.61,1.28.01,2.55,0,3.83,0Z"/>
      <path class="cls-11" d="m635.81,139.78c.68-.79,1.3-1.52,1.96-2.3.36.34.61.56.83.76-1.01,1-1.99,1.96-2.92,2.88-.59-.58-1.27-1.25-2.06-2.03.19-.15.43-.35.77-.63.42.39.83.77,1.42,1.32Z"/>
      <path class="cls-11" d="m637.86,126.49c.29.28.53.51.74.71-1.02.99-2,1.95-2.92,2.84-.59-.55-1.29-1.21-2.05-1.92.24-.23.48-.46.76-.73.42.4.81.76,1.3,1.23.71-.7,1.42-1.39,2.17-2.13Z"/>
      <path class="cls-11" d="m634.32,143.9c.55.53.92.87,1.44,1.37.62-.79,1.22-1.56,1.96-2.51.46.54.69.82.9,1.07-1.02,1.02-1.99,1.99-2.94,2.94-.66-.67-1.33-1.34-2.07-2.07.21-.24.45-.51.7-.8Z"/>
      <path class="cls-11" d="m637.77,131.93c.38.36.62.58.86.82-1.03.99-2.01,1.94-2.98,2.88-.59-.59-1.28-1.27-2.01-1.99.22-.21.46-.44.74-.7.45.41.85.78,1.37,1.26.68-.76,1.32-1.48,2.01-2.26Z"/>
    </g>
  </g>
  <g>
    <g id="a0Abqb">
      <path d="m550.12,92.02c.68-1.62,1.36-3.24,2.04-4.85.68-1.61,1.36-3.23,2.06-4.88h-3.81c.09-.24.17-.45.25-.66,1.15-2.89,2.3-5.79,3.44-8.68.06-.15.13-.2.29-.2,1.23,0,2.45,0,3.68,0,.06,0,.11,0,.21.01-.92,2.22-1.82,4.42-2.74,6.66h4.02c-.06.1-.09.16-.13.21-1.53,2.08-3.06,4.16-4.59,6.23-1.49,2.02-2.97,4.03-4.46,6.05-.06.08-.1.17-.27.12Z"/>
    </g>
    <path d="m554.33,93.32c-5.28-.21-10.07-1.88-14.6-4.4-2.99-1.67-5.79-3.61-8.17-6.09-1.18-1.23-1.18-1.64.04-2.8,3.57-3.39,7.58-6.12,12.11-8.08,7.71-3.33,15.32-3,22.83.63,3.99,1.93,7.58,4.45,10.79,7.5,1.12,1.06,1.14,1.56.05,2.59-4.99,4.67-10.62,8.27-17.36,9.83-1.85.43-3.78.55-5.67.82Zm0-2.35c5.11.09,9.56-4.18,9.66-9.27.1-5.33-4.11-9.77-9.34-9.85-5.33-.08-9.71,4.12-9.8,9.4-.1,5.25,4.18,9.64,9.48,9.73Zm-9.04-1.93c-3.56-5.05-3.52-10.08-.09-15.19-4.49,1.77-8.34,4.37-11.93,7.64,3.61,3.33,7.53,5.86,12.02,7.55Zm18.31-.05c4.44-1.74,8.3-4.32,11.88-7.59-3.55-3.23-7.39-5.83-11.85-7.55,3.47,5.07,3.45,10.09-.03,15.14Z"/>
  </g>
  <g>
    <line class="cls-7" x1="509.05" y1="81.49" x2="518.95" y2="81.49"/>
    <polygon points="517.32 87.07 526.99 81.49 517.32 75.9 517.32 87.07"/>
  </g>
  <g id="Pc4Sao">
    <g>
      <path d="m472.9,80.99c.01-6.45,4.12-12.33,10.15-14.46.86-.3,1.77-.48,2.67-.69.2-.05.29-.12.28-.32,0-.04,0-.09,0-.13.09-.61-.11-1.01-.63-1.44-1.42-1.16-1.89-2.73-1.46-4.5.43-1.75,1.58-2.87,3.33-3.29,3-.73,5.82,1.72,5.54,4.79-.13,1.37-.75,2.48-1.89,3.26-.23.16-.35.32-.31.61.04.31-.06.71.1.9.15.18.56.15.85.22,3.46.78,6.34,2.52,8.61,5.25,1.74,2.1,2.85,4.51,3.29,7.19.69,4.21-.23,8.08-2.7,11.56-1.97,2.76-4.62,4.61-7.83,5.65-6.27,2.04-13.41-.38-17.17-5.8-1.36-1.96-2.24-4.11-2.62-6.45-.13-.78-.15-1.57-.22-2.36Zm27.49-.03c0-6.7-5.41-12.12-12.1-12.12-6.63,0-12.1,5.45-12.1,12.07,0,6.73,5.41,12.15,12.11,12.15,6.67,0,12.09-5.43,12.09-12.1Zm-12.09-18.36c.65,0,1.3.02,1.95-.01.16,0,.38-.12.47-.25.63-.84.78-1.78.45-2.77-.4-1.19-1.26-1.89-2.49-2.05-1.32-.16-2.38.36-3.03,1.52-.63,1.12-.52,2.25.21,3.31.12.17.27.25.49.25.65-.01,1.3,0,1.95,0Z"/>
      <path d="m498.31,67.4c.76-.75,1.52-1.5,2.29-2.24.04-.04.24.02.3.08.77.75,1.52,1.51,2.28,2.26.37.37.73.74,1.1,1.1.13.13.14.22,0,.35-.7.69-1.4,1.39-2.09,2.09-.11.11-.2.13-.33,0-1.16-1.16-2.31-2.31-3.47-3.47-.04-.04-.05-.09-.1-.18Z"/>
      <path d="m478.34,67.5c-.39.36-.75.67-1.1,1.01-.83.81-1.65,1.63-2.46,2.46-.19.2-.31.19-.49,0-.64-.66-1.3-1.31-1.96-1.95-.17-.17-.17-.29,0-.45,1.12-1.11,2.24-2.23,3.36-3.36.13-.13.22-.14.35,0,.73.74,1.47,1.47,2.3,2.3Z"/>
      <path d="m488.3,84.7c-1.81,0-3.4-1.32-3.69-3.02-.32-1.83.64-3.67,2.53-4.28,1.27-.41,2.47-.17,3.52.67.2.16.36.19.61.11,1.98-.64,3.96-1.27,5.95-1.89.13-.04.28-.07.42-.07.37,0,.66.2.75.51.09.32-.03.69-.35.87-.7.41-1.42.8-2.13,1.19-1.2.66-2.39,1.32-3.6,1.97-.18.1-.27.21-.28.42-.11,1.99-1.74,3.52-3.73,3.52Z"/>
    </g>
  </g>
  <g>
    <g>
      <circle class="cls-1" cx="545.55" cy="198.68" r="9.99"/>
      <circle class="cls-12" cx="545.55" cy="198.68" r="3.81"/>
    </g>
    <path d="m545.46,210.35c-5.21-.21-9.93-1.85-14.4-4.34-2.95-1.64-5.71-3.56-8.06-6.01-1.16-1.21-1.16-1.62.04-2.76,3.52-3.35,7.47-6.04,11.94-7.97,7.6-3.28,15.1-2.96,22.52.62,3.94,1.9,7.47,4.39,10.64,7.4,1.1,1.05,1.13,1.54.05,2.55-4.92,4.61-10.47,8.16-17.12,9.7-1.83.42-3.73.55-5.59.81Zm0-2.32c5.04.09,9.43-4.13,9.53-9.14.1-5.26-4.06-9.64-9.21-9.72-5.25-.08-9.57,4.06-9.67,9.27-.09,5.17,4.13,9.5,9.35,9.59Zm-8.92-1.91c-3.51-4.98-3.47-9.95-.09-14.98-4.43,1.74-8.23,4.31-11.76,7.53,3.56,3.28,7.43,5.78,11.85,7.45Zm18.06-.05c4.38-1.72,8.18-4.26,11.72-7.49-3.5-3.19-7.28-5.75-11.68-7.45,3.43,5,3.4,9.95-.03,14.93Z"/>
    <path class="cls-12" d="m551.81,203.37c1.29,0,1.29-2,0-2s-1.29,2,0,2h0Z"/>
    <path class="cls-12" d="m549.36,205.83c1.29,0,1.29-2,0-2s-1.29,2,0,2h0Z"/>
    <path class="cls-12" d="m545.25,206.11c1.29,0,1.29-2,0-2s-1.29,2,0,2h0Z"/>
    <path class="cls-12" d="m541.73,204.65c1.29,0,1.29-2,0-2s-1.29,2,0,2h0Z"/>
    <path class="cls-12" d="m538.68,202.55c1.29,0,1.29-2,0-2s-1.29,2,0,2h0Z"/>
    <path class="cls-12" d="m547.8,208.84c1.29,0,1.29-2,0-2s-1.29,2,0,2h0Z"/>
    <path class="cls-12" d="m552.45,206.56c1.29,0,1.29-2,0-2s-1.29,2,0,2h0Z"/>
    <path class="cls-12" d="m542.6,208.66c1.29,0,1.29-2,0-2s-1.29,2,0,2h0Z"/>
    <path class="cls-12" d="m539.18,207.08c1.29,0,1.29-2,0-2s-1.29,2,0,2h0Z"/>
  </g>
  <g>
    <circle class="cls-1" cx="504.11" cy="255.6" r="8.96"/>
    <circle class="cls-12" cx="504.11" cy="255.6" r="3.42"/>
  </g>
  <path d="m504.04,265.58c-4.45-.18-8.49-1.58-12.32-3.71-2.52-1.4-4.88-3.05-6.89-5.14-1-1.03-.99-1.38.03-2.36,3.01-2.86,6.39-5.16,10.21-6.81,6.5-2.81,12.91-2.53,19.25.53,3.37,1.63,6.39,3.75,9.1,6.33.94.9.96,1.32.04,2.18-4.21,3.94-8.95,6.98-14.64,8.29-1.56.36-3.19.47-4.78.69Zm0-1.98c4.31.07,8.06-3.53,8.15-7.82.09-4.49-3.47-8.24-7.88-8.31-4.49-.07-8.19,3.47-8.27,7.92-.08,4.42,3.53,8.13,8,8.2Zm-7.63-1.63c-3-4.26-2.97-8.5-.08-12.81-3.79,1.49-7.03,3.68-10.06,6.44,3.04,2.81,6.35,4.94,10.14,6.37Zm15.44-.04c3.74-1.47,7-3.64,10.02-6.4-2.99-2.73-6.23-4.91-9.99-6.37,2.93,4.28,2.91,8.51-.03,12.77Z"/>
  <polyline class="cls-1" points="518.9 267.4 521.4 267.4 521.4 269.9 518.9 269.9"/>
  <g>
    <g>
      <circle class="cls-1" cx="476.79" cy="316.72" r="9.46"/>
      <circle class="cls-12" cx="476.79" cy="316.72" r="3.61"/>
    </g>
    <path d="m476.71,327.78c-4.93-.2-9.41-1.75-13.64-4.11-2.79-1.56-5.4-3.37-7.64-5.69-1.1-1.15-1.1-1.53.04-2.62,3.33-3.17,7.08-5.72,11.31-7.54,7.2-3.11,14.31-2.8,21.33.59,3.73,1.8,7.08,4.16,10.08,7.01,1.04.99,1.07,1.46.04,2.42-4.66,4.37-9.92,7.73-16.22,9.18-1.73.4-3.53.52-5.3.77Zm0-2.2c4.77.08,8.93-3.91,9.02-8.66.1-4.98-3.84-9.13-8.72-9.2-4.97-.07-9.07,3.85-9.16,8.78-.09,4.9,3.91,9,8.86,9.09Zm-8.45-1.81c-3.32-4.72-3.29-9.42-.09-14.19-4.2,1.65-7.79,4.08-11.14,7.14,3.37,3.11,7.04,5.47,11.23,7.05Zm17.11-.04c4.14-1.63,7.75-4.03,11.1-7.09-3.31-3.02-6.9-5.44-11.06-7.05,3.24,4.74,3.22,9.43-.03,14.14Z"/>
    <path class="cls-12" d="m490.12,316.29c1.29,0,1.29-2,0-2s-1.29,2,0,2h0Z"/>
    <path class="cls-12" d="m492.87,318.33c1.29,0,1.29-2,0-2s-1.29,2,0,2h0Z"/>
    <path class="cls-12" d="m460.67,317.65c1.29,0,1.29-2,0-2s-1.29,2,0,2h0Z"/>
    <path class="cls-12" d="m463.56,315.97c1.29,0,1.29-2,0-2s-1.29,2,0,2h0Z"/>
    <path class="cls-12" d="m489.89,319.69c1.29,0,1.29-2,0-2s-1.29,2,0,2h0Z"/>
    <path class="cls-12" d="m463.56,319.43c1.29,0,1.29-2,0-2s-1.29,2,0,2h0Z"/>
  </g>
  <circle cx="620.6" cy="349.22" r="4.94"/>
  <path class="cls-10" d="m596.8,359.04s20.87-30.76,47.59,0c0,0-22.9,31.26-47.59,0Z"/>
  <g>
    <path class="cls-5" d="m599.97,356.95s.2.3.58.81"/>
    <path class="cls-6" d="m601.83,359.32c4.85,5.51,18.84,17.42,38.04-.53"/>
    <path class="cls-5" d="m640.6,358.1c.24-.23.47-.46.71-.7"/>
  </g>
  <line class="cls-3" x1="620.6" y1="360.89" x2="620.6" y2="367.81"/>
  <line class="cls-3" x1="619.38" y1="368.23" x2="621.83" y2="368.23"/>
  <g>
    <line class="cls-3" x1="620.64" y1="374.83" x2="620.64" y2="378.57"/>
    <line class="cls-3" x1="619.42" y1="374.83" x2="621.87" y2="374.83"/>
  </g>
  <path class="cls-10" d="m609.85,348.78c0,5.94,4.81,10.75,10.75,10.75s10.75-4.81,10.75-10.75"/>
  <g>
    <g>
      <path d="m524.8,259.75c-.57-.88-1.41-1.17-2.4-.8-.54.21-1.04.55-1.54.86-.82.51-.8.51-1.49-.18-.12-.12-.19-.22-.22-.33-.12-.04-.24-.09-.35-.14-.02,0-.04,0-.06,0-.2,0-.4,0-.6.03-.1,0-.19.03-.29.04,0,0,0,0,0,0-.04,0-.09.02-.13.03-.31.07-.6.17-.9.29-.12.1-.24.2-.36.3-.09.14-.17.29-.24.44-.02.04-.04.08-.05.13-.02.08-.05.16-.07.24-.02.09-.04.18-.05.27,0,.04-.01.08-.02.12,0,.2,0,.39.02.59,0,.03.01.07.02.1,0,0,0,.01,0,.02.02.11.05.21.09.32.03.08.03.16.04.25.01.01.02.03.03.04.25.35-.11.51-.35.68-.29.2-.6.39-.89.58-1.31.86-1.55,1.97-.7,3.27,2.43,3.76,4.87,7.52,7.3,11.28.09.13.15.32.27.38.17.07.42.11.57.03.12-.06.21-.33.18-.48-.04-.2-.2-.38-.32-.56-2.4-3.71-4.81-7.42-7.21-11.13-.53-.82-.4-1.45.42-2,.39-.26.79-.52,1.19-.77,1.02-.66,1.05-.8.35-1.78-.05-.06-.08-.14-.14-.19-.44-.36-.25-.58.12-.85,1.28-.91,1.28-.93,2.26.31.32.4.65.46,1.07.18.56-.37,1.13-.73,1.69-1.09,1.05-.66,1.53-.56,2.19.46,2.42,3.74,4.85,7.49,7.27,11.23.2.3.41.59.8.33.36-.24.21-.53.02-.82-2.51-3.87-5.02-7.75-7.54-11.62Z"/>
      <path d="m519.54,263.34c.96-.62,1.91-1.25,2.88-1.86.71-.45,1.36-.31,1.83.39.79,1.16,1.53,2.35,2.33,3.5.31.44.22.71-.22.94-.17.09-.33.27-.51.29-.19.03-.49-.01-.58-.14-.55-.77-1.05-1.57-1.55-2.38-.07-.11-.06-.37.02-.47.43-.54-.06-.85-.3-1.18-.28-.39-.6-.1-.87.07-1.69,1.09-3.38,2.18-5.07,3.28-.27.18-.67.35-.43.77.21.36.31.97,1.01.72.12-.04.37.09.46.22.51.75.99,1.52,1.49,2.28.19.29.17.51-.11.7-.2.13-.4.26-.6.39-.29.19-.51.14-.7-.15-.82-1.26-1.66-2.5-2.44-3.78-.4-.65-.21-1.25.43-1.68.97-.65,1.95-1.27,2.93-1.9Z"/>
      <path d="m526.29,273.84c-.94.61-1.88,1.23-2.83,1.83-.68.43-1.35.33-1.82-.32-.56-.78-1.07-1.61-1.6-2.42-.4-.62.16-.77.51-1.02.34-.25.66-.37.93.1.21.36.44.7.68,1.04.18.27.26.51.02.8-.3.35-.06.67.19.87.16.12.54.15.71.04,1.82-1.14,3.62-2.31,5.41-3.5.16-.1.28-.44.24-.62-.08-.3-.23-.7-.68-.58-.41.11-.58-.1-.75-.39-.17-.29-.36-.56-.54-.85-.39-.61-.38-.68.21-1.08.76-.5.83-.51,1.23.11.47.73.93,1.46,1.38,2.21.45.75.28,1.45-.46,1.93-.94.62-1.89,1.22-2.83,1.83Z"/>
      <rect class="cls-8" x="521.62" y="264.76" width="2.67" height="7.68" transform="translate(-62 327.41) rotate(-32.93)"/>
    </g>
    <rect class="cls-12" x="521.49" y="267.54" width="3.11" height="1.59" transform="translate(-61.84 327.42) rotate(-32.93)"/>
  </g>
  <g>
    <path class="cls-14" d="m683.36,36.59l-12.44,17.87-6.49-4.51,20.17-28.97,5.92,4.12.37,18.79,17.75-6.18,5.92,4.12-20.17,28.97-6.53-4.54,12.44-17.87-16.6,5.83-.34-17.62Z"/>
    <path class="cls-14" d="m725.21,50.5l17.07,14.46-4.88,5.76-11.04-9.35-4.08,4.82,8.76,7.42-4.88,5.76-8.76-7.42-4.08,4.82,11.04,9.35-4.88,5.76-17.07-14.46,22.82-26.93Z"/>
    <path class="cls-14" d="m759.2,81.1l5.04,5.08-14.42,35.59-5.81-5.86,3.09-7.47-10.29-10.38-7.5,3.03-5.81-5.86,35.71-14.12Zm-9.26,20.46l4.44-10.63-10.67,4.35,6.23,6.28Z"/>
    <path class="cls-14" d="m760.56,117.1l5.07,6.06c-1.97,2.3-1.67,5.22.31,7.58,1.69,2.02,3.81,2.77,5.34,1.5,1.26-1.05,1.45-2.84-.03-6l-1.52-3.21c-2.46-5.27-2.2-10.54,2-14.11,5.08-4.31,11.33-3.19,16.02,2.41,4.94,5.91,3.73,13.21-.3,16.84l-5.04-6.02c1.62-2.4.95-4.68-.27-6.13-1.47-1.75-3.41-2.53-4.89-1.35-1.52,1.21-1.38,3.16-.16,5.7l1.78,3.76c2.56,5.38,1.95,10.55-2.28,14.09-4.61,3.86-11.39,3.04-16.27-2.79-5.61-6.71-4.12-14.31.22-18.33Z"/>
    <path class="cls-14" d="m785.34,143.14l17.46-12.24,4.54,6.47-17.54,12.3c-3.46,2.43-4.04,6.11-1.78,9.32,2.25,3.22,5.91,3.93,9.37,1.5l17.54-12.3,4.54,6.47-17.46,12.24c-7.2,5.05-15.41,3.4-20.26-3.52-4.88-6.96-3.61-15.2,3.59-20.25Z"/>
    <path class="cls-14" d="m826.48,165.82l6.94,12.07c3.32,5.77,1.32,11.86-3.77,14.78-3.96,2.28-7.72,1.63-11.33-1.45l-7.27,18.57-4.73-8.23,6.78-17.43-.64-1.12-12.63,7.26-3.94-6.85,30.6-17.6Zm-5.68,18.24c1.17,2.03,3.17,2.82,4.94,1.81,1.85-1.07,2.09-3.15.92-5.18l-2.53-4.4-5.86,3.37,2.53,4.4Z"/>
    <path class="cls-14" d="m845.28,199.79l9.53,20.23-6.83,3.22-6.17-13.08-5.71,2.69,4.89,10.39-6.83,3.22-4.89-10.39-5.71,2.69,6.17,13.08-6.83,3.22-9.53-20.23,31.93-15.04Z"/>
    <path class="cls-14" d="m849.76,243.32l-20.49,7.37-2.67-7.44,33.22-11.94,2.44,6.78-10.58,15.53,18.05,5.24,2.44,6.78-33.22,11.94-2.69-7.49,20.49-7.37-16.91-4.86,9.93-14.56Z"/>
    <path class="cls-14" d="m875.82,278.88l5.53,21.67-7.32,1.87-3.58-14.01-6.12,1.56,2.84,11.12-7.32,1.87-2.84-11.12-6.12,1.56,3.58,14.01-7.32,1.87-5.53-21.67,34.19-8.73Z"/>
    <path class="cls-14" d="m853.2,342.81l18.78-20.48-21.54,3.5-1.27-7.8,34.84-5.66,1.09,6.72-18.74,20.42,21.49-3.49,1.28,7.85-34.84,5.66-1.09-6.72Z"/>
    <path class="cls-14" d="m883.38,364.3l-.65-8.97,7.54-.54,1.88,25.98-7.54.54-.66-9.07-27.67,2-.57-7.93,27.67-2Z"/>
  </g>
  <g>
    <g>
      <path class="cls-12" d="m738.37,428.04c1.17,0,2.11.94,2.11,2.06,0,.52-.19.94-.56,1.27.64.31,1.05.91,1.05,1.68,0,1.17-.94,2.09-2.2,2.09h-3v-7.1h2.6Zm-.14,1.32h-1.01v1.59h1.01c.49,0,.84-.34.84-.79s-.35-.8-.84-.8Zm.44,2.82h-1.45v1.63h1.45c.53,0,.89-.34.89-.81s-.36-.82-.89-.82Z"/>
      <path class="cls-12" d="m743.81,428.04v5.72h3.04v1.38h-4.49v-7.1h1.45Z"/>
      <path class="cls-12" d="m749.57,428.04v7.1h-1.45v-7.1h1.45Z"/>
      <path class="cls-12" d="m757.74,428.04v7.1h-1.25l-3.64-4.63v4.63h-1.45v-7.1h1.25l3.64,4.63v-4.63h1.45Z"/>
      <path class="cls-12" d="m764.09,435.13l-3.08-3.23v3.23h-1.44v-7.1h1.44v3l2.56-3h1.79l-2.92,3.41,3.53,3.69h-1.88Z"/>
      <path class="cls-12" d="m773.23,435.13l-2.43-2.99h-.36v2.99h-1.45v-7.1h2.72c1.31,0,2.18.91,2.18,2.1,0,.92-.49,1.54-1.46,1.85l2.55,3.15h-1.75Zm-1.69-4.23c.55,0,.91-.29.91-.77s-.36-.77-.91-.77h-1.1v1.54h1.1Z"/>
      <path class="cls-12" d="m780.23,433.51h-3.02l-.69,1.62h-1.5l3.06-7.1h1.29l3.07,7.1h-1.52l-.69-1.62Zm-.53-1.27l-.98-2.31-.98,2.31h1.96Z"/>
      <path class="cls-12" d="m782.21,429.41v-1.38h5.26v1.38h-1.91v5.72h-1.46v-5.72h-1.89Z"/>
      <path class="cls-12" d="m793.14,428.04v1.38h-2.97v1.46h2.37v1.38h-2.37v1.5h2.97v1.38h-4.42v-7.1h4.42Z"/>
      <path class="cls-12" d="m802.34,435.13l-.86-.83c-.69.65-1.32.94-2.13.94-1.52,0-2.36-.94-2.36-2.13,0-.87.47-1.44,1.26-1.93-.48-.48-.77-.92-.77-1.49,0-.95.86-1.78,2.01-1.78s1.98.86,1.98,1.77c0,.79-.44,1.27-1.21,1.7l1.16,1.13.67-.81h1.64l-1.41,1.67,1.82,1.76h-1.8Zm-3.2-3.09c-.54.33-.81.7-.81,1.11,0,.57.48.88,1.01.88.43,0,.82-.18,1.26-.58l-1.46-1.41Zm.28-1.45h.02c.49-.25.68-.46.68-.85s-.28-.67-.65-.67-.68.24-.68.63c0,.31.16.48.63.89Z"/>
      <path class="cls-12" d="m736.26,442.71c-.38,1.49-1.84,2.54-3.44,2.54-2.11.04-3.76-1.64-3.72-3.67-.04-2.03,1.61-3.71,3.72-3.67,1.6,0,3.06,1.05,3.44,2.54h-1.57c-.29-.69-1.06-1.14-1.87-1.14-1.33,0-2.26,1-2.26,2.27s.93,2.27,2.26,2.27c.81,0,1.58-.45,1.87-1.14h1.57Z"/>
      <path class="cls-12" d="m740.81,437.91c1.98-.04,3.71,1.69,3.67,3.67.04,1.98-1.69,3.71-3.67,3.67-1.98.04-3.71-1.69-3.67-3.67-.04-1.98,1.69-3.71,3.67-3.67Zm0,1.4c-1.21-.03-2.23,1.06-2.21,2.27-.02,1.21,1,2.3,2.21,2.27,1.21.03,2.23-1.06,2.21-2.27.02-1.21-1-2.3-2.21-2.27Z"/>
      <path class="cls-12" d="m753.15,438.04v7.1h-1.45v-4.62l-2.18,2.99-2.18-2.99v4.62h-1.45v-7.1h1.32l2.31,3.16,2.31-3.16h1.32Z"/>
      <path class="cls-12" d="m756.43,442.81v2.32h-1.45v-7.1h2.36c1.43,0,2.49,1.04,2.49,2.39s-1.06,2.39-2.49,2.39h-.91Zm0-3.42v2.06h.89c.65,0,1.1-.44,1.1-1.03s-.45-1.03-1.1-1.03h-.89Z"/>
      <path class="cls-12" d="m762.59,438.04v5.72h3.04v1.38h-4.49v-7.1h1.45Z"/>
      <path class="cls-12" d="m771.32,438.04v1.38h-2.97v1.46h2.37v1.38h-2.37v1.5h2.97v1.38h-4.42v-7.1h4.42Z"/>
      <path class="cls-12" d="m772.25,439.41v-1.38h5.26v1.38h-1.91v5.72h-1.46v-5.72h-1.89Z"/>
      <path class="cls-12" d="m783.18,438.04v1.38h-2.97v1.46h2.37v1.38h-2.37v1.5h2.97v1.38h-4.42v-7.1h4.42Z"/>
      <path class="cls-12" d="m791.03,438.04v7.1h-1.25l-3.64-4.63v4.63h-1.45v-7.1h1.25l3.64,4.63v-4.63h1.45Z"/>
      <path class="cls-12" d="m797.28,438.04v1.38h-2.97v1.46h2.37v1.38h-2.37v1.5h2.97v1.38h-4.42v-7.1h4.42Z"/>
      <path class="cls-12" d="m801.07,445.25c-1.63.03-2.68-1.13-2.72-2.32h1.44c.09.61.63.98,1.28.98.59,0,1.01-.28,1.01-.72,0-.39-.31-.68-.94-.86l-.76-.22c-1.16-.33-1.85-1.05-1.86-2.1,0-.65.22-1.16.65-1.53.43-.38,1.01-.57,1.73-.57,1.47-.02,2.45,1.08,2.49,2.16h-1.43c-.16-.56-.59-.82-1.06-.82-.53,0-.92.27-.92.68s.29.66.89.83l.84.23c1.16.33,1.84,1.07,1.84,2.15,0,1.2-1.01,2.11-2.48,2.11Z"/>
      <path class="cls-12" d="m807.26,445.25c-1.63.03-2.68-1.13-2.72-2.32h1.44c.09.61.63.98,1.28.98.59,0,1.01-.28,1.01-.72,0-.39-.31-.68-.94-.86l-.76-.22c-1.16-.33-1.85-1.05-1.86-2.1,0-.65.22-1.16.65-1.53.43-.38,1.01-.57,1.73-.57,1.47-.02,2.45,1.08,2.49,2.16h-1.43c-.16-.56-.59-.82-1.06-.82-.53,0-.92.27-.92.68s.29.66.89.83l.84.23c1.16.33,1.84,1.07,1.84,2.15,0,1.2-1.01,2.11-2.48,2.11Z"/>
    </g>
    <g id="Pc4Sao-2" data-name="Pc4Sao">
      <g>
        <path d="m780.24,387.59c.01-5.94,3.79-11.35,9.35-13.31.8-.28,1.63-.44,2.46-.64.18-.04.27-.11.26-.29,0-.04,0-.08,0-.12.08-.56-.1-.93-.58-1.32-1.31-1.07-1.74-2.51-1.34-4.15.4-1.61,1.45-2.64,3.07-3.03,2.76-.67,5.36,1.58,5.1,4.41-.12,1.26-.69,2.28-1.74,3-.21.15-.32.3-.29.56.03.28-.06.65.09.83.14.17.51.14.79.2,3.19.71,5.84,2.32,7.93,4.83,1.61,1.93,2.62,4.15,3.03,6.62.64,3.88-.21,7.44-2.49,10.65-1.81,2.54-4.25,4.24-7.2,5.2-5.77,1.88-12.34-.35-15.81-5.34-1.25-1.8-2.06-3.78-2.41-5.94-.12-.72-.14-1.45-.2-2.17Zm25.3-.02c0-6.17-4.99-11.16-11.14-11.16-6.11,0-11.14,5.02-11.14,11.11,0,6.19,4.98,11.19,11.15,11.19,6.14,0,11.13-5,11.13-11.14Zm-11.13-16.9c.6,0,1.2.02,1.8-.01.15,0,.35-.11.44-.23.58-.77.72-1.64.41-2.55-.37-1.09-1.16-1.74-2.29-1.88-1.21-.15-2.19.33-2.79,1.4-.58,1.03-.48,2.07.19,3.05.11.16.25.23.45.23.6-.01,1.2,0,1.8,0Z"/>
        <path d="m803.63,375.08c.7-.69,1.4-1.38,2.11-2.07.04-.04.22.01.28.08.71.69,1.4,1.39,2.1,2.08.34.34.67.68,1.02,1.01.12.12.13.21,0,.32-.64.64-1.29,1.28-1.93,1.92-.1.11-.19.12-.3,0-1.06-1.07-2.13-2.13-3.2-3.19-.03-.03-.05-.08-.09-.17Z"/>
        <path d="m785.25,375.17c-.35.33-.69.62-1.01.93-.76.75-1.52,1.5-2.26,2.27-.18.18-.28.17-.45,0-.59-.61-1.19-1.2-1.8-1.8-.16-.15-.16-.26,0-.42,1.03-1.03,2.07-2.06,3.09-3.09.12-.12.2-.12.32,0,.67.68,1.35,1.35,2.11,2.11Z"/>
        <path d="m794.42,391.01c-1.67,0-3.13-1.22-3.4-2.78-.29-1.69.59-3.38,2.33-3.94,1.17-.38,2.27-.16,3.25.61.19.15.33.17.57.1,1.82-.59,3.65-1.17,5.48-1.74.12-.04.25-.06.38-.06.34,0,.6.19.69.47.08.29-.03.63-.32.8-.65.38-1.3.73-1.96,1.1-1.1.61-2.2,1.21-3.31,1.81-.16.09-.25.19-.26.39-.1,1.83-1.61,3.24-3.44,3.24Z"/>
      </g>
    </g>
    <g>
      <path d="m756.78,390.9c-7.09.05-12.88,2.33-18.02,6.13-1.35.99-2.58,2.12-3.85,3.19-.56.47-1.14.57-1.68.04-.5-.49-.4-1.02.09-1.48,4.55-4.25,9.73-7.56,16.12-9.04,6.4-1.48,12.62-.79,18.67,1.46,3.77,1.4,7.23,3.31,10.37,5.68.26.2.52.39.75.61.45.44.55.94.09,1.42-.46.48-1.03.46-1.55.1-.7-.49-1.34-1.05-2.04-1.54-4.72-3.3-9.94-5.57-15.87-6.35-.33-.04-.66-.08-1-.1-.82-.05-1.64-.1-2.08-.12Z"/>
      <path d="m766.91,405.08c1.03,1.14,2.27,1.99,3.87,2.59.24.09.5.17.74.26.58.21.83.53.56.95-.28.44-.85.5-1.4.33-.68-.21-1.34-.47-1.96-.75-1.41-.64-2.55-1.48-3.42-2.49-.27-.31-.52-.42-1.07-.32-1.09.21-2.2.38-3.32.5-.65.07-.82.26-.73.69.2.92.35,1.84.52,2.75.03.13.07.27.08.4.05.56-.27.91-.9.93-.73.03-1.04-.28-1.13-.74-.18-.99-.34-1.99-.54-2.99-.2-.98-.05-.8-1.34-.82-.77-.01-1.75-.24-2.25,0-.48.24-.4.99-.7,1.47-.57.9-1.2,1.78-1.88,2.63-.37.47-1.03.56-1.54.33-.5-.23-.55-.66-.11-1.12.92-.96,1.56-1.99,1.91-3.12.12-.38,0-.57-.58-.65-.81-.12-1.61-.27-2.4-.45-.48-.11-.73-.04-.98.28-1.21,1.56-3,2.71-5.25,3.51-.55.2-1.13.19-1.46-.21-.33-.41-.17-.78.47-1.02.27-.1.53-.21.79-.32,1.43-.6,2.57-1.39,3.45-2.38.11-.13.21-.27.36-.47-1.23-.43-2.43-.85-3.64-1.24-.11-.04-.39.09-.52.19-1.92,1.49-4.35,2.28-7.17,2.53-.14.01-.27.03-.41.03-.77.03-1.3-.22-1.31-.65,0-.5.46-.66,1.1-.77,1.23-.2,2.5-.37,3.64-.73.98-.3,1.8-.85,2.83-1.35-.97-.48-1.72-.87-2.51-1.21-.14-.06-.49,0-.65.07-2.43,1.25-5.24,1.59-8.16,1.64-.84.01-1.37-.28-1.31-.72.06-.53.57-.7,1.27-.7,1.99,0,3.92-.22,5.72-.83.41-.14.78-.33,1.22-.52-.47-.37-.86-.66-1.23-.97-.39-.33-.42-.69.06-.98.5-.3,1-.23,1.47.08,4.68,3.12,10.16,5.18,16.55,6,4.98.64,9.69-.1,14.2-1.56,2.14-.7,4.16-1.52,6.06-2.48,1.12-.57,2.2-1.18,3.24-1.83.14-.09.29-.25.44-.25.43-.01.96-.07,1.28.08.47.21.43.61.08.92-.28.24-.61.46-.96.64-.47.24-.45.47-.15.78,1.45,1.5,3.52,2.3,6.01,2.65.19.03.39.04.57.08.58.12.9.39.78.82-.12.43-.56.63-1.16.57-3.09-.35-5.74-1.25-7.63-3.06-.15-.14-.29-.28-.43-.42-.03-.03-.09-.05-.21-.11-.94.45-1.9.91-2.93,1.4,1.32,1.25,2.94,2.11,4.9,2.66.28.08.58.14.86.22.55.17.77.53.51.85-.18.23-.71.44-1.08.44-.53,0-1.06-.19-1.57-.35-2-.6-3.64-1.53-5-2.71-.35-.3-.6-.35-1.09-.17-1.09.4-2.22.76-3.44,1.16Z"/>
      <path d="m747.78,413.59c-.93,1.27-2.06,2.23-3.52,2.9-.22.1-.45.19-.67.29-.53.23-.75.59-.51,1.07.25.49.77.56,1.28.37.62-.24,1.22-.52,1.78-.84,1.28-.72,2.31-1.66,3.1-2.79.24-.34.47-.47.97-.35.99.23,2,.42,3.02.56.59.08.75.29.66.78-.18,1.02-.32,2.06-.48,3.08-.02.15-.06.3-.07.45-.05.63.24,1.02.82,1.04.66.03.95-.31,1.03-.83.17-1.11.31-2.23.49-3.34.18-1.09.05-.89,1.22-.92.7-.01,1.59-.27,2.05,0,.44.27.36,1.1.64,1.64.52,1,1.09,1.99,1.71,2.95.34.53.93.63,1.4.37.45-.25.5-.74.1-1.26-.84-1.07-1.42-2.23-1.73-3.49-.11-.43,0-.63.52-.73.74-.13,1.47-.31,2.18-.51.44-.12.67-.05.89.31,1.09,1.75,2.72,3.03,4.77,3.93.5.22,1.03.22,1.32-.24.3-.46.15-.88-.43-1.14-.24-.11-.48-.24-.72-.36-1.29-.67-2.34-1.56-3.13-2.66-.1-.15-.19-.3-.32-.52,1.12-.48,2.2-.95,3.31-1.39.1-.04.36.1.47.21,1.75,1.67,3.95,2.56,6.51,2.84.12.01.25.03.37.04.7.04,1.18-.25,1.19-.73,0-.56-.41-.74-1-.86-1.12-.22-2.27-.42-3.31-.82-.89-.34-1.64-.95-2.57-1.51.88-.54,1.57-.97,2.28-1.36.13-.07.44-.01.59.08,2.21,1.4,4.76,1.78,7.41,1.83.77.02,1.24-.31,1.19-.81-.06-.59-.52-.78-1.15-.78-1.8,0-3.56-.24-5.2-.93-.37-.16-.71-.37-1.11-.58.42-.41.78-.74,1.11-1.08.36-.37.38-.77-.06-1.09-.46-.34-.91-.26-1.34.09-4.25,3.5-9.23,5.8-15.03,6.72-4.52.72-8.8-.11-12.9-1.75-3.1-1.24-5.91-2.86-8.44-4.83-.13-.1-.26-.27-.4-.28-.39-.02-.87-.07-1.16.09-.43.24-.4.69-.07,1.03.25.27.55.51.87.71.42.27.41.53.14.87-1.32,1.68-3.2,2.58-5.46,2.97-.17.03-.35.04-.52.09-.53.14-.81.44-.71.92.1.48.51.71,1.05.63,2.81-.39,5.21-1.4,6.93-3.43.13-.16.26-.32.39-.47.03-.03.08-.05.19-.12.85.5,1.73,1.02,2.66,1.57-1.19,1.4-2.67,2.36-4.45,2.98-.26.09-.53.15-.78.25-.5.19-.7.59-.46.95.17.25.65.5.98.49.48,0,.96-.22,1.42-.39,1.81-.68,3.31-1.72,4.54-3.03.32-.34.55-.39.99-.19.99.45,2.02.85,3.12,1.3Z"/>
      <path class="cls-2" d="m733.58,400.62c.03,1.55,1.32,5.35,3.81,6.47"/>
      <path class="cls-2" d="m778.01,400.62s.33,2.37-2.13,5.74c-.82,1.12-.33,1.08-1.88,2.37"/>
    </g>
  </g>
  <g>
    <g>
      <path class="cls-12" d="m576.05,478.53v7.1h-1.45v-4.62l-2.18,2.99-2.18-2.99v4.62h-1.45v-7.1h1.32l2.31,3.16,2.31-3.16h1.32Z"/>
      <path class="cls-12" d="m582.3,478.53v1.38h-2.97v1.46h2.37v1.38h-2.37v1.5h2.97v1.38h-4.42v-7.1h4.42Z"/>
      <path class="cls-12" d="m585.26,478.53v7.1h-1.45v-7.1h1.45Z"/>
      <path class="cls-12" d="m589.69,478.53c1.17,0,2.11.94,2.11,2.06,0,.52-.19.94-.56,1.27.64.31,1.05.91,1.05,1.68,0,1.17-.94,2.09-2.2,2.09h-3v-7.1h2.6Zm-.14,1.32h-1.01v1.59h1.01c.49,0,.84-.34.84-.79s-.35-.8-.84-.8Zm.44,2.82h-1.45v1.63h1.45c.53,0,.89-.34.89-.81s-.36-.82-.89-.82Z"/>
      <path class="cls-12" d="m596.93,478.41c1.98-.04,3.71,1.69,3.67,3.67.04,1.98-1.69,3.71-3.67,3.67-1.98.04-3.71-1.69-3.67-3.67-.04-1.98,1.69-3.71,3.67-3.67Zm0,1.4c-1.21-.03-2.23,1.06-2.21,2.27-.02,1.21,1,2.3,2.21,2.27,1.21.03,2.23-1.06,2.21-2.27.02-1.21-1-2.3-2.21-2.27Z"/>
      <path class="cls-12" d="m609.27,478.53v7.1h-1.45v-4.62l-2.18,2.99-2.18-2.99v4.62h-1.45v-7.1h1.32l2.31,3.16,2.31-3.16h1.32Z"/>
      <path class="cls-12" d="m612.55,478.53v7.1h-1.45v-7.1h1.45Z"/>
      <path class="cls-12" d="m618.81,484h-3.02l-.69,1.62h-1.5l3.06-7.1h1.29l3.07,7.1h-1.52l-.69-1.62Zm-.53-1.27l-.98-2.31-.98,2.31h1.96Z"/>
      <path class="cls-12" d="m628.4,478.53v7.1h-1.25l-3.64-4.63v4.63h-1.45v-7.1h1.25l3.64,4.63v-4.63h1.45Z"/>
      <path class="cls-12" d="m636.06,485.74c-2.12.04-3.77-1.64-3.74-3.67-.04-2.03,1.61-3.71,3.72-3.67,1.49,0,2.87.89,3.35,2.22h-1.66c-.35-.51-1-.82-1.69-.82-1.33,0-2.26,1-2.26,2.27s.93,2.27,2.28,2.27c1.13,0,1.84-.61,2-1.61h-2.17v-1.36h3.67c.03.21.04.44.04.68.03,2.39-1.58,3.71-3.54,3.69Z"/>
      <path class="cls-12" d="m642.48,478.53v5.72h3.04v1.38h-4.49v-7.1h1.45Z"/>
      <path class="cls-12" d="m651.22,484h-3.02l-.69,1.62h-1.5l3.06-7.1h1.29l3.07,7.1h-1.52l-.69-1.62Zm-.53-1.27l-.98-2.31-.98,2.31h1.96Z"/>
      <path class="cls-12" d="m660.81,478.53v7.1h-1.25l-3.64-4.63v4.63h-1.45v-7.1h1.25l3.64,4.63v-4.63h1.45Z"/>
      <path class="cls-12" d="m664.98,478.53c1.99-.04,3.69,1.62,3.65,3.55.04,1.93-1.66,3.59-3.65,3.55h-2.34v-7.1h2.34Zm0,1.33h-.89v4.44h.89c1.29,0,2.19-.99,2.19-2.22s-.9-2.22-2.19-2.22Z"/>
      <path class="cls-12" d="m591.73,488.53v1.38h-2.97v1.46h2.37v1.38h-2.37v1.5h2.97v1.38h-4.42v-7.1h4.42Z"/>
      <path class="cls-12" d="m597.78,495.62l-1.84-2.46-1.85,2.46h-1.7l2.67-3.59-2.52-3.51h1.68l1.72,2.38,1.71-2.38h1.68l-2.52,3.51,2.67,3.59h-1.7Z"/>
      <path class="cls-12" d="m601.92,493.31v2.32h-1.45v-7.1h2.36c1.43,0,2.49,1.04,2.49,2.39s-1.06,2.39-2.49,2.39h-.91Zm0-3.42v2.06h.89c.65,0,1.1-.44,1.1-1.03s-.45-1.03-1.1-1.03h-.89Z"/>
      <path class="cls-12" d="m610.86,495.62l-2.43-2.99h-.36v2.99h-1.45v-7.1h2.72c1.31,0,2.18.91,2.18,2.1,0,.92-.49,1.54-1.46,1.85l2.55,3.15h-1.75Zm-1.69-4.23c.55,0,.91-.29.91-.77s-.36-.77-.91-.77h-1.1v1.54h1.1Z"/>
      <path class="cls-12" d="m617.85,488.53v1.38h-2.97v1.46h2.37v1.38h-2.37v1.5h2.97v1.38h-4.42v-7.1h4.42Z"/>
      <path class="cls-12" d="m621.64,495.74c-1.63.03-2.68-1.13-2.72-2.32h1.44c.09.61.63.98,1.28.98.59,0,1.01-.28,1.01-.72,0-.39-.31-.68-.94-.86l-.76-.22c-1.16-.33-1.85-1.05-1.86-2.1,0-.65.22-1.16.65-1.53.43-.38,1.01-.57,1.73-.57,1.47-.02,2.45,1.08,2.49,2.16h-1.43c-.16-.56-.59-.82-1.06-.82-.53,0-.92.27-.92.68s.29.66.89.83l.84.23c1.16.33,1.84,1.07,1.84,2.15,0,1.2-1.01,2.11-2.48,2.11Z"/>
      <path class="cls-12" d="m627.83,495.74c-1.63.03-2.68-1.13-2.72-2.32h1.44c.09.61.63.98,1.28.98.59,0,1.01-.28,1.01-.72,0-.39-.31-.68-.94-.86l-.76-.22c-1.16-.33-1.85-1.05-1.86-2.1,0-.65.22-1.16.65-1.53.43-.38,1.01-.57,1.73-.57,1.47-.02,2.45,1.08,2.49,2.16h-1.43c-.16-.56-.59-.82-1.06-.82-.53,0-.92.27-.92.68s.29.66.89.83l.84.23c1.16.33,1.84,1.07,1.84,2.15,0,1.2-1.01,2.11-2.48,2.11Z"/>
      <path class="cls-12" d="m633.19,488.53v7.1h-1.45v-7.1h1.45Z"/>
      <path class="cls-12" d="m638.27,488.41c1.98-.04,3.71,1.69,3.67,3.67.04,1.98-1.69,3.71-3.67,3.67-1.98.04-3.71-1.69-3.67-3.67-.04-1.98,1.69-3.71,3.67-3.67Zm0,1.4c-1.21-.03-2.23,1.06-2.21,2.27-.02,1.21,1,2.3,2.21,2.27,1.21.03,2.23-1.06,2.21-2.27.02-1.21-1-2.3-2.21-2.27Z"/>
      <path class="cls-12" d="m649.69,488.53v7.1h-1.25l-3.64-4.63v4.63h-1.45v-7.1h1.25l3.64,4.63v-4.63h1.45Z"/>
    </g>
    <g>
      <g>
        <g>
          <path class="cls-1" d="m627.87,425.03c-.78-.33-1.49-.78-2.25-1.15-.76-.37-1.54-.69-2.3-1.04-.05-.02-.1-.04-.15-.06-.19-.08-.39-.16-.58-.24-.4-.16-.8-.33-1.19-.49-.63-.26-1.1-.56-1.47-1.13-.07-.1-.11-.22-.16-.33-.1.01-.2.02-.3.03-.33.03-.21-.02-.06-.03-.25.01-.67.15-.82.18-1.91.34-3.86.83-5.82,1-.1.29-.26.54-.49.76-.22.24-.49.41-.79.51-.29.15-.61.22-.95.21-.52.06-1.04.09-1.55.14-.27.05-.53.11-.79.19-.26.92-.41,1.88-.41,2.89,0,5.94,4.81,10.75,10.75,10.75s10.75-4.81,10.75-10.75c0-.35-.03-.7-.06-1.04-.45-.08-.89-.2-1.33-.39Z"/>
          <circle cx="618.51" cy="425.79" r="4.94"/>
          <path class="cls-10" d="m594.71,435.61s20.87-30.76,47.59,0c0,0-22.9,31.26-47.59,0Z"/>
          <path class="cls-5" d="m598.4,432.65s15.99,26.15,40.82,1.32"/>
        </g>
        <path class="cls-12" d="m637.86,437.69c.64,0,.64-1,0-1s-.64,1,0,1h0Z"/>
        <path class="cls-12" d="m635.32,439.69c.64,0,.64-1,0-1s-.64,1,0,1h0Z"/>
        <path class="cls-12" d="m632.32,441.9c.64,0,.64-1,0-1s-.64,1,0,1h0Z"/>
        <path class="cls-12" d="m628.66,444.34c.64,0,.64-1,0-1s-.64,1,0,1h0Z"/>
        <path class="cls-12" d="m624.78,445.89c.64,0,.64-1,0-1s-.64,1,0,1h0Z"/>
        <path class="cls-12" d="m620.46,446.89c.64,0,.64-1,0-1s-.64,1,0,1h0Z"/>
        <path class="cls-12" d="m616.25,446.89c.64,0,.64-1,0-1s-.64,1,0,1h0Z"/>
        <path class="cls-12" d="m611.93,446c.64,0,.64-1,0-1s-.64,1,0,1h0Z"/>
        <path class="cls-12" d="m608.05,444.45c.64,0,.64-1,0-1s-.64,1,0,1h0Z"/>
        <path class="cls-12" d="m604.5,441.9c.64,0,.64-1,0-1s-.64,1,0,1h0Z"/>
        <path class="cls-12" d="m601.29,439.13c.64,0,.64-1,0-1s-.64,1,0,1h0Z"/>
        <path class="cls-12" d="m598.4,436.58c.64,0,.64-1,0-1s-.64,1,0,1h0Z"/>
      </g>
      <path class="cls-10" d="m607.76,426.46c0,5.94,4.81,10.75,10.75,10.75s10.75-4.81,10.75-10.75"/>
    </g>
  </g>
  <g>
    <g>
      <path d="m523.92,387.49c1.1-.4,2.22-1.14,2.78-2.38,1.03-2.26-1.24-6.03.61-6.25,1.33-.16,1.58.99,1.26,1.03-.26-.58-.54-1.67-.97-2.32-.2-.31-.49,0-.69-.27-.21-.07-.4-1.96-.81-1.39-.27.38-.87-.64-1-.85l.25,9.12c0,.42-.49.77-1.09.77s-1.09-.35-1.09-.77v-9.97c-.47-.33-.97-.64-1.5-.92v10.89c0,.42-.49.77-1.09.77s-1.09-.35-1.09-.77v-11.88c-.48-.18-.98-.35-1.5-.51v12.39c0,.42-.49.77-1.09.77s-1.09-.35-1.09-.77v-12.92c-.49-.09-1.01-.19-1.54-.28,0,.04.03.08.03.12v13.08c0,.42-.49.77-1.09.77s-1.09-.35-1.09-.77v-13.08c0-.1.03-.2.08-.29-.61,0-1.13,0-1.46.01-.05,0-.13,0-.2,0,.05.08.08.17.08.27v5.69c0,.42-.49.77-1.09.77s-1.09-.35-1.09-.77v-5.69s.01-.03.02-.05c-.51.06-1.01.14-1.52.23v5.51c0,.42-.49.77-1.09.77s-1.09-.35-1.09-.77v-5.05c-.52.15-1.01.33-1.5.52v11.92c0,.42-.49.77-1.09.77s-1.09-.35-1.09-.77v-10.91s-.08.04-.12.06c-.03.01-.07.02-.1.04-.47.23-.9.51-1.28.78v10.03c0,.42-.49.77-1.09.77s-1.09-.35-1.09-.77l-.32-8.75c-2.35,2.38-2.74,3.59-2.65,3.72.11.15.47-1.11,1.71-.39.82.48-.93,3.55,0,5.89.61,1.54,2.17,2.28,3.46,2.67,8.08.06,16.17.11,24.25.17Z"/>
      <path d="m517.32,395.34c1.28-1.08.94-2.49-.99-3.36-1.5-.68-3.18-.93-4.97-.94-1.78.02-3.48.25-4.96.95-1.6.76-2.1,1.79-1.52,2.73,4.02.94,8.27,1.3,12.45.62Z"/>
      <path class="cls-3" d="m511.35,387.49c2.58.01,5,.38,7.17,1.33,3.27,1.45,3.38,3.94.25,5.51-3.85,1.92-10.79,1.94-14.66.04-3.27-1.6-3.25-3.98.09-5.53,2.14-.99,4.59-1.32,7.16-1.35Z"/>
    </g>
    <path class="cls-10" d="m488.57,384s20.11-29.65,45.88,0c0,0-22.07,30.13-45.88,0Z"/>
  </g>
  <g id="Fktjwz">
    <g>
      <path d="m647.74,452.23c5.85,1.6,11.7,3.21,17.56,4.81.14.04.28.07.41.12.38.12.55.41.46.8-.1.4-.35.58-.76.52-.16-.02-.31-.07-.47-.11-11.38-3.12-22.76-6.24-34.14-9.34-.71-.19-1.45-.32-2.19-.36-.58-.03-1.16.11-1.74.2-.71.11-1.36.41-1.98.77-.72.42-1.36.95-1.89,1.59-.37.45-.66.94-.93,1.45-.3.56-.52,1.14-.61,1.75-.11.8-.17,1.61-.02,2.43.18,1.02.53,1.96,1.09,2.82.4.6.88,1.13,1.44,1.6.94.79,2.03,1.23,3.2,1.54,11.34,3.1,22.68,6.21,34.01,9.32.19.05.37.11.55.19.31.14.41.46.29.82-.12.34-.39.51-.72.44-.14-.03-.28-.07-.42-.11-11.45-3.14-22.9-6.27-34.36-9.41-.53-.14-1.07-.28-1.56-.5-.68-.3-1.34-.66-1.88-1.19-.4-.38-.83-.74-1.17-1.17-.42-.54-.82-1.11-1.12-1.73-.31-.63-.53-1.31-.69-1.98-.13-.52-.14-1.08-.17-1.62-.06-1.22.25-2.38.7-3.49.21-.52.52-1.02.84-1.49.29-.43.63-.84,1-1.22.5-.51,1.07-.93,1.7-1.29.82-.47,1.68-.82,2.6-.98.61-.11,1.22-.16,1.85-.17,1.04-.01,1.99.31,2.96.57,5.39,1.47,10.78,2.95,16.17,4.42Z"/>
      <path d="m628.52,461.4c-.76-.14-1.47-.44-2.14-.82-.71-.41-1.28-.97-1.74-1.64-.38-.55-.63-1.16-.77-1.79-.12-.52-.15-1.09-.11-1.62.08-1,.4-1.95,1.01-2.76.67-.89,1.54-1.55,2.62-1.9,1.19-.4,2.38-.36,3.57-.02.34.1.68.19,1.02.28.95.25,1.78.73,2.43,1.46.45.5.76,1.09.95,1.76.28.99.18,1.96-.09,2.93-.09.31-.14.63-.26.92-.21.53-.38,1.09-.69,1.56-.49.75-1.18,1.32-2.03,1.67-1.12.46-2.24.42-3.38.09-.13-.04-.26-.07-.39-.11Zm2.42-9.03c-.28-.08-.57-.15-.85-.23-.87-.25-1.72-.15-2.53.19-1.1.46-1.79,1.32-2.23,2.4-.07.18-.09.39-.11.59-.03.2-.05.4-.04.6.02.32.03.64.1.94.15.62.43,1.18.86,1.66.4.45.84.85,1.42,1.04.75.24,1.52.45,2.28.66.78.22,1.52.1,2.21-.28.63-.35,1.14-.84,1.36-1.55.23-.75.43-1.5.63-2.26.13-.48.07-.96-.08-1.43-.32-1.05-1-1.74-2.05-2.07-.32-.1-.65-.18-.97-.27Z"/>
      <path d="m645,460.32c-.16.58-.35,1.15-.46,1.73-.13.66-.14,1.34-.02,2,.03.17.12.33.18.49.24.57-.1,1.07-.71,1.07-.3,0-.48-.24-.58-.46-.27-.55-.37-1.14-.38-1.77-.02-1.62.37-3.15.88-4.66.28-.84.63-1.66,1.14-2.38.29-.4.68-.74,1.08-1.04.4-.29.78-.16,1.07.28.16.25,0,.7-.31.94-.37.27-.67.6-.88,1.01-.14.28-.34.55-.44.85-.23.63-.42,1.28-.63,1.92l.07.02Z"/>
      <path d="m652.68,462.66c-.22.59-.49,1.42-.85,2.2-.25.54-.59,1.06-.96,1.53-.26.33-.59.61-1.03.73-.41.11-.85-.2-.82-.63.02-.31.15-.54.42-.76.33-.27.62-.62.84-.98.67-1.09.93-2.33,1.27-3.55.2-.7.23-1.43.26-2.14.02-.44-.03-.9-.28-1.31-.14-.23,0-.78.22-.93.32-.22.67-.17.94.14.33.38.42.84.49,1.32.19,1.32-.2,3.07-.5,4.37Z"/>
      <path d="m647.42,460.95c.4-1.45.8-2.91,1.19-4.36.1-.36.41-.63.76-.66.24-.03.55.18.62.47.04.17.07.37.03.54-.8,2.94-1.6,5.88-2.41,8.82-.1.37-.36.56-.72.62-.12.02-.3-.03-.39-.12-.26-.25-.41-.54-.29-.95.42-1.45.8-2.9,1.2-4.36Z"/>
    </g>
  </g>
  <path class="cls-31" d="m593.26,248.35c-.09-.43-.02-.86-.12-1.27-.24-.97-.42-1.89-.78-2.71-.72-1.66-1.62-3.27-2.9-4.36-.39-.33-.72-.73-1.13-1.04-.43-.32-.88-.64-1.34-.92-.2-.12-.41-.18-.61-.31-1.63-.99-4.06-1.58-6.72-1.53-.1.06-.29,0-.42.02-.36.04-.72.08-1.08.12-.98.24-1.93.38-2.78.73-3.58,1.48-5.97,3.93-7.45,7.52-.32.79-.44,1.67-.66,2.57-.09.35-.01.69-.09,1.06-.07.33-.1,1.07-.02,1.41.07.34-.03.65.05.97.17.72.22,1.46.42,2.1.22.68.39,1.29.66,1.91,1.27,2.89,3.66,5.25,6.55,6.53.75.33,1.56.6,2.43.85.38.07.77.14,1.15.21.13,0,.25.02.38.02.16.04.41.05.59.07h.45c.18.04.57.07.78.02.33-.07.7,0,1.04-.07.81-.19,1.6-.23,2.33-.47,3.84-1.28,6.66-3.73,8.22-7.28.38-.87.61-1.8.87-2.8.05-.37.11-.74.16-1.11v-.26c.06-.26-.02-.6.05-.9.06-.26.03-.82-.02-1.08Zm-1.11,1.58c-.09.42-.02.87-.12,1.27-.26,1.03-.46,1.97-.85,2.85-1.35,3.07-3.7,5.14-6.83,6.43-.7.29-1.49.39-2.29.59-.35.04-.71.08-1.06.12h-.54c-.26.06-.82.03-1.08-.02-.45-.1-.92-.03-1.34-.14-.51-.13-1.02-.21-1.51-.38-.41-.14-.83-.33-1.2-.49-2.61-1.15-4.86-3.33-6.01-5.94-.26-.59-.42-1.18-.64-1.84-.18-.55-.23-1.19-.38-1.81-.02-.31-.03-.63-.05-.94-.08-.37-.05-1.01.02-1.37.08-.36.01-.67.09-1.01.19-.76.29-1.52.57-2.19,1.38-3.36,3.58-5.7,6.93-7.09.79-.33,1.66-.46,2.57-.68.41-.04.82-.08,1.23-.12.84,0,1.8-.03,2.5.14.92.22,1.8.39,2.59.73,3.07,1.33,5.21,3.51,6.53,6.6.28.66.48,1.4.68,2.17.11.43.06.86.16,1.32.08.36.11,1.43.02,1.81Zm-.94-1.81c-.05-.32-.11-.64-.16-.97-.19-.66-.39-1.31-.64-1.89-.47-1.08-1.02-2.01-1.67-2.9-.24-.33-.57-.59-.82-.9-.2-.25-.46-.52-.71-.71-.6-.45-1.21-.85-1.86-1.25-.42-.25-.89-.37-1.37-.57-1.09-.45-2.62-.76-4.15-.73-.09.06-.33.02-.47.02-.26.02-.52.05-.78.07-.82.19-1.6.3-2.31.59-3.13,1.3-5.28,3.36-6.57,6.5-.32.78-.42,1.67-.64,2.57-.08.32,0,.66-.07.99-.09.4-.06,1.11.02,1.48v.26c.06.38.13.75.19,1.13.24.86.5,1.67.87,2.38.09.18.15.38.26.54.37.53.96.9,1.53,1.23.21.12.42.35.61.49.16.12.31.22.42.38.37.51.59,1.18.97,1.67.06.07.16.11.24.16.1.1.2.2.31.31.13.09.28.13.42.21.82.5,1.8.83,2.85,1.13.31.09.59.06.92.14.18.04.44.05.64.09h.4c.19.04.6.07.82.02.35-.03.71-.06,1.06-.09.84-.2,1.67-.29,2.4-.59,3.25-1.34,5.09-3.14,6.48-6.34.32-.74.49-1.56.71-2.4.1-.37.03-.73.12-1.13.08-.37.08-1.07,0-1.44,0-.16-.02-.33-.02-.49Zm-1.08,1.91v.4c-.04.3-.08.6-.12.9-.17.66-.31,1.3-.57,1.89-1.16,2.67-3.31,4.65-6.03,5.77-.52.21-1.11.28-1.7.42-.21.05-.44.03-.64.07h-.42c-.41.09-1.21.01-1.58-.07-.42-.05-.83-.09-1.25-.14-1.09-.28-2.17-.57-2.95-1.15-.38-.29-.47-.75-.71-1.2-.14-.27-.38-.56-.57-.8-.08-.06-.16-.13-.24-.19-.13-.12-.27-.35-.4-.45-.24-.18-.52-.34-.75-.49-.26-.17-.6-.27-.78-.52-.24-.32-.37-.7-.54-1.08-.69-1.57-1.14-4.13-.57-6.2.11-.39.14-.73.28-1.08,1.14-2.77,2.87-4.78,5.58-5.96.7-.3,1.47-.45,2.26-.66.36-.04.72-.08,1.08-.12,4.66.01,7.49,2.14,9.26,5.04.25.41.39.86.59,1.32.26.62.4,1.34.59,2.05.09.36.03.7.12,1.08.07.31.09.85.02,1.18Zm-1.77-4.9c-.22-.36-.42-.74-.66-1.08-.7-.99-1.63-1.77-2.66-2.43-1.4-.89-2.96-1.46-5.33-1.41-.07.05-.2,0-.31.02-.27.04-.55.08-.82.12-.7.18-1.37.32-1.98.59-2.45,1.07-4.02,2.94-5.04,5.44-.14.33-.16.65-.26,1.01-.51,1.79-.17,4.02.42,5.44.16.38.27.79.49,1.11.48.66,1.49.77,1.98,1.41.55.74.98,1.77,1.72,2.31.39.28.89.33,1.41.49.54.17,1.19.26,1.79.4.3.07.58-.02.9.05.17.04.51.04.68,0h.42c.75-.17,1.48-.18,2.12-.45,2.6-1.07,4.51-2.88,5.58-5.47.78-1.87.68-4.75-.07-6.57-.14-.34-.22-.69-.4-.99Zm-.4,6.5c-.85,2.61-2.33,4.27-4.76,5.3-.51.22-1.1.34-1.7.49-.27.07-.52,0-.8.07-.24.05-.89.11-1.18.05-.7-.16-1.48-.16-2.12-.35-.14-.04-.25-.02-.38-.07-.1-.04-.17-.15-.26-.21-.51-.34-.86-.7-1.18-1.23-.2-.34-.29-.75-.52-1.06-.19-.26-.51-.55-.82-.68-.4-.18-.88-.32-1.11-.66-.18-.27-.27-.6-.4-.92-.43-1.02-.82-2.97-.45-4.41.36-1.38.7-2.32,1.41-3.32.91-1.28,2.34-2.37,3.98-2.92.48-.16.99-.21,1.51-.33.3-.02.6-.05.9-.07,2.21,0,3.6.69,4.88,1.6,1.47,1.05,2.39,2.42,3.02,4.34.4,1.23.36,3.19-.02,4.38Zm-1.46-5.7c-1.21-1.98-3.26-3.74-6.5-3.68-.29.04-.58.08-.87.12-.53.14-1.04.27-1.51.47-1.95.85-3.12,2.15-3.94,4.15-.62,1.53-.57,4.4.31,5.58.2.27.52.57.8.75.35.23.74.36.99.68.1.14.11.3.19.47.09.21.27.54.4.73.66.98,1.72,1.12,3.04,1.44.24.06,1.02.14,1.32.07.2-.05.44-.02.66-.07.45-.11.91-.16,1.32-.33,2.03-.83,3.4-2.17,4.24-4.19.61-1.47.6-3.7,0-5.16-.15-.37-.25-.71-.45-1.04Zm-.66,5.99c-.67,1.57-1.85,2.69-3.44,3.35-.51.21-1.07.22-1.67.35-.21.05-.58.01-.75-.02-.35-.02-.69-.05-1.04-.07-.27-.07-.54-.2-.78-.28-.28-.1-.53-.14-.68-.35-.19-.27-.43-.57-.57-.87-.11-.24-.14-.48-.28-.68-.16-.23-.78-.6-1.04-.75-.16-.1-.36-.14-.47-.28-.79-1.03-1.01-3.45-.42-4.9.67-1.64,1.83-2.93,3.46-3.61.38-.16.8-.23,1.23-.33.19-.04.61.01.75-.07,3.07.02,4.85,1.73,5.75,3.94.54,1.32.51,3.3-.05,4.59Zm-5.75-7.54c-.12.08-.37.01-.52.05-.39.09-.79.16-1.13.31-1.37.59-2.26,1.6-2.83,2.99-.12.29-.16.64-.24.97-.17.72-.01,1.66.16,2.21.51,1.58,1.26,2.47,2.64,3.18.31.16.68.3,1.06.4.2.05.35.02.57.07.16.04.45.09.64.05.53-.11,1.02-.11,1.46-.28,1.37-.55,2.38-1.52,2.95-2.87.49-1.17.45-2.78-.02-3.91-.76-1.81-2.15-3.19-4.74-3.16Zm3.96,5.89c-.07.3-.14.6-.26.87-.41.96-1.19,1.7-2.17,2.1-.32.13-.69.15-1.06.24-.57.13-1.45-.16-1.79-.31-1.46-.62-2.89-2.67-2.17-4.9.37-1.14,1.14-2.04,2.19-2.5.22-.07.44-.14.66-.21.14-.04.33,0,.45-.07.51,0,.98,0,1.37.12,1.37.44,2.22,1.34,2.66,2.71.17.51.27,1.33.12,1.96Z"/>
</svg>