<?xml version="1.0" encoding="UTF-8"?>
<svg id="Layer_1" data-name="Layer 1" xmlns="http://www.w3.org/2000/svg" xmlns:xlink="http://www.w3.org/1999/xlink" viewBox="0 0 892.14 858.81">
  <defs>
    <style>
      .cls-1 {
        fill: #010101;
      }

      .cls-2 {
        fill: #fff;
      }

      .cls-3 {
        fill: #a6a8ac;
      }

      .cls-4 {
        stroke-dasharray: 0 0 4.95 4.95;
      }

      .cls-4, .cls-5, .cls-6, .cls-7, .cls-8, .cls-9 {
        stroke-width: 2px;
      }

      .cls-4, .cls-5, .cls-6, .cls-7, .cls-8, .cls-10 {
        stroke-linecap: round;
      }

      .cls-4, .cls-5, .cls-6, .cls-9 {
        fill: none;
      }

      .cls-4, .cls-5, .cls-6, .cls-10 {
        stroke-linejoin: round;
      }

      .cls-4, .cls-6 {
        stroke: #fff;
      }

      .cls-5, .cls-7, .cls-8, .cls-9, .cls-10 {
        stroke: #000;
      }

      .cls-11 {
        fill: url(#New_Gradient_Swatch_3);
      }

      .cls-12 {
        fill: url(#New_Gradient_Swatch_1);
      }

      .cls-13 {
        fill: url(#New_Gradient_Swatch_4);
      }

      .cls-7 {
        fill: url(#New_Gradient_Swatch_4-7);
      }

      .cls-7, .cls-8, .cls-9 {
        stroke-miterlimit: 10;
      }

      .cls-8 {
        fill: url(#New_Gradient_Swatch_4-6);
      }

      .cls-14 {
        fill: url(#New_Gradient_Swatch_4-5);
      }

      .cls-15 {
        fill: url(#New_Gradient_Swatch_4-4);
      }

      .cls-16 {
        fill: url(#New_Gradient_Swatch_4-2);
      }

      .cls-17 {
        fill: url(#New_Gradient_Swatch_4-3);
      }

      .cls-18 {
        fill: url(#New_Gradient_Swatch_3-5);
      }

      .cls-19 {
        fill: url(#New_Gradient_Swatch_3-2);
      }

      .cls-20 {
        fill: url(#New_Gradient_Swatch_3-6);
      }

      .cls-21 {
        fill: url(#New_Gradient_Swatch_3-7);
      }

      .cls-22 {
        fill: url(#New_Gradient_Swatch_3-8);
      }

      .cls-23 {
        fill: url(#New_Gradient_Swatch_3-3);
      }

      .cls-24 {
        fill: url(#New_Gradient_Swatch_3-4);
      }

      .cls-25 {
        fill: url(#New_Gradient_Swatch_1-5);
      }

      .cls-26 {
        fill: url(#New_Gradient_Swatch_1-8);
      }

      .cls-27 {
        fill: url(#New_Gradient_Swatch_1-2);
      }

      .cls-28 {
        fill: url(#New_Gradient_Swatch_1-3);
      }

      .cls-29 {
        fill: url(#New_Gradient_Swatch_1-6);
      }

      .cls-30 {
        fill: url(#New_Gradient_Swatch_1-4);
      }

      .cls-31 {
        fill: url(#New_Gradient_Swatch_1-7);
      }
    </style>
    <linearGradient id="New_Gradient_Swatch_3" data-name="New Gradient Swatch 3" x1="-48.13" y1="493.79" x2="503.66" y2="-81.75" gradientUnits="userSpaceOnUse">
      <stop offset="0" stop-color="#9f6d29"/>
      <stop offset=".03" stop-color="#a56f28"/>
      <stop offset=".15" stop-color="#bf7927"/>
      <stop offset=".27" stop-color="#d28125"/>
      <stop offset=".4" stop-color="#de8525"/>
      <stop offset=".53" stop-color="#e28725"/>
      <stop offset="1" stop-color="#9f6d29"/>
    </linearGradient>
    <linearGradient id="New_Gradient_Swatch_1" data-name="New Gradient Swatch 1" x1="150.85" y1="489.85" x2="475.58" y2="116.27" gradientUnits="userSpaceOnUse">
      <stop offset="0" stop-color="#808185"/>
      <stop offset=".02" stop-color="#86878b"/>
      <stop offset=".11" stop-color="#a8a9ac"/>
      <stop offset=".21" stop-color="#c2c3c5"/>
      <stop offset=".32" stop-color="#d5d6d8"/>
      <stop offset=".42" stop-color="#e1e2e3"/>
      <stop offset=".53" stop-color="#e5e6e7"/>
      <stop offset="1" stop-color="#808185"/>
    </linearGradient>
    <linearGradient id="New_Gradient_Swatch_3-2" data-name="New Gradient Swatch 3" x1="41.63" y1="579.85" x2="593.42" y2="4.3" xlink:href="#New_Gradient_Swatch_3"/>
    <linearGradient id="New_Gradient_Swatch_1-2" data-name="New Gradient Swatch 1" x1="149.84" y1="488.97" x2="474.57" y2="115.39" xlink:href="#New_Gradient_Swatch_1"/>
    <linearGradient id="New_Gradient_Swatch_4" data-name="New Gradient Swatch 4" x1="295.47" y1="434.5" x2="455.2" y2="269.49" gradientUnits="userSpaceOnUse">
      <stop offset="0" stop-color="#b68c2e"/>
      <stop offset=".1" stop-color="#c99b28"/>
      <stop offset=".24" stop-color="#dbaa23"/>
      <stop offset=".38" stop-color="#e7b320"/>
      <stop offset=".53" stop-color="#ebb61f"/>
      <stop offset="1" stop-color="#b68c2e"/>
    </linearGradient>
    <linearGradient id="New_Gradient_Swatch_3-3" data-name="New Gradient Swatch 3" x1="116.61" y1="651.73" x2="668.4" y2="76.18" xlink:href="#New_Gradient_Swatch_3"/>
    <linearGradient id="New_Gradient_Swatch_1-3" data-name="New Gradient Swatch 1" x1="226.29" y1="555.43" x2="551.02" y2="181.85" xlink:href="#New_Gradient_Swatch_1"/>
    <linearGradient id="New_Gradient_Swatch_4-2" data-name="New Gradient Swatch 4" x1="310.3" y1="448.85" x2="470.02" y2="283.84" xlink:href="#New_Gradient_Swatch_4"/>
    <linearGradient id="New_Gradient_Swatch_3-4" data-name="New Gradient Swatch 3" x1="-1.96" y1="538.05" x2="549.82" y2="-37.49" xlink:href="#New_Gradient_Swatch_3"/>
    <linearGradient id="New_Gradient_Swatch_1-4" data-name="New Gradient Swatch 1" x1="222.8" y1="552.4" x2="547.54" y2="178.82" xlink:href="#New_Gradient_Swatch_1"/>
    <linearGradient id="New_Gradient_Swatch_3-5" data-name="New Gradient Swatch 3" x1="31.79" y1="570.42" x2="583.58" y2="-5.13" xlink:href="#New_Gradient_Swatch_3"/>
    <linearGradient id="New_Gradient_Swatch_1-5" data-name="New Gradient Swatch 1" x1="136.43" y1="477.31" x2="461.16" y2="103.73" xlink:href="#New_Gradient_Swatch_1"/>
    <linearGradient id="New_Gradient_Swatch_3-6" data-name="New Gradient Swatch 3" x1="61.93" y1="599.3" x2="613.71" y2="23.76" xlink:href="#New_Gradient_Swatch_3"/>
    <linearGradient id="New_Gradient_Swatch_1-6" data-name="New Gradient Swatch 1" x1="166.29" y1="503.27" x2="491.03" y2="129.7" xlink:href="#New_Gradient_Swatch_1"/>
    <linearGradient id="New_Gradient_Swatch_3-7" data-name="New Gradient Swatch 3" x1="117.33" y1="652.42" x2="669.12" y2="76.88" xlink:href="#New_Gradient_Swatch_3"/>
    <linearGradient id="New_Gradient_Swatch_1-7" data-name="New Gradient Swatch 1" x1="226.69" y1="555.78" x2="551.43" y2="182.2" xlink:href="#New_Gradient_Swatch_1"/>
    <linearGradient id="New_Gradient_Swatch_4-3" data-name="New Gradient Swatch 4" x1="311.05" y1="449.58" x2="470.78" y2="284.57" xlink:href="#New_Gradient_Swatch_4"/>
    <linearGradient id="New_Gradient_Swatch_3-8" data-name="New Gradient Swatch 3" x1="117.33" y1="652.42" x2="669.12" y2="76.87" xlink:href="#New_Gradient_Swatch_3"/>
    <linearGradient id="New_Gradient_Swatch_1-8" data-name="New Gradient Swatch 1" x1="226.69" y1="555.78" x2="551.43" y2="182.2" xlink:href="#New_Gradient_Swatch_1"/>
    <linearGradient id="New_Gradient_Swatch_4-4" data-name="New Gradient Swatch 4" x1="311.05" y1="449.58" x2="470.78" y2="284.57" xlink:href="#New_Gradient_Swatch_4"/>
    <linearGradient id="New_Gradient_Swatch_4-5" data-name="New Gradient Swatch 4" x1="1738.25" y1="-3236.23" x2="1751.47" y2="-3236.23" gradientTransform="translate(1484.68 2550.41) rotate(-58.75) scale(.69 .67)" xlink:href="#New_Gradient_Swatch_4"/>
    <linearGradient id="New_Gradient_Swatch_4-6" data-name="New Gradient Swatch 4" x1="10144.69" y1="-5207.04" x2="10170.04" y2="-5207.04" gradientTransform="translate(3516.51 2033.52) rotate(-124.46) scale(.31 .34)" xlink:href="#New_Gradient_Swatch_4"/>
    <linearGradient id="New_Gradient_Swatch_4-7" data-name="New Gradient Swatch 4" x1="12407.32" y1="7062.01" x2="12432.67" y2="7062.01" gradientTransform="translate(4042.15 892.7) rotate(145.71) scale(.23 .36)" xlink:href="#New_Gradient_Swatch_4"/>
  </defs>
  <g>
    <path class="cls-11" d="m435.75,154.84L435.22,0C292.51,1.04,167.45,76.29,96.71,189.07l132.34,81.46c43.66-68.49,119.78-114.28,206.7-115.69Z"/>
    <polygon class="cls-12" points="435.75 154.84 435.75 154.84 435.8 169.28 435.75 154.84"/>
    <path class="cls-19" d="m229.06,270.53l113.5,69.86c20.31-31.16,55.2-51.96,95-52.7l58.14-65.12-59.89-53.3-.05-14.43c-86.91,1.41-163.03,47.2-206.7,115.69Z"/>
    <path class="cls-27" d="m229.06,270.53l113.5,69.86c20.31-31.16,55.2-51.96,95-52.7l58.14-65.12-59.89-53.3-.05-14.43c-86.91,1.41-163.03,47.2-206.7,115.69Z"/>
    <polygon class="cls-13" points="437.56 287.7 437.56 287.7 437.02 288.3 437.56 287.7"/>
    <path class="cls-23" d="m342.55,340.39l92.98,57.23.11-.07,1.38-109.25.53-.6c-39.8.74-74.69,21.53-95,52.7Z"/>
    <path class="cls-28" d="m342.55,340.39l92.98,57.23.11-.07,1.38-109.25.53-.6c-39.8.74-74.69,21.53-95,52.7Z"/>
    <path class="cls-16" d="m342.55,340.39l92.98,57.23.11-.07,1.38-109.25.53-.6c-39.8.74-74.69,21.53-95,52.7Z"/>
    <path class="cls-24" d="m108.32,634l122.44-92.64c-25.74-39.29-40.72-86.26-40.72-136.73s14.3-95.31,38.98-134.05l-132.34-81.42,132.34,81.42s.02-.04.04-.06l-132.34-81.46c-38.85,61.94-61.32,135.21-61.32,213.72,0,86.03,26.98,165.77,72.93,231.21Z"/>
    <polygon class="cls-30" points="230.76 541.36 240.29 534.16 230.76 541.36 230.76 541.36"/>
    <path class="cls-18" d="m342.55,340.39l-113.5-69.86s-.02.04-.04.06l113.51,69.83s.01-.02.02-.03Z"/>
    <path class="cls-25" d="m342.55,340.39l-113.5-69.86s-.02.04-.04.06l113.51,69.83s.01-.02.02-.03Z"/>
    <path class="cls-20" d="m323.81,403.6c0-23.31,6.89-45,18.72-63.18l-113.51-69.83c-24.68,38.73-38.98,84.72-38.98,134.05s14.98,97.44,40.72,136.73l9.52-7.2,9.82-84.12,92.48,10.95-3.84-.45c-9.5-16.82-14.93-36.24-14.93-56.94Z"/>
    <path class="cls-29" d="m323.81,403.6c0-23.31,6.89-45,18.72-63.18l-113.51-69.83c-24.68,38.73-38.98,84.72-38.98,134.05s14.98,97.44,40.72,136.73l9.52-7.2,9.82-84.12,92.48,10.95-3.84-.45c-9.5-16.82-14.93-36.24-14.93-56.94Z"/>
    <path class="cls-21" d="m323.81,403.6c0,20.69,5.43,40.12,14.93,56.94l3.84.45,92.95-63.36-92.99-57.21c-11.84,18.17-18.72,39.87-18.72,63.18Z"/>
    <path class="cls-31" d="m323.81,403.6c0,20.69,5.43,40.12,14.93,56.94l3.84.45,92.95-63.36-92.99-57.21c-11.84,18.17-18.72,39.87-18.72,63.18Z"/>
    <path class="cls-17" d="m323.81,403.6c0,20.69,5.43,40.12,14.93,56.94l3.84.45,92.95-63.36-92.99-57.21c-11.84,18.17-18.72,39.87-18.72,63.18Z"/>
    <path class="cls-22" d="m342.53,340.42l92.99,57.21h0s-92.98-57.24-92.98-57.24c0,0-.01.02-.02.03Z"/>
    <path class="cls-26" d="m342.53,340.42l92.99,57.21h0s-92.98-57.24-92.98-57.24c0,0-.01.02-.02.03Z"/>
    <path class="cls-15" d="m342.53,340.42l92.99,57.21h0s-92.98-57.24-92.98-57.24c0,0-.01.02-.02.03Z"/>
  </g>
  <g>
    <line class="cls-6" x1="442.55" y1="401.95" x2="440.42" y2="400.64"/>
    <line class="cls-4" x1="436.2" y1="398.05" x2="100.92" y2="191.78"/>
    <line class="cls-6" x1="98.81" y1="190.48" x2="96.68" y2="189.17"/>
  </g>
  <g>
    <path class="cls-3" d="m15.29,280.66l20.75,6.62-2.4,7.53L0,284.08l2.19-6.87,17.85-5.89-11.14-15.14,2.19-6.87,33.63,10.73-2.42,7.58-20.75-6.62,10.46,14.14-16.74,5.51Z"/>
    <path class="cls-3" d="m16.18,237.01l2.99-7.32,32.67,13.35-2.99,7.32-32.67-13.35Z"/>
    <path class="cls-3" d="m33.73,215.49l-3.89,8.11-6.81-3.27,11.28-23.48,6.81,3.27-3.94,8.2,25.01,12.01-3.44,7.17-25.01-12.01Z"/>
    <path class="cls-3" d="m39.31,187.64l3.92-6.86,30.64,17.53-3.92,6.86-30.64-17.52Z"/>
    <path class="cls-3" d="m63.15,180.85c-8.57-5.61-11.01-16.48-5.1-25.5,3.92-5.99,11.23-9.52,18.33-7.84l-4.98,7.61c-2.8.19-5.39,2.06-6.94,4.43-3.54,5.41-1.89,11.42,3.06,14.66,4.95,3.24,11.12,2.35,14.71-3.14,2.89-4.41,2.34-8.39-.77-11.44l-5.55,8.48-6.2-4.06,10.05-15.34c13.47,6.74,14.68,17.69,8.88,26.55-5.96,9.11-16.91,11.21-25.47,5.6Z"/>
    <path class="cls-3" d="m81.61,123.6l4.48-5.59,37,10.29-5.16,6.44-7.78-2.22-9.15,11.4,3.86,7.11-5.16,6.44-18.08-33.88Zm21.38,6.88l-11.07-3.2,5.53,10.11,5.54-6.9Z"/>
    <path class="cls-3" d="m109.55,102.5l-6.16,6.56-5.51-5.17,17.83-18.99,5.51,5.17-6.23,6.63,20.22,18.99-5.44,5.8-20.22-18.99Z"/>
    <path class="cls-3" d="m123.12,77.87l5.75-5.42,24.22,25.67-5.75,5.42-24.22-25.67Z"/>
    <path class="cls-3" d="m148.04,78.39c-6.33-7.8-5.17-19.3,2.67-25.66,7.8-6.33,19.33-5.13,25.66,2.67,6.33,7.8,5.12,19.33-2.67,25.66-7.83,6.36-19.33,5.13-25.66-2.67Zm22.12-17.95c-3.6-4.44-10.18-5.37-14.62-1.77-4.48,3.63-4.92,10.27-1.32,14.7,3.6,4.44,10.18,5.37,14.66,1.74,4.44-3.6,4.88-10.23,1.28-14.67Z"/>
    <path class="cls-3" d="m215.33,50.54l-26.34-8.85,11.94,18.27-6.62,4.33-19.32-29.54,5.7-3.73,26.27,8.84-11.92-18.23,6.66-4.35,19.32,29.54-5.7,3.73Z"/>
  </g>
  <g>
    <path class="cls-2" d="m113.44,213.61l3.3,2c1.58.96,1.9,2.7,1.06,4.09-.66,1.08-1.66,1.43-2.94,1.16l.72,5.48-2.25-1.36-.68-5.14-.31-.19-2.09,3.45-1.87-1.14,5.07-8.36Zm1.06,5.18c.55.34,1.15.26,1.44-.22.31-.51.09-1.04-.47-1.38l-1.2-.73-.97,1.6,1.2.73Z"/>
    <path class="cls-2" d="m122.12,218.88l1.87,1.14-5.07,8.36-1.87-1.14,5.07-8.36Z"/>
    <path class="cls-2" d="m122.69,226.99l1.87,1.14c-.31.78.03,1.52.76,1.96.62.38,1.25.39,1.53-.08.24-.39.13-.87-.55-1.57l-.68-.7c-1.12-1.16-1.52-2.57-.74-3.88.94-1.58,2.68-1.85,4.42-.8,1.82,1.11,2.16,3.13,1.43,4.44l-1.86-1.13c.21-.77-.17-1.31-.62-1.58-.54-.33-1.12-.36-1.4.08-.29.45-.08.95.47,1.51l.8.83c1.15,1.18,1.46,2.59.66,3.9-.86,1.43-2.71,1.82-4.51.72-2.07-1.26-2.36-3.38-1.58-4.83Z"/>
    <path class="cls-2" d="m134.62,226.47l1.86,1.13-2.12,3.5,4.96-1.78,2.3,1.39-5.73,2.01,1.33,6.75-2.4-1.46-1.13-5.81-2.27,3.74-1.86-1.13,5.07-8.36Z"/>
    <path class="cls-2" d="m146.98,233.96l5.14,3.12-1.09,1.79-3.27-1.99-.91,1.51,2.56,1.55-1.09,1.79-2.56-1.55-1.99,3.27-1.87-1.14,5.07-8.36Z"/>
    <path class="cls-2" d="m156.26,239.6l1.7,1.03-1.49,10.53-1.95-1.19.33-2.22-3.46-2.1-1.81,1.32-1.95-1.19,8.65-6.19Zm-1.12,6.12l.48-3.16-2.58,1.88,2.1,1.27Z"/>
    <path class="cls-2" d="m159.92,247.54c1.47-2.43,4.46-3.21,7.01-1.66,1.84,1.11,2.87,3.34,2.23,5.48l-2.04-1.24c.12-.99-.47-1.93-1.3-2.43-1.53-.93-3.18-.42-4.03.99s-.54,3.1.99,4.03c.82.5,1.93.59,2.75.03l2.04,1.24c-1.6,1.55-4.05,1.66-5.89.55-2.56-1.55-3.24-4.56-1.77-6.99Z"/>
    <path class="cls-2" d="m173.27,252.37l-2.13-1.29,1.09-1.79,6.17,3.74-1.09,1.79-2.15-1.31-3.99,6.57-1.88-1.14,3.99-6.57Z"/>
    <path class="cls-2" d="m177.09,257.96c1.44-2.38,4.55-3.15,6.94-1.7,2.38,1.44,3.14,4.56,1.7,6.94-1.44,2.38-4.56,3.14-6.94,1.7s-3.14-4.56-1.7-6.94Zm6.75,4.09c.82-1.35.45-3.16-.9-3.98-1.37-.83-3.14-.32-3.96,1.03s-.45,3.16.92,3.99c1.35.82,3.12.32,3.95-1.04Z"/>
    <path class="cls-2" d="m190.46,260.35l3.3,2c1.58.96,1.9,2.7,1.06,4.09-.66,1.08-1.66,1.43-2.94,1.16l.72,5.48-2.25-1.36-.68-5.14-.31-.19-2.09,3.45-1.87-1.14,5.07-8.36Zm1.06,5.18c.55.34,1.15.26,1.44-.22.31-.51.09-1.04-.47-1.38l-1.2-.73-.97,1.6,1.2.73Z"/>
    <path class="cls-2" d="m195.04,270.89l1.87,1.14c-.31.78.03,1.52.76,1.96.62.38,1.25.39,1.53-.08.24-.39.13-.87-.55-1.57l-.68-.7c-1.12-1.16-1.52-2.57-.74-3.88.94-1.58,2.68-1.85,4.42-.8,1.82,1.11,2.16,3.13,1.43,4.44l-1.86-1.13c.21-.77-.17-1.31-.62-1.58-.54-.33-1.12-.36-1.4.08-.29.45-.08.95.47,1.51l.8.83c1.15,1.18,1.46,2.59.66,3.9-.86,1.43-2.71,1.82-4.51.72-2.07-1.26-2.36-3.38-1.58-4.83Z"/>
  </g>
  <g id="KWIHUb">
    <g>
      <path d="m247.39,332.8c.02-6.89,5.62-12.45,12.51-12.42,6.84.02,12.43,5.62,12.43,12.44,0,6.95-5.61,12.52-12.62,12.49-6.82-.03-12.35-5.64-12.33-12.51Zm12.43,9.83c5.43.01,9.85-4.38,9.85-9.79,0-5.36-4.42-9.78-9.79-9.8-5.4-.02-9.83,4.4-9.83,9.82,0,5.4,4.36,9.76,9.77,9.77Z"/>
      <path d="m261.14,311.93c0,1.13.01,2.27,0,3.4-.01.88-.53,1.45-1.29,1.47-.78.02-1.37-.6-1.38-1.48-.01-2.3-.01-4.59,0-6.89,0-.92.55-1.5,1.35-1.5.8,0,1.3.56,1.31,1.51.01,1.16,0,2.32,0,3.49h0Z"/>
      <path d="m280.82,334.12c-1.17,0-2.33.02-3.5,0-.92-.02-1.45-.5-1.46-1.28-.02-.78.51-1.34,1.41-1.34,2.36-.03,4.72-.02,7.08,0,.84,0,1.38.55,1.38,1.28,0,.79-.52,1.33-1.41,1.34-1.17.02-2.33,0-3.5,0Z"/>
      <path d="m238.89,331.51c1.14,0,2.28-.01,3.41,0,.96.01,1.51.52,1.5,1.33,0,.82-.54,1.29-1.52,1.3-2.28.01-4.55.01-6.83,0-.95,0-1.51-.51-1.51-1.32,0-.79.58-1.3,1.53-1.31,1.14-.01,2.28,0,3.41,0Z"/>
      <path d="m274.64,340.02c.5.18.79.24,1.04.38,1.37.77,2.73,1.55,4.07,2.36.87.52,1.13,1.25.75,1.95-.39.71-1.22.84-2.13.33-1.37-.77-2.72-1.56-4.08-2.35-.61-.35-.95-.92-.69-1.56.19-.45.7-.77,1.03-1.11Z"/>
      <path d="m252.64,347.64c-.17.47-.23.74-.36.96-.8,1.41-1.61,2.82-2.44,4.21-.47.8-1.26,1.05-1.91.65-.68-.41-.85-1.17-.39-1.98.81-1.44,1.64-2.86,2.48-4.28.34-.59.92-.87,1.52-.6.45.21.77.7,1.11,1.03Z"/>
      <path d="m272.53,313.13c-.19.49-.27.78-.41,1.03-.77,1.36-1.55,2.73-2.35,4.08-.51.86-1.19,1.11-1.88.73-.76-.42-.92-1.2-.41-2.1.8-1.41,1.61-2.81,2.44-4.21.37-.62.97-.87,1.6-.56.42.21.7.7,1.01,1.02Z"/>
      <path d="m280.65,321.85c-.16.19-.39.65-.76.88-1.4.87-2.84,1.68-4.28,2.48-.77.43-1.54.22-1.91-.44-.37-.66-.2-1.37.53-1.81,1.48-.9,2.97-1.78,4.49-2.6.92-.49,1.97.21,1.93,1.48Z"/>
      <path d="m240.12,345.48c-.28-.24-.76-.5-.97-.9-.28-.53-.18-1.18.38-1.52,1.57-.96,3.16-1.89,4.77-2.76.63-.34,1.38-.05,1.68.54.31.62.29,1.29-.32,1.67-1.56.97-3.17,1.86-4.77,2.77-.16.09-.36.1-.77.2Z"/>
      <path d="m268.77,346.5c.19.14.67.35.9.71.89,1.42,1.71,2.88,2.53,4.34.42.76.22,1.53-.44,1.9-.66.38-1.4.17-1.86-.6-.86-1.44-1.71-2.88-2.51-4.35-.51-.93.1-1.98,1.38-2Z"/>
      <path d="m252.63,317.92c-.31.37-.56.92-.96,1.06-.39.14-1.19.05-1.37-.23-1.08-1.65-2.07-3.36-3-5.09-.29-.54.01-1.13.57-1.45.54-.31,1.22-.36,1.55.17,1.06,1.69,2.02,3.45,3.01,5.18.04.07.03.16.04.24.05.04.09.08.14.12Z"/>
      <path d="m240.38,320.22c.25.09.52.15.75.28,1.41.8,2.81,1.61,4.2,2.44.78.47,1.02,1.27.61,1.92-.39.63-1.18.8-1.93.37-1.43-.81-2.85-1.65-4.28-2.47-.64-.37-.89-.97-.62-1.58.2-.44.71-.74,1.09-1.1.06.05.12.09.18.14Z"/>
    </g>
  </g>
  <g>
    <path class="cls-1" d="m228.18,358.86v1.38h-2.97v1.46h2.37v1.38h-2.37v1.5h2.97v1.38h-4.42v-7.1h4.42Z"/>
    <path class="cls-1" d="m236.03,358.86v7.1h-1.25l-3.64-4.63v4.63h-1.45v-7.1h1.25l3.64,4.63v-4.63h1.45Z"/>
    <path class="cls-1" d="m244.26,358.86l-2.94,7.1h-1.29l-2.93-7.1h1.57l2.01,4.93,1.98-4.93h1.6Z"/>
    <path class="cls-1" d="m246.78,358.86v7.1h-1.45v-7.1h1.45Z"/>
    <path class="cls-1" d="m252.84,365.96l-2.43-2.99h-.36v2.99h-1.45v-7.1h2.72c1.31,0,2.18.91,2.18,2.1,0,.92-.49,1.54-1.46,1.85l2.55,3.15h-1.75Zm-1.69-4.23c.55,0,.91-.29.91-.77s-.36-.77-.91-.77h-1.1v1.54h1.1Z"/>
    <path class="cls-1" d="m258.44,358.74c1.98-.04,3.71,1.69,3.67,3.67.04,1.98-1.69,3.71-3.67,3.67-1.98.04-3.71-1.69-3.67-3.67-.04-1.98,1.69-3.71,3.67-3.67Zm0,1.4c-1.21-.03-2.23,1.06-2.21,2.27-.02,1.21,1,2.3,2.21,2.27,1.21.03,2.23-1.06,2.21-2.27.02-1.21-1-2.3-2.21-2.27Z"/>
    <path class="cls-1" d="m269.85,358.86v7.1h-1.25l-3.64-4.63v4.63h-1.45v-7.1h1.25l3.64,4.63v-4.63h1.45Z"/>
    <path class="cls-1" d="m278.94,358.86v7.1h-1.45v-4.62l-2.18,2.99-2.18-2.99v4.62h-1.45v-7.1h1.32l2.31,3.16,2.31-3.16h1.32Z"/>
    <path class="cls-1" d="m285.19,358.86v1.38h-2.97v1.46h2.37v1.38h-2.37v1.5h2.97v1.38h-4.42v-7.1h4.42Z"/>
    <path class="cls-1" d="m293.04,358.86v7.1h-1.25l-3.64-4.63v4.63h-1.45v-7.1h1.25l3.64,4.63v-4.63h1.45Z"/>
    <path class="cls-1" d="m294.3,360.24v-1.38h5.26v1.38h-1.91v5.72h-1.46v-5.72h-1.89Z"/>
  </g>
  <g>
    <path class="cls-1" d="m124.2,396.97c-4.4,0-9.82-.41-15.52-1.8-13.43-3.29-22.99-10.75-23.39-11.07-.44-.35-.64-.93-.51-1.48s.58-.97,1.13-1.07c.5-.1,12.43-2.29,25.86,1,13.43,3.29,22.99,10.75,23.39,11.07.44.35.64.93.51,1.48-.13.55-.58.97-1.13,1.07-.29.05-4.37.81-10.34.81Zm-34.11-13.04c3.77,2.43,10.77,6.36,19.28,8.44,8.5,2.08,16.53,1.83,20.99,1.42-3.77-2.43-10.77-6.36-19.28-8.44-8.5-2.08-16.53-1.83-20.99-1.42Z"/>
    <path class="cls-1" d="m112.41,411.05c-2.69,0-5.67-.38-8.96-1.27-11.15-3.03-15.65-10.23-17.46-15.73-1.95-5.91-1.27-11.06-1.24-11.27.11-.79.84-1.34,1.63-1.23.79.11,1.34.84,1.23,1.63-.1.77-2.28,18.69,16.6,23.83,9.11,2.48,16.7,1.09,22.57-4.14,4.39-3.91,6.12-8.55,6.14-8.6.27-.75,1.1-1.13,1.85-.86.75.27,1.13,1.1.86,1.85-.08.22-2,5.38-6.93,9.77-3.37,3-8.67,6.04-16.28,6.04Z"/>
    <path class="cls-1" d="m92.98,397.36c-.18,0-.36-.08-.48-.23-.88-1.07-1.36-2.14-1.38-2.18-.14-.31,0-.68.31-.82.31-.14.68,0,.82.31,0,0,.44.96,1.21,1.9.22.26.18.65-.09.87-.12.09-.25.14-.39.14Z"/>
    <path class="cls-1" d="m102.46,404.03s-.1,0-.14-.02c-4.66-1.11-8.17-4.93-8.32-5.09-.23-.25-.21-.64.04-.87.25-.23.64-.21.87.04.03.04,3.41,3.71,7.69,4.72.33.08.54.41.46.74-.07.28-.32.48-.6.48Z"/>
  </g>
  <g>
    <path class="cls-1" d="m91.12,424.94c-.38,1.49-1.84,2.54-3.44,2.54-2.11.04-3.76-1.64-3.72-3.67-.04-2.03,1.61-3.71,3.72-3.67,1.6,0,3.06,1.05,3.44,2.54h-1.57c-.29-.69-1.06-1.14-1.87-1.14-1.33,0-2.26,1-2.26,2.27s.93,2.27,2.26,2.27c.81,0,1.58-.45,1.87-1.14h1.57Z"/>
    <path class="cls-1" d="m95.67,420.15c1.98-.04,3.71,1.69,3.67,3.67.04,1.98-1.69,3.71-3.67,3.67-1.98.04-3.71-1.69-3.67-3.67-.04-1.98,1.69-3.71,3.67-3.67Zm0,1.4c-1.21-.03-2.23,1.06-2.21,2.27-.02,1.21,1,2.3,2.21,2.27,1.21.03,2.23-1.06,2.21-2.27.02-1.21-1-2.3-2.21-2.27Z"/>
    <path class="cls-1" d="m107.09,420.27v7.1h-1.25l-3.64-4.63v4.63h-1.45v-7.1h1.25l3.64,4.63v-4.63h1.45Z"/>
    <path class="cls-1" d="m108.34,421.65v-1.38h5.26v1.38h-1.91v5.72h-1.46v-5.72h-1.89Z"/>
    <path class="cls-1" d="m118.58,425.74h-3.02l-.69,1.62h-1.5l3.06-7.1h1.29l3.07,7.1h-1.52l-.69-1.62Zm-.53-1.27l-.98-2.31-.98,2.31h1.96Z"/>
    <path class="cls-1" d="m128.28,424.94c-.38,1.49-1.84,2.54-3.44,2.54-2.11.04-3.76-1.64-3.72-3.67-.04-2.03,1.61-3.71,3.72-3.67,1.6,0,3.06,1.05,3.44,2.54h-1.57c-.29-.69-1.06-1.14-1.87-1.14-1.33,0-2.26,1-2.26,2.27s.93,2.27,2.26,2.27c.81,0,1.58-.45,1.87-1.14h1.57Z"/>
    <path class="cls-1" d="m128.9,421.65v-1.38h5.26v1.38h-1.91v5.72h-1.46v-5.72h-1.89Z"/>
    <path class="cls-1" d="m98.17,430.27v5.72h3.04v1.38h-4.49v-7.1h1.45Z"/>
    <path class="cls-1" d="m106.89,430.27v1.38h-2.97v1.46h2.37v1.38h-2.37v1.5h2.97v1.38h-4.42v-7.1h4.42Z"/>
    <path class="cls-1" d="m114.74,430.27v7.1h-1.25l-3.64-4.63v4.63h-1.45v-7.1h1.25l3.64,4.63v-4.63h1.45Z"/>
    <path class="cls-1" d="m118.85,437.48c-1.63.03-2.68-1.13-2.72-2.32h1.44c.09.61.63.98,1.28.98.59,0,1.01-.28,1.01-.72,0-.39-.31-.68-.94-.86l-.76-.22c-1.16-.33-1.85-1.05-1.86-2.1,0-.65.22-1.16.65-1.53.43-.38,1.01-.57,1.73-.57,1.47-.02,2.45,1.08,2.49,2.16h-1.43c-.16-.56-.59-.82-1.06-.82-.53,0-.92.27-.92.68s.29.66.89.83l.84.23c1.16.33,1.84,1.07,1.84,2.15,0,1.2-1.01,2.11-2.48,2.11Z"/>
  </g>
  <g>
    <path class="cls-1" d="m103,529.3v1.38h-2.97v1.46h2.37v1.38h-2.37v1.5h2.97v1.38h-4.42v-7.1h4.42Z"/>
    <path class="cls-1" d="m103.82,529.3h1.68l1.66,2.69,1.67-2.69h1.69l-2.63,4.12v2.98h-1.45v-2.99l-2.62-4.11Z"/>
    <path class="cls-1" d="m116.08,529.3v1.38h-2.97v1.46h2.37v1.38h-2.37v1.5h2.97v1.38h-4.42v-7.1h4.42Z"/>
    <path class="cls-1" d="m122.37,536.51c-1.63.03-2.68-1.13-2.72-2.32h1.44c.09.61.63.98,1.28.98.59,0,1.01-.28,1.01-.72,0-.39-.31-.68-.94-.86l-.76-.22c-1.16-.33-1.85-1.05-1.86-2.1,0-.65.22-1.16.65-1.53.43-.38,1.01-.57,1.73-.57,1.47-.02,2.45,1.08,2.49,2.16h-1.43c-.16-.56-.59-.82-1.06-.82-.53,0-.92.27-.92.68s.29.66.89.83l.84.23c1.16.33,1.84,1.07,1.84,2.15,0,1.2-1.01,2.11-2.48,2.11Z"/>
    <path class="cls-1" d="m125.55,530.68v-1.38h5.26v1.38h-1.91v5.72h-1.46v-5.72h-1.89Z"/>
    <path class="cls-1" d="m136.3,536.39l-2.43-2.99h-.36v2.99h-1.45v-7.1h2.72c1.31,0,2.18.91,2.18,2.1,0,.92-.49,1.54-1.46,1.85l2.55,3.15h-1.75Zm-1.69-4.23c.55,0,.91-.29.91-.77s-.36-.77-.91-.77h-1.1v1.54h1.1Z"/>
    <path class="cls-1" d="m143.3,534.77h-3.02l-.69,1.62h-1.5l3.06-7.1h1.29l3.07,7.1h-1.52l-.69-1.62Zm-.53-1.27l-.98-2.31-.98,2.31h1.96Z"/>
    <path class="cls-1" d="m148,529.3v7.1h-1.45v-7.1h1.45Z"/>
    <path class="cls-1" d="m156.17,529.3v7.1h-1.25l-3.64-4.63v4.63h-1.45v-7.1h1.25l3.64,4.63v-4.63h1.45Z"/>
  </g>
  <g id="xm3nRX">
    <g>
      <path d="m369.92,387.25c.16-.13.34-.25.49-.4,3.22-2.99,8.19-1.55,9.22,2.71.42,1.75.07,3.43-1.18,4.77-1.71,1.83-3.51,3.57-5.28,5.34-1.94,1.95-3.86,3.91-5.84,5.83-3.1,3-8.19,1.53-9.16-2.68-.19-.85-.09-1.8.03-2.67.14-.94.22-.92-.76-.92-3.9,0-7.8,0-11.7,0-1.14,0-1.34-.19-1.34-1.32,0-9.79,0-19.58,0-29.37,0-1.27.18-1.45,1.46-1.45,5.05,0,10.1,0,15.14,0,.58,0,1.01.17,1.41.58,2.27,2.29,4.55,4.56,6.84,6.83.4.39.44.85.44,1.35,0,3.51,0,7.02,0,10.53,0,.26,0,.52,0,.78l.2.1Zm-23.85-4.11c0,4.58,0,9.15-.01,13.73,0,.56.17.75.73.75,4.08-.02,8.16,0,12.25-.03.36,0,.81-.2,1.07-.45,2.52-2.47,5-4.98,7.5-7.47.37-.36.52-.74.51-1.25-.01-3.84,0-7.67,0-11.51,0-.81-.04-.84-.82-.84-1.81,0-3.61,0-5.42,0-.89,0-1.12-.25-1.12-1.15,0-1.79,0-3.57,0-5.36,0-.82-.03-.85-.81-.85-4.35,0-8.7,0-13.05,0-.82,0-.82,0-.82.82,0,4.53,0,9.07,0,13.6Zm28.52,3.74c-1.32,0-2.21.33-2.93,1.02-1.54,1.5-3.05,3.04-4.58,4.55-.27.27-.31.48-.02.77,1.59,1.57,3.17,3.15,4.74,4.74.3.3.53.29.82,0,1.5-1.52,3.04-2.99,4.5-4.54,1.16-1.22,1.37-2.7.7-4.22-.66-1.51-1.9-2.25-3.24-2.32Zm-14.98,14.63c0,1.62.88,3,2.39,3.62,1.51.63,2.94.39,4.12-.71,1.56-1.45,3.02-3.01,4.54-4.51.32-.31.34-.53.01-.86-1.55-1.52-3.09-3.06-4.61-4.61-.35-.36-.61-.37-.97,0-1.44,1.46-2.9,2.9-4.34,4.36-.73.75-1.14,1.65-1.14,2.71Zm7.05-27.05c-1.47-1.47-2.84-2.84-4.21-4.22,0,0-.07.07-.07.14-.01,1.23-.03,2.46,0,3.68,0,.14.31.36.49.38.63.05,1.27.02,1.9.02.6,0,1.21,0,1.88,0Z"/>
      <path d="m355.02,395.46c-.04.19-.04.21-.05.23q-.92,1.17-1.97.13c-.84-.83-.7-.94-1.64.01-1.18,1.19-.77.98-1.88,0-.04-.04-.07-.1-.15-.23.43-.43.86-.89,1.31-1.32.31-.29.34-.57,0-.81-1.29-.89-1.58-2.13-1.47-3.63.12-1.57.04-3.16.02-4.74,0-.46.16-.62.61-.6.66.03,1.31,0,1.97.01,1.45.03,2.51,1.07,2.54,2.47.03,1.3-1.02,2.41-2.4,2.47-1.04.04-1.05-.12-1.1,1.22-.03.96.71,1.32,1.24,1.85.06.06.36-.03.47-.13.37-.33.72-.68,1.05-1.04.29-.32.54-.32.8.02.1.13.22.25.34.35.34.28.3.52,0,.81-.33.3-.63.65-.96.95-.29.27-.3.5-.01.77.45.42.9.84,1.31,1.23Zm-4.21-8.61c0,.93.05,1,.7,1,.74,0,1.15-.31,1.16-.88,0-.57-.4-.85-1.14-.9-.72-.05-.76.37-.71.78Z"/>
      <path d="m352.63,376.68c-1.15,0-2.29-.03-3.44.01-.71.03-.58-.43-.6-.85-.02-.45,0-.78.62-.77,2.33.03,4.67.03,7,0,.63,0,.62.34.62.78,0,.45.05.85-.64.83-1.19-.05-2.37-.01-3.56-.01Z"/>
      <path d="m351.76,373.21c-.86,0-1.72-.02-2.58,0-.47.02-.63-.17-.59-.61.02-.18-.05-.4.02-.55.09-.18.28-.42.43-.42,1.8-.03,3.61-.02,5.42-.02.35,0,.47.18.45.5-.01.18-.03.37-.01.55.03.4-.16.54-.55.54-.86-.02-1.72,0-2.58,0Z"/>
    </g>
  </g>
  <g>
    <path class="cls-1" d="m335.25,410.57v7.1h-1.45v-4.62l-2.18,2.99-2.18-2.99v4.62h-1.45v-7.1h1.32l2.31,3.16,2.31-3.16h1.32Z"/>
    <path class="cls-1" d="m341.5,410.57v1.38h-2.97v1.46h2.37v1.38h-2.37v1.5h2.97v1.38h-4.42v-7.1h4.42Z"/>
    <path class="cls-1" d="m345.35,410.57c1.99-.04,3.69,1.62,3.65,3.55.04,1.93-1.66,3.59-3.65,3.55h-2.34v-7.1h2.34Zm0,1.33h-.89v4.44h.89c1.29,0,2.19-.99,2.19-2.22s-.9-2.22-2.19-2.22Z"/>
    <path class="cls-1" d="m351.87,410.57v7.1h-1.45v-7.1h1.45Z"/>
    <path class="cls-1" d="m360.45,415.25c-.38,1.49-1.84,2.54-3.44,2.54-2.11.04-3.76-1.64-3.72-3.67-.04-2.03,1.61-3.71,3.72-3.67,1.6,0,3.06,1.05,3.44,2.54h-1.57c-.29-.69-1.06-1.14-1.87-1.14-1.33,0-2.26,1-2.26,2.27s.93,2.27,2.26,2.27c.81,0,1.58-.45,1.87-1.14h1.57Z"/>
    <path class="cls-1" d="m365.99,416.05h-3.02l-.69,1.62h-1.5l3.06-7.1h1.29l3.07,7.1h-1.52l-.69-1.62Zm-.53-1.27l-.98-2.31-.98,2.31h1.96Z"/>
    <path class="cls-1" d="m367.97,411.95v-1.38h5.26v1.38h-1.91v5.72h-1.46v-5.72h-1.89Z"/>
    <path class="cls-1" d="m375.93,410.57v7.1h-1.45v-7.1h1.45Z"/>
    <path class="cls-1" d="m381.01,410.45c1.98-.04,3.71,1.69,3.67,3.67.04,1.98-1.69,3.71-3.67,3.67-1.98.04-3.71-1.69-3.67-3.67-.04-1.98,1.69-3.71,3.67-3.67Zm0,1.4c-1.21-.03-2.23,1.06-2.21,2.27-.02,1.21,1,2.3,2.21,2.27,1.21.03,2.23-1.06,2.21-2.27.02-1.21-1-2.3-2.21-2.27Z"/>
    <path class="cls-1" d="m392.43,410.57v7.1h-1.25l-3.64-4.63v4.63h-1.45v-7.1h1.25l3.64,4.63v-4.63h1.45Z"/>
    <path class="cls-1" d="m345.82,427.67l-2.43-2.99h-.36v2.99h-1.45v-7.1h2.72c1.31,0,2.18.91,2.18,2.1,0,.92-.49,1.54-1.46,1.85l2.55,3.15h-1.75Zm-1.69-4.23c.55,0,.91-.29.91-.77s-.36-.77-.91-.77h-1.1v1.54h1.1Z"/>
    <path class="cls-1" d="m352.81,420.57v1.38h-2.97v1.46h2.37v1.38h-2.37v1.5h2.97v1.38h-4.42v-7.1h4.42Z"/>
    <path class="cls-1" d="m360.72,420.57l-2.94,7.1h-1.29l-2.93-7.1h1.57l2.01,4.93,1.98-4.93h1.6Z"/>
    <path class="cls-1" d="m363.24,420.57v7.1h-1.45v-7.1h1.45Z"/>
    <path class="cls-1" d="m369.48,420.57v1.38h-2.97v1.46h2.37v1.38h-2.37v1.5h2.97v1.38h-4.42v-7.1h4.42Z"/>
    <path class="cls-1" d="m379.64,420.57l-1.71,7.1h-1.36l-1.56-3.77-1.56,3.77h-1.36l-1.71-7.1h1.54l1.08,4.72,2.01-4.84,2.01,4.84,1.08-4.72h1.54Z"/>
  </g>
  <g>
    <path class="cls-1" d="m236.4,430.7v2.83h3.08v-2.83h1.45v7.1h-1.45v-2.89h-3.08v2.89h-1.45v-7.1h1.45Z"/>
    <path class="cls-1" d="m246,430.58c1.98-.04,3.71,1.69,3.67,3.67.04,1.98-1.69,3.71-3.67,3.67-1.98.04-3.71-1.69-3.67-3.67-.04-1.98,1.69-3.71,3.67-3.67Zm0,1.4c-1.21-.03-2.23,1.06-2.21,2.27-.02,1.21,1,2.3,2.21,2.27,1.21.03,2.23-1.06,2.21-2.27.02-1.21-1-2.3-2.21-2.27Z"/>
    <path class="cls-1" d="m255.32,437.79l-2.43-2.99h-.36v2.99h-1.45v-7.1h2.72c1.31,0,2.18.91,2.18,2.1,0,.92-.49,1.54-1.46,1.85l2.55,3.15h-1.75Zm-1.69-4.23c.55,0,.91-.29.91-.77s-.36-.77-.91-.77h-1.1v1.54h1.1Z"/>
    <path class="cls-1" d="m265.15,430.7v7.1h-1.45v-4.62l-2.18,2.99-2.18-2.99v4.62h-1.45v-7.1h1.32l2.31,3.16,2.31-3.16h1.32Z"/>
    <path class="cls-1" d="m270.23,430.58c1.98-.04,3.71,1.69,3.67,3.67.04,1.98-1.69,3.71-3.67,3.67-1.98.04-3.71-1.69-3.67-3.67-.04-1.98,1.69-3.71,3.67-3.67Zm0,1.4c-1.21-.03-2.23,1.06-2.21,2.27-.02,1.21,1,2.3,2.21,2.27,1.21.03,2.23-1.06,2.21-2.27.02-1.21-1-2.3-2.21-2.27Z"/>
    <path class="cls-1" d="m281.65,430.7v7.1h-1.25l-3.64-4.63v4.63h-1.45v-7.1h1.25l3.64,4.63v-4.63h1.45Z"/>
    <path class="cls-1" d="m287.9,430.7v1.38h-2.97v1.46h2.37v1.38h-2.37v1.5h2.97v1.38h-4.42v-7.1h4.42Z"/>
    <path class="cls-1" d="m291.69,437.91c-1.63.03-2.68-1.13-2.72-2.32h1.44c.09.61.63.98,1.28.98.59,0,1.01-.28,1.01-.72,0-.39-.31-.68-.94-.86l-.76-.22c-1.16-.33-1.85-1.05-1.86-2.1,0-.65.22-1.16.65-1.53.43-.38,1.01-.57,1.73-.57,1.47-.02,2.45,1.08,2.49,2.16h-1.43c-.16-.56-.59-.82-1.06-.82-.53,0-.92.27-.92.68s.29.66.89.83l.84.23c1.16.33,1.84,1.07,1.84,2.15,0,1.2-1.01,2.11-2.48,2.11Z"/>
  </g>
  <g id="CcNbeA">
    <g>
      <path d="m396.58,333.65c-5.29-.07-9.63-2.15-13.47-5.37-1.36-1.14-2.57-2.5-3.7-3.88-1.13-1.38-1.12-2.14-.04-3.55,3.42-4.47,7.84-7.46,13.31-8.87.57-.15.74.06.87.56.13.54-.2.56-.55.63-2.14.46-4.11,1.33-5.99,2.43-.54.31-.77.72-.87,1.31-1.1,7.03,5.66,13.21,12.54,11.4,4.43-1.17,7-4.11,7.77-8.61.09-.51.28-.77.73-1,.72-.37,1.41-.82,2.07-1.3.37-.27.63-.34.95.01,1.11,1.27,2.24,2.52,3.3,3.82.78.95.59,1.94-.06,2.92-1.32,1.99-3.01,3.6-4.9,5.02-2.96,2.22-6.22,3.77-9.92,4.31-.73.11-1.47.13-2.05.17Z"/>
      <path d="m403.15,318.17c-3.37-.09-6.46-2.13-7.76-5.25-1.3-3.13-.53-6.76,1.96-9.18,2.34-2.28,6.01-2.94,9.04-1.51.76.36,1.21.32,1.74-.32.56-.66,1.21-1.26,1.84-1.85.82-.77,1.97-.78,2.71-.05.73.72.75,1.9,0,2.71-.68.74-1.37,1.47-2.11,2.15-.4.37-.43.66-.18,1.15,2.13,4.26.36,9.35-3.98,11.26-1.02.45-2.17.61-3.25.9Zm-.04-14.84c-3.48-.06-6.42,2.76-6.49,6.23-.08,3.59,2.73,6.54,6.27,6.61,3.56.06,6.5-2.8,6.54-6.35.03-3.54-2.78-6.42-6.32-6.48Z"/>
      <path d="m390.75,321.02c2.97-.3,3.97-3.01,1.99-5.13.18-.15.35-.31.54-.43,1.08-.71,1.15-.69,1.93.32,1.55,2.01,3.57,3.24,6.06,3.7.43.08.71.16.75.7.17,2.75-2.1,5.36-5.05,5.74-2.76.36-5.68-1.67-6.17-4.31-.03-.18-.02-.36-.03-.59Z"/>
      <path d="m398.71,311.78c2.36.35,4.42,1.08,6.5,2.18-.8.45-1.46.64-2.25.3-.8-.35-1.62-.67-2.46-.85-.89-.18-1.34-.73-1.79-1.63Z"/>
    </g>
  </g>
  <g>
    <path class="cls-1" d="m364.19,343.98v2.32h-1.45v-7.1h2.36c1.43,0,2.49,1.04,2.49,2.39s-1.06,2.39-2.49,2.39h-.91Zm0-3.42v2.06h.89c.65,0,1.1-.44,1.1-1.03s-.45-1.03-1.1-1.03h-.89Z"/>
    <path class="cls-1" d="m373.14,346.29l-2.43-2.99h-.36v2.99h-1.45v-7.1h2.72c1.31,0,2.18.91,2.18,2.1,0,.92-.49,1.54-1.46,1.85l2.55,3.15h-1.75Zm-1.69-4.23c.55,0,.91-.29.91-.77s-.36-.77-.91-.77h-1.1v1.54h1.1Z"/>
    <path class="cls-1" d="m378.73,339.08c1.98-.04,3.71,1.69,3.67,3.67.04,1.98-1.69,3.71-3.67,3.67-1.98.04-3.71-1.69-3.67-3.67-.04-1.98,1.69-3.71,3.67-3.67Zm0,1.4c-1.21-.03-2.23,1.06-2.21,2.27-.02,1.21,1,2.3,2.21,2.27,1.21.03,2.23-1.06,2.21-2.27.02-1.21-1-2.3-2.21-2.27Z"/>
    <path class="cls-1" d="m385.26,343.98v2.32h-1.45v-7.1h2.36c1.43,0,2.49,1.04,2.49,2.39s-1.06,2.39-2.49,2.39h-.91Zm0-3.42v2.06h.89c.65,0,1.1-.44,1.1-1.03s-.45-1.03-1.1-1.03h-.89Z"/>
    <path class="cls-1" d="m391.42,339.2v2.83h3.08v-2.83h1.45v7.1h-1.45v-2.89h-3.08v2.89h-1.45v-7.1h1.45Z"/>
    <path class="cls-1" d="m397.09,339.2h1.68l1.66,2.69,1.67-2.69h1.69l-2.63,4.12v2.98h-1.45v-2.99l-2.62-4.11Z"/>
    <path class="cls-1" d="m406.38,339.2v5.72h3.04v1.38h-4.49v-7.1h1.45Z"/>
    <path class="cls-1" d="m415.11,344.68h-3.02l-.69,1.62h-1.5l3.06-7.1h1.29l3.07,7.1h-1.52l-.69-1.62Zm-.53-1.27l-.98-2.31-.98,2.31h1.96Z"/>
    <path class="cls-1" d="m422.9,346.29l-1.84-2.46-1.85,2.46h-1.7l2.67-3.59-2.52-3.51h1.68l1.72,2.38,1.71-2.38h1.68l-2.52,3.51,2.67,3.59h-1.7Z"/>
    <path class="cls-1" d="m427.04,339.2v7.1h-1.45v-7.1h1.45Z"/>
    <path class="cls-1" d="m431.15,346.41c-1.63.03-2.68-1.13-2.72-2.32h1.44c.09.61.63.98,1.28.98.59,0,1.01-.28,1.01-.72,0-.39-.31-.68-.94-.86l-.76-.22c-1.16-.33-1.85-1.05-1.86-2.1,0-.65.22-1.16.65-1.53.43-.38,1.01-.57,1.73-.57,1.47-.02,2.45,1.08,2.49,2.16h-1.43c-.16-.56-.59-.82-1.06-.82-.53,0-.92.27-.92.68s.29.66.89.83l.84.23c1.16.33,1.84,1.07,1.84,2.15,0,1.2-1.01,2.11-2.48,2.11Z"/>
  </g>
  <g id="_0fdiQx" data-name="0fdiQx">
    <g>
      <path d="m303.49,89.9c.68-.74,1.34-1.5,2.05-2.21,1.32-1.33,2.79-1.32,4.12,0,.7.69,1.41,1.38,2.09,2.09,1.17,1.22,1.15,2.71-.05,3.91-2.61,2.61-5.22,5.23-7.85,7.82-.47.46-.68.93-.67,1.59.03,3.21.02,6.43,0,9.64,0,2.9-1.84,4.73-4.75,4.73-8.73,0-17.46,0-26.19,0-2.86,0-4.7-1.82-4.7-4.7-.01-11.74-.01-23.48,0-35.22,0-2.74,1.9-4.63,4.64-4.63,6.93,0,13.87-.01,20.8.02.44,0,.99.24,1.31.55,2.82,2.76,5.61,5.55,8.37,8.37.3.3.5.82.51,1.25.05,1.95.01,3.9.01,5.84,0,.27.03.53.04.8.08.05.17.1.25.16Zm-2.12,14.2c-.27.24-.48.41-.66.6-1.25,1.25-2.49,2.52-3.76,3.75-.28.27-.63.54-.99.64-2.02.58-4.05,1.1-6.08,1.64-1.09.29-1.6-.24-1.3-1.34.52-1.95,1.02-3.91,1.58-5.86.12-.41.37-.84.67-1.15,3.36-3.4,6.76-6.76,10.12-10.16.28-.28.49-.77.5-1.17.05-2.22,0-4.45.04-6.68,0-.63-.17-.83-.81-.82-2.25.03-4.5.01-6.75.01-1.21,0-1.39-.19-1.39-1.42,0-2.18-.03-4.35.01-6.53.01-.73-.14-1-.95-1-6.4.04-12.8.02-19.2.02-2.02,0-3.09,1.07-3.09,3.09,0,11.66,0,23.32,0,34.98,0,1.92,1.1,3.02,3.01,3.02,3.36,0,6.73,0,10.09,0,5.39,0,10.78,0,16.17,0,1.68,0,2.88-1.07,2.9-2.66.03-2.86.01-5.72,0-8.57,0-.09-.04-.18-.08-.4Zm6.11-8.9c-.91-.88-1.91-1.79-2.84-2.78-.51-.54-.81-.6-1.37-.03-2.88,2.95-5.81,5.84-8.72,8.76-.71.71-1.41,1.43-2.07,2.1,1.23,1.21,2.39,2.36,3.53,3.48,3.76-3.78,7.56-7.6,11.48-11.53Zm-13.18-19c0,1.75,0,3.43,0,5.12,0,.49.27.51.64.51,1.34,0,2.68,0,4.02,0,.33,0,.66,0,.95,0-1.88-1.89-3.7-3.72-5.59-5.63Zm14.64,17.89c.55-.59,1.09-1.15,1.62-1.73.38-.41.43-.86.02-1.28-.77-.79-1.53-1.61-2.37-2.33-.23-.2-.85-.29-1.06-.12-.69.53-1.27,1.19-1.87,1.78,1.23,1.23,2.38,2.39,3.66,3.68Zm-17.42,11.14c-.29,1.12-.58,2.22-.91,3.49,1.29-.36,2.36-.65,3.42-.95-.86-.87-1.64-1.66-2.51-2.55Z"/>
      <path d="m285.37,92.55c3.11,0,6.22,0,9.33,0,.23,0,.52-.07.67.04.27.21.63.52.63.8,0,.28-.33.61-.6.82-.17.13-.49.07-.74.07-6.19,0-12.38,0-18.58,0-.2,0-.41,0-.6-.03-.49-.08-.8-.37-.78-.87.02-.49.31-.79.82-.83.23-.02.45-.01.68-.01,3.06,0,6.12,0,9.17,0Z"/>
      <path d="m285.33,88.92c-3.16,0-6.32.02-9.47-.02-.37,0-.84-.23-1.06-.51-.34-.44.05-1.07.64-1.17.27-.04.55-.03.83-.03,6.09,0,12.18,0,18.26,0,.15,0,.3,0,.45,0,.59-.02,1.03.22,1.04.84.01.67-.46.89-1.07.89-3.21,0-6.42,0-9.62,0Z"/>
      <path d="m282.26,99.65c-2.1,0-4.2,0-6.3,0-.25,0-.57.03-.73-.11-.24-.21-.52-.55-.5-.82.02-.27.35-.56.61-.75.16-.11.44-.06.67-.06,4.17,0,8.34,0,12.51,0,.05,0,.1,0,.15,0,.6-.01,1.09.16,1.09.86,0,.69-.47.89-1.07.89-1.06,0-2.12,0-3.19,0-1.09,0-2.17,0-3.26,0h0Z"/>
      <path d="m280.44,104.99c-1.54,0-3.08,0-4.62,0-.6,0-1.1-.18-1.11-.85-.01-.68.47-.88,1.08-.88,3.11,0,6.22,0,9.32,0,.59,0,1.08.12,1.1.84.02.59-.35.88-1.14.88-1.54,0-3.08,0-4.62,0,0,0,0,0,0,0Z"/>
    </g>
  </g>
  <g>
    <path class="cls-1" d="m222.58,132.05l-.74-.61c-.63.47-1.39.73-2.2.73-1.98.04-3.71-1.69-3.67-3.67-.04-1.98,1.69-3.71,3.67-3.67,1.98-.04,3.71,1.69,3.67,3.67,0,.73-.19,1.39-.58,1.98l1.89,1.57h-2.04Zm-2.92-2.43l.83-1,1.11.92c.17-.32.25-.67.25-1.04.02-1.21-1-2.3-2.21-2.27-1.21-.03-2.23,1.06-2.21,2.27-.02,1.21,1,2.3,2.21,2.27.38,0,.74-.09,1.07-.28l-1.05-.87Z"/>
    <path class="cls-1" d="m224.96,124.96h1.45v4.32c0,.93.57,1.5,1.44,1.5s1.44-.57,1.44-1.5v-4.32h1.45v4.3c0,1.76-1.21,2.92-2.89,2.92s-2.89-1.16-2.89-2.92v-4.3Z"/>
    <path class="cls-1" d="m236.91,124.96v1.38h-2.97v1.46h2.37v1.38h-2.37v1.5h2.97v1.38h-4.42v-7.1h4.42Z"/>
    <path class="cls-1" d="m240.7,132.17c-1.63.03-2.68-1.13-2.72-2.32h1.44c.09.61.63.98,1.28.98.59,0,1.01-.28,1.01-.72,0-.39-.31-.68-.94-.86l-.76-.22c-1.16-.33-1.85-1.05-1.86-2.1,0-.65.22-1.16.65-1.53.43-.38,1.01-.57,1.73-.57,1.47-.02,2.45,1.08,2.49,2.16h-1.43c-.16-.56-.59-.82-1.06-.82-.53,0-.92.27-.92.68s.29.66.89.83l.84.23c1.16.33,1.84,1.07,1.84,2.15,0,1.2-1.01,2.11-2.48,2.11Z"/>
    <path class="cls-1" d="m243.88,126.34v-1.38h5.26v1.38h-1.91v5.72h-1.46v-5.72h-1.89Z"/>
    <path class="cls-1" d="m251.84,124.96v7.1h-1.45v-7.1h1.45Z"/>
    <path class="cls-1" d="m256.92,124.84c1.98-.04,3.71,1.69,3.67,3.67.04,1.98-1.69,3.71-3.67,3.67-1.98.04-3.71-1.69-3.67-3.67-.04-1.98,1.69-3.71,3.67-3.67Zm0,1.4c-1.21-.03-2.23,1.06-2.21,2.27-.02,1.21,1,2.3,2.21,2.27,1.21.03,2.23-1.06,2.21-2.27.02-1.21-1-2.3-2.21-2.27Z"/>
    <path class="cls-1" d="m268.33,124.96v7.1h-1.25l-3.64-4.63v4.63h-1.45v-7.1h1.25l3.64,4.63v-4.63h1.45Z"/>
    <path class="cls-1" d="m276.5,124.96v7.1h-1.25l-3.64-4.63v4.63h-1.45v-7.1h1.25l3.64,4.63v-4.63h1.45Z"/>
    <path class="cls-1" d="m282.76,130.43h-3.02l-.69,1.62h-1.5l3.06-7.1h1.29l3.07,7.1h-1.52l-.69-1.62Zm-.53-1.27l-.98-2.31-.98,2.31h1.96Z"/>
    <path class="cls-1" d="m287.47,124.96v7.1h-1.45v-7.1h1.45Z"/>
    <path class="cls-1" d="m293.54,132.05l-2.43-2.99h-.36v2.99h-1.45v-7.1h2.72c1.31,0,2.18.91,2.18,2.1,0,.92-.49,1.54-1.46,1.85l2.55,3.15h-1.75Zm-1.69-4.23c.55,0,.91-.29.91-.77s-.36-.77-.91-.77h-1.1v1.54h1.1Z"/>
    <path class="cls-1" d="m300.52,124.96v1.38h-2.97v1.46h2.37v1.38h-2.37v1.5h2.97v1.38h-4.42v-7.1h4.42Z"/>
    <path class="cls-1" d="m308.85,124.96v1.38h-2.87v1.47h2.25v1.38h-2.25v2.87h-1.45v-7.1h4.32Z"/>
    <path class="cls-1" d="m313.33,124.84c1.98-.04,3.71,1.69,3.67,3.67.04,1.98-1.69,3.71-3.67,3.67-1.98.04-3.71-1.69-3.67-3.67-.04-1.98,1.69-3.71,3.67-3.67Zm0,1.4c-1.21-.03-2.23,1.06-2.21,2.27-.02,1.21,1,2.3,2.21,2.27,1.21.03,2.23-1.06,2.21-2.27.02-1.21-1-2.3-2.21-2.27Z"/>
    <path class="cls-1" d="m322.64,132.05l-2.43-2.99h-.36v2.99h-1.45v-7.1h2.72c1.31,0,2.18.91,2.18,2.1,0,.92-.49,1.54-1.46,1.85l2.55,3.15h-1.75Zm-1.69-4.23c.55,0,.91-.29.91-.77s-.36-.77-.91-.77h-1.1v1.54h1.1Z"/>
    <path class="cls-1" d="m331.93,124.96v1.38h-2.97v1.46h2.37v1.38h-2.37v1.5h2.97v1.38h-4.42v-7.1h4.42Z"/>
    <path class="cls-1" d="m337.87,130.43h-3.02l-.69,1.62h-1.5l3.06-7.1h1.29l3.07,7.1h-1.52l-.69-1.62Zm-.53-1.27l-.98-2.31-.98,2.31h1.96Z"/>
    <path class="cls-1" d="m345.36,132.05l-2.43-2.99h-.36v2.99h-1.45v-7.1h2.72c1.31,0,2.18.91,2.18,2.1,0,.92-.49,1.54-1.46,1.85l2.55,3.15h-1.75Zm-1.69-4.23c.55,0,.91-.29.91-.77s-.36-.77-.91-.77h-1.1v1.54h1.1Z"/>
    <path class="cls-1" d="m349.38,124.96v5.72h3.04v1.38h-4.49v-7.1h1.45Z"/>
    <path class="cls-1" d="m352.01,124.96h1.68l1.66,2.69,1.67-2.69h1.69l-2.63,4.12v2.98h-1.45v-2.99l-2.62-4.11Z"/>
    <path class="cls-1" d="m247.68,134.96v7.1h-1.45v-7.1h1.45Z"/>
    <path class="cls-1" d="m251.85,134.96c1.99-.04,3.69,1.62,3.65,3.55.04,1.93-1.66,3.59-3.65,3.55h-2.34v-7.1h2.34Zm0,1.33h-.89v4.44h.89c1.29,0,2.19-.99,2.19-2.22s-.9-2.22-2.19-2.22Z"/>
    <path class="cls-1" d="m261.34,134.96v1.38h-2.97v1.46h2.37v1.38h-2.37v1.5h2.97v1.38h-4.42v-7.1h4.42Z"/>
    <path class="cls-1" d="m269.19,134.96v7.1h-1.25l-3.64-4.63v4.63h-1.45v-7.1h1.25l3.64,4.63v-4.63h1.45Z"/>
    <path class="cls-1" d="m270.44,136.34v-1.38h5.26v1.38h-1.91v5.72h-1.46v-5.72h-1.89Z"/>
    <path class="cls-1" d="m278.4,134.96v7.1h-1.45v-7.1h1.45Z"/>
    <path class="cls-1" d="m284.55,134.96v1.38h-2.87v1.47h2.25v1.38h-2.25v2.87h-1.45v-7.1h4.32Z"/>
    <path class="cls-1" d="m287.35,134.96v7.1h-1.45v-7.1h1.45Z"/>
    <path class="cls-1" d="m295.93,139.63c-.38,1.49-1.84,2.54-3.44,2.54-2.11.04-3.76-1.64-3.72-3.67-.04-2.03,1.61-3.71,3.72-3.67,1.6,0,3.06,1.05,3.44,2.54h-1.57c-.29-.69-1.06-1.14-1.87-1.14-1.33,0-2.26,1-2.26,2.27s.93,2.27,2.26,2.27c.81,0,1.58-.45,1.87-1.14h1.57Z"/>
    <path class="cls-1" d="m301.47,140.43h-3.02l-.69,1.62h-1.5l3.06-7.1h1.29l3.07,7.1h-1.52l-.69-1.62Zm-.53-1.27l-.98-2.31-.98,2.31h1.96Z"/>
    <path class="cls-1" d="m303.45,136.34v-1.38h5.26v1.38h-1.91v5.72h-1.46v-5.72h-1.89Z"/>
    <path class="cls-1" d="m311.41,134.96v7.1h-1.45v-7.1h1.45Z"/>
    <path class="cls-1" d="m316.49,134.84c1.98-.04,3.71,1.69,3.67,3.67.04,1.98-1.69,3.71-3.67,3.67-1.98.04-3.71-1.69-3.67-3.67-.04-1.98,1.69-3.71,3.67-3.67Zm0,1.4c-1.21-.03-2.23,1.06-2.21,2.27-.02,1.21,1,2.3,2.21,2.27,1.21.03,2.23-1.06,2.21-2.27.02-1.21-1-2.3-2.21-2.27Z"/>
    <path class="cls-1" d="m327.91,134.96v7.1h-1.25l-3.64-4.63v4.63h-1.45v-7.1h1.25l3.64,4.63v-4.63h1.45Z"/>
  </g>
  <g id="_9unT3F" data-name="9unT3F">
    <g>
      <path d="m311.72,256.93q1.93-1.39.9-2.86c-4.84-6.87-3.66-16.22,2.74-21.8,6.08-5.3,15.5-5.19,21.49.25,6.25,5.68,7.26,15,2.36,21.74-5.22,7.18-15.28,8.88-22.58,3.8-.41-.29-.82-.58-1.21-.85-1.76,1.14-1.79,1.26-.37,2.65.42.41.93.72,1.56,1.2-2.13,2.14-4.01,4.03-5.89,5.93-1.86,1.88-3.71,3.78-5.61,5.71-.43-.24-.78-.43-1.34-.74-1,1.15-2.01,2.33-3.03,3.5-1.89-1.91-3.57-3.63-5.46-5.54,1.1-.91,2.3-1.89,3.49-2.88-.07-.11-.13-.21-.2-.32-.18-.35-.36-.71-.61-1.19,1.56-1.53,3.12-3.06,4.67-4.59,2-1.99,4-3.97,5.97-5.99.56-.58.99-.7,1.52-.01.51.67,1.06,1.3,1.6,1.97Zm28.11-12.16c.01-7.77-6.15-13.99-13.87-14-7.64,0-13.87,6.23-13.87,13.89,0,7.71,6.13,13.87,13.83,13.89,7.73.02,13.9-6.09,13.91-13.79Zm-26.83,16.24c-1.01-.93-2.03-1.92-3.12-2.81-.21-.17-.89-.1-1.11.11-2.32,2.24-4.6,4.53-6.85,6.84-.2.2-.27.84-.11,1.03.94,1.11,1.97,2.14,2.87,3.1,2.84-2.82,5.47-5.44,8.33-8.27Zm-10.86,9.18c-1.57-2.1-2.04-2.08-3.31.05,1.46,2.01,1.78,2.01,3.31-.05Z"/>
      <path d="m325.89,249.63c-1.05.21-1.11-.41-1.15-1.24-.05-1.05.5-1.1,1.31-1.13,1.02-.05,1.13.45,1.17,1.29.04,1.05-.49,1.2-1.33,1.08Z"/>
      <path d="m327.18,240.84c.12.88-.19,1.31-1.15,1.3-.86,0-1.31-.21-1.29-1.19.02-.85.17-1.33,1.17-1.28.83.03,1.43.15,1.27,1.17Z"/>
      <path d="m322.33,245.86c-.92.13-1.39-.11-1.38-1.11.01-.85.16-1.31,1.16-1.29.83.02,1.35.13,1.29,1.14-.05.79-.04,1.49-1.07,1.25Z"/>
      <path d="m330.93,244.69c.17.94-.26,1.22-1.18,1.23-.93,0-1.21-.33-1.21-1.24,0-.93.3-1.23,1.22-1.22.91,0,1.35.28,1.17,1.23Z"/>
    </g>
  </g>
  <g>
    <path class="cls-1" d="m350.65,232.13c1.99-.04,3.69,1.62,3.65,3.55.04,1.93-1.66,3.59-3.65,3.55h-2.34v-7.1h2.34Zm0,1.33h-.89v4.44h.89c1.29,0,2.19-.99,2.19-2.22s-.9-2.22-2.19-2.22Z"/>
    <path class="cls-1" d="m357.17,232.13v7.1h-1.45v-7.1h1.45Z"/>
    <path class="cls-1" d="m363.32,232.13v1.38h-2.87v1.47h2.25v1.38h-2.25v2.87h-1.45v-7.1h4.32Z"/>
    <path class="cls-1" d="m368.99,232.13v1.38h-2.87v1.47h2.25v1.38h-2.25v2.87h-1.45v-7.1h4.32Z"/>
    <path class="cls-1" d="m374.76,232.13v1.38h-2.97v1.46h2.37v1.38h-2.37v1.5h2.97v1.38h-4.42v-7.1h4.42Z"/>
    <path class="cls-1" d="m380.51,239.23l-2.43-2.99h-.36v2.99h-1.45v-7.1h2.72c1.31,0,2.18.91,2.18,2.1,0,.92-.49,1.54-1.46,1.85l2.55,3.15h-1.75Zm-1.69-4.23c.55,0,.91-.29.91-.77s-.36-.77-.91-.77h-1.1v1.54h1.1Z"/>
    <path class="cls-1" d="m387.5,232.13v1.38h-2.97v1.46h2.37v1.38h-2.37v1.5h2.97v1.38h-4.42v-7.1h4.42Z"/>
    <path class="cls-1" d="m395.35,232.13v7.1h-1.25l-3.64-4.63v4.63h-1.45v-7.1h1.25l3.64,4.63v-4.63h1.45Z"/>
    <path class="cls-1" d="m396.6,233.51v-1.38h5.26v1.38h-1.91v5.72h-1.46v-5.72h-1.89Z"/>
    <path class="cls-1" d="m404.56,232.13v7.1h-1.45v-7.1h1.45Z"/>
    <path class="cls-1" d="m410.82,237.61h-3.02l-.69,1.62h-1.5l3.06-7.1h1.29l3.07,7.1h-1.52l-.69-1.62Zm-.53-1.27l-.98-2.31-.98,2.31h1.96Z"/>
    <path class="cls-1" d="m415.52,232.13v5.72h3.04v1.38h-4.49v-7.1h1.45Z"/>
    <path class="cls-1" d="m350.65,242.13c1.99-.04,3.69,1.62,3.65,3.55.04,1.93-1.66,3.59-3.65,3.55h-2.34v-7.1h2.34Zm0,1.33h-.89v4.44h.89c1.29,0,2.19-.99,2.19-2.22s-.9-2.22-2.19-2.22Z"/>
    <path class="cls-1" d="m357.17,242.13v7.1h-1.45v-7.1h1.45Z"/>
    <path class="cls-1" d="m363.43,247.61h-3.02l-.69,1.62h-1.5l3.06-7.1h1.29l3.07,7.1h-1.52l-.69-1.62Zm-.53-1.27l-.98-2.31-.98,2.31h1.96Z"/>
    <path class="cls-1" d="m369.71,249.35c-2.12.04-3.77-1.64-3.74-3.67-.04-2.03,1.61-3.71,3.72-3.67,1.49,0,2.87.89,3.35,2.22h-1.66c-.35-.51-1-.82-1.69-.82-1.33,0-2.26,1-2.26,2.27s.93,2.27,2.28,2.27c1.13,0,1.84-.61,2-1.61h-2.17v-1.36h3.67c.03.21.04.44.04.68.03,2.39-1.58,3.71-3.54,3.69Z"/>
    <path class="cls-1" d="m381.02,242.13v7.1h-1.25l-3.64-4.63v4.63h-1.45v-7.1h1.25l3.64,4.63v-4.63h1.45Z"/>
    <path class="cls-1" d="m386.1,242.01c1.98-.04,3.71,1.69,3.67,3.67.04,1.98-1.69,3.71-3.67,3.67-1.98.04-3.71-1.69-3.67-3.67-.04-1.98,1.69-3.71,3.67-3.67Zm0,1.4c-1.21-.03-2.23,1.06-2.21,2.27-.02,1.21,1,2.3,2.21,2.27,1.21.03,2.23-1.06,2.21-2.27.02-1.21-1-2.3-2.21-2.27Z"/>
    <path class="cls-1" d="m393.46,249.35c-1.63.03-2.68-1.13-2.72-2.32h1.44c.09.61.63.98,1.28.98.59,0,1.01-.28,1.01-.72,0-.39-.31-.68-.94-.86l-.76-.22c-1.16-.33-1.85-1.05-1.86-2.1,0-.65.22-1.16.65-1.53.43-.38,1.01-.57,1.73-.57,1.47-.02,2.45,1.08,2.49,2.16h-1.43c-.16-.56-.59-.82-1.06-.82-.53,0-.92.27-.92.68s.29.66.89.83l.84.23c1.16.33,1.84,1.07,1.84,2.15,0,1.2-1.01,2.11-2.48,2.11Z"/>
    <path class="cls-1" d="m398.83,242.13v7.1h-1.45v-7.1h1.45Z"/>
    <path class="cls-1" d="m402.93,249.35c-1.63.03-2.68-1.13-2.72-2.32h1.44c.09.61.63.98,1.28.98.59,0,1.01-.28,1.01-.72,0-.39-.31-.68-.94-.86l-.76-.22c-1.16-.33-1.85-1.05-1.86-2.1,0-.65.22-1.16.65-1.53.43-.38,1.01-.57,1.73-.57,1.47-.02,2.45,1.08,2.49,2.16h-1.43c-.16-.56-.59-.82-1.06-.82-.53,0-.92.27-.92.68s.29.66.89.83l.84.23c1.16.33,1.84,1.07,1.84,2.15,0,1.2-1.01,2.11-2.48,2.11Z"/>
    <path class="cls-1" d="m410.8,242.13v7.1h-1.45v-7.1h1.45Z"/>
    <path class="cls-1" d="m416.94,242.13v1.38h-2.87v1.47h2.25v1.38h-2.25v2.87h-1.45v-7.1h4.32Z"/>
    <path class="cls-1" d="m350.59,259.35c-1.63.03-2.68-1.13-2.72-2.32h1.44c.09.61.63.98,1.28.98.59,0,1.01-.28,1.01-.72,0-.39-.31-.68-.94-.86l-.76-.22c-1.16-.33-1.85-1.05-1.86-2.1,0-.65.22-1.16.65-1.53.43-.38,1.01-.57,1.73-.57,1.47-.02,2.45,1.08,2.49,2.16h-1.43c-.16-.56-.59-.82-1.06-.82-.53,0-.92.27-.92.68s.29.66.89.83l.84.23c1.16.33,1.84,1.07,1.84,2.15,0,1.2-1.01,2.11-2.48,2.11Z"/>
    <path class="cls-1" d="m353.51,252.13h1.68l1.66,2.69,1.67-2.69h1.69l-2.63,4.12v2.98h-1.45v-2.99l-2.62-4.11Z"/>
    <path class="cls-1" d="m368.6,252.13v7.1h-1.45v-4.62l-2.18,2.99-2.18-2.99v4.62h-1.45v-7.1h1.32l2.31,3.16,2.31-3.16h1.32Z"/>
    <path class="cls-1" d="m371.88,256.91v2.32h-1.45v-7.1h2.36c1.43,0,2.49,1.04,2.49,2.39s-1.06,2.39-2.49,2.39h-.91Zm0-3.42v2.06h.89c.65,0,1.1-.44,1.1-1.03s-.45-1.03-1.1-1.03h-.89Z"/>
    <path class="cls-1" d="m376.02,253.51v-1.38h5.26v1.38h-1.91v5.72h-1.46v-5.72h-1.89Z"/>
    <path class="cls-1" d="m385.48,252.01c1.98-.04,3.71,1.69,3.67,3.67.04,1.98-1.69,3.71-3.67,3.67-1.98.04-3.71-1.69-3.67-3.67-.04-1.98,1.69-3.71,3.67-3.67Zm0,1.4c-1.21-.03-2.23,1.06-2.21,2.27-.02,1.21,1,2.3,2.21,2.27,1.21.03,2.23-1.06,2.21-2.27.02-1.21-1-2.3-2.21-2.27Z"/>
    <path class="cls-1" d="m397.82,252.13v7.1h-1.45v-4.62l-2.18,2.99-2.18-2.99v4.62h-1.45v-7.1h1.32l2.31,3.16,2.31-3.16h1.32Z"/>
    <path class="cls-1" d="m404.08,257.61h-3.02l-.69,1.62h-1.5l3.06-7.1h1.29l3.07,7.1h-1.52l-.69-1.62Zm-.53-1.27l-.98-2.31-.98,2.31h1.96Z"/>
    <path class="cls-1" d="m406.06,253.51v-1.38h5.26v1.38h-1.91v5.72h-1.46v-5.72h-1.89Z"/>
    <path class="cls-1" d="m414.02,252.13v7.1h-1.45v-7.1h1.45Z"/>
    <path class="cls-1" d="m422.6,256.81c-.38,1.49-1.84,2.54-3.44,2.54-2.11.04-3.76-1.64-3.72-3.67-.04-2.03,1.61-3.71,3.72-3.67,1.6,0,3.06,1.05,3.44,2.54h-1.57c-.29-.69-1.06-1.14-1.87-1.14-1.33,0-2.26,1-2.26,2.27s.93,2.27,2.26,2.27c.81,0,1.58-.45,1.87-1.14h1.57Z"/>
  </g>
  <g>
    <path class="cls-2" d="m164.66,203.75l-5.52,9.1-1.86-1.13,5.52-9.1,1.86,1.13Z"/>
    <path class="cls-2" d="m168.43,215.64l-3.87-2.35-2.14,1.54-1.92-1.17,9.44-6.72,1.65,1-1.59,11.48-1.95-1.18.37-2.61Zm.31-2.04l.54-3.72-3.05,2.2,2.51,1.52Z"/>
    <path class="cls-2" d="m188.97,218.5l-5.52,9.1-1.86-1.13,5.52-9.1,1.86,1.13Z"/>
  </g>
  <g>
    <path class="cls-2" d="m144.66,194.03l1.07-1.77,6.74,4.09-1.07,1.77-2.45-1.48-4.45,7.33-1.87-1.13,4.45-7.33-2.42-1.47Z"/>
    <g>
      <path class="cls-2" d="m153.99,209.72l-.79-5.72-.46-.28-2.32,3.83-1.86-1.13,5.52-9.1,3.48,2.11c1.68,1.02,2.09,2.86,1.16,4.38-.71,1.18-1.82,1.59-3.31,1.23l.82,6.02-2.24-1.36Zm1.12-6.73c.7.43,1.39.34,1.77-.28s.14-1.27-.57-1.69l-1.41-.86-1.2,1.97,1.41.86Z"/>
      <path class="cls-2" d="m175.12,222.76c-2.75-1.6-3.56-5.03-1.94-7.61,1.53-2.63,4.95-3.5,7.62-1.81,1.91,1.16,2.98,3.37,2.57,5.45l-2.13-1.29c-.05-.93-.64-1.83-1.53-2.36-1.7-1.03-3.67-.48-4.66,1.15-.99,1.63-.57,3.63,1.16,4.68,1.45.88,2.83.65,3.81-.51l-2.78-1.69,1.06-1.74,4.7,2.85c-.13.29-.29.6-.48.9-1.82,3.08-4.91,3.52-7.4,1.98Z"/>
      <path class="cls-2" d="m199.44,224.85l-5.52,9.1-1.6-.97-1.06-8.76-3.6,5.93-1.86-1.13,5.52-9.1,1.6.97,1.06,8.76,3.6-5.93,1.86,1.13Z"/>
      <path class="cls-2" d="m200.44,238.12c-2.75-1.6-3.56-5.03-1.94-7.61,1.53-2.63,4.95-3.5,7.62-1.81,1.91,1.16,2.98,3.37,2.57,5.45l-2.13-1.29c-.05-.93-.64-1.83-1.53-2.36-1.7-1.03-3.67-.48-4.66,1.15s-.57,3.63,1.16,4.68c1.45.88,2.83.65,3.81-.51l-2.78-1.69,1.06-1.74,4.7,2.85c-.13.29-.29.6-.48.9-1.82,3.08-4.91,3.52-7.4,1.98Z"/>
    </g>
  </g>
  <g>
    <g>
      <polygon class="cls-10" points="266.51 409.24 277.78 423.94 255.23 423.94 266.51 409.24"/>
      <circle class="cls-5" cx="248.35" cy="405.78" r="6.16"/>
      <rect x="240.92" y="406.61" width="49.51" height="3.87" rx="1.31" ry="1.31" transform="translate(-119.8 110.38) rotate(-19.24)"/>
      <circle class="cls-5" cx="277.05" cy="396.07" r="6.16"/>
      <g>
        <line class="cls-14" x1="251.71" y1="400.33" x2="256.44" y2="392.53"/>
        <g>
          <line class="cls-9" x1="251.71" y1="400.33" x2="254.58" y2="395.6"/>
          <polygon points="256.33 397.52 256.44 392.53 252.07 394.93 256.33 397.52"/>
        </g>
      </g>
    </g>
    <line class="cls-8" x1="272.78" y1="391.5" x2="268.27" y2="384.93"/>
    <line class="cls-7" x1="272.27" y1="385.77" x2="267.49" y2="389.02"/>
  </g>
  <g id="Dry">
    <path d="m126.59,517.58c-8.66,0-15.71-7.05-15.71-15.71s7.05-15.71,15.71-15.71,15.71,7.05,15.71,15.71-7.05,15.71-15.71,15.71Zm0-29.03c-7.35,0-13.33,5.98-13.33,13.33s5.98,13.33,13.33,13.33,13.33-5.98,13.33-13.33-5.98-13.33-13.33-13.33Z"/>
    <path d="m126.76,521.29c-8.9,0-16.47-4.38-21.25-8.05-2.88-2.21-4.98-4.33-6.23-5.71-2.51-2.78-2.51-3.46-2.51-3.75,0-.65.74-1.9,2.19-3.72,1.13-1.42,3.05-3.58,5.76-5.81,4.54-3.73,11.99-8.17,21.72-8.17s17.29,4.37,21.88,8.04c2.8,2.24,4.75,4.39,5.9,5.8,1.03,1.27,2.25,2.97,2.25,3.87,0,.3,0,1.08-2.45,3.87-1.21,1.38-3.26,3.48-6.14,5.71-4.69,3.62-12.16,7.93-21.11,7.93Zm-27.5-17.54c.78,1.19,3.79,4.71,8.24,8.01,4.38,3.26,11.28,7.15,19.27,7.15s14.85-3.83,19.16-7.05c4.57-3.42,7.47-7,8.09-8.1-.55-1.06-3.08-4.62-7.64-8.14-4.22-3.26-11.1-7.15-19.94-7.15s-15.57,3.94-19.73,7.24c-4.24,3.37-6.79,6.87-7.45,8.04Zm-.17-.3s0,0,0,0t0,0Z"/>
    <path d="m126.59,496c-3.51,0-6.35,2.84-6.35,6.35s2.84,6.35,6.35,6.35,6.35-2.84,6.35-6.35-2.84-6.35-6.35-6.35Zm2.22,5.87c-1.14,0-2.06-.92-2.06-2.06s.92-2.06,2.06-2.06,2.06.92,2.06,2.06-.92,2.06-2.06,2.06Z"/>
    <polygon points="125.29 515.95 126.53 514.42 126.53 513.08 125.58 513.08 125.58 514.09 124.56 515.36 125.29 515.95"/>
    <polygon points="138.01 511.65 131.12 508.63 130.74 509.49 133.66 510.77 133.34 511.22 131.76 511.67 132.02 512.58 133.91 512.04 134.54 511.15 137.64 512.51 138.01 511.65"/>
    <polygon points="116.3 491.78 123.2 494.81 123.58 493.94 120.66 492.66 120.98 492.21 122.55 491.76 122.29 490.86 120.4 491.39 119.78 492.28 116.68 490.92 116.3 491.78"/>
    <polygon points="115.87 502.31 118.93 501.39 118.65 500.49 111.44 502.67 111.72 503.57 114.95 502.59 115.47 503.54 117.28 504.3 117.65 503.43 116.14 502.8 115.87 502.31"/>
    <polygon points="138.72 500.41 141.77 499.48 141.5 498.58 134.29 500.76 134.56 501.66 137.8 500.68 138.32 501.64 140.13 502.4 140.49 501.53 138.99 500.9 138.72 500.41"/>
    <polygon points="120.9 511.42 120.45 511.08 122.86 508.98 122.24 508.27 121.25 509.13 120.58 508.33 120.56 507.31 119.62 507.33 119.65 508.67 120.55 509.75 116.57 513.23 117.18 513.94 119.73 511.71 120.59 512.37 122.56 512.31 122.53 511.37 120.9 511.42"/>
    <polygon points="133.12 491.91 133.56 492.24 131.16 494.34 131.78 495.05 132.76 494.19 133.44 495 133.45 496.01 134.4 495.99 134.37 494.65 133.47 493.57 137.45 490.09 136.83 489.39 134.29 491.61 133.42 490.96 131.46 491.01 131.49 491.95 133.12 491.91"/>
    <polygon points="126.7 487.38 125.87 489.77 126.45 491.4 127.59 490.99 127.15 489.76 127.84 487.77 126.7 487.38"/>
    <polygon points="139.78 507.8 137.96 506.04 136.24 505.89 136.13 507.1 137.43 507.21 138.94 508.67 139.78 507.8"/>
  </g>
  <g>
    <g>
      <path class="cls-1" d="m140.48,279.44c-1.95,0-3.9,0-5.85,0-1.34,0-2.72-.21-2.79-1.77-.07-1.67,1.31-2.06,2.74-2.07,3.29-.02,6.58-.09,9.86.07.89.04,2.02.63,2.51,1.32.3.43-.2,1.69-.7,2.31-2.19,2.73-4.51,5.37-6.78,8.04-.4.47-.77.96-1.58,1.97,2.54,0,4.48.02,6.42,0,1.44-.02,2.85.23,2.85,1.9,0,1.67-1.41,1.91-2.85,1.9-3.29-.03-6.58.07-9.87-.07-.85-.04-1.99-.56-2.38-1.22-.3-.49.16-1.72.65-2.33,2.6-3.22,5.32-6.34,8-9.5-.08-.18-.15-.37-.23-.55Z"/>
      <path class="cls-1" d="m138.84,293.26c-1.46,0-2.94-.02-4.4-.08-.85-.03-2.06-.56-2.5-1.29-.35-.57.17-1.88.66-2.49,1.93-2.39,3.97-4.77,5.93-7.08.67-.79,1.34-1.57,2.01-2.36l-.16-.39h-1.58c-1.39,0-2.79,0-4.18,0h-.04c-1.32,0-2.82-.22-2.89-1.91-.03-.62.14-1.12.49-1.48.47-.49,1.25-.73,2.39-.74.55,0,1.11,0,1.66-.01,2.69-.02,5.48-.05,8.21.08.94.04,2.12.66,2.62,1.38.37.53-.25,1.9-.7,2.47-1.56,1.95-3.22,3.88-4.82,5.75-.65.76-1.31,1.53-1.96,2.3-.25.3-.5.61-.85,1.06-.16.2-.33.42-.54.68.7,0,1.36,0,1.98,0,1.52,0,2.82,0,4.14-.01.84-.02,1.86.05,2.48.64.35.33.52.8.52,1.4,0,.59-.18,1.06-.52,1.39-.58.56-1.55.65-2.37.65h-.11c-1.13,0-2.27,0-3.41,0-.68,0-1.37,0-2.06,0Zm-1.71-13.96h3.44s.29.72.29.72l-.05.06c-.69.81-1.38,1.62-2.07,2.43-1.97,2.3-4,4.68-5.93,7.07-.49.61-.89,1.77-.64,2.17.35.58,1.41,1.12,2.27,1.15,2.15.09,4.34.08,6.45.07,1.14,0,2.27,0,3.41,0,.76,0,1.74-.05,2.28-.57.29-.28.43-.67.43-1.2,0-.53-.14-.92-.43-1.2-.54-.52-1.55-.57-2.27-.56-1.32.02-2.63.02-4.15.01-.71,0-1.46,0-2.27,0h-.29l.18-.22c.29-.36.52-.65.72-.91.36-.45.6-.76.86-1.06.65-.77,1.31-1.53,1.96-2.3,1.6-1.87,3.26-3.8,4.82-5.74.49-.61.93-1.81.69-2.15-.46-.65-1.54-1.22-2.4-1.26-2.73-.13-5.5-.11-8.19-.08-.55,0-1.11,0-1.66.01-1.04,0-1.78.23-2.19.65-.3.31-.44.74-.41,1.28.07,1.44,1.35,1.64,2.61,1.64h.04c.84,0,1.67,0,2.51,0Z"/>
    </g>
    <g>
      <path class="cls-1" d="m120.14,293.11c-2.51,0-4.4-.02-6.29,0-1.42.02-2.88-.19-2.94-1.84-.06-1.67,1.37-1.96,2.81-1.96,3.29,0,6.59-.08,9.87.05.85.03,2.08.54,2.38,1.18.29.61-.18,1.83-.71,2.49-1.97,2.5-4.09,4.87-6.15,7.3-.57.68-1.12,1.38-1.94,2.39.95.12,1.49.23,2.03.24,1.65.03,3.33-.17,4.92.11.81.14,1.47,1.14,2.2,1.75-.7.63-1.38,1.77-2.11,1.81-3.74.19-7.5.16-11.25.06-2.01-.06-2.7-1.67-1.43-3.24,2.29-2.82,4.68-5.57,7.03-8.35.41-.48.78-.98,1.58-1.99Z"/>
      <path class="cls-1" d="m118.26,306.91c-1.64,0-3.39-.03-5.3-.08-.99-.03-1.73-.43-2.05-1.09-.33-.7-.14-1.56.51-2.37,1.55-1.91,3.18-3.82,4.75-5.66.76-.9,1.52-1.79,2.28-2.69.26-.31.51-.63.86-1.08.16-.2.33-.43.54-.69-1.38,0-2.58,0-3.69,0-.79,0-1.55,0-2.31.01-1.4.01-3.02-.19-3.08-1.97-.02-.59.14-1.07.48-1.41.61-.61,1.68-.69,2.45-.69.16,0,.33,0,.49,0,.87,0,1.74,0,2.6-.01,2.23-.02,4.54-.03,6.81.06.92.04,2.18.58,2.5,1.26.33.7-.21,1.98-.72,2.63-1.38,1.76-2.87,3.48-4.31,5.15-.62.72-1.24,1.43-1.85,2.16-.38.45-.75.91-1.19,1.45-.18.23-.38.48-.6.74.23.03.43.06.62.09.47.07.81.12,1.16.12.53,0,1.08,0,1.61-.02,1.11-.03,2.25-.06,3.33.13.61.11,1.12.64,1.61,1.15.21.22.43.45.65.63l.12.1-.12.1c-.22.19-.44.45-.65.69-.49.56-.99,1.13-1.55,1.16-1.86.09-3.81.14-5.96.14Zm-2.1-13.94c1.19,0,2.48,0,3.98,0h.29l-.18.22c-.29.36-.52.66-.72.91-.35.45-.61.77-.87,1.08-.76.9-1.52,1.8-2.28,2.69-1.57,1.84-3.19,3.75-4.75,5.66-.59.72-.76,1.48-.48,2.08.27.57.93.91,1.8.93,4.41.12,7.98.11,11.24-.06.44-.02.9-.55,1.35-1.06.18-.21.37-.42.56-.61-.19-.17-.38-.36-.56-.55-.46-.48-.94-.97-1.46-1.06-1.06-.19-2.19-.16-3.28-.13-.53.02-1.09.03-1.62.02-.36,0-.73-.06-1.19-.13-.25-.04-.53-.08-.86-.12l-.25-.03.16-.19c.28-.34.53-.65.75-.93.44-.54.81-1.01,1.19-1.46.61-.72,1.23-1.44,1.85-2.16,1.44-1.67,2.92-3.39,4.3-5.14.53-.67.94-1.82.69-2.35-.27-.57-1.46-1.06-2.26-1.1-2.26-.09-4.57-.08-6.79-.06-1.02,0-2.05.01-3.07.01h-.02c-1.12,0-1.84.19-2.25.61-.29.29-.42.69-.4,1.21.05,1.47,1.28,1.71,2.65,1.71.05,0,.1,0,.15,0,.76,0,1.51-.01,2.31-.01Z"/>
    </g>
    <g>
      <path class="cls-1" d="m96.13,316.63c1.46,0,2.33,0,3.21,0,1.25,0,2.5-.03,3.75.02,1.24.05,2.23.48,2.18,1.92-.05,1.3-.94,1.77-2.13,1.78-3.62.02-7.24.07-10.86-.04-.71-.02-1.75-.55-2.01-1.11-.26-.59.01-1.69.46-2.25,2.23-2.79,4.6-5.47,6.91-8.2.41-.48.79-.99,1.42-1.8-.88-.1-1.42-.2-1.96-.21-1.45-.03-2.9-.03-4.34-.01-1.35.01-2.67-.2-2.72-1.82-.05-1.79,1.38-1.93,2.78-1.94.72,0,1.45,0,2.17,0,2.57,0,5.14-.08,7.7.05.81.04,2.06.47,2.27,1.03.27.7-.06,1.91-.57,2.57-2.13,2.7-4.44,5.27-6.67,7.89-.44.52-.82,1.08-1.61,2.13Z"/>
      <path class="cls-1" d="m97.49,320.52c-1.73,0-3.48-.02-5.21-.07-.73-.02-1.85-.56-2.13-1.2-.29-.66,0-1.8.48-2.39,1.59-1.98,3.27-3.95,4.9-5.85.67-.78,1.34-1.57,2.01-2.35.27-.32.52-.64.84-1.06.13-.17.27-.35.42-.54-.2-.02-.38-.05-.55-.07-.44-.06-.79-.1-1.14-.11-1.28-.02-2.66-.03-4.34-.01-1.4.02-2.81-.21-2.86-1.95-.02-.62.14-1.11.48-1.45.57-.58,1.56-.63,2.44-.63h.99c1.1,0,2.21,0,3.31-.02,1.83-.02,3.73-.03,5.59.06.84.04,2.16.49,2.4,1.12.3.77-.07,2.04-.6,2.7-1.48,1.88-3.07,3.72-4.61,5.5-.69.8-1.38,1.59-2.06,2.4-.28.33-.53.67-.89,1.15-.16.22-.34.46-.55.75h2.93c.36,0,.74,0,1.12,0,.87,0,1.76-.01,2.64.02,1.58.06,2.36.76,2.32,2.07-.04,1.24-.83,1.9-2.27,1.91h-1.69c-1.31.02-2.63.03-3.97.03Zm-2.87-13.93c.9,0,1.72,0,2.5.02.36,0,.72.05,1.18.11.23.03.5.06.8.1l.25.03-.15.19c-.22.28-.4.52-.57.73-.32.42-.58.75-.85,1.07-.67.79-1.34,1.57-2.01,2.35-1.63,1.9-3.31,3.86-4.9,5.84-.45.56-.67,1.61-.44,2.11.21.48,1.18,1.01,1.88,1.03,3.05.09,6.16.07,9.16.05h1.69c1.28-.02,1.95-.57,1.99-1.65.04-1.16-.61-1.73-2.05-1.78-.87-.03-1.77-.03-2.63-.02-.37,0-.76,0-1.12,0h-3.49l.17-.22c.28-.38.52-.69.72-.96.36-.49.62-.84.9-1.17.68-.8,1.37-1.6,2.06-2.4,1.54-1.78,3.12-3.62,4.6-5.49.47-.6.81-1.77.55-2.43-.18-.47-1.32-.9-2.15-.94-1.85-.09-3.74-.08-5.57-.06-1.1,0-2.2.01-3.31.02h-.99c-.82,0-1.74.05-2.24.55-.28.28-.41.69-.4,1.25.04,1.5,1.26,1.69,2.57,1.68.66,0,1.27,0,1.84,0Z"/>
    </g>
  </g>
  <g>
    <path class="cls-1" d="m109.24,336.77c-1.84.03-3.03-1.25-3.07-2.56h1.63c.1.67.71,1.08,1.44,1.08.67,0,1.14-.31,1.14-.79,0-.43-.35-.75-1.06-.95l-.86-.24c-1.31-.36-2.09-1.16-2.1-2.32,0-.72.25-1.28.73-1.69.49-.42,1.14-.63,1.95-.63,1.66-.02,2.76,1.19,2.81,2.38h-1.61c-.18-.62-.67-.91-1.2-.91-.6,0-1.04.3-1.04.75s.33.73,1,.92l.95.25c1.31.36,2.08,1.18,2.08,2.37,0,1.32-1.14,2.33-2.8,2.33Z"/>
    <path class="cls-1" d="m115.29,328.8v6.32h3.43v1.52h-5.06v-7.84h1.63Z"/>
    <path class="cls-1" d="m125.14,328.8v1.52h-3.35v1.61h2.67v1.52h-2.67v1.66h3.35v1.52h-4.99v-7.84h4.99Z"/>
    <path class="cls-1" d="m131.84,328.8v1.52h-3.35v1.61h2.67v1.52h-2.67v1.66h3.35v1.52h-4.99v-7.84h4.99Z"/>
    <path class="cls-1" d="m135.18,334.08v2.56h-1.63v-7.84h2.66c1.61,0,2.81,1.15,2.81,2.64s-1.2,2.64-2.81,2.64h-1.03Zm0-3.78v2.28h1.01c.73,0,1.24-.49,1.24-1.14s-.51-1.14-1.24-1.14h-1.01Z"/>
  </g>
</svg>